<svg xmlns="http://www.w3.org/2000/svg" width="85.404" height="87.07" viewBox="0 0 85.404 87.07">
  <g id="undraw_moments_0y20" transform="translate(0)">
    <path id="Path_806" data-name="Path 806" d="M719.172,375.356a.3.3,0,0,0-.3.3v20.588a.3.3,0,0,0,.3.3h28.682a.3.3,0,0,0,.3-.3V375.656a.3.3,0,0,0-.3-.3Z" transform="translate(-662.75 -340.248)" fill="#e6e6e6"/>
    <path id="Path_807" data-name="Path 807" d="M760.608,388.774v14.631a.368.368,0,0,1-.368.368H735.4a.262.262,0,0,1-.052,0,.368.368,0,0,1-.316-.364V388.774a.368.368,0,0,1,.368-.368H760.24a.368.368,0,0,1,.368.368Z" transform="translate(-677.089 -351.825)" fill="#fff"/>
    <circle id="Ellipse_135" data-name="Ellipse 135" cx="1.334" cy="1.334" r="1.334" transform="translate(77.037 40.608)" fill="#ff6584"/>
    <circle id="Ellipse_136" data-name="Ellipse 136" cx="0.44" cy="0.44" r="0.44" transform="translate(56.539 35.408)" fill="#3f3d56"/>
    <circle id="Ellipse_137" data-name="Ellipse 137" cx="0.44" cy="0.44" r="0.44" transform="translate(84.048 35.408)" fill="#3f3d56"/>
    <circle id="Ellipse_138" data-name="Ellipse 138" cx="0.44" cy="0.44" r="0.44" transform="translate(56.539 55.116)" fill="#3f3d56"/>
    <circle id="Ellipse_139" data-name="Ellipse 139" cx="0.44" cy="0.44" r="0.44" transform="translate(84.048 55.116)" fill="#3f3d56"/>
    <circle id="Ellipse_140" data-name="Ellipse 140" cx="1.601" cy="1.601" r="1.601" transform="translate(64.529 43.979)" fill="#4f3dff"/>
    <path id="Path_808" data-name="Path 808" d="M584.551,406.66h-.328l.149-5.063Z" transform="translate(-518.267 -356.258)" fill="#3f3d56"/>
    <path id="Path_809" data-name="Path 809" d="M585.462,406.27l.352-.487-.357.608-.039-.068Z" transform="translate(-519.328 -359.972)" fill="#3f3d56"/>
    <path id="Path_810" data-name="Path 810" d="M582.7,410.627l-.352-.487.357.608.039-.068Z" transform="translate(-516.599 -363.837)" fill="#3f3d56"/>
    <circle id="Ellipse_141" data-name="Ellipse 141" cx="1.601" cy="1.601" r="1.601" transform="translate(79.214 43.979)" fill="#4f3dff"/>
    <path id="Path_811" data-name="Path 811" d="M714.627,406.66H714.3l.149-5.063Z" transform="translate(-633.658 -356.258)" fill="#3f3d56"/>
    <path id="Path_812" data-name="Path 812" d="M715.538,406.27l.352-.487-.357.608-.039-.068Z" transform="translate(-634.719 -359.972)" fill="#3f3d56"/>
    <path id="Path_813" data-name="Path 813" d="M712.772,410.627l-.352-.487.357.608.039-.068Z" transform="translate(-631.991 -363.837)" fill="#3f3d56"/>
    <circle id="Ellipse_142" data-name="Ellipse 142" cx="2.364" cy="2.364" r="2.364" transform="translate(68.403 41.819)" fill="#4f3dff"/>
    <path id="Path_814" data-name="Path 814" d="M625.051,395.687h-.484l.221-7.478Z" transform="translate(-554.056 -344.382)" fill="#3f3d56"/>
    <path id="Path_815" data-name="Path 815" d="M626.4,395.11l.52-.719-.527.9-.057-.1Z" transform="translate(-555.623 -349.866)" fill="#3f3d56"/>
    <path id="Path_816" data-name="Path 816" d="M622.311,401.544l-.52-.719.527.9.057-.1Z" transform="translate(-551.594 -355.574)" fill="#3f3d56"/>
    <circle id="Ellipse_143" data-name="Ellipse 143" cx="2.364" cy="2.364" r="2.364" transform="translate(74.168 40.916)" fill="#4f3dff"/>
    <path id="Path_817" data-name="Path 817" d="M676.124,387.687h-.484l.221-7.478Z" transform="translate(-599.364 -337.285)" fill="#3f3d56"/>
    <path id="Path_818" data-name="Path 818" d="M677.47,387.11l.52-.719-.527.9-.057-.1Z" transform="translate(-600.93 -342.769)" fill="#3f3d56"/>
    <path id="Path_819" data-name="Path 819" d="M673.384,393.544l-.52-.719.527.9.057-.1Z" transform="translate(-596.901 -348.477)" fill="#3f3d56"/>
    <circle id="Ellipse_144" data-name="Ellipse 144" cx="2.364" cy="2.364" r="2.364" transform="translate(59.213 40.916)" fill="#4f3dff"/>
    <path id="Path_820" data-name="Path 820" d="M543.653,387.687h-.484l.221-7.478Z" transform="translate(-481.848 -337.285)" fill="#3f3d56"/>
    <path id="Path_821" data-name="Path 821" d="M545,387.11l.52-.719-.527.9-.057-.1Z" transform="translate(-483.415 -342.769)" fill="#3f3d56"/>
    <path id="Path_822" data-name="Path 822" d="M540.914,393.544l-.52-.719.527.9.057-.1Z" transform="translate(-479.386 -348.477)" fill="#3f3d56"/>
    <path id="Path_823" data-name="Path 823" d="M747.987,494.657H735.4a.262.262,0,0,1-.052,0,.368.368,0,0,1-.316-.363v-3.142a21.416,21.416,0,0,1,3.583-.291c4.467,0,8.2,1.28,9.141,2.994A1.722,1.722,0,0,1,747.987,494.657Z" transform="translate(-677.089 -442.708)" fill="#28282e"/>
    <path id="Path_824" data-name="Path 824" d="M849.256,507.77v.712a.368.368,0,0,1-.368.368H834.965a7.1,7.1,0,0,1,1.443-.807,17.832,17.832,0,0,1,6.777-1.188A18.891,18.891,0,0,1,849.256,507.77Z" transform="translate(-765.737 -456.902)" fill="#28282e"/>
    <path id="Path_825" data-name="Path 825" d="M661.553,64.379a.3.3,0,0,0-.141.035L636.09,77.884a.3.3,0,0,0-.124.406l9.668,18.176a.3.3,0,0,0,.406.124l25.322-13.47a.3.3,0,0,0,.124-.406l-9.668-18.176a.3.3,0,0,0-.177-.146A.3.3,0,0,0,661.553,64.379Z" transform="translate(-589.173 -64.379)" fill="#e6e6e6"/>
    <path id="Path_826" data-name="Path 826" d="M679.163,84.143l6.871,12.917a.368.368,0,0,1-.152.5l-21.927,11.664a.31.31,0,0,1-.049.021.368.368,0,0,1-.45-.173l-6.871-12.917a.368.368,0,0,1,.152-.5L678.665,83.99A.368.368,0,0,1,679.163,84.143Z" transform="translate(-607.457 -81.738)" fill="#fff"/>
    <circle id="Ellipse_145" data-name="Ellipse 145" cx="3.232" cy="3.232" r="3.232" transform="translate(53.819 12.745)" fill="#ff6584"/>
    <path id="Path_827" data-name="Path 827" d="M737.363,178.519l-14,7.445a.318.318,0,0,1-.054.024L723.833,171a.525.525,0,0,1,.807-.429l8.535,5.331.409.255Z" transform="translate(-666.689 -158.51)" fill="#28282e"/>
    <path id="Path_828" data-name="Path 828" d="M588.463,156.679l-4.779,2.542.533-4.655.038-.335.019-.168.409.255Z" transform="translate(-517.789 -136.67)" opacity="0.2"/>
    <path id="Path_829" data-name="Path 829" d="M821.676,164.092l-12.106,6.439.533-4.655.038-.335.695-6.066a.7.7,0,0,1,.889-.543.634.634,0,0,1,.073.031Z" transform="translate(-743.209 -148.228)" fill="#28282e"/>
    <circle id="Ellipse_146" data-name="Ellipse 146" cx="0.44" cy="0.44" r="0.44" transform="translate(47.316 13.457)" fill="#3f3d56"/>
    <circle id="Ellipse_147" data-name="Ellipse 147" cx="0.44" cy="0.44" r="0.44" transform="translate(71.603 0.538)" fill="#3f3d56"/>
    <circle id="Ellipse_148" data-name="Ellipse 148" cx="0.44" cy="0.44" r="0.44" transform="translate(56.572 30.856)" fill="#3f3d56"/>
    <circle id="Ellipse_149" data-name="Ellipse 149" cx="0.44" cy="0.44" r="0.44" transform="translate(80.858 17.937)" fill="#3f3d56"/>
    <path id="Path_830" data-name="Path 830" d="M697.641,616.623a.3.3,0,0,0,.367-.213l5.293-19.9a.3.3,0,0,0-.213-.367l-27.718-7.373a.3.3,0,0,0-.367.213l-5.292,19.9a.3.3,0,0,0,.213.367Z" transform="translate(-619.13 -529.563)" fill="#e6e6e6"/>
    <path id="Path_831" data-name="Path 831" d="M723.842,612.513l-3.761,14.14a.368.368,0,0,1-.45.261l-24-6.385a.263.263,0,0,1-.049-.018.367.367,0,0,1-.212-.433l3.761-14.14a.368.368,0,0,1,.45-.261l24,6.385A.368.368,0,0,1,723.842,612.513Z" transform="translate(-641.888 -544.556)" fill="#fff"/>
    <path id="Path_832" data-name="Path 832" d="M720.615,722.115l-.534,2.009a.368.368,0,0,1-.45.261l-24-6.385a.258.258,0,0,1-.049-.018.367.367,0,0,1-.212-.433l.534-2.009Z" transform="translate(-641.888 -642.027)" fill="#28282e"/>
    <rect id="Rectangle_313" data-name="Rectangle 313" width="3.951" height="0.452" transform="translate(64.302 77.536) rotate(14.897)" fill="#fff"/>
    <rect id="Rectangle_314" data-name="Rectangle 314" width="3.951" height="0.452" transform="translate(55.52 75.2) rotate(14.897)" fill="#fff"/>
    <rect id="Rectangle_315" data-name="Rectangle 315" width="3.951" height="0.452" transform="translate(73.085 79.872) rotate(14.897)" fill="#fff"/>
    <circle id="Ellipse_150" data-name="Ellipse 150" cx="0.44" cy="0.44" r="0.44" transform="translate(56.148 59.629)" fill="#3f3d56"/>
    <circle id="Ellipse_151" data-name="Ellipse 151" cx="0.44" cy="0.44" r="0.44" transform="translate(82.733 66.701)" fill="#3f3d56"/>
    <circle id="Ellipse_152" data-name="Ellipse 152" cx="0.44" cy="0.44" r="0.44" transform="translate(51.082 78.675)" fill="#3f3d56"/>
    <circle id="Ellipse_153" data-name="Ellipse 153" cx="0.44" cy="0.44" r="0.44" transform="translate(77.666 85.747)" fill="#3f3d56"/>
    <rect id="Rectangle_316" data-name="Rectangle 316" width="2.196" height="0.349" transform="translate(74.946 79.737) rotate(-165.073)" fill="#3f3d56"/>
    <path id="Path_833" data-name="Path 833" d="M731.516,676.791l.411.218,16.639,4.436.242-.309a3.641,3.641,0,0,0,.765-1.834,1.532,1.532,0,0,0-.349-1.343l.57-5.115-9.2-2.466-4.326,1.925a3.691,3.691,0,0,0-2.888.416,2.761,2.761,0,0,0-.949,1.321l-.193.582Z" transform="translate(-673.967 -601.963)" fill="#4f3dff"/>
    <circle id="Ellipse_154" data-name="Ellipse 154" cx="2.126" cy="2.126" r="2.126" transform="translate(59.1 73.592)" fill="#3f3d56"/>
    <circle id="Ellipse_155" data-name="Ellipse 155" cx="1.119" cy="1.119" r="1.119" transform="translate(60.107 74.599)" fill="#ccc"/>
    <circle id="Ellipse_156" data-name="Ellipse 156" cx="2.126" cy="2.126" r="2.126" transform="translate(69.238 76.295)" fill="#3f3d56"/>
    <circle id="Ellipse_157" data-name="Ellipse 157" cx="1.119" cy="1.119" r="1.119" transform="translate(70.245 77.302)" fill="#ccc"/>
    <path id="Path_834" data-name="Path 834" d="M565.159,612.807l4.97,1.325.607.161,1.024.273.02-.075.24-.9.27-1.011-.682-.181-.607-.162-1.075-.287-.607-.161-1.241-.331Z" transform="translate(-501.355 -542.426)" fill="#fff"/>
    <path id="Path_835" data-name="Path 835" d="M630.8,625.3l2.627.7.138-.515.24-.9.153-.571-.385-.1-.607-.162-1.636-.436Z" transform="translate(-559.582 -552.94)" fill="#fff"/>
    <rect id="Rectangle_317" data-name="Rectangle 317" width="0.349" height="0.662" transform="translate(69.84 74.263) rotate(-165.073)" fill="#3f3d56"/>
    <rect id="Rectangle_318" data-name="Rectangle 318" width="0.349" height="0.662" transform="translate(64.999 71.312) rotate(104.927)" fill="#3f3d56"/>
    <path id="Path_836" data-name="Path 836" d="M0,0H.038A.729.729,0,0,1,.767.729h0a.729.729,0,0,1-.729.729H0Z" transform="translate(64.723 71.398) rotate(-165.073)" fill="#3f3d56"/>
    <path id="Path_837" data-name="Path 837" d="M737.9,693.024a1.126,1.126,0,0,0,1.142-1.9,2.76,2.76,0,0,0-.949,1.321Z" transform="translate(-679.628 -620.365)" fill="#3f3d56"/>
    <path id="Path_838" data-name="Path 838" d="M616.918,618.356l.778,2.255.24-.9-.412-1.193Z" transform="translate(-547.271 -548.546)" fill="#f2f2f2"/>
    <path id="Path_839" data-name="Path 839" d="M649.978,627.171l.6,1.736.24-.9-.232-.673Z" transform="translate(-576.599 -556.366)" fill="#f2f2f2"/>
    <path id="Path_840" data-name="Path 840" d="M602.024,614.387l.808,2.344.607.161-.808-2.344Z" transform="translate(-534.058 -545.025)" fill="#f2f2f2"/>
    <circle id="Ellipse_158" data-name="Ellipse 158" cx="1.355" cy="1.355" r="1.355" transform="translate(3.163 32.323)" fill="#7f73f6"/>
    <path id="Path_841" data-name="Path 841" d="M255.192,351.825a1.353,1.353,0,0,1-1.482,2.228,1.354,1.354,0,1,0,1.482-2.228Z" transform="translate(-250.103 -319.374)" opacity="0.2"/>
    <ellipse id="Ellipse_159" data-name="Ellipse 159" cx="3.33" cy="1.355" rx="3.33" ry="1.355" transform="translate(36.015 33.791)" fill="#3f3d56"/>
    <path id="Path_842" data-name="Path 842" d="M567.614,363.692q-.171,0-.339.007c1.68.069,2.992.646,2.992,1.348s-1.311,1.279-2.992,1.348q.167.007.339.007c1.839,0,3.33-.607,3.33-1.355S569.453,363.692,567.614,363.692Z" transform="translate(-528.268 -329.901)" opacity="0.2"/>
    <path id="Path_843" data-name="Path 843" d="M265.466,358.837H248.757v-1.806a.339.339,0,0,0-.339-.339h-9.257a.339.339,0,0,0-.339.339v1.806h-9.709v-1.129a.339.339,0,0,0-.339-.339h-4.967a.339.339,0,0,0-.339.339v1.129h-1.355a.338.338,0,0,0-.339.339v22.24a.338.338,0,0,0,.339.339h43.352a.338.338,0,0,0,.339-.339v-22.24a.338.338,0,0,0-.339-.339Z" transform="translate(-221.773 -323.691)" fill="#28282e"/>
    <path id="Path_844" data-name="Path 844" d="M265.449,561.339H222.1a.338.338,0,0,1-.339-.339v1.581a.338.338,0,0,0,.339.339h43.352a.338.338,0,0,0,.339-.339V561a.338.338,0,0,1-.339.339Z" transform="translate(-221.758 -504.934)" opacity="0.2"/>
    <rect id="Rectangle_319" data-name="Rectangle 319" width="44.029" height="4.29" transform="translate(0.002 45.532)" opacity="0.2"/>
    <rect id="Rectangle_320" data-name="Rectangle 320" width="44.029" height="4.29" transform="translate(0.002 43.387)" opacity="0.2"/>
    <rect id="Rectangle_321" data-name="Rectangle 321" width="44.029" height="4.29" transform="translate(0.002 44.403)" fill="#4f3dff"/>
    <circle id="Ellipse_160" data-name="Ellipse 160" cx="8.58" cy="8.58" r="8.58" transform="translate(13.436 37.968)" fill="#7f73f6"/>
    <path id="Path_845" data-name="Path 845" d="M365.242,428.228a8.58,8.58,0,0,1-14.008,9.814,8.58,8.58,0,1,0,14.008-9.814Z" transform="translate(-336.617 -387.151)" fill="#4f3dff" opacity="0.2"/>
    <circle id="Ellipse_161" data-name="Ellipse 161" cx="6.385" cy="6.385" r="6.385" transform="translate(15.631 40.163)" fill="#3f3d56"/>
    <path id="Path_846" data-name="Path 846" d="M382.7,437.658a4.937,4.937,0,0,1-.4,1.961,4.871,4.871,0,0,1-.536.945,4.967,4.967,0,1,1-6.934-6.934,4.872,4.872,0,0,1,.945-.536,4.968,4.968,0,0,1,6.928,4.564Z" transform="translate(-355.715 -391.11)" fill="#fff"/>
    <path id="Path_847" data-name="Path 847" d="M388.787,445.208a4.96,4.96,0,0,0-1.857-3.191,4.968,4.968,0,0,1,.378,4.634,4.871,4.871,0,0,1-.536.945,4.964,4.964,0,0,1-7.086,1.007,4.965,4.965,0,0,0,8.215.235,4.869,4.869,0,0,0,.536-.945A4.969,4.969,0,0,0,388.787,445.208Z" transform="translate(-361.857 -399.383)" opacity="0.2"/>
  </g>
</svg>
