<svg xmlns="http://www.w3.org/2000/svg" width="31" height="26" viewBox="0 0 31 26">
  <g id="machine-learning-01-svgrepo-com" transform="translate(-0.006)">
    <path id="machine--learning--01_1_" d="M11.475,1.64h-.006a3.364,3.364,0,0,0-3.089,1.6H7.913a5.664,5.664,0,0,0-3.241.956A3.111,3.111,0,0,0,3.227,6.73,3.8,3.8,0,0,0,4.2,8.956C2.084,9.57.643,11.056.64,12.7S2.077,15.814,4.2,16.434a3.767,3.767,0,0,0-1,2.206c0,1.935,2.113,3.512,4.718,3.516h.458a3.368,3.368,0,0,0,3.094,1.6h.007c1.881,0,3.2-1.1,3.2-2.68V4.32C14.682,2.745,13.365,1.642,11.475,1.64Zm0,13.56a.519.519,0,1,1,.61-.511A.568.568,0,0,1,11.475,15.2Zm2.518-3.988H11.818V6.159a1.135,1.135,0,0,0,.954-1.041,1.207,1.207,0,0,0-1.3-1.085,1.207,1.207,0,0,0-1.3,1.085,1.134,1.134,0,0,0,.954,1.041v5.053H9.565A1.152,1.152,0,0,0,8.27,12.3v.511H6.043a1.278,1.278,0,0,0-1.245-.8,1.207,1.207,0,0,0-1.3,1.085,1.207,1.207,0,0,0,1.3,1.085,1.277,1.277,0,0,0,1.245-.8H8.27v4.654a1.135,1.135,0,0,0-.954,1.042,1.207,1.207,0,0,0,1.3,1.085,1.207,1.207,0,0,0,1.3-1.085,1.135,1.135,0,0,0-.954-1.042V12.3c0-.32.228-.511.609-.511h4.426V21.07a2.131,2.131,0,0,1-2.175,2.082V15.731a1.135,1.135,0,0,0,.954-1.042,1.207,1.207,0,0,0-1.3-1.085,1.207,1.207,0,0,0-1.3,1.085,1.135,1.135,0,0,0,.954,1.042v7.426a2.47,2.47,0,0,1-2.194-1.384.346.346,0,0,0-.324-.191H7.923c-1.942,0-4.034-1.127-4.032-2.94a3.467,3.467,0,0,1,1.15-2.153.256.256,0,0,0,.089-.279.32.32,0,0,0-.245-.2c-2.1-.451-3.56-1.813-3.557-3.311s1.452-2.85,3.524-3.3H7.369a1.278,1.278,0,0,0,1.245.8,1.207,1.207,0,0,0,1.3-1.085,1.206,1.206,0,0,0-1.3-1.084,1.277,1.277,0,0,0-1.245.8H4.953A3.428,3.428,0,0,1,3.912,6.731a2.577,2.577,0,0,1,1.2-2.1,4.964,4.964,0,0,1,2.8-.822h.7a.346.346,0,0,0,.323-.191,2.585,2.585,0,0,1,2.532-1.4h0c1.51,0,2.522.848,2.519,2.106ZM11.475,5.628a.568.568,0,0,1-.61-.511.62.62,0,0,1,1.221,0A.568.568,0,0,1,11.475,5.628ZM8.613,18.566a.519.519,0,1,1,0,1.021.519.519,0,1,1,0-1.021Zm-3.2-5.472a.568.568,0,0,1-.61.511.519.519,0,1,1,0-1.021A.568.568,0,0,1,5.409,13.094ZM8,9.106a.568.568,0,0,1,.61-.511.568.568,0,0,1,.61.511.568.568,0,0,1-.61.511A.568.568,0,0,1,8,9.106ZM29.939,12.7c0-1.632-1.438-3.118-3.561-3.739a3.768,3.768,0,0,0,1-2.207A3.111,3.111,0,0,0,25.92,4.2a5.8,5.8,0,0,0-3.263-.968H22.2a3.368,3.368,0,0,0-3.093-1.6H19.1a3.536,3.536,0,0,0-2.306.744A2.457,2.457,0,0,0,15.9,4.32V21.07c0,1.576,1.314,2.678,3.2,2.681h.007a3.364,3.364,0,0,0,3.088-1.6h.466a5.67,5.67,0,0,0,3.241-.956,3.108,3.108,0,0,0,1.447-2.538,3.794,3.794,0,0,0-.978-2.226C28.5,15.821,29.936,14.335,29.939,12.7ZM19.1,10.191a.568.568,0,0,1,.61.511.62.62,0,0,1-1.221,0A.568.568,0,0,1,19.1,10.191ZM25.729,16H23.21a1.278,1.278,0,0,0-1.246-.8,1.207,1.207,0,0,0-1.3,1.085,1.207,1.207,0,0,0,1.3,1.085,1.279,1.279,0,0,0,1.246-.8h2.416a3.426,3.426,0,0,1,1.039,2.088,2.571,2.571,0,0,1-1.2,2.1,5.128,5.128,0,0,1-2.807.822h-.691a.347.347,0,0,0-.323.191,2.585,2.585,0,0,1-2.532,1.4h0a2.819,2.819,0,0,1-1.83-.578,1.913,1.913,0,0,1-.689-1.527V14.179H18.76v5.052a1.135,1.135,0,0,0-.954,1.042,1.207,1.207,0,0,0,1.3,1.085,1.207,1.207,0,0,0,1.3-1.085,1.136,1.136,0,0,0-.954-1.042V14.179h1.566a1.152,1.152,0,0,0,1.3-1.085v-.511h2.226a1.278,1.278,0,0,0,1.246.8,1.207,1.207,0,0,0,1.3-1.085,1.207,1.207,0,0,0-1.3-1.085,1.278,1.278,0,0,0-1.246.8H22.309V7.355a1.135,1.135,0,0,0,.954-1.041,1.318,1.318,0,0,0-2.594,0,1.135,1.135,0,0,0,.954,1.041v5.739c0,.32-.227.511-.608.511H16.587V4.32a1.933,1.933,0,0,1,.691-1.53,2.638,2.638,0,0,1,1.483-.553V9.66a1.135,1.135,0,0,0-.954,1.041,1.207,1.207,0,0,0,1.3,1.085A1.207,1.207,0,0,0,20.4,10.7a1.135,1.135,0,0,0-.954-1.041V2.233a2.471,2.471,0,0,1,2.194,1.385.347.347,0,0,0,.324.191h.691a5.018,5.018,0,0,1,2.822.834,2.577,2.577,0,0,1,1.21,2.107A3.466,3.466,0,0,1,25.539,8.9a.258.258,0,0,0-.09.279.322.322,0,0,0,.246.2c2.1.452,3.559,1.814,3.557,3.311S27.8,15.543,25.729,16Zm-3.153.287a.62.62,0,1,1-.61-.511A.568.568,0,0,1,22.576,16.285ZM19.1,19.763a.519.519,0,1,1-.61.511A.568.568,0,0,1,19.1,19.763ZM21.966,6.825a.568.568,0,0,1-.61-.511.62.62,0,0,1,1.221,0A.568.568,0,0,1,21.966,6.825Zm3.2,5.472a.62.62,0,1,1,.61.511A.568.568,0,0,1,25.17,12.3Z" transform="translate(0.465 -0.221)" fill="#5c85b5"/>
    <rect id="_Transparent_Rectangle" width="31" height="26" transform="translate(0.006)" fill="none"/>
  </g>
</svg>
