<svg xmlns="http://www.w3.org/2000/svg" width="56.785" height="55.427" viewBox="0 0 56.785 55.427">
  <g id="Camera-pana" transform="translate(-37.98 -113.358)">
    <g id="freepik--Camera--inject-19" transform="translate(37.98 113.358)">
      <path id="Path_1273" data-name="Path 1273" d="M227.872,177.2h15.3l.874-.874h9.3a1.138,1.138,0,0,1,1.138,1.138V179H226.847l-.033-.682a1.066,1.066,0,0,1,1.058-1.119Z" transform="translate(-203.256 -176.328)" fill="#a05eff"/>
      <path id="Path_1274" data-name="Path 1274" d="M102.466,213.363l.205-20.368a2.165,2.165,0,0,1,2.165-2.145h46.8A2.165,2.165,0,0,1,153.806,193l.153,20.365,2.154,8.9v3.179h-1.526v9.1a6.027,6.027,0,0,1-6.027,6.024H106.953a6.027,6.027,0,0,1-6.027-6.027V225.05H99.4v-2.791Z" transform="translate(-99.378 -188.166)" fill="#a05eff"/>
      <path id="Path_1275" data-name="Path 1275" d="M102.368,213.208s-.065.2-.194.58l-.584,1.707-2.268,6.616h0v2.8l-.024-.022h1.55v8.41a15.1,15.1,0,0,0,.061,1.89,5.643,5.643,0,0,0,.571,1.858,6.084,6.084,0,0,0,1.182,1.627,5.974,5.974,0,0,0,3.788,1.683c.369.026.739.018,1.108.02h40.911a6.2,6.2,0,0,0,2.865-.739l.32-.2.161-.1.151-.113.3-.225.279-.255.14-.127.127-.139.255-.281.229-.3.113-.151c.037-.052.066-.107.1-.161l.2-.325c.061-.111.113-.227.168-.342a6.346,6.346,0,0,0,.283-.707,6.006,6.006,0,0,0,.27-1.5c.018-.255.017-.514.017-.772v-8.7h1.574l-.048.048v-3.159c-.218-.9-.454-1.879-.691-2.856-.5-2.069-1-4.123-1.463-6.038v-.011c-.05-6.587-.1-13-.144-19.181a4.469,4.469,0,0,0-.3-2.231,2.128,2.128,0,0,0-1.847-1.057h-13.2l-29.946-.028h-3.109c-.251,0-.5,0-.739.011a2.172,2.172,0,0,0-.7.2,2.113,2.113,0,0,0-1,.988,2.078,2.078,0,0,0-.2.667c-.026.231-.02.465-.024.7,0,.465,0,.924-.015,1.371q-.015,1.35-.028,2.612c-.037,3.364-.068,6.256-.094,8.619s-.05,4.193-.065,5.434c0,.619-.015,1.092-.018,1.409s0,.478,0,.478v-1.891c.011-1.241.026-3.072.046-5.434s.048-5.255.079-8.619q.011-1.26.024-2.61c0-.449,0-.905.013-1.369,0-.231,0-.465.022-.7a2.2,2.2,0,0,1,1.236-1.7,2.243,2.243,0,0,1,.72-.205c.253-.018.5,0,.754-.011h46.238a2.217,2.217,0,0,1,2.233,2.217c0,.384,0,.77.009,1.156.046,6.181.1,12.594.146,19.179V213.2c.465,1.917.962,3.971,1.463,6.038.236.979.473,1.954.693,2.858v3.238h-1.574l.048-.048v8.659c0,.259,0,.517-.017.778a6.13,6.13,0,0,1-.273,1.528,6.332,6.332,0,0,1-.288.719c-.057.115-.109.233-.17.347l-.2.323c-.033.055-.065.111-.1.164l-.115.153-.233.308-.259.284-.129.142-.142.127-.283.259-.307.224-.153.115-.163.1-.327.2a6.243,6.243,0,0,1-2.909.739h-40.9c-.369,0-.739,0-1.108-.02a6.029,6.029,0,0,1-3.829-1.7,6.222,6.222,0,0,1-1.2-1.646,5.77,5.77,0,0,1-.574-1.88,15.281,15.281,0,0,1-.059-1.9v-8.4l.024.026H99.28V222.1h0c1-2.882,1.768-5.1,2.289-6.605l.593-1.7Z" transform="translate(-99.28 -188.011)" fill="#263238"/>
      <circle id="Ellipse_177" data-name="Ellipse 177" cx="3.909" cy="3.909" r="3.909" transform="translate(5.09 19.333) rotate(-47.34)" fill="#e0e0e0"/>
      <path id="Path_1276" data-name="Path 1276" d="M143.169,262.369a.256.256,0,0,1-.009-.063,1.032,1.032,0,0,0-.013-.185,2.139,2.139,0,0,0-.035-.3,3.25,3.25,0,0,0-.083-.4,3.716,3.716,0,0,0-.436-1.033,3.878,3.878,0,0,0-.988-1.1,3.831,3.831,0,0,0-1.631-.72,3.879,3.879,0,0,0-2.032.17,4.183,4.183,0,0,0-.5.222,4.028,4.028,0,0,0-.473.3,4.142,4.142,0,0,0-.438.369,4.661,4.661,0,0,0-.369.447,3.782,3.782,0,0,0-.554,1.064,3.853,3.853,0,0,0,0,2.436,3.783,3.783,0,0,0,.554,1.064,4.223,4.223,0,0,0,.369.449,4.629,4.629,0,0,0,.438.369,4.039,4.039,0,0,0,.473.3,4.178,4.178,0,0,0,.5.222,3.879,3.879,0,0,0,4.649-1.648,3.738,3.738,0,0,0,.436-1.033,3.2,3.2,0,0,0,.083-.4,2.078,2.078,0,0,0,.035-.3c0-.076.009-.139.013-.185a.233.233,0,0,1,.009-.063.318.318,0,0,1,0,.063v.185a1.756,1.756,0,0,1-.026.3,2.622,2.622,0,0,1-.076.408,3.694,3.694,0,0,1-.425,1.051,3.925,3.925,0,0,1-4.725,1.7,4.388,4.388,0,0,1-.517-.225,4.232,4.232,0,0,1-.491-.3,4.588,4.588,0,0,1-.449-.382,4.394,4.394,0,0,1-.388-.456,3.848,3.848,0,0,1-.567-1.09,3.938,3.938,0,0,1,0-2.5,3.824,3.824,0,0,1,.567-1.09,3.605,3.605,0,0,1,.837-.839,4.233,4.233,0,0,1,.486-.31,4.1,4.1,0,0,1,.517-.225,3.929,3.929,0,0,1,4.723,1.7,3.694,3.694,0,0,1,.425,1.051,2.644,2.644,0,0,1,.076.406,1.773,1.773,0,0,1,.026.3v.185A.332.332,0,0,1,143.169,262.369Z" transform="translate(-128.646 -243.262)" fill="#263238"/>
      <g id="Group_90" data-name="Group 90" transform="translate(0.022 25.199)" opacity="0.3">
        <path id="Path_1277" data-name="Path 1277" d="M99.4,321.634h56.713l-2.154-8.894H102.468Z" transform="translate(-99.4 -312.74)"/>
      </g>
      <path id="Path_1278" data-name="Path 1278" d="M339.692,211.983h-6.519a.924.924,0,0,1-.924-.924v-6.526a.924.924,0,0,1,.924-.924h6.519a.924.924,0,0,1,.924.924v6.519a.924.924,0,0,1-.924.931Zm-6.519-8.2a.739.739,0,0,0-.739.739v6.526a.739.739,0,0,0,.739.739h6.519a.739.739,0,0,0,.739-.739v-6.519a.739.739,0,0,0-.739-.739Z" transform="translate(-289.217 -198.569)" fill="#263238"/>
      <circle id="Ellipse_178" data-name="Ellipse 178" cx="3.722" cy="3.722" r="3.722" transform="translate(42.746 12.003) rotate(-76.83)" fill="#263238"/>
      <rect id="Rectangle_408" data-name="Rectangle 408" width="11.7" height="4.714" rx="2.357" transform="translate(6.238 6.882)" fill="#fafafa"/>
      <path id="Path_1279" data-name="Path 1279" d="M143.288,218.08a2.153,2.153,0,0,0,.3-.048,1.252,1.252,0,0,0,.707-.5,1.226,1.226,0,0,0,.216-.589c.011-.233,0-.491,0-.767v-1.365a1.864,1.864,0,0,0-.042-.5,1.219,1.219,0,0,0-.652-.791,2.5,2.5,0,0,0-1.143-.122h-8.573a1.217,1.217,0,0,0-1.147.824,2.31,2.31,0,0,0-.065.739v1.5a2.294,2.294,0,0,0,.055.709,1.217,1.217,0,0,0,.983.833,2.217,2.217,0,0,0,.334.013H138.8l3.286.015h1.125a.382.382,0,0,1,.079,0h-.312l-.892.009-3.286.017h-4.535a2.217,2.217,0,0,1-.347-.015,1.3,1.3,0,0,1-1.057-.892,1.392,1.392,0,0,1-.061-.369V214.6a1.365,1.365,0,0,1,.068-.393,1.31,1.31,0,0,1,1.238-.888h9.173a1.276,1.276,0,0,1,.576.133,1.293,1.293,0,0,1,.685.84,1.953,1.953,0,0,1,.041.512v1.365c0,.275,0,.53-.011.77a1.271,1.271,0,0,1-.231.606,1.256,1.256,0,0,1-.739.5A.988.988,0,0,1,143.288,218.08Z" transform="translate(-126.608 -206.485)" fill="#263238"/>
      <circle id="Ellipse_179" data-name="Ellipse 179" cx="10.148" cy="10.148" r="10.148" transform="translate(19.474 4.483)" fill="#263238"/>
      <path id="Path_1280" data-name="Path 1280" d="M214.451,220.6a10.241,10.241,0,1,1,10.241-10.24A10.241,10.241,0,0,1,214.451,220.6Zm0-20.295a10.08,10.08,0,1,0,0-.007Z" transform="translate(-184.828 -195.724)" fill="#455a64"/>
      <path id="Path_1281" data-name="Path 1281" d="M218.152,222.382a9.411,9.411,0,1,1,9.42-9.409A9.411,9.411,0,0,1,218.152,222.382Zm0-18.636a9.226,9.226,0,1,0,9.236,9.236A9.226,9.226,0,0,0,218.152,203.747Z" transform="translate(-188.529 -198.528)" fill="#455a64"/>
      <circle id="Ellipse_180" data-name="Ellipse 180" cx="7.551" cy="7.551" r="7.551" transform="translate(22.072 6.999)" fill="#455a64"/>
      <circle id="Ellipse_181" data-name="Ellipse 181" cx="2.917" cy="2.917" r="2.917" transform="matrix(0.676, -0.737, 0.737, 0.676, 6.491, 19.291)" fill="#a05eff"/>
      <path id="Path_1282" data-name="Path 1282" d="M146.559,266.688a5.179,5.179,0,0,0-.111-.707,2.77,2.77,0,0,0-.325-.768,2.919,2.919,0,0,0-.739-.816,2.87,2.87,0,0,0-1.214-.534,2.905,2.905,0,0,0-1.509.127,2.717,2.717,0,0,0-.726.392,3.535,3.535,0,0,0-.325.277,3.284,3.284,0,0,0-.281.334,2.856,2.856,0,0,0,0,3.391,3.028,3.028,0,0,0,.281.332,3.066,3.066,0,0,0,.325.277,2.665,2.665,0,0,0,.726.392,2.891,2.891,0,0,0,3.46-1.221,2.785,2.785,0,0,0,.325-.768,5.184,5.184,0,0,0,.111-.707v.187a1.358,1.358,0,0,1-.018.225,2.3,2.3,0,0,1-.055.3,2.8,2.8,0,0,1-.316.787,2.936,2.936,0,0,1-3.535,1.276,2.79,2.79,0,0,1-.752-.4,3.229,3.229,0,0,1-.336-.284,3.485,3.485,0,0,1-.292-.344,2.955,2.955,0,0,1,0-3.51,3.217,3.217,0,0,1,.29-.342,3.49,3.49,0,0,1,.336-.286,2.789,2.789,0,0,1,.752-.4,2.941,2.941,0,0,1,3.535,1.278,2.784,2.784,0,0,1,.316.787,2.3,2.3,0,0,1,.055.3,1.357,1.357,0,0,1,.018.225v.139A.279.279,0,0,0,146.559,266.688Z" transform="translate(-133.028 -247.581)" fill="#263238"/>
      <path id="Path_1283" data-name="Path 1283" d="M146.956,266.714a4.083,4.083,0,0,0-.506-.205,2.481,2.481,0,0,0-1.461.011,2.427,2.427,0,0,0-1.528,1.463,2.375,2.375,0,0,0-.14.613,2.453,2.453,0,0,0,.03.656,2.4,2.4,0,0,0,1.79,1.9,2.437,2.437,0,0,0,1.275-.031,2.468,2.468,0,0,0,.994-.591,2.433,2.433,0,0,0,.554-.844,2.479,2.479,0,0,0,.1-1.457,2.878,2.878,0,0,0-.122-.386.966.966,0,0,1-.052-.133.286.286,0,0,1,.02.031c.011.02.028.052.048.094a2.139,2.139,0,0,1,.142.384,2.472,2.472,0,0,1-.078,1.491,2.507,2.507,0,0,1-.563.877,2.558,2.558,0,0,1-1.025.619,2.5,2.5,0,0,1-1.323.037,2.461,2.461,0,0,1-1.225-.713,2.5,2.5,0,0,1-.637-1.265,2.651,2.651,0,0,1-.028-.682,2.49,2.49,0,0,1,.831-1.62,2.438,2.438,0,0,1,.909-.512,2.464,2.464,0,0,1,1.493.017,2.125,2.125,0,0,1,.369.166l.092.054Z" transform="translate(-135.099 -249.718)" fill="#263238"/>
      <path id="Path_1284" data-name="Path 1284" d="M167.493,312.518c0,.028-11.528.05-25.744.05S116,312.546,116,312.518s11.524-.048,25.747-.048S167.493,312.492,167.493,312.518Z" transform="translate(-112.912 -287.321)" fill="#263238"/>
      <path id="Path_1285" data-name="Path 1285" d="M161.33,376.35H153.3c-4.961-.018-11.822-.081-19.384-.168s-14.428-.161-19.4-.194l-5.874-.037-1.6-.011h7.474c4.961.017,11.822.079,19.4.166s14.423.161,19.384.2l5.876.037,1.6.011h.556Z" transform="translate(-105.158 -339.067)" fill="#263238"/>
      <rect id="Rectangle_409" data-name="Rectangle 409" width="44.248" height="2.394" transform="translate(6.254 45.357)" fill="#263238"/>
      <path id="Path_1286" data-name="Path 1286" d="M124.158,428.35l-3.238,8.811h49.2l-3.737-8.811Z" transform="translate(-116.923 -381.796)" fill="#fff"/>
      <path id="Path_1287" data-name="Path 1287" d="M123.987,428.2h3.179l8.824-.013,30.225-.02h.031l.011.03c1.2,2.832,2.455,5.785,3.739,8.811l.028.066h-3.465l-45.809-.02h-.039l.013-.037,2.4-6.495.639-1.72c.072-.185.127-.34.164-.441s.057-.146.057-.146-.017.052-.052.153l-.161.445-.626,1.723c-.554,1.509-1.356,3.711-2.372,6.493l-.024-.035,45.809-.022h3.393l-.044.066c-1.284-3.026-2.534-5.979-3.735-8.811l.042.028-30.2-.02-8.833-.013H124.2Z" transform="translate(-116.752 -381.65)" fill="#263238"/>
      <g id="Group_91" data-name="Group 91" transform="translate(23.29 10.364)" opacity="0.3">
        <path id="Path_1288" data-name="Path 1288" d="M236.537,240.105c-.092-.949-.924-1.293-1.7-1.393-1.646-.231-3.51.24-4.862-.72a2.758,2.758,0,0,1-1.057-2.824c.185-.792.739-1.662.2-2.331a1.153,1.153,0,0,0-.848-.41,2,2,0,0,0-.894.185,2.819,2.819,0,0,0-1.389,1.33,6.166,6.166,0,0,0-.349,4.5,6.474,6.474,0,0,0,3.777,4.141,6.681,6.681,0,0,0,5.606-.369,2.787,2.787,0,0,0,1.461-1.568A1.457,1.457,0,0,0,236.537,240.105Z" transform="translate(-225.364 -232.426)" fill="#fff"/>
      </g>
      <g id="Group_92" data-name="Group 92" transform="translate(28.762 8.574)" opacity="0.3">
        <path id="Path_1289" data-name="Path 1289" d="M256.538,223.512a.774.774,0,1,1-.772-.772A.774.774,0,0,1,256.538,223.512Z" transform="translate(-254.99 -222.74)" fill="#fff"/>
      </g>
      <path id="Path_1290" data-name="Path 1290" d="M226.208,240.142a.611.611,0,0,1-.129-.054,3.249,3.249,0,0,1-.356-.185,7.037,7.037,0,0,1-1.212-.835,7.5,7.5,0,0,1-1.435-1.642,7.15,7.15,0,0,1-1.07-5.131,7.516,7.516,0,0,1,.654-2.071,7.02,7.02,0,0,1,.776-1.249c.1-.139.2-.235.259-.3a.938.938,0,0,1,.1-.1.832.832,0,0,1-.081.115c-.054.074-.144.172-.242.316a7.409,7.409,0,0,0-.739,1.254,7.555,7.555,0,0,0-.634,2.063,7.15,7.15,0,0,0,1.057,5.069,7.628,7.628,0,0,0,1.4,1.638,7.531,7.531,0,0,0,1.186.853,3.307,3.307,0,0,0,.347.185.719.719,0,0,1,.12.079Z" transform="translate(-199.253 -218.919)" fill="#fff"/>
      <path id="Path_1291" data-name="Path 1291" d="M255.305,293.372a3.092,3.092,0,0,1-.78,0,3.265,3.265,0,0,1-.776-.09,3.1,3.1,0,0,1,.781,0A3.257,3.257,0,0,1,255.305,293.372Z" transform="translate(-225.217 -271.657)" fill="#fff"/>
      <path id="Path_1292" data-name="Path 1292" d="M289.23,234.241c-.02,0,.065-.369.092-.955,0-.15.009-.31,0-.484s-.022-.36-.041-.554a6.6,6.6,0,0,0-.776-2.4,5.345,5.345,0,0,0-.29-.473c-.105-.14-.185-.275-.284-.393-.369-.464-.647-.706-.634-.72a1.176,1.176,0,0,1,.2.164,2.526,2.526,0,0,1,.218.212,3.458,3.458,0,0,1,.27.3,4.865,4.865,0,0,1,.3.39c.105.142.2.307.3.475a6.342,6.342,0,0,1,.785,2.44,5.53,5.53,0,0,1,.033.554,4.179,4.179,0,0,1-.013.49,3.758,3.758,0,0,1-.042.4,2.594,2.594,0,0,1-.052.3A1.557,1.557,0,0,1,289.23,234.241Z" transform="translate(-252.568 -218.666)" fill="#fff"/>
      <g id="Group_93" data-name="Group 93" transform="translate(1.548 36.891)" opacity="0.3">
        <path id="Path_1293" data-name="Path 1293" d="M107.66,376.04v2.523h53.661v-2.143Z" transform="translate(-107.66 -376.04)"/>
      </g>
      <path id="Path_1294" data-name="Path 1294" d="M135.107,428.35l-2.527,7.716h44.895l-2.926-7.716Z" transform="translate(-126.429 -381.796)" fill="#455a64"/>
      <path id="Path_1295" data-name="Path 1295" d="M179.954,428.138c0,.026-9.546.048-21.316.048s-21.318-.022-21.318-.048,9.542-.048,21.318-.048S179.954,428.11,179.954,428.138Z" transform="translate(-130.293 -381.584)" fill="#263238"/>
      <path id="Path_1296" data-name="Path 1296" d="M333.662,184.475l3.273.9-2.418.591c-1.236.2-1.788.728-2.012,1.417l-.755,6.1-.924-6.1a2.172,2.172,0,0,0-1.276-1.234l-3.14-.767,3.314-.938a2.174,2.174,0,0,0,1.2-1.23l.826-6.9.593,6.748A2.17,2.17,0,0,0,333.662,184.475Z" transform="translate(-284.456 -176.32)" fill="#fff"/>
      <path id="Path_1297" data-name="Path 1297" d="M367.348,257.4l.763.211-.563.139a.514.514,0,0,0-.469.329L366.9,259.5l-.216-1.42a.5.5,0,0,0-.3-.286l-.73-.185.772-.218a.512.512,0,0,0,.279-.286l.185-1.605.139,1.57A.5.5,0,0,0,367.348,257.4Z" transform="translate(-316.456 -240.874)" fill="#fff"/>
    </g>
  </g>
</svg>
