<svg xmlns="http://www.w3.org/2000/svg" width="20.188" height="16.841" viewBox="0 0 20.188 16.841">
  <path id="cart-lines-1-svgrepo-com" d="M88.676,88.841a1.089,1.089,0,1,1,1.281-1.072A1.183,1.183,0,0,1,88.676,88.841Zm-10.251,0a1.089,1.089,0,1,1,1.281-1.072A1.183,1.183,0,0,1,78.425,88.841Zm-.2-3.062A1.874,1.874,0,0,1,76.3,84.324l-1.245-7.318-.714-3.414a.868.868,0,0,0-.86-.674h-.934a.467.467,0,1,1,0-.919h.934a1.932,1.932,0,0,1,1.959,1.454l.714,3.414L77.4,84.2a.829.829,0,0,0,.824.658h11.9a.467.467,0,1,1,0,.919Zm.915-2.45a.513.513,0,0,1-.549-.429.4.4,0,0,1,.128-.337.55.55,0,0,1,.366-.153l9.94-.612a.866.866,0,0,0,.879-.643l1.153-5.511a.82.82,0,0,0-.238-.7.686.686,0,0,0-.494-.184H77.675a.467.467,0,1,1,0-.919H90.36a1.977,1.977,0,0,1,1.318.49,1.674,1.674,0,0,1,.494,1.439l-1.153,5.511A1.88,1.88,0,0,1,89.1,82.7l-9.885.612A.161.161,0,0,1,79.139,83.329Z" transform="translate(-72 -72)"/>
</svg>
