<svg xmlns="http://www.w3.org/2000/svg" width="24.403" height="21" viewBox="0 0 24.403 21">
  <g id="category-2-svgrepo-com" transform="translate(0.5 0.5)">
    <path id="Path_563" data-name="Path 563" d="M17.986,10.889h2.657q3.986,0,3.986-3.333V5.333Q24.628,2,20.643,2H17.986Q14,2,14,5.333V7.556Q14,10.889,17.986,10.889Z" transform="translate(-1.225 -2)" fill="none" stroke="#000" stroke-linecap="round" stroke-linejoin="round" stroke-width="1"/>
    <path id="Path_564" data-name="Path 564" d="M5.986,22.889H8.643q3.986,0,3.986-3.333V17.333Q12.628,14,8.643,14H5.986Q2,14,2,17.333v2.222Q2,22.889,5.986,22.889Z" transform="translate(-2 -2.889)" fill="none" stroke="#000" stroke-linecap="round" stroke-linejoin="round" stroke-width="1"/>
    <path id="Path_565" data-name="Path 565" d="M7.314,10.889c2.935,0,5.314-1.99,5.314-4.444S10.249,2,7.314,2,2,3.99,2,6.444,4.379,10.889,7.314,10.889Z" transform="translate(-2 -2)" fill="none" stroke="#000" stroke-linecap="round" stroke-linejoin="round" stroke-width="1"/>
    <path id="Path_566" data-name="Path 566" d="M19.314,22.889c2.935,0,5.314-1.99,5.314-4.444S22.249,14,19.314,14,14,15.99,14,18.444,16.379,22.889,19.314,22.889Z" transform="translate(-1.225 -2.889)" fill="none" stroke="#000" stroke-linecap="round" stroke-linejoin="round" stroke-width="1"/>
  </g>
</svg>
