<svg xmlns="http://www.w3.org/2000/svg" width="19.324" height="19.324" viewBox="0 0 19.324 19.324">
  <g id="category-2-svgrepo-com" transform="translate(-1.25 -1.25)">
    <path id="Path_2464" data-name="Path 2464" d="M16.674,9.13h1.782A2.363,2.363,0,0,0,21.13,6.456V4.674A2.363,2.363,0,0,0,18.456,2H16.674A2.363,2.363,0,0,0,14,4.674V6.456A2.363,2.363,0,0,0,16.674,9.13Z" transform="translate(-1.306)" fill="none" stroke="#292d32" stroke-linecap="round" stroke-linejoin="round" stroke-width="1.5"/>
    <path id="Path_2465" data-name="Path 2465" d="M4.674,21.13H6.456A2.363,2.363,0,0,0,9.13,18.456V16.674A2.363,2.363,0,0,0,6.456,14H4.674A2.363,2.363,0,0,0,2,16.674v1.782A2.363,2.363,0,0,0,4.674,21.13Z" transform="translate(0 -1.306)" fill="none" stroke="#292d32" stroke-linecap="round" stroke-linejoin="round" stroke-width="1.5"/>
    <path id="Path_2466" data-name="Path 2466" d="M5.565,9.13A3.565,3.565,0,1,0,2,5.565,3.565,3.565,0,0,0,5.565,9.13Z" fill="none" stroke="#292d32" stroke-linecap="round" stroke-linejoin="round" stroke-width="1.5"/>
    <path id="Path_2467" data-name="Path 2467" d="M17.565,21.13A3.565,3.565,0,1,0,14,17.565,3.565,3.565,0,0,0,17.565,21.13Z" transform="translate(-1.306 -1.306)" fill="none" stroke="#292d32" stroke-linecap="round" stroke-linejoin="round" stroke-width="1.5"/>
  </g>
</svg>
