<svg xmlns="http://www.w3.org/2000/svg" width="18.002" height="17" viewBox="0 0 18.002 17">
  <g id="chat-intelligence-svgrepo-com" transform="translate(-3.498 -3.5)">
    <path id="Path_782" data-name="Path 782" d="M3.5,11A1.5,1.5,0,0,1,5,9.5h8.851a1.5,1.5,0,0,1,1.5,1.5v5a1.5,1.5,0,0,1-1.5,1.5H7.264a.5.5,0,0,0-.28.086L4.278,19.414A.5.5,0,0,1,3.5,19ZM5,10.5a.5.5,0,0,0-.5.5v7.059l1.926-1.3a1.5,1.5,0,0,1,.84-.257h6.586a.5.5,0,0,0,.5-.5V11a.5.5,0,0,0-.5-.5Z" fill="#717171" fill-rule="evenodd"/>
    <path id="Path_783" data-name="Path 783" d="M5.5,6a2.5,2.5,0,0,1,4.95-.5H18A1.5,1.5,0,0,1,19.5,7v8.55a2.5,2.5,0,1,1-1,0V7a.5.5,0,0,0-.5-.5H10.45A2.5,2.5,0,0,1,5.5,6ZM8,4.5A1.5,1.5,0,1,0,9.5,6,1.5,1.5,0,0,0,8,4.5Zm11,12A1.5,1.5,0,1,0,20.5,18,1.5,1.5,0,0,0,19,16.5Z" fill="#717171" fill-rule="evenodd"/>
  </g>
</svg>
