<svg xmlns="http://www.w3.org/2000/svg" width="92.91" height="89.736" viewBox="0 0 92.91 89.736">
  <g id="undraw_visual_data_re_mxxo" transform="translate(-6.449)">
    <path id="Path_800" data-name="Path 800" d="M740.267,633.45h-1.6l-.762-6.182h2.365Z" transform="translate(-641.438 -545.267)" fill="#9e616a"/>
    <path id="Path_801" data-name="Path 801" d="M914.174,778.728h-5.168v-.065a2.012,2.012,0,0,1,2.011-2.011h3.157Z" transform="translate(-814.936 -688.992)"/>
    <path id="Path_802" data-name="Path 802" d="M693.267,633.45h-1.6l-.762-6.182h2.365Z" transform="translate(-600.583 -545.267)" fill="#9e616a"/>
    <path id="Path_803" data-name="Path 803" d="M867.174,778.728h-5.168v-.065a2.012,2.012,0,0,1,2.011-2.011h3.156Z" transform="translate(-774.081 -688.992)"/>
    <path id="Path_1495" data-name="Path 1495" d="M368.748,452.884V403.233a1.153,1.153,0,0,1,1.153-1.153h5.145a1.153,1.153,0,0,1,1.153,1.153h0v49.781Z" transform="translate(-345.304 -363.387)" fill="#232323"/>
    <path id="Path_1496" data-name="Path 1496" d="M498.748,521.713v-39.48a1.153,1.153,0,0,1,1.153-1.153h5.145a1.153,1.153,0,0,1,1.153,1.153h0v39.395Z" transform="translate(-458.31 -432.06)" fill="#232323"/>
    <path id="Path_804" data-name="Path 804" d="M265.14,169.221a.392.392,0,0,1-.292-.654l17.2-19.189,16.932,9.508,17.032-29.348,17.351,14.281a.392.392,0,0,1-.5.606L316.231,130.73l-16.957,29.218-17.057-9.578L265.432,169.09A.391.391,0,0,1,265.14,169.221Z" transform="translate(-254.9 -126.473)" fill="#3f3d56"/>
    <circle id="Ellipse_300" data-name="Ellipse 300" cx="3.66" cy="3.66" r="3.66" transform="translate(6.514 38.695)" fill="#161336"/>
    <circle id="Ellipse_301" data-name="Ellipse 301" cx="3.66" cy="3.66" r="3.66" transform="translate(23.509 19.74)" fill="#fff"/>
    <circle id="Ellipse_302" data-name="Ellipse 302" cx="3.66" cy="3.66" r="3.66" transform="translate(40.503 29.283)" fill="#e6e6e6"/>
    <circle id="Ellipse_303" data-name="Ellipse 303" cx="3.66" cy="3.66" r="3.66" transform="translate(57.498)" fill="#161336"/>
    <circle id="Ellipse_304" data-name="Ellipse 304" cx="3.66" cy="3.66" r="3.66" transform="translate(90.179 27.261)" fill="#7f73f6"/>
    <path id="Path_1507" data-name="Path 1507" d="M868.2,557.634c1.37.165,4.873-1.085,5.063.817,1.8,5.308,1.75,25.656,1.75,25.656l-2.745.131s-2.194-16.168-3.231-19.626c-.521,4.2-.429,20.28-.429,20.28l-2.484.131s-2.228-13.689-2.241-17.707c-.271-2.943.393-7.3.109-10.15A10.879,10.879,0,0,0,868.2,557.634Z" transform="translate(-775.654 -498.199)"/>
    <path id="Path_1513" data-name="Path 1513" d="M758.748,401.189V343.963a1.25,1.25,0,0,1,1.153-1.329h5.145a1.25,1.25,0,0,1,1.153,1.329v57.376Z" transform="translate(-684.321 -311.713)" fill="#232323"/>
    <path id="Path_1508" data-name="Path 1508" d="M822.727,378.329a17.08,17.08,0,0,0-2-3.16,5,5,0,0,1-.444-.607,8.417,8.417,0,0,1-.543-1.594c-.5-1.5-1.736-2.7-2.038-4.243-.11-.562-1.037,1.072-.793,1.769.435,1.261.491,2.6,1.046,3.816s1.205,2.387,1.684,3.633a12.524,12.524,0,0,0,.888,2.092,2.574,2.574,0,0,0,1.773,1.3,4.375,4.375,0,0,1,.213-1.4C822.674,379.424,822.964,378.817,822.727,378.329Z" transform="translate(-734.842 -334.293)" fill="#9e616a"/>
    <path id="Path_1509" data-name="Path 1509" d="M914.658,382.695a7.224,7.224,0,0,1,.425-2.716,2.815,2.815,0,0,0,.25-1.026,2.517,2.517,0,0,0-.316-.93,23.835,23.835,0,0,1-1.177-3.2l-.654-2.046c-.213-.156,1.031-.21,1.3.157a31.775,31.775,0,0,1,2.213,3.906,6.623,6.623,0,0,1,.447.979,5.386,5.386,0,0,1,.235,1.692,23.464,23.464,0,0,1-.288,3.2,2.86,2.86,0,0,1-.718,1.83A10.36,10.36,0,0,0,914.658,382.695Z" transform="translate(-818.548 -337.812)" fill="#9e616a"/>
    <circle id="Ellipse_307" data-name="Ellipse 307" cx="2.713" cy="2.713" r="2.713" transform="translate(89.94 38.399)" fill="#9e616a"/>
    <path id="Path_1512" data-name="Path 1512" d="M881.105,389.975a.471.471,0,0,1,.1-.487c.068-.053.158-.073.23-.124a.993.993,0,0,0,.248-.314,1.348,1.348,0,0,1,1.688-.428c.448.235.719.7,1.118,1.021.2.164.437.286.641.449a2.634,2.634,0,0,1,.831,1.344,7.626,7.626,0,0,1,.23,1.585,1.426,1.426,0,0,1-.019.482,1.351,1.351,0,0,1-.182.373,4.149,4.149,0,0,1-1.627,1.505,2.513,2.513,0,0,1-2.167.037.373.373,0,0,1-.166-.133A.478.478,0,0,1,882,395a1.963,1.963,0,0,0-.216-1.1c-.124-.248-.31-.462-.41-.719a2.5,2.5,0,0,1-.117-.892A9.688,9.688,0,0,0,881.105,389.975Z" transform="translate(-790.658 -351.57)" fill="#2d293d"/>
    <path id="Path_1514" data-name="Path 1514" d="M238.747,603.169V575.542c0-.354.516-.642,1.153-.642h5.145c.637,0,1.153.288,1.153.642v27.7Z" transform="translate(-232.298 -513.615)" fill="#232323"/>
    <path id="Path_1515" data-name="Path 1515" d="M628.747,348.548V283.607A1.367,1.367,0,0,1,629.9,282.1h5.145a1.367,1.367,0,0,1,1.153,1.508v65.11Z" transform="translate(-571.315 -259.091)" fill="#2e2777"/>
    <circle id="Ellipse_133" data-name="Ellipse 133" cx="1.177" cy="1.177" r="1.177" transform="translate(80.813 33.514)" fill="#a0616a"/>
    <circle id="Ellipse_134" data-name="Ellipse 134" cx="1.177" cy="1.177" r="1.177" transform="translate(93.886 32.991)" fill="#a0616a"/>
    <path id="Path_805" data-name="Path 805" d="M848.928,429.651c.115-.105,1.051-5.579,1.045-5.7-.014-.674-2.072-1.445-2.484-1.177-.388.253-1.065,3.154-1.5,3.682l-.461-.806h-3.66l-.222.412c-.48-.289-.912-.556-1.066-.644a.692.692,0,0,0-.171-.084,2.656,2.656,0,0,1-1.046-.492c-.3-.231-1.7-2.655-2.07-2.591a3.259,3.259,0,0,0-1.83,2.484,46.851,46.851,0,0,1,2.544,4.834c.179.735.771,11.449.961,11.948.879-.085.185-.237,1.036,0a7.588,7.588,0,0,0,2.829-.123,10.863,10.863,0,0,1,1.184-.052,22.761,22.761,0,0,1,4.883.443,16.617,16.617,0,0,0-1.09-3.748,2.514,2.514,0,0,1,0-.777C847.852,436.944,848.618,430,848.928,429.651Z" transform="translate(-751.007 -380.919)" fill="#fff"/>
  </g>
</svg>
