<svg xmlns="http://www.w3.org/2000/svg" width="162.674" height="164.783" viewBox="0 0 162.674 164.783">
  <g id="Done-pana" transform="translate(-40.15 -55.599)">
    <g id="freepik--Floor--inject-41" transform="translate(40.15 219.432)">
      <path id="Path_1487" data-name="Path 1487" d="M202.824,478.391c0,.054-36.434.1-81.333.1s-81.341-.047-81.341-.1,36.411-.1,81.341-.1S202.824,478.333,202.824,478.391Z" transform="translate(-40.15 -478.29)" fill="#263238"/>
    </g>
    <g id="freepik--Chair--inject-41" transform="translate(73.27 118.046)">
      <path id="Path_1488" data-name="Path 1488" d="M239.361,351.87l15.981,49.1h-2.911l-18.721-49.1Z" transform="translate(-191.807 -299.483)" fill="#e0e0e0"/>
      <path id="Path_1489" data-name="Path 1489" d="M239.312,351.76h-1.473l-4.194.023.039-.058c3.209,8.36,10.128,26.442,18.143,47.372.217.574.434,1.163.651,1.709l-.093-.062h2.907l-.1.132c-4.461-13.764-8.442-26.031-11.306-34.86-1.426-4.422-2.574-7.981-3.364-10.442-.388-1.229-.7-2.182-.907-2.833l-.233-.74c-.05-.167-.074-.256-.074-.256s.031.078.085.24l.244.725c.213.647.527,1.589.93,2.806.806,2.453,1.969,6,3.419,10.4,2.888,8.841,6.9,21.12,11.4,34.884l.043.132h-3.1l-.027-.066c-.213-.566-.434-1.136-.651-1.709C243.684,378.2,236.8,360.1,233.63,351.748v-.058h.062l4.217.023h1.074C239.2,351.752,239.312,351.76,239.312,351.76Z" transform="translate(-191.758 -299.373)" fill="#263238"/>
      <path id="Path_1490" data-name="Path 1490" d="M141.9,351.87l-15.981,49.1h2.907l18.725-49.1Z" transform="translate(-125.796 -299.483)" fill="#e0e0e0"/>
      <path id="Path_1491" data-name="Path 1491" d="M141.7,351.833h1.434l4.217-.023h.062l-.023.058c-3.171,8.349-10.05,26.449-18.015,47.411l-.655,1.709-.023.066h-3.1l.043-.132,11.4-34.884,3.419-10.4c.388-1.217.717-2.159.93-2.806l.244-.725c.054-.163.085-.24.085-.24s-.023.089-.074.256l-.233.74c-.209.651-.515,1.6-.907,2.833-.795,2.461-1.938,6.019-3.364,10.442-2.868,8.829-6.845,21.1-11.306,34.86l-.1-.132h2.907l-.093.062.651-1.709c8.015-20.93,14.934-39.027,18.124-47.368l.043.058-4.2-.023h-1.081Z" transform="translate(-125.6 -299.447)" fill="#263238"/>
      <path id="Path_1492" data-name="Path 1492" d="M190.352,354.65a2.188,2.188,0,0,1-.279.2l-.822.543-3.027,1.984c-2.554,1.682-6.077,4.016-9.95,6.612l-9.915,6.686-3.008,2.019-.818.519a1.823,1.823,0,0,1-.295.178,2.4,2.4,0,0,1,.271-.209l.8-.57,2.973-2.07c2.516-1.736,6.008-4.12,9.884-6.717s7.407-4.915,9.984-6.566c1.287-.822,2.326-1.484,3.062-1.938l.841-.512A2.242,2.242,0,0,1,190.352,354.65Z" transform="translate(-148.039 -301.186)" fill="#263238"/>
      <path id="Path_1493" data-name="Path 1493" d="M144.15,216.754s-5.008.516-5.736,3.531-3.1,40.31,0,45.593,43.023,4.546,45.794,3.822,4.077-2.523,3.795-4.721-27.469-4.922-27.469-4.922l1.659-38.922S152.417,216.211,144.15,216.754Z" transform="translate(-132.495 -216.712)" fill="#263238"/>
      <path id="Path_1494" data-name="Path 1494" d="M194.934,337.987h-.477l-1.368.035c-1.19.031-2.911.047-5.039.043-4.264,0-10.136-.147-16.612-.612-3.236-.236-6.318-.535-9.112-.853s-5.306-.667-7.407-1c-1.054-.155-2-.322-2.833-.461s-1.55-.267-2.136-.388l-1.345-.26-.349-.07-.116-.031a.466.466,0,0,1,.12,0l.353.05,1.353.221c.585.1,1.3.221,2.14.345s1.783.287,2.833.43c2.1.314,4.616.636,7.407.953s5.872.6,9.108.837c6.473.465,12.345.624,16.6.671,2.124.023,3.845.027,5.039.023h1.729Z" transform="translate(-139.404 -288.779)" fill="#455a64"/>
      <path id="Path_1495" data-name="Path 1495" d="M209.3,372.83c-.031.047-6.357-4.4-14.124-9.922s-14.043-10.046-14.012-10.077,6.357,4.4,14.128,9.926S209.326,372.783,209.3,372.83Z" transform="translate(-159.625 -300.071)" fill="#263238"/>
    </g>
    <g id="freepik--speech-bubble--inject-41" transform="translate(57.259 55.959)">
      <path id="Path_1496" data-name="Path 1496" d="M115.618,85.2l-3.2-5.632a15.085,15.085,0,1,0-3.612,4.019h0Z" transform="translate(-84.414 -56.553)" fill="#fff"/>
      <path id="Path_1497" data-name="Path 1497" d="M115.5,85.172l-6.829-1.55h-.093l.058-.078h0l.085.085a15.058,15.058,0,0,1-7.236,3.054,13.407,13.407,0,0,1-2.388.124c-.411-.023-.829-.035-1.252-.07l-1.275-.19a15.232,15.232,0,0,1-9.434-6.054,15.038,15.038,0,0,1-2.554-5.814,15.446,15.446,0,0,1,.178-6.717,14.888,14.888,0,0,1,3.236-6.2,15.182,15.182,0,0,1,5.814-4.155,15.426,15.426,0,0,1,6.767-1.039,14.876,14.876,0,0,1,6.2,1.837,15.291,15.291,0,0,1,7.178,8.771,16.434,16.434,0,0,1,.655,4.911,15.066,15.066,0,0,1-2.26,7.481v-.062l3.147,5.663c-.209-.357-1.194-2.058-3.248-5.6v-.058a14.984,14.984,0,0,0,2.19-7.426,16.131,16.131,0,0,0-.667-4.845,15.147,15.147,0,0,0-7.089-8.678,14.647,14.647,0,0,0-6.116-1.8A15.186,15.186,0,0,0,93.9,57.785a14.954,14.954,0,0,0-5.721,4.093A14.639,14.639,0,0,0,85,67.986a15.151,15.151,0,0,0-.182,6.612,14.829,14.829,0,0,0,2.5,5.756,15.031,15.031,0,0,0,9.3,6l1.26.194c.419.035.829.047,1.236.074a13.484,13.484,0,0,0,2.36-.112,15.019,15.019,0,0,0,7.186-2.981l.388-.291-.291.388h0l-.035-.093Z" transform="translate(-84.292 -56.528)" fill="#263238"/>
      <path id="Path_1498" data-name="Path 1498" d="M116.752,82.742h.953l2.078-2.9v-1.9s1.473-.089,1.3,2.4,0,1.857,0,1.857,3.128,0,3.388.287a31.685,31.685,0,0,1,.306,4.984,1.818,1.818,0,0,1-1.291,1.837,1.263,1.263,0,0,1-.337.047c-.775,0-4.764-.636-4.764-.636H116.74Z" transform="translate(-104.163 -69.64)" fill="#8b80f8"/>
      <path id="Path_1499" data-name="Path 1499" d="M109.73,88.98l.589,6.515h1.632V89.112Z" transform="translate(-99.87 -76.402)" fill="#8b80f8"/>
    </g>
    <g id="freepik--Character--inject-41" transform="translate(83.46 55.599)">
      <path id="Path_1500" data-name="Path 1500" d="M247.4,302s8.969,0,9.337,8.357S230.625,362.8,230.625,362.8l-8.384-3.981,17.977-42.779L201.21,312.2l1.1-9.814Z" transform="translate(-182.094 -206.496)" fill="#ffbe9d"/>
      <path id="Path_1501" data-name="Path 1501" d="M261.779,445.349l-.26.593s8.217,8.45,7.481,10.4l-19.81-8.915,3.236-6.473A12.4,12.4,0,0,0,261.779,445.349Z" transform="translate(-211.477 -291.59)" fill="#455a64"/>
      <g id="Group_95" data-name="Group 95" transform="translate(41.019 152.368)" opacity="0.6">
        <path id="Path_1502" data-name="Path 1502" d="M258.708,448.718a.892.892,0,0,0-.977.671.853.853,0,0,0,.659.973.938.938,0,0,0,1.027-.717.88.88,0,0,0-.795-.934" transform="translate(-257.72 -448.71)" fill="#fff"/>
      </g>
      <g id="Group_96" data-name="Group 96" transform="translate(37.713 154.286)" opacity="0.6">
        <path id="Path_1503" data-name="Path 1503" d="M249.19,455.21l.775-1.55,18.7,9.112s.709.775.329,1.357Z" transform="translate(-249.19 -453.66)" fill="#fff"/>
      </g>
      <path id="Path_1504" data-name="Path 1504" d="M277.477,453.47c-.047.093-.55-.078-1.163.019s-1.054.388-1.128.31.326-.574,1.074-.678S277.539,453.388,277.477,453.47Z" transform="translate(-227.392 -299.032)" fill="#263238"/>
      <path id="Path_1505" data-name="Path 1505" d="M282.407,458.431c-.019.1-.516.078-1.027.341s-.8.651-.9.6.089-.624.733-.938S282.445,458.338,282.407,458.431Z" transform="translate(-230.628 -302.199)" fill="#263238"/>
      <path id="Path_1506" data-name="Path 1506" d="M285.586,464.314c-.1,0,0-.562.469-.981s1.035-.422,1.039-.326-.388.256-.775.6S285.687,464.349,285.586,464.314Z" transform="translate(-233.746 -305.067)" fill="#263238"/>
      <path id="Path_1507" data-name="Path 1507" d="M263.785,220.71l1.593,4.872-8.686.678-1.012-2.609Z" transform="translate(-215.451 -156.714)" fill="#ffbe9d"/>
      <path id="Path_1508" data-name="Path 1508" d="M339.794,237.2c.167.333.6.388.934.562a1.911,1.911,0,0,1,.957,1.783,4.233,4.233,0,0,1-.686,2,1.733,1.733,0,0,1-.516.616.659.659,0,0,1-.752,0c-.256-.213-.225-.609-.171-.938.205-1.236-.062-2.8.229-4.019" transform="translate(-266.798 -166.812)" fill="#ffbe9d"/>
      <path id="Path_1509" data-name="Path 1509" d="M191.148,65.986a2.194,2.194,0,0,1,1.69-2.434l9.589-6.1c3.655-.822,8.26,5.283,8.915,8.965a62.139,62.139,0,0,1,.775,12.248c-.264,6.3-4.4,6.977-4.4,6.977l3.1,20.957-14.942-9.213Z" transform="translate(-175.92 -56.687)" fill="#ffbe9d"/>
      <path id="Path_1510" data-name="Path 1510" d="M235.644,93.19a.8.8,0,0,1-.671.888.775.775,0,0,1-.9-.62.8.8,0,0,1,.671-.888A.775.775,0,0,1,235.644,93.19Z" transform="translate(-202.214 -78.232)" fill="#263238"/>
      <path id="Path_1511" data-name="Path 1511" d="M236.6,88.2c-.078.085-.713.074-1.515.388s-1.333.733-1.434.709,0-.136.244-.329a3.787,3.787,0,0,1,1.128-.636,3.427,3.427,0,0,1,1.225-.229C236.525,88.091,236.637,88.157,236.6,88.2Z" transform="translate(-201.936 -75.502)" fill="#263238"/>
      <path id="Path_1512" data-name="Path 1512" d="M215.163,94.179a.8.8,0,0,1-.674.888.775.775,0,0,1-.9-.62.8.8,0,0,1,.671-.888A.775.775,0,0,1,215.163,94.179Z" transform="translate(-189.671 -78.838)" fill="#263238"/>
      <path id="Path_1513" data-name="Path 1513" d="M214.433,91.3c-.116.047-.713-.31-1.64-.446s-1.651,0-1.74-.062.089-.128.388-.2a4.012,4.012,0,0,1,1.411-.027,3.636,3.636,0,0,1,1.291.434C214.418,91.154,214.507,91.279,214.433,91.3Z" transform="translate(-188.108 -76.98)" fill="#263238"/>
      <path id="Path_1514" data-name="Path 1514" d="M227.651,94.968a5.543,5.543,0,0,1,1.357-.415c.213-.047.415-.112.434-.267a1.1,1.1,0,0,0-.221-.628q-.388-.775-.837-1.585a26.5,26.5,0,0,1-1.938-4.174,26.8,26.8,0,0,1,2.287,4.008l.81,1.6a1.271,1.271,0,0,1,.213.845.554.554,0,0,1-.322.36,1.527,1.527,0,0,1-.364.093,5.728,5.728,0,0,1-1.419.167Z" transform="translate(-197.543 -75.379)" fill="#263238"/>
      <path id="Path_1515" data-name="Path 1515" d="M220.457,128.5a15.446,15.446,0,0,1-8.527-1.163s2.547,4.357,8.671,3.054Z" transform="translate(-188.659 -99.534)" fill="#eb996e"/>
      <path id="Path_1516" data-name="Path 1516" d="M225.523,110.115a2.291,2.291,0,0,0-1.764-.9.977.977,0,0,0-.9.647,1.55,1.55,0,0,0,.3,1.4,1.318,1.318,0,0,0,1.364.477,2.17,2.17,0,0,0,.988-.818.775.775,0,0,0,.182-.329.539.539,0,0,0-.116-.442" transform="translate(-195.318 -88.437)" fill="#eb996e"/>
      <path id="Path_1517" data-name="Path 1517" d="M223.113,108.419c.14-.027.248.9,1.116,1.465s1.845.349,1.868.477c0,.058-.2.205-.616.267a2.326,2.326,0,0,1-1.55-.345,2.023,2.023,0,0,1-.876-1.24C222.973,108.644,223.051,108.419,223.113,108.419Z" transform="translate(-195.45 -87.946)" fill="#263238"/>
      <path id="Path_1518" data-name="Path 1518" d="M214.333,81.718c-.081.233-.942.136-1.938.275s-1.818.422-1.957.217c-.062-.1.078-.322.388-.554a3.419,3.419,0,0,1,2.973-.388C214.178,81.443,214.367,81.606,214.333,81.718Z" transform="translate(-187.736 -71.21)" fill="#263238"/>
      <path id="Path_1519" data-name="Path 1519" d="M235.7,82.317c-.167.213-.919.1-1.8.186s-1.609.314-1.8.128c-.089-.089,0-.3.314-.516a3.14,3.14,0,0,1,2.9-.256C235.645,82.027,235.769,82.213,235.7,82.317Z" transform="translate(-200.99 -71.534)" fill="#263238"/>
      <path id="Path_1520" data-name="Path 1520" d="M179.8,81.086c.155-2.81.6-11.806,2.419-16.713s4.368-7.1,7-8.14a6.271,6.271,0,0,1,6.124.674c1.349.953,2.132,4.093,2.132,4.093s-6.376,2.2-8.139,6.2a31.861,31.861,0,0,0-2.407,6.8l-.55,2.438s1.2,10.6,1.736,12.791l-8.643,8.357C179.753,94.826,179.648,83.892,179.8,81.086Z" transform="translate(-168.78 -55.679)" fill="#263238"/>
      <path id="Path_1521" data-name="Path 1521" d="M219.808,61.211a5.048,5.048,0,0,1,5.558,3.233c.845,1.841,1.682,7.415,1.682,7.415a36,36,0,0,0-.174-7.031,12.249,12.249,0,0,0-4.213-7.031c-2.116-1.531-3.721-2.109-7.031-1.527a5.4,5.4,0,0,1,2.609,1.523C218.739,58.378,218.987,58.9,219.808,61.211Z" transform="translate(-190.925 -55.873)" fill="#263238"/>
      <path id="Path_1522" data-name="Path 1522" d="M192.906,101.077a1.887,1.887,0,0,0-2.93-1.283,2.591,2.591,0,0,0-.795,2.713c.6,3.876,4.353,2.457,4.341,2.349S193.17,102.67,192.906,101.077Z" transform="translate(-174.689 -82.453)" fill="#ffbe9d"/>
      <path id="Path_1523" data-name="Path 1523" d="M193.7,105.433a1.16,1.16,0,0,1-.163.128.705.705,0,0,1-.5.089,1.687,1.687,0,0,1-1-1.372,2.224,2.224,0,0,1,.039-.992.775.775,0,0,1,.422-.6.353.353,0,0,1,.426.124c.07.1.054.178.078.182s.074-.078,0-.233a.426.426,0,0,0-.19-.217.515.515,0,0,0-.388-.039.965.965,0,0,0-.612.709,2.291,2.291,0,0,0-.062,1.109,1.76,1.76,0,0,0,1.24,1.516.729.729,0,0,0,.6-.2C193.707,105.526,193.715,105.437,193.7,105.433Z" transform="translate(-176.273 -84.313)" fill="#eb996e"/>
      <path id="Path_1524" data-name="Path 1524" d="M208.55,55.727c0,.031.535-.047,1.388-.031a4.8,4.8,0,0,1,1.465.26,4.721,4.721,0,0,1,1.55.946,7.241,7.241,0,0,1,1.9,2.713c.318.775.388,1.326.434,1.318a1.839,1.839,0,0,0-.054-.368,6.946,6.946,0,0,0-2.186-3.752,4.7,4.7,0,0,0-1.609-.977,4.582,4.582,0,0,0-1.5-.236,7.927,7.927,0,0,0-1.023.066,2.206,2.206,0,0,0-.36.062Z" transform="translate(-186.589 -55.599)" fill="#455a64"/>
      <path id="Path_1525" data-name="Path 1525" d="M189.468,83.365a.5.5,0,0,0,0-.066l-.054-.174c-.027-.081-.054-.178-.089-.287l-.1-.388a9.139,9.139,0,0,1-.264-2.593,9.334,9.334,0,0,1,.934-3.729,10.527,10.527,0,0,1,3.023-3.593,20.025,20.025,0,0,1,2.035-1.38c.682-.411,1.368-.752,2-1.132a25.216,25.216,0,0,0,3.163-2.283c.849-.717,1.5-1.333,1.938-1.767.221-.217.388-.388.5-.508l.128-.136c.027-.031.043-.047.039-.05l-.047.039-.14.128-.512.5c-.453.422-1.116,1.027-1.973,1.729a26.287,26.287,0,0,1-3.163,2.252c-.628.388-1.322.709-2.008,1.124a19.084,19.084,0,0,0-2.05,1.388,10.57,10.57,0,0,0-3.07,3.64,9.271,9.271,0,0,0-.915,3.779,8.957,8.957,0,0,0,.306,2.609l.116.388c.043.109.078.2.1.283l.07.174C189.456,83.346,189.464,83.365,189.468,83.365Z" transform="translate(-174.518 -61.528)" fill="#455a64"/>
      <path id="Path_1526" data-name="Path 1526" d="M187.234,78.437v-.062l-.023-.186c0-.163-.062-.388-.093-.709a14.951,14.951,0,0,1-.043-2.628,15.209,15.209,0,0,1,.775-3.806,14.663,14.663,0,0,1,2.267-4.167,17.221,17.221,0,0,1,3.488-3.256c1.163-.868,2.326-1.55,3.252-2.163s1.7-1.081,2.213-1.438c.26-.171.453-.314.585-.411l.151-.109.05-.043a.1.1,0,0,0-.058.031l-.159.1-.6.388c-.519.337-1.287.814-2.236,1.4s-2.081,1.279-3.275,2.147a16.977,16.977,0,0,0-3.488,3.267A14.6,14.6,0,0,0,187.734,71a15.058,15.058,0,0,0-.775,3.845,13.894,13.894,0,0,0,.089,2.636c.039.31.093.547.12.709a.676.676,0,0,0,.039.182C187.219,78.421,187.23,78.437,187.234,78.437Z" transform="translate(-173.35 -57.964)" fill="#455a64"/>
      <path id="Path_1527" data-name="Path 1527" d="M241.1,146.93s5,2.031,5.953,4.632,8.221,24.077,8.221,24.077l-8.43,3.233L243,161.2Z" transform="translate(-206.523 -111.531)" fill="#455a64"/>
      <path id="Path_1528" data-name="Path 1528" d="M174.445,301.593s51.55-2.368,54.787-1.516,5.171,2.484,5.814,6.364,10.581,55.283,10.581,55.283l-9.039,2.659s-12.682-28.953-13.221-33.8-2.326-14.775-2.326-14.775-19.6.322-34.027,0-12.492-13.678-12.492-13.678Z" transform="translate(-165.697 -205.205)" fill="#ffbe9d"/>
      <path id="Path_1529" data-name="Path 1529" d="M236.129,364.33l-.066-.155c-.519-1.186-12.7-29.035-13.233-33.856-.5-4.446-2.058-13.295-2.291-14.6-1.938.031-20.3.3-33.868,0-4.484-.1-7.86-1.461-10.043-4.039-3.3-3.9-2.713-9.368-2.64-9.829l-.12-.725h.217c2.109-.1,51.624-2.36,54.849-1.508,3.62.957,5.345,2.845,5.957,6.515.636,3.829,10.465,54.767,10.581,55.283l.031.171Zm-15.267-49,.031.163c.019.1,1.791,9.992,2.326,14.787.508,4.578,12.128,31.283,13.136,33.585l8.709-2.558c-.636-3.291-9.93-51.4-10.55-55.116-.581-3.488-2.225-5.295-5.674-6.2-3.054-.81-50.856,1.345-54.511,1.512l.058.353v.027c0,.058-.775,5.636,2.55,9.558,2.109,2.488,5.388,3.8,9.752,3.9,14.26.318,33.822,0,34.019,0Z" transform="translate(-165.351 -204.92)" fill="#eb996e"/>
      <path id="Path_1530" data-name="Path 1530" d="M175.537,176.833l1.3,8.031s-5.64,10.686-6.275,19.872c-.3,4.364,2.2,13.3,2.2,13.3s19.86,2.182,30.574,1.9l11.43-.5,2.016-17.857-12.829-1.853.194-24.333s2.326-6.407,2.5-8.3c.411-4,.24-8.046-3.756-13.232l-5.008-10.217-1.671-.775.795,12.376-14.4-13.678-7.291,2.616-2.066,9.748Z" transform="translate(-163.308 -108.248)" fill="#455a64"/>
      <g id="Group_97" data-name="Group 97" transform="translate(27.361 89.344)" opacity="0.3">
        <path id="Path_1531" data-name="Path 1531" d="M232.3,291.2c-.934.163-7.674.26-8.608.423a1.225,1.225,0,0,1-.961-.1.8.8,0,0,1-.194-.88,2.019,2.019,0,0,1,.566-.775,18.855,18.855,0,0,1,5.814-3.322,3.389,3.389,0,0,1,2.062-.388,2.194,2.194,0,0,1,1.419,1.473,6.4,6.4,0,0,1,.24,2.1" transform="translate(-222.483 -286.107)"/>
      </g>
      <g id="Group_98" data-name="Group 98" transform="translate(11.828 53.052)" opacity="0.3">
        <path id="Path_1532" data-name="Path 1532" d="M183.338,213.608c2.407-.562,3.919-2.934,4.9-5.205s1.783-4.779,3.7-6.345c1.4-1.163,3.283-1.674,4.5-3.023a4.748,4.748,0,0,0,.826-4.9,2.471,2.471,0,0,0-1.938-1.659c-1.047-.054-1.86.853-2.5,1.686q-4.388,5.748-8.275,11.86c-1.391,2.19-2.779,4.849-1.81,7.256" transform="translate(-182.406 -192.474)"/>
      </g>
      <path id="Path_1533" data-name="Path 1533" d="M166.336,151.62s-4.074,1.295-5.546,3.849-3.915,14.957-4.5,18.3-3.438,17.089,0,19.252,7.957-1.163,9.136-3.143,5.988-12.279,5.988-12.279l-4.322-3.632s.775-9.822.492-11.888S166.336,151.62,166.336,151.62Z" transform="translate(-153.561 -114.403)" fill="#ffbe9d"/>
      <path id="Path_1534" data-name="Path 1534" d="M151.89,173.623l9.453.616,4.318-5.07,1.194-7.984-.318-15.275s-8.438,2.058-10.264,8.473C154.921,159.123,151.89,173.623,151.89,173.623Z" transform="translate(-151.89 -110.906)" fill="#455a64"/>
      <path id="Path_1535" data-name="Path 1535" d="M184.462,170.791c-.543-.074-1.236.566-.775,2.109.388,1.287,1.116,2.539,1.062,3.256s-.333,2.209-.333,2.984a21.555,21.555,0,0,1-.221,2.264l-6.434,7.752,5.57,4.915,4.407-6.922a2.484,2.484,0,0,0,2.1-.663L191,185.155s2.984-1.1,2.376-2.713a1.729,1.729,0,0,0,.081-2.19,2.961,2.961,0,0,0-.19-2.229s-.054-1.88-.554-2.213-5.671-.388-5.671-.388a26.937,26.937,0,0,0-.973-2.531C185.5,171.958,185.217,170.892,184.462,170.791Z" transform="translate(-167.733 -126.14)" fill="#ffbe9d"/>
      <path id="Path_1536" data-name="Path 1536" d="M200.008,187.291c0,.019-.136-.054-.256-.236a1.283,1.283,0,0,1,.171-1.593c.155-.151.287-.2.3-.178a2.209,2.209,0,0,0-.461.965A2.326,2.326,0,0,0,200.008,187.291Z" transform="translate(-181.078 -135.016)" fill="#eb996e"/>
      <path id="Path_1537" data-name="Path 1537" d="M209.6,189.1a11.181,11.181,0,0,1-2.391.422,10.974,10.974,0,0,1-2.426.081,21.89,21.89,0,0,1,2.407-.283A21.133,21.133,0,0,1,209.6,189.1Z" transform="translate(-184.28 -137.356)" fill="#eb996e"/>
      <path id="Path_1538" data-name="Path 1538" d="M211.948,194.8a6.865,6.865,0,0,1-2.012.481,6.949,6.949,0,0,1-2.066.07c0-.058.915-.116,2.039-.271S211.936,194.75,211.948,194.8Z" transform="translate(-186.172 -140.843)" fill="#eb996e"/>
      <path id="Path_1539" data-name="Path 1539" d="M213.2,200.688a7.875,7.875,0,0,1-3.1.306,8.84,8.84,0,0,1,1.55-.2A8.945,8.945,0,0,1,213.2,200.688Z" transform="translate(-187.538 -144.451)" fill="#eb996e"/>
      <path id="Path_1540" data-name="Path 1540" d="M204.543,200.349c0,.023-.109,0-.24-.074a.826.826,0,0,1-.341-.5.841.841,0,0,1,.078-.6c.078-.136.163-.19.182-.174a1.454,1.454,0,0,0-.066.729C204.249,200.116,204.57,200.3,204.543,200.349Z" transform="translate(-183.764 -143.415)" fill="#eb996e"/>
      <path id="Path_1541" data-name="Path 1541" d="M201.42,194.6c0,.019-.128-.047-.248-.213a1.423,1.423,0,0,1-.256-.748,1.458,1.458,0,0,1,.171-.775c.1-.178.205-.256.225-.24a3.143,3.143,0,0,0-.194,1A3.3,3.3,0,0,0,201.42,194.6Z" transform="translate(-181.912 -139.514)" fill="#eb996e"/>
      <path id="Path_1542" data-name="Path 1542" d="M211.073,206.962a2.325,2.325,0,0,1-.907.264,2.268,2.268,0,0,1-.946.066,2.264,2.264,0,0,1,.907-.264A2.193,2.193,0,0,1,211.073,206.962Z" transform="translate(-186.999 -148.28)" fill="#eb996e"/>
      <path id="Path_1543" data-name="Path 1543" d="M202.028,182.683c0,.058-.775.058-1.756.155s-1.736.248-1.752.194a4.942,4.942,0,0,1,1.733-.388A5.039,5.039,0,0,1,202.028,182.683Z" transform="translate(-180.446 -133.365)" fill="#eb996e"/>
      <path id="Path_1544" data-name="Path 1544" d="M248.124,230.91h32.039a2.132,2.132,0,0,1,2.132,2.132v22.709H246V233.038A2.132,2.132,0,0,1,248.124,230.91Z" transform="translate(-209.523 -162.96)" fill="#e0e0e0"/>
      <path id="Path_1545" data-name="Path 1545" d="M272.275,296.676H229.64a1.636,1.636,0,0,1,1.636-1.636h41Z" transform="translate(-199.504 -202.234)" fill="#e0e0e0"/>
      <rect id="Rectangle_473" data-name="Rectangle 473" width="33.853" height="23.26" transform="translate(37.577 69.546)" fill="#fff"/>
      <path id="Path_1546" data-name="Path 1546" d="M282.6,258.1v-1.659c0-1.081,0-2.663-.023-4.686,0-4.046-.023-9.849-.043-16.915l.081.081H248.77l.1-.1v23.256l-.089-.093,24.384.047,6.977.027h.039l-6.942.023-24.446.047H248.7V234.74h34.031v.1c0,7.085-.031,12.907-.043,16.965v5.868A.883.883,0,0,1,282.6,258.1Z" transform="translate(-211.177 -165.306)" fill="#263238"/>
      <path id="Path_1547" data-name="Path 1547" d="M274.59,294.841c0,.058-9.151.1-20.438.1s-20.442-.043-20.442-.1,9.151-.1,20.442-.1S274.59,294.8,274.59,294.841Z" transform="translate(-201.997 -202.05)" fill="#263238"/>
      <circle id="Ellipse_182" data-name="Ellipse 182" cx="8.895" cy="8.895" r="8.895" transform="translate(45.604 72.283)" fill="#8b80f8"/>
      <path id="Path_1548" data-name="Path 1548" d="M278.24,258.955l1.884-1.783,2.6,2.4,5.12-4.818,1.86,1.76-7.008,6.651Z" transform="translate(-229.267 -177.56)" fill="#fff"/>
      <path id="Path_1549" data-name="Path 1549" d="M175.284,198.18c.043.035-2.628,3.26-5.965,7.2s-6.078,7.1-6.12,7.074,2.628-3.256,5.965-7.2S175.242,198.145,175.284,198.18Z" transform="translate(-158.816 -142.916)" fill="#eb996e"/>
      <path id="Path_1550" data-name="Path 1550" d="M191.42,185.29a28.411,28.411,0,0,1-.461,3.349,28.019,28.019,0,0,1-.659,3.318,28.414,28.414,0,0,1,.461-3.353,29.023,29.023,0,0,1,.659-3.314Z" transform="translate(-175.412 -135.022)" fill="#263238"/>
      <path id="Path_1551" data-name="Path 1551" d="M254.568,193.888a1.379,1.379,0,0,1,.062-.233l.209-.651c.186-.562.461-1.376.775-2.388a35.714,35.714,0,0,0,.938-3.6,19.592,19.592,0,0,0,.415-4.512,17.95,17.95,0,0,0-2.264-7.857,23.229,23.229,0,0,0-1.318-2.132c-.163-.244-.3-.426-.388-.554a1.128,1.128,0,0,1-.128-.205,1.117,1.117,0,0,1,.159.178c.1.124.252.3.426.539a19.939,19.939,0,0,1,1.38,2.1A18.9,18.9,0,0,1,256.351,178a16.438,16.438,0,0,1,.833,4.5,19.048,19.048,0,0,1-.434,4.558,33.464,33.464,0,0,1-.985,3.6c-.333,1.008-.628,1.818-.837,2.372q-.151.388-.244.64A1.011,1.011,0,0,1,254.568,193.888Z" transform="translate(-213.731 -126.737)" fill="#263238"/>
      <path id="Path_1552" data-name="Path 1552" d="M223.892,197.71a3.1,3.1,0,0,1,0,.543,4.531,4.531,0,0,1-.047.636,8.073,8.073,0,0,1-.128.837,8.238,8.238,0,0,1-.248.992,10.99,10.99,0,0,1-.388,1.112,12.557,12.557,0,0,1-1.326,2.326,12.253,12.253,0,0,1-1.833,1.977,10.349,10.349,0,0,1-.938.713,7.981,7.981,0,0,1-.872.539,7.167,7.167,0,0,1-.775.388,4.429,4.429,0,0,1-.589.236,2.9,2.9,0,0,1-.519.159c-.019-.043.725-.271,1.795-.9a9.43,9.43,0,0,0,.849-.55c.3-.2.593-.457.911-.717a12.054,12.054,0,0,0,3.1-4.264,11.151,11.151,0,0,0,.388-1.085,9.144,9.144,0,0,0,.267-.977A15.494,15.494,0,0,0,223.892,197.71Z" transform="translate(-191.292 -142.629)" fill="#263238"/>
      <path id="Path_1553" data-name="Path 1553" d="M225.674,167.159a.275.275,0,0,1-.054-.074l-.136-.236c-.128-.213-.3-.5-.523-.864s-.566-.8-.926-1.306-.818-1.054-1.3-1.671c-1.992-2.434-4.934-5.632-8.306-9.046s-6.539-6.391-8.86-8.527l-1.581-1.415c-.465-.411-.868-.775-1.205-1.054L202,142.31l-.2-.174a.278.278,0,0,1-.066-.066.388.388,0,0,1,.078.05c.058.043.128.093.209.159l.8.624,1.229,1.031c.477.411,1.012.88,1.6,1.4,2.353,2.093,5.527,5.066,8.915,8.477a120.651,120.651,0,0,1,8.271,9.1c.481.624.915,1.186,1.287,1.69l.9,1.333c.205.388.388.667.492.888l.124.233Q225.682,167.159,225.674,167.159Z" transform="translate(-182.418 -108.554)" fill="#263238"/>
      <path id="Path_1554" data-name="Path 1554" d="M209.536,252.614a.775.775,0,0,1-.221.043l-.632.089c-.55.074-1.353.159-2.326.248-1.981.178-4.729.322-7.752.287s-5.783-.256-7.752-.481c-.988-.112-1.787-.221-2.326-.31l-.632-.1a.94.94,0,0,1-.217-.05.9.9,0,0,1,.225,0l.636.066c.55.066,1.353.151,2.326.244,1.973.19,4.713.388,7.752.422s5.771-.089,7.752-.229c.988-.07,1.791-.132,2.326-.182l.636-.05A.988.988,0,0,1,209.536,252.614Z" transform="translate(-173.808 -176.079)" fill="#263238"/>
      <path id="Path_1555" data-name="Path 1555" d="M287.38,225.616s6.349-2.477,6.95-2.674,6.151-.632,6.151-.632l7.155,2.57s.066,1.469-1.6,1.271a30.232,30.232,0,0,1-4.345-1.07l-1,.6Z" transform="translate(-234.865 -157.694)" fill="#ffbe9d"/>
      <path id="Path_1556" data-name="Path 1556" d="M338.306,233.264c.167.337.6.388.934.566a1.938,1.938,0,0,1,.957,1.783,4.217,4.217,0,0,1-.686,2,1.749,1.749,0,0,1-.512.612.659.659,0,0,1-.752,0,.981.981,0,0,1-.171-.938c.205-1.236-.062-2.8.229-4.023" transform="translate(-265.88 -164.4)" fill="#ffbe9d"/>
      <path id="Path_1557" data-name="Path 1557" d="M341.81,454.47l.217.6s11.783.461,12.589,2.376l-20.5,7.2L332,457.734A12.434,12.434,0,0,0,341.81,454.47Z" transform="translate(-262.19 -299.87)" fill="#455a64"/>
      <g id="Group_99" data-name="Group 99" transform="translate(72.292 159.186)" opacity="0.6">
        <path id="Path_1558" data-name="Path 1558" d="M338.766,466.428a.891.891,0,0,0-.244,1.163.857.857,0,0,0,1.163.252.934.934,0,0,0,.252-1.229.888.888,0,0,0-1.221-.128" transform="translate(-338.403 -466.3)" fill="#fff"/>
      </g>
      <g id="Group_100" data-name="Group 100" transform="translate(71.422 156.825)" opacity="0.6">
        <path id="Path_1559" data-name="Path 1559" d="M336.668,468.167l-.508-1.663,19.829-6.295s1.05.078,1.163.775Z" transform="translate(-336.16 -460.21)" fill="#fff"/>
      </g>
      <path id="Path_1560" data-name="Path 1560" d="M355.735,456.066c.031.1-.453.322-.833.818s-.492,1.008-.6,1-.163-.64.306-1.229S355.724,455.965,355.735,456.066Z" transform="translate(-275.805 -300.826)" fill="#263238"/>
      <path id="Path_1561" data-name="Path 1561" d="M362.945,456.43c.058.089-.318.411-.508.953s-.132,1.027-.233,1.058-.364-.516-.112-1.186S362.911,456.337,362.945,456.43Z" transform="translate(-280.554 -301.059)" fill="#263238"/>
      <path id="Path_1562" data-name="Path 1562" d="M369.4,458.847c-.081.054-.388-.388-.333-1.035s.457-1.019.527-.953-.112.465-.159.988S369.5,458.8,369.4,458.847Z" transform="translate(-284.888 -301.328)" fill="#263238"/>
    </g>
  </g>
</svg>
