<svg xmlns="http://www.w3.org/2000/svg" width="20" height="20" viewBox="0 0 20 20">
  <g id="close-circle-svgrepo-com" transform="translate(-2 -2)">
    <path id="Path_2640" data-name="Path 2640" d="M12,22A10,10,0,1,0,2,12,10,10,0,0,0,12,22Z" fill="#4c5258" opacity="0.4"/>
    <path id="Path_2641" data-name="Path 2641" d="M13.059,12l2.3-2.3A.75.75,0,0,0,14.3,8.64L12,10.94,9.7,8.64A.75.75,0,0,0,8.639,9.7l2.3,2.3-2.3,2.3a.754.754,0,0,0,0,1.06.748.748,0,0,0,1.06,0l2.3-2.3,2.3,2.3a.748.748,0,0,0,1.06,0,.754.754,0,0,0,0-1.06Z"/>
  </g>
</svg>
