<svg width="18" height="18" viewBox="0 0 18 18" fill="none" xmlns="http://www.w3.org/2000/svg">
<path d="M14.4944 4.33329L14.9101 4.0555V4.0555L14.4944 4.33329ZM14.4944 12.1667L14.9101 12.4445L14.4944 12.1667ZM13.6667 12.9944L13.9445 13.4101L13.6667 12.9944ZM10.5 13.499L10.4978 12.999C10.2225 13.0002 10 13.2237 10 13.499H10.5ZM10.5 13.5L10.9472 13.7236C10.9819 13.6542 11 13.5776 11 13.5H10.5ZM9.89443 14.7111L10.3416 14.9348H10.3416L9.89443 14.7111ZM8.10557 14.7111L7.65836 14.9348L8.10557 14.7111ZM7.5 13.5H7C7 13.5776 7.01807 13.6542 7.05279 13.7236L7.5 13.5ZM7.5 13.499H8C8 13.2237 7.77747 13.0002 7.50218 12.999L7.5 13.499ZM4.33329 12.9944L4.0555 13.4101H4.0555L4.33329 12.9944ZM3.50559 12.1667L3.92133 11.8889H3.92133L3.50559 12.1667ZM3.50559 4.33329L3.08986 4.0555L3.50559 4.33329ZM4.33329 3.50559L4.0555 3.08986L4.33329 3.50559ZM13.6667 3.50559L13.3889 3.92133V3.92133L13.6667 3.50559ZM15.5 8.25C15.5 7.20706 15.5006 6.38722 15.4342 5.73478C15.367 5.07399 15.227 4.52969 14.9101 4.0555L14.0787 4.61107C14.2674 4.89356 14.3802 5.25427 14.4394 5.83599C14.4994 6.42607 14.5 7.18625 14.5 8.25H15.5ZM14.9101 12.4445C15.227 11.9703 15.367 11.426 15.4342 10.7652C15.5006 10.1128 15.5 9.29294 15.5 8.25H14.5C14.5 9.31375 14.4994 10.0739 14.4394 10.664C14.3802 11.2457 14.2674 11.6064 14.0787 11.8889L14.9101 12.4445ZM13.9445 13.4101C14.3267 13.1548 14.6548 12.8267 14.9101 12.4445L14.0787 11.8889C13.8963 12.1619 13.6619 12.3963 13.3889 12.5787L13.9445 13.4101ZM10.5022 13.999C11.3089 13.9955 11.9667 13.9802 12.5108 13.905C13.0629 13.8286 13.5303 13.6869 13.9445 13.4101L13.3889 12.5787C13.1421 12.7436 12.8352 12.8506 12.3739 12.9144C11.9044 12.9793 11.3093 12.9954 10.4978 12.999L10.5022 13.999ZM11 13.5V13.499H10V13.5H11ZM10.3416 14.9348L10.9472 13.7236L10.0528 13.2764L9.44721 14.4875L10.3416 14.9348ZM7.65836 14.9348C8.21115 16.0403 9.78885 16.0403 10.3416 14.9348L9.44721 14.4875C9.26295 14.8561 8.73705 14.8561 8.55279 14.4875L7.65836 14.9348ZM7.05279 13.7236L7.65836 14.9348L8.55279 14.4875L7.94721 13.2764L7.05279 13.7236ZM7 13.499V13.5H8V13.499H7ZM4.0555 13.4101C4.46967 13.6869 4.93706 13.8286 5.48921 13.905C6.03332 13.9802 6.69106 13.9955 7.49782 13.999L7.50218 12.999C6.69066 12.9954 6.09556 12.9793 5.62614 12.9144C5.16475 12.8506 4.85792 12.7436 4.61107 12.5787L4.0555 13.4101ZM3.08986 12.4445C3.34521 12.8267 3.67334 13.1548 4.0555 13.4101L4.61107 12.5787C4.3381 12.3963 4.10372 12.1619 3.92133 11.8889L3.08986 12.4445ZM2.5 8.25C2.5 9.29294 2.4994 10.1128 2.56577 10.7652C2.63299 11.426 2.77302 11.9703 3.08986 12.4445L3.92133 11.8889C3.73257 11.6064 3.61981 11.2457 3.56063 10.664C3.5006 10.0739 3.5 9.31375 3.5 8.25H2.5ZM3.08986 4.0555C2.77302 4.52969 2.63299 5.07399 2.56577 5.73478C2.4994 6.38722 2.5 7.20706 2.5 8.25H3.5C3.5 7.18625 3.5006 6.42607 3.56063 5.83599C3.61981 5.25427 3.73257 4.89356 3.92133 4.61107L3.08986 4.0555ZM4.0555 3.08986C3.67334 3.34521 3.34521 3.67334 3.08986 4.0555L3.92133 4.61107C4.10372 4.3381 4.3381 4.10372 4.61107 3.92133L4.0555 3.08986ZM8.25 2.5C7.20706 2.5 6.38722 2.4994 5.73478 2.56577C5.07399 2.63299 4.52969 2.77302 4.0555 3.08986L4.61107 3.92133C4.89356 3.73257 5.25427 3.61981 5.83599 3.56063C6.42607 3.5006 7.18625 3.5 8.25 3.5V2.5ZM9.75 2.5H8.25V3.5H9.75V2.5ZM13.9445 3.08986C13.4703 2.77302 12.926 2.63299 12.2652 2.56577C11.6128 2.4994 10.7929 2.5 9.75 2.5V3.5C10.8138 3.5 11.5739 3.5006 12.164 3.56063C12.7457 3.61981 13.1064 3.73257 13.3889 3.92133L13.9445 3.08986ZM14.9101 4.0555C14.6548 3.67334 14.3267 3.34521 13.9445 3.08986L13.3889 3.92133C13.6619 4.10372 13.8963 4.3381 14.0787 4.61107L14.9101 4.0555Z" fill="#222222"/>
<circle cx="12" cy="8.25" r="0.75" fill="#222222"/>
<circle cx="9" cy="8.25" r="0.75" fill="#222222"/>
<circle cx="6" cy="8.25" r="0.75" fill="#222222"/>
</svg>
