<svg width="19" height="16" viewBox="0 0 19 16" fill="none" xmlns="http://www.w3.org/2000/svg">
<path d="M1.78165 5.76532C1.78165 4.84251 1.78207 4.18311 1.8243 3.66622C1.86602 3.15569 1.94578 2.83225 2.07805 2.57266L1.10882 2.07881C0.885398 2.5173 0.787322 2.99983 0.740112 3.57764C0.693423 4.14911 0.693848 4.86046 0.693848 5.76532H1.78165ZM1.78165 7.07067V5.76532H0.693848V7.07067H1.78165ZM0.693848 7.07067V12.5097H1.78165V7.07067H0.693848ZM0.693848 12.5097V14.5913H1.78165V12.5097H0.693848ZM0.693848 14.5913C0.693848 15.512 1.80698 15.973 2.45799 15.322L1.6888 14.5528C1.69195 14.5496 1.70346 14.5417 1.71989 14.5388C1.73335 14.5364 1.74271 14.5388 1.74807 14.541C1.75343 14.5433 1.76168 14.5482 1.76955 14.5594C1.77916 14.573 1.78165 14.5868 1.78165 14.5913H0.693848ZM2.45799 15.322L4.56713 13.2128L3.79794 12.4436L1.6888 14.5528L2.45799 15.322ZM12.3333 11.9658H4.95172V13.0536H12.3333V11.9658ZM15.526 11.6693C15.2663 11.8016 14.9429 11.8813 14.4324 11.9231C13.9155 11.9653 13.2561 11.9658 12.3333 11.9658V13.0536C13.2381 13.0536 13.9496 13.054 14.521 13.0073C15.0988 12.9601 15.5814 12.862 16.0199 12.6386L15.526 11.6693ZM16.7144 10.4809C16.4537 10.9926 16.0377 11.4086 15.526 11.6693L16.0199 12.6386C16.7362 12.2736 17.3187 11.6911 17.6836 10.9748L16.7144 10.4809ZM17.0108 7.28823C17.0108 8.21101 17.0104 8.87043 16.9682 9.38735C16.9264 9.89786 16.8467 10.2213 16.7144 10.4809L17.6836 10.9748C17.9071 10.5363 18.0052 10.0537 18.0524 9.4759C18.0991 8.90448 18.0986 8.19306 18.0986 7.28823H17.0108ZM17.0108 5.76532V7.28823H18.0986V5.76532H17.0108ZM16.7144 2.57266C16.8467 2.83225 16.9264 3.15569 16.9682 3.66622C17.0104 4.18311 17.0108 4.84251 17.0108 5.76532H18.0986C18.0986 4.86046 18.0991 4.14911 18.0524 3.57764C18.0052 2.99983 17.9071 2.5173 17.6836 2.07881L16.7144 2.57266ZM15.526 1.3842C16.0377 1.64493 16.4537 2.06096 16.7144 2.57266L17.6836 2.07881C17.3187 1.36243 16.7362 0.779983 16.0199 0.414973L15.526 1.3842ZM12.3333 1.0878C13.2561 1.0878 13.9155 1.08822 14.4324 1.13045C14.9429 1.17217 15.2663 1.25193 15.526 1.3842L16.0199 0.414973C15.5814 0.19155 15.0988 0.093474 14.521 0.0462638C13.9496 -0.000424251 13.2381 1.35294e-07 12.3333 1.35294e-07V1.0878ZM6.45918 1.0878H12.3333V1.35294e-07H6.45918V1.0878ZM3.26651 1.3842C3.52611 1.25193 3.84954 1.17217 4.36008 1.13045C4.87697 1.08822 5.53637 1.0878 6.45918 1.0878V1.35294e-07C5.55432 1.35294e-07 4.84296 -0.000424251 4.2715 0.0462638C3.69368 0.093474 3.21116 0.19155 2.77266 0.414973L3.26651 1.3842ZM2.07805 2.57266C2.33878 2.06096 2.75481 1.64493 3.26651 1.3842L2.77266 0.414973C2.05628 0.779983 1.47383 1.36243 1.10882 2.07881L2.07805 2.57266ZM4.56713 13.2128C4.66913 13.1109 4.80748 13.0536 4.95172 13.0536V11.9658C4.51897 11.9658 4.10395 12.1376 3.79794 12.4436L4.56713 13.2128Z" fill="#222222"/>
</svg>
