<svg xmlns="http://www.w3.org/2000/svg" width="17.107" height="14.017" viewBox="0 0 17.107 14.017">
  <g id="comment-svgrepo-com_1_" data-name="comment-svgrepo-com (1)" transform="translate(0.5 0.5)">
    <path id="Path_588" data-name="Path 588" d="M5.179,6.044C4,7.088,4,8.769,4,12.13v4.979a1.028,1.028,0,0,0,1.719.63l2.161-1.913a.531.531,0,0,1,.155-.114.6.6,0,0,1,.2-.017h5.832a11.286,11.286,0,0,0,3.554-.271A3.827,3.827,0,0,0,19.8,13.495a7.92,7.92,0,0,0,.307-3.147A7.921,7.921,0,0,0,19.8,7.2a3.827,3.827,0,0,0-2.179-1.929A11.287,11.287,0,0,0,14.067,5H12.054C8.257,5,6.359,5,5.179,6.044Z" transform="translate(-4 -5)" fill="rgba(255,255,255,0.24)" stroke="#414141" stroke-width="1" fill-rule="evenodd"/>
    <path id="Path_589" data-name="Path 589" d="M8.5,9.5h7.047" transform="translate(-3.97 -5.489)" fill="rgba(255,255,255,0.24)" stroke="#414141" stroke-linecap="round" stroke-linejoin="round" stroke-width="1"/>
    <path id="Path_590" data-name="Path 590" d="M8.5,12.5h5.034" transform="translate(-3.97 -5.815)" fill="rgba(255,255,255,0.24)" stroke="#414141" stroke-linecap="round" stroke-linejoin="round" stroke-width="1"/>
  </g>
</svg>
