<svg width="300" height="300" viewBox="0 0 300 300" fill="none" xmlns="http://www.w3.org/2000/svg">
<path d="M61.0622 170.25C11.9402 198.6 11.9402 244.584 61.0622 272.946C110.184 301.308 189.822 301.308 238.944 272.946C288.066 244.584 288.06 198.606 238.944 170.25C189.828 141.894 110.178 141.888 61.0622 170.25Z" fill="#FAFAFA"/>
<path d="M23.2139 72.084C23.2139 56.034 33.7859 36.924 46.7999 29.4C53.6999 25.416 59.9099 25.476 64.1999 28.8C69.5999 31.026 73.0079 37.2 73.0079 46.344V121.884L25.7879 149.142L23.2139 147.6V72.084Z" fill="#E6E6E6"/>
<path d="M25.8359 149.142V73.596C25.8359 57.552 36.4079 38.436 49.4459 30.912C62.4839 23.388 73.0559 30.312 73.0559 46.338V121.884L25.8359 149.142Z" fill="#F5F5F5"/>
<path d="M28.416 73.596V144.666L70.47 120.384V46.344C70.47 38.322 67.65 32.784 62.904 31.044C61.8015 30.6382 60.6348 30.4349 59.46 30.444C56.772 30.444 53.844 31.35 50.736 33.144C38.43 40.254 28.416 58.398 28.416 73.596Z" fill="#E0E0E0"/>
<path d="M70.4699 120.384L67.8059 118.848L28.4219 141.594V144.666L70.4699 120.384Z" fill="#EBEBEB"/>
<path d="M28.416 73.596V141.6L67.8 118.848V44.796C67.8 38.4 66 33.6 62.904 31.044C61.8015 30.6382 60.6348 30.4349 59.46 30.444C56.772 30.444 53.844 31.35 50.736 33.144C38.43 40.254 28.416 58.398 28.416 73.596Z" fill="white"/>
<path d="M48.1558 133.272L50.7358 131.778V32.214H48.1558V133.272Z" fill="#F5F5F5"/>
<path d="M45.6001 36.882V131.784L48.1861 133.272V34.8C47.2741 35.454 46.4161 36.138 45.6001 36.882Z" fill="#E0E0E0"/>
<path d="M70.4698 96.324L50.7358 107.718V110.748L70.4698 99.354V96.324Z" fill="#F5F5F5"/>
<path d="M67.8058 94.788L70.4698 96.324L50.7358 107.718V104.688L67.8058 94.788Z" fill="#EBEBEB"/>
<path d="M48.1559 109.206L28.4219 120.6V123.63L48.1559 112.236V109.206Z" fill="#F5F5F5"/>
<path d="M45.4859 107.67L48.1559 109.206L28.4219 120.6V117.57L45.4859 107.67Z" fill="#EBEBEB"/>
<path d="M70.4698 52.092L50.7358 63.486V66.516L70.4698 55.122V52.092Z" fill="#F5F5F5"/>
<path d="M67.8058 50.556L70.4698 52.092L50.7358 63.486V60.456L67.8058 50.556Z" fill="#EBEBEB"/>
<path d="M48.1559 64.974L28.4219 76.368V79.398L48.1559 68.004V64.974Z" fill="#F5F5F5"/>
<path d="M45.4859 63.438L48.1559 64.974L28.4219 76.368V73.338L45.4859 63.438Z" fill="#EBEBEB"/>
<path d="M221.52 92.358L238.422 82.602L282.924 108.264V110.124L266.022 119.88L221.52 94.212V92.358Z" fill="#EBEBEB"/>
<path d="M266.022 118.026L221.52 92.358L238.422 82.602L282.924 108.264L266.022 118.026Z" fill="#FAFAFA"/>
<path d="M266.022 118.026V119.88L282.924 110.124V108.264L266.022 118.026Z" fill="#E6E6E6"/>
<path d="M233.334 66.516L223.422 72.246V91.104L233.334 85.38V66.516Z" fill="#EBEBEB"/>
<path d="M223.74 72.558L233.34 67.05C233.927 67.6714 234.696 68.0914 235.536 68.25L226.02 73.734C225.211 73.4451 224.445 73.0496 223.74 72.558Z" fill="white"/>
<path d="M226.938 73.698C226.653 73.8429 226.337 73.9185 226.017 73.9185C225.697 73.9185 225.381 73.8429 225.096 73.698L223.476 72.774C223.367 72.7348 223.272 72.6628 223.205 72.5677C223.138 72.4727 223.102 72.3593 223.102 72.243C223.102 72.1268 223.138 72.0133 223.205 71.9183C223.272 71.8232 223.367 71.7512 223.476 71.712L232.938 66.312L233.334 66.54L224.034 71.94C223.968 71.9627 223.91 72.0055 223.869 72.0625C223.828 72.1195 223.806 72.1879 223.806 72.258C223.806 72.3281 223.828 72.3965 223.869 72.4535C223.91 72.5105 223.968 72.5534 224.034 72.576L225.54 73.428C225.711 73.514 225.9 73.5588 226.092 73.5588C226.284 73.5588 226.473 73.514 226.644 73.428L235.944 68.064L236.394 68.328L226.938 73.698Z" fill="#FAFAFA"/>
<path d="M236.4 68.274V87.132L226.944 92.562C226.659 92.7069 226.343 92.7824 226.023 92.7824C225.703 92.7824 225.387 92.7069 225.102 92.562L223.482 91.632C223.378 91.5855 223.288 91.5121 223.221 91.4193C223.155 91.3265 223.114 91.2176 223.104 91.104V72.24C223.114 72.3545 223.154 72.4644 223.221 72.5582C223.287 72.652 223.377 72.7265 223.482 72.774L225.102 73.698C225.387 73.8429 225.703 73.9185 226.023 73.9185C226.343 73.9185 226.659 73.8429 226.944 73.698L236.4 68.274Z" fill="#E0E0E0"/>
<path d="M226.014 73.92C225.694 73.927 225.378 73.8505 225.096 73.698L223.476 72.774C223.371 72.7265 223.281 72.652 223.215 72.5582C223.148 72.4644 223.108 72.3545 223.098 72.24V91.104C223.109 91.2177 223.149 91.3265 223.215 91.4193C223.282 91.5121 223.372 91.5855 223.476 91.632L225.096 92.562C225.379 92.7099 225.695 92.7842 226.014 92.778V73.92Z" fill="#F0F0F0"/>
<path d="M237.492 69.372L227.58 75.102L230.658 94.53L240.576 88.806L237.492 69.372Z" fill="#EBEBEB"/>
<path d="M228 75.372L237.6 69.864C238.35 70.4128 239.232 70.7542 240.156 70.854L230.64 76.338C229.727 76.1148 228.841 75.7908 228 75.372Z" fill="white"/>
<path d="M231.6 76.26C231.29 76.4086 230.954 76.4931 230.61 76.5086C230.267 76.524 229.924 76.4701 229.602 76.35L227.718 75.6C227.118 75.354 227.052 74.922 227.562 74.628L237.024 69.228L237.492 69.42L228.192 74.79C227.886 74.97 227.928 75.228 228.288 75.39L230.04 76.098C230.234 76.1685 230.44 76.1999 230.646 76.1907C230.851 76.1814 231.054 76.1316 231.24 76.044L240.534 70.68L241.068 70.896L231.6 76.26Z" fill="#FAFAFA"/>
<path d="M241.068 70.83L244.146 90.264L234.684 95.694C234.374 95.8412 234.037 95.925 233.694 95.9405C233.351 95.956 233.008 95.9028 232.686 95.784L230.796 95.016C230.502 94.89 230.334 94.722 230.31 94.548L227.226 75.114C227.256 75.288 227.424 75.462 227.718 75.582L229.608 76.356C229.931 76.4731 230.273 76.5254 230.616 76.51C230.959 76.4945 231.295 76.4116 231.606 76.266L241.068 70.83Z" fill="#E0E0E0"/>
<path d="M230.64 76.506C230.289 76.5294 229.938 76.4783 229.608 76.356L227.718 75.6C227.424 75.48 227.256 75.306 227.226 75.132L230.31 94.566C230.31 94.74 230.502 94.908 230.796 95.034L232.686 95.802C233.015 95.9263 233.367 95.9795 233.718 95.958L230.64 76.506Z" fill="#F0F0F0"/>
<path opacity="0.05" d="M241.11 94.2C238.782 95.55 238.782 97.734 241.11 99.078C242.418 99.7435 243.866 100.09 245.334 100.09C246.802 100.09 248.249 99.7435 249.558 99.078C251.892 97.734 251.892 95.55 249.558 94.2C248.248 93.5373 246.801 93.192 245.334 93.192C243.866 93.192 242.419 93.5373 241.11 94.2Z" fill="black"/>
<path d="M249.132 97.614C251.166 95.538 252.36 90.36 250.38 88.716H240.294C238.314 90.36 239.508 95.538 241.536 97.608L241.59 97.668L241.662 97.734C241.721 97.7912 241.783 97.8452 241.848 97.896C241.861 97.913 241.877 97.9273 241.896 97.938L242.046 98.052C242.136 98.112 242.22 98.172 242.31 98.22C243.248 98.6964 244.285 98.9447 245.337 98.9447C246.389 98.9447 247.426 98.6964 248.364 98.22C248.454 98.172 248.538 98.112 248.628 98.052L248.772 97.944L248.832 97.896L249.006 97.74L249.09 97.662L249.132 97.614Z" fill="#F5F5F5"/>
<path d="M241.2 87.93C238.902 89.256 238.902 91.41 241.2 92.73C242.491 93.3838 243.919 93.7244 245.367 93.7244C246.814 93.7244 248.242 93.3838 249.534 92.73C251.832 91.398 251.832 89.244 249.534 87.93C248.242 87.2763 246.814 86.9356 245.367 86.9356C243.919 86.9356 242.491 87.2763 241.2 87.93Z" fill="white"/>
<path d="M242.802 88.872C241.404 89.682 241.404 90.99 242.802 91.8C243.588 92.1966 244.456 92.4032 245.337 92.4032C246.217 92.4032 247.086 92.1966 247.872 91.8C249.27 90.99 249.27 89.682 247.872 88.872C247.087 88.4726 246.218 88.2644 245.337 88.2644C244.456 88.2644 243.587 88.4726 242.802 88.872Z" fill="#EBEBEB"/>
<path d="M247.872 90.258C247.086 89.8614 246.217 89.6548 245.337 89.6548C244.456 89.6548 243.588 89.8614 242.802 90.258C242.464 90.443 242.176 90.7064 241.962 91.026C242.174 91.349 242.463 91.6148 242.802 91.8C243.588 92.1967 244.456 92.4033 245.337 92.4033C246.217 92.4033 247.086 92.1967 247.872 91.8C248.211 91.6164 248.498 91.3502 248.706 91.026C248.495 90.7052 248.209 90.4414 247.872 90.258Z" fill="#E0E0E0"/>
<path d="M243.108 91.026C242.391 90.2996 241.776 89.4802 241.278 88.59C240.432 87.096 240.276 85.092 240.714 84.84C241.152 84.588 242.934 86.592 242.934 86.592C242.769 85.7526 242.704 84.8966 242.742 84.042C242.82 82.704 243.144 81.492 243.528 81.252C243.912 81.012 244.764 82.686 245.13 83.904C245.496 85.122 245.73 86.13 245.73 86.13C245.878 85.1786 246.098 84.2398 246.39 83.322C246.834 82.056 247.236 81.768 247.548 81.894C247.86 82.02 248.064 82.614 248.148 84.294C248.177 85.0949 248.151 85.8968 248.07 86.694C248.07 86.694 248.7 85.998 249.396 85.332C250.092 84.666 250.488 84.492 250.71 84.636C250.932 84.78 250.986 85.92 249.804 88.062C249.214 89.1538 248.459 90.1476 247.566 91.008C247.566 91.008 245.916 92.088 243.108 91.026Z" fill="#EBEBEB"/>
<path d="M261.066 80.826L251.154 86.55V105.414L261.066 99.69V80.826Z" fill="#E0E0E0"/>
<path d="M251.472 86.868L261.072 81.36C261.661 81.9792 262.429 82.3988 263.268 82.56L253.752 88.044C252.943 87.7552 252.177 87.3597 251.472 86.868Z" fill="white"/>
<path d="M254.67 88.008C254.384 88.1529 254.069 88.2285 253.749 88.2285C253.429 88.2285 253.113 88.1529 252.828 88.008L251.208 87.084C251.096 87.0477 250.998 86.9768 250.928 86.8814C250.859 86.786 250.821 86.671 250.821 86.553C250.821 86.435 250.859 86.32 250.928 86.2246C250.998 86.1292 251.096 86.0583 251.208 86.022L260.664 80.622L261.066 80.85L251.766 86.22C251.699 86.2427 251.642 86.2855 251.601 86.3425C251.56 86.3995 251.538 86.4679 251.538 86.538C251.538 86.6081 251.56 86.6765 251.601 86.7335C251.642 86.7905 251.699 86.8334 251.766 86.856L253.266 87.708C253.438 87.7936 253.628 87.8382 253.821 87.8382C254.013 87.8382 254.203 87.7936 254.376 87.708L263.67 82.344L264.126 82.608L254.67 88.008Z" fill="#FAFAFA"/>
<path d="M264.126 82.578V101.442L254.67 106.872C254.384 107.014 254.069 107.088 253.749 107.088C253.43 107.088 253.114 107.014 252.828 106.872L251.208 105.942C251.104 105.896 251.014 105.822 250.947 105.729C250.881 105.637 250.84 105.528 250.83 105.414V86.55C250.84 86.6637 250.881 86.7725 250.947 86.8653C251.014 86.9581 251.104 87.0315 251.208 87.078L252.828 88.008C253.113 88.1529 253.429 88.2285 253.749 88.2285C254.069 88.2285 254.385 88.1529 254.67 88.008L264.126 82.578Z" fill="#E0E0E0"/>
<path d="M253.746 88.23C253.426 88.237 253.11 88.1605 252.828 88.008L251.208 87.078C251.104 87.0315 251.014 86.9581 250.947 86.8653C250.881 86.7725 250.84 86.6637 250.83 86.55V105.414C250.84 105.528 250.881 105.636 250.947 105.729C251.014 105.822 251.104 105.896 251.208 105.942L252.828 106.872C253.111 107.02 253.427 107.094 253.746 107.088V88.23Z" fill="#F0F0F0"/>
<path d="M265.122 83.154L255.21 88.878V107.742L265.122 102.018V83.154Z" fill="#EBEBEB"/>
<path d="M255.528 89.196L265.128 83.688C265.716 84.3085 266.484 84.7283 267.324 84.888L257.808 90.372C256.999 90.0831 256.232 89.6876 255.528 89.196Z" fill="white"/>
<path d="M258.726 90.336C258.44 90.481 258.123 90.5565 257.802 90.5565C257.481 90.5565 257.164 90.481 256.878 90.336L255.264 89.4C255.152 89.3637 255.054 89.2928 254.984 89.1974C254.915 89.102 254.877 88.987 254.877 88.869C254.877 88.751 254.915 88.636 254.984 88.5406C255.054 88.4452 255.152 88.3743 255.264 88.338L264.72 82.938L265.122 83.166L255.822 88.536C255.756 88.5586 255.698 88.6015 255.657 88.6585C255.616 88.7155 255.594 88.7839 255.594 88.854C255.594 88.9241 255.616 88.9925 255.657 89.0495C255.698 89.1065 255.756 89.1493 255.822 89.172L257.322 90.024C257.494 90.1096 257.684 90.1542 257.877 90.1542C258.07 90.1542 258.259 90.1096 258.432 90.024L267.726 84.66L268.182 84.924L258.726 90.336Z" fill="#FAFAFA"/>
<path d="M268.2 84.906V103.8L258.726 109.2C258.439 109.342 258.122 109.416 257.802 109.416C257.481 109.416 257.165 109.342 256.878 109.2L255.264 108.27C255.159 108.224 255.068 108.151 255.001 108.058C254.933 107.965 254.891 107.856 254.88 107.742V88.878C254.891 88.9921 254.933 89.1011 255.001 89.1939C255.068 89.2867 255.159 89.3599 255.264 89.406L256.878 90.336C257.164 90.481 257.481 90.5565 257.802 90.5565C258.123 90.5565 258.439 90.481 258.726 90.336L268.2 84.906Z" fill="#E0E0E0"/>
<path d="M257.802 90.558C257.48 90.565 257.162 90.4885 256.878 90.336L255.264 89.4C255.159 89.3539 255.068 89.2807 255.001 89.1879C254.933 89.0951 254.891 88.9861 254.88 88.872V107.736C254.891 107.85 254.933 107.959 255.001 108.052C255.068 108.145 255.159 108.218 255.264 108.264L256.878 109.194C257.163 109.342 257.481 109.416 257.802 109.41V90.558Z" fill="#F0F0F0"/>
<path d="M269.124 87.156L259.212 92.88L262.29 112.314L272.208 106.59L269.124 87.156Z" fill="#EBEBEB"/>
<path d="M259.602 93.15L269.202 87.642C269.952 88.1908 270.834 88.5322 271.758 88.632L262.242 94.116C261.329 93.8928 260.444 93.5688 259.602 93.15Z" fill="white"/>
<path d="M263.238 94.044C262.928 94.1912 262.591 94.275 262.248 94.2905C261.905 94.3059 261.562 94.2527 261.24 94.134L259.35 93.36C258.75 93.12 258.684 92.688 259.194 92.394L268.656 86.964L269.124 87.156L259.824 92.556C259.518 92.73 259.56 92.988 259.92 93.156L261.672 93.864C261.866 93.9344 262.071 93.9659 262.277 93.9566C262.483 93.9474 262.685 93.8975 262.872 93.81L272.166 88.446L272.7 88.662L263.238 94.044Z" fill="#FAFAFA"/>
<path d="M272.7 88.614L275.778 108.048L266.316 113.448C266.005 113.594 265.668 113.677 265.325 113.691C264.982 113.706 264.64 113.652 264.318 113.532L262.428 112.8C262.134 112.68 261.966 112.512 261.942 112.332L258.858 92.904C258.888 93.078 259.056 93.246 259.35 93.366L261.24 94.14C261.562 94.2587 261.905 94.3119 262.248 94.2965C262.591 94.281 262.928 94.1972 263.238 94.05L272.7 88.614Z" fill="#E0E0E0"/>
<path d="M262.272 94.29C261.921 94.3115 261.569 94.2583 261.24 94.134L259.35 93.36C259.056 93.24 258.888 93.072 258.858 92.898L261.942 112.326C261.942 112.506 262.134 112.674 262.428 112.794L264.318 113.562C264.646 113.689 264.999 113.742 265.35 113.718L262.272 94.29Z" fill="#F0F0F0"/>
<path d="M221.52 55.752L238.422 45.996L282.924 71.658V73.512L266.022 83.274L221.52 57.606V55.752Z" fill="#EBEBEB"/>
<path d="M266.022 81.414L221.52 55.752L238.422 45.996L282.924 71.658L266.022 81.414Z" fill="#FAFAFA"/>
<path d="M266.022 81.414V83.274L282.924 73.512V71.658L266.022 81.414Z" fill="#E6E6E6"/>
<path d="M235.824 28.116L224.862 34.446V55.296L235.824 48.966V28.116Z" fill="#EBEBEB"/>
<path d="M225.216 34.8L235.8 28.704C236.439 29.3891 237.28 29.8534 238.2 30.03L227.73 36.096C226.839 35.7761 225.993 35.3403 225.216 34.8Z" fill="white"/>
<path d="M228.75 36.06C228.434 36.217 228.086 36.2987 227.733 36.2987C227.38 36.2987 227.032 36.217 226.716 36.06L224.916 35.034C224.757 35.034 224.604 34.9708 224.492 34.8582C224.379 34.7457 224.316 34.5931 224.316 34.434C224.316 34.2749 224.379 34.1222 224.492 34.0097C224.604 33.8972 224.757 33.834 224.916 33.834L235.368 27.834L235.812 28.086L225.534 34.026C225.192 34.218 225.192 34.53 225.534 34.728L227.19 35.664C227.376 35.7574 227.582 35.8061 227.79 35.8061C227.998 35.8061 228.204 35.7574 228.39 35.664L238.668 29.742L239.166 30.03L228.75 36.06Z" fill="#FAFAFA"/>
<path d="M239.202 30.06V50.904L228.75 56.904C228.435 57.0637 228.086 57.147 227.733 57.147C227.38 57.147 227.031 57.0637 226.716 56.904L224.916 55.878C224.798 55.8258 224.696 55.7423 224.622 55.6365C224.548 55.5308 224.505 55.4068 224.496 55.278V34.446C224.505 34.5748 224.548 34.6988 224.622 34.8045C224.696 34.9103 224.798 34.9938 224.916 35.046L226.716 36.072C227.032 36.229 227.38 36.3107 227.733 36.3107C228.086 36.3107 228.434 36.229 228.75 36.072L239.202 30.06Z" fill="#E0E0E0"/>
<path d="M227.73 36.3C227.377 36.3083 227.028 36.2256 226.716 36.06L224.916 35.034C224.798 34.9817 224.696 34.8982 224.622 34.7925C224.548 34.6867 224.505 34.5628 224.496 34.434V55.296C224.505 55.4248 224.548 55.5487 224.622 55.6545C224.696 55.7602 224.798 55.8437 224.916 55.896L226.716 56.922C227.028 57.0876 227.377 57.1703 227.73 57.162V36.3Z" fill="#F0F0F0"/>
<path d="M240.078 31.74L229.122 38.07L232.524 59.55L243.486 53.22L240.078 31.74Z" fill="#EBEBEB"/>
<path d="M229.554 38.4L240.168 32.28C240.995 32.8868 241.968 33.2636 242.988 33.372L232.47 39.438C231.463 39.1999 230.485 38.8518 229.554 38.4Z" fill="white"/>
<path d="M233.568 39.354C233.225 39.5168 232.853 39.6092 232.474 39.6257C232.094 39.6422 231.716 39.5825 231.36 39.45L229.272 38.598C228.618 38.334 228.54 37.854 229.104 37.53L239.562 31.53L240.078 31.74L229.8 37.674C229.464 37.866 229.506 38.154 229.902 38.316L231.84 39.096C232.054 39.1759 232.281 39.2117 232.509 39.2014C232.737 39.1911 232.96 39.1348 233.166 39.036L243.444 33.114L244.044 33.354L233.568 39.354Z" fill="#FAFAFA"/>
<path d="M244.026 33.354L247.428 54.828L236.976 60.828C236.632 60.9897 236.259 61.0815 235.879 61.098C235.499 61.1145 235.119 61.0553 234.762 60.924L232.68 60.072C232.35 59.94 232.164 59.754 232.134 59.556L228.732 38.076C228.732 38.274 228.948 38.46 229.272 38.592L231.36 39.45C231.716 39.5802 232.095 39.6383 232.474 39.6208C232.853 39.6033 233.225 39.5105 233.568 39.348L244.026 33.354Z" fill="#E0E0E0"/>
<path d="M232.5 39.6C232.112 39.6232 231.724 39.566 231.36 39.432L229.272 38.574C228.948 38.442 228.762 38.256 228.732 38.058L232.134 59.538C232.164 59.736 232.35 59.922 232.68 60.054L234.762 60.906C235.126 61.0417 235.514 61.101 235.902 61.08L232.5 39.6Z" fill="#F0F0F0"/>
<path d="M258.288 70.752L257.514 71.13L243.138 62.826L243.912 62.454L258.288 70.752Z" fill="#FAFAFA"/>
<path d="M243.912 62.454L257.586 70.35L259.578 49.89L245.898 42L243.912 62.454Z" fill="white"/>
<path d="M241.674 63.51L258.696 73.338L261.042 49.2L244.02 39.378L241.674 63.51ZM245.202 41.586L259.602 49.89L257.538 71.13L243.138 62.826L245.202 41.586Z" fill="#F0F0F0"/>
<path d="M243.138 62.826L243.912 62.454L245.898 42L245.202 41.586L243.138 62.826Z" fill="#E0E0E0"/>
<path d="M244.02 39.378L244.806 39.018L261.828 48.846L261.042 49.206L244.02 39.378Z" fill="#FAFAFA"/>
<path d="M261.828 48.846L261.042 49.206L258.696 73.338L259.482 72.972L261.828 48.846Z" fill="#E0E0E0"/>
<path d="M244.512 62.064L257.124 69.342L257.46 65.898L255.114 55.77L252.876 59.226L253.338 62.136L249.612 51.396L244.848 58.62L244.512 62.064Z" fill="#F0F0F0"/>
<path d="M255.306 51.51C255.567 51.6763 255.782 51.9072 255.928 52.1805C256.074 52.4538 256.147 52.7602 256.14 53.07C256.086 53.628 255.624 53.844 255.108 53.55C254.846 53.3838 254.632 53.1528 254.486 52.8795C254.34 52.6062 254.267 52.2998 254.274 51.99C254.328 51.426 254.79 51.21 255.306 51.51Z" fill="#F0F0F0"/>
<path opacity="0.05" d="M265.374 69.336C263.04 70.68 263.04 72.864 265.374 74.214C266.683 74.8767 268.13 75.222 269.598 75.222C271.066 75.222 272.513 74.8767 273.822 74.214C276.156 72.864 276.15 70.68 273.822 69.336C272.513 68.6705 271.066 68.3236 269.598 68.3236C268.13 68.3236 266.683 68.6705 265.374 69.336Z" fill="black"/>
<path d="M273.396 72.732C275.424 70.656 276.618 65.484 274.638 63.84H264.558C262.572 65.484 263.766 70.656 265.794 72.732L265.854 72.786L265.92 72.852L266.106 73.02L266.154 73.056C266.203 73.0973 266.256 73.1354 266.31 73.17C266.392 73.2322 266.478 73.2884 266.568 73.338C267.506 73.8144 268.543 74.0627 269.595 74.0627C270.647 74.0627 271.684 73.8144 272.622 73.338C272.713 73.2877 272.802 73.2315 272.886 73.17L273.03 73.062L273.09 73.014L273.264 72.858L273.348 72.78L273.396 72.732Z" fill="#F5F5F5"/>
<path d="M265.428 63.048C263.13 64.38 263.13 66.528 265.428 67.848C266.72 68.5018 268.147 68.8424 269.595 68.8424C271.043 68.8424 272.47 68.5018 273.762 67.848C276.06 66.522 276.06 64.368 273.762 63.048C272.47 62.3942 271.043 62.0536 269.595 62.0536C268.147 62.0536 266.72 62.3942 265.428 63.048Z" fill="white"/>
<path d="M267.06 63.99C265.662 64.8 265.662 66.108 267.06 66.918C267.846 67.3174 268.714 67.5256 269.595 67.5256C270.476 67.5256 271.345 67.3174 272.13 66.918C273.528 66.108 273.528 64.8 272.13 63.99C271.345 63.5906 270.476 63.3824 269.595 63.3824C268.714 63.3824 267.846 63.5906 267.06 63.99Z" fill="#EBEBEB"/>
<path d="M272.13 65.4C271.345 65.0005 270.476 64.7924 269.595 64.7924C268.714 64.7924 267.845 65.0005 267.06 65.4C266.722 65.5814 266.435 65.8456 266.226 66.168C266.436 66.4889 266.723 66.7528 267.06 66.936C267.845 67.3354 268.714 67.5436 269.595 67.5436C270.476 67.5436 271.345 67.3354 272.13 66.936C272.469 66.7528 272.757 66.489 272.97 66.168C272.759 65.8454 272.47 65.5813 272.13 65.4Z" fill="#E0E0E0"/>
<path d="M267.372 66.15C266.655 65.4231 266.037 64.6039 265.536 63.714C264.69 62.214 264.534 60.21 264.972 59.964C265.41 59.718 267.192 61.716 267.192 61.716C267.026 60.8747 266.961 60.0166 267 59.16C267.072 57.828 267.396 56.616 267.78 56.37C268.164 56.124 269.016 57.81 269.382 59.028C269.748 60.246 269.982 61.248 269.982 61.248C270.127 60.2964 270.345 59.3576 270.636 58.44C271.08 57.174 271.482 56.892 271.794 57.018C272.106 57.144 272.316 57.732 272.394 59.418C272.427 60.2188 272.401 61.021 272.316 61.818C272.316 61.818 272.946 61.128 273.642 60.456C274.338 59.784 274.74 59.622 274.956 59.76C275.172 59.898 275.238 61.044 274.05 63.192C273.461 64.2841 272.706 65.278 271.812 66.138C271.812 66.138 270.174 67.2 267.372 66.15Z" fill="#EBEBEB"/>
<path opacity="0.99" d="M29.4001 212.67C21.0001 217.512 21.0001 225.36 29.4001 230.202C37.8001 235.044 51.3781 235.038 59.7601 230.202C68.1421 225.366 68.1601 217.512 59.7601 212.67C51.3601 207.828 37.8001 207.828 29.4001 212.67Z" fill="#E0E0E0"/>
<path d="M184.722 280.194C208.1 280.194 227.052 269.253 227.052 255.756C227.052 242.259 208.1 231.318 184.722 231.318C161.344 231.318 142.392 242.259 142.392 255.756C142.392 269.253 161.344 280.194 184.722 280.194Z" fill="#E0E0E0"/>
<path d="M113.298 280.956C137.402 280.956 156.942 269.674 156.942 255.756C156.942 241.838 137.402 230.556 113.298 230.556C89.1944 230.556 69.6543 241.838 69.6543 255.756C69.6543 269.674 89.1944 280.956 113.298 280.956Z" fill="#E0E0E0"/>
<path opacity="0.99" d="M255.918 227.814L282.462 212.52C282.598 212.474 282.716 212.387 282.799 212.271C282.882 212.155 282.927 212.015 282.927 211.872C282.927 211.729 282.882 211.589 282.799 211.473C282.716 211.357 282.598 211.27 282.462 211.224L225.39 178.2C225.045 178.024 224.662 177.932 224.274 177.932C223.886 177.932 223.504 178.024 223.158 178.2L196.62 193.464C196.485 193.51 196.367 193.597 196.284 193.713C196.2 193.829 196.155 193.969 196.155 194.112C196.155 194.255 196.2 194.395 196.284 194.511C196.367 194.627 196.485 194.714 196.62 194.76L253.692 227.814C254.037 227.989 254.419 228.08 254.805 228.08C255.192 228.08 255.573 227.989 255.918 227.814Z" fill="#E0E0E0"/>
<path d="M32.4001 224.4C26.0221 217.8 22.2781 201.192 28.5001 195.972H60.12C66.336 201.192 62.592 217.806 56.22 224.388C56.166 224.454 56.1061 224.514 56.0461 224.574L55.8301 224.79C55.6501 224.964 55.4581 225.138 55.2301 225.306L55.074 225.426C54.9181 225.552 54.762 225.678 54.594 225.798C54.3293 225.988 54.0549 226.164 53.7721 226.326C48.5221 229.392 40.02 229.392 34.776 226.326C34.4879 226.164 34.2094 225.986 33.942 225.792C33.786 225.678 33.6421 225.564 33.4981 225.45L33.306 225.3C33.108 225.138 32.9281 224.97 32.7541 224.802L32.496 224.55L32.4001 224.4Z" fill="#EBEBEB"/>
<path d="M57.3721 193.854C64.5721 198.054 64.5721 204.906 57.3721 209.118C50.1721 213.33 38.4421 213.318 31.2241 209.118C24.0061 204.918 24.0241 198.066 31.2241 193.854C38.4241 189.642 50.1481 189.636 57.3721 193.854Z" fill="#FAFAFA"/>
<path d="M53.8979 195.882C59.2019 198.978 59.2019 203.994 53.8979 207.09C48.5939 210.186 39.9959 210.186 34.6979 207.09C29.3999 203.994 29.3939 198.978 34.6979 195.882C40.0019 192.786 48.5999 192.786 53.8979 195.882Z" fill="#EBEBEB"/>
<path d="M34.6981 201.204C39.9961 198.108 48.5941 198.108 53.8981 201.204C55.1834 201.906 56.2742 202.916 57.0721 204.144C56.2746 205.374 55.1839 206.386 53.8981 207.09C48.5941 210.186 39.9961 210.186 34.6981 207.09C33.4093 206.388 32.3163 205.375 31.5181 204.144C32.3169 202.915 33.4099 201.904 34.6981 201.204Z" fill="white"/>
<path d="M39.966 161.898C37.83 164.598 31.41 165.786 28.212 159.174C25.2 153 22.038 147.12 21.09 144.834C20.142 142.548 22.398 141.594 22.398 141.594C22.398 141.594 22.314 138.072 28.446 139.992C34.578 141.912 39.054 145.212 42.096 150.858C45.138 156.504 43.89 160.8 39.966 161.898Z" fill="#F0F0F0"/>
<path d="M43.2297 170.712C43.0326 169.526 42.7682 168.352 42.4377 167.196C41.7687 164.903 40.9345 162.661 39.9417 160.488C37.9196 156.063 35.2703 151.953 32.0757 148.284C30.2951 146.192 28.3225 144.272 26.1837 142.548C26.1237 142.5 26.0817 142.638 26.1297 142.68C29.7406 145.934 32.897 149.66 35.5137 153.756C38.0396 157.791 40.0303 162.138 41.4357 166.686C41.8357 167.958 42.2057 169.238 42.5457 170.526C42.8877 171.834 43.1457 173.166 43.4517 174.48C43.4877 174.612 43.6977 174.672 43.6917 174.48C43.6334 173.214 43.4789 171.954 43.2297 170.712Z" fill="#E0E0E0"/>
<path opacity="0.1" d="M43.2297 170.712C43.0326 169.526 42.7682 168.352 42.4377 167.196C41.7687 164.903 40.9345 162.661 39.9417 160.488C37.9196 156.063 35.2703 151.953 32.0757 148.284C30.2951 146.192 28.3225 144.272 26.1837 142.548C26.1237 142.5 26.0817 142.638 26.1297 142.68C29.7406 145.934 32.897 149.66 35.5137 153.756C38.0396 157.791 40.0303 162.138 41.4357 166.686C41.8357 167.958 42.2057 169.238 42.5457 170.526C42.8877 171.834 43.1457 173.166 43.4517 174.48C43.4877 174.612 43.6977 174.672 43.6917 174.48C43.6334 173.214 43.4789 171.954 43.2297 170.712Z" fill="black"/>
<path d="M46.9199 157.158C41.3519 158.88 37.1999 154.536 38.6519 147.72C40.1039 140.904 47.2439 133.32 49.9439 135.372C51.6359 133.68 55.3439 134.286 57.1079 139.824C58.8719 145.362 57.2639 159.6 46.9199 157.158Z" fill="#E0E0E0"/>
<path d="M50.1897 139.518C48.6083 143.487 47.3698 147.584 46.4877 151.764C45.5383 155.996 44.8212 160.276 44.3397 164.586C43.432 172.93 43.0513 181.322 43.1997 189.714C43.1997 192.036 43.2477 194.352 43.2897 196.674C43.3317 198.996 43.2897 201.474 43.4997 203.874C43.5777 204.786 44.8737 204.54 44.8917 203.706C44.9757 199.506 44.7477 195.342 44.7057 191.166C44.6637 186.99 44.7057 182.91 44.7837 178.782C44.9232 170.372 45.6752 161.984 47.0337 153.684C47.4297 151.374 47.8737 149.064 48.4137 146.784C48.9777 144.384 49.6737 142.014 50.3037 139.632C50.3517 139.512 50.2437 139.386 50.1897 139.518Z" fill="#E0E0E0"/>
<path opacity="0.1" d="M50.1897 139.518C48.6083 143.487 47.3698 147.584 46.4877 151.764C45.5383 155.996 44.8212 160.276 44.3397 164.586C43.432 172.93 43.0513 181.322 43.1997 189.714C43.1997 192.036 43.2477 194.352 43.2897 196.674C43.3317 198.996 43.2897 201.474 43.4997 203.874C43.5777 204.786 44.8737 204.54 44.8917 203.706C44.9757 199.506 44.7477 195.342 44.7057 191.166C44.6637 186.99 44.7057 182.91 44.7837 178.782C44.9232 170.372 45.6752 161.984 47.0337 153.684C47.4297 151.374 47.8737 149.064 48.4137 146.784C48.9777 144.384 49.6737 142.014 50.3037 139.632C50.3517 139.512 50.2437 139.386 50.1897 139.518Z" fill="black"/>
<path d="M36.5637 175.8C34.9557 179.106 29.5197 180.366 24.6057 176.628C19.6917 172.89 12.6057 155.694 17.9577 155.418C18.3717 152.742 33.9717 154.56 38.9937 165.678C42.6477 173.772 36.5637 175.8 36.5637 175.8Z" fill="#E0E0E0"/>
<path d="M43.0917 183.066C42.6294 182.01 42.0982 180.986 41.5017 180C40.3017 177.978 39.0117 176.028 37.6257 174.132C34.7684 170.298 31.5277 166.766 27.9537 163.59C26.0003 161.779 23.9342 160.094 21.7677 158.544C21.7077 158.502 21.6957 158.64 21.7317 158.67C23.4897 160.146 25.2597 161.598 26.9157 163.194C28.6271 164.85 30.2532 166.593 31.7877 168.414C34.7639 171.901 37.4622 175.617 39.8577 179.526C40.5357 180.636 41.1537 181.782 41.8437 182.886C42.5337 183.99 43.3677 185.124 44.0337 186.3C44.1297 186.474 44.3817 186.474 44.2917 186.24C43.8777 185.196 43.5417 184.11 43.0917 183.066Z" fill="#E0E0E0"/>
<path opacity="0.1" d="M43.0917 183.066C42.6294 182.01 42.0982 180.986 41.5017 180C40.3017 177.978 39.0117 176.028 37.6257 174.132C34.7684 170.298 31.5277 166.766 27.9537 163.59C26.0003 161.779 23.9342 160.094 21.7677 158.544C21.7077 158.502 21.6957 158.64 21.7317 158.67C23.4897 160.146 25.2597 161.598 26.9157 163.194C28.6271 164.85 30.2532 166.593 31.7877 168.414C34.7639 171.901 37.4622 175.617 39.8577 179.526C40.5357 180.636 41.1537 181.782 41.8437 182.886C42.5337 183.99 43.3677 185.124 44.0337 186.3C44.1297 186.474 44.3817 186.474 44.2917 186.24C43.8777 185.196 43.5417 184.11 43.0917 183.066Z" fill="black"/>
<path d="M46.7637 174.42C43.5837 173.694 43.4217 169.872 47.3997 165.18C51.3777 160.488 61.4037 158.442 61.8777 160.416C64.1037 160.416 64.1037 167.394 59.1717 173.808C54.2397 180.222 47.0637 178.728 46.7637 174.42Z" fill="#E0E0E0"/>
<path d="M52.9981 167.598C48.7897 170.527 45.5796 174.675 43.8001 179.484C43.6981 179.76 44.1661 180.156 44.2801 179.862C46.0854 175.103 49.1006 170.896 53.0281 167.658C53.0281 167.658 53.0401 167.568 52.9981 167.598Z" fill="#E0E0E0"/>
<path opacity="0.1" d="M52.9981 167.598C48.7897 170.527 45.5796 174.675 43.8001 179.484C43.6981 179.76 44.1661 180.156 44.2801 179.862C46.0854 175.103 49.1006 170.896 53.0281 167.658C53.0281 167.658 53.0401 167.568 52.9981 167.598Z" fill="black"/>
<path d="M50.4 197.7C45.99 199.5 47.88 204.738 52.2 208.722C56.52 212.706 62.658 213.762 65.616 213.552C68.574 213.342 69.336 212.952 69.336 212.952C69.336 212.952 69.81 208.416 69.336 205.656C68.8599 202.99 67.627 200.518 65.7844 198.534C63.9417 196.55 61.5672 195.138 58.944 194.466C52.05 192.6 50.4 195.078 50.4 197.7Z" fill="#F0F0F0"/>
<path d="M62.604 205.452C60.564 203.172 58.404 200.904 55.854 199.206C53.304 197.508 49.998 196.146 46.986 197.178C45.822 197.574 43.986 198.738 44.226 200.178C44.226 200.322 44.502 200.676 44.676 200.478C45.1396 199.808 45.6704 199.187 46.26 198.624C46.9619 198.11 47.7927 197.8 48.66 197.73C50.8133 197.579 52.9634 198.067 54.84 199.134C57.84 200.712 60.24 203.166 62.598 205.518C62.598 205.548 62.622 205.476 62.604 205.452Z" fill="#E0E0E0"/>
<path opacity="0.1" d="M62.604 205.452C60.564 203.172 58.404 200.904 55.854 199.206C53.304 197.508 49.998 196.146 46.986 197.178C45.822 197.574 43.986 198.738 44.226 200.178C44.226 200.322 44.502 200.676 44.676 200.478C45.1396 199.808 45.6704 199.187 46.26 198.624C46.9619 198.11 47.7927 197.8 48.66 197.73C50.8133 197.579 52.9634 198.067 54.84 199.134C57.84 200.712 60.24 203.166 62.598 205.518C62.598 205.548 62.622 205.476 62.604 205.452Z" fill="black"/>
<path d="M33.6419 180.468C33.6899 178.596 30.2999 174.756 22.0379 175.416C18.2639 175.716 14.8379 176.736 12.0359 179.4C11.0791 180.272 10.4448 181.441 10.2359 182.718C10.1553 183.215 10.2242 183.724 10.4339 184.182C10.6133 184.5 10.8564 184.778 11.1479 184.998C13.1279 186.588 15.7019 186.168 18.0239 186.762C21.6239 187.68 29.2259 190.962 33.6239 188.778C38.0219 186.594 36.2639 181.836 33.6419 180.468Z" fill="#F0F0F0"/>
<path d="M40.9558 185.616C36.2398 179.178 27.0298 178.638 19.8298 180C17.4607 180.444 15.1567 181.184 12.9718 182.202C12.9418 182.202 12.9718 182.292 12.9718 182.28C16.739 180.905 20.7 180.136 24.7078 180C28.6498 179.922 32.6218 180.42 36.1918 182.172C37.9574 183.053 39.5299 184.277 40.8178 185.772C40.9498 185.934 41.0518 185.748 40.9558 185.616Z" fill="#E0E0E0"/>
<path opacity="0.1" d="M40.9558 185.616C36.2398 179.178 27.0298 178.638 19.8298 180C17.4607 180.444 15.1567 181.184 12.9718 182.202C12.9418 182.202 12.9718 182.292 12.9718 182.28C16.739 180.905 20.7 180.136 24.7078 180C28.6498 179.922 32.6218 180.42 36.1918 182.172C37.9574 183.053 39.5299 184.277 40.8178 185.772C40.9498 185.934 41.0518 185.748 40.9558 185.616Z" fill="black"/>
<path d="M54.672 164.58C54.558 167.742 59.004 169.578 63.312 166.842C67.62 164.106 72.126 161.442 76.116 160.416C80.106 159.39 81.996 156.132 80.736 154.56C79.476 152.988 77.472 149.01 66.984 150.306C56.496 151.602 52.782 156.306 51.342 159.666C49.902 163.026 53.094 165.492 54.672 164.58Z" fill="#F0F0F0"/>
<path d="M71.7419 154.548C70.2257 154.403 68.6959 154.562 67.2419 155.016C65.919 155.359 64.6297 155.821 63.3899 156.396C60.9198 157.546 58.6935 159.159 56.8319 161.148C56.3022 161.716 55.8092 162.317 55.3559 162.948C54.8969 163.504 54.5191 164.122 54.2339 164.784C54.1619 164.988 54.4679 165.33 54.6479 165.114C55.1699 164.514 55.5599 163.788 56.0459 163.152C56.5704 162.476 57.1334 161.831 57.7319 161.22C58.947 160.001 60.3048 158.933 61.7759 158.04C63.1914 157.166 64.6909 156.437 66.2519 155.862C67.1079 155.556 67.9791 155.293 68.8619 155.076C69.7845 154.792 70.7468 154.658 71.7119 154.68C71.7659 154.668 71.7899 154.554 71.7419 154.548Z" fill="#E0E0E0"/>
<path opacity="0.1" d="M71.7419 154.548C70.2257 154.403 68.6959 154.562 67.2419 155.016C65.919 155.359 64.6297 155.821 63.3899 156.396C60.9198 157.546 58.6935 159.159 56.8319 161.148C56.3022 161.716 55.8092 162.317 55.3559 162.948C54.8969 163.504 54.5191 164.122 54.2339 164.784C54.1619 164.988 54.4679 165.33 54.6479 165.114C55.1699 164.514 55.5599 163.788 56.0459 163.152C56.5704 162.476 57.1334 161.831 57.7319 161.22C58.947 160.001 60.3048 158.933 61.7759 158.04C63.1914 157.166 64.6909 156.437 66.2519 155.862C67.1079 155.556 67.9791 155.293 68.8619 155.076C69.7845 154.792 70.7468 154.658 71.7119 154.68C71.7659 154.668 71.7899 154.554 71.7419 154.548Z" fill="black"/>
<path d="M47.1479 181.644C45.6779 180.174 41.6879 180.516 39.7979 184.854C37.9079 189.192 41.8739 193.95 42.3179 195.288C44.1179 194.238 45.5579 194.862 48.7679 194.238C50.552 193.81 52.1353 192.783 53.2535 191.329C54.3716 189.874 54.957 188.08 54.9119 186.246C54.7019 182.274 53.0219 179.646 47.1479 181.644Z" fill="#F0F0F0"/>
<path d="M47.0877 181.2C46.2887 181.708 45.6223 182.399 45.1437 183.216C44.6206 183.968 44.1971 184.785 43.8837 185.646C43.1978 187.405 43.0049 189.318 43.3257 191.178C43.3257 191.25 43.3977 191.178 43.3977 191.142C43.2472 189.272 43.5648 187.393 44.3217 185.676C44.8711 184.484 45.6198 183.394 46.5357 182.454C46.8449 182.205 47.1265 181.923 47.3757 181.614C47.4837 181.452 47.3157 181.098 47.0877 181.2Z" fill="#E0E0E0"/>
<path opacity="0.1" d="M47.0877 181.2C46.2887 181.708 45.6223 182.399 45.1437 183.216C44.6206 183.968 44.1971 184.785 43.8837 185.646C43.1978 187.405 43.0049 189.318 43.3257 191.178C43.3257 191.25 43.3977 191.178 43.3977 191.142C43.2472 189.272 43.5648 187.393 44.3217 185.676C44.8711 184.484 45.6198 183.394 46.5357 182.454C46.8449 182.205 47.1265 181.923 47.3757 181.614C47.4837 181.452 47.3157 181.098 47.0877 181.2Z" fill="black"/>
<path d="M41.082 193.314C40.266 190.182 36.282 188.424 31.11 188.04C28.5558 187.808 25.9882 188.305 23.705 189.473C21.4218 190.642 19.5165 192.433 18.21 194.64C15.498 199.278 14.376 202.968 16.02 203.574C17.664 204.18 24.636 205.146 29.136 205.548C33.636 205.95 39.252 205.134 42.936 201.72C46.62 198.306 45.378 194.028 41.082 193.314Z" fill="#E0E0E0"/>
<path d="M41.274 192.9C39.516 192.33 37.494 192.432 35.676 192.636C33.8758 192.843 32.1034 193.246 30.39 193.836C28.5807 194.475 26.8285 195.266 25.152 196.2C24.276 196.688 23.414 197.198 22.566 197.73C21.7571 198.209 20.9831 198.744 20.25 199.332C20.25 199.332 20.25 199.464 20.25 199.446C21.102 199.062 21.9 198.522 22.71 198.066C23.52 197.61 24.474 197.088 25.368 196.638C27.0535 195.774 28.8026 195.04 30.6 194.442C32.3821 193.833 34.2282 193.431 36.102 193.242C37.8509 193.153 39.6042 193.199 41.346 193.38C41.7 193.422 41.496 192.966 41.274 192.9Z" fill="#E0E0E0"/>
<path opacity="0.1" d="M41.274 192.9C39.516 192.33 37.494 192.432 35.676 192.636C33.8758 192.843 32.1034 193.246 30.39 193.836C28.5807 194.475 26.8285 195.266 25.152 196.2C24.276 196.688 23.414 197.198 22.566 197.73C21.7571 198.209 20.9831 198.744 20.25 199.332C20.25 199.332 20.25 199.464 20.25 199.446C21.102 199.062 21.9 198.522 22.71 198.066C23.52 197.61 24.474 197.088 25.368 196.638C27.0535 195.774 28.8026 195.04 30.6 194.442C32.3821 193.833 34.2282 193.431 36.102 193.242C37.8509 193.153 39.6042 193.199 41.346 193.38C41.7 193.422 41.496 192.966 41.274 192.9Z" fill="black"/>
<path d="M50.5139 185.628C46.9499 182.796 48.1139 176.028 60.6119 175.644C73.1099 175.26 81.9839 178.53 81.6119 182.544C83.6219 184.554 82.6019 190.176 72.5099 191.928C62.4179 193.68 47.9399 192.81 50.5139 185.628Z" fill="#E0E0E0"/>
<path d="M75.7261 182.592C72.0449 181.988 68.3107 181.768 64.5841 181.938C61.1641 182.034 57.6121 182.196 54.3001 183.138C53.4378 183.375 52.5985 183.688 51.7921 184.074C51.4172 184.254 51.0527 184.454 50.7001 184.674C50.4181 184.848 50.1001 184.998 49.9981 185.328C49.9882 185.38 49.9908 185.434 50.0056 185.485C50.0204 185.535 50.047 185.582 50.0833 185.621C50.1196 185.659 50.1645 185.689 50.2143 185.707C50.2641 185.725 50.3175 185.731 50.3701 185.724C51.1261 185.55 51.8341 184.962 52.5481 184.644C53.2501 184.335 53.9717 184.073 54.7081 183.858C56.1256 183.452 57.5747 183.165 59.0401 183C62.53 182.557 66.0464 182.357 69.5641 182.4C71.6161 182.4 73.6561 182.586 75.7021 182.748C75.7621 182.742 75.7861 182.604 75.7261 182.592Z" fill="#E0E0E0"/>
<path opacity="0.1" d="M75.7261 182.592C72.0449 181.988 68.3107 181.768 64.5841 181.938C61.1641 182.034 57.6121 182.196 54.3001 183.138C53.4378 183.375 52.5985 183.688 51.7921 184.074C51.4172 184.254 51.0527 184.454 50.7001 184.674C50.4181 184.848 50.1001 184.998 49.9981 185.328C49.9882 185.38 49.9908 185.434 50.0056 185.485C50.0204 185.535 50.047 185.582 50.0833 185.621C50.1196 185.659 50.1645 185.689 50.2143 185.707C50.2641 185.725 50.3175 185.731 50.3701 185.724C51.1261 185.55 51.8341 184.962 52.5481 184.644C53.2501 184.335 53.9717 184.073 54.7081 183.858C56.1256 183.452 57.5747 183.165 59.0401 183C62.53 182.557 66.0464 182.357 69.5641 182.4C71.6161 182.4 73.6561 182.586 75.7021 182.748C75.7621 182.742 75.7861 182.604 75.7261 182.592Z" fill="black"/>
<path d="M249.42 212.688L251.7 223.992L253.914 225.27L256.11 224.004L258.408 212.688L253.914 210.09L249.42 212.688Z" fill="#E0E0E0"/>
<path opacity="0.05" d="M249.42 212.688L251.7 223.992L253.914 225.27L256.11 224.004L258.408 212.688L253.914 210.09L249.42 212.688Z" fill="black"/>
<path d="M253.914 225.27V215.28L249.42 212.688L251.7 223.992L253.914 225.27Z" fill="#EBEBEB"/>
<path opacity="0.05" d="M249.42 212.688L250.89 219.99L253.914 221.736L256.92 219.996L258.408 212.688L253.914 210.09L249.42 212.688Z" fill="black"/>
<path d="M269.184 201.276L271.464 212.58L273.678 213.864L275.874 212.592L278.172 201.276L273.678 198.678L269.184 201.276Z" fill="#E0E0E0"/>
<path opacity="0.05" d="M269.184 201.276L271.464 212.58L273.678 213.864L275.874 212.592L278.172 201.276L273.678 198.678L269.184 201.276Z" fill="black"/>
<path d="M273.678 213.864V203.868L269.184 201.276L271.464 212.58L273.678 213.864Z" fill="#EBEBEB"/>
<path opacity="0.05" d="M269.184 201.276L270.654 208.578L273.678 210.324L276.69 208.584L278.172 201.276L273.678 198.678L269.184 201.276Z" fill="black"/>
<path d="M201.054 184.776L203.334 196.086L205.548 197.364L207.744 196.098L210.042 184.776L205.548 182.178L201.054 184.776Z" fill="#EBEBEB"/>
<path opacity="0.05" d="M201.054 184.776L203.334 196.086L205.548 197.364L207.744 196.098L210.042 184.776L205.548 182.178L201.054 184.776Z" fill="black"/>
<path d="M205.548 197.364V187.374L201.054 184.776L203.334 196.086L205.548 197.364Z" fill="#EBEBEB"/>
<path opacity="0.05" d="M201.054 184.776L202.53 192.078L205.548 193.824L208.56 192.084L210.042 184.776L205.548 182.178L201.054 184.776Z" fill="black"/>
<path d="M253.914 219.912L278.406 205.764V152.748L253.914 166.89V219.912Z" fill="#E0E0E0"/>
<path d="M253.914 166.89L199.782 135.654V188.67L253.914 219.912V166.89Z" fill="#EBEBEB"/>
<path d="M199.782 135.654L253.914 166.89L278.406 152.748L224.28 121.512L199.782 135.654Z" fill="#F5F5F5"/>
<path d="M250.416 193.158L203.28 165.954V185.412L202.638 185.784L249.768 212.982L250.416 212.61V193.158Z" fill="#E0E0E0"/>
<path d="M249.768 193.53L202.638 166.326V185.784L249.768 212.982V193.53Z" fill="#F5F5F5"/>
<path d="M228.186 186.072L223.422 183.324C222.822 182.964 222.306 183.126 222.306 183.684C222.351 184.028 222.475 184.356 222.669 184.644C222.862 184.931 223.12 185.17 223.422 185.34L228.186 188.088C228.786 188.448 229.302 188.286 229.302 187.728C229.257 187.384 229.133 187.056 228.94 186.768C228.746 186.481 228.488 186.242 228.186 186.072Z" fill="#E0E0E0"/>
<path d="M250.416 169.662L203.28 142.464V161.922L202.638 162.294L249.774 189.492L250.416 189.12V169.662Z" fill="#E0E0E0"/>
<path d="M249.774 170.034L202.638 142.836V162.294L249.774 189.492V170.034Z" fill="#F5F5F5"/>
<path d="M228.186 162.6L223.422 159.852C222.822 159.498 222.306 159.66 222.306 160.218C222.352 160.561 222.476 160.89 222.67 161.177C222.863 161.464 223.121 161.703 223.422 161.874L228.186 164.622C228.786 164.976 229.302 164.814 229.302 164.256C229.257 163.913 229.132 163.584 228.939 163.297C228.745 163.01 228.487 162.771 228.186 162.6Z" fill="#E0E0E0"/>
<path d="M247.488 145.8C244.776 147.366 244.776 149.904 247.488 151.47C250.2 153.036 254.592 153.036 257.304 151.47C260.016 149.904 260.016 147.366 257.304 145.8C254.592 144.234 250.2 144.216 247.488 145.8Z" fill="#E0E0E0"/>
<path d="M256.71 148.968C259.074 146.568 260.46 140.568 258.156 138.63H246.438C244.14 140.544 245.526 146.556 247.884 148.962C247.903 148.987 247.925 149.009 247.95 149.028L248.028 149.112C248.094 149.172 248.166 149.238 248.244 149.298L248.298 149.346C248.358 149.388 248.412 149.436 248.478 149.478L248.784 149.676C249.874 150.229 251.078 150.518 252.3 150.518C253.522 150.518 254.727 150.229 255.816 149.676L256.122 149.478L256.29 149.352L256.356 149.298C256.428 149.238 256.5 149.178 256.566 149.112L256.656 149.022L256.71 148.968Z" fill="#EBEBEB"/>
<path d="M247.458 137.862C244.788 139.404 244.788 141.912 247.458 143.454C250.128 144.996 254.466 144.996 257.136 143.454C259.806 141.912 259.812 139.404 257.136 137.862C254.46 136.32 250.134 136.32 247.458 137.862Z" fill="#FAFAFA"/>
<path d="M249.354 138.96C247.728 139.896 247.728 141.42 249.354 142.356C250.267 142.82 251.276 143.062 252.3 143.062C253.324 143.062 254.334 142.82 255.246 142.356C256.872 141.42 256.872 139.896 255.246 138.96C254.334 138.496 253.324 138.254 252.3 138.254C251.276 138.254 250.267 138.496 249.354 138.96Z" fill="#F5F5F5"/>
<path d="M255.246 140.574C254.334 140.11 253.324 139.868 252.3 139.868C251.276 139.868 250.267 140.11 249.354 140.574C248.961 140.784 248.627 141.089 248.382 141.462C248.625 141.838 248.96 142.146 249.354 142.356C250.267 142.82 251.276 143.062 252.3 143.062C253.324 143.062 254.334 142.82 255.246 142.356C255.64 142.144 255.974 141.837 256.218 141.462C255.972 141.091 255.638 140.786 255.246 140.574Z" fill="#EBEBEB"/>
<path d="M249.714 141.462C248.882 140.617 248.165 139.664 247.584 138.63C246.6 136.896 246.42 134.562 246.924 134.274C247.428 133.986 249.504 136.314 249.504 136.314C249.314 135.336 249.241 134.339 249.288 133.344C249.372 131.796 249.75 130.386 250.194 130.104C250.638 129.822 251.628 131.772 252.054 133.188C252.48 134.604 252.738 135.768 252.738 135.768C252.908 134.664 253.162 133.575 253.5 132.51C254.016 131.04 254.484 130.71 254.85 130.854C255.216 130.998 255.45 131.682 255.558 133.644C255.595 134.579 255.565 135.515 255.468 136.446C255.468 136.446 256.2 135.642 257.01 134.862C257.82 134.082 258.282 133.89 258.534 134.052C258.786 134.214 258.858 135.546 257.478 138.042C256.795 139.31 255.919 140.464 254.88 141.462C254.88 141.462 252.972 142.692 249.714 141.462Z" fill="#E0E0E0"/>
<path d="M236.424 144.228L235.56 144.654L219.366 135.456L220.236 135.036L236.424 144.228Z" fill="#FAFAFA"/>
<path d="M220.236 135.036L235.638 143.778L237.708 120.816L222.306 112.074L220.236 135.036Z" fill="white"/>
<path d="M217.728 136.236L236.898 147.126L239.346 120.042L220.146 109.152L217.728 136.236ZM221.514 111.636L237.714 120.834L235.566 144.672L219.366 135.48L221.514 111.636Z" fill="#F0F0F0"/>
<path d="M219.366 135.456L220.236 135.036L222.306 112.074L221.514 111.618L219.366 135.456Z" fill="#E0E0E0"/>
<path d="M220.17 109.152L221.052 108.738L240.222 119.628L239.34 120.042L220.17 109.152Z" fill="#FAFAFA"/>
<path d="M240.222 119.628L239.34 120.042L236.898 147.126L237.78 146.712L240.222 119.628Z" fill="#E0E0E0"/>
<path d="M220.908 134.592L235.104 142.656L235.458 138.792L232.746 127.452L230.262 131.346L230.808 134.604L226.542 122.586L221.256 130.722L220.908 134.592Z" fill="#F0F0F0"/>
<path d="M232.926 122.67C233.223 122.851 233.467 123.107 233.633 123.413C233.8 123.718 233.883 124.062 233.874 124.41C233.82 125.04 233.274 125.286 232.722 124.956C232.425 124.775 232.181 124.519 232.015 124.213C231.848 123.908 231.765 123.564 231.774 123.216C231.834 122.586 232.35 122.34 232.926 122.67Z" fill="#F0F0F0"/>
<path d="M192.108 245.598L194.772 244.338L192.144 243.63L192.108 245.598Z" fill="#263238"/>
<path d="M218.544 250.368C218.544 250.368 187.092 236.646 186.702 238.686C186.611 239.091 186.611 239.511 186.702 239.916L186.612 239.802L187.212 243.612C188.624 244.722 190.321 245.41 192.108 245.598C192.108 245.412 192.108 244.278 192.144 243.63C193.111 244.016 194.039 244.492 194.916 245.052C196.932 246.342 198.228 248.592 200.37 251.208C201.93 253.11 204.708 254.004 208.824 254.574C213.258 255.174 217.164 254.376 218.262 253.23C219.144 252.318 218.7 250.632 218.544 250.368Z" fill="#263238"/>
<path d="M217.674 249.66C217.374 249.354 216.252 248.16 214.734 246.864C213.402 245.724 211.86 244.29 210.192 243.126C209.393 242.589 208.641 241.987 207.942 241.326C207.39 240.726 206.868 240.168 206.376 239.526C204.885 237.602 203.611 235.52 202.578 233.316C202.086 232.278 201.192 229.998 201.444 225.774C201.834 219.372 202.374 217.062 202.398 212.904L187.398 214.854C187.836 217.158 188.304 222.306 188.532 224.928C188.886 228.918 189.492 229.296 187.878 233.268C187.404 234.468 186.678 235.566 186.63 236.82C186.534 238.86 188.196 240.624 190.056 241.62C191.598 242.454 193.368 242.82 194.856 243.69C196.372 244.686 197.699 245.943 198.774 247.404C199.83 248.712 200.682 250.254 202.164 251.172C203.814 252.192 205.38 252.51 207.288 252.888C209.562 253.278 211.875 253.393 214.176 253.23C217.446 253.026 219.876 251.886 217.674 249.66Z" fill="#FFBDA7"/>
<path d="M215.868 247.428C214.518 246.33 212.598 244.752 210.276 242.982C209.478 242.712 208.633 242.611 207.793 242.683C206.954 242.755 206.139 243 205.398 243.402C200.724 245.76 199.926 249.114 199.926 249.114C200.731 250.644 202.1 251.799 203.742 252.336C209.142 254.616 218.802 253.908 218.898 251.514C218.958 249.984 217.518 248.766 215.868 247.428ZM188.178 232.428C188.178 232.428 187.86 233.214 187.038 234.756C186.216 236.298 186.06 237.834 187.086 239.376C188.442 241.416 190.086 242.046 191.82 242.478C193.314 237.948 190.05 233.4 188.178 232.44V232.428Z" fill="#37474F"/>
<path d="M168.822 243.09C168.93 244.644 168.768 249.276 169.098 252.744C169.404 255.894 170.298 260.784 169.56 264.516C168.786 268.344 165.324 272.496 160.224 269.238C157.062 267.222 155.724 264.684 155.142 260.16C154.74 257.016 156.03 252.588 157.128 248.664C158.418 244.08 158.88 241.638 158.88 241.638L168.822 243.09Z" fill="#263238"/>
<path d="M157.8 220.23C157.8 224.49 158.328 231.54 158.556 236.256C158.556 238.452 158.622 241.53 158.16 243.87C157.56 246.906 156.9 251.118 156.462 253.086C155.862 255.84 155.376 257.58 156.564 260.592C156.665 260.829 156.792 261.054 156.942 261.264C158.538 263.724 162.438 265.464 163.65 265.11C163.932 265.388 164.283 265.587 164.666 265.687C165.049 265.787 165.452 265.785 165.834 265.68C165.97 265.654 166.104 265.62 166.236 265.578C166.374 265.535 166.509 265.481 166.638 265.416C167.114 265.175 167.535 264.837 167.873 264.423C168.211 264.01 168.458 263.531 168.6 263.016C168.671 262.796 168.727 262.571 168.768 262.344C169.254 259.894 169.333 257.38 169.002 254.904C168.894 253.104 168.828 250.524 168.906 247.752C168.984 244.98 171.606 230.478 172.62 221.766L157.8 220.23Z" fill="#FFBDA7"/>
<path d="M155.814 256.662C158.814 255.378 167.814 255 169.362 258.666C169.524 262.164 169.362 264.396 166.92 267.546C163.692 271.746 159.12 267.618 157.362 264.966C155.604 262.314 155.472 258.564 155.814 256.662Z" fill="#37474F"/>
<path d="M167.856 115.464C163.722 121.998 159.93 128.94 159.456 143.898C158.856 163.602 160.92 181.098 160.734 183.498C160.548 185.898 159.504 189.786 157.692 201.564C155.88 213.342 157.944 236.196 157.944 236.196C157.944 236.196 159.282 238.902 163.986 239.508C168.33 240.066 170.4 238.146 170.4 238.146C170.4 238.146 177.816 206.67 179.784 199.614C181.752 192.558 184.722 167.304 184.722 167.304L185.46 180.702C185.46 180.702 183.84 187.176 184.698 197.604C185.556 208.032 188.67 228.204 188.67 228.204C188.67 228.204 190.608 230.232 195.24 230.136C199.47 230.046 201.642 227.838 201.642 227.838C201.642 227.838 206.358 188.238 206.886 176.496C207.414 164.754 207.558 135.348 204.486 117.774L167.856 115.464Z" fill="#37474F"/>
<path d="M187.566 142.8L184.722 167.298L185.46 180.696L185.826 166.854L189.9 144.702C192.9 144.144 200.64 139.302 201.372 134.532C197.13 140.694 187.566 142.8 187.566 142.8ZM169.014 214.35C168.038 220.51 167.144 226.684 166.332 232.872C167.644 226.764 168.874 220.644 170.022 214.512C171.186 208.374 172.272 202.254 173.346 196.086C174.42 189.918 175.38 175.968 175.836 169.752C176.292 163.536 176.592 157.308 176.808 151.08C176.088 157.278 175.452 163.476 174.816 169.68C174.18 175.884 173.064 189.78 172.056 195.912C171.048 202.044 169.968 208.2 169.014 214.35ZM201.324 169.68C201.324 172.38 201.378 175.08 201.21 177.768C201.042 180.456 200.742 183.168 200.478 185.844L199.686 193.938C199.154 199.338 198.686 204.738 198.282 210.138C199.186 204.782 199.986 199.412 200.682 194.028C201.39 188.628 202.062 183.276 202.482 177.828C202.71 172.344 202.482 166.938 202.206 161.508C201.93 156.078 201.486 150.666 200.856 145.272L201.186 161.538C201.258 164.262 201.318 166.974 201.324 169.68Z" fill="#263238"/>
<path d="M171.186 45.54C166.35 47.16 165.318 51.906 165.186 60.036C165.144 63.192 165.264 65.988 162.594 68.136C161.172 69.288 159.48 70.134 158.268 71.508C156.258 73.782 156.084 77.682 158.334 79.722C157.496 80.0637 156.767 80.6275 156.226 81.3528C155.684 82.0781 155.351 82.9374 155.262 83.838C155.11 85.6543 155.636 87.4625 156.738 88.914C158.91 91.95 163.134 93.114 166.722 92.43C167.604 94.83 170.172 96.366 172.722 96.528C175.272 96.69 177.798 95.664 179.922 94.218C181.272 96.774 184.656 97.602 187.314 97.182C188.679 96.9738 189.983 96.4757 191.139 95.7212C192.295 94.9667 193.276 93.9734 194.016 92.808C194.104 92.6388 194.237 92.4975 194.4 92.4C194.529 92.3462 194.668 92.3216 194.808 92.328C196.638 92.286 198.378 92.28 200.022 91.428C201.517 90.7539 202.801 89.6858 203.736 88.338C204.345 87.3795 204.696 86.28 204.756 85.146C204.858 84.1959 204.694 83.2362 204.282 82.374C205.83 81.174 205.974 77.574 205.482 75.642C204.99 73.71 203.724 72.108 202.356 70.68C200.988 69.252 199.476 67.944 198.312 66.342C197.336 65.0115 196.859 63.3807 196.962 61.734C196.962 60.768 196.512 58.998 197.184 58.164C197.184 58.164 200.124 54.516 199.95 50.622C199.862 47.9119 198.874 45.3083 197.141 43.223C195.407 41.1377 193.029 39.6897 190.38 39.108C184.416 37.614 173.598 38.232 171.186 45.54Z" fill="#263238"/>
<path d="M194.76 77.796C198.468 78.114 204.276 78.612 207.756 86.142C211.89 95.082 215.442 103.5 218.442 115.434L209.55 115.998L201.648 103.332L194.76 77.796Z" fill="#FFBDA7"/>
<path d="M211.356 104.94C209.896 103.457 208.622 101.801 207.564 100.008C209.526 95.208 207.81 86.682 200.328 82.35L198.798 92.76L201.648 103.332L209.55 115.998C209.55 115.998 217.902 121.998 218.202 117.846C218.202 117.642 218.202 117.45 218.202 117.246C218.124 116.34 218.004 115.446 217.866 114.528C216.96 109.896 213.192 106.716 211.356 104.94Z" fill="#F0997A"/>
<path d="M162.858 124.83C161.166 121.14 164.826 117.63 165.408 112.14C165.81 108.384 163.356 99.174 163.356 99.174C163.356 99.174 169.794 93.654 167.556 79.212L179.832 77.076C189.162 76.536 194.76 77.796 194.76 77.796C197.274 79.728 201.546 82.704 204.426 87.264C208.758 94.116 206.964 99.666 202.986 104.304C202.95 105.192 202.848 109.89 205.344 119.4C205.698 120.75 206.61 123.132 205.5 124.398C199.26 131.49 173.922 134.088 162.858 124.83Z" fill="#8B80F8"/>
<path d="M169.674 59.19C170.712 57.954 172.866 57.39 173.964 59.034C174.642 60.048 174.852 61.77 175.842 61.488C176.442 61.32 176.646 60.594 176.388 59.28C176.388 59.352 177.174 58.86 177.228 58.812C177.972 58.152 177.786 57.186 178.02 56.322C178.278 55.362 179.028 54.636 179.472 53.772C180.174 52.416 179.874 50.772 179.574 49.32C179.442 48.72 179.352 47.964 179.796 47.52C180.159 47.2315 180.619 47.0939 181.08 47.136C182.523 47.2461 183.952 47.4973 185.346 47.886C186.749 48.2722 188.237 48.2241 189.612 47.748C190.212 47.502 190.686 47.148 191.238 46.854C191.78 46.5324 192.413 46.4015 193.038 46.482C193.556 46.6233 194.026 46.901 194.4 47.286C196.29 49.032 196.92 51.81 197.4 54.252C197.676 56.0946 197.797 57.9572 197.76 59.82C198.006 67.77 196.626 69.75 194.982 71.148C193.572 72.348 191.382 73.008 188.754 73.038L188.838 77.556C188.838 77.556 192.708 84.612 190.938 88.776C190.938 88.776 184.86 86.322 181.146 83.322C176.586 79.638 175.812 77.838 175.812 77.838L175.626 65.31C175.626 65.31 173.778 68.1 171 66C168.66 64.302 168.132 61.038 169.674 59.19Z" fill="#FFBDA7"/>
<path d="M188.796 73.038C183.804 73.122 178.926 71.052 177.072 66.576C177.072 66.576 177.282 69.576 179.19 71.376C183 74.976 188.826 74.616 188.826 74.616L188.796 73.038Z" fill="#F0997A"/>
<path d="M183.102 57C183.083 57.2342 183.133 57.4688 183.246 57.6748C183.359 57.8808 183.53 58.0492 183.737 58.159C183.945 58.2688 184.18 58.3152 184.414 58.2924C184.648 58.2697 184.87 58.1788 185.053 58.0311C185.235 57.8833 185.371 57.6852 185.442 57.4612C185.513 57.2373 185.517 56.9975 185.453 56.7714C185.389 56.5453 185.26 56.343 185.082 56.1895C184.904 56.036 184.685 55.9381 184.452 55.908C184.291 55.8872 184.128 55.8992 183.971 55.9434C183.815 55.9876 183.67 56.063 183.543 56.1651C183.417 56.2672 183.313 56.3938 183.237 56.5373C183.161 56.6808 183.115 56.8382 183.102 57Z" fill="#263238"/>
<path d="M192.6 57.318C192.672 57.5427 192.809 57.7413 192.993 57.8889C193.177 58.0365 193.4 58.1266 193.635 58.1479C193.87 58.1692 194.106 58.1208 194.314 58.0087C194.521 57.8966 194.691 57.7259 194.802 57.5177C194.913 57.3096 194.96 57.0733 194.938 56.8385C194.916 56.6037 194.824 56.3807 194.676 56.1974C194.527 56.0141 194.328 55.8786 194.103 55.8079C193.878 55.7373 193.637 55.7345 193.41 55.8C193.256 55.8445 193.113 55.9195 192.988 56.0204C192.863 56.1214 192.76 56.2464 192.685 56.3879C192.609 56.5294 192.563 56.6846 192.548 56.8444C192.534 57.0041 192.552 57.1652 192.6 57.318Z" fill="#263238"/>
<path d="M182.736 52.44L185.574 51.066C185.752 51.4546 185.771 51.8969 185.629 52.2997C185.487 52.7026 185.194 53.0346 184.812 53.226C184.625 53.3163 184.422 53.3675 184.214 53.3766C184.007 53.3858 183.8 53.3525 183.605 53.279C183.411 53.2054 183.234 53.0931 183.085 52.9489C182.935 52.8047 182.817 52.6315 182.736 52.44Z" fill="#263238"/>
<path d="M195.222 51.756L192.264 50.664C192.127 51.0678 192.15 51.5091 192.33 51.8959C192.51 52.2826 192.833 52.585 193.23 52.74C193.425 52.8111 193.633 52.842 193.84 52.8307C194.047 52.8193 194.25 52.7661 194.436 52.6741C194.623 52.5821 194.788 52.4533 194.923 52.2955C195.058 52.1377 195.16 51.9542 195.222 51.756Z" fill="#263238"/>
<path d="M190.8 65.022L186.396 63.822C186.249 64.4221 186.339 65.0558 186.648 65.5911C186.956 66.1265 187.459 66.5222 188.052 66.696C188.343 66.7735 188.646 66.7913 188.943 66.7484C189.241 66.7055 189.527 66.6027 189.784 66.4463C190.041 66.2898 190.263 66.083 190.438 65.8382C190.612 65.5934 190.736 65.3158 190.8 65.022Z" fill="#B16668"/>
<path d="M189.42 66.6C189.263 66.0035 188.902 65.4807 188.4 65.1215C187.899 64.7623 187.288 64.5892 186.672 64.632C186.561 64.6437 186.451 64.6617 186.342 64.686C186.401 65.1478 186.593 65.5826 186.894 65.9374C187.196 66.2921 187.594 66.5515 188.04 66.684C188.497 66.8049 188.981 66.7754 189.42 66.6Z" fill="#F0997A"/>
<path d="M180.792 54.54L173.106 58.254C173.563 58.4868 173.93 58.8645 174.15 59.328L181.2 55.848L180.792 54.54Z" fill="#263238"/>
<path d="M198.204 53.316L197.712 53.28C196.116 53.184 194.046 53.238 192.804 53.682C191.244 54.246 190.698 54.822 189.804 54.882C188.91 54.942 188.292 54.396 186.6 54C185.262 53.682 183.03 53.844 181.32 54.102L180.786 54.192C180.599 54.2595 180.439 54.3863 180.331 54.5532C180.222 54.72 180.172 54.9176 180.186 55.116C180.242 55.4983 180.414 55.8543 180.678 56.136C180.762 56.2609 180.819 56.4018 180.846 56.55C181.02 57.27 181.116 58.674 181.446 59.448C181.612 59.8293 181.844 60.1785 182.13 60.48C182.238 60.5875 182.354 60.6859 182.478 60.774L182.682 60.906C182.871 61.0192 183.072 61.1098 183.282 61.176H183.384L183.546 61.218L183.714 61.254C183.891 61.2845 184.069 61.3046 184.248 61.314H184.8C185.584 61.3359 186.355 61.1178 187.012 60.6889C187.668 60.2599 188.178 59.6406 188.472 58.914C189.006 57.774 188.844 56.226 189.846 56.178H189.942H190.032C190.782 56.316 190.716 57.75 191.232 58.764C191.42 59.1692 191.671 59.5419 191.976 59.868C192.031 59.927 192.089 59.9831 192.15 60.036L192.246 60.12L192.342 60.192L192.432 60.258L192.528 60.318L192.606 60.366H192.66C192.938 60.5178 193.237 60.627 193.548 60.69H193.632C193.988 60.7542 194.351 60.7744 194.712 60.75C195.383 60.7493 196.036 60.534 196.576 60.1357C197.115 59.7374 197.514 59.1768 197.712 58.536C197.954 57.5684 198.121 56.5834 198.21 55.59C198.235 55.4506 198.293 55.3191 198.378 55.206C198.615 54.893 198.757 54.5178 198.786 54.126C198.784 53.9476 198.727 53.7742 198.623 53.6293C198.518 53.4844 198.372 53.375 198.204 53.316ZM187.884 57.918C187.773 58.5032 187.515 59.0505 187.134 59.508C186.829 59.8386 186.458 60.1005 186.044 60.2764C185.63 60.4523 185.184 60.538 184.734 60.528C184.289 60.5787 183.838 60.5104 183.428 60.3302C183.018 60.15 182.664 59.8642 182.4 59.502L182.34 59.4C182.316 59.3654 182.294 59.3293 182.274 59.292L182.22 59.19C182.202 59.1613 182.186 59.1312 182.172 59.1L182.136 59.028C182.127 59.0055 182.117 58.9835 182.106 58.962L182.064 58.848C182.019 58.7446 181.981 58.6384 181.95 58.53L181.896 58.338C181.896 58.23 181.842 58.122 181.824 58.032C181.827 58.0121 181.827 57.9919 181.824 57.972C181.824 57.972 181.824 57.93 181.824 57.912C181.662 57.15 181.482 55.65 181.86 55.29C182.238 54.93 183.228 54.534 184.86 54.618H185.034C185.282 54.6348 185.528 54.6669 185.772 54.714C185.874 54.714 185.964 54.75 186.06 54.768C186.304 54.8209 186.544 54.8891 186.78 54.972L187.002 55.056L187.242 55.158H187.29L187.38 55.206C187.568 55.2922 187.734 55.4193 187.866 55.578C188.148 56.046 188.064 57.048 187.884 57.918ZM197.4 57.108C197.298 57.708 197.082 59.04 195.954 59.676C195.585 59.8774 195.174 59.9923 194.754 60.012C194.283 60.0824 193.803 60.0217 193.364 59.8364C192.926 59.6512 192.547 59.3486 192.27 58.962C192.252 58.9394 192.236 58.9153 192.222 58.89L192.168 58.812C192.169 58.798 192.169 58.784 192.168 58.77L192.102 58.65C192.078 58.6032 192.056 58.5551 192.036 58.506L192 58.44C192 58.44 192 58.44 192 58.398C191.998 58.3801 191.998 58.3619 192 58.344V58.296C191.928 58.1008 191.872 57.9002 191.832 57.696C191.646 56.844 191.532 55.854 191.832 55.374C192.132 54.894 193.302 54.318 194.442 54.12C194.686 54.0755 194.933 54.0435 195.18 54.024H195.834H196.038C196.163 54.0329 196.287 54.049 196.41 54.072H196.5H196.56H196.65H196.758L196.938 54.132H196.968C197.117 54.1869 197.255 54.2682 197.376 54.372C197.634 54.822 197.502 56.328 197.4 57.108Z" fill="#37474F"/>
<path d="M188.76 58.038L190.254 62.838L194.112 60.906C193.962 60.684 190.302 56.508 190.008 56.22C189.868 56.1903 189.722 56.2023 189.589 56.2545C189.456 56.3068 189.341 56.397 189.258 56.514C188.999 56.9868 188.831 57.5035 188.76 58.038Z" fill="#F0997A"/>
<path d="M198.168 104.724C197.112 103.108 195.541 101.897 193.71 101.286C191.652 100.478 189.647 99.5379 187.71 98.472C186.894 98.0966 186.126 97.6231 185.424 97.062C185.061 96.7525 184.786 96.3532 184.626 95.904C184.526 95.4998 184.578 95.0731 184.77 94.704C184.302 94.4831 183.904 94.1387 183.618 93.708C183.387 93.2869 183.321 92.7952 183.432 92.328C183.476 92.1805 183.548 92.0433 183.646 91.9247C183.744 91.8061 183.865 91.7086 184.002 91.638C183.738 91.194 182.94 89.916 183.786 88.968C184.08 88.746 184.524 88.848 184.89 88.866C185.256 88.884 186.09 89.028 186.27 89.064C186.354 88.9421 186.468 88.8431 186.6 88.776C187.415 88.3662 188.341 88.2295 189.24 88.386C190.224 88.5864 191.185 88.8859 192.108 89.28C193.116 89.64 194.172 89.88 195.198 90.186C195.413 90.2535 195.634 90.2978 195.858 90.318C196.368 90.318 196.866 90.114 197.376 90.174C197.814 90.2423 198.24 90.3715 198.642 90.558C199.525 90.9637 200.258 91.6377 200.736 92.484C202.08 94.794 202.926 97.284 204.516 99.45C205.897 101.273 207.435 102.971 209.112 104.526C211.728 107.058 216.726 109.326 218.16 114.33C219.12 117.648 219.06 122.298 216.774 124.266C215.274 125.562 209.664 124.518 206.574 121.17C202.956 117.216 199.512 106.974 198.168 104.724Z" fill="#FFBDA7"/>
<path d="M186.408 89.046C189.553 89.6574 192.616 90.634 195.534 91.956C192.772 90.2626 189.64 89.2641 186.408 89.046ZM189.588 92.274C187.824 91.824 185.952 91.374 184.128 91.674C187.776 91.674 191.328 93.012 194.682 94.338C193.081 93.4391 191.374 92.7456 189.6 92.274H189.588ZM185.472 94.134C185.231 94.1764 185.014 94.3066 184.864 94.4994C184.713 94.6922 184.639 94.9339 184.656 95.178C184.734 94.02 186.06 94.23 186.858 94.422C189.585 95.0161 192.24 95.9012 194.778 97.062C192.35 95.6268 189.677 94.6562 186.894 94.2C186.426 94.1031 185.946 94.0808 185.472 94.134Z" fill="#F0997A"/>
<path d="M167.556 79.2C163.128 80.532 157.512 83.916 158.898 92.754C160.2 101.07 165.63 119.448 167.484 124.032C169.584 129.24 171.738 131.07 174.528 131.682C176.928 132.204 179.61 130.644 181.614 129.222C187.35 125.16 191.088 117.006 195.144 108.474C197.038 104.45 198.431 100.208 199.29 95.844C199.453 94.8347 199.499 93.8099 199.428 92.79C199.345 91.8258 199.099 90.8825 198.702 90C198.637 89.8735 198.579 89.7433 198.528 89.61C198.478 89.3816 198.458 89.1476 198.468 88.914C198.482 88.3382 198.281 87.7779 197.904 87.342C197.72 87.167 197.519 87.0102 197.304 86.874C197.237 86.8239 197.176 86.7654 197.124 86.7C196.974 86.484 197.052 86.202 197.028 85.944C196.975 85.6694 196.824 85.4233 196.603 85.2512C196.383 85.0791 196.107 84.9928 195.828 85.008C195.516 85.0499 195.218 85.1625 194.956 85.3372C194.694 85.5119 194.475 85.7441 194.316 86.016C194.289 86.0587 194.252 86.0938 194.208 86.118C194.157 86.13 194.103 86.13 194.052 86.118C193.799 86.0841 193.541 86.1046 193.296 86.178C193.069 86.2477 192.862 86.3735 192.696 86.544C192.342 86.9795 192.118 87.5054 192.048 88.062C191.856 88.962 191.718 89.862 191.52 90.774C191.13 92.574 190.974 94.374 190.02 95.976C189.936 96.12 189.798 96.282 189.63 96.246C189.462 96.21 189.42 96.024 189.396 95.868C189.15 94.254 190.092 92.562 188.832 91.152C187.74 89.952 187.572 92.352 187.398 92.952L186.696 95.472C186.24 96.8485 185.981 98.2828 185.928 99.732C185.928 101.1 186.324 102.444 186.27 103.812C186.264 105.171 185.736 106.475 184.794 107.454C181.068 111.222 179.394 112.716 179.394 112.716L176.49 98.802C176.49 98.802 176.052 90.816 172.89 84.504C170.742 80.4 167.556 79.2 167.556 79.2Z" fill="#FFBDA7"/>
<path d="M194.4 86.298C194.796 86.976 194.646 87.828 194.646 88.584C194.532 90.8934 194.145 93.1812 193.494 95.4C193.704 94.086 193.962 92.172 194.16 90.834C194.322 89.706 194.436 88.548 194.526 87.408C194.576 87.0302 194.537 86.646 194.412 86.286L194.4 86.298Z" fill="#F0997A"/>
<path d="M197.04 86.808C197.163 89.9415 196.758 93.0732 195.84 96.072C196.488 93.072 196.632 89.856 197.04 86.808Z" fill="#F0997A"/>
<path d="M198.528 89.718C198.716 92.061 198.46 94.4184 197.772 96.666C198.006 94.614 198.372 91.752 198.528 89.718Z" fill="#F0997A"/>
<path d="M181.614 129.234C188.046 124.326 191.124 116.478 194.616 109.434C196.359 105.848 197.728 102.092 198.702 98.226C199.277 96.3205 199.481 94.3223 199.302 92.34C199.133 91.3578 198.836 90.4018 198.42 89.496C198.42 88.47 198.27 87.522 197.304 86.976C197.186 86.8973 197.092 86.7869 197.034 86.6574C196.975 86.5279 196.955 86.3847 196.974 86.244C196.986 86.0729 196.957 85.9014 196.888 85.7442C196.819 85.5871 196.713 85.4491 196.579 85.3422C196.445 85.2352 196.287 85.1626 196.118 85.1305C195.95 85.0984 195.776 85.1078 195.612 85.158C195.093 85.3352 194.653 85.6901 194.37 86.16C194.336 86.1906 194.296 86.2134 194.253 86.2269C194.209 86.2404 194.163 86.2442 194.118 86.238C193.766 86.1792 193.404 86.236 193.086 86.4C192.21 86.91 192.204 88.098 191.982 88.992C191.598 90.726 191.274 93.192 190.68 94.842C190.51 95.3219 190.278 95.7777 189.99 96.198C189.324 96.768 189.27 95.598 189.294 95.184C189.348 93.75 189.846 92.052 188.586 91.02C187.698 90.42 187.644 92.688 187.428 93.186L187.026 94.626C186.504 96.534 185.826 98.472 186.042 100.47C186.258 102.468 186.714 104.544 185.688 106.356C185.143 107.198 184.48 107.957 183.72 108.612C182.304 110.016 180.876 111.414 179.394 112.746C180.864 111.402 182.28 109.992 183.684 108.576C184.435 107.923 185.086 107.163 185.616 106.32C186.059 105.431 186.266 104.444 186.216 103.452C186.216 102.462 185.994 101.478 185.904 100.482C185.694 98.466 186.354 96.51 186.876 94.59L187.272 93.15C187.494 92.442 187.47 91.632 187.872 90.978C188.514 90.24 189.294 91.632 189.438 92.178C189.702 93.192 189.438 94.2 189.402 95.178C189.402 97.188 190.146 95.682 190.476 94.776C191.076 93.156 191.382 90.654 191.754 88.95C191.964 87.78 192.174 86.058 193.704 86.016C193.842 85.986 194.094 86.076 194.184 86.016C194.488 85.5165 194.96 85.1421 195.516 84.96C195.71 84.9016 195.916 84.891 196.115 84.9292C196.315 84.9674 196.502 85.0532 196.661 85.1793C196.82 85.3054 196.946 85.468 197.029 85.6534C197.112 85.8388 197.148 86.0414 197.136 86.244C197.116 86.3509 197.129 86.4615 197.173 86.561C197.217 86.6606 197.29 86.7446 197.382 86.802C197.831 87.0681 198.179 87.4753 198.372 87.96C198.515 88.4448 198.581 88.9487 198.57 89.454C198.99 90.3619 199.285 91.3227 199.446 92.31C199.626 94.3141 199.423 96.3342 198.846 98.262C197.856 102.135 196.47 105.897 194.712 109.488C191.214 116.526 188.07 124.38 181.584 129.228L181.614 129.234Z" fill="#F0997A"/>
<path d="M179.4 112.746C176.658 114.036 174.33 116.622 173.88 118.092C173.88 118.092 173.634 113.658 179.022 111.126L179.4 112.746Z" fill="#F0997A"/>
<path d="M94.7098 223.002C95.2078 229.218 95.5318 233.832 95.4418 234.894C95.1118 238.764 93.1018 241.158 91.5478 242.748C88.2958 246.078 85.9918 247.404 81.9478 250.272C82.4818 251.814 90.7978 251.964 93.1858 250.872C96.66 249.227 100.023 247.357 103.254 245.274C106.572 242.934 107.37 241.488 107.52 237.804C107.52 237.342 107.874 234.348 107.844 234.144C107.892 233.28 108.408 228.612 109.086 222.864L94.7098 223.002Z" fill="#C8856A"/>
<path d="M143.616 235.29L143.934 220.656L128.244 222.132L131.574 236.148C131.574 236.148 133.224 255.948 133.974 259.188C136.482 269.58 144.912 265.386 145.914 259.878C146.604 256.2 143.616 235.29 143.616 235.29Z" fill="#C8856A"/>
<path d="M75.3299 256.128C75.1139 256.128 74.9459 258.528 76.1759 259.476C77.5979 260.556 81.6779 262.212 86.8619 261.192C92.0459 260.172 94.7699 258.36 96.7499 256.464C98.7299 254.568 101.496 251.904 103.824 251.22C105.99 250.59 109.482 249.114 110.142 248.388C110.802 247.662 110.508 244.632 110.508 244.632L75.3299 256.128Z" fill="#263238"/>
<path d="M107.85 234.138C108.062 234.226 108.252 234.358 108.409 234.526C108.565 234.693 108.683 234.893 108.756 235.11C108.972 235.938 109.05 237.006 109.482 238.356C110.082 240.228 110.682 244.11 110.478 245.682C110.274 247.254 105.606 248.892 103.374 249.918C101.142 250.944 98.5141 252.984 96.2701 255.102C94.0261 257.22 88.9081 259.674 85.5061 259.95C80.3101 260.364 76.8481 259.17 75.6901 257.364C74.2501 255.126 74.7361 252.672 80.5321 249.498C81.6241 248.898 85.4461 246.276 86.7481 245.334C88.1253 244.341 89.4177 243.235 90.6121 242.028C91.2167 241.416 91.7876 240.771 92.3221 240.096C92.8846 239.49 93.3519 238.802 93.7081 238.056C93.7681 237.894 93.8041 237.702 93.8521 237.534C93.9906 237.067 94.0909 236.589 94.1521 236.106C94.2121 235.596 94.2241 234.864 94.6801 234.534C95.1361 234.204 102.654 235.188 103.23 235.986C103.609 236.637 103.815 237.375 103.83 238.128C103.866 238.476 103.884 238.83 103.908 239.178C103.908 239.328 103.908 239.604 104.082 239.526C104.256 239.448 104.46 238.926 104.526 238.734C104.664 238.332 104.748 237.9 104.904 237.504C105.028 237.022 105.253 236.572 105.564 236.184C106.506 235.284 107.478 235.38 107.742 235.074C107.772 235.074 107.838 234.438 107.85 234.138Z" fill="#37474F"/>
<path d="M80.214 249.678C87.774 249.678 90.27 255.6 90.78 258.474C89.1086 259.235 87.3295 259.733 85.5059 259.95C80.3099 260.364 76.638 259.188 75.474 257.376C74.118 255.264 75 252.06 80.214 249.678Z" fill="#FAFAFA"/>
<path d="M91.3261 250.398C91.4109 250.393 91.4913 250.359 91.5541 250.302C91.623 250.231 91.6616 250.137 91.6616 250.038C91.6616 249.939 91.623 249.845 91.5541 249.774C90.4201 248.574 86.8501 246.012 84.1321 246.486C84.0396 246.507 83.9589 246.564 83.9063 246.643C83.8538 246.722 83.8335 246.818 83.8496 246.911C83.8657 247.005 83.917 247.089 83.993 247.146C84.0689 247.203 84.1638 247.229 84.2581 247.218C86.7961 246.78 90.1141 249.312 91.0141 250.284C91.0535 250.326 91.1022 250.359 91.1564 250.378C91.2107 250.398 91.2688 250.405 91.3261 250.398Z" fill="#F5F5F5"/>
<path d="M94.4461 248.286C94.5314 248.284 94.6127 248.249 94.6741 248.19C94.7426 248.12 94.781 248.027 94.781 247.929C94.781 247.831 94.7426 247.738 94.6741 247.668C93.5401 246.468 89.9641 243.894 87.2521 244.38C87.2043 244.388 87.1585 244.405 87.1175 244.431C87.0765 244.457 87.041 244.491 87.0131 244.53C86.9851 244.57 86.9654 244.615 86.9549 244.662C86.9445 244.709 86.9435 244.758 86.9521 244.806C86.9593 244.854 86.9762 244.9 87.0018 244.942C87.0273 244.983 87.0611 245.019 87.1009 245.047C87.1407 245.075 87.1858 245.095 87.2335 245.105C87.2811 245.115 87.3303 245.116 87.3781 245.106C89.9161 244.668 93.2341 247.206 94.1341 248.172C94.1725 248.216 94.2211 248.249 94.2756 248.269C94.3301 248.289 94.3887 248.295 94.4461 248.286Z" fill="#F5F5F5"/>
<path d="M97.308 245.928C97.3933 245.921 97.4737 245.885 97.536 245.826C97.6045 245.756 97.6429 245.663 97.6429 245.565C97.6429 245.467 97.6045 245.374 97.536 245.304C96.402 244.104 92.82 241.536 90.114 242.016C90.0181 242.034 89.933 242.088 89.8769 242.168C89.8208 242.247 89.7982 242.346 89.814 242.442C89.8219 242.49 89.8393 242.536 89.8651 242.577C89.8909 242.618 89.9246 242.653 89.9643 242.681C90.0039 242.709 90.0487 242.729 90.096 242.739C90.1433 242.75 90.1923 242.751 90.24 242.742C92.772 242.304 96.102 244.842 96.996 245.808C97.035 245.851 97.0836 245.884 97.1377 245.905C97.1919 245.926 97.2502 245.934 97.308 245.928Z" fill="#F5F5F5"/>
<path d="M100.11 243.564C100.193 243.56 100.272 243.526 100.332 243.468C100.404 243.402 100.448 243.311 100.454 243.213C100.46 243.115 100.426 243.02 100.362 242.946C98.8018 241.212 95.0218 239.184 92.3098 239.664C92.2622 239.672 92.2166 239.69 92.1757 239.716C92.1348 239.742 92.0995 239.775 92.0716 239.815C92.0153 239.895 91.9931 239.994 92.0098 240.09C92.0265 240.186 92.0808 240.272 92.1607 240.328C92.2406 240.385 92.3395 240.407 92.4358 240.39C94.8778 239.964 98.4358 241.908 99.8158 243.444C99.8521 243.486 99.8976 243.518 99.9486 243.539C99.9996 243.56 100.055 243.568 100.11 243.564Z" fill="#F5F5F5"/>
<path d="M132.798 260.232C133.032 263.676 133.59 265.956 134.826 267.966C136.062 269.976 138.372 270.582 140.694 269.964C143.016 269.346 145.98 267.726 146.61 264.75C147.24 261.774 147.618 259.722 147.054 256.536L132.798 260.232Z" fill="#263238"/>
<path d="M143.616 235.29C144.576 235.182 144.372 239.928 144.972 244.554C145.614 249.516 146.352 251.478 146.922 255.546C147.576 260.19 146.832 262.278 145.236 265.11C143.64 267.942 137.928 270.762 135.036 266.766C132.69 263.508 132.558 259.866 132.72 255.216C132.882 250.416 132.384 247.194 131.958 243.57C131.514 239.82 130.728 236.544 131.556 236.148C131.775 237.362 132.059 238.564 132.408 239.748C132.51 240.006 132.888 240.648 133.008 239.676C133.05 239.388 132.954 238.722 132.972 238.434C132.978 238.18 133.064 237.935 133.218 237.733C133.373 237.532 133.587 237.384 133.83 237.312C135.099 236.686 136.495 236.362 137.91 236.364C139.782 236.364 141.402 236.256 142.452 236.778C143.082 237.096 143.052 237.696 143.148 238.284C143.238 238.98 143.25 239.412 143.418 239.274C143.796 238.998 143.616 235.29 143.616 235.29Z" fill="#37474F"/>
<path d="M147.216 258.234C147.42 260.721 146.818 263.208 145.5 265.326C143.904 268.158 137.7 270.996 134.85 267C133.422 265.014 133.014 262.644 132.798 260.232C134.46 257.106 144.51 255.6 147.216 258.234Z" fill="#FAFAFA"/>
<path d="M134.838 255.144C134.878 255.143 134.917 255.132 134.952 255.114C134.994 255.114 139.41 253.2 143.736 254.16C143.829 254.178 143.925 254.159 144.005 254.108C144.084 254.056 144.141 253.976 144.162 253.884C144.182 253.791 144.164 253.694 144.112 253.614C144.06 253.534 143.979 253.478 143.886 253.458C139.308 252.45 134.808 254.388 134.64 254.472C134.598 254.492 134.56 254.521 134.528 254.557C134.497 254.592 134.473 254.633 134.458 254.678C134.443 254.723 134.437 254.77 134.44 254.817C134.444 254.864 134.457 254.91 134.478 254.952C134.51 255.018 134.562 255.072 134.627 255.106C134.692 255.141 134.766 255.154 134.838 255.144Z" fill="#F5F5F5"/>
<path d="M143.484 250.692C143.564 250.681 143.638 250.644 143.694 250.586C143.75 250.528 143.785 250.453 143.793 250.372C143.802 250.292 143.783 250.211 143.74 250.143C143.697 250.075 143.632 250.023 143.556 249.996C139.242 248.586 134.496 250.83 134.316 250.926C134.233 250.972 134.171 251.048 134.144 251.139C134.117 251.23 134.127 251.328 134.172 251.412C134.217 251.494 134.293 251.554 134.383 251.581C134.472 251.608 134.569 251.599 134.652 251.556C134.694 251.556 139.32 249.354 143.334 250.674C143.382 250.692 143.433 250.698 143.484 250.692Z" fill="#F5F5F5"/>
<path d="M143.298 247.422C143.365 247.415 143.428 247.389 143.481 247.348C143.534 247.307 143.575 247.251 143.598 247.188C143.629 247.098 143.622 247 143.581 246.914C143.539 246.829 143.466 246.763 143.376 246.732C138.63 245.082 134.13 247.53 133.962 247.638C133.913 247.658 133.87 247.688 133.834 247.727C133.798 247.765 133.771 247.811 133.755 247.861C133.739 247.911 133.735 247.964 133.741 248.016C133.748 248.069 133.766 248.119 133.794 248.163C133.822 248.208 133.859 248.245 133.903 248.274C133.947 248.302 133.997 248.321 134.049 248.328C134.101 248.335 134.154 248.331 134.205 248.315C134.255 248.3 134.301 248.273 134.34 248.238C134.376 248.238 138.726 245.868 143.142 247.398C143.192 247.417 143.245 247.426 143.298 247.422Z" fill="#F5F5F5"/>
<path d="M143.028 244.2C143.11 244.194 143.187 244.16 143.247 244.104C143.306 244.047 143.344 243.971 143.354 243.89C143.364 243.808 143.346 243.726 143.301 243.656C143.257 243.587 143.19 243.535 143.112 243.51C138.666 241.896 133.818 244.41 133.638 244.518C133.591 244.537 133.548 244.567 133.513 244.604C133.478 244.641 133.452 244.685 133.436 244.734C133.419 244.782 133.414 244.834 133.42 244.884C133.425 244.935 133.442 244.984 133.468 245.028C133.494 245.072 133.53 245.109 133.572 245.138C133.614 245.167 133.662 245.186 133.712 245.195C133.762 245.203 133.814 245.201 133.863 245.188C133.913 245.174 133.959 245.151 133.998 245.118C134.04 245.118 138.738 242.67 142.872 244.17C142.921 244.192 142.974 244.202 143.028 244.2Z" fill="#EBEBEB"/>
<path d="M137.598 117.666C138.576 127.398 138.912 129.792 139.59 151.41C140.256 172.41 140.262 175.452 140.376 177.978C140.646 183.774 143.976 186.09 144.222 199.758C144.462 212.28 144.03 227.616 144.03 227.616C144.03 227.616 141.744 229.728 136.986 229.986C134.406 230.141 131.829 229.629 129.504 228.498C129.504 228.498 123.138 200.43 121.14 191.802C118.788 181.65 114.966 163.968 114.966 163.968C114.966 163.968 113.046 179.742 112.326 184.824C111.642 189.672 113.304 191.562 112.26 202.416C111.426 211.074 108.96 225.54 108.96 225.54C106.767 226.688 104.325 227.275 101.85 227.25C96.4081 226.998 94.6921 225.132 94.6921 225.132C94.6921 225.132 91.6441 192.732 91.6201 180.384C91.6201 167.28 92.3881 135.384 93.7921 116.124L137.598 117.666Z" fill="#455A64"/>
<path d="M114.966 163.968L112.2 142.2C112.2 142.2 105.132 140.052 100.722 135.084C100.932 138.684 107.118 143.484 110.064 144.324L113.352 163.65L112.326 184.8L114.966 163.968Z" fill="#37474F"/>
<path d="M124.8 120.6C125.828 122.432 126.656 124.369 127.272 126.378C127.912 128.374 128.437 130.406 128.844 132.462C129.24 134.514 129.558 136.584 129.756 138.666C129.979 140.75 130.043 142.848 129.948 144.942C129.522 142.89 129.132 140.856 128.748 138.816C128.364 136.776 127.98 134.742 127.548 132.72C127.116 130.698 126.726 128.67 126.282 126.648C125.838 124.626 125.34 122.592 124.8 120.6Z" fill="#37474F"/>
<path d="M127.482 121.422C128.486 122.426 129.392 123.523 130.188 124.698C130.994 125.865 131.72 127.086 132.36 128.352C132.994 129.626 133.528 130.948 133.956 132.306C134.406 133.665 134.678 135.077 134.766 136.506L133.002 132.69C132.402 131.442 131.802 130.188 131.202 128.958C130.602 127.728 129.954 126.486 129.33 125.238C128.706 123.99 128.052 122.73 127.482 121.422Z" fill="#37474F"/>
<path d="M123.138 145.482C123.81 152.004 124.386 158.526 124.974 165.048C125.562 171.57 126.882 178.782 127.842 185.232C128.802 191.682 133.428 217.032 134.19 223.572C132.924 217.14 127.59 191.922 126.546 185.424C125.502 178.926 124.35 171.666 123.954 165.126C123.558 158.586 123.3 152.034 123.138 145.482Z" fill="#37474F"/>
<path d="M98.7541 145.2L98.0761 162.3C97.9861 165.15 97.8661 168 97.8001 170.844C97.7341 173.688 97.6321 176.544 97.7461 179.352C97.8601 182.16 98.6581 209.436 98.4061 215.148C97.5961 208.806 96.7501 185.148 96.4321 179.406C96.3181 173.634 96.6781 167.952 97.0321 162.246C97.3861 156.54 98.0041 150.864 98.7541 145.2Z" fill="#37474F"/>
<path d="M109.602 222.21L108.792 228.21C108.792 228.21 105.792 229.68 100.83 229.362C95.8677 229.044 94.6917 227.334 94.6917 227.334L94.1997 221.658C94.1997 221.658 96.0777 223.128 100.638 223.326C106.536 223.572 109.602 222.21 109.602 222.21Z" fill="#37474F"/>
<path d="M144.294 223.404L144.108 229.404C144.108 229.404 141.75 231.318 136.782 231.804C131.814 232.29 129.6 230.49 129.6 230.49L128.574 225.204C128.574 225.204 131.064 226.266 135.618 225.864C138.626 225.529 141.557 224.697 144.294 223.404Z" fill="#37474F"/>
<path d="M103.494 71.022C99.7799 70.938 93.8939 72.864 90.3299 80.472C86.1299 89.358 84.3899 92.472 80.1299 103.98L88.4459 107.13L96.1379 96.84L103.494 71.022Z" fill="#C8856A"/>
<path d="M96.1318 96.84L98.2978 88.866C95.9758 90.462 91.4398 93.582 89.7778 94.764C87.5038 96.384 83.9698 97.794 82.3618 101.142L92.0398 102.342L96.1318 96.84Z" fill="#AF6152"/>
<path d="M104.436 70.446C95.7778 71.412 93.4318 72.888 89.4658 80.91C86.8498 86.208 83.5918 94.872 83.5918 94.872C83.5918 94.872 85.2838 96.456 89.0638 97.482C93.8638 98.778 96.7138 97.56 96.7138 97.56L104.436 70.446Z" fill="#263238"/>
<path d="M137.61 72.9719C137.61 72.9719 140.838 78.0359 140.61 91.2359C140.502 97.4279 138.492 102.828 138.324 110.046C138.162 116.94 139.248 127.572 139.248 127.572C131.976 133.338 100.17 134.772 93.2397 125.484C93.2397 125.484 93.5338 114.564 93.9298 102.882C94.2238 94.1699 95.1297 87.4498 96.1497 83.3398C97.7997 76.7038 102.51 71.7899 104.448 70.4459C109.701 69.1989 115.118 68.7938 120.498 69.2459C127.296 69.9659 134.148 71.9999 137.61 72.9719Z" fill="#F5F5F5"/>
<path d="M116.357 69.054V69.654C117.714 69.6529 119.07 69.721 120.419 69.858C126.539 70.494 132.701 72.222 136.379 73.254L137.189 73.476C137.747 74.532 140.189 79.8 139.967 91.194C139.849 94.1021 139.494 96.9956 138.905 99.846C138.238 103.195 137.837 106.592 137.705 110.004C137.561 116.148 138.407 125.34 138.593 127.254C135.083 129.768 126.221 131.508 116.789 131.508C105.539 131.508 96.9895 129.168 93.8875 125.244C93.9295 123.624 94.2115 113.508 94.5715 102.876C94.8295 95.112 95.6335 88.038 96.7735 83.466C98.3275 77.226 102.725 72.444 104.717 71.004C108.545 70.1331 112.456 69.6805 116.381 69.654V69.054M116.381 69.054C112.369 69.082 108.371 69.5488 104.459 70.446C102.521 71.79 97.8115 76.704 96.1615 83.34C95.1415 87.45 94.2355 94.14 93.9415 102.882C93.5455 114.564 93.2515 125.484 93.2515 125.484C96.7915 130.224 106.841 132.168 116.789 132.168C126.293 132.168 135.707 130.368 139.259 127.572C139.259 127.572 138.173 116.94 138.335 110.046C138.503 102.846 140.513 97.446 140.621 91.236C140.861 78.036 137.621 72.972 137.621 72.972C134.159 72.012 127.307 69.972 120.497 69.258C119.126 69.1197 117.748 69.0516 116.369 69.054H116.381Z" fill="#E0E0E0"/>
<path d="M127.379 39.126C127.379 39.126 129.629 39.222 131.195 41.94C131.987 43.302 132.605 45.822 130.847 53.142C130.173 56.0001 129.068 58.7392 127.571 61.266C127.126 62.0855 126.386 62.7053 125.501 63L125.453 57.42L125.525 53.526C125.525 53.526 122.225 50.796 121.847 48.012C121.361 44.412 122.723 42.348 122.723 42.348L127.379 39.126Z" fill="#37474F"/>
<path d="M128.16 39.288C127.494 36.174 123.3 32.574 115.458 32.424C112.793 32.3404 110.154 32.9684 107.813 34.2434C105.472 35.5184 103.513 37.3943 102.138 39.678C100.038 43.416 103.338 46.446 103.338 46.446L122.934 44.796L128.16 39.288Z" fill="#37474F"/>
<path d="M130.715 58.878C127.811 60.378 126.383 58.14 126.383 58.14L125.957 71.43C120.557 79.038 105.419 75.63 111.413 69.876L111.485 66.708C110.683 66.7064 109.881 66.6503 109.085 66.54C107.753 66.4165 106.485 65.9084 105.436 65.0775C104.386 64.2467 103.601 63.1288 103.175 61.86C102.667 60.3612 102.361 58.8015 102.263 57.222C102.093 54.4586 102.217 51.6849 102.635 48.948C102.959 46.776 102.881 45.654 103.235 43.878C103.487 42.522 104.027 41.028 105.269 40.374C108.353 38.754 111.329 40.842 115.751 42.366C117.587 42.966 121.985 43.152 123.119 42.582C121.655 44.28 121.853 49.482 124.175 51.516C124.483 52.0542 124.89 52.5288 125.375 52.914C126.359 53.694 127.067 51.57 127.841 50.718C128.615 49.866 131.603 49.038 133.001 51.702C133.341 52.3194 133.551 52.9993 133.619 53.7005C133.687 54.4016 133.612 55.1092 133.398 55.7804C133.184 56.4516 132.836 57.0723 132.375 57.6048C131.914 58.1373 131.349 58.5705 130.715 58.878Z" fill="#C8856A"/>
<path d="M111.486 66.708C114.912 66.576 118.122 66.048 120.114 65.142C122.106 64.236 123.798 61.506 124.314 58.83C124.392 60.966 123.57 64.788 120.564 66.468C117.558 68.148 113.712 68.328 111.474 68.448L111.486 66.708Z" fill="#AF6152"/>
<path d="M118.464 46.398L115.608 45.102C115.44 45.4853 115.429 45.919 115.577 46.3103C115.725 46.7016 116.02 47.0195 116.4 47.196C116.587 47.2823 116.79 47.33 116.996 47.3365C117.203 47.3429 117.408 47.3079 117.6 47.2335C117.793 47.1591 117.969 47.0468 118.117 46.9033C118.265 46.7597 118.383 46.5879 118.464 46.398Z" fill="#37474F"/>
<path d="M107.808 44.544L104.874 45.708C104.945 45.9005 105.055 46.0767 105.196 46.2261C105.337 46.3755 105.506 46.4952 105.694 46.578C105.882 46.6608 106.085 46.705 106.29 46.7081C106.495 46.7112 106.699 46.6731 106.89 46.596C107.28 46.4417 107.595 46.1406 107.767 45.7571C107.938 45.3736 107.953 44.9382 107.808 44.544Z" fill="#37474F"/>
<path d="M117.342 49.866C117.348 50.1345 117.273 50.3986 117.129 50.6247C116.984 50.8507 116.775 51.0284 116.528 51.135C116.282 51.2416 116.009 51.2723 115.745 51.2232C115.481 51.1741 115.238 51.0473 115.046 50.8592C114.855 50.671 114.723 50.43 114.67 50.1669C114.616 49.9039 114.641 49.6307 114.744 49.3824C114.846 49.1341 115.02 48.9218 115.243 48.7728C115.466 48.6239 115.729 48.5449 115.998 48.546C116.173 48.5444 116.346 48.5773 116.508 48.6428C116.671 48.7083 116.818 48.8051 116.943 48.9276C117.068 49.0502 117.167 49.1962 117.236 49.3572C117.304 49.5182 117.34 49.6911 117.342 49.866Z" fill="#263238"/>
<path d="M107.91 49.47C107.916 49.7385 107.841 50.0026 107.696 50.2287C107.551 50.4547 107.342 50.6324 107.096 50.739C106.85 50.8456 106.577 50.8763 106.313 50.8272C106.049 50.7781 105.806 50.6513 105.614 50.4632C105.422 50.275 105.291 50.034 105.237 49.7709C105.184 49.5079 105.209 49.2347 105.311 48.9864C105.414 48.7381 105.588 48.5258 105.811 48.3768C106.034 48.2279 106.297 48.1489 106.566 48.15C106.741 48.1484 106.914 48.1813 107.076 48.2468C107.238 48.3123 107.386 48.4091 107.511 48.5317C107.636 48.6542 107.735 48.8002 107.804 48.9612C107.872 49.1222 107.908 49.2951 107.91 49.47Z" fill="#263238"/>
<path d="M112.44 47.73L111.666 55.746L107.304 54.336C108.495 51.7745 110.251 49.5161 112.44 47.73Z" fill="#AF6152"/>
<path d="M115.2 56.016C115.2 55.962 115.128 55.902 115.068 55.926C114.895 55.9996 114.75 56.1255 114.654 56.286C114.558 56.4133 114.456 56.5355 114.348 56.652C114.12 56.8956 113.852 57.0986 113.556 57.252C113.236 57.4181 112.892 57.5296 112.536 57.582C112.332 57.582 112.122 57.648 111.936 57.66C111.758 57.6519 111.581 57.668 111.408 57.708C111.282 57.756 111.408 57.954 111.468 57.99C111.673 58.0756 111.893 58.1204 112.116 58.122C112.339 58.1491 112.564 58.1491 112.788 58.122C113.219 58.0484 113.636 57.9066 114.024 57.702C114.34 57.5283 114.625 57.3009 114.864 57.03C114.988 56.894 115.095 56.7428 115.182 56.58C115.231 56.4947 115.258 56.3986 115.261 56.3002C115.264 56.2019 115.243 56.1043 115.2 56.016Z" fill="#AF6152"/>
<path d="M104.34 99.132C105.795 97.7833 107.568 96.8254 109.494 96.348C111.684 95.748 112.908 94.956 115.032 94.458C115.918 94.3023 116.781 94.0341 117.6 93.66C118.028 93.458 118.393 93.1426 118.656 92.748C118.859 92.3831 118.921 91.9558 118.83 91.548C119.336 91.4515 119.805 91.2168 120.186 90.87C120.516 90.5232 120.702 90.0646 120.708 89.586C120.704 89.4322 120.668 89.2809 120.603 89.1415C120.538 89.0021 120.445 88.8777 120.33 88.776C120.696 88.41 121.782 87.378 121.2 86.25C120.978 85.962 120.522 85.95 120.168 85.878C119.814 85.806 118.968 85.734 118.782 85.722C118.725 85.5831 118.639 85.4581 118.53 85.356C117.843 84.7594 116.983 84.3997 116.076 84.33C115.073 84.2743 114.068 84.3246 113.076 84.48C112.014 84.57 110.928 84.564 109.866 84.582C109.641 84.5943 109.416 84.5823 109.194 84.546C108.696 84.444 108.264 84.102 107.76 84.03C107.319 83.988 106.875 84.0062 106.44 84.084C105.486 84.255 104.61 84.7233 103.938 85.422C102.06 87.324 100.626 89.502 98.5377 91.218C96.7467 92.6357 94.8355 93.8945 92.8257 94.98C89.6697 96.78 83.5797 97.722 80.9517 102.18C79.1997 105.15 78.7857 109.686 80.5017 112.158C81.6357 113.778 87.3117 114.174 91.1337 111.702C95.6337 108.786 102.486 100.974 104.34 99.132Z" fill="#C8856A"/>
<path d="M109.104 86.208C112.252 85.6598 115.453 85.4786 118.644 85.668C115.466 85.0778 112.194 85.2631 109.104 86.208ZM109.32 88.752C112.92 88.308 116.664 87.894 120.186 88.8C118.506 88.032 116.586 88.008 114.786 88.002C112.939 88.0183 111.102 88.2704 109.32 88.752ZM116.892 90.552C114.087 90.3056 111.261 90.5823 108.558 91.368C111.3 90.8718 114.088 90.6706 116.874 90.768C117.696 90.768 119.028 90.906 118.812 92.046C118.885 91.816 118.872 91.5671 118.775 91.3461C118.677 91.1251 118.503 90.9473 118.284 90.846C117.838 90.6692 117.369 90.56 116.892 90.522V90.552Z" fill="#AF6152"/>
<path d="M137.676 73.302C142.11 74.58 147.312 77.892 146.034 86.736C144.834 95.052 140.07 113.46 138.276 118.056C136.236 123.276 134.076 125.13 131.328 125.772C128.928 126.324 126.246 124.8 124.224 123.408C118.452 119.412 114.624 111.318 110.478 102.846C108.543 98.8509 107.106 94.6333 106.2 90.288C106.027 89.2818 105.971 88.2591 106.032 87.24C106.104 86.276 106.337 85.331 106.722 84.444C106.79 84.3196 106.846 84.189 106.89 84.054C106.938 83.8273 106.956 83.5954 106.944 83.364C106.925 82.7868 107.119 82.2228 107.49 81.78C107.675 81.6066 107.876 81.45 108.09 81.312C108.158 81.2614 108.219 81.2007 108.27 81.132C108.414 80.922 108.33 80.634 108.354 80.382C108.403 80.1046 108.553 79.8549 108.774 79.6802C108.995 79.5055 109.272 79.4179 109.554 79.434C109.865 79.4711 110.164 79.5791 110.427 79.7497C110.69 79.9203 110.911 80.1489 111.072 80.418C111.098 80.4609 111.135 80.496 111.18 80.52C111.233 80.5319 111.288 80.5319 111.342 80.52C111.592 80.4818 111.848 80.4981 112.092 80.568C112.318 80.6384 112.523 80.7618 112.692 80.928C113.048 81.3587 113.276 81.8803 113.352 82.434C113.556 83.334 113.706 84.234 113.916 85.14C114.324 86.898 114.516 88.74 115.47 90.312C115.56 90.456 115.698 90.618 115.866 90.576C116.034 90.534 116.07 90.354 116.094 90.198C116.322 88.584 115.362 86.904 116.598 85.482C117.678 84.246 117.876 86.646 118.056 87.282C118.302 88.122 118.542 88.962 118.788 89.796C119.256 91.1649 119.528 92.5929 119.598 94.038C119.598 95.4 119.238 96.75 119.304 98.112C119.337 99.4619 119.881 100.749 120.828 101.712C124.584 105.432 126.294 106.902 126.294 106.902L129 93C129 93 129.348 85.02 132.456 78.684C134.508 74.514 137.676 73.302 137.676 73.302Z" fill="#C8856A"/>
<path d="M110.952 80.688C110.568 81.372 110.724 82.224 110.73 82.974C110.875 85.2829 111.292 87.5666 111.972 89.778C111.75 88.464 111.468 86.562 111.252 85.23C111.078 84.102 110.952 82.95 110.85 81.81C110.796 81.4331 110.831 81.049 110.952 80.688Z" fill="#AF6152"/>
<path d="M108.336 81.228C108.245 84.359 108.683 87.4828 109.632 90.468C108.948 87.468 108.768 84.27 108.336 81.228Z" fill="#AF6152"/>
<path d="M106.884 84.156C106.722 86.4955 107.003 88.8445 107.712 91.08C107.46 89.034 107.082 86.178 106.884 84.156Z" fill="#AF6152"/>
<path d="M124.2 123.408C117.726 118.578 114.558 110.778 111 103.788C109.223 100.227 107.815 96.4938 106.8 92.646C106.214 90.7487 105.997 88.757 106.158 86.778C106.317 85.7957 106.601 84.8379 107.004 83.928C107.004 82.908 107.13 81.96 108.09 81.402C108.208 81.3221 108.301 81.2104 108.358 81.0798C108.416 80.9492 108.435 80.8051 108.414 80.664C108.399 80.4936 108.426 80.3221 108.493 80.1645C108.559 80.0069 108.663 79.8679 108.796 79.7597C108.928 79.6515 109.085 79.5772 109.253 79.5435C109.42 79.5097 109.594 79.5175 109.758 79.566C110.275 79.7393 110.717 80.0871 111.006 80.55C111.039 80.5814 111.079 80.6047 111.123 80.6182C111.167 80.6317 111.213 80.6351 111.258 80.628C111.609 80.5651 111.971 80.6178 112.29 80.778C113.172 81.276 113.196 82.464 113.424 83.352C113.832 85.08 114.18 87.552 114.792 89.178C114.969 89.6547 115.207 90.1064 115.5 90.522C116.172 91.08 116.208 89.922 116.184 89.496C116.112 88.068 115.584 86.382 116.844 85.338C117.72 84.738 117.798 86.994 118.044 87.486L118.464 88.92C119.01 90.816 119.694 92.742 119.514 94.74C119.334 96.738 118.914 98.814 119.94 100.614C120.491 101.448 121.16 102.198 121.926 102.84C123.36 104.226 124.794 105.606 126.294 106.92C124.806 105.594 123.378 104.202 121.962 102.804C121.207 102.159 120.549 101.409 120.006 100.578C119.547 99.6954 119.322 98.7102 119.352 97.716C119.352 96.726 119.55 95.748 119.628 94.752C119.814 92.736 119.13 90.786 118.59 88.884L118.176 87.45C117.948 86.742 117.96 85.932 117.528 85.29C116.88 84.552 116.118 85.956 115.98 86.49C115.728 87.504 116.034 88.506 116.052 89.49C116.088 91.494 115.308 90 114.972 89.106C114.372 87.492 114.024 84.996 113.628 83.298C113.406 82.14 113.172 80.418 111.648 80.4C111.51 80.37 111.264 80.46 111.168 80.4C110.858 79.9051 110.381 79.537 109.824 79.362C109.629 79.3062 109.424 79.2983 109.226 79.339C109.028 79.3797 108.842 79.4678 108.686 79.5957C108.529 79.7237 108.405 79.8876 108.325 80.0737C108.246 80.2597 108.212 80.4622 108.228 80.664C108.249 80.7704 108.238 80.8808 108.195 80.9805C108.152 81.0801 108.08 81.1644 107.988 81.222C107.538 81.503 107.194 81.925 107.01 82.422C106.873 82.9077 106.812 83.4117 106.83 83.916C106.422 84.8257 106.14 85.7865 105.99 86.772C105.832 88.7764 106.058 90.7925 106.656 92.712C107.69 96.5674 109.115 100.307 110.91 103.872C114.51 110.856 117.714 118.656 124.242 123.426L124.2 123.408Z" fill="#AF6152"/>
<path d="M126.276 106.92C129.03 108.174 131.382 110.724 131.85 112.194C131.85 112.194 132.042 107.76 126.63 105.3L126.276 106.92Z" fill="#AF6152"/>
<path d="M137.538 72.852C144.396 74.652 146.538 78.036 146.502 83.304C146.502 90.6 143.124 103.338 141.888 107.742C134.724 110.4 126.6 104.064 126.6 104.064L128.508 93C128.508 93 129.462 75.978 137.538 72.852Z" fill="#263238"/>
<path d="M219 38.454C215.884 40.251 213.57 43.1695 212.532 46.614L212.148 48.192C211.544 51.6757 212.264 55.2595 214.167 58.2394C216.07 61.2193 219.019 63.3797 222.434 64.2962C225.848 65.2127 229.483 64.819 232.622 63.1925C235.762 61.566 238.179 58.8243 239.4 55.506L239.856 53.952C240.483 51.2641 240.311 48.4516 239.361 45.8601C238.411 43.2687 236.725 41.0112 234.509 39.365C232.294 37.7188 229.646 36.7556 226.891 36.5937C224.136 36.4319 221.393 37.0784 219 38.454Z" fill="white"/>
<path d="M218.4 37.404C215.253 39.2182 212.849 42.0869 211.612 45.5028C210.376 48.9187 210.387 52.6617 211.644 56.07L208.644 59.79C208.532 59.9306 208.466 60.1016 208.453 60.2807C208.439 60.4598 208.481 60.6388 208.571 60.7942C208.661 60.9496 208.795 61.0743 208.957 61.152C209.119 61.2298 209.301 61.2569 209.478 61.23L214.2 60.51C216.065 62.7733 218.537 64.4565 221.326 65.361C224.116 66.2655 227.105 66.3536 229.943 65.6151C232.781 64.8765 235.348 63.3421 237.343 61.1925C239.337 59.043 240.676 56.3681 241.2 53.4831C241.724 50.5981 241.413 47.6233 240.303 44.9094C239.192 42.1955 237.329 39.8556 234.933 38.1657C232.536 36.4757 229.707 35.5061 226.778 35.3712C223.848 35.2362 220.942 35.9415 218.4 37.404ZM238.356 43.674C240.154 46.799 240.689 50.4935 239.85 54L239.4 55.53C238.199 58.8814 235.78 61.6576 232.625 63.3062C229.469 64.9548 225.809 65.3549 222.372 64.4268C218.935 63.4987 215.973 61.3106 214.077 58.2978C212.18 55.285 211.487 51.6685 212.136 48.168L212.52 46.59C213.326 43.9452 214.888 41.594 217.013 39.8261C219.139 38.0583 221.736 36.9511 224.483 36.6411C227.23 36.3311 230.008 36.8318 232.475 38.0815C234.941 39.3312 236.987 41.2752 238.362 43.674H238.356Z" fill="#455A64"/>
<path d="M223.908 59.502C223.604 59.5028 223.302 59.4409 223.022 59.3202C222.742 59.1994 222.491 59.0223 222.282 58.8L217.242 53.4C217.012 53.1938 216.827 52.9417 216.699 52.6599C216.572 52.378 216.505 52.0727 216.503 51.7634C216.5 51.4542 216.562 51.1478 216.685 50.8639C216.808 50.5801 216.989 50.325 217.216 50.1151C217.443 49.9052 217.711 49.7451 218.004 49.645C218.297 49.5449 218.607 49.507 218.915 49.5338C219.223 49.5606 219.522 49.6515 219.793 49.8007C220.064 49.9499 220.301 50.154 220.488 50.4L223.764 53.892L231.504 44.082C231.683 43.8458 231.907 43.6477 232.164 43.4992C232.42 43.3508 232.703 43.255 232.997 43.2174C233.291 43.1799 233.589 43.2014 233.875 43.2807C234.16 43.36 234.427 43.4955 234.659 43.6791C234.892 43.8628 235.085 44.0911 235.228 44.3505C235.371 44.6099 235.461 44.8952 235.493 45.1898C235.524 45.4843 235.496 45.7822 235.411 46.0659C235.326 46.3496 235.185 46.6135 234.996 46.842L225.648 58.656C225.451 58.9079 225.201 59.114 224.916 59.26C224.631 59.4061 224.318 59.4886 223.998 59.502H223.908Z" fill="#8B80F8"/>
<path d="M83.7123 39.6721C86.8272 41.4709 89.14 44.3887 90.1803 47.8321L90.5643 49.4101C91.2057 52.9109 90.5057 56.525 88.6037 59.5333C86.7017 62.5416 83.7369 64.7237 80.2992 65.6455C76.8615 66.5673 73.2027 66.1613 70.0507 64.5082C66.8988 62.8552 64.4845 60.0762 63.2883 56.7241L62.8263 55.2001C62.1974 52.5085 62.3693 49.6919 63.3208 47.0968C64.2723 44.5018 65.9619 42.2416 68.1816 40.5945C70.4012 38.9475 73.0541 37.9854 75.8135 37.8269C78.573 37.6683 81.3186 38.3201 83.7123 39.7021V39.6721Z" fill="white"/>
<path d="M63.2942 44.292C61.3808 47.6346 60.7913 51.5735 61.6424 55.3298C62.4935 59.0861 64.7231 62.3863 67.8904 64.5778C71.0577 66.7692 74.932 67.6924 78.7472 67.1647C82.5623 66.637 86.0406 64.6969 88.4942 61.728L93.2162 62.448C93.3942 62.4768 93.5767 62.4507 93.7395 62.3731C93.9023 62.2956 94.0377 62.1703 94.1276 62.014C94.2174 61.8577 94.2576 61.6777 94.2427 61.498C94.2278 61.3183 94.1586 61.1474 94.0442 61.008L91.0442 57.288C92.3808 53.6717 92.3102 49.6852 90.8464 46.1184C89.3826 42.5516 86.6324 39.6648 83.1408 38.0299C79.6491 36.395 75.6707 36.1314 71.9938 37.2912C68.3169 38.451 65.2098 40.9496 63.2882 44.292H63.2942ZM83.6942 39.66C86.8124 41.4523 89.1299 44.3663 90.1742 47.808L90.5582 49.386C91.2072 52.8865 90.5145 56.503 88.6178 59.5158C86.7211 62.5286 83.7595 64.7168 80.3225 65.6448C76.8855 66.5729 73.225 66.1729 70.0696 64.5243C66.9143 62.8757 64.4953 60.0994 63.2942 56.748L62.8382 55.2C62.2007 52.5091 62.3649 49.6904 63.3103 47.0917C64.2558 44.4929 65.9412 42.2277 68.1587 40.5754C70.3762 38.9231 73.0289 37.956 75.7895 37.7933C78.5501 37.6307 81.298 38.2796 83.6942 39.66Z" fill="#455A64"/>
<path d="M74.4723 60.7201C74.1685 60.7204 73.8679 60.6583 73.5892 60.5375C73.3106 60.4168 73.0597 60.2399 72.8522 60.0181L67.8122 54.6181C67.5935 54.409 67.4198 54.1575 67.3018 53.8788C67.1838 53.6002 67.124 53.3004 67.126 52.9979C67.1281 52.6953 67.192 52.3963 67.3138 52.1194C67.4356 51.8424 67.6127 51.5932 67.8343 51.3872C68.0559 51.1812 68.3173 51.0226 68.6024 50.9213C68.8875 50.8199 69.1903 50.7779 69.4922 50.7979C69.7942 50.8178 70.0888 50.8992 70.3581 51.0372C70.6274 51.1751 70.8657 51.3667 71.0583 51.6001L74.3343 55.0921L82.0742 45.2821C82.253 45.0459 82.4772 44.8477 82.7335 44.6993C82.9899 44.5508 83.2733 44.455 83.5671 44.4175C83.861 44.38 84.1594 44.4015 84.4448 44.4808C84.7302 44.5601 84.997 44.6955 85.2294 44.8792C85.4618 45.0629 85.6552 45.2911 85.7983 45.5505C85.9413 45.8099 86.0312 46.0953 86.0625 46.3898C86.0939 46.6844 86.0662 46.9823 85.981 47.266C85.8957 47.5497 85.7548 47.8135 85.5663 48.0421L76.2003 59.8741C76.0022 60.1254 75.7523 60.331 75.4675 60.477C75.1828 60.623 74.8699 60.7059 74.5503 60.7201H74.4723Z" fill="#8B80F8"/>
</svg>
