<svg xmlns="http://www.w3.org/2000/svg" width="150.501" height="321.204" viewBox="0 0 150.501 321.204">
  <g id="undraw_hot_beverage_re_9mpe" transform="translate(0 0)">
    <g id="Group_32" data-name="Group 32" transform="translate(51.885 286.409)">
      <path id="Path_240" data-name="Path 240" d="M112.878,512.6h-5.851l-2.783-22.568h8.636Z" transform="translate(-95.201 -490.029)" fill="#a0616a"/>
      <path id="Path_241" data-name="Path 241" d="M88.789,534.83a2.489,2.489,0,0,0,2.473,2.478h11.014l.341-.707,1.558-3.215.6,3.215.134.707h4.155l-.059-.712L107.9,523.311l-1.449-.089-6.261-.371-1.538-.094v3.967c-1.167,1.241-10.327,5.935-9.862,8.106Z" transform="translate(-88.772 -503.628)" fill="#2f2e41"/>
    </g>
    <g id="Group_33" data-name="Group 33" transform="translate(88.498 286.409)">
      <path id="Path_242" data-name="Path 242" d="M155.894,512.6h5.851l2.783-22.568h-8.636Z" transform="translate(-153.276 -490.029)" fill="#a0616a"/>
      <path id="Path_243" data-name="Path 243" d="M161.832,526.724v-3.967l-1.538.094-6.261.371-1.449.089L151.475,536.6l-.059.712h4.155l.134-.707.6-3.215,1.558,3.215.341.707h11.014a2.489,2.489,0,0,0,2.473-2.478c.465-2.171-8.695-6.865-9.862-8.106Z" transform="translate(-151.416 -503.629)" fill="#2f2e41"/>
    </g>
    <path id="Path_244" data-name="Path 244" d="M92.456,197.859l.883-9.392c11.014-16.687,7.381-31.134,6.692-45.191l39.744-1.169c.1,18.1-3.648,35.476,4.851,46.36l-39.335,16.763-12.835-7.371Z" transform="translate(-38.418 -59.05)" fill="#a0616a"/>
    <path id="Path_245" data-name="Path 245" d="M146.6,252.022l-7.437-28.16-.193-2.436c-.135.058-.27.113-.405.17l-.045-.17q-1.5.751-3.007,1.4a65.272,65.272,0,0,1-22.411,4.553,65.272,65.272,0,0,1-22.411-4.553q-1.506-.653-3.007-1.4l-.045.17c-.135-.058-.27-.112-.405-.17l-.193,2.436-7.437,28.16c-2.17,5.205,1.033,27.569,1.033,27.569l7.31,66.142,4.091,33.9,11.689-.584,2.439-111.1,4.927-2.711,4.269,2.711,7.115,111.1,11.689.584,4.091-33.9,7.31-66.142s3.2-22.364,1.033-27.569Z" transform="translate(-32.765 -92.009)" fill="#2f2e41"/>
    <path id="Path_246" data-name="Path 246" d="M140.337,145.555c-16.694,11.108-30.35,10.01-41.5-1.169,0,0-2.382.273-.314-2.2s-.232-1.624-.232-1.624-1.461-.3-.165-1.16-2.109-14.783-2.109-14.783l-1.688-11.834c-1.844-5.514-5.278-14.172-1.921-17.493l18.7-7.6,17.534-.584,18.7,8.767c5.35,2.723-1.177,13.827-3.357,19.428,0,0-2.948,27.892-3.3,27.319s-.5,1.076-.136,1.128,1.784.329-.094.775-.125,1.03-.125,1.03Z" transform="translate(-37.811 -36.196)" fill="#2f2e41"/>
    <path id="Path_247" data-name="Path 247" d="M202.59,496.807a1.326,1.326,0,0,0,.961-2.3l-.091-.361.036-.087a3.562,3.562,0,0,1,6.57.024c1.075,2.588,2.443,5.181,2.78,7.917a10.537,10.537,0,0,1-.185,3.624,42.246,42.246,0,0,0,3.843-17.546,40.776,40.776,0,0,0-.253-4.549q-.21-1.857-.581-3.688A42.736,42.736,0,0,0,207.2,461.73a11.374,11.374,0,0,1-4.73-4.908,8.676,8.676,0,0,1-.789-2.371,10.706,10.706,0,0,0,.695-3.692c.321-.487.9-.729,1.246-1.2,1.743-2.363,4.145-1.951,5.4,1.261,2.678,1.352,2.7,3.593,1.061,5.749-1.045,1.372-1.189,3.228-2.106,4.7.094.121.193.238.287.359a43.01,43.01,0,0,1,4.489,7.112,17.88,17.88,0,0,1,1.067-8.305c1.022-2.465,2.937-4.541,4.623-6.672a3.67,3.67,0,0,1,6.537,1.8l.01.094q-.376.212-.736.45a1.8,1.8,0,0,0,.725,3.274l.037.006a17.9,17.9,0,0,1-.472,2.677c2.164,8.367-2.507,11.415-9.177,11.552-.147.076-.291.151-.438.223a43.9,43.9,0,0,1,2.363,11.121,41.642,41.642,0,0,1-.03,6.723l.011-.079a11,11,0,0,1,3.756-6.353c2.891-2.375,6.974-3.249,10.093-5.158a2.065,2.065,0,0,1,3.163,2.009l-.013.083a12.094,12.094,0,0,0-1.355.653q-.376.212-.736.45a1.8,1.8,0,0,0,.725,3.274l.037.006.075.011a17.917,17.917,0,0,1-3.3,5.16c-1.353,7.3-7.163,8-13.379,5.87h0a43.889,43.889,0,0,1-2.948,8.607H202.854c-.038-.117-.072-.238-.106-.355a11.966,11.966,0,0,0,2.914-.174c-.781-.959-1.563-1.925-2.344-2.884a.652.652,0,0,1-.049-.057c-.4-.491-.8-.978-1.193-1.468h0a17.529,17.529,0,0,1,.514-4.465h0Z" transform="translate(-83.802 -186.176)" fill="#8b80f8"/>
    <path id="Path_248" data-name="Path 248" d="M39.045,498.807a1.326,1.326,0,0,1-.961-2.3l.091-.361-.036-.087a3.562,3.562,0,0,0-6.57.024c-1.075,2.588-2.443,5.181-2.78,7.917a10.538,10.538,0,0,0,.185,3.624,42.247,42.247,0,0,1-3.843-17.546,40.777,40.777,0,0,1,.253-4.549q.21-1.857.581-3.688A42.736,42.736,0,0,1,34.44,463.73a11.373,11.373,0,0,0,4.73-4.908,8.675,8.675,0,0,0,.789-2.371,10.706,10.706,0,0,1-.695-3.692c-.321-.487-.9-.729-1.246-1.2-1.743-2.363-4.145-1.951-5.4,1.261-2.678,1.352-2.7,3.593-1.061,5.749,1.045,1.372,1.189,3.228,2.106,4.7-.094.121-.193.238-.287.359a43.01,43.01,0,0,0-4.489,7.112,17.881,17.881,0,0,0-1.067-8.305c-1.022-2.465-2.937-4.541-4.623-6.672a3.67,3.67,0,0,0-6.537,1.8l-.01.094q.376.212.736.45a1.8,1.8,0,0,1-.725,3.274l-.037.006a17.9,17.9,0,0,0,.472,2.676c-2.164,8.367,2.507,11.415,9.177,11.552.147.075.291.151.438.223a43.9,43.9,0,0,0-2.363,11.121,41.639,41.639,0,0,0,.03,6.723l-.011-.079a11,11,0,0,0-3.756-6.353c-2.891-2.374-6.974-3.249-10.093-5.158A2.065,2.065,0,0,0,7.357,484.1l.013.083a12.078,12.078,0,0,1,1.355.653q.376.212.736.45a1.8,1.8,0,0,1-.725,3.274l-.037.006-.075.011a17.917,17.917,0,0,0,3.3,5.16c1.353,7.3,7.163,8,13.379,5.87h0a43.889,43.889,0,0,0,2.948,8.607H38.781c.038-.117.072-.238.106-.355a11.967,11.967,0,0,1-2.914-.174c.781-.959,1.563-1.925,2.344-2.884a.653.653,0,0,0,.049-.057c.4-.491.8-.978,1.193-1.469h0a17.528,17.528,0,0,0-.514-4.465h0Z" transform="translate(-3.047 -187.007)" fill="#8b80f8"/>
    <path id="Path_249" data-name="Path 249" d="M0,547.475a.693.693,0,0,0,.7.7H148.737a.7.7,0,1,0,0-1.391H.7A.694.694,0,0,0,0,547.475Z" transform="translate(0 -227.202)" fill="#ccc"/>
    <g id="Group_34" data-name="Group 34" transform="translate(94.955 60.049)">
      <path id="Path_250" data-name="Path 250" d="M193.742,214.83a6.02,6.02,0,0,0-.069-9.23l-5.436-54.743-10.582,2.995,7.224,52.859a6.052,6.052,0,0,0,8.863,8.119Z" transform="translate(-168.775 -122.734)" fill="#a0616a"/>
      <path id="Path_251" data-name="Path 251" d="M176.67,102.785s3.04-.933,3.7,5.772c.53,5.368,6.947,37.969,5.685,45.35a4.729,4.729,0,0,1,2.838,5.055l-15.539-.893c-2.216-2.743-2.329-5.892-1.132-6.59l-1.556-9.617-8.206-31.227,12-7.215,2.209-.636Z" transform="translate(-162.462 -102.74)" fill="#2f2e41"/>
    </g>
    <g id="Group_35" data-name="Group 35" transform="translate(85.898 68.938)">
      <path id="Path_252" data-name="Path 252" d="M160.962,148.077H174.4s5.845-1.169,3.507-26.3c-.474-5.092-20.627-5.111-20.457,0C158.04,139.31,160.962,148.077,160.962,148.077Z" transform="translate(-151.324 -117.949)" fill="#3f3d56"/>
      <path id="Path_253" data-name="Path 253" d="M154.965,133.706c-2.637.346-5.585,1.565-6.21,4.434-.6,2.759,2.189,4.348,4.58,4.3a15.259,15.259,0,0,0,5.335-1.47.882.882,0,0,1,1.078.612.9.9,0,0,1-.612,1.078c-3.305,1.353-7.258,2.534-10.357.047-2.857-2.292-2.085-6.528.568-8.639a11.115,11.115,0,0,1,5.619-2.112.881.881,0,0,1,.877.877.9.9,0,0,1-.877.877h0Z" transform="translate(-146.966 -123.766)" fill="#3f3d56"/>
    </g>
    <g id="Group_36" data-name="Group 36" transform="translate(46.377 64.537)">
      <path id="Path_254" data-name="Path 254" d="M95.776,119.231s-12.792-13.594-13.443-7.014c-.424,4.282-4.673,26.6-2.236,34.245a6.824,6.824,0,0,0,9.12,4.226l30.638-12.722-4.032-8.263L91.556,139.745l4.22-20.514Z" transform="translate(-79.348 -110.419)" fill="#a0616a"/>
      <circle id="Ellipse_67" data-name="Ellipse 67" cx="6.429" cy="6.429" r="6.429" transform="translate(34.547 14.658)" fill="#a0616a"/>
    </g>
    <path id="Path_255" data-name="Path 255" d="M87.548,110.419l-8.643,1.857L73.5,146.928s4.676,7.014,9.352,7.014a20.9,20.9,0,0,0,9.25-2.729l5.072.507-1.538-20.214-4.86,5.113,4.407-18.771-7.631-7.429Z" transform="translate(-30.54 -45.882)" fill="#2f2e41"/>
    <path id="Path_256" data-name="Path 256" d="M97.257,118.114,82.752,107.382l4.585-6.031a6.813,6.813,0,0,1,7.817-2.283l7.666,2.82-5.563,16.226Z" transform="translate(-34.386 -40.988)" fill="#2f2e41"/>
    <g id="Group_37" data-name="Group 37" transform="translate(51.727 0)">
      <path id="Path_257" data-name="Path 257" d="M119.079,54.654a41.4,41.4,0,0,1-4.552,1.439c-2.039.5-3.19.727-5.158-.037-.069-.027-.135-.053-.2-.079A20.906,20.906,0,0,1,96.448,37.021c-.01-.139-.01-.285-.01-.428a20.37,20.37,0,0,1,.1-2.057,20.8,20.8,0,0,1,.446-2.767l-.02,0a7.6,7.6,0,0,1-2-6.1,10.088,10.088,0,0,1,4.557-7.544,15.96,15.96,0,0,1,6.626-2.339,16.791,16.791,0,0,1,1.9-.111h5.98a25.837,25.837,0,0,1,3.754-.592h.01c12.036-1,21.527,6.981,20.642,16.689-.007.011-.016.021-.023.032-.256.417-.482.813-.682,1.191-.193.353-.357.692-.5,1.013-1.1,2.481,4.121,40.981,2.249,41.565-1.066.332-5.36-28.317-4.59-22.869.97,6.835-10.265-.093-15.81,1.957Z" transform="translate(-91.17 -6.23)" fill="#2f2e41"/>
      <circle id="Ellipse_68" data-name="Ellipse 68" cx="14.156" cy="14.156" r="14.156" transform="translate(13.912 17.444)" fill="#a0616a"/>
      <path id="Path_258" data-name="Path 258" d="M131.549,33.982c-.236.125-.469.239-.7.354s-.492.236-.741.348c-4.738,2.147-8.6,2.387-10.937-.7a13.11,13.11,0,0,0-1.079-4.715,7.576,7.576,0,0,1-1.249,4.715h-4.715c-4.856,3.223-7.347,6.183-3.977,16.763.22.7,1.725,25.389,2.154,27.288-7.351-2.82-13.691-32.756-13.852-40.645-.01-.128-.01-.262-.01-.393a17.235,17.235,0,0,1,.1-1.892,17.71,17.71,0,0,1,.446-2.544l-.02,0a6.644,6.644,0,0,1-2-5.613,16.189,16.189,0,0,1,4.5-4.033,28.706,28.706,0,0,1,4.924-1.849l.121-.029c.518-.141,1.049-.269,1.58-.38a29.674,29.674,0,0,1,3.315-.5c.082,0,.161-.01.233-.01a2.484,2.484,0,0,1,1.266.348s0,0,.01,0a2.5,2.5,0,0,1,1.216,2.125h5.252c.193,0,.387.007.58.016,7.315.292,13.193,3.42,13.57,10.61.016.249.023.492.023.741Z" transform="translate(-91.17 -8.369)" fill="#2f2e41"/>
      <circle id="Ellipse_69" data-name="Ellipse 69" cx="9.326" cy="9.326" r="9.326" transform="translate(0 7.53)" fill="#2f2e41"/>
      <path id="Path_259" data-name="Path 259" d="M113.3,12.543a9.216,9.216,0,0,1-11.288,6.822A9.326,9.326,0,0,1,95.186,8.077c1.233-5,7.3-3.559,11.288-6.822,5.638-4.616,8.251,4.49,6.822,11.288Z" transform="translate(-91.166 0)" fill="#2f2e41"/>
    </g>
  </g>
</svg>
