<svg xmlns="http://www.w3.org/2000/svg" width="268.905" height="263.508" viewBox="0 0 268.905 263.508">
  <g id="undraw_outdoor_party_oqh3" transform="translate(-0.01 -73.44)">
    <path id="Path_511" data-name="Path 511" d="M280.471,489.77H22.16V498.1H62.446v79.16l8.591-.428L70.778,498.1H227.686v79.16l8.122,2.139.21-81.3h44.452Z" transform="translate(-12.064 -266.76)" fill="#e6e6e6"/>
    <rect id="Rectangle_232" data-name="Rectangle 232" width="258.311" height="8.333" transform="translate(10.604 198.08)" fill="#e6e6e6"/>
    <rect id="Rectangle_233" data-name="Rectangle 233" width="258.311" height="8.333" transform="translate(10.604 177.249)" fill="#e6e6e6"/>
    <rect id="Rectangle_234" data-name="Rectangle 234" width="258.311" height="8.333" transform="translate(10.604 156.417)" fill="#e6e6e6"/>
    <path id="Path_512" data-name="Path 512" d="M280.471,489.77H22.16V498.1H62.446v79.16l8.591-.428L70.778,498.1H227.686v79.16l8.122,2.139.21-81.3h44.452Z" transform="translate(-12.064 -266.76)" fill="rgba(92,133,181,0.18)"/>
    <rect id="Rectangle_235" data-name="Rectangle 235" width="258.311" height="8.333" transform="translate(10.604 198.08)" fill="rgba(92,133,181,0.18)"/>
    <rect id="Rectangle_236" data-name="Rectangle 236" width="258.311" height="8.333" transform="translate(10.604 177.249)" fill="rgba(92,133,181,0.18)"/>
    <rect id="Rectangle_237" data-name="Rectangle 237" width="258.311" height="8.333" transform="translate(10.604 156.417)" fill="rgba(92,133,181,0.18)"/>
    <path id="Path_513" data-name="Path 513" d="M110.793,260.251l-33.747,7.723L62.788,241.082l28.856-11.266Z" transform="translate(-34.193 -125.173)" fill="#2f2e41"/>
    <rect id="Rectangle_238" data-name="Rectangle 238" width="96.707" height="3.696" transform="translate(98.651 153.927)" fill="#3f3d56"/>
    <path id="Path_514" data-name="Path 514" d="M617.763,363.734h-1.73a3.674,3.674,0,0,0,.5-1.848v-6.16a3.7,3.7,0,0,0-3.7-3.7h-1.447a3.682,3.682,0,0,0,.215-1.232v-6.16a3.7,3.7,0,0,0-3.7-3.7H566.022a3.7,3.7,0,0,0-3.7,3.7v6.16a3.682,3.682,0,0,0,.215,1.232h-1.447a3.7,3.7,0,0,0-3.7,3.7v6.16a3.673,3.673,0,0,0,.5,1.848h-1.73a3.7,3.7,0,0,0-3.7,3.7v6.16a3.7,3.7,0,0,0,3.7,3.7h61.6a3.7,3.7,0,0,0,3.7-3.7v-6.16a3.7,3.7,0,0,0-3.7-3.7Z" transform="translate(-439.652 -222.127)" fill="#0c385d"/>
    <path id="Path_515" data-name="Path 515" d="M623.635,339.657c0-1.531-10.48-2.772-23.407-2.772s-23.407,1.241-23.407,2.772c0,.76,2.588,1.449,6.776,1.95v2.516a.772.772,0,0,0,.77.77h.308a.772.772,0,0,0,.77-.77v-2.317c.965.093,2,.177,3.08.251v2.066a.772.772,0,0,0,.77.77h.308a.772.772,0,0,0,.77-.77v-1.952c2.825.156,5.955.246,9.256.256a.759.759,0,0,0-.016.156v2.772a.772.772,0,0,0,.77.77h.308a.772.772,0,0,0,.77-.77v-2.772a.769.769,0,0,0-.017-.158c2.838-.017,5.542-.095,8.024-.221v2.535a.772.772,0,0,0,.77.77h.308a.772.772,0,0,0,.77-.77V342.1c2.592-.165,4.887-.387,6.776-.651v2.06a.772.772,0,0,0,.77.77h.308a.772.772,0,0,0,.77-.77v-2.356C622.274,340.72,623.635,340.207,623.635,339.657Z" transform="translate(-452.915 -219.916)" fill="#edf192"/>
    <rect id="Rectangle_239" data-name="Rectangle 239" width="49.277" height="1.232" transform="translate(122.674 129.288)" fill="#3f3d56"/>
    <rect id="Rectangle_240" data-name="Rectangle 240" width="57.901" height="1.232" transform="translate(118.362 140.991)" fill="#3f3d56"/>
    <rect id="Rectangle_241" data-name="Rectangle 241" width="67.141" height="1.232" transform="translate(114.051 152.079)" fill="#3f3d56"/>
    <rect id="Rectangle_242" data-name="Rectangle 242" width="1.848" height="10.471" transform="translate(146.081 108.961)" fill="#edf192"/>
    <path id="Path_516" data-name="Path 516" d="M626.674,309.883c0,2.1-1.17,2.138-2.614,2.138s-3.813-.415-2.614-2.138c1.265-1.817,3.436-5.281,2.614-5.465C624.06,304.418,626.674,307.784,626.674,309.883Z" transform="translate(-477.042 -202.233)" fill="#f9a825"/>
    <path id="Path_517" data-name="Path 517" d="M626.97,316.669c0,.831-.463.846-1.035.846s-1.509-.164-1.034-.846c.5-.719,1.36-2.091,1.034-2.163A5.128,5.128,0,0,1,626.97,316.669Z" transform="translate(-479.032 -207.727)" fill="#ff6584" opacity="0.5"/>
    <rect id="Rectangle_243" data-name="Rectangle 243" width="1.848" height="10.471" transform="translate(156.552 109.577)" fill="#edf192"/>
    <path id="Path_518" data-name="Path 518" d="M649.671,311.236c0,2.1-1.17,2.138-2.614,2.138s-3.813-.415-2.614-2.138c1.265-1.817,3.436-5.281,2.614-5.465C647.057,305.771,649.671,309.137,649.671,311.236Z" transform="translate(-489.568 -202.97)" fill="#f9a825"/>
    <path id="Path_519" data-name="Path 519" d="M649.968,318.023c0,.831-.463.846-1.034.846s-1.509-.164-1.035-.846c.5-.719,1.36-2.091,1.035-2.163A5.125,5.125,0,0,1,649.968,318.023Z" transform="translate(-491.558 -208.464)" fill="#ff6584" opacity="0.5"/>
    <rect id="Rectangle_244" data-name="Rectangle 244" width="1.848" height="10.471" transform="translate(136.225 109.577)" fill="#edf192"/>
    <path id="Path_520" data-name="Path 520" d="M605.029,311.236c0,2.1-1.17,2.138-2.614,2.138s-3.813-.415-2.614-2.138c1.265-1.817,3.436-5.281,2.614-5.465C602.416,305.771,605.029,309.137,605.029,311.236Z" transform="translate(-465.253 -202.97)" fill="#f9a825"/>
    <path id="Path_521" data-name="Path 521" d="M605.326,318.023c0,.831-.463.846-1.035.846s-1.509-.164-1.034-.846c.5-.719,1.36-2.091,1.034-2.163A5.125,5.125,0,0,1,605.326,318.023Z" transform="translate(-467.243 -208.464)" fill="#ff6584" opacity="0.5"/>
    <path id="Path_522" data-name="Path 522" d="M812.883,342.634l-32.405-5.853c-2.265-8.992-5.386-18.493-.381-26.627,1.463-6.142,8.04-7.9,14.708-9.417a17.3,17.3,0,0,1,17.834,6.422,14.379,14.379,0,0,1,2.481,12.792C818.335,324.725,816.8,336.412,812.883,342.634Z" transform="translate(-562.172 -199.983)" fill="#2f2e41"/>
    <path id="Path_523" data-name="Path 523" d="M708.6,622.995l-14.108-9.644,18.552-64.692,19.571-32.337-36.251,22.051,1.89,43.064L679.99,590.7,675.1,537.281a17.455,17.455,0,0,1,8.71-16.738l29.878-17.106,2.362-24.569,32.969-5.061c12.746,16.436,19.517,31.519,13.664,43.745l-29.717,38.3Z" transform="translate(-506.407 -294.493)" fill="#2f2e41"/>
    <path id="Path_524" data-name="Path 524" d="M707.477,781.583s-2.52-5.074-5.141-3.462-9.578,8.9-9.578,8.9-12.8,3.661-3.966,7.258,12,2.858,12.164,2.152,2.084-2.486,2.084-2.486l3.36,1.546,5.276-.235s5.214-12.5,2.977-12.5S707.678,783.868,707.477,781.583Z" transform="translate(-512.208 -460.07)" fill="#2f2e41"/>
    <path id="Path_525" data-name="Path 525" d="M698.672,710.271s-5.627-.657-5.706,2.419,2.235,12.884,2.235,12.884-3.918,12.726,3.918,7.284,8.94-8.493,8.441-9.019-.947-3.1-.947-3.1l3.129-1.972,2.682-4.549s-7.627-11.188-8.849-9.315S700.7,711.349,698.672,710.271Z" transform="translate(-516.174 -420.246)" fill="#2f2e41"/>
    <circle id="Ellipse_49" data-name="Ellipse 49" cx="12.224" cy="12.224" r="12.224" transform="translate(217.676 104.723)" fill="#ffb9b9"/>
    <path id="Path_526" data-name="Path 526" d="M789,383.441l-29.98-.161c3.284-8.55,6.8-16.416,12.994-16.451,4.883-4.536,4.349-10.665,2.031-17.318L789.3,351.4c-.709,4.4.307,8.032,4.151,10.413C789.577,369.264,787.41,376.542,789,383.441Z" transform="translate(-552.151 -226.793)" fill="#ffb9b9"/>
    <path id="Path_527" data-name="Path 527" d="M798.432,433.827l-41.578,3.08-3.15-19.5c-8.683-8.292-7.638-16.645.38-25.041l2.927-10.821,6.4-1.965h0a6.731,6.731,0,0,0,7.04,10.248l2.345-.5a6.731,6.731,0,0,0,4.262-2.935l8.439-13.075,4.4.544a2.411,2.411,0,0,1,2.063,1.894l4.077,19.269C790.915,402.567,798.465,423.572,798.432,433.827Z" transform="translate(-545.943 -239.76)" fill="#575a89"/>
    <path id="Path_528" data-name="Path 528" d="M759.32,493.777l4.18,7.567a5.969,5.969,0,0,1-2.989,8.421h0a5.969,5.969,0,0,1-8.2-5.683l.2-8.089-8.663-31.035.915-21.423L753.836,445l-.191,19.85Z" transform="translate(-543.888 -278.005)" fill="#ffb9b9"/>
    <path id="Path_529" data-name="Path 529" d="M825.428,479.248l-3.909,7.711a5.969,5.969,0,0,0,3.286,8.31h0a5.969,5.969,0,0,0,8-5.971l-.488-8.076L839.87,449.9,838.2,428.522l-9.018,1.785.9,19.831Z" transform="translate(-585.842 -269.828)" fill="#ffb9b9"/>
    <path id="Path_530" data-name="Path 530" d="M754.3,417.112l-13.873-3.3,5.1-17.091a10.5,10.5,0,0,1,7.991-7.291l3.346-.673Z" transform="translate(-542.028 -248.166)" fill="#575a89"/>
    <path id="Path_531" data-name="Path 531" d="M831.228,404.59l.278-10.747,2.609-17.518a2.411,2.411,0,0,1,2.358-2.056h0a2.412,2.412,0,0,1,1.364.4l11.534,26.851C847.256,406.42,833.95,398.758,831.228,404.59Z" transform="translate(-591.482 -240.278)" fill="#575a89"/>
    <path id="Path_532" data-name="Path 532" d="M448.676,626.013l12.647-11.493-27.276-61.525-23.833-29.337,38.94,16.854,4.052,42.915,19.363,6.662-2.51-53.582a17.455,17.455,0,0,0-10.93-15.381l-31.947-12.833-5.72-24.01-33.352-.477c-10.364,18.033-14.995,33.9-7.516,45.208l34.7,33.845Z" transform="translate(-344.034 -299.938)" fill="#2f2e41"/>
    <path id="Path_533" data-name="Path 533" d="M538.628,773.658s1.8-5.373,4.616-4.136,10.711,7.5,10.711,7.5,13.185,1.865,4.927,6.643-11.488,4.481-11.752,3.8-2.406-2.176-2.406-2.176l-3.115,1.994-5.258.493s-6.884-11.661-4.668-11.97S538.743,775.948,538.628,773.658Z" transform="translate(-428.09 -455.457)" fill="#2f2e41"/>
    <path id="Path_534" data-name="Path 534" d="M550.084,700.721s5.483-1.425,5.984,1.611-.441,13.069-.441,13.069,5.632,12.066-2.878,7.753-10.023-7.182-9.6-7.772.511-3.2.511-3.2l-3.371-1.523-3.282-4.137s6.016-12.131,7.483-10.444S548.227,702.068,550.084,700.721Z" transform="translate(-431.229 -415.467)" fill="#2f2e41"/>
    <circle id="Ellipse_50" data-name="Ellipse 50" cx="12.224" cy="12.224" r="12.224" transform="translate(35.871 108.118)" fill="#ffb9b9"/>
    <path id="Path_535" data-name="Path 535" d="M398.37,390.094l29.673-4.284c-4.43-8.017-9-15.324-15.134-14.507-5.46-3.822-5.775-9.965-4.394-16.874l-14.852,3.97c1.307,4.259.8,8-2.679,10.885C395.847,376.131,398.994,383.042,398.37,390.094Z" transform="translate(-351.696 -229.472)" fill="#ffb9b9"/>
    <path id="Path_536" data-name="Path 536" d="M389.045,431.866c10.544,13.728,21.357,19.152,32.982-.472l.958-8.756c7.46-9.408,5.275-17.537-3.822-24.75l-4.388-10.316-6.612-1.066h0a6.731,6.731,0,0,1-5.563,11.119l-2.39-.169a6.73,6.73,0,0,1-4.625-2.321l-10.157-11.789-4.279,1.144a2.412,2.412,0,0,0-1.783,2.16L377.979,406.3C384.087,413.063,387.6,421.713,389.045,431.866Z" transform="translate(-344.613 -245.222)" fill="#0c385d"/>
    <path id="Path_537" data-name="Path 537" d="M344.425,435.831l-23.352-4.742,15.51-14.432-5.9-10.675L305.61,432.647a3.565,3.565,0,0,0,2.285,5.9l33.951,3.76,1.393,6.144a5.221,5.221,0,0,0,7.905,3.243h0a5.221,5.221,0,0,0,.919-8.047Z" transform="translate(-304.713 -257.551)" fill="#ffb9b9"/>
    <path id="Path_538" data-name="Path 538" d="M467.47,492.976l-3.1,8.071a5.969,5.969,0,0,0,4.119,7.93h0a5.969,5.969,0,0,0,7.343-6.757l-1.312-7.984,4.311-31.932-3.853-21.094-8.788,2.7,2.92,19.635Z" transform="translate(-391.451 -276.738)" fill="#ffb9b9"/>
    <path id="Path_539" data-name="Path 539" d="M456.662,418.9l13.286-5.182L462.543,397.5a10.5,10.5,0,0,0-8.918-6.122l-3.407-.207Z" transform="translate(-383.958 -249.482)" fill="#0c385d"/>
    <path id="Path_540" data-name="Path 540" d="M357.231,409.408l14.166-4.8L366.4,387.619a2.411,2.411,0,0,0-2.619-1.712h0a2.411,2.411,0,0,0-1.3.588l-14.471,12.838C350.786,403.892,353.733,404.006,357.231,409.408Z" transform="translate(-328.294 -246.606)" fill="#0c385d"/>
    <path id="Path_541" data-name="Path 541" d="M387.393,298.293s7.476,1.406,9.2,10.73a17.115,17.115,0,0,1,.146,4.761c-.173,1.795.078,5.585,3.975,10.049a97.7,97.7,0,0,1,7.1,9.112h0L400,335.024l-3.49-12.942a66.207,66.207,0,0,0-7.736-17.781l-.072-.115s-2.594,6.932-9.548,7.883l2.144-2.823s-8.129,4.7-12.735,6.135a3.026,3.026,0,0,0-.976,5.262l.1.077c3.388,2.573,10.3,8.712,7.568,14.651s.454,7.022.454,7.022l-5.871-2.234-2.687-1.151.272,1.987-13.118.275s-3.545-.022,2.752-9.484c0,0,1.519-3.548.272-6.258a14.4,14.4,0,0,1-1.454-6.6C356.272,309.39,360.29,289.983,387.393,298.293Z" transform="translate(-331.177 -197.796)" fill="#2f2e41"/>
    <path id="Path_542" data-name="Path 542" d="M785.938,310.2l11.293,7.186,1.027-2.053c6.818,4.926,5.354,17.525,2.053,31.825,0,0,11.93,4.377,13.346,0,2.52-7.79.513-26.179.513-26.179L810.063,310.2l-6.673-3.593-5.646-.513S792.611,303.526,785.938,310.2Z" transform="translate(-566.814 -202.88)" fill="#2f2e41"/>
    <path id="Path_555" data-name="Path 555" d="M819.877,286.823l-2.125-4.705-1.685-3.738-2.446-5.418-1.69-3.738-2.293-5.088a.517.517,0,0,0-.889-.089l-2.367,3.3-1.833,2.546-2.654,3.692-1.828,2.552-2.654,3.692-1.827,2.547-1.36,1.892a.478.478,0,0,0-.1.248.538.538,0,0,0,.041.262.512.512,0,0,0,.419.3l24.772,2.472a.484.484,0,0,0,.418-.154.384.384,0,0,0,.052-.057.538.538,0,0,0,.092-.249.477.477,0,0,0-.046-.263Z" transform="translate(-571.274 -180.127)" fill="#0c385d"/>
    <path id="Path_556" data-name="Path 556" d="M521.374,197.161,512.3,194.09l1.833-2.546,5.549,1.879Z" transform="translate(-279.027 -104.327)" fill="#e6e6e6"/>
    <path id="Path_557" data-name="Path 557" d="M520.145,213.779l-17.685-5.984,1.828-2.552,14.171,4.8Z" transform="translate(-273.667 -111.789)" fill="#e6e6e6"/>
    <path id="Path_558" data-name="Path 558" d="M821.524,306.52a.485.485,0,0,1-.418.154l-12.044-1.2L797.331,301.5l1.828-2.547Z" transform="translate(-573.019 -199.257)" fill="#e6e6e6"/>
    <circle id="Ellipse_60" data-name="Ellipse 60" cx="4.106" cy="4.106" r="4.106" transform="translate(234.041 77.558)" fill="#0c385d"/>
    <path id="Path_559" data-name="Path 559" d="M402.29,276.632l-2.582-4.471-2.048-3.552-2.972-5.148-2.053-3.552-2.787-4.835a.517.517,0,0,0-.893,0l-2.028,3.516-1.571,2.715-2.274,3.937-1.566,2.721-2.274,3.937-1.566,2.715-1.165,2.017a.478.478,0,0,0-.072.257.538.538,0,0,0,.067.257.512.512,0,0,0,.447.257h24.9a.484.484,0,0,0,.4-.2.381.381,0,0,0,.046-.062.537.537,0,0,0,.067-.257A.478.478,0,0,0,402.29,276.632Z" transform="translate(-343.775 -175.216)" fill="#0c385d"/>
    <path id="Path_560" data-name="Path 560" d="M100.642,187.973l-9.332-2.156,1.57-2.716,5.708,1.319Z" transform="translate(-49.728 -99.729)" fill="#e6e6e6"/>
    <path id="Path_561" data-name="Path 561" d="M101.069,204.631l-18.192-4.2,1.566-2.721,14.578,3.367Z" transform="translate(-45.135 -107.687)" fill="#e6e6e6"/>
    <path id="Path_562" data-name="Path 562" d="M403.73,297.641a.484.484,0,0,1-.4.2h-12.1l-12.068-2.787,1.566-2.715Z" transform="translate(-345.255 -195.651)" fill="#e6e6e6"/>
    <circle id="Ellipse_61" data-name="Ellipse 61" cx="4.106" cy="4.106" r="4.106" transform="translate(41.521 73.44)" fill="#0c385d"/>
  </g>
</svg>
