<svg xmlns="http://www.w3.org/2000/svg" width="20.788" height="19.049" viewBox="0 0 20.788 19.049">
  <g id="Group_45" data-name="Group 45" transform="translate(-5081.75 -265.75)">
    <g id="chat-bubble-single-svgrepo-com" transform="translate(5082 266)">
      <path id="Path_773" data-name="Path 773" d="M25.006,9.459a1.449,1.449,0,1,0,1.449,1.449A1.451,1.451,0,0,0,25.006,9.459Zm0,2.319a.869.869,0,1,1,.869-.869A.871.871,0,0,1,25.006,11.778Z" transform="translate(-9.902 -3.976)" fill="#717171" stroke="#707070" stroke-width="0.5"/>
      <path id="Path_774" data-name="Path 774" d="M17.449,9.459A1.449,1.449,0,1,0,18.9,10.908,1.451,1.451,0,0,0,17.449,9.459Zm0,2.319a.869.869,0,1,1,.869-.869A.871.871,0,0,1,17.449,11.778Z" transform="translate(-6.726 -3.976)" fill="#717171" stroke="#707070" stroke-width="0.5"/>
      <path id="Path_775" data-name="Path 775" d="M9.892,9.459a1.449,1.449,0,1,0,1.449,1.449A1.451,1.451,0,0,0,9.892,9.459Zm0,2.319a.869.869,0,1,1,.869-.869A.871.871,0,0,1,9.892,11.778Z" transform="translate(-3.549 -3.976)" fill="#717171" stroke="#707070" stroke-width="0.5"/>
      <path id="Path_776" data-name="Path 776" d="M19.418,0H.869A.871.871,0,0,0,0,.869V13.622a.871.871,0,0,0,.869.869H4.347a.29.29,0,0,1,.29.29v3.478a.29.29,0,0,0,.158.258.3.3,0,0,0,.132.032.287.287,0,0,0,.169-.054l5.5-3.949a.287.287,0,0,1,.169-.054h8.657a.871.871,0,0,0,.869-.869V.869A.871.871,0,0,0,19.418,0Zm.29,13.622a.29.29,0,0,1-.29.29H10.761a.871.871,0,0,0-.507.163L5.217,17.694V14.781a.871.871,0,0,0-.869-.869H.869a.29.29,0,0,1-.29-.29V.869A.29.29,0,0,1,.869.58H19.418a.29.29,0,0,1,.29.29Z" fill="#717171" stroke="#707070" stroke-width="0.5"/>
    </g>
  </g>
</svg>
