<svg xmlns="http://www.w3.org/2000/svg" width="46.899" height="57.662" viewBox="0 0 46.899 57.662">
  <g id="doctor-svgrepo-com_1_" data-name="doctor-svgrepo-com (1)" transform="translate(0 0)">
    <g id="Group_28" data-name="Group 28" transform="translate(0 0)">
      <g id="Group_11" data-name="Group 11" transform="translate(25.253 1.744)">
        <path id="Path_486" data-name="Path 486" d="M229.826,12.724,223.513,47l4.51.9C237.568,40.908,241.664,12.724,229.826,12.724Z" transform="translate(-223.513 -12.724)" fill="#80362d"/>
      </g>
      <g id="Group_12" data-name="Group 12" transform="translate(5.993)">
        <path id="Path_487" data-name="Path 487" d="M108.562,1.744c-1.578-.958-9.908-3.392-16.234,0-7.779,4.171-14.581,19.09-3.608,34.272.016.022,8.117-.9,8.117-.9Z" transform="translate(-82.988 0)" fill="#80362d"/>
      </g>
      <g id="Group_13" data-name="Group 13" transform="translate(15.332 29.703)">
        <path id="Path_488" data-name="Path 488" d="M165.608,218.821h-.049v-2.107H152.933v2.1c0,2.062-.009,4.3-1.8,5.658v20.2h16.234V224.445C165.614,223.086,165.608,220.865,165.608,218.821Z" transform="translate(-151.129 -216.714)" fill="#ffd7a3"/>
      </g>
      <g id="Group_14" data-name="Group 14" transform="translate(18.038 47.344)">
        <path id="Path_489" data-name="Path 489" d="M176.281,346.723a20.7,20.7,0,0,1-5.411-.7v9.723H183.5V345.424A19.667,19.667,0,0,1,176.281,346.723Z" transform="translate(-170.87 -345.424)" fill="#545465"/>
      </g>
      <g id="Group_15" data-name="Group 15" transform="translate(17.136 29.65)">
        <path id="Path_490" data-name="Path 490" d="M177.817,228.108a4.976,4.976,0,0,0,.9.161v-4.155c-1.749-1.359-1.755-3.581-1.755-5.625v-2.159l-9.969.052-2.706.9C166.093,219.315,171.617,226.417,177.817,228.108Z" transform="translate(-164.289 -216.331)" fill="#fdc88e"/>
      </g>
      <g id="Group_16" data-name="Group 16" transform="translate(10.823 8.057)">
        <path id="Path_491" data-name="Path 491" d="M143.481,68.706c0,7.223-7.183,16.234-12.627,16.234s-12.627-9.012-12.627-16.234,5.653-9.921,12.627-9.921S143.481,61.483,143.481,68.706Z" transform="translate(-118.228 -58.785)" fill="#ffe1b2"/>
      </g>
      <g id="Group_17" data-name="Group 17" transform="translate(8.029 3.548)">
        <path id="Path_492" data-name="Path 492" d="M115.067,25.884a18.505,18.505,0,0,0-3.5,1.068l-.111-.166-.507.4c-.748.284-1.3.5-1.3.5l.211.352c-3.423,2.7-11.233,8.867-11.936,9.569-.9.9,5.411,23.912,5.411,10.823,0-10.935,6.075-13.1,11.725-14.43a4.244,4.244,0,0,0,3.608-3.608C118.975,28.89,115.969,25.884,115.067,25.884Z" transform="translate(-97.843 -25.884)" fill="#80362d"/>
      </g>
      <g id="Group_18" data-name="Group 18" transform="translate(26.155 1.744)">
        <path id="Path_493" data-name="Path 493" d="M231.9,19.939c1.653,5.937,4.96,8.624,8.061,9.414,1.7.432.958-4.9.958-4.9s-2.405-6.163-2.706-6.313a60.491,60.491,0,0,1-2.706-5.411l-5.411,4.51Z" transform="translate(-230.093 -12.724)" fill="#80362d"/>
      </g>
      <g id="Group_19" data-name="Group 19" transform="translate(0 36.385)">
        <path id="Path_494" data-name="Path 494" d="M55.587,265.465c-.845,1.372-2.567,2.337-6.1,2.337h-.3a9.921,9.921,0,0,0-9.921,9.921v6.313a2.706,2.706,0,0,0,2.706,2.706H60.477Z" transform="translate(-39.264 -265.465)" fill="#e4ebf0"/>
      </g>
      <g id="Group_20" data-name="Group 20" transform="translate(25.686 36.385)">
        <path id="Path_495" data-name="Path 495" d="M231.561,265.465c.845,1.372,2.567,2.337,6.1,2.337h.3a9.921,9.921,0,0,1,9.921,9.921v6.313a2.706,2.706,0,0,1-2.706,2.706H226.671Z" transform="translate(-226.671 -265.465)" fill="#e4ebf0"/>
      </g>
      <g id="Group_21" data-name="Group 21" transform="translate(7.215 50.446)">
        <ellipse id="Ellipse_41" data-name="Ellipse 41" cx="2.706" cy="2.706" rx="2.706" ry="2.706" fill="#d0d7dc"/>
      </g>
      <g id="Group_22" data-name="Group 22" transform="translate(31.792 40.751)">
        <path id="Path_496" data-name="Path 496" d="M279.8,312.812l-1.115-.766a10.756,10.756,0,0,0,1.559-5.93c0-4.033-1.755-7.441-3.833-7.441s-3.833,3.407-3.833,7.441a10.755,10.755,0,0,0,1.559,5.93l-1.115.766a12.121,12.121,0,0,1-1.8-6.7c0-4.931,2.278-8.793,5.186-8.793s5.186,3.863,5.186,8.793A12.125,12.125,0,0,1,279.8,312.812Z" transform="translate(-271.222 -297.322)" fill="#d0d7dc"/>
      </g>
      <g id="Group_23" data-name="Group 23" transform="translate(33.37 54.956)">
        <ellipse id="Ellipse_42" data-name="Ellipse 42" cx="0.902" cy="0.902" rx="0.902" ry="0.902" transform="translate(0)" fill="#545465"/>
      </g>
      <g id="Group_24" data-name="Group 24" transform="translate(38.782 54.956)">
        <ellipse id="Ellipse_43" data-name="Ellipse 43" cx="0.902" cy="0.902" rx="0.902" ry="0.902" transform="translate(0)" fill="#545465"/>
      </g>
      <g id="Group_25" data-name="Group 25" transform="translate(9.244 36.241)">
        <path id="Path_497" data-name="Path 497" d="M107.388,280.2a.676.676,0,0,1-.676-.676c0-11.688,5.524-14.891,5.759-15.022a.676.676,0,0,1,.66,1.181c-.066.038-5.067,3.039-5.067,13.841A.676.676,0,0,1,107.388,280.2Z" transform="translate(-106.712 -264.419)" fill="#d0d7dc"/>
      </g>
      <g id="Group_26" data-name="Group 26" transform="translate(8.493 51.724)">
        <ellipse id="Ellipse_44" data-name="Ellipse 44" cx="1.428" cy="1.428" rx="1.428" ry="1.428" fill="#b2b9bf"/>
      </g>
      <g id="Group_27" data-name="Group 27" transform="translate(34.498 38.046)">
        <path id="Path_498" data-name="Path 498" d="M293.441,281.642a.677.677,0,0,1-.638-.452,5.175,5.175,0,0,0-1.554-2.376.676.676,0,0,1,.776-1.108,6.4,6.4,0,0,1,2.054,3.035.677.677,0,0,1-.638.9Z" transform="translate(-290.96 -277.583)" fill="#d0d7dc"/>
      </g>
    </g>
    <g id="Group_29" data-name="Group 29" transform="translate(32.468 17.978)">
      <path id="Path_499" data-name="Path 499" d="M278.42,131.252c1.476-.338,2.443.384,2.443,1.8,0,1.879-1.984,6.482-4.071,3.608S278.42,131.252,278.42,131.252Z" transform="translate(-276.156 -131.17)" fill="#ffe1b2"/>
    </g>
  </g>
</svg>
