<svg xmlns="http://www.w3.org/2000/svg" xmlns:xlink="http://www.w3.org/1999/xlink" width="15.892" height="21.717" viewBox="0 0 15.892 21.717">
  <defs>
    <clipPath id="clip-path">
      <rect id="Rectangle_308" data-name="Rectangle 308" width="15.892" height="21.717" transform="translate(0.095 0.011)" fill="#fff"/>
    </clipPath>
  </defs>
  <g id="file-contract-svgrepo-com" transform="translate(-0.095 -0.011)" clip-path="url(#clip-path)">
    <path id="Path_784" data-name="Path 784" d="M6.378,22.168a3.4,3.4,0,0,0-.37-.055c-.922-.038-1.845-.056-2.767-.11a15.044,15.044,0,0,1-1.582-.182A1.682,1.682,0,0,1,.52,20.313C.49,19.656.466,19,.459,18.34Q.4,13.63.359,8.921C.342,7.084.335,5.248.309,3.412A4.007,4.007,0,0,1,.467,1.84a3.206,3.206,0,0,1,.452-.812A1.006,1.006,0,0,1,1.711.687C2.419.666,3.127.662,3.833.61,6.21.433,8.586.575,10.963.592a1.6,1.6,0,0,1,.693.142,1.743,1.743,0,0,1,.586.435c.768.811,1.594,1.555,2.392,2.333.3.3.584.622.894.908a1.361,1.361,0,0,1,.415,1.037c.023,1.191.043,2.382.07,3.573.042,1.906.106,3.811.128,5.717.016,1.387-.018,2.774-.031,4.161,0,.477-.018.953-.015,1.43a1.618,1.618,0,0,1-1.61,1.723c-1.516.029-3.033.041-4.55.064a2.869,2.869,0,0,0-.37.052ZM10.764,1.637c-.239-.02-.427-.046-.616-.05Q7.74,1.545,5.331,1.51,4.27,1.494,3.209,1.486c-.366,0-.733-.015-1.1.008-.489.032-.664.191-.73.726a12.391,12.391,0,0,0-.076,1.463c0,.546.047,1.092.05,1.637q.016,2.649.015,5.3,0,4.5,0,9a2.156,2.156,0,0,0,.04.458c.134.61.445.885.946.9.708.018,1.415.079,2.123.077,2.542-.01,5.083-.04,7.625-.059.733-.006,1.466.013,2.2-.006.554-.014.813-.312.807-.914-.013-1.317-.039-2.633-.062-3.95-.007-.392-.02-.784-.034-1.177-.042-1.232-.106-2.464-.121-3.7-.02-1.626,0-3.252,0-4.878q0-.137-.02-.272c-.83,0-1.626.006-2.421,0a2.976,2.976,0,0,1-.713-.087c-.493-.13-.645-.337-.7-.9-.044-.488-.073-.977-.113-1.465C10.879,2.987,10.822,2.335,10.764,1.637Zm1.064.7-.072.028c.123.895.246,1.789.368,2.676a9.89,9.89,0,0,0,2.205-.184Z" transform="translate(-0.183 -0.447)" fill="#fff"/>
    <path id="Path_785" data-name="Path 785" d="M31.341,83.423l-3.869,0a3.041,3.041,0,0,1-.529-.04c-.284-.051-.411-.2-.394-.414.016-.2.145-.3.427-.311.253-.011.506,0,.758-.016,1.718-.072,3.435-.166,5.153-.215,1.061-.03,2.124,0,3.186.015.343,0,.535.239.408.511a.576.576,0,0,1-.341.287A4.779,4.779,0,0,1,35.1,83.4c-1.251.018-2.5.007-3.755.007Z" transform="translate(-23.474 -72.114)" fill="#fff"/>
    <path id="Path_786" data-name="Path 786" d="M26.823,103.037c-.069-.488.02-.617.422-.644.567-.038,1.135-.081,1.7-.083q3.412-.012,6.823,0a6.671,6.671,0,0,1,.754.069.312.312,0,0,1,.222.107.383.383,0,0,1,.095.247.369.369,0,0,1-.283.391,1.2,1.2,0,0,1-.373.053c-1.642-.015-3.284-.037-4.927-.053-1.175-.011-2.351-.012-3.526-.026C27.433,103.1,27.133,103.06,26.823,103.037Z" transform="translate(-23.698 -89.521)" fill="#fff"/>
    <path id="Path_787" data-name="Path 787" d="M27.859,120.442c-.09-.34-.073-.441.128-.516a1.436,1.436,0,0,1,.518-.091c1.567.019,3.135.035,4.7.078,1.238.034,2.476.1,3.713.16a1.636,1.636,0,0,1,.3.03.374.374,0,0,1,.236.142.46.46,0,0,1,0,.558.373.373,0,0,1-.237.14,1.5,1.5,0,0,1-.378.022c-.745-.032-1.49-.061-2.235-.107-1.287-.08-2.573-.179-3.86-.257-.681-.041-1.364-.051-2.046-.084C28.424,120.5,28.149,120.469,27.859,120.442Z" transform="translate(-24.591 -104.863)" fill="#fff"/>
    <path id="Path_788" data-name="Path 788" d="M91.01,140.01c-.251-.012-.5-.019-.754-.039a2.191,2.191,0,0,1-.332-.067.242.242,0,0,1-.161-.1.293.293,0,0,1-.05-.2.323.323,0,0,1,.071-.212.264.264,0,0,1,.184-.1c.2-.028.4-.046.6-.06.377-.026.753-.049,1.13-.066a1.484,1.484,0,0,1,.338.029.35.35,0,0,1,.323.343.412.412,0,0,1-.064.258.343.343,0,0,1-.2.148,3.265,3.265,0,0,1-.6.089c-.163.014-.326,0-.49,0Z" transform="translate(-79.524 -121.781)" fill="#fff"/>
    <path id="Path_789" data-name="Path 789" d="M22.533,66.537c.29,0,.58,0,.871,0a.393.393,0,0,1,.473.278.278.278,0,0,1-.008.207.249.249,0,0,1-.06.083.221.221,0,0,1-.085.048.978.978,0,0,1-.366.07c-.567-.02-1.134-.052-1.7-.084a1.231,1.231,0,0,1-.258-.059c-.124-.035-.225-.125-.182-.265a.513.513,0,0,1,.222-.239c.058-.037.148-.015.224-.015.29,0,.581,0,.871,0Z" transform="translate(-18.733 -58.217)" fill="#fff"/>
  </g>
</svg>
