<svg xmlns="http://www.w3.org/2000/svg" width="31" height="31" viewBox="0 0 31 31">
  <g id="Group_68" data-name="Group 68" transform="translate(6933 364)">
    <circle id="Ellipse_172" data-name="Ellipse 172" cx="15.5" cy="15.5" r="15.5" transform="translate(-6933 -364)" fill="#8b80f8"/>
    <g id="security-time-svgrepo-com" transform="translate(-6929.41 -359.998)">
      <path id="Path_855" data-name="Path 855" d="M10.49,2.23,5.5,4.1A3.472,3.472,0,0,0,3.41,7.12v7.43a4.862,4.862,0,0,0,1.73,3.44l4.3,3.21a4.551,4.551,0,0,0,5.14,0l4.3-3.21a4.862,4.862,0,0,0,1.73-3.44V7.12A3.472,3.472,0,0,0,18.52,4.1L13.53,2.23A5.085,5.085,0,0,0,10.49,2.23Z" fill="none" stroke="#fff" stroke-linecap="round" stroke-linejoin="round" stroke-width="1.5"/>
      <path id="Path_856" data-name="Path 856" d="M12,15.5a4,4,0,1,0-4-4A4,4,0,0,0,12,15.5Z" fill="none" stroke="#fff" stroke-linecap="round" stroke-linejoin="round" stroke-width="1.5"/>
      <path id="Path_857" data-name="Path 857" d="M12.25,10.25v.93a.99.99,0,0,1-.49.86L11,12.5" fill="none" stroke="#fff" stroke-linecap="round" stroke-linejoin="round" stroke-width="1.5"/>
    </g>
  </g>
</svg>
