<svg xmlns="http://www.w3.org/2000/svg" width="18.234" height="20.28" viewBox="0 0 18.234 20.28">
  <g id="security-safe-svgrepo-com_1_" data-name="security-safe-svgrepo-com (1)" transform="translate(-2.34 -1.24)">
    <path id="Path_2468" data-name="Path 2468" d="M19.814,10.56A10.815,10.815,0,0,1,11.931,20.7a1.84,1.84,0,0,1-.957,0A10.815,10.815,0,0,1,3.09,10.56V6.44a2.254,2.254,0,0,1,1.3-1.933l5.228-2.14a4.868,4.868,0,0,1,3.67,0l5.227,2.14a2.272,2.272,0,0,1,1.3,1.933Z" fill="none" stroke="#fff" stroke-linecap="round" stroke-linejoin="round" stroke-width="1.5"/>
    <path id="Path_2469" data-name="Path 2469" d="M11.877,12.254A1.877,1.877,0,1,0,10,10.377,1.877,1.877,0,0,0,11.877,12.254Z" transform="translate(-0.425 -0.399)" fill="none" stroke="#fff" stroke-linecap="round" stroke-linejoin="round" stroke-width="1.5"/>
    <path id="Path_2470" data-name="Path 2470" d="M12,12.5v2.816" transform="translate(-0.548 -0.645)" fill="none" stroke="#fff" stroke-linecap="round" stroke-linejoin="round" stroke-width="1.5"/>
  </g>
</svg>
