<svg xmlns="http://www.w3.org/2000/svg" width="14.004" height="9.695" viewBox="0 0 14.004 9.695">
  <g id="style_stroke" data-name="style=stroke" transform="translate(-2.25 -5.25)">
    <g id="menu-hotdog" transform="translate(2.25 5.25)">
      <path id="vector_Stroke_" data-name="vector (Stroke)" d="M4.25,5.789a.493.493,0,0,1,.428-.539H14.953a.493.493,0,0,1,.428.539.493.493,0,0,1-.428.539H4.678A.493.493,0,0,1,4.25,5.789Z" transform="translate(-2.814 -5.25)" fill-rule="evenodd"/>
      <path id="vector_Stroke__2" data-name="vector (Stroke)_2" d="M2.25,11.789a.539.539,0,0,1,.539-.539H15.715a.539.539,0,0,1,0,1.077H2.789A.539.539,0,0,1,2.25,11.789Z" transform="translate(-2.25 -6.941)" fill-rule="evenodd"/>
      <path id="vector_Stroke__3" data-name="vector (Stroke)_3" d="M4.25,17.789a.493.493,0,0,1,.428-.539H14.953a.553.553,0,0,1,0,1.077H4.678A.493.493,0,0,1,4.25,17.789Z" transform="translate(-2.814 -8.632)" fill-rule="evenodd"/>
    </g>
  </g>
</svg>
