<svg xmlns="http://www.w3.org/2000/svg" width="20" height="20" viewBox="0 0 20 20">
  <g id="Group_70" data-name="Group 70" transform="translate(-5.25 -306.25)">
    <path id="Path_863" data-name="Path 863" d="M16.334,2.75H7.665C4.644,2.75,2.75,4.889,2.75,7.916v8.168c0,3.027,1.885,5.166,4.915,5.166h8.668c3.031,0,4.917-2.139,4.917-5.166V7.916C21.25,4.889,19.364,2.75,16.334,2.75Z" transform="translate(3.25 304.25)" fill="none" stroke="#000" stroke-linecap="round" stroke-linejoin="round" stroke-width="1.5" fill-rule="evenodd" opacity="0.4"/>
    <path id="Path_864" data-name="Path 864" d="M10.692,12A1.852,1.852,0,1,1,8.84,10.148,1.852,1.852,0,0,1,10.692,12Z" transform="translate(3.25 304.25)" fill="none" stroke="#8b80f8" stroke-linecap="round" stroke-linejoin="round" stroke-width="1.5" fill-rule="evenodd"/>
    <path id="Path_865" data-name="Path 865" d="M10.692,12H17.01v1.852" transform="translate(3.25 304.25)" fill="none" stroke="#8b80f8" stroke-linecap="round" stroke-linejoin="round" stroke-width="1.5"/>
    <path id="Path_866" data-name="Path 866" d="M14.182,13.852V12" transform="translate(3.25 304.25)" fill="none" stroke="#8b80f8" stroke-linecap="round" stroke-linejoin="round" stroke-width="1.5"/>
  </g>
</svg>
