<svg xmlns="http://www.w3.org/2000/svg" width="15.883" height="15.883" viewBox="0 0 15.883 15.883">
  <g id="edit-svgrepo-com" transform="translate(-1.5 -1.249)">
    <path id="Path_860" data-name="Path 860" d="M8.614,2H7.144C3.47,2,2,3.47,2,7.144v4.409C2,15.228,3.47,16.7,7.144,16.7h4.409c3.675,0,5.144-1.47,5.144-5.144v-1.47" transform="translate(0 -0.067)" fill="none" stroke="#373737" stroke-linecap="round" stroke-linejoin="round" stroke-width="1"/>
    <path id="Path_861" data-name="Path 861" d="M13.657,2.683,7.865,8.474a1.993,1.993,0,0,0-.485.97l-.316,2.212a1.047,1.047,0,0,0,1.249,1.249l2.212-.316a2.058,2.058,0,0,0,.97-.485l5.791-5.791c1-1,1.47-2.161,0-3.63S14.656,1.684,13.657,2.683Z" transform="translate(-1.338 0)" fill="none" stroke="#8b80f8" stroke-linecap="round" stroke-linejoin="round" stroke-width="1"/>
    <path id="Path_862" data-name="Path 862" d="M14.91,4.15a5.251,5.251,0,0,0,3.63,3.63" transform="translate(-3.422 -0.637)" fill="none" stroke="#8b80f8" stroke-linecap="round" stroke-linejoin="round" stroke-width="1"/>
  </g>
</svg>
