<svg id="email_78364" xmlns="http://www.w3.org/2000/svg" width="67" height="67" viewBox="0 0 67 67">
  <circle id="Ellipse_174" data-name="Ellipse 174" cx="33.5" cy="33.5" r="33.5" fill="#34495e"/>
  <path id="Path_1194" data-name="Path 1194" d="M226.073,193.669a33.459,33.459,0,0,1-21.363,29.046l-21.529-21.53V181.8H214.2Z" transform="translate(-159.244 -158.041)" fill="#203549"/>
  <rect id="Rectangle_386" data-name="Rectangle 386" width="31.02" height="19.389" transform="translate(23.939 23.76)" fill="#f2f9ff"/>
  <path id="Path_1195" data-name="Path 1195" d="M183.186,182.884l1.164-1.068h-1.164Z" transform="translate(-159.248 -158.057)" fill="#0684ba"/>
  <path id="Path_1196" data-name="Path 1196" d="M184.547,184.571v-1.394h1.52l1.483-1.361h-1.6l-2.764,2.536v1.467Z" transform="translate(-159.248 -158.057)" fill="#ff8e31"/>
  <g id="Group_71" data-name="Group 71" transform="translate(23.938 23.759)">
    <path id="Path_1197" data-name="Path 1197" d="M217.5,183.177h1.6l1.483-1.361h-1.6Z" transform="translate(-213.018 -181.816)" fill="#0684ba"/>
    <path id="Path_1198" data-name="Path 1198" d="M184.547,215.623v-1.466l-1.361,1.248v1.467Z" transform="translate(-183.186 -209.931)" fill="#0684ba"/>
  </g>
  <g id="Group_72" data-name="Group 72" transform="translate(23.938 23.759)">
    <path id="Path_1199" data-name="Path 1199" d="M241.957,183.177h1.6l1.483-1.361h-1.6Z" transform="translate(-234.277 -181.816)" fill="#ff8e31"/>
    <path id="Path_1200" data-name="Path 1200" d="M184.547,238.06v-1.468l-1.361,1.249v1.468Z" transform="translate(-183.186 -229.434)" fill="#ff8e31"/>
  </g>
  <g id="Group_73" data-name="Group 73" transform="translate(23.938 23.759)">
    <path id="Path_1201" data-name="Path 1201" d="M184.547,260.55v-1.465l-1.361,1.248V261.8Z" transform="translate(-183.186 -248.988)" fill="#0684ba"/>
    <path id="Path_1202" data-name="Path 1202" d="M266.477,183.177h1.6l1.483-1.361h-1.6Z" transform="translate(-255.593 -181.816)" fill="#0684ba"/>
  </g>
  <g id="Group_74" data-name="Group 74" transform="translate(23.938 23.759)">
    <path id="Path_1203" data-name="Path 1203" d="M184.547,283.009v-1.47l-1.361,1.249v1.47Z" transform="translate(-183.186 -268.508)" fill="#ff8e31"/>
    <path id="Path_1204" data-name="Path 1204" d="M290.955,183.177h1.6l1.483-1.361h-1.6Z" transform="translate(-276.872 -181.816)" fill="#ff8e31"/>
  </g>
  <g id="Group_75" data-name="Group 75" transform="translate(23.938 23.759)">
    <path id="Path_1205" data-name="Path 1205" d="M315.456,183.177h1.6l1.483-1.361h-1.6Z" transform="translate(-298.171 -181.816)" fill="#0684ba"/>
    <path id="Path_1206" data-name="Path 1206" d="M184.547,305.474v-1.468l-1.361,1.248v1.468Z" transform="translate(-183.186 -288.039)" fill="#0684ba"/>
  </g>
  <g id="Group_76" data-name="Group 76" transform="translate(24.768 23.759)">
    <path id="Path_1207" data-name="Path 1207" d="M339.937,183.177h1.6l1.483-1.361h-1.6Z" transform="translate(-320.283 -181.816)" fill="#ff8e31"/>
    <path id="Path_1208" data-name="Path 1208" d="M192.618,319.772h-1.6l-1.484,1.361h1.6Z" transform="translate(-189.535 -301.744)" fill="#ff8e31"/>
  </g>
  <g id="Group_77" data-name="Group 77" transform="translate(27.971 23.759)">
    <path id="Path_1209" data-name="Path 1209" d="M217.135,319.772h-1.6l-1.484,1.361h1.6Z" transform="translate(-214.051 -301.744)" fill="#0684ba"/>
    <path id="Path_1210" data-name="Path 1210" d="M364.426,183.177h1.6l1.483-1.361h-1.6Z" transform="translate(-344.775 -181.816)" fill="#0684ba"/>
  </g>
  <g id="Group_78" data-name="Group 78" transform="translate(31.17 23.759)">
    <path id="Path_1211" data-name="Path 1211" d="M241.612,319.772h-1.6l-1.484,1.361h1.6Z" transform="translate(-238.529 -301.744)" fill="#ff8e31"/>
    <path id="Path_1212" data-name="Path 1212" d="M388.93,183.177h1.6l1.483-1.361h-1.6Z" transform="translate(-369.276 -181.816)" fill="#ff8e31"/>
  </g>
  <g id="Group_79" data-name="Group 79" transform="translate(34.37 24.264)">
    <path id="Path_1213" data-name="Path 1213" d="M266.1,319.772h-1.6l-1.484,1.361h1.6Z" transform="translate(-263.019 -302.249)" fill="#0684ba"/>
    <path id="Path_1214" data-name="Path 1214" d="M410.156,186.925v1.467l1.361-1.248v-1.467Z" transform="translate(-390.929 -185.677)" fill="#0684ba"/>
  </g>
  <g id="Group_80" data-name="Group 80" transform="translate(37.574 27.202)">
    <path id="Path_1215" data-name="Path 1215" d="M290.615,319.772h-1.6l-1.484,1.361h1.6Z" transform="translate(-287.533 -305.187)" fill="#ff8e31"/>
    <path id="Path_1216" data-name="Path 1216" d="M410.156,209.408v1.464l1.361-1.248V208.16Z" transform="translate(-394.132 -208.16)" fill="#ff8e31"/>
  </g>
  <g id="Group_81" data-name="Group 81" transform="translate(40.775 30.137)">
    <path id="Path_1217" data-name="Path 1217" d="M315.108,319.772h-1.6l-1.484,1.361h1.6Z" transform="translate(-312.028 -308.123)" fill="#0684ba"/>
    <path id="Path_1218" data-name="Path 1218" d="M410.156,231.873v1.465l1.361-1.248v-1.465Z" transform="translate(-397.333 -230.625)" fill="#0684ba"/>
  </g>
  <g id="Group_82" data-name="Group 82" transform="translate(43.971 33.07)">
    <path id="Path_1219" data-name="Path 1219" d="M410.156,254.315v1.47l1.361-1.248v-1.47Z" transform="translate(-400.529 -253.067)" fill="#ff8e31"/>
    <path id="Path_1220" data-name="Path 1220" d="M339.575,319.772h-1.6l-1.484,1.361h1.6Z" transform="translate(-336.489 -311.055)" fill="#ff8e31"/>
  </g>
  <g id="Group_83" data-name="Group 83" transform="translate(47.176 36.011)">
    <path id="Path_1221" data-name="Path 1221" d="M410.156,276.822v1.466l1.361-1.248v-1.466Z" transform="translate(-403.735 -275.574)" fill="#0684ba"/>
    <path id="Path_1222" data-name="Path 1222" d="M364.1,319.772h-1.6l-1.484,1.361h1.6Z" transform="translate(-361.016 -313.996)" fill="#0684ba"/>
  </g>
  <g id="Group_84" data-name="Group 84" transform="translate(50.376 38.945)">
    <path id="Path_1223" data-name="Path 1223" d="M388.584,319.772h-1.6l-1.484,1.361h1.6Z" transform="translate(-385.501 -316.93)" fill="#ff8e31"/>
    <path id="Path_1224" data-name="Path 1224" d="M411.517,298.027l-1.361,1.248v1.466l1.361-1.248Z" transform="translate(-406.934 -298.027)" fill="#ff8e31"/>
  </g>
  <path id="Path_1225" data-name="Path 1225" d="M411.384,320.5,410,321.767h1.38Z" transform="translate(-356.426 -278.619)" fill="#0684ba"/>
  <rect id="Rectangle_387" data-name="Rectangle 387" width="10.408" height="6.21" transform="translate(26.627 26.293)" fill="#fff"/>
  <rect id="Rectangle_388" data-name="Rectangle 388" width="9.243" height="5.037" transform="translate(27.21 26.88)" fill="#0684ba"/>
  <g id="Group_85" data-name="Group 85" transform="translate(42.703 37.801)">
    <rect id="Rectangle_389" data-name="Rectangle 389" width="8.821" height="0.314" fill="#b8d1e6"/>
    <rect id="Rectangle_390" data-name="Rectangle 390" width="8.821" height="0.314" transform="translate(0 1.044)" fill="#b8d1e6"/>
    <rect id="Rectangle_391" data-name="Rectangle 391" width="4.411" height="0.317" transform="translate(0 2.086)" fill="#b8d1e6"/>
  </g>
  <g id="Group_86" data-name="Group 86" transform="translate(11.948 27.365)">
    <rect id="Rectangle_392" data-name="Rectangle 392" width="10.885" height="0.817" transform="translate(0 11.361)" fill="#fff"/>
    <rect id="Rectangle_393" data-name="Rectangle 393" width="5.443" height="0.817" transform="translate(5.441 5.681)" fill="#fff"/>
    <rect id="Rectangle_394" data-name="Rectangle 394" width="2.721" height="0.816" transform="translate(8.163)" fill="#fff"/>
  </g>
</svg>
