<svg width="248" height="286" viewBox="0 0 248 286" fill="none" xmlns="http://www.w3.org/2000/svg">
<path d="M9.72101 73.6412C12.2116 73.6412 74.3973 73.2081 91.9627 73.2081C93.1881 73.2081 91.6379 71.0822 90.9596 70.9283C88.7996 70.4553 86.5483 70.4325 84.3541 70.2045C82.197 69.9954 80.0836 69.4632 78.0848 68.6258C76.375 67.8963 74.631 67.0528 72.7616 66.7621C69.1425 66.1922 65.968 68.1527 62.5712 69.0418C60.4888 69.6461 58.248 69.3396 56.4044 68.1983C54.8314 67.2579 53.4066 66.1295 51.7652 65.2974C45.4167 62.1741 38.054 61.8375 31.447 64.3684C29.8905 64.973 28.4008 65.737 27.0015 66.6481C25.3429 67.7367 23.9181 69.1273 22.2539 70.1988C18.5493 72.5811 13.9955 71.7889 9.97178 73.1511C9.75521 73.2252 9.51013 73.6412 9.72101 73.6412Z" fill="#7B7B7B"/>
<path d="M184.651 28.1261C187.98 28.1261 243.999 28.4965 247.521 28.3825C247.772 28.3825 247.909 28.0064 247.658 27.881C245.435 26.781 242.922 27.0033 240.613 26.2225C239.257 25.7665 238.425 24.8774 237.479 23.863C236.701 22.9733 235.693 22.3147 234.566 21.9594C233.536 21.6464 232.441 21.6111 231.392 21.8568C230.252 22.1247 229.272 22.7744 228.183 23.1847C225.493 24.1992 222.877 23.236 220.956 21.247C219.372 19.6055 217.816 18.0553 215.662 17.1719C213.882 16.3685 211.849 16.3396 210.048 17.0921C207.996 18.0268 206.583 19.8962 204.656 21.0247C202.376 22.3583 199.629 22.0449 197.105 22.4495C194.58 22.8542 192.636 24.98 190.419 26.2054C189.696 26.6677 188.861 26.9257 188.003 26.952C187.507 26.952 187.022 26.8038 186.532 26.7468C185.769 26.6499 185.045 26.6727 184.532 27.3168C184.406 27.465 184.429 28.1261 184.651 28.1261Z" fill="#7B7B7B"/>
<path d="M0.37409 42.6252C3.28076 42.6252 52.13 42.9443 55.2019 42.8475C55.4185 42.8475 55.5382 42.5169 55.3216 42.4086C53.3838 41.4511 51.1896 41.6449 49.1777 40.9667C47.9922 40.5677 47.2684 39.7926 46.4477 38.9035C45.7642 38.133 44.8863 37.5602 43.9058 37.245C43.0058 36.9748 42.0508 36.9454 41.1359 37.1595C40.1791 37.4777 39.2443 37.8585 38.3375 38.2994C35.9894 39.1828 33.7096 38.3393 32.034 36.5896C30.6548 35.159 29.2983 33.8083 27.4175 33.0332C25.856 32.3443 24.0783 32.336 22.5104 33.0104C20.7208 33.8197 19.4897 35.4497 17.8084 36.43C15.8137 37.5698 13.4256 37.3191 11.2257 37.6724C9.02572 38.0258 7.33871 39.8838 5.41232 40.9553C4.78057 41.3574 4.0521 41.5819 3.30356 41.605C2.86363 41.568 2.42603 41.5071 1.99271 41.4226C1.37502 41.2652 0.720541 41.455 0.2829 41.9184C0.163214 42.0495 0.18601 42.6252 0.37409 42.6252Z" fill="#7B7B7B"/>
<path d="M190.374 205.712C193.275 205.712 242.124 206.037 245.196 205.94C245.418 205.94 245.532 205.61 245.315 205.502C243.378 204.538 241.183 204.732 239.172 204.054C237.992 203.655 237.262 202.88 236.442 201.996C235.762 201.221 234.883 200.647 233.9 200.338C233.002 200.069 232.049 200.037 231.135 200.247C230.18 200.567 229.245 200.948 228.337 201.387C225.989 202.276 223.709 201.432 222.034 199.677C220.649 198.246 219.292 196.896 217.411 196.126C215.861 195.426 214.09 195.401 212.521 196.058C210.726 196.867 209.501 198.503 207.814 199.477C205.819 200.617 203.437 200.366 201.231 200.72C199.025 201.073 197.333 202.931 195.4 203.997C194.772 204.402 194.045 204.627 193.297 204.647C192.867 204.611 192.439 204.552 192.015 204.47C191.386 204.297 190.713 204.485 190.265 204.96C190.157 205.143 190.18 205.712 190.374 205.712Z" fill="#7B7B7B"/>
<path d="M3.22941 154.732C3.26931 154.857 61.8758 154.732 61.1406 154.732C60.7986 154.732 61.6478 154.224 61.323 154.065C59.4137 153.119 57.3334 153.09 55.2474 152.925C54.0212 152.87 52.8172 152.578 51.7024 152.064C50.5968 151.494 49.9071 150.48 49.1206 149.551C46.6655 146.64 42.8797 145.207 39.1126 145.761C34.9463 146.411 31.6635 149.585 27.4859 150.172C24.9782 150.52 22.6072 149.551 20.1565 149.209C18.2625 148.949 16.3352 149.303 14.6566 150.218C13.413 150.925 12.038 151.371 10.6158 151.529C9.47591 151.608 8.33604 151.477 7.16767 151.466C5.28436 151.501 3.4787 152.223 2.08955 153.495C1.90716 153.637 1.31443 154.732 3.22941 154.732Z" fill="#7B7B7B"/>
<path d="M210.618 209.172C210.31 215.151 215.821 220.377 214.539 226.344C214.499 226.509 214.459 226.675 214.413 226.846L214.311 227.188L214.26 227.33C214.26 227.34 214.26 227.349 214.26 227.359C214.265 227.383 214.282 227.402 214.305 227.41C214.327 227.41 214.345 227.396 214.351 227.376C214.425 227.199 214.482 227.017 214.539 226.84C214.677 226.409 214.778 225.966 214.841 225.518C215.366 222.88 215.327 220.16 214.727 217.539C214.043 214.147 213.177 210.859 212.555 207.434C212.481 207.012 212.481 205.342 211.797 205.564C210.948 205.861 210.658 208.482 210.618 209.172ZM210.914 208.283C210.965 207.947 211.398 205.701 211.957 205.94C212.293 206.077 212.333 207.776 212.384 208.015C212.584 208.944 212.778 209.862 212.954 210.785C213.382 212.728 213.815 214.666 214.237 216.61C214.797 218.96 215.02 221.378 214.898 223.791C214.619 218.559 210.019 213.709 210.914 208.283Z" fill="white"/>
<path d="M208.463 262.307L208.953 261.994C212.071 260.5 215.53 259.976 218.876 259.144C222.177 258.385 225.209 256.742 227.647 254.391C228.092 253.957 229.927 252.299 229.386 251.467C228.844 250.635 227.049 252.162 226.599 252.419C223.23 254.305 219.936 256.22 216.425 257.844C214.18 258.887 211.906 259.919 209.768 261.179C209.335 261.521 208.902 261.874 208.475 262.239C208.459 262.258 208.454 262.284 208.463 262.307ZM210.578 261.042C213.051 259.657 215.65 258.506 218.232 257.28C220.004 256.442 221.731 255.536 223.43 254.556C224.353 253.986 225.276 253.462 226.211 252.932C226.684 252.664 227.151 252.402 227.624 252.151C227.858 252.02 228.633 251.581 228.833 251.934C229.363 252.903 224.165 257.839 217.719 259.115C215.288 259.536 212.901 260.181 210.589 261.042H210.578Z" fill="white"/>
<path d="M215.992 253.73C215.975 253.747 215.975 253.775 215.992 253.792C216.288 253.484 216.562 253.171 216.887 252.869L216.317 253.513C216.665 253.177 216.995 252.835 217.314 252.487L217.793 251.917C219.876 249.914 222.105 248.068 224.461 246.394C225.628 245.583 226.645 244.574 227.465 243.414C228.981 241.242 231.329 236.13 230.885 235.355C230.44 234.58 229.482 236.215 229.22 236.569C227.117 239.418 225.407 242.559 223.145 245.323C221.623 247.175 220.079 249.016 218.534 250.863C218.146 251.239 217.765 251.621 217.394 252.003C216.955 252.595 216.477 253.165 215.992 253.73ZM230.537 235.583C230.936 235.748 230.332 237.122 230.172 237.486C229.412 239.253 228.564 240.98 227.63 242.661C226.633 244.428 225.208 245.591 223.572 246.742C222.225 247.696 220.935 248.727 219.708 249.831C221.241 248.121 222.752 246.349 224.171 244.531C225.311 243.02 226.359 241.402 227.397 239.8C227.915 238.997 228.434 238.199 228.981 237.418C229.129 237.201 230.223 235.418 230.582 235.566" fill="white"/>
<path d="M189.04 276.55C189.04 276.572 189.058 276.589 189.08 276.589C189.137 276.213 189.2 275.831 189.268 275.45C189.268 275.7 189.217 275.951 189.194 276.196C189.274 275.774 189.348 275.358 189.41 274.937C189.41 274.726 189.456 274.509 189.484 274.293C190.007 271.774 190.716 269.297 191.605 266.883C192.053 265.697 192.292 264.442 192.311 263.173C192.311 260.814 191.485 255.867 190.761 255.525C190.037 255.183 190.191 256.864 190.151 257.234C190.049 260.409 190.362 263.561 190.089 266.735C189.906 268.873 189.695 271.004 189.519 273.136C189.427 273.609 189.336 274.082 189.262 274.56C189.177 275.227 189.114 275.888 189.04 276.55ZM189.792 271.808C190.043 269.762 190.277 267.71 190.402 265.664C190.499 263.954 190.436 262.244 190.402 260.534C190.402 259.685 190.357 258.825 190.368 257.981C190.368 257.753 190.277 255.884 190.613 255.815C190.949 255.747 191.234 257.052 191.303 257.394C191.616 259.07 191.872 260.814 192.043 262.489C192.127 264.22 191.809 265.946 191.115 267.533C190.589 268.93 190.147 270.358 189.792 271.808Z" fill="white"/>
<path d="M221.674 207.228C221.514 207.563 221.375 207.908 221.258 208.26L221.207 208.505C221.196 208.557 221.214 208.612 221.254 208.647C221.294 208.683 221.35 208.694 221.401 208.676C221.416 208.616 221.435 208.557 221.458 208.499C221.509 208.368 221.56 208.237 221.617 208.106C221.754 207.781 221.902 207.468 222.062 207.154C222.636 206.029 223.309 204.957 224.074 203.951C225.39 202.196 226.775 200.486 228.029 198.679C228.656 197.773 233.478 190.791 231.58 190.13C231.226 189.999 230.879 190.484 230.685 190.7C230.041 191.422 229.469 192.205 228.975 193.037C227.767 194.929 226.627 196.873 225.556 198.845C224.057 201.54 222.76 204.342 221.674 207.228ZM225.128 200.019C226.046 198.275 227.026 196.559 228.046 194.889C228.542 194.069 229.038 193.236 229.579 192.444C229.847 192.051 231.204 190.279 231.574 190.512C232.144 190.854 230.828 193.613 230.434 194.354C229.984 195.197 229.494 196.023 228.987 196.833C227.955 198.463 226.815 200.024 225.647 201.552C224.61 202.914 223.367 204.35 222.41 205.912C223.213 203.902 224.12 201.934 225.128 200.019Z" fill="white"/>
<path d="M204.525 231.439C204.556 231.809 204.607 232.176 204.679 232.539C204.707 232.625 204.736 232.699 204.759 232.779C204.777 232.828 204.82 232.865 204.873 232.876C204.925 232.886 204.979 232.869 205.015 232.83C204.996 232.772 204.983 232.713 204.975 232.653C204.975 232.511 204.935 232.374 204.913 232.231C204.873 231.884 204.844 231.542 204.821 231.188C204.754 229.927 204.8 228.663 204.958 227.41C205.215 225.227 205.528 223.055 205.728 220.861C205.813 219.767 206.486 211.309 204.508 211.685C204.137 211.748 204.08 212.341 204.012 212.603C203.807 213.555 203.698 214.525 203.687 215.498C203.59 217.738 203.579 219.989 203.636 222.235C203.701 225.321 203.998 228.398 204.525 231.439ZM203.892 223.46C203.813 221.482 203.801 219.516 203.835 217.544C203.835 216.581 203.864 215.618 203.932 214.655C203.966 214.182 204.251 211.97 204.69 211.982C205.334 211.982 205.602 215.036 205.631 215.874C205.665 216.837 205.659 217.795 205.631 218.752C205.557 220.679 205.351 222.6 205.106 224.509C204.895 226.219 204.536 228.065 204.497 229.906C204.188 227.775 203.986 225.629 203.892 223.477V223.46Z" fill="white"/>
<path d="M49.1378 219.414C48.357 218.998 48.2658 220.605 48.2145 221.049C47.8897 224.041 48.0607 227.501 49.1378 230.316C50.3119 233.423 51.5259 236.517 51.9305 239.817L51.8963 240.154L51.9305 240.461C51.9302 240.494 51.9475 240.524 51.9758 240.541C52.004 240.557 52.039 240.557 52.0673 240.541C52.0673 240.473 52.0673 240.41 52.0673 240.347C52.1015 240.022 52.13 239.703 52.1471 239.384V239.316C52.212 237.021 52.1511 234.725 51.9647 232.437C51.8613 229.224 51.4084 226.033 50.614 222.919C50.403 222.169 50.1538 221.431 49.8674 220.707C49.7363 220.343 49.5197 219.624 49.1378 219.414ZM49.8902 221.243C50.168 222.013 50.4058 222.797 50.6026 223.591C51.2472 226.34 51.6288 229.143 51.7425 231.964C51.9603 234.398 52.0326 236.844 51.959 239.287C51.7228 237.409 51.2794 235.562 50.6368 233.782C50.1694 232.431 49.6109 231.12 49.1321 229.792C48.6455 228.276 48.3919 226.694 48.3798 225.102C48.2401 223.602 48.2687 222.092 48.4653 220.599C48.5223 220.303 48.7161 219.63 48.9612 219.624C49.4 219.624 49.7819 220.941 49.8674 221.243H49.8902Z" fill="white"/>
<path d="M34.2054 226.031C33.9415 225.946 33.6579 226.084 33.5614 226.344C33.447 226.681 33.4024 227.038 33.4303 227.393C33.3904 228.02 33.3505 228.635 33.3164 229.256C33.0656 233.554 32.4614 237.999 32.9003 242.297C33.2135 245.15 33.8699 247.955 34.8552 250.652C34.8552 250.743 34.8894 250.834 34.9122 250.92C35.0774 251.25 35.1344 251.313 35.0205 251.028C35.0205 250.794 35.0205 250.561 35.0205 250.327C35.0205 250.093 34.9065 249.7 34.8666 249.381C34.6461 247.175 34.7055 244.949 35.0432 242.758C35.6204 238.584 35.7941 234.364 35.5619 230.157C35.5121 229.214 35.3612 228.28 35.1116 227.37C34.9521 226.971 34.6899 226.167 34.2054 226.031ZM34.8324 227.279C34.9058 227.474 34.9649 227.674 35.0091 227.877C35.1108 228.309 35.187 228.747 35.237 229.188C35.3557 230.254 35.4204 231.325 35.4308 232.397C35.4293 236.208 35.1837 240.015 34.6956 243.795C34.4534 245.667 34.4362 247.562 34.6443 249.438C34.1862 247.921 33.8057 246.382 33.5044 244.827C32.735 240.837 33.1055 236.848 33.3334 232.858C33.3961 231.867 33.4531 230.869 33.5101 229.872L33.5956 228.384L33.6241 227.604C33.6241 227.102 33.5443 226.92 34.0402 226.669C34.6614 226.355 34.6329 226.743 34.8324 227.279Z" fill="white"/>
<path d="M45.3079 247.551C46.3611 249.272 47.2485 251.089 47.9581 252.977C49.3772 256.767 49.6679 261.406 51.4632 265.105C51.6 265.339 51.7368 265.59 51.8564 265.835C51.9077 265.925 51.9534 266.018 51.9932 266.114C51.9932 266.165 51.9419 266.205 51.9077 266.165C51.7938 266.011 51.6798 265.863 51.5601 265.715L51.3777 265.476C48.6933 262.056 45.5188 259.081 43.8545 254.978C42.8344 252.458 40.6002 245.386 42.2188 244.491C42.9255 244.092 44.6525 246.514 45.3079 247.551Z" fill="#EBEBEB"/>
<path d="M43.7975 248.247C43.4271 248.526 43.5981 249.329 43.638 249.671C43.7753 250.58 43.9849 251.475 44.2649 252.35C44.765 253.982 45.4156 255.564 46.2084 257.075C47.6592 260.024 49.3762 262.834 51.3378 265.47L51.5202 265.709C51.6399 265.858 51.7539 266.006 51.8678 266.16C51.902 266.2 51.9761 266.16 51.9533 266.108C51.9135 266.013 51.8678 265.919 51.8166 265.829C49.8845 262.734 48.6591 259.326 47.5192 255.85C47.2913 255.08 45.0913 247.295 43.7975 248.247ZM45.7239 251.205C45.9975 251.923 46.2483 252.652 46.4933 253.387C47.0633 255.097 47.6332 256.807 48.2031 258.517C48.8317 260.376 49.5935 262.187 50.4829 263.937C49.1699 262.004 47.9544 260.007 46.841 257.953C46.1067 256.597 45.4594 255.196 44.9032 253.758C44.606 252.977 44.3623 252.178 44.1737 251.364C44.0768 250.971 43.467 248.742 43.9001 248.452C44.4644 248.081 45.6099 250.891 45.7239 251.205Z" fill="white"/>
<path d="M60.3199 236.58C61.5111 237.566 61.5168 240 61.2432 241.339C60.7778 243.221 59.8402 244.953 58.5189 246.372C56.6951 248.503 54.5294 250.287 53.1501 252.749C51.7709 255.211 52.2154 254.459 51.4745 257.366C51.4745 257.423 51.4118 257.434 51.3605 257.4C51.2488 257.291 51.1904 257.139 51.201 256.984C51.1977 256.959 51.1977 256.934 51.201 256.91C51.503 252.293 53.076 248.389 55.39 244.371C56.7008 242.091 57.2423 239.43 58.6386 237.207C59.1516 236.392 59.5049 235.896 60.3199 236.58Z" fill="#7B7B7B"/>
<path d="M12.5137 231.417C11.9153 231.029 10.0459 229.393 9.17961 229.969C8.31331 230.545 10.1998 232.197 10.5589 232.556C11.8726 233.889 13.3117 235.091 14.8562 236.147C16.4178 237.167 18.139 237.709 19.8488 238.427C24.0549 240.137 27.9704 242.713 31.6123 245.414C31.6252 245.401 31.6324 245.384 31.6324 245.366C31.6324 245.348 31.6252 245.33 31.6123 245.317L31.5325 245.237C31.5369 245.226 31.5369 245.214 31.5325 245.203C25.685 239.994 19.0908 235.68 12.5137 231.417ZM31.2019 245.044C28.7065 243.145 26.0759 241.43 23.3311 239.914C20.1395 238.159 16.5432 237.332 13.6422 235.07C12.1737 234.01 10.8447 232.769 9.68686 231.377C9.54438 231.189 9.02004 230.562 9.22521 230.237C9.43038 229.912 10.1371 230.117 11.1231 230.721C11.9381 231.217 12.7303 231.77 13.5339 232.294C16.6914 234.363 19.8374 236.443 22.9094 238.638C25.759 240.667 28.5232 242.802 31.2019 245.044Z" fill="white"/>
<path d="M38.8391 262.324C37.437 262.278 36.0293 262.182 34.6329 262.21C33.0656 262.244 31.5211 262.58 29.9481 262.62C27.0015 262.683 24.0891 262.182 21.154 262.107C20.7721 262.107 20.0141 262.107 20.3333 262.677C20.47 262.934 20.9032 263.076 21.1369 263.179C21.8525 263.5 22.5942 263.759 23.3539 263.954C25.9708 264.702 28.7294 264.807 31.3957 264.262C34.405 263.527 37.249 262.375 40.3779 262.427C40.3891 262.407 40.3891 262.383 40.3779 262.364C39.8669 262.308 39.3522 262.295 38.8391 262.324ZM32.2962 263.8C29.0017 264.68 25.5186 264.549 22.2995 263.424C21.8271 263.261 21.3646 263.071 20.9146 262.854C20.641 262.706 20.2193 262.352 21.1369 262.284C21.3532 262.27 21.5702 262.27 21.7866 262.284C22.5503 262.318 23.3083 262.381 24.0663 262.444C25.6906 262.58 27.315 262.74 28.9507 262.763C30.3969 262.758 31.8408 262.648 33.2708 262.432C35.0151 262.262 36.7695 262.22 38.5199 262.307C36.4111 262.489 34.3366 263.23 32.2962 263.8Z" fill="white"/>
<path d="M21.4162 253.085C18.2611 250.861 14.9487 248.868 11.505 247.124C11.0661 246.89 9.79517 246.32 9.79517 247.238C9.79517 248.321 11.5791 249.244 12.2858 249.751C14.9701 251.689 17.8084 253.405 20.7721 254.881C24.0489 256.524 27.5718 257.621 31.202 258.129C31.2047 258.107 31.2047 258.084 31.202 258.061C25.2233 257.086 19.6836 254.419 14.6738 251.119C13.4599 250.321 12.2345 249.518 11.0946 248.623C10.9122 248.48 9.82936 247.483 10.1029 247.101C10.3765 246.719 11.7215 247.483 11.8925 247.574L14.2293 248.856C17.1291 250.499 19.939 252.295 22.6472 254.237C25.2034 256.086 28.1138 257.388 31.1963 258.061C31.2106 258.02 31.2106 257.976 31.1963 257.936C27.5259 257.098 24.4596 255.274 21.4162 253.085Z" fill="white"/>
<path d="M10.9065 212.529C9.76665 212.392 10.234 213.617 10.5304 214.239C11.3909 215.839 12.3463 217.386 13.3914 218.872C14.5313 220.582 15.6712 222.263 16.8111 223.928C19.011 227.079 21.8151 230.094 23.6503 233.491C23.682 233.5 23.7155 233.5 23.7472 233.491C23.7803 233.48 23.8086 233.458 23.827 233.428L23.5021 232.648C23.0804 231.616 22.6586 230.59 22.2425 229.559V229.513C20.2136 224.566 18.0934 219.682 14.4572 215.493C13.6365 214.495 12.3086 212.694 10.9065 212.529ZM15.0044 216.399C17.1469 219.069 18.9201 222.015 20.2763 225.159C21.3762 227.649 22.2938 230.208 23.3482 232.716C22.2084 230.761 20.7037 228.983 19.3587 227.136C17.2499 224.241 15.2171 221.291 13.2604 218.285C12.7873 217.567 12.3257 216.843 11.864 216.108C11.4594 215.464 10.6615 214.489 10.5133 213.726C10.2112 212.244 11.6531 213.008 12.1376 213.367C12.5483 213.694 12.9298 214.056 13.2775 214.45C13.8854 215.08 14.461 215.73 15.0044 216.399Z" fill="white"/>
<path d="M202.04 226.424C200.587 228.127 199.527 230.129 198.934 232.288C197.686 236.808 199.39 241.584 198.227 246.064C197.92 246.531 197.589 246.987 197.236 247.431C197.226 247.451 197.226 247.474 197.236 247.494C197.289 247.453 197.341 247.41 197.389 247.363C197.492 247.278 197.583 247.192 197.674 247.107C197.766 247.021 197.931 246.867 198.051 246.736C198.051 246.736 198.119 246.685 198.125 246.662C201.584 243.066 202.268 237.674 203.471 232.984C204.16 230.311 205.448 227.854 206.178 225.238C206.349 224.606 206.856 223.483 205.899 223.335C204.833 223.232 202.661 225.734 202.04 226.424Z" fill="#066331"/>
<path d="M201.066 230.362C198.512 235.4 201.265 242.023 197.874 246.685C197.777 246.816 197.674 246.941 197.572 247.067C197.469 247.192 197.429 247.243 197.355 247.329L197.264 247.431C197.255 247.451 197.255 247.474 197.264 247.494C197.282 247.502 197.303 247.502 197.321 247.494L197.686 247.101C197.972 246.782 198.229 246.439 198.455 246.075C199.923 243.992 200.933 241.622 201.419 239.122C202.126 235.936 202.639 232.767 203.419 229.57C203.516 229.171 204.149 227.729 203.477 227.66C202.61 227.603 201.368 229.78 201.066 230.362ZM201.636 229.706C201.807 229.439 203.043 227.666 203.437 228.082C203.67 228.327 203.055 229.792 203.009 230.037L202.439 232.659C202.057 234.494 201.693 236.335 201.299 238.176C200.902 240.414 200.192 242.586 199.191 244.627C200.9 239.994 198.831 234.055 201.664 229.706H201.636Z" fill="white"/>
<path d="M178.855 275.404C178.855 275.472 178.855 275.592 178.958 275.575C183.985 274.788 187.951 278.995 192.99 278.55C195.013 278.302 196.993 277.783 198.877 277.005C200.3 276.518 201.658 275.855 202.918 275.033C203.083 274.919 203.864 274.498 203.921 274.144C204.371 271.46 196.307 272.759 195.001 272.873C189.918 273.289 185.267 273.666 180.411 274.937C179.91 275.062 179.397 275.204 178.889 275.358C178.872 275.358 178.867 275.381 178.855 275.404Z" fill="#066331"/>
<path d="M178.855 275.404L179.425 275.324C182.685 275.227 185.877 276.099 189.114 276.646C192.247 277.259 195.488 277.009 198.49 275.922C199.059 275.717 201.259 274.993 201.111 274.065C200.98 273.232 198.831 273.768 198.341 273.819C194.711 274.156 191.137 274.549 187.478 274.606C185.142 274.646 182.782 274.669 180.457 274.936C179.955 275.062 179.442 275.204 178.935 275.358C178.872 275.358 178.867 275.381 178.855 275.404ZM181.163 275.125C183.831 274.88 186.521 274.874 189.217 274.805C191.063 274.76 192.906 274.64 194.745 274.446C195.754 274.332 196.763 274.213 197.771 274.11C198.279 274.059 198.78 274.013 199.287 273.973C199.538 273.973 200.382 273.865 200.427 274.253C200.513 275.296 194.158 277.564 188.082 276.196C185.814 275.625 183.498 275.266 181.163 275.125Z" fill="white"/>
<path d="M188.641 270.884C188.633 270.892 188.629 270.902 188.629 270.913C188.629 270.923 188.633 270.934 188.641 270.941C188.649 270.949 188.659 270.953 188.67 270.953C188.68 270.953 188.691 270.949 188.698 270.941L189.046 270.81C189.473 270.651 189.889 270.48 190.3 270.309L190.527 270.212H190.579C195.138 268.405 200.268 269.528 204.582 267.009C206.465 265.838 208.136 264.356 209.523 262.626C210.139 261.896 212.476 259.879 211.718 258.745C211.148 257.867 209.347 258.42 208.6 258.653C206.229 259.411 204.086 260.99 202.057 262.375C200.028 263.76 198.148 265.196 196.204 266.61C194.41 267.871 192.517 268.986 190.545 269.944L188.641 270.884Z" fill="#066331"/>
<path d="M188.641 270.884C188.633 270.892 188.629 270.902 188.629 270.913C188.629 270.923 188.633 270.934 188.641 270.941L189.781 270.485L189.063 270.833C189.49 270.673 189.906 270.502 190.317 270.331L190.944 270.035C193.509 269.102 196.139 268.361 198.814 267.818C200.132 267.567 201.396 267.087 202.547 266.399C204.69 265.105 208.674 261.589 208.583 260.745C208.492 259.902 207.044 260.956 206.679 261.161C203.767 262.831 201.094 264.871 198.085 266.387C196.056 267.408 194.021 268.405 191.981 269.408C191.502 269.579 191.029 269.767 190.562 269.978L188.641 270.884ZM208.178 260.779C208.458 261.076 207.409 262.027 207.135 262.278C205.802 263.512 204.408 264.678 202.958 265.772C201.444 266.812 199.71 267.487 197.891 267.744C196.349 268.047 194.826 268.443 193.332 268.929C195.315 268.017 197.321 267.088 199.213 266.08C200.803 265.225 202.302 264.222 203.813 263.23C204.565 262.734 205.317 262.244 206.092 261.777C206.298 261.651 207.933 260.529 208.184 260.796" fill="white"/>
<path d="M156.633 280.26C156.626 280.266 156.622 280.276 156.622 280.285C156.622 280.295 156.626 280.305 156.633 280.311C156.641 280.319 156.651 280.323 156.662 280.323C156.673 280.323 156.683 280.319 156.69 280.311L156.878 280.037C157.112 279.707 157.334 279.371 157.545 279.034L157.665 278.852H157.705C160.133 275.233 164.499 273.46 166.396 269.437C167.189 267.631 167.67 265.704 167.821 263.737C167.907 262.888 168.608 260.227 167.479 259.776C166.602 259.429 165.57 260.728 165.137 261.281C163.775 263.031 162.994 265.27 162.202 267.316C161.409 269.363 160.748 271.363 160.025 273.386C159.342 275.219 158.51 276.994 157.54 278.692C157.26 279.177 156.947 279.718 156.633 280.26Z" fill="#455A64"/>
<path d="M156.633 280.26C156.626 280.266 156.622 280.276 156.622 280.285C156.622 280.295 156.626 280.305 156.633 280.311C156.833 280.009 157.027 279.707 157.232 279.405L156.878 280.026C157.112 279.696 157.334 279.359 157.545 279.023L157.859 278.493C159.274 276.513 160.837 274.642 162.532 272.896C163.375 272.045 164.063 271.054 164.567 269.967C165.484 267.932 166.653 263.338 166.157 262.763C165.661 262.187 165.131 263.692 164.966 264.028C163.661 266.724 162.726 269.573 161.273 272.207C160.298 273.979 159.301 275.74 158.309 277.507C158.041 277.877 157.785 278.248 157.54 278.647C157.26 279.177 156.947 279.718 156.633 280.26ZM159.096 276.458C160.099 274.788 161.085 273.107 161.979 271.38C162.715 269.95 163.313 268.456 163.929 266.969C164.231 266.222 164.538 265.481 164.875 264.752C164.96 264.552 165.599 262.905 165.918 262.974C166.237 263.042 165.98 264.279 165.918 264.604C165.547 266.165 165.131 267.761 164.607 269.283C164.014 270.805 163.078 272.171 161.871 273.272C160.883 274.278 159.956 275.342 159.096 276.458Z" fill="white"/>
<path d="M154.735 283.315C154.846 283.357 154.967 283.367 155.083 283.343C159.757 283.588 164.162 285.458 168.859 285.714C170.92 285.872 172.989 285.528 174.888 284.711C175.692 284.34 178.479 283.07 178.502 281.913C178.576 278.447 161.005 281.673 155.1 283.012C155.009 283.014 154.918 283.031 154.832 283.064C154.65 283.127 154.622 283.252 154.735 283.315Z" fill="#455A64"/>
<path d="M154.736 283.315L155.847 283.223C156.987 283.263 158.127 283.326 159.267 283.457C161.068 283.656 162.829 284.084 164.618 284.392C167.41 284.898 170.285 284.689 172.974 283.782C173.543 283.588 175.253 283.115 175.287 282.283C175.322 281.451 174.039 281.713 173.606 281.713C167.462 281.884 161.29 282.477 155.163 283.03C155.057 283.024 154.95 283.024 154.844 283.03C154.65 283.126 154.622 283.252 154.736 283.315ZM157.659 283.069C160.053 282.876 162.443 282.686 164.829 282.5C166.699 282.363 168.57 282.234 170.443 282.112C171.366 282.049 172.29 281.975 173.219 281.935C173.583 281.935 174.997 281.838 174.928 282.306C174.86 282.773 173.709 283.195 173.498 283.28C170.181 284.608 166.721 284.523 163.279 283.85C161.429 283.457 159.552 283.196 157.665 283.069H157.659Z" fill="white"/>
<path d="M188.869 258.038C188.818 258.071 188.787 258.126 188.784 258.186C188.781 258.27 188.828 258.348 188.903 258.385C188.939 258.408 188.98 258.422 189.023 258.425C189.048 258.437 189.077 258.437 189.103 258.425C191.81 257.417 195.452 256.978 198.182 256.066C200.267 255.339 202.234 254.308 204.018 253.005C206.038 251.605 207.881 249.965 209.506 248.121C210.264 247.232 212.219 245.203 211.832 243.829C211.045 240.98 204.252 247.004 203.385 247.625C198.537 251.071 193.698 254.542 188.869 258.038Z" fill="#066331"/>
<path d="M188.784 258.186C188.781 258.27 188.828 258.348 188.903 258.386L189.473 258.055C190.613 257.514 191.719 256.978 192.893 256.499C194.774 255.718 196.757 255.2 198.592 254.362C201.818 252.897 209.278 246.981 208.458 245.693C208.03 245.026 206.577 246.263 206.178 246.559C204.651 247.659 203.271 248.942 201.727 250.025C200.182 251.108 198.427 252.202 196.751 253.251C194.164 254.852 191.571 256.448 189 258.078L188.784 258.186ZM191.16 257.006C193.44 255.593 195.72 254.157 197.999 252.726C199.578 251.74 201.151 250.731 202.656 249.631C203.494 249.01 204.297 248.349 205.101 247.682C205.494 247.363 205.887 247.038 206.298 246.742C206.708 246.445 208.047 245.38 208.156 246.058C208.264 246.736 206.235 248.543 205.762 248.965C204.987 249.643 204.206 250.315 203.402 250.965C201.833 252.255 200.11 253.347 198.273 254.214C196.409 255.04 194.437 255.559 192.574 256.374C192.101 256.579 191.628 256.784 191.16 257.006Z" fill="white"/>
<path d="M164.578 251.757C166.374 257.069 171.509 260.603 170.62 268.12C170.62 268.148 170.648 268.16 170.665 268.148C170.836 267.425 170.979 266.695 171.093 265.954C171.731 261.951 171.595 257.863 170.694 253.911C170.153 251.567 169.259 249.319 168.044 247.243C167.411 246.189 166.168 243.658 164.909 243.402C162.224 242.843 164.248 250.788 164.578 251.757Z" fill="#455A64"/>
<path d="M165.815 249.523C165.998 252.886 167.981 255.895 169.155 258.973C169.994 261.08 170.568 263.284 170.865 265.533C170.825 266.405 170.762 267.271 170.688 268.149C170.859 267.425 171.002 266.695 171.116 265.954C171.116 265.909 171.116 265.869 171.116 265.823C171.257 263.468 171.148 261.105 170.791 258.773C170.327 255.553 169.414 252.415 168.078 249.449C167.85 248.93 167.251 246.879 166.425 246.97C165.599 247.061 165.787 249.056 165.815 249.523ZM166.528 247.289C167.097 247.323 168.329 250.526 168.807 251.814C169.826 254.593 170.484 257.491 170.768 260.437C170.886 261.71 170.928 262.989 170.893 264.267C170.627 262.82 170.246 261.397 169.753 260.01C168.75 257.109 167.08 254.407 166.334 251.432C166.128 250.655 166.021 249.854 166.015 249.05C166.026 248.731 166.015 247.26 166.528 247.289Z" fill="white"/>
<path d="M178.017 233.081C176.967 234.819 176.127 236.677 175.515 238.615C174.338 242.369 174.053 246.346 174.683 250.23C174.683 250.298 174.683 250.367 174.717 250.441C174.666 250.629 174.621 250.823 174.586 251.011C174.586 251.056 174.586 251.096 174.586 251.142V251.17C174.586 251.195 174.607 251.216 174.632 251.216C174.657 251.216 174.678 251.195 174.678 251.17C174.774 250.954 174.877 250.737 174.98 250.521C177.031 246.086 179.796 242.074 181.181 237.332C181.483 236.301 183.683 229.621 180.964 229.724C179.699 229.775 178.542 232.197 178.017 233.081Z" fill="#455A64"/>
<path d="M178.508 234.374C177.134 237.059 176.541 240.336 175.92 243.271C175.386 245.567 174.973 247.89 174.683 250.23C174.655 250.418 174.638 250.617 174.621 250.8L174.586 251.005C174.586 251.062 174.586 251.113 174.558 251.165C174.558 251.19 174.578 251.21 174.603 251.21C174.629 251.21 174.649 251.19 174.649 251.165C174.746 250.948 174.849 250.731 174.951 250.515C175.054 250.298 175.002 250.15 175.031 249.945C175.849 247.391 176.845 244.898 178.012 242.484C178.616 241.156 179.18 239.823 179.653 238.449C180.184 237.12 180.567 235.736 180.793 234.323C180.856 233.713 180.964 232.499 180.041 232.556C179.3 232.636 178.804 233.804 178.508 234.374ZM180.565 234.169C180.29 235.869 179.811 237.53 179.14 239.116C178.599 240.615 177.938 242.063 177.276 243.505C176.581 245.038 175.869 246.594 175.327 248.195C175.658 246.024 176.011 243.858 176.513 241.704C176.912 239.994 177.345 238.335 177.858 236.688C178.106 235.829 178.442 234.999 178.861 234.209C179.009 233.928 179.177 233.657 179.362 233.4C179.955 232.59 180.639 233.422 180.565 234.169Z" fill="white"/>
<path d="M210.589 233.645C210.544 233.707 210.504 233.776 210.452 233.838C210.424 233.88 210.42 233.933 210.441 233.979C210.462 234.024 210.505 234.055 210.555 234.061C210.61 234.067 210.665 234.043 210.698 233.998C210.783 233.884 210.874 233.77 210.96 233.65L211.171 233.371C211.347 233.24 211.524 233.115 211.712 233.001C213.69 231.73 216.414 231.126 218.489 230.214C220.391 229.415 222.209 228.428 223.914 227.267C225.66 226.103 227.145 224.589 228.274 222.822C228.565 222.337 229.38 221.152 228.884 220.542C228.257 219.778 226.331 220.781 225.715 220.992C223.584 221.747 221.564 222.784 219.708 224.075C216.004 226.634 213.188 229.986 210.589 233.645Z" fill="#066331"/>
<path d="M211.359 232.915C211.087 233.142 210.83 233.385 210.589 233.645C210.544 233.707 210.504 233.776 210.452 233.838C210.424 233.88 210.42 233.933 210.441 233.979C210.462 234.024 210.505 234.055 210.555 234.061C210.59 234.014 210.628 233.971 210.669 233.93L210.96 233.65C211.205 233.422 211.45 233.212 211.712 233.001C212.637 232.25 213.627 231.582 214.67 231.006C216.482 229.991 218.329 229.045 220.107 227.968C220.991 227.427 227.83 223.249 226.445 221.944C226.188 221.699 225.71 221.978 225.465 222.075C224.625 222.445 223.825 222.9 223.077 223.431C221.31 224.6 219.583 225.837 217.896 227.125C215.577 228.891 213.392 230.826 211.359 232.915ZM217.098 228.014C218.563 226.874 220.062 225.734 221.589 224.691C222.33 224.172 223.077 223.642 223.869 223.164C224.251 222.924 226.097 221.915 226.331 222.263C226.667 222.765 224.501 224.651 223.874 225.141C223.248 225.631 222.427 226.224 221.675 226.726C220.159 227.74 218.58 228.646 216.978 229.524C215.571 230.299 213.952 231.069 212.521 232.049C213.977 230.626 215.504 229.28 217.098 228.014Z" fill="white"/>
<path d="M186.988 248.258C186.988 248.338 186.988 248.417 186.988 248.497C186.987 248.546 187.01 248.593 187.05 248.621C187.09 248.65 187.142 248.657 187.188 248.64C187.24 248.618 187.277 248.57 187.285 248.514L187.336 248.081C187.336 247.962 187.336 247.848 187.376 247.728C187.416 247.608 187.552 247.335 187.655 247.158C188.732 245.066 190.79 243.168 192.123 241.35C193.366 239.703 194.442 237.937 195.338 236.078C196.261 234.194 196.785 232.139 196.877 230.043C196.877 229.473 196.996 228.042 196.261 227.763C195.332 227.415 194.175 229.251 193.748 229.741C192.286 231.47 191.061 233.387 190.106 235.44C188.145 239.487 187.393 243.801 186.988 248.258Z" fill="#066331"/>
<path d="M187.279 247.249C187.164 247.58 187.067 247.917 186.988 248.258C186.988 248.338 186.988 248.418 186.988 248.497C186.987 248.546 187.01 248.593 187.05 248.621C187.09 248.65 187.142 248.657 187.188 248.64L187.222 248.469L187.336 248.081C187.433 247.762 187.541 247.454 187.655 247.141C188.083 246.028 188.605 244.955 189.217 243.932C190.277 242.148 191.4 240.399 192.391 238.575C192.887 237.657 196.706 230.596 194.859 230.185C194.511 230.1 194.232 230.584 194.072 230.789C193.533 231.531 193.069 232.326 192.688 233.16C191.741 235.058 190.869 236.996 190.06 238.957C188.927 241.648 187.998 244.419 187.279 247.249ZM189.781 240.142C190.469 238.409 191.208 236.7 191.998 235.013C192.38 234.192 192.762 233.36 193.189 232.556C193.4 232.163 194.494 230.362 194.87 230.544C195.412 230.807 194.483 233.525 194.187 234.266C193.848 235.102 193.48 235.926 193.081 236.74C192.277 238.375 191.371 239.96 190.425 241.516C189.593 242.895 188.578 244.365 187.832 245.938C188.384 243.975 189.034 242.04 189.781 240.142Z" fill="white"/>
<path d="M175.909 246.936C174.761 251.051 173.848 255.227 173.173 259.446C172.666 262.723 172.153 266.04 170.893 269.135C169.212 273.051 166.555 276.471 163.176 279.069C164.772 278.351 166.364 277.612 167.952 276.852C171.184 275.296 174.438 273.677 177.248 271.414C177.522 271.192 177.789 270.958 178.057 270.725C178.044 270.702 178.044 270.674 178.057 270.651C180.612 267.158 182.629 263.303 184.042 259.212C184.287 256.875 184.304 254.52 184.093 252.179C183.794 249.804 183.794 247.401 184.093 245.026C184.105 244.975 184.151 244.938 184.204 244.938C184.257 244.938 184.303 244.975 184.315 245.026C184.138 248.355 185.142 252.122 185.142 255.656C185.284 255.137 185.421 254.613 185.546 254.083C186.766 249.027 187.256 243.613 191.018 239.698C191.143 239.566 191.32 239.772 191.206 239.903C187.285 244.394 187.273 251.256 185.729 256.761C184.589 260.859 182.93 265.088 180.297 268.508C181.917 266.69 183.438 264.787 184.857 262.808C193.622 250.988 202.815 239.441 214.493 230.351C214.607 230.265 214.761 230.425 214.647 230.521C202.376 240.564 193.56 253.484 183.956 265.92C183.842 266.063 183.734 266.205 183.62 266.342C185.586 265.044 187.703 263.989 189.923 263.202C189.969 263.18 190.024 263.199 190.046 263.244C190.068 263.29 190.049 263.345 190.003 263.367C187.074 264.934 184.48 266.923 181.682 268.679C180.214 270.37 178.561 271.889 176.752 273.21C174.54 274.739 172.205 276.083 169.77 277.228C173.429 276.173 177.094 275.159 180.679 273.842C186.113 271.863 191.41 269.525 196.535 266.844C196.565 266.838 196.596 266.853 196.61 266.881C196.623 266.909 196.616 266.943 196.592 266.963C191.432 270.053 186.026 272.71 180.428 274.908C175.652 276.738 170.602 278.522 165.502 279.285C159.751 281.981 153.732 284.574 147.497 285.646C147.373 285.672 147.25 285.593 147.224 285.469C147.197 285.345 147.276 285.222 147.4 285.195C148.631 284.802 149.851 284.386 151.059 283.959C152.718 282.471 154.621 281.28 156.189 279.69C158.053 277.826 159.685 275.744 161.05 273.489C161.153 273.324 161.392 273.489 161.301 273.649C159.654 276.829 157.135 280.528 154.012 282.87C155.763 282.209 157.5 281.516 159.221 280.79C164.464 277.404 169.018 272.634 170.865 266.616C171.816 263.526 172.232 260.346 172.814 257.143C173.503 253.656 174.455 250.227 175.664 246.884C175.678 246.817 175.744 246.773 175.812 246.787C175.879 246.802 175.923 246.868 175.909 246.936Z" fill="#066331"/>
<path d="M54.9967 233.046C56.547 234.34 57.6014 236.426 58.5247 238.176C59.5789 240.181 60.4949 242.257 61.2661 244.388C61.9899 246.371 62.6111 248.377 63.1981 250.406V250.463C63.238 250.595 63.2722 250.731 63.3121 250.862C63.352 250.994 63.4432 251.17 63.5059 251.33C63.5228 251.373 63.5088 251.422 63.4717 251.449C63.4555 251.471 63.4302 251.484 63.4033 251.484C63.3764 251.484 63.3511 251.471 63.3349 251.449C63.295 251.364 63.2608 251.278 63.2209 251.199C61.5738 247.722 57.9034 245.818 55.8688 242.61C54.7289 240.849 54.1589 238.797 53.4522 236.848C53.0704 235.771 52.3807 234.482 52.2212 233.348C52.1813 233.046 52.0502 232.778 52.2212 232.482C52.8481 231.593 54.4553 232.596 54.9967 233.046Z" fill="#066331"/>
<path d="M54.9284 234.733C54.159 234.608 54.5465 235.976 54.632 236.358C55.196 239.063 56.3651 241.606 58.0516 243.795C59.9324 246.035 61.836 248.258 63.1184 250.879C63.1184 250.976 63.1697 251.073 63.1925 251.17C63.2153 251.267 63.2666 251.335 63.3064 251.421C63.3226 251.442 63.3479 251.455 63.3749 251.455C63.4018 251.455 63.4271 251.442 63.4433 251.421L63.3805 251.256C63.3179 250.982 63.2438 250.686 63.1697 250.435V250.378C62.5607 248.451 61.8453 246.56 61.0267 244.713C60.0184 242.07 58.7206 239.547 57.1569 237.19C56.7682 236.628 56.3516 236.085 55.9087 235.565C55.6921 235.332 55.3046 234.79 54.9284 234.733ZM56.0683 236.033C56.5242 236.603 56.946 237.173 57.3449 237.777C58.672 239.876 59.7997 242.095 60.7133 244.405C61.5934 246.367 62.3546 248.381 62.993 250.435C62.2563 248.939 61.3519 247.532 60.2972 246.24C59.5221 245.249 58.6786 244.325 57.8921 243.345C57.0511 242.222 56.3844 240.979 55.9144 239.657C55.364 238.454 54.951 237.192 54.6833 235.896C54.6434 235.634 54.6092 235.018 54.8144 234.944C55.202 234.813 55.903 235.81 56.0797 236.033H56.0683Z" fill="white"/>
<path d="M81.493 282.112C81.5388 282.111 81.5792 282.142 81.5899 282.186C81.6095 282.218 81.6095 282.257 81.5899 282.289C81.5689 282.307 81.5432 282.319 81.5158 282.323C78.8941 282.482 76.0103 281.981 73.5937 283.235C71.7015 284.209 70.2596 285.355 68.0768 285.623C65.8519 285.879 63.598 285.668 61.4598 285.002C60.4878 284.696 59.5454 284.303 58.6443 283.828C58.2169 283.6 56.9687 283.132 56.8034 282.608C56.0169 280.18 64.64 280.277 65.7856 280.328C70.8751 280.419 76.1983 280.756 81.1739 282.038C81.18 282.049 81.18 282.062 81.1739 282.072C81.1739 282.072 81.1739 282.106 81.1739 282.118L81.493 282.112Z" fill="#066331"/>
<path d="M81.4931 282.112L81.1454 282.084C81.1454 282.084 81.1454 282.084 81.1454 282.038C78.1533 281.673 75.1155 281.531 72.1006 281.468C68.8423 281.309 65.5772 281.364 62.3262 281.633C61.8873 281.679 59.9267 281.633 59.9495 282.397C59.9723 283.161 62.2293 283.537 62.7251 283.645C65.609 284.215 68.5328 283.565 71.3312 282.87C73.1116 282.337 74.9559 282.048 76.8139 282.009C78.4041 282.049 79.9771 282.266 81.5615 282.317C81.5811 282.286 81.5811 282.246 81.5615 282.215C80.7465 282.215 79.9315 282.101 79.1222 282.027L81.5615 282.209C81.5635 282.165 81.5353 282.125 81.4931 282.112ZM74.3746 281.97C71.5249 282.42 68.7949 283.48 65.8826 283.645C64.4848 283.746 63.0804 283.589 61.7391 283.184C61.4827 283.109 60.2858 282.79 60.2801 282.386C60.2801 282.118 60.9868 281.952 61.0951 281.935C61.9003 281.798 62.7129 281.709 63.5287 281.668C66.3784 281.502 69.2281 281.525 72.0778 281.605C73.6565 281.645 75.2295 281.73 76.7968 281.838C75.9871 281.808 75.1763 281.852 74.3746 281.97Z" fill="white"/>
<path d="M46.2426 242.992C47.5615 244.865 48.4934 246.983 48.9839 249.221C50.2777 254.254 50.2549 259.657 52.1072 264.547C52.1756 264.74 52.2554 264.934 52.3295 265.117C52.5062 265.322 52.4435 265.288 52.2098 265.054C51.1953 264.062 47.0177 259.497 45.3706 255.445C44.409 252.894 43.725 250.248 43.3302 247.551C43.0566 246.024 42.7603 244.496 42.5095 242.992C42.424 242.502 41.9395 241.225 42.5095 240.78C43.5981 239.88 45.6954 242.262 46.2426 242.992Z" fill="#066331"/>
<path d="M44.4245 244.548C44.1509 244.548 44.0312 244.736 43.9856 244.992C43.9849 245.306 44.0489 245.616 44.1737 245.904C44.3219 246.434 44.47 246.958 44.6239 247.489C45.6498 251.125 46.4363 255 48.0435 258.443C49.1256 260.724 50.4806 262.865 52.0787 264.82L52.2041 265.031C52.4378 265.265 52.5004 265.299 52.3238 265.094C52.2497 264.906 52.1699 264.712 52.1015 264.524C52.0331 264.336 51.8222 264.034 51.6968 263.783C50.8758 262.013 50.2822 260.145 49.93 258.226C49.2062 254.589 48.1297 251.031 46.7156 247.602C46.4066 246.832 46.0108 246.1 45.5358 245.42C45.3078 245.112 44.869 244.519 44.4245 244.548ZM45.3078 245.403C45.4275 245.541 45.5343 245.69 45.627 245.847C45.8369 246.178 46.0272 246.52 46.1969 246.873C46.613 247.722 46.955 248.583 47.2855 249.483C48.3841 252.652 49.2788 255.889 49.9642 259.172C50.3026 260.797 50.8345 262.376 51.5487 263.874C50.7297 262.747 49.9688 261.579 49.2689 260.375C47.4793 257.286 46.6301 253.866 45.6612 250.458L44.9431 247.927L44.584 246.662L44.4017 246.029C44.282 245.608 44.1338 245.488 44.4814 245.135C44.8291 244.781 44.9887 245.015 45.3078 245.403Z" fill="white"/>
<path d="M59.8698 259.229C61.242 260.354 62.5035 261.608 63.637 262.974C65.9168 265.715 67.4955 269.488 70.0545 272.041L70.6245 272.531L70.8182 272.725C70.8524 272.759 70.8182 272.822 70.7555 272.794L70.3395 272.52C70.2711 272.474 70.1913 272.429 70.1229 272.377C66.9028 270.314 63.4034 268.753 60.833 265.823C59.2542 264.022 55.3502 258.79 56.4444 257.582C56.8947 257.041 59.032 258.551 59.8698 259.229Z" fill="#066331"/>
<path d="M58.8211 260.238C58.5931 260.58 58.9692 261.195 59.1004 261.475C59.4768 262.188 59.9094 262.87 60.3941 263.515C61.2828 264.726 62.2806 265.854 63.3749 266.883C65.4422 268.912 67.6893 270.749 70.0887 272.372C70.1571 272.423 70.2369 272.469 70.3053 272.514L70.7213 272.788C70.7612 272.788 70.8182 272.754 70.784 272.719L70.5903 272.526C68.1053 270.519 66.0877 268.069 64.1158 265.481C63.6997 264.911 59.619 259.075 58.8211 260.238ZM61.2661 262.141C61.6992 262.66 62.1153 263.196 62.537 263.731C63.5059 264.98 64.452 266.251 65.4437 267.487C66.5066 268.851 67.6687 270.135 68.9203 271.329C67.2691 270.102 65.6808 268.794 64.1614 267.408C63.1624 266.491 62.2203 265.515 61.3402 264.484C60.8679 263.919 60.4338 263.323 60.0408 262.7C59.847 262.404 58.6957 260.722 58.9692 260.363C59.3226 259.913 61.0894 261.913 61.2661 262.141Z" fill="white"/>
<path d="M69.1824 245.767C70.4591 246.246 71.1658 248.263 71.3254 249.455C71.4808 251.155 71.2023 252.867 70.5161 254.43C69.6156 256.71 68.3504 258.83 67.8944 261.269C67.4384 263.709 67.6094 262.979 67.8374 265.59C67.8374 265.641 67.8032 265.664 67.7519 265.652C67.6293 265.594 67.5378 265.486 67.5011 265.356C67.4906 265.335 67.4811 265.315 67.4726 265.293C66.3897 261.366 66.5664 257.667 67.3301 253.661C67.7633 251.381 67.4441 249.021 67.9628 246.77C68.1566 245.95 68.3104 245.437 69.1824 245.767Z" fill="#455A64"/>
<path d="M69.4446 248.013C68.8063 248.07 68.7664 249.455 68.7265 249.968C68.6529 251.457 68.445 252.938 68.1052 254.39C67.7307 255.656 67.4376 256.945 67.2276 258.249C66.9603 260.253 67.0045 262.287 67.3587 264.279C67.3821 264.638 67.4278 264.996 67.4954 265.35C67.5321 265.481 67.6236 265.589 67.7462 265.646C67.7462 265.595 67.7462 265.555 67.7462 265.51C67.3179 262.901 67.6626 260.225 68.7379 257.81C69.8037 255.251 70.6643 252.595 70.385 249.785C70.3394 249.261 70.0373 247.967 69.4446 248.013ZM70.2083 249.506C70.2663 249.984 70.293 250.466 70.2881 250.948C70.2762 251.819 70.1808 252.688 70.0031 253.541C69.6477 255.04 69.1516 256.501 68.5213 257.907C67.8141 259.547 67.4105 261.303 67.3301 263.087C67.1353 261.342 67.1717 259.579 67.4384 257.844C67.6835 256.288 68.2306 254.818 68.5213 253.285C68.6524 252.572 68.7151 251.854 68.7778 251.136C68.812 250.748 68.8405 250.361 68.8747 249.996C68.9089 249.631 68.9431 248.469 69.3477 248.326C69.8721 248.121 70.1855 249.312 70.2083 249.506Z" fill="white"/>
<path d="M33.003 255.382C37.9956 257.023 42.88 258.961 47.6846 261.081C47.7419 261.104 47.777 261.163 47.77 261.224L47.8612 261.269C47.883 261.292 47.883 261.327 47.8612 261.349C47.8408 261.356 47.8189 261.356 47.7985 261.349C44.852 260.603 42.0992 259.913 39.0101 260.078C36.2003 260.227 33.533 260.546 30.7347 260.078C28.3466 259.662 19.9059 255.644 19.7178 253.621C19.5981 252.304 29.0306 254.083 33.003 255.382Z" fill="#066331"/>
<path d="M27.9533 255.291C27.3435 255.143 25.3202 254.322 24.7617 255.051C24.2032 255.781 26.2549 256.607 26.6596 256.801C28.1341 257.531 29.6765 258.115 31.2647 258.545C32.8484 258.845 34.4574 258.992 36.0692 258.984C40.0862 259.298 44.0489 260.108 47.8669 261.395C47.8886 261.373 47.8886 261.337 47.8669 261.315L47.7757 261.269C41.381 258.614 34.633 256.944 27.9533 255.291ZM47.428 261.23C44.8053 260.371 42.1232 259.707 39.4033 259.24C36.2402 258.705 33.0144 259.052 29.9481 258.015C28.4213 257.564 26.958 256.921 25.5938 256.1C25.4171 255.986 24.8016 255.621 24.8814 255.285C24.9612 254.949 25.5995 254.926 26.5912 255.143C27.4119 255.319 28.2326 255.547 29.0476 255.752C32.2677 256.562 35.4879 257.382 38.6738 258.317C41.6299 259.164 44.548 260.135 47.428 261.23Z" fill="white"/>
<path d="M60.0578 272.964C60.0654 272.983 60.0654 273.003 60.0578 273.021C60.0685 273.07 60.038 273.118 59.9894 273.13L59.6475 273.21C57.3335 274.19 55.8004 275.575 54.0393 277.307C52.7354 278.583 51.1355 279.515 49.3829 280.02C47.4528 280.552 45.4483 280.761 43.4499 280.641C42.6406 280.607 40.2526 280.864 39.9562 279.65C39.466 277.649 46.4991 276.521 47.6788 276.259C49.7835 275.82 51.8584 275.249 53.8911 274.549C55.8859 273.848 57.8807 273.096 59.9894 272.896C60.0081 272.894 60.0265 272.901 60.0397 272.914C60.053 272.927 60.0596 272.946 60.0578 272.964Z" fill="#066331"/>
<path d="M58.7698 273.375C57.5957 273.745 56.3932 274.065 55.2419 274.515C53.9481 274.994 52.7627 275.723 51.4632 276.225C49.0353 277.131 46.4706 277.553 44.0084 278.345C43.6893 278.447 43.0624 278.664 43.4955 279.057C43.6779 279.234 44.0654 279.228 44.3105 279.245C44.9969 279.305 45.6873 279.305 46.3737 279.245C48.7657 279.109 51.0898 278.399 53.1502 277.176C55.43 275.695 57.4703 273.916 60.0863 273.056C60.0939 273.038 60.0939 273.017 60.0863 272.999C59.6381 273.088 59.1978 273.214 58.7698 273.375ZM53.7543 276.492C51.2699 278.175 48.3371 279.073 45.3364 279.069C44.8964 279.067 44.4568 279.041 44.0198 278.989C43.7463 278.943 43.296 278.772 44.0198 278.459C44.2053 278.389 44.3958 278.334 44.5898 278.294C45.2338 278.105 45.8835 277.934 46.539 277.763C47.9296 277.41 49.3259 277.074 50.6938 276.624C51.8936 276.201 53.0612 275.693 54.1875 275.102C55.5884 274.452 57.0364 273.909 58.519 273.478C56.7978 274.213 55.2818 275.427 53.7543 276.492Z" fill="white"/>
<path d="M51.1383 271.927C51.1689 271.951 51.1892 271.986 51.1953 272.024C51.2001 272.043 51.2001 272.062 51.1953 272.081C51.2012 272.107 51.2012 272.135 51.1953 272.161C51.1694 272.218 51.1152 272.257 51.0528 272.263C50.6765 272.333 50.2954 272.373 49.9129 272.383C45.5586 273.107 41.0675 273.802 36.6961 272.982C34.4687 272.543 32.305 271.827 30.2559 270.85C29.2471 270.377 26.7792 269.596 26.6254 268.2C26.4715 266.803 27.8678 266.946 28.7968 267.009C31.2097 267.145 33.6118 267.43 35.9894 267.864C38.3403 268.305 40.6344 269.009 42.8286 269.961C45.4503 271.101 48.0549 272.343 50.9844 271.842C51.0459 271.846 51.1025 271.877 51.1383 271.927Z" fill="#066331"/>
<path d="M41.6146 270.73C38.3416 269.791 35.0043 269.092 31.6294 268.639C31.1962 268.57 29.9822 268.462 30.2501 269.209C30.5636 270.109 32.3076 270.348 33.0428 270.576C35.8383 271.41 38.6976 272.013 41.5918 272.377C44.7906 272.795 48.0362 272.69 51.2009 272.064C51.2058 272.045 51.2058 272.026 51.2009 272.007C45.9518 272.925 40.5716 272.309 35.4422 271.015C34.2055 270.702 32.9573 270.388 31.749 269.978C31.5553 269.91 30.3698 269.408 30.4838 268.998C30.5978 268.587 31.9428 268.844 32.1081 268.878C32.8775 269.003 33.6469 269.129 34.3878 269.266C37.2721 269.791 40.126 270.473 42.9369 271.306C45.6027 272.103 48.4044 272.342 51.1668 272.007C51.1607 271.969 51.1403 271.934 51.1098 271.91C47.8497 272.303 44.7778 271.671 41.6146 270.73Z" fill="white"/>
<path d="M22.9379 238.689C25.1152 239.565 27.123 240.815 28.8709 242.382C31.4983 244.884 33.2822 248.081 35.5164 250.891V250.925C36.1194 251.697 36.7684 252.431 37.4599 253.125C37.6023 253.273 37.7562 253.416 37.9101 253.564C37.9441 253.591 37.9614 253.635 37.9557 253.678C37.9462 253.709 37.9285 253.736 37.9044 253.758C37.8839 253.778 37.8582 253.791 37.8303 253.798C37.7838 253.805 37.7364 253.792 37.6992 253.763C37.4713 253.564 37.249 253.364 37.0267 253.154C37.0086 253.162 36.9878 253.162 36.9697 253.154C32.9004 250.401 28.546 247.711 24.2202 245.129C22.2932 244.02 20.4747 242.732 18.7888 241.282C17.8028 240.404 16.4007 239.002 16.6059 237.52C16.6094 237.423 16.6634 237.334 16.7484 237.287C18.6634 236.546 21.2281 237.942 22.9379 238.689Z" fill="#066331"/>
<path d="M21.1597 240.056C20.168 240.273 20.9146 241.156 21.342 241.578C22.5248 242.659 23.7714 243.668 25.0751 244.599C26.4924 245.693 27.9286 246.766 29.3838 247.819C32.1252 249.797 35.3283 251.495 37.836 253.786C37.8639 253.78 37.8896 253.766 37.9101 253.746C37.9341 253.725 37.9518 253.697 37.9614 253.666L37.4655 253.096C36.8158 252.367 36.1661 251.626 35.522 250.897V250.862C32.4045 247.334 29.2527 243.886 24.9953 241.453C24.0036 240.917 22.3736 239.783 21.1597 240.056ZM25.6849 242.085C28.2358 243.689 30.5609 245.627 32.5983 247.847C34.2283 249.597 35.7329 251.461 37.3344 253.239C35.807 251.951 34.0573 250.902 32.4045 249.757C29.817 247.956 27.2751 246.09 24.7787 244.16C24.2088 243.698 23.5819 243.231 22.9891 242.758C22.3964 242.285 21.5244 241.755 21.1767 241.162C20.4985 240.022 21.912 240.239 22.4249 240.393C22.8644 240.545 23.2896 240.736 23.6959 240.963C24.3741 241.316 25.0352 241.692 25.6849 242.085Z" fill="white"/>
<path d="M60.4682 244.576C62.1515 248.62 63.5606 252.773 64.6857 257.006C65.7059 260.899 66.6862 264.809 68.2478 268.525C70.3224 273.466 73.6679 278.248 78.3356 280.87C71.7505 278.569 65.5959 275.185 60.1262 270.856C50.8363 263.601 41.7515 255.872 31.8574 249.438C31.6921 249.329 31.5553 249.569 31.6978 249.688C36.4796 253.564 41.5121 257.132 46.3224 260.967C51.1326 264.803 55.7833 268.736 60.6335 272.463C61.1578 272.868 61.6878 273.255 62.2236 273.637C57.191 271.728 51.3549 271.563 46.2654 272.497C46.2027 272.497 46.2255 272.606 46.2654 272.6C50.0266 272.175 53.8323 272.377 57.5273 273.198C60.7474 273.905 63.6427 275.21 66.6463 276.487C74.4087 281.066 83.215 283.579 92.225 283.788C92.2659 283.788 92.2991 283.755 92.2991 283.714C92.2991 283.673 92.2659 283.64 92.225 283.64C88.5176 283.4 84.8459 282.769 81.2708 281.759C74.614 278.983 70.556 272.446 68.1623 265.761C66.897 262.256 65.9225 258.659 64.8453 255.097C63.7681 251.535 62.651 247.688 60.6562 244.456C60.6232 244.404 60.5543 244.389 60.5023 244.422C60.4504 244.455 60.4351 244.524 60.4682 244.576Z" fill="#455A64"/>
<rect x="62.7137" y="0.769043" width="120.217" height="284.968" fill="black" fill-opacity="0.901961"/>
<rect x="62.7708" y="256.14" width="120.154" height="29.5968" fill="white" fill-opacity="0.941176"/>
<path d="M168.363 89.9755C164.658 90.0325 155.305 90.175 151.726 90.2149H146.118H145.862V89.9527L145.833 82.8741V82.5891H146.118L157.243 82.629C160.013 82.629 165.593 82.7031 168.363 82.7373H168.499V82.8684L168.363 89.947V89.9755ZM168.363 89.9755L168.226 82.8969L168.363 83.0337L162.8 83.0964C159.272 83.142 149.771 83.1705 146.118 83.1819L146.403 82.8969V89.9755L146.141 89.719H151.658C155.186 89.7532 164.738 89.9014 168.385 89.9527L168.363 89.9755Z" fill="#EBEBEB"/>
<path d="M122.722 24.4499C119.012 24.5069 109.665 24.6494 106.08 24.6836H100.478H100.215V24.4214V17.3428V17.0579H100.5L111.62 17.0978C114.39 17.0978 119.975 17.1718 122.745 17.206H122.882V17.3428L122.751 24.4214L122.722 24.4499ZM122.722 24.4499L122.585 17.3713L122.722 17.5024L117.16 17.5651C113.632 17.6107 104.125 17.6449 100.478 17.6563L100.763 17.3713L100.734 24.4499L100.478 24.1878H105.995C109.517 24.222 119.103 24.3644 122.722 24.4214L122.722 24.4499Z" fill="#EBEBEB"/>
<rect x="88.0702" y="26.2964" width="22.2446" height="7.0786" fill="white"/>
<path d="M97.9528 117.116C94.2483 117.173 84.8956 117.315 81.3164 117.349H75.7083H75.4518V117.093V110.009V109.724H75.7367L86.8619 109.764C89.6261 109.764 95.2114 109.838 97.9813 109.878H98.1181V110.009L97.9813 117.093L97.9528 117.116ZM97.9528 117.116L97.816 110.031L97.9528 110.168L92.3903 110.231C88.8624 110.276 79.3558 110.311 75.7083 110.316L75.9932 110.031V117.116L75.731 116.854H81.248C84.7759 116.893 94.328 117.036 97.9756 117.093L97.9528 117.116Z" fill="#EBEBEB"/>
<rect x="63.3008" y="118.962" width="22.2446" height="7.0786" fill="white"/>
<path d="M97.9528 24.4499C94.2483 24.5069 84.8956 24.6494 81.3164 24.6836H75.7083H75.4518V24.4214V17.3428V17.0579H75.7367L86.8619 17.0978C89.6261 17.0978 95.2114 17.1718 97.9813 17.206H98.1181V17.3428L97.9813 24.4214L97.9528 24.4499ZM97.9528 24.4499L97.816 17.3713L97.9528 17.5024L92.3903 17.5651C88.8624 17.6107 79.3558 17.6449 75.7083 17.6563L75.9932 17.3713V24.4499L75.731 24.1878H81.248C84.7759 24.222 94.328 24.3644 97.9756 24.4214L97.9528 24.4499Z" fill="#EBEBEB"/>
<rect x="100.478" y="231.399" width="22.2446" height="7.0786" fill="white"/>
<path d="M155.955 172.462C152.251 172.519 142.898 172.662 139.319 172.696H133.711H133.454V172.434L133.426 165.355V165.07H133.711L144.836 165.11C147.6 165.11 153.185 165.184 155.955 165.218H156.092V165.355L155.955 172.434V172.462ZM155.955 172.462L155.818 165.384L155.955 165.515L150.393 165.577C146.865 165.623 137.364 165.657 133.711 165.668L133.996 165.384V172.462L133.733 172.2H139.25C142.778 172.234 152.33 172.377 155.978 172.434L155.955 172.462Z" fill="#EBEBEB"/>
<rect x="146.118" y="174.309" width="22.2446" height="7.0786" fill="white"/>
<rect x="182.64" y="0.769043" width="1" height="226.937" fill="#EBEBEB"/>
<path d="M235.387 108.487C235.323 108.743 235.08 108.914 234.817 108.886C234.219 108.726 233.512 108.527 232.714 108.316C232.515 102.736 231.825 98.1254 231.842 99.8352C231.833 102.512 231.433 105.173 230.657 107.735L226.547 106.481C227.83 97.2363 227.915 90.0779 227.385 92.1126C225.242 100.308 223.931 102.719 222.478 105.284C212.538 102.314 199.555 98.2793 190.225 95.1503C190.744 89.9753 191.53 84.4526 191.246 84.7547C189.08 87.0345 187.433 90.8359 186.401 93.8737C183.437 92.8592 181.089 91.9929 179.682 91.3888C179.682 91.3888 180.331 87.1086 180.673 85.7464C181.533 82.2594 183.018 78.9572 185.056 76.0005C187.153 72.9798 189.838 70.6032 192.465 68.124C192.483 68.1036 192.504 68.0863 192.528 68.0727C194.256 66.4621 195.786 64.6523 197.087 62.6811C197.099 62.6676 197.109 62.6522 197.116 62.6355C198.037 61.1891 198.826 59.6632 199.475 58.076C201.869 52.2969 206.81 48.3073 212.743 48.6436C223.817 43.7079 235.336 52.2513 235.706 61.5868C235.615 65.3826 235.079 70.1359 234.806 73.8917C234.806 73.8917 234.806 73.8917 234.806 73.9373C234.679 75.4003 234.644 76.8699 234.703 78.3372C235.21 85.4614 239.947 91.0468 235.387 108.487Z" fill="#263238"/>
<path d="M209.82 49.4302C205.636 50.0913 202.536 52.1089 200.553 56.2694C199.413 58.6745 198.421 61.0797 196.688 63.1086C194.956 65.1376 192.699 66.6992 190.453 68.1583C186.886 70.4779 184.081 73.0483 182.28 77.1576C180.479 81.2668 178.969 86.4874 179.049 91.007H179.089C179.294 86.5273 181.135 80.8678 183.261 76.8441C185.592 72.4214 189.148 70.3753 192.95 67.7251C195.995 65.6671 198.432 62.8287 200.005 59.5067C200.98 57.4606 201.687 55.2264 203.191 53.5052C204.987 51.4478 207.483 50.6156 209.905 49.9488C210.025 49.904 210.097 49.7806 210.076 49.6544C210.055 49.5281 209.948 49.4342 209.82 49.4302Z" fill="#263238"/>
<path d="M238.431 87.0914C237.04 82.8511 235.381 79.0724 235.296 74.3875C235.216 70.1187 235.78 65.8385 235.678 61.564C235.685 61.5427 235.678 61.5192 235.66 61.5059C235.642 61.4925 235.617 61.4925 235.599 61.5059C235.581 61.5192 235.573 61.5427 235.581 61.564C235.444 69.0359 233.597 75.9777 235.946 83.1303C237.222 87.0116 238.573 90.6706 238.864 94.8938C239.118 99.2999 238.555 103.715 237.205 107.917C237.181 107.955 237.183 108.003 237.21 108.039C237.237 108.075 237.283 108.091 237.326 108.079C237.369 108.067 237.4 108.03 237.405 107.985C240.282 101.378 240.647 93.9483 238.431 87.0914Z" fill="#263238"/>
<path d="M212.704 48.5468C214.317 48.5069 218.403 40.9724 214.453 35.3699C210.504 29.7674 202.274 31.8135 202.861 39.331C203.231 44.0842 209.29 48.6437 212.704 48.5468Z" fill="#263238"/>
<path d="M207.266 32.3833C205.267 33.1504 203.588 34.573 202.502 36.4184C201.432 38.1522 201.369 40.325 202.336 42.1178C203.254 43.9359 204.901 45.3436 206.685 46.455C207.591 47.0046 208.544 47.4701 209.535 47.8457C210.531 48.2722 211.598 48.5099 212.681 48.5467C211.581 48.7455 210.45 48.7008 209.37 48.4156C208.276 48.1617 207.216 47.7791 206.212 47.2757C204.117 46.2917 202.38 44.6803 201.242 42.6649C200.076 40.5182 200.249 37.8922 201.687 35.9169C202.98 34.0198 204.999 32.741 207.266 32.3833Z" fill="#263238"/>
<path d="M213.883 107.729C225.123 134.972 232.566 185.656 224.712 192.108C215.947 199.295 200.365 161.183 201.117 159.622C201.687 158.453 202.422 129.808 202.661 108.852C202.901 87.8951 211.108 100.998 213.883 107.729Z" fill="#D3766A"/>
<path d="M200.9 159.593C201.168 156.607 201.738 118.672 202.308 106.834C202.878 94.9966 207.569 93.1557 214.134 106.903C220.7 120.649 230.634 161.616 228.992 180.555C227.419 198.793 219.081 195.374 211.131 183.445C204.628 173.665 200.9 159.593 200.9 159.593Z" fill="#455A64"/>
<path opacity="0.1" d="M200.9 159.593C200.9 159.593 204.622 173.665 211.131 183.445C219.11 195.414 227.419 198.793 228.998 180.555C229.471 175.124 228.998 167.874 227.904 159.975L205.038 97.6582C203.522 98.6898 202.559 101.893 202.319 106.851C201.749 118.672 201.174 156.607 200.9 159.593Z" fill="black"/>
<path d="M213.963 134.704C213.006 141.218 205.796 145.208 205.796 145.208L183.192 177.677V95.6062C184.41 94.7571 185.686 93.9952 187.011 93.3265C195.64 89.0919 201.533 91.8732 205.277 97.886C206.212 99.4419 215.046 127.357 213.963 134.704Z" fill="#455A64"/>
<path d="M190.972 133.467C193.343 134.704 195.573 136.195 197.623 137.913C198.649 138.796 199.624 139.759 200.587 140.762C201.066 141.264 201.556 141.731 202.052 142.199C202.546 142.699 203.125 143.108 203.761 143.407C203.813 143.407 203.761 143.561 203.71 143.544C203.092 143.368 202.492 143.131 201.921 142.837C201.37 142.517 200.851 142.144 200.37 141.726C199.322 140.836 198.313 139.873 197.276 138.973C195.223 137.132 193.079 135.395 190.852 133.769C190.733 133.689 190.864 133.405 190.972 133.467Z" fill="#263238"/>
<path d="M183.745 134.556C185.881 134.963 187.978 135.551 190.014 136.311C191.024 136.707 192.008 137.166 192.961 137.685C193.417 137.93 193.873 138.192 194.318 138.46C194.762 138.728 195.264 139.149 195.759 139.429C195.816 139.463 195.759 139.588 195.714 139.565C195.235 139.32 194.699 139.195 194.204 138.996L192.705 138.386C191.702 137.981 190.693 137.594 189.701 137.177C187.706 136.34 185.711 135.536 183.677 134.807C183.546 134.767 183.637 134.533 183.745 134.556Z" fill="#263238"/>
<path d="M194.785 94.1075C194.608 95.4241 197.401 105.506 203.043 107.353C204.884 107.951 208.6 98.0572 208.6 98.0572L209.039 97.3904L215.211 88.0434L206.138 75.7784L204.793 74.1028C204.793 74.1028 203.271 76.7701 201.413 80.1099L201.151 80.5887C201.037 80.771 200.934 80.9477 200.838 81.1244C200.553 81.6202 200.268 82.1275 199.988 82.6404C199.778 83.028 199.572 83.4041 199.361 83.8202C199.151 84.2363 198.94 84.6352 198.723 85.0513C196.649 89.1548 194.865 93.549 194.785 94.1075Z" fill="#D3766A"/>
<path d="M201.413 80.1099C201.295 86.7102 204.083 93.029 209.039 97.3904L215.211 88.0434L206.138 75.7784L204.793 74.1028C204.793 74.1028 203.271 76.7701 201.413 80.1099Z" fill="#263238"/>
<path d="M235.21 75.0202C232.537 94.4949 220.574 95.0933 216.374 94.512C212.561 93.9819 199.652 91.7022 200.296 72.0565C200.94 52.4108 210.846 47.5037 219.628 48.2446C228.411 48.9855 237.883 55.5455 235.21 75.0202Z" fill="#D3766A"/>
<path d="M231.016 70.5976C230.576 70.4513 230.144 70.282 229.722 70.0904C229.241 69.9738 228.812 69.7013 228.502 69.3153C228.352 69.0296 228.413 68.6789 228.65 68.4604C229.183 68.0971 229.87 68.0513 230.446 68.3407C231.061 68.5402 231.58 68.9631 231.899 69.5261C232.035 69.7948 231.999 70.1184 231.808 70.3506C231.616 70.5829 231.305 70.6799 231.016 70.5976Z" fill="#263238"/>
<path d="M217.879 67.7479C218.341 67.7565 218.803 67.7394 219.264 67.6966C219.757 67.7455 220.252 67.6292 220.671 67.366C220.911 67.1462 220.97 66.7909 220.814 66.5054C220.43 65.9903 219.798 65.7224 219.161 65.8044C218.513 65.79 217.883 66.0176 217.394 66.4427C217.175 66.6518 217.102 66.9709 217.207 67.2547C217.313 67.5384 217.577 67.7323 217.879 67.7479Z" fill="#263238"/>
<path d="M219.879 73.2479C219.879 73.1966 219.765 73.2992 219.76 73.3505C219.606 74.7126 219.19 76.2457 217.907 76.5136C217.867 76.5136 217.862 76.5934 217.907 76.5934C219.435 76.5991 219.953 74.5587 219.879 73.2479Z" fill="#263238"/>
<path d="M218.876 71.6578C216.722 71.1733 215.912 75.5162 217.913 75.9665C219.913 76.4167 220.683 72.0624 218.876 71.6578Z" fill="#263238"/>
<path d="M217.998 71.726C217.571 71.9027 217.121 72.2959 216.653 72.2275C216.186 72.1591 215.804 71.6576 215.513 71.1504C215.513 71.0991 215.445 71.1504 215.428 71.1846C215.263 72.0167 215.428 72.9286 216.294 73.2192C217.16 73.5099 217.81 72.8545 218.169 72.0794C218.243 71.9084 218.152 71.6576 217.998 71.726Z" fill="#263238"/>
<path d="M227.761 74.3592C227.761 74.3079 227.853 74.4447 227.841 74.496C227.533 75.8296 227.414 77.4141 228.542 78.0923C228.576 78.0923 228.542 78.1835 228.514 78.1664C227.072 77.6705 227.26 75.5732 227.761 74.3592Z" fill="#263238"/>
<path d="M229.232 73.1851C231.426 73.4416 230.753 77.813 228.719 77.5736C226.684 77.3343 227.391 72.9743 229.232 73.1851Z" fill="#263238"/>
<path d="M230.098 73.6126C230.406 73.8976 230.668 74.3706 231.09 74.4618C231.512 74.553 231.99 74.1483 232.366 73.7437C232.406 73.7038 232.435 73.7437 232.423 73.8007C232.321 74.6385 231.91 75.4649 231.084 75.5105C230.258 75.5561 229.904 74.7468 229.83 73.8805C229.819 73.7209 229.967 73.4986 230.098 73.6126Z" fill="#263238"/>
<path d="M218.169 84.1792C218.403 84.5724 218.602 85.0854 219.07 85.2507C219.564 85.374 220.079 85.3896 220.58 85.2962C220.626 85.2962 220.66 85.3475 220.62 85.3817C220.094 85.8094 219.375 85.9124 218.751 85.6496C218.237 85.359 217.949 84.7876 218.021 84.202C217.998 84.1222 218.135 84.1222 218.169 84.1792Z" fill="#263238"/>
<path d="M224.9 80.0187C224.9 80.0187 224.718 82.3896 224.524 83.3357C224.524 83.4212 221.184 82.9083 219.936 80.4861C219.885 80.3835 220.033 80.3037 220.107 80.3835C221.117 81.477 222.452 82.2164 223.914 82.4922C224.034 82.2472 224.08 78.8731 224.233 78.8902C224.951 79.109 225.637 79.4214 226.274 79.8192C226.684 75.539 226.405 71.2303 226.878 66.9729C226.878 66.9005 226.937 66.8418 227.009 66.8418C227.081 66.8418 227.14 66.9005 227.14 66.9729C227.75 71.4697 227.385 76.4053 227.077 80.8394C227.043 81.3695 225.248 80.2581 224.9 80.0187Z" fill="#263238"/>
<path d="M227.511 54.9414C227.511 54.9414 227.511 58.0077 225.995 59.8258C222.86 63.5646 218.015 61.1138 215.85 62.3449C213.798 63.4848 213.524 66.9044 211.632 68.124C209.005 69.7826 206.434 68.2038 205.711 69.5945C204.987 70.9851 202.798 75.4192 200.775 75.5332C198.752 75.6472 199.031 42.2262 222.495 48.6437C222.495 48.6437 226.621 48.5639 231.141 52.5534C236.134 56.9533 235.701 69.1271 235.701 69.1271C235.662 68.1922 235.417 67.2774 234.982 66.4484C234.071 65.092 233.843 64.0091 233.176 63.1086C232.093 61.6895 231.244 61.9004 230.098 60.4926C228.36 58.3326 227.511 54.9414 227.511 54.9414Z" fill="#263238"/>
<path d="M227.494 53.4824C227.555 54.8028 227.467 56.1258 227.231 57.4264C227.071 58.7106 226.562 59.9266 225.761 60.9429C224.851 61.8243 223.652 62.3449 222.387 62.4076C221.116 62.5387 219.799 62.3278 218.397 62.5045C217.683 62.5924 217.005 62.8721 216.437 63.3138C215.925 63.798 215.514 64.3792 215.229 65.0236C214.659 66.2148 214.054 67.3889 212.994 68.0728C211.919 68.775 210.589 68.9689 209.358 68.6028C208.121 68.2837 206.85 67.5826 205.511 67.8163C206.868 67.6909 208.007 68.4603 209.267 68.8935C210.593 69.3534 212.054 69.201 213.257 68.4774C214.505 67.7707 215.149 66.4257 215.741 65.2858C216.001 64.7173 216.371 64.206 216.83 63.7812C217.317 63.416 217.894 63.1913 218.5 63.1314C219.742 62.9434 221.076 63.1314 222.432 62.9833C223.117 62.9143 223.788 62.7433 224.422 62.476C225.086 62.2279 225.676 61.8116 226.131 61.2677C226.94 60.1578 227.427 58.8464 227.539 57.4777C227.678 56.1486 227.663 54.8079 227.494 53.4824Z" fill="#263238"/>
<path d="M227.687 54.7249C227.625 55.9641 227.728 57.2062 227.995 58.418C228.231 59.683 228.84 60.8482 229.745 61.7636C230.212 62.1806 230.72 62.5491 231.261 62.8635C231.733 63.1661 232.112 63.5944 232.355 64.1003C232.525 64.6917 232.755 65.2645 233.039 65.8101C233.373 66.3413 233.823 66.7896 234.356 67.121C233.913 66.7097 233.559 66.2135 233.313 65.6619C233.091 65.1088 232.922 64.5364 232.805 63.9521C232.581 63.3181 232.16 62.7727 231.603 62.3962C231.096 62.086 230.619 61.7292 230.178 61.3304C229.356 60.4841 228.767 59.4396 228.468 58.2984C228.127 57.1263 227.866 55.9324 227.687 54.7249Z" fill="#263238"/>
<path d="M204.571 73.2306C204.571 73.2306 201.721 66.3002 198.689 67.1779C195.657 68.0556 196.814 77.4368 199.732 79.3517C200.455 79.8983 201.369 80.1263 202.264 79.9833C203.159 79.8402 203.957 79.3384 204.474 78.5937L204.571 73.2306Z" fill="#D3766A"/>
<path d="M199.094 69.8623C199.042 69.8623 199.019 69.9136 199.059 69.9421C201.088 71.3555 201.795 73.6923 202.131 76.029C201.653 75.0487 200.855 74.3933 199.567 74.929C199.498 74.929 199.532 75.0658 199.601 75.0658C200.463 74.9912 201.279 75.4686 201.636 76.257C201.924 76.9044 202.141 77.5808 202.285 78.2746C202.342 78.4968 202.73 78.4683 202.707 78.2233C202.707 78.2233 202.707 78.1834 202.707 78.1663C203.402 75.328 202.091 70.8711 199.094 69.8623Z" fill="#263238"/>
<path d="M223.909 191.458C215.827 192.324 208.064 187.309 182.611 167.549C179.089 164.814 188.396 133.627 192.87 135.308C198.809 137.548 217.919 152.811 219.127 154.036C229.329 164.341 229.397 190.865 223.909 191.458Z" fill="#D3766A"/>
<path d="M198.051 136.226L192.95 177.859C192.95 177.859 216.214 194.747 224.342 193.134C229.693 192.074 230.201 163.611 218.072 153.079L198.051 136.226Z" fill="#455A64"/>
<path d="M201.841 180.173C202.639 175.677 203.191 171.14 203.738 166.603C204.286 162.066 204.833 157.53 205.26 152.976C205.505 150.4 205.767 147.847 205.921 145.248C205.921 145.179 205.813 145.156 205.796 145.248C205.004 149.733 204.428 154.27 203.852 158.795C203.277 163.32 202.752 167.88 202.268 172.422C201.994 174.993 201.767 177.552 201.613 180.151C201.607 180.259 201.818 180.299 201.841 180.173Z" fill="#263238"/>
<path d="M197.919 137.411L197.845 135.935V135.758C200.934 137.884 203.961 140.084 206.907 142.398C211.934 146.439 217.098 150.491 221.196 155.507C223.917 159.31 225.699 163.705 226.393 168.33C225.2 163.92 223.168 159.781 220.409 156.139C218.612 154.086 216.677 152.157 214.619 150.366C209.894 146.08 202.809 140.215 197.88 136.026L198.022 135.958L197.919 137.434V137.411Z" fill="#263238"/>
<path d="M169.85 61.5812C167.975 57.9678 173.31 57.8253 173.31 57.8253C173.31 57.8253 165.564 56.1782 165.086 51.7042C164.624 47.3898 171.076 47.4411 171.537 47.4411C171.127 47.3499 164.065 45.6515 164.037 41.1034C164.008 36.3787 170.471 37.547 170.876 37.6211C170.517 37.4159 165.826 34.6062 166.59 31.1409C167.901 25.1965 178.496 32.2808 183.187 30.7534C183.187 30.7534 183.187 20.0728 183.187 19.822C183.187 19.822 189.484 24.6152 191.303 26.8037C193.48 29.4311 196.13 32.6741 196.563 34.7828C197.022 36.6977 196.175 38.6875 194.477 39.6843C194.477 39.6843 198.467 41.2915 198.621 44.8707C198.689 46.7116 195.805 48.4499 195.805 48.4499C195.805 48.4499 198.962 49.8747 198.888 53.0664C198.837 55.614 195.953 56.9647 195.953 56.9647C195.953 56.9647 198.353 59.7346 197.452 62.3221C195.651 67.5199 173.874 69.3209 169.85 61.5812Z" fill="#D3766A"/>
<path d="M195.531 57.2269C195.563 57.219 195.595 57.2381 195.603 57.2696C195.611 57.3011 195.591 57.333 195.56 57.3408C188.544 59.6776 180.12 60.0993 173.019 57.8595C172.791 57.7911 172.808 57.3807 173.082 57.4092C180.833 58.3325 187.792 58.5035 195.531 57.2269Z" fill="#263238"/>
<path d="M195.919 48.467C196.005 48.467 196.027 48.5924 195.919 48.6209C188.675 50.9918 179.169 51.2027 171.292 47.6634C171.024 47.5437 170.905 47.1619 171.224 47.2759C176.661 49.2136 188.932 49.6468 195.919 48.467Z" fill="#263238"/>
<path d="M170.426 37.1879C178.109 40.2884 186.014 40.6075 194.181 39.7811C194.289 39.7811 194.295 39.9236 194.209 39.9578C190.322 41.451 185.062 41.4396 180.97 41.0977C177.163 40.8365 173.491 39.5849 170.318 37.4672C170.192 37.3703 170.261 37.1195 170.426 37.1879Z" fill="#263238"/>
<path d="M169.85 164.99C167.975 161.371 173.31 161.229 173.31 161.229C173.31 161.229 165.564 159.587 165.086 155.108C164.624 150.793 171.076 150.85 171.537 150.85C171.127 150.759 164.065 149.06 164.037 144.512C164.008 139.782 170.471 140.95 170.876 141.03C170.517 140.825 165.826 138.009 166.59 134.55C167.901 128.605 178.496 135.69 183.187 134.162C183.187 134.162 183.187 125.744 183.187 125.494C183.187 125.494 187.957 129.324 190.465 131.028C193.28 132.948 196.13 136.077 196.563 138.169C197.025 140.086 196.178 142.079 194.477 143.076C194.477 143.076 198.467 144.683 198.621 148.263C198.689 150.098 195.805 151.842 195.805 151.842C195.805 151.842 198.962 153.267 198.888 156.458C198.837 159.006 195.953 160.351 195.953 160.351C195.953 160.351 198.353 163.126 197.452 165.708C195.651 170.929 173.874 172.724 169.85 164.99Z" fill="#D3766A"/>
<path d="M195.531 160.636C195.563 160.628 195.595 160.647 195.603 160.679C195.611 160.71 195.591 160.742 195.56 160.75C188.544 163.087 180.12 163.503 173.019 161.269C172.791 161.195 172.808 160.784 173.082 160.818C180.833 161.725 187.792 161.907 195.531 160.636Z" fill="#263238"/>
<path d="M195.919 151.876C196.005 151.876 196.027 152.001 195.919 152.03C188.675 154.401 179.169 154.612 171.292 151.072C171.024 150.947 170.905 150.571 171.224 150.685C176.661 152.645 188.932 153.056 195.919 151.876Z" fill="#263238"/>
<path d="M170.426 140.591C178.109 143.698 186.014 144.011 194.181 143.19C194.289 143.19 194.295 143.333 194.209 143.367C190.322 144.86 185.062 144.849 180.97 144.507C177.163 144.248 173.49 142.997 170.318 140.876C170.192 140.78 170.261 140.529 170.426 140.591Z" fill="#263238"/>
<rect x="62.4287" y="0.769043" width="1" height="234.603" fill="#EBEBEB"/>
<path d="M32.5413 147.881C21.3022 175.124 13.8589 225.808 21.7126 232.26C30.4839 239.447 46.0602 201.335 45.3079 199.773C44.738 198.605 44.0028 169.96 43.7634 149.004C43.524 128.047 35.3169 141.15 32.5413 147.881Z" fill="#EB9481"/>
<path d="M45.5187 199.745C45.2509 196.759 44.6752 158.824 44.1053 146.98C43.5353 135.137 38.8448 133.302 32.2791 147.055C25.7135 160.807 15.7795 201.768 17.4209 220.707C18.9996 238.945 27.3321 235.526 35.2884 223.597C41.797 213.817 45.5187 199.745 45.5187 199.745Z" fill="#8B80F8"/>
<path d="M41.7971 158.271C41.334 159.429 41.0403 160.648 40.925 161.89C41.6725 160.89 42.2696 159.786 42.6975 158.613C43.1687 157.455 43.4719 156.237 43.598 154.994C42.8471 155.996 42.2408 157.099 41.7971 158.271ZM26.7564 197.534C25.6089 198.028 24.5395 198.686 23.5819 199.489C24.8162 199.306 26.0178 198.947 27.1497 198.423C28.3015 197.933 29.3749 197.276 30.3356 196.474C29.0992 196.659 27.8945 197.016 26.7564 197.534ZM22.7099 219.938C22.2413 221.095 21.9419 222.314 21.8208 223.557C22.5682 222.557 23.1689 221.455 23.6047 220.285C24.0704 219.126 24.3642 217.905 24.4767 216.661C23.7353 217.664 23.1404 218.767 22.7099 219.938ZM38.5541 181.302C37.3949 180.842 36.1764 180.549 34.935 180.43C36.959 181.905 39.3352 182.823 41.8255 183.091C40.8252 182.343 39.7238 181.741 38.5541 181.302ZM40.6743 210.807C39.5154 210.347 38.2968 210.053 37.0552 209.935C38.0605 210.681 39.1656 211.281 40.338 211.719C40.6458 211.833 40.9592 211.942 41.2727 212.039C41.3924 211.759 41.5007 211.469 41.609 211.212C41.3183 211.075 40.9877 210.933 40.6743 210.807ZM25.6166 169.647C25.2689 169.812 24.9269 169.977 24.585 170.16C24.4995 170.49 24.4083 170.826 24.3285 171.163C24.8954 170.982 25.4527 170.773 25.9984 170.536C27.1491 170.041 28.2222 169.383 29.1844 168.581C27.9504 168.764 26.7489 169.123 25.6166 169.647Z" fill="white"/>
<path opacity="0.1" d="M19.9629 230.898C23.3825 236.54 29.4409 232.379 35.2828 223.597C41.7971 213.817 45.5416 199.745 45.5416 199.745C45.2794 196.759 44.7038 158.824 44.1339 146.986C43.8831 141.771 42.8287 138.5 41.1759 137.645L19.9629 230.898Z" fill="black"/>
<path d="M62.4059 235.372V134.972C61.0702 133.938 59.6455 133.024 58.1485 132.242C49.8388 128.07 37.9101 133.604 37.5054 144.712C35.9609 186.83 62.4059 235.372 62.4059 235.372Z" fill="#8B80F8"/>
<path d="M59.334 209.964C60.3843 209.822 61.4114 209.542 62.3888 209.132V208.089C61.2882 208.569 60.26 209.2 59.334 209.964ZM57.2765 145.715C56.1269 146.205 55.0539 146.857 54.0906 147.653C55.3285 147.463 56.5347 147.104 57.6755 146.587C58.8184 146.095 59.8854 145.442 60.8443 144.649C59.6094 144.829 58.4075 145.188 57.2765 145.715ZM43.2789 135.456C42.7887 135.274 42.2929 135.109 41.7857 134.966C41.5862 135.154 41.3867 135.354 41.2157 135.536C41.7818 135.834 42.364 136.101 42.9597 136.334C44.1185 136.795 45.3371 137.089 46.5788 137.206C45.5706 136.477 44.4657 135.892 43.296 135.468L43.2789 135.456ZM41.78 158.254C41.317 159.412 41.0233 160.631 40.908 161.873C41.6554 160.873 42.2525 159.769 42.6805 158.596C43.1559 157.445 43.4648 156.232 43.5981 154.994C42.8471 155.996 42.2408 157.099 41.7971 158.271L41.78 158.254ZM51.8849 194.342C51.4121 195.499 51.1163 196.721 51.0072 197.967C51.747 196.964 52.3436 195.863 52.7797 194.695C53.2339 193.534 53.5273 192.317 53.6517 191.076C52.919 192.084 52.3301 193.189 51.902 194.359L51.8849 194.342ZM54.0222 170.148C52.8646 169.683 51.6454 169.389 50.4031 169.276C51.4033 170.02 52.505 170.617 53.6745 171.049C54.8321 171.514 56.0513 171.807 57.2936 171.921C56.2937 171.19 55.1988 170.6 54.0393 170.165L54.0222 170.148Z" fill="white"/>
<path d="M42.9883 147.619C47.827 148.092 53.2471 139.446 54.1077 133.023C54.1647 132.584 48.0607 118.37 46.9379 115.457C46.71 114.887 30.4098 126.953 30.4098 126.953C30.4098 126.953 34.5646 132.367 36.4967 137.457C36.6463 137.862 36.7588 138.28 36.833 138.705C36.8446 138.775 36.8618 138.843 36.8842 138.91C37.363 141.327 40.5147 147.379 42.9883 147.619Z" fill="#EB9481"/>
<path d="M36.8558 138.91C37.51 138.753 38.1504 138.544 38.7708 138.283C48.2716 134.368 47.1773 121.31 46.2426 115.742C43.0909 117.543 30.3756 126.953 30.3756 126.953C30.3756 126.953 34.5361 132.362 36.4625 137.462C36.6185 137.862 36.7331 138.276 36.8045 138.699C36.8154 138.771 36.8326 138.841 36.8558 138.91Z" fill="#263238"/>
<path d="M45.3478 93.925C48.7674 100.325 49.0581 120.712 45.0799 126.064C39.3122 133.815 27.9306 136.693 20.8577 129.318C14.0184 122.165 14.0925 95.5778 18.7204 90.5225C25.5311 83.0734 40.2868 84.464 45.3478 93.925Z" fill="#EB9481"/>
<path d="M30.8657 109.285C30.8657 109.234 30.9797 109.348 30.974 109.405C30.974 110.778 31.1677 112.357 32.4216 112.784C32.4615 112.784 32.4558 112.87 32.4216 112.864C30.8885 112.682 30.632 110.584 30.8657 109.285Z" fill="#263238"/>
<path d="M32.0683 107.826C34.274 107.615 34.5304 112.043 32.4844 112.237C30.4383 112.431 30.216 108.002 32.0683 107.826Z" fill="#263238"/>
<path d="M22.67 109.741C22.67 109.684 22.5674 109.809 22.5731 109.866C22.6985 111.234 22.6073 112.824 21.3934 113.349C21.3535 113.349 21.3649 113.434 21.3934 113.428C22.9094 113.126 23.0063 111.017 22.67 109.741Z" fill="#263238"/>
<path d="M21.3706 108.379C19.1535 108.339 19.239 112.773 21.2908 112.807C23.3425 112.841 23.2229 108.407 21.3706 108.379Z" fill="#263238"/>
<path d="M33.3392 105.637C32.718 105.575 32.1594 105.415 31.5553 105.295C30.9512 105.176 30.3071 105.113 29.7942 104.594C29.5377 104.258 29.5377 103.791 29.7942 103.454C30.3641 102.771 31.2475 102.736 32.0739 102.885C32.9167 102.993 33.6887 103.412 34.2397 104.059C34.4698 104.376 34.4929 104.798 34.2988 105.138C34.1046 105.479 33.7293 105.674 33.3392 105.637Z" fill="#263238"/>
<path d="M19.4784 106.532C20.0599 106.336 20.6307 106.11 21.1882 105.854C21.8156 105.694 22.3738 105.333 22.7783 104.828C22.9812 104.447 22.8989 103.977 22.5789 103.688C21.8836 103.118 21.0115 103.261 20.225 103.557C19.4207 103.824 18.7444 104.381 18.3271 105.119C18.1489 105.47 18.1945 105.894 18.4434 106.199C18.6924 106.505 19.098 106.635 19.4784 106.532Z" fill="#263238"/>
<path d="M32.6097 122C32.3019 122.336 31.9999 122.798 31.504 122.872C30.9914 122.893 30.4802 122.804 30.0051 122.61C29.9848 122.6 29.9605 122.606 29.9477 122.625C29.9349 122.643 29.9375 122.669 29.9538 122.684C30.3895 123.203 31.0741 123.441 31.7377 123.305C32.3029 123.134 32.7097 122.639 32.7693 122.051C32.7693 121.972 32.6553 121.949 32.6097 122Z" fill="#263238"/>
<path d="M30.9284 117.976C30.2942 119.124 29.2059 119.952 27.9305 120.256C27.3834 120.395 26.819 120.455 26.2549 120.433C26.1488 120.444 26.0418 120.444 25.9357 120.433H25.6337C25.4807 120.414 25.3593 120.295 25.3373 120.142C25.3313 120.095 25.3313 120.047 25.3373 120V119.868C25.2461 118.814 25.2575 117.201 25.2575 117.201C24.8814 117.418 22.9778 118.415 22.9778 117.862C22.9778 113.303 22.9778 108.173 23.9695 103.614C23.9695 103.545 24.0256 103.489 24.0948 103.489C24.1641 103.489 24.2202 103.545 24.2202 103.614C24.3855 108.02 23.7814 112.419 23.8783 116.848C24.5589 116.481 25.2881 116.212 26.044 116.05C26.1922 116.084 25.9699 119.167 26.044 119.635C26.043 119.652 26.043 119.669 26.044 119.686C27.8279 119.811 29.1331 119.196 30.7859 117.908C30.8885 117.777 31.0025 117.862 30.9284 117.976Z" fill="#263238"/>
<path d="M27.1498 120.279C27.877 120.91 28.7543 121.344 29.6974 121.538C30.2142 121.629 30.7466 121.556 31.2191 121.327C32.245 120.826 32.074 119.823 31.6979 119.008C31.4957 118.577 31.2431 118.171 30.9455 117.8C29.9781 119.011 28.6477 119.88 27.1498 120.279Z" fill="#263238"/>
<path d="M29.6973 121.538C30.2142 121.629 30.7465 121.556 31.2191 121.327C32.245 120.826 32.074 119.823 31.6978 119.008C30.558 119.361 29.5663 120.387 29.6973 121.538Z" fill="#FF98B9"/>
<path d="M47.3938 110.812C42.3613 111.616 39.1868 105.808 39.9448 100.85C39.9448 100.85 26.6425 103.819 25.041 93.0701C25.041 93.0701 22.2369 98.2394 16.15 98.9404L15.58 102.81C14.1666 102.531 12.3485 98.741 15.4546 95.3612C15.4546 95.3612 15.2153 89.9525 18.8743 86.3733C20.899 84.2787 23.9633 83.5651 26.7052 84.5496C28.8971 82.6449 31.7451 81.6697 34.6444 81.831C39.6598 82.0304 42.0991 86.3904 42.0991 86.3904C42.0991 86.3904 48.8814 87.0744 50.4316 91.7136C51.3797 94.3534 51.1579 97.2721 49.8218 99.7383C49.8218 99.7383 51.657 101.448 51.1611 105.569C50.8477 108.219 48.9042 110.573 47.3938 110.812Z" fill="#263238"/>
<path d="M25.2575 92.0842C25.2323 92.9703 25.2991 93.8565 25.457 94.7287C25.595 95.5898 25.8341 96.4315 26.1694 97.2365C26.8273 98.8303 28.0629 100.117 29.6289 100.838C31.1677 101.642 32.9744 101.631 34.7013 101.648C35.5733 101.545 36.4567 101.505 37.3287 101.351C38.2007 101.198 39.0385 100.998 39.9447 100.85C39.1012 101.135 38.2349 101.38 37.3914 101.653C36.5479 101.927 35.6246 101.967 34.7355 102.132C32.9573 102.218 31.0594 102.218 29.3496 101.408C27.6627 100.603 26.3562 99.172 25.7077 97.4188C25.1135 95.7063 24.9587 93.8721 25.2575 92.0842Z" fill="#263238"/>
<path d="M18.8685 98.9462C20.2968 98.3141 21.6103 97.4493 22.7555 96.3872C23.3107 95.8598 23.7919 95.2598 24.186 94.6033C24.582 93.9245 24.9012 93.2039 25.1378 92.4546C25.1341 93.2733 24.9554 94.0817 24.6135 94.8255C24.2766 95.5823 23.7923 96.2644 23.1886 96.8317C22.5959 97.4004 21.9169 97.8717 21.1768 98.2281C20.4519 98.5922 19.6721 98.8348 18.8685 98.9462Z" fill="#263238"/>
<path d="M43.5297 110.818C43.5297 110.818 47.1545 103.779 50.2891 104.987C53.4238 106.196 51.3036 115.976 48.0493 117.714C47.2377 118.223 46.2534 118.378 45.3246 118.143C44.3959 117.909 43.6034 117.305 43.1307 116.472L43.5297 110.818Z" fill="#EB9481"/>
<path d="M49.6109 107.774C49.6622 107.774 49.685 107.837 49.6109 107.866C47.3311 109.165 46.3793 111.559 45.8037 113.987C46.3736 113.006 47.3083 112.385 48.6135 113.075C48.6819 113.109 48.6135 113.217 48.5622 113.212C47.6524 113.042 46.7356 113.47 46.2824 114.277C45.9193 114.931 45.6288 115.623 45.4162 116.341C45.3307 116.569 44.926 116.506 44.9773 116.249C44.9746 116.229 44.9746 116.207 44.9773 116.187C44.5612 113.138 46.3622 108.527 49.6109 107.774Z" fill="#263238"/>
<path d="M22.5104 231.593C30.5921 232.459 38.3547 227.444 63.808 207.684C67.3302 204.949 58.0231 173.762 53.5491 175.443C47.6104 177.683 28.5005 192.946 27.2865 194.171C17.0961 204.498 17.0334 231.023 22.5104 231.593Z" fill="#EB9481"/>
<path d="M48.3627 176.378L53.458 218.011C53.458 218.011 30.1932 234.899 22.0659 233.303C16.7142 232.243 16.207 203.78 28.3352 193.248L48.3627 176.378Z" fill="#8B80F8"/>
<path d="M36.4055 228.686C35.9246 227.535 35.2754 226.461 34.4791 225.5C34.6676 226.733 35.0263 227.934 35.5449 229.068L35.5904 229.165L36.4169 228.743C36.4204 228.724 36.4163 228.703 36.4055 228.686ZM26.7564 197.534C25.6089 198.028 24.5395 198.686 23.5819 199.488C24.8162 199.306 26.0178 198.947 27.1497 198.423C28.3015 197.933 29.3749 197.276 30.3356 196.474C29.0992 196.659 27.8945 197.016 26.7564 197.534ZM22.7099 219.938C22.2413 221.095 21.9419 222.314 21.8208 223.557C22.5682 222.557 23.1689 221.455 23.6047 220.285C24.0704 219.126 24.3642 217.905 24.4767 216.661C23.7353 217.664 23.1404 218.767 22.7099 219.938ZM41.0447 182.539L40.5945 182.92C41.0007 183.004 41.4119 183.061 41.8255 183.091C41.5691 182.892 41.3183 182.71 41.0447 182.539ZM40.6743 210.807C39.5154 210.347 38.2968 210.053 37.0552 209.935C38.0605 210.681 39.1656 211.281 40.338 211.719C41.499 212.18 42.7194 212.473 43.9628 212.591C42.9586 211.841 41.8509 211.24 40.6743 210.807Z" fill="white"/>
<path d="M44.5841 220.325C43.7919 215.829 43.2333 211.292 42.6919 206.755C42.1505 202.219 41.5919 197.676 41.1645 193.128C40.9194 190.552 40.6629 187.999 40.509 185.4C40.509 185.331 40.6173 185.309 40.6287 185.4C41.4266 189.891 42.0023 194.428 42.5722 198.953C43.1421 203.478 43.6722 208.032 44.1566 212.58C44.4302 215.15 44.6582 217.709 44.812 220.308C44.8177 220.411 44.6069 220.456 44.5841 220.325Z" fill="#263238"/>
<path d="M48.5053 177.563L48.5794 176.087V175.91C45.5074 178.019 42.4583 180.236 39.5288 182.579C34.4792 186.568 29.3497 190.643 25.2405 195.687C22.5205 199.482 20.7374 203.866 20.037 208.482C21.2212 204.059 23.2516 199.908 26.0156 196.257C27.8147 194.203 29.7512 192.275 31.8119 190.484C36.5309 186.198 43.6209 180.333 48.5452 176.144L48.4027 176.076L48.5053 177.552V177.563Z" fill="#263238"/>
<path d="M75.7766 205.142C77.6574 201.523 72.3228 201.381 72.3228 201.381C72.3228 201.381 80.0454 199.734 80.5413 195.26C81.0029 190.945 74.5512 191.002 74.0896 191.002C74.4999 190.911 81.5615 189.213 81.5956 184.665C81.6241 179.934 75.1554 181.102 74.7564 181.182C75.1155 180.977 79.8061 178.162 79.048 174.702C77.7372 168.758 67.1364 175.842 62.4515 174.315C62.4515 174.315 62.4515 165.897 62.4515 165.646L58.6215 164.569C57.4304 166.637 55.5154 168.872 53.6973 171.06C51.5201 173.688 49.5083 176.23 49.0751 178.321C48.6102 180.236 49.4585 182.23 51.1611 183.223C51.1611 183.223 47.1715 184.836 47.012 188.415C46.9435 190.25 49.8274 191.994 49.8274 191.994C49.8274 191.994 46.67 193.413 46.7498 196.61C46.8011 199.158 49.6793 200.503 49.6793 200.503C49.6793 200.503 47.2855 203.279 48.186 205.86C49.9813 211.075 71.7528 212.876 75.7766 205.142Z" fill="#EB9481"/>
<path d="M60.6278 173.015L62.4459 165.669C62.4459 158.539 53.76 149.67 51.9191 155.723C50.5114 160.322 55.8061 166.552 53.6802 171.06L60.6278 173.015Z" fill="#EB9481"/>
<path d="M50.101 200.816C50.0695 200.807 50.0364 200.825 50.0269 200.856C50.0175 200.888 50.0354 200.921 50.0668 200.93C57.0827 203.267 65.5121 203.683 72.6078 201.449C72.8415 201.375 72.8244 200.965 72.5508 200.999C64.794 201.877 57.8465 202.059 50.101 200.816Z" fill="#263238"/>
<path d="M49.7078 192.028C49.628 192.028 49.5995 192.153 49.7078 192.182C56.9517 194.553 66.4525 194.764 74.329 191.224C74.6026 191.099 74.7222 190.723 74.3974 190.837C68.9659 192.792 56.6724 193.208 49.7078 192.028Z" fill="#263238"/>
<path d="M75.2067 180.743C67.5182 183.849 59.6132 184.163 51.446 183.342C51.3434 183.342 51.3378 183.485 51.446 183.519C55.333 185.012 60.565 185.001 64.6856 184.659C68.4926 184.4 72.1653 183.148 75.3377 181.028C75.4403 180.926 75.3662 180.681 75.2067 180.743Z" fill="#263238"/>
<path d="M100.022 81.9163C99.1826 89.9577 93.8811 96.8388 86.3195 99.7009C78.758 102.563 70.2289 100.917 64.2754 95.4466L53.572 97.0196L58.9294 87.7638C55.5667 79.5126 57.6697 70.0411 64.2084 63.9883C70.7471 57.9355 80.3525 56.5687 88.3201 60.5572C96.2876 64.5457 100.949 73.0546 100.022 81.9163Z" fill="white"/>
<path d="M100.022 81.9164C99.6029 85.8541 98.1083 89.6005 95.7016 92.7452C95.1037 93.5284 94.4565 94.2727 93.7639 94.9736C93.0443 95.6585 92.2829 96.2981 91.4841 96.8886C89.904 98.0743 88.166 99.0335 86.3205 99.7383C83.5469 100.838 80.5686 101.326 77.5891 101.169C76.5966 101.143 75.6076 101.04 74.6311 100.861C70.6853 100.133 67.0192 98.3241 64.0417 95.6348L64.2982 95.7088L53.6062 97.3503L52.8311 97.47L53.2243 96.786L58.5475 87.5189L58.519 87.8836C55.9771 81.6667 56.4634 74.6222 59.8356 68.8136C61.5018 65.9591 63.7933 63.5195 66.538 61.678C72.0902 58.002 79.0196 57.0696 85.3459 59.1475C88.4387 60.1966 91.2569 61.9261 93.5928 64.2085C98.3435 68.8094 100.714 75.3394 100.022 81.9164ZM100.022 81.9164C100.715 75.386 98.3378 68.9037 93.5872 64.3696C88.8366 59.8354 82.2506 57.7631 75.7596 58.7599C72.5866 59.2341 69.5645 60.4292 66.9256 62.2536C64.3087 64.0882 62.1227 66.4706 60.5195 69.2353C58.9482 72.0082 58.0228 75.1 57.8123 78.2802C57.6148 81.4596 58.1288 84.643 59.3169 87.5986L59.3967 87.7924L59.2941 87.9691L53.9082 97.2021L53.5207 96.6321L64.2355 95.1332H64.3837L64.4919 95.2301C67.3531 97.9107 70.9063 99.7386 74.7508 100.508C75.7069 100.702 76.6769 100.82 77.6518 100.861C78.627 100.932 79.606 100.932 80.5812 100.861C82.5298 100.708 84.4478 100.286 86.2806 99.6072C88.1268 98.9375 89.8646 98.0004 91.4385 96.8259C92.2355 96.2433 92.9968 95.6133 93.7183 94.9394C94.411 94.243 95.06 93.5045 95.6617 92.728C98.0839 89.595 99.5928 85.8533 100.022 81.9164Z" fill="#263238"/>
<path d="M80.7294 80.3377C80.7325 81.4023 79.8714 82.2677 78.8068 82.2698C77.7421 82.2719 76.8776 81.4099 76.8766 80.3453C76.8755 79.2806 77.7383 78.417 78.803 78.417C79.8647 78.417 80.7262 79.276 80.7294 80.3377Z" fill="#263238"/>
<path d="M71.4452 80.3377C71.4483 81.4023 70.5873 82.2677 69.5226 82.2698C68.4579 82.2719 67.5935 81.4099 67.5924 80.3453C67.5914 79.2806 68.4541 78.417 69.5188 78.417C70.5805 78.417 71.442 79.276 71.4452 80.3377Z" fill="#263238"/>
<path d="M90.0079 80.3377C90.011 81.4023 89.15 82.2677 88.0853 82.2698C87.0207 82.2719 86.1562 81.4099 86.1552 80.3453C86.1541 79.2806 87.0169 78.417 88.0815 78.417C89.1432 78.417 90.0048 79.276 90.0079 80.3377Z" fill="#263238"/>
</svg>
