<svg xmlns="http://www.w3.org/2000/svg" width="279.889" height="283.268" viewBox="0 0 279.889 283.268">
  <g id="Error_429-bro" data-name="Error 429-bro" transform="translate(-25.06 -13.24)">
    <g id="freepik--background-simple--inject-2" transform="translate(32.345 21.486)">
      <path id="Path_2459" data-name="Path 2459" d="M288.472,105.68s-25.826-70.6-115.6-78.956S76.949,129.609,60.347,165.507c-10.429,22.607-25.876,45.956-23.188,71.7,8.137,77.967,108.49,63.1,162.626,51.035,3.707-.828,7.464-1.687,11.208-2.471,31.362-6.586,70.714,1.792,87.921-32.289S311.84,148.757,288.472,105.68Z" transform="translate(-36.85 -26.277)" fill="#8b80f8"/>
      <path id="Path_2460" data-name="Path 2460" d="M288.472,105.68s-25.826-70.6-115.6-78.956S76.949,129.609,60.347,165.507c-10.429,22.607-25.876,45.956-23.188,71.7,8.137,77.967,108.49,63.1,162.626,51.035,3.707-.828,7.464-1.687,11.208-2.471,31.362-6.586,70.714,1.792,87.921-32.289S311.84,148.757,288.472,105.68Z" transform="translate(-36.85 -26.277)" fill="#fff" opacity="0.7"/>
    </g>
    <g id="freepik--Arms--inject-2" transform="translate(41.297 130.7)">
      <rect id="Rectangle_617" data-name="Rectangle 617" width="2.83" height="12.036" transform="translate(172.086 105.895)" fill="#263238"/>
      <path id="Path_2461" data-name="Path 2461" d="M335.24,374.43v3.293h2.212v5.443H335.24v3.3h5.567V374.43Z" transform="translate(-159.83 -268.535)" fill="#263238"/>
      <rect id="Rectangle_618" data-name="Rectangle 618" width="4.751" height="4.449" transform="translate(172.086 109.688)" fill="#263238"/>
      <rect id="Rectangle_619" data-name="Rectangle 619" width="2.83" height="12.036" transform="translate(180.977 105.895)" fill="#263238"/>
      <path id="Path_2462" data-name="Path 2462" d="M349.63,374.43v3.293h2.218v5.443H349.63v3.3H355.2V374.43Z" transform="translate(-165.329 -268.535)" fill="#263238"/>
      <rect id="Rectangle_620" data-name="Rectangle 620" width="4.751" height="4.449" transform="translate(180.977 109.688)" fill="#263238"/>
      <rect id="Rectangle_621" data-name="Rectangle 621" width="2.83" height="12.036" transform="translate(189.874 105.895)" fill="#263238"/>
      <path id="Path_2463" data-name="Path 2463" d="M364.03,374.43v3.293h2.212v5.443H364.03v3.3H369.6V374.43Z" transform="translate(-170.832 -268.535)" fill="#263238"/>
      <rect id="Rectangle_622" data-name="Rectangle 622" width="4.751" height="4.449" transform="translate(189.874 109.688)" fill="#263238"/>
      <rect id="Rectangle_623" data-name="Rectangle 623" width="2.83" height="12.036" transform="translate(198.771 105.895)" fill="#263238"/>
      <path id="Path_2464" data-name="Path 2464" d="M378.43,374.43v3.293h2.212v5.443H378.43v3.3H384V374.43Z" transform="translate(-176.335 -268.535)" fill="#263238"/>
      <rect id="Rectangle_624" data-name="Rectangle 624" width="4.751" height="4.449" transform="translate(198.771 109.688)" fill="#263238"/>
      <rect id="Rectangle_625" data-name="Rectangle 625" width="2.83" height="12.036" transform="translate(207.662 105.895)" fill="#263238"/>
      <path id="Path_2465" data-name="Path 2465" d="M392.82,374.43v3.293h2.212v5.443H392.82v3.3h5.573V374.43Z" transform="translate(-181.834 -268.535)" fill="#263238"/>
      <rect id="Rectangle_626" data-name="Rectangle 626" width="4.751" height="4.449" transform="translate(207.662 109.688)" fill="#263238"/>
      <rect id="Rectangle_627" data-name="Rectangle 627" width="2.83" height="12.036" transform="translate(216.559 105.895)" fill="#263238"/>
      <path id="Path_2466" data-name="Path 2466" d="M407.22,374.43v3.293h2.212v5.443H407.22v3.3h5.573V374.43Z" transform="translate(-187.337 -268.535)" fill="#263238"/>
      <rect id="Rectangle_628" data-name="Rectangle 628" width="4.751" height="4.449" transform="translate(216.559 109.688)" fill="#263238"/>
      <rect id="Rectangle_629" data-name="Rectangle 629" width="2.83" height="12.036" transform="translate(225.45 105.895)" fill="#263238"/>
      <path id="Path_2467" data-name="Path 2467" d="M421.61,374.43v3.293h2.218v5.443H421.61v3.3h5.573V374.43Z" transform="translate(-192.836 -268.535)" fill="#263238"/>
      <rect id="Rectangle_630" data-name="Rectangle 630" width="4.751" height="4.449" transform="translate(225.45 109.688)" fill="#263238"/>
      <path id="Path_2468" data-name="Path 2468" d="M434.232,386.2a15.6,15.6,0,0,1-1.934.161l-.958.043h-.711V374.365h.711l.451-.031a5.22,5.22,0,0,0,.884-.074Z" transform="translate(-196.283 -268.47)" fill="#263238"/>
      <path id="Path_2469" data-name="Path 2469" d="M434.43,373.514l.525,3.25a13.44,13.44,0,0,0,1.792-.4l1.606,5.209a21.006,21.006,0,0,1-2.527.568l.525,3.256a22.323,22.323,0,0,0,7.21-2.471l-5.863-10.5A10.368,10.368,0,0,1,434.43,373.514Z" transform="translate(-197.735 -267.767)" fill="#263238"/>
      <path id="Path_2470" data-name="Path 2470" d="M435.888,384.156a20.49,20.49,0,0,1-2.657.488c-.884.049-1.854.117-2.6.1v-4.449c.84,0,1.446-.049,2.15-.074a15.735,15.735,0,0,0,2.008-.371Z" transform="translate(-196.283 -270.607)" fill="#263238"/>
      <path id="Path_2471" data-name="Path 2471" d="M448.8,380.1c-.513.4-1.032.785-1.557,1.162s-1.1.686-1.656,1.019l-5.863-10.5.76-.463c.235-.179.47-.358.711-.531Z" transform="translate(-199.757 -267.141)" fill="#263238"/>
      <path id="Path_2472" data-name="Path 2472" d="M442.47,368.741l2.162,2.471.68-.618.618-.68,4.09,3.584c-.29.321-.575.618-.871.958l-.958.871,2.163,2.471a21.817,21.817,0,0,0,4.807-5.894l-10.5-5.894A9.664,9.664,0,0,1,442.47,368.741Z" transform="translate(-200.807 -265.318)" fill="#263238"/>
      <path id="Path_2473" data-name="Path 2473" d="M449.142,376.8a19.155,19.155,0,0,1-4.263,3.287L442.71,376.2a14.585,14.585,0,0,0,3.238-2.471Z" transform="translate(-200.899 -268.268)" fill="#263238"/>
      <path id="Path_2474" data-name="Path 2474" d="M458.118,367.414a21.811,21.811,0,0,1-1.594,3.553l-10.5-5.894a10.764,10.764,0,0,0,.717-1.613Z" transform="translate(-202.164 -264.343)" fill="#263238"/>
      <path id="Path_2475" data-name="Path 2475" d="M447.37,360.707l3.145.989.235-.89.111-.445.068-.457,5.369.9-.1.618-.154.618c-.111.414-.216.834-.334,1.236l3.145.982c.179-.618.334-1.236.488-1.854s.222-1.236.321-1.884a14.049,14.049,0,0,0,.161-1.9l.043-.952V357H447.833v.686l-.031.439a5.126,5.126,0,0,1-.068.871c-.062.284-.068.581-.148.859S447.444,360.429,447.37,360.707Z" transform="translate(-202.68 -261.875)" fill="#263238"/>
      <path id="Path_2476" data-name="Path 2476" d="M457.185,363.855a19.086,19.086,0,0,1-1.915,5.042l-3.88-2.175a14.446,14.446,0,0,0,1.446-3.812Z" transform="translate(-204.216 -264.133)" fill="#263238"/>
      <rect id="Rectangle_631" data-name="Rectangle 631" width="12.036" height="2.83" transform="translate(245.154 92.302)" fill="#263238"/>
      <path id="Path_2477" data-name="Path 2477" d="M448.12,348.193h3.293v-2.212h5.449v2.212h3.293V342.62H448.12Z" transform="translate(-202.966 -256.379)" fill="#263238"/>
      <rect id="Rectangle_632" data-name="Rectangle 632" width="4.449" height="4.751" transform="translate(248.947 90.386)" fill="#263238"/>
      <path id="Path_2478" data-name="Path 2478" d="M460.026,337.17c.043.618.074,1.291.1,1.934v1.433H448.089v-1.4c0-.3-.043-.618-.049-.9Z" transform="translate(-202.936 -254.297)" fill="#263238"/>
      <path id="Path_2479" data-name="Path 2479" d="M447.377,333l3.275-.4-.142-.908a7.91,7.91,0,0,0-.21-.9l5.264-1.39c.1.42.235.834.3,1.236l.2,1.279,3.268-.4a21.354,21.354,0,0,0-2.212-7.3l-10.745,5.437a9.379,9.379,0,0,1,1.007,3.33Z" transform="translate(-202.298 -249.352)" fill="#263238"/>
      <path id="Path_2480" data-name="Path 2480" d="M458.131,334.22c.093.445.142.89.216,1.335,0,.222.074.445.093.673l.037.673c0,.439.056.921.056,1.322v1.186h-4.449v-1.186c0-.389-.031-.7-.043-1.05v-.513a3.714,3.714,0,0,0-.074-.507c-.062-.334-.093-.673-.167-1.007Z" transform="translate(-205.137 -253.169)" fill="#263238"/>
      <path id="Path_2481" data-name="Path 2481" d="M454.466,318.94l.575.779c.192.266.346.55.519.822a16.3,16.3,0,0,1,.958,1.693l-10.745,5.437a5.562,5.562,0,0,0-.433-.772c-.08-.124-.142-.26-.229-.377l-.272-.352Z" transform="translate(-201.713 -247.33)" fill="#263238"/>
      <path id="Path_2482" data-name="Path 2482" d="M442.941,322.479l2.57-2.064a9.146,9.146,0,0,0-.618-.692,5.361,5.361,0,0,0-.618-.655l3.75-3.948a9.775,9.775,0,0,1,.9.921,12.585,12.585,0,0,1,.846.976l2.577-2.057a22.288,22.288,0,0,0-5.7-5.029l-6.308,10.25a10.306,10.306,0,0,1,2.6,2.3Z" transform="translate(-199.993 -243.887)" fill="#263238"/>
      <path id="Path_2483" data-name="Path 2483" d="M451.231,319.93a18.005,18.005,0,0,1,3.089,4.4l-3.967,2A13.641,13.641,0,0,0,448,323Z" transform="translate(-202.921 -247.709)" fill="#263238"/>
      <path id="Path_2484" data-name="Path 2484" d="M442.175,307.11a16.946,16.946,0,0,1,1.779.791,16.343,16.343,0,0,1,1.7.951l-6.308,10.25a5.249,5.249,0,0,0-.772-.433,5.792,5.792,0,0,0-.8-.358Z" transform="translate(-199.011 -242.81)" fill="#263238"/>
      <path id="Path_2485" data-name="Path 2485" d="M435.175,317.267l1.112-3.089a13.363,13.363,0,0,0-1.761-.513l1.112-5.332a20.458,20.458,0,0,1,2.471.717l1.112-3.089a22.633,22.633,0,0,0-7.482-1.31v12.036A10.6,10.6,0,0,1,435.175,317.267Z" transform="translate(-196.707 -241.87)" fill="#263238"/>
      <path id="Path_2486" data-name="Path 2486" d="M438.587,311.74a16.49,16.49,0,0,1,4.943,2.113l-2.329,3.787a15.349,15.349,0,0,0-1.81-.958,15.173,15.173,0,0,0-1.94-.618Z" transform="translate(-198.889 -244.579)" fill="#263238"/>
      <path id="Path_2487" data-name="Path 2487" d="M427.615,304.33c.29.031.581.105.877.124a8.213,8.213,0,0,1,.89.049v12.036c-.618,0-1.291-.056-1.934-.1s-1.285-.167-1.928-.26Z" transform="translate(-194.33 -241.747)" fill="#263238"/>
      <path id="Path_2488" data-name="Path 2488" d="M420.05,315.22l.673-3.225a19.325,19.325,0,0,1-2.471-.717l1.854-5.122a14.371,14.371,0,0,0,1.761.513l.68-3.225a9.935,9.935,0,0,1-3.207-1.3L413,312.372A21.916,21.916,0,0,0,420.05,315.22Z" transform="translate(-189.546 -240.91)" fill="#263238"/>
      <path id="Path_2489" data-name="Path 2489" d="M424.427,309.77a15.859,15.859,0,0,0,4.035.618v4.442a19.963,19.963,0,0,1-5.332-.8Z" transform="translate(-193.417 -243.826)" fill="#263238"/>
      <path id="Path_2490" data-name="Path 2490" d="M415.984,300.42l.327.3.358.259.352.272c.117.086.253.154.377.229l-6.321,10.232c-.278-.173-.556-.334-.822-.519l-.785-.581-.772-.587c-.247-.2-.488-.426-.729-.618Z" transform="translate(-187.623 -240.253)" fill="#263238"/>
      <path id="Path_2491" data-name="Path 2491" d="M404.329,307.075l2.274-2.385a9.834,9.834,0,0,1-.9-.927,10.652,10.652,0,0,1-.846-.976l4.263-3.392a7.076,7.076,0,0,0,.618.692,5.913,5.913,0,0,0,.618.661l2.274-2.385a10.268,10.268,0,0,1-2.064-2.793L399.8,300.958A22.15,22.15,0,0,0,404.329,307.075Z" transform="translate(-184.501 -238.4)" fill="#263238"/>
      <path id="Path_2492" data-name="Path 2492" d="M412.921,303.1a13.37,13.37,0,0,0,3.089,2.632l-2.342,3.781a17.744,17.744,0,0,1-4.109-3.478Z" transform="translate(-188.231 -241.277)" fill="#263238"/>
      <path id="Path_2493" data-name="Path 2493" d="M409.032,292.92a10.411,10.411,0,0,0,.655,1.637l-10.763,5.388a22.455,22.455,0,0,1-1.433-3.614Z" transform="translate(-183.619 -237.387)" fill="#263238"/>
      <path id="Path_2494" data-name="Path 2494" d="M396.748,293.031l3.188-.834q-.179-.61-.3-1.236l-.192-1.285,5.406-.618.136.914a8.954,8.954,0,0,0,.21.89l3.188-.834a5.561,5.561,0,0,1-.185-.846,8.068,8.068,0,0,1-.111-.865c0-.3-.031-.568-.049-.9V286H396v1.39c0,.618.049,1.236.086,1.891s.161,1.267.247,1.9A14.867,14.867,0,0,0,396.748,293.031Z" transform="translate(-183.049 -234.743)" fill="#263238"/>
      <path id="Path_2495" data-name="Path 2495" d="M406.977,292.05a13.019,13.019,0,0,0,1.267,3.874l-3.979,1.99a17.608,17.608,0,0,1-1.674-5.122Z" transform="translate(-185.568 -237.055)" fill="#263238"/>
      <rect id="Rectangle_633" data-name="Rectangle 633" width="12.036" height="2.83" transform="translate(212.957 48.409)" fill="#263238"/>
      <path id="Path_2496" data-name="Path 2496" d="M396.01,277.143H399.3v-2.212h5.45v2.212h3.293V271.57H396.01Z" transform="translate(-183.053 -229.228)" fill="#263238"/>
      <rect id="Rectangle_634" data-name="Rectangle 634" width="4.449" height="4.751" transform="translate(216.751 46.488)" fill="#263238"/>
      <rect id="Rectangle_635" data-name="Rectangle 635" width="12.036" height="2.83" transform="translate(212.957 39.512)" fill="#263238"/>
      <path id="Path_2497" data-name="Path 2497" d="M396.01,262.753H399.3v-2.218h5.45v2.218h3.293V257.18H396.01Z" transform="translate(-183.053 -223.729)" fill="#263238"/>
      <rect id="Rectangle_636" data-name="Rectangle 636" width="4.449" height="4.751" transform="translate(216.751 37.59)" fill="#263238"/>
      <path id="Path_2498" data-name="Path 2498" d="M397.2,233.673l-12.19-12.814V203.04" transform="translate(-178.849 -203.04)" fill="none" stroke="#263238" stroke-linecap="round" stroke-linejoin="round" stroke-width="9"/>
      <path id="Path_2499" data-name="Path 2499" d="M406.13,233.673l12.19-12.814V203.04" transform="translate(-186.92 -203.04)" fill="none" stroke="#263238" stroke-linecap="round" stroke-linejoin="round" stroke-width="9"/>
      <circle id="Ellipse_206" data-name="Ellipse 206" cx="9.064" cy="9.064" r="9.064" transform="translate(209.214 23.424) rotate(-9.18)" fill="#263238" stroke="#263238" stroke-width="1"/>
      <circle id="Ellipse_207" data-name="Ellipse 207" cx="5.221" cy="5.221" r="5.221" transform="translate(212.764 33.745) rotate(-67.38)" fill="#fff" stroke="#263238" stroke-width="1"/>
      <rect id="Rectangle_637" data-name="Rectangle 637" width="2.836" height="12.036" transform="translate(91.801 103.707)" fill="#263238"/>
      <path id="Path_2500" data-name="Path 2500" d="M195.675,382.926v-3.3h-2.224v-5.443h2.224V370.89H190.09v12.036Z" transform="translate(-104.362 -267.183)" fill="#263238"/>
      <rect id="Rectangle_638" data-name="Rectangle 638" width="4.764" height="4.449" transform="translate(89.88 107.501)" fill="#263238"/>
      <path id="Path_2501" data-name="Path 2501" d="M185.75,370.69c.352.049.717.037,1.075.068h1.106v12.036h-.846l-.884-.043c-.587-.037-1.174-.043-1.761-.117Z" transform="translate(-102.203 -267.106)" fill="#263238"/>
      <path id="Path_2502" data-name="Path 2502" d="M179.264,381.9l.426-3.262-1.236-.192a8.032,8.032,0,0,1-1.236-.235l1.192-5.314a6.413,6.413,0,0,0,.97.192l.97.148.426-3.268a14.4,14.4,0,0,1-2.057-.4l-1.019-.253-.982-.371-4.238,11.27,1.637.587,1.687.445a24.76,24.76,0,0,0,3.46.649Z" transform="translate(-97.633 -266.441)" fill="#263238"/>
      <path id="Path_2503" data-name="Path 2503" d="M182.584,376.37c.711.093,1.421.241,2.138.3l2.181.105v4.449c-.84,0-1.724-.08-2.583-.124s-1.711-.241-2.57-.365Z" transform="translate(-101.175 -269.277)" fill="#263238"/>
      <path id="Path_2504" data-name="Path 2504" d="M172.824,367.56a15.213,15.213,0,0,0,1.952.89l-4.239,11.27a27,27,0,0,1-3.238-1.433Z" transform="translate(-95.653 -265.91)" fill="#263238"/>
      <path id="Path_2505" data-name="Path 2505" d="M162.9,376.382l1.569-2.9-2.107-1.279,3.021-4.529,1.681,1.026,1.576-2.9-.9-.55a7.69,7.69,0,0,1-.884-.568,16.136,16.136,0,0,1-1.643-1.316l-7.989,9a29.65,29.65,0,0,0,2.719,2.169,17.314,17.314,0,0,0,1.464.958Z" transform="translate(-91.805 -264.309)" fill="#263238"/>
      <path id="Path_2506" data-name="Path 2506" d="M169.533,371.61l.921.562a8.363,8.363,0,0,0,.97.488l.97.47c.327.161.673.26,1.013.389l-1.569,4.164c-.4-.161-.822-.284-1.236-.47l-1.168-.562c-.389-.2-.8-.358-1.162-.587l-1.112-.673Z" transform="translate(-95.6 -267.458)" fill="#263238"/>
      <path id="Path_2507" data-name="Path 2507" d="M162.157,360.93l.717.791.8.717-7.989,9-1.3-1.2c-.408-.426-.8-.865-1.2-1.3Z" transform="translate(-90.257 -263.376)" fill="#263238"/>
      <path id="Path_2508" data-name="Path 2508" d="M150.129,366.173l2.5-2.144a9.749,9.749,0,0,1-.779-.958l-.735-.989,4.436-3.157.618.791a6.1,6.1,0,0,0,.618.766l2.5-2.144a6.54,6.54,0,0,1-.655-.828l-.618-.834-.544-.9a7.414,7.414,0,0,1-.519-.914l-10.677,5.561a17.358,17.358,0,0,0,.859,1.514l.914,1.489,1.038,1.4a15.034,15.034,0,0,0,1.038,1.353Z" transform="translate(-87.621 -261.057)" fill="#263238"/>
      <path id="Path_2509" data-name="Path 2509" d="M159.14,362.84a7.8,7.8,0,0,0,.661.853l.729.8a9.884,9.884,0,0,0,.741.785l.8.729-2.953,3.324-.958-.871a8.622,8.622,0,0,1-.9-.945l-.871-.958c-.3-.321-.531-.686-.8-1.026Z" transform="translate(-91.182 -264.106)" fill="#263238"/>
      <path id="Path_2510" data-name="Path 2510" d="M155.131,351.71a16.064,16.064,0,0,0,.865,1.946l-10.677,5.561a29.035,29.035,0,0,1-1.44-3.231Z" transform="translate(-86.703 -259.853)" fill="#263238"/>
      <path id="Path_2511" data-name="Path 2511" d="M142.569,352.675l3.089-1.112c-.142-.389-.3-.772-.414-1.162l-.309-1.2,5.276-1.353.241.958c.093.315.222.618.327.927l3.089-1.106a18.479,18.479,0,0,1-.964-4.078L141,345.9a30.391,30.391,0,0,0,1.569,6.772Z" transform="translate(-85.603 -257.117)" fill="#263238"/>
      <path id="Path_2512" data-name="Path 2512" d="M152.8,351.22a7.638,7.638,0,0,0,.334,1.026l.371,1.013a7.838,7.838,0,0,0,.432.989l.47.976-3.942,2.039-.562-1.174a9.63,9.63,0,0,1-.525-1.186l-.445-1.236a9.612,9.612,0,0,1-.4-1.236Z" transform="translate(-88.48 -259.666)" fill="#263238"/>
      <path id="Path_2513" data-name="Path 2513" d="M152.684,341.06l.062,1.087a10.345,10.345,0,0,0,.068,1.069l-11.943,1.353c-.13-1.168-.154-2.366-.21-3.509Z" transform="translate(-85.473 -255.783)" fill="#263238"/>
      <path id="Path_2514" data-name="Path 2514" d="M140.6,336.588h3.3V334.37h5.443v2.218h3.3v-2.793l-.006-1.409-.08-1.736-12.017.711.062,1.05v4.177Z" transform="translate(-85.427 -251.805)" fill="#263238"/>
      <path id="Path_2515" data-name="Path 2515" d="M151.252,337.932v2.348c.056.723.049,1.446.136,2.162l-4.418.5c-.105-.859-.111-1.73-.161-2.6V337.92Z" transform="translate(-87.823 -254.583)" fill="#263238"/>
      <path id="Path_2516" data-name="Path 2516" d="M152,325a25.875,25.875,0,0,1,.408,3.509l-12.017.711a14.345,14.345,0,0,0-.241-2.125Z" transform="translate(-85.278 -249.646)" fill="#263238"/>
      <path id="Path_2517" data-name="Path 2517" d="M139.279,322.256l3.231-.618c-.136-.618-.327-1.273-.476-1.909l5.221-1.538c.2.8.426,1.588.618,2.391l3.238-.618c-.111-.568-.272-1.131-.414-1.693s-.272-1.131-.463-1.681l-.618-1.637-.309-.822c-.105-.266-.241-.525-.365-.791L138,318.27c.074.161.161.315.229.476l.173.494.365.982c.124.327.179.68.272,1.013A7.185,7.185,0,0,1,139.279,322.256Z" transform="translate(-84.456 -245.19)" fill="#263238"/>
      <path id="Path_2518" data-name="Path 2518" d="M149.89,322.72l.321,1.236c.087.426.142.853.21,1.285l.192,1.285c.056.426.056.859.086,1.291l-4.442.266A6.315,6.315,0,0,0,146.2,327l-.167-1.019c-.062-.358-.1-.717-.167-1.069l-.272-1.05Z" transform="translate(-87.357 -248.775)" fill="#263238"/>
      <path id="Path_2519" data-name="Path 2519" d="M146.653,308.21c.29.513.618.995.884,1.532l.766,1.594-10.918,4.974-.457-.958a10.648,10.648,0,0,0-.538-.927Z" transform="translate(-83.841 -243.23)" fill="#263238"/>
      <path id="Path_2520" data-name="Path 2520" d="M134.43,310.434l2.787-1.761a15.129,15.129,0,0,0-1.131-1.613l4.325-3.312a19.039,19.039,0,0,1,1.409,2.02l2.787-1.761-.457-.741c-.161-.241-.34-.47-.513-.7l-1.038-1.39c-.34-.47-.76-.877-1.143-1.31s-.772-.871-1.186-1.273l-8.458,8.557c.247.247.47.525.711.779a8.338,8.338,0,0,1,.692.791l.618.846c.105.142.216.272.315.42Z" transform="translate(-82.091 -239.554)" fill="#263238"/>
      <path id="Path_2521" data-name="Path 2521" d="M143.684,308.54a26.428,26.428,0,0,1,2.6,4.492l-4.047,1.854a22.334,22.334,0,0,0-2.163-3.744Z" transform="translate(-85.247 -243.356)" fill="#263238"/>
      <path id="Path_2522" data-name="Path 2522" d="M136.6,294.83c.235.179.476.352.7.538l.655.618,1.3,1.192-8.458,8.557-.8-.717-.4-.365c-.136-.111-.284-.21-.426-.321Z" transform="translate(-81.09 -238.117)" fill="#263238"/>
      <path id="Path_2523" data-name="Path 2523" d="M126.474,301.673l1.977-2.638-.791-.618c-.272-.185-.556-.346-.834-.519l2.854-4.634c.352.216.711.42,1.05.655l.989.735,1.977-2.638c-.47-.34-.921-.7-1.409-1.019l-1.483-.908-.748-.445c-.253-.142-.519-.26-.778-.389L127.7,288.5l-4.844,11.016.945.457c.154.08.321.142.476.229l.445.278.9.544C125.925,301.234,126.19,301.469,126.474,301.673Z" transform="translate(-78.671 -235.698)" fill="#263238"/>
      <path id="Path_2524" data-name="Path 2524" d="M133.149,297.66c.717.482,1.4,1.026,2.088,1.538s1.291,1.155,1.94,1.736l-3.126,3.157c-.544-.476-1.063-.982-1.613-1.44a21.207,21.207,0,0,0-1.749-1.285Z" transform="translate(-81.663 -239.198)" fill="#263238"/>
      <path id="Path_2525" data-name="Path 2525" d="M123.152,286.53c.568.173,1.118.389,1.674.618a17.162,17.162,0,0,1,1.644.655l-4.844,11.016a6.892,6.892,0,0,0-.995-.383c-.334-.117-.661-.26-1-.365Z" transform="translate(-77.437 -234.945)" fill="#263238"/>
      <path id="Path_2526" data-name="Path 2526" d="M116.509,297.155l.9-3.17-.958-.241a6.314,6.314,0,0,0-.958-.216l1-5.351a9.134,9.134,0,0,1,1.236.266l1.2.3.9-3.17a25.655,25.655,0,0,0-3.4-.748l-1.724-.26c-.575-.049-1.155-.068-1.73-.1l-.575,12.024a7.565,7.565,0,0,1,1.057.049l1.038.167A14.537,14.537,0,0,1,116.509,297.155Z" transform="translate(-74.674 -234.158)" fill="#263238"/>
      <path id="Path_2527" data-name="Path 2527" d="M119.648,291.55c.84.229,1.693.4,2.509.686s1.644.562,2.428.927l-1.792,4.072c-.618-.309-1.347-.507-2.014-.772s-1.4-.371-2.088-.568Z" transform="translate(-77.077 -236.863)" fill="#263238"/>
      <path id="Path_2528" data-name="Path 2528" d="M107.93,284.407l.884-.037h1.538l.884.043-.575,12.023-.538-.031a5.323,5.323,0,0,0-.618,0h-.7l-.538.037Z" transform="translate(-72.965 -234.12)" fill="#263238"/>
      <path id="Path_2529" data-name="Path 2529" d="M103.313,296.5l-.161-3.293-.989.049a8.39,8.39,0,0,0-.976.136l-.76-5.394c.408-.056.809-.136,1.236-.167l1.236-.062-.167-3.293c-.575.037-1.155.049-1.73.111l-1.724.259a26.7,26.7,0,0,0-3.4.754l3.293,11.554a14.556,14.556,0,0,1,2.045-.451l1.038-.167A10.061,10.061,0,0,0,103.313,296.5Z" transform="translate(-68.361 -234.162)" fill="#263238"/>
      <path id="Path_2530" data-name="Path 2530" d="M104.73,290.68c.859-.08,1.724-.105,2.589-.148.445-.031.809,0,1.236,0l1.291.062-.21,4.442-1.081-.056h-1.168c-.723.049-1.446.062-2.163.124Z" transform="translate(-71.743 -236.469)" fill="#263238"/>
      <path id="Path_2531" data-name="Path 2531" d="M90.43,287.452l1.662-.618a13.407,13.407,0,0,1,1.687-.544l3.312,11.56a6.468,6.468,0,0,0-1.013.327l-1,.365Z" transform="translate(-66.278 -234.853)" fill="#263238"/>
      <path id="Path_2532" data-name="Path 2532" d="M90.7,299.59l-1.335-3.015c-.618.3-1.2.55-1.767.871l-2.651-4.758c.717-.4,1.477-.729,2.212-1.094l-1.328-3.015a28.172,28.172,0,0,0-3.089,1.6l-1.489.908c-.482.321-.933.68-1.4,1.026l7.241,9.608c.284-.2.556-.432.846-.618l.9-.544a17.158,17.158,0,0,1,1.86-.97Z" transform="translate(-62.235 -235.728)" fill="#263238"/>
      <path id="Path_2533" data-name="Path 2533" d="M89.73,294.115a26.883,26.883,0,0,1,4.825-1.915l1.236,4.276a22.463,22.463,0,0,0-4.041,1.594Z" transform="translate(-66.01 -237.112)" fill="#263238"/>
      <path id="Path_2534" data-name="Path 2534" d="M75.47,296.59l1.31-1.192c.426-.408.927-.723,1.39-1.087l7.241,9.608a9.631,9.631,0,0,0-.84.661l-.791.723Z" transform="translate(-60.561 -237.918)" fill="#263238"/>
      <path id="Path_2535" data-name="Path 2535" d="M80.552,307.2l-2.323-2.336-1.335,1.452-4.171-3.5c.556-.618,1.1-1.236,1.668-1.823l-2.323-2.336c-.4.414-.785.846-1.18,1.273a16.286,16.286,0,0,0-1.131,1.316,29.135,29.135,0,0,0-2.008,2.842l10.195,6.4a17.169,17.169,0,0,1,1.236-1.718,7.635,7.635,0,0,1,.692-.791C80.082,307.724,80.3,307.452,80.552,307.2Z" transform="translate(-57.611 -239.58)" fill="#263238"/>
      <path id="Path_2536" data-name="Path 2536" d="M77.36,302.709l.871-.964c.3-.309.618-.587.951-.884l.964-.871c.327-.278.686-.525,1.032-.791l2.675,3.584a9.605,9.605,0,0,0-.865.655l-.8.729c-.266.247-.55.476-.8.735l-.723.8Z" transform="translate(-61.283 -239.787)" fill="#263238"/>
      <path id="Path_2537" data-name="Path 2537" d="M65,310.552c.266-.531.507-1.069.791-1.588l.914-1.514,10.195,6.4-.562.914c-.167.309-.309.618-.463.958Z" transform="translate(-56.56 -242.939)" fill="#263238"/>
      <path id="Path_2538" data-name="Path 2538" d="M74.222,318.319l-3-1.353L71,317.4l-.167.463-.34.927-5.122-1.773.426-1.162.216-.581.266-.556-3-1.353a13.977,13.977,0,0,0-.667,1.606l-.618,1.643c-.185.55-.309,1.118-.463,1.681s-.3,1.125-.4,1.693L72.943,322.3c.049-.346.173-.68.247-1.019a9.818,9.818,0,0,1,.272-1.013l.365-.982a6.022,6.022,0,0,1,.4-.97Z" transform="translate(-55.081 -245.202)" fill="#263238"/>
      <path id="Path_2539" data-name="Path 2539" d="M69.2,315.36a21.363,21.363,0,0,1,1.044-2.379,19.8,19.8,0,0,1,1.3-2.261l3.707,2.366a16.533,16.533,0,0,0-1.057,1.884,15.2,15.2,0,0,0-.865,1.977Z" transform="translate(-58.165 -244.189)" fill="#263238"/>
      <path id="Path_2540" data-name="Path 2540" d="M60.38,327.6a4.109,4.109,0,0,1,.062-.884l.13-.877.272-1.749L72.657,326.4l-.154,1.057-.087.525a5.229,5.229,0,0,0,0,.538Z" transform="translate(-54.795 -249.298)" fill="#263238"/>
      <path id="Path_2541" data-name="Path 2541" d="M72.3,331.436,69,331.25c0,.655-.08,1.285-.062,2.064h-5.45c0-.7.037-1.557.074-2.373l-3.287-.192-.08,1.736v4.2H72.236v-4.189Z" transform="translate(-54.726 -251.843)" fill="#263238"/>
      <path id="Path_2542" data-name="Path 2542" d="M66.34,330.429l.13-2.589c.1-.859.247-1.711.377-2.57l4.362.853c-.1.717-.229,1.427-.315,2.144l-.105,2.163Z" transform="translate(-57.072 -249.749)" fill="#263238"/>
      <rect id="Rectangle_639" data-name="Rectangle 639" width="12.036" height="2.836" transform="translate(5.474 84.838)" fill="#263238"/>
      <path id="Path_2543" data-name="Path 2543" d="M72.236,345.74H68.943v2.218h-5.45V345.74H60.2v5.585H72.236Z" transform="translate(-54.726 -257.572)" fill="#263238"/>
      <rect id="Rectangle_640" data-name="Rectangle 640" width="4.449" height="4.764" transform="translate(9.268 84.838)" fill="#263238"/>
      <rect id="Rectangle_641" data-name="Rectangle 641" width="12.036" height="2.836" transform="translate(5.474 93.754)" fill="#263238"/>
      <path id="Path_2544" data-name="Path 2544" d="M72.236,360.17H68.943v2.218h-5.45V360.17H60.2v5.585H72.236Z" transform="translate(-54.726 -263.086)" fill="#263238"/>
      <rect id="Rectangle_642" data-name="Rectangle 642" width="4.449" height="4.764" transform="translate(9.268 93.754)" fill="#263238"/>
      <rect id="Rectangle_643" data-name="Rectangle 643" width="12.036" height="2.836" transform="translate(5.474 102.669)" fill="#263238"/>
      <rect id="Rectangle_644" data-name="Rectangle 644" width="4.449" height="4.764" transform="translate(9.268 102.669)" fill="#263238"/>
      <path id="Path_2545" data-name="Path 2545" d="M72.236,373.8H68.943v2.224h-5.45V373.8H60.2v5.585H72.236Z" transform="translate(-54.726 -268.295)" fill="#263238"/>
      <rect id="Rectangle_645" data-name="Rectangle 645" width="4.449" height="4.764" transform="translate(9.268 102.175)" fill="#263238"/>
      <path id="Path_2546" data-name="Path 2546" d="M72.47,381.33l12.19,12.814v17.819" transform="translate(-59.415 -271.172)" fill="none" stroke="#263238" stroke-linecap="round" stroke-linejoin="round" stroke-width="9"/>
      <path id="Path_2547" data-name="Path 2547" d="M63.537,381.33l-12.2,12.814v17.819" transform="translate(-51.34 -271.172)" fill="none" stroke="#263238" stroke-linecap="round" stroke-linejoin="round" stroke-width="9"/>
      <circle id="Ellipse_208" data-name="Ellipse 208" cx="9.064" cy="9.064" r="9.064" transform="translate(1.42 102.343) rotate(-9.22)" fill="#263238" stroke="#263238" stroke-width="1"/>
      <circle id="Ellipse_209" data-name="Ellipse 209" cx="4.937" cy="4.937" r="4.937" transform="translate(6.871 104.906)" fill="#fff" stroke="#263238" stroke-width="1"/>
    </g>
    <g id="freepik--Device--inject-2" transform="translate(25.06 82.217)">
      <path id="Path_2548" data-name="Path 2548" d="M146.429,166.262a27.081,27.081,0,0,0,8.032.846l-.192-2.3c-.136,0-13.593.958-23.973-11.43l-1.767,1.483a33.778,33.778,0,0,0,17.9,11.4Z" transform="translate(-64.6 -135.58)" fill="#263238"/>
      <path id="Path_2549" data-name="Path 2549" d="M127.217,188.836c13.945-12.475,25.332-8.471,25.45-8.428l.8-2.162c-.513-.192-12.821-4.517-27.8,8.872Z" transform="translate(-63.504 -144.77)" fill="#263238"/>
      <path id="Path_2550" data-name="Path 2550" d="M128.08,202.55c14.279-.816,26.611-16.528,27.13-17.2l-1.816-1.409c-.124.154-12.221,15.551-25.443,16.311Z" transform="translate(-64.379 -147.258)" fill="#263238"/>
      <line id="Line_129" data-name="Line 129" x1="2.997" y1="3.268" transform="translate(62.249 16.015)" fill="none" stroke="#263238" stroke-width="1"/>
      <line id="Line_130" data-name="Line 130" x1="3.559" y2="4.195" transform="translate(60.871 41.458)" fill="none" stroke="#263238" stroke-width="1"/>
      <path id="Path_2551" data-name="Path 2551" d="M127.9,211.318a26.829,26.829,0,0,1-5.969-.618" transform="translate(-62.078 -157.484)" fill="none" stroke="#263238" stroke-width="1"/>
      <line id="Line_131" data-name="Line 131" x1="3.528" y2="0.612" transform="translate(53.908 45.017)" fill="none" stroke="#263238" stroke-width="1"/>
      <line id="Line_132" data-name="Line 132" x1="4.412" y2="4.189" transform="translate(54.724 46.704)" fill="none" stroke="#263238" stroke-width="1"/>
      <line id="Line_133" data-name="Line 133" x1="0.185" y2="3.33" transform="translate(60.692 47.34)" fill="none" stroke="#263238" stroke-width="1"/>
      <line id="Line_134" data-name="Line 134" x1="7.766" y1="1.909" transform="translate(50.442 22.817)" fill="none" stroke="#263238" stroke-width="1"/>
      <line id="Line_135" data-name="Line 135" x1="11.931" y2="0.439" transform="translate(52.147 26.599)" fill="none" stroke="#263238" stroke-width="1"/>
      <line id="Line_136" data-name="Line 136" x1="6.92" y1="2.762" transform="translate(54.007 18.628)" fill="none" stroke="#263238" stroke-width="1"/>
      <line id="Line_137" data-name="Line 137" x1="3.411" y2="5.283" transform="translate(77.121 52.388)" fill="none" stroke="#263238" stroke-width="1"/>
      <line id="Line_138" data-name="Line 138" x1="7.822" y2="7.785" transform="translate(70.22 51.356)" fill="none" stroke="#263238" stroke-width="1"/>
      <line id="Line_139" data-name="Line 139" x1="5.814" y2="0.47" transform="translate(71.56 45.487)" fill="none" stroke="#263238" stroke-width="1"/>
      <path id="Path_2552" data-name="Path 2552" d="M103.136,181.038l1.316,2.4-1.872,2,2.688-.519,1.316,2.4.34-2.712,2.688-.513-2.471-1.162.34-2.712-1.872,2Z" transform="translate(-54.684 -145.832)" fill="#8b80f8" stroke="#263238" stroke-linecap="round" stroke-linejoin="round" stroke-width="0.5"/>
      <path id="Path_2553" data-name="Path 2553" d="M109.086,137.4,110.4,139.8l-1.872,2,2.688-.513,1.316,2.4.346-2.712,2.682-.519-2.471-1.162.34-2.712-1.872,2Z" transform="translate(-56.957 -129.156)" fill="#8b80f8" stroke="#263238" stroke-linecap="round" stroke-linejoin="round" stroke-width="0.5"/>
      <path id="Path_2554" data-name="Path 2554" d="M342.232,357.615a24.931,24.931,0,0,0-7.322,1.792l.9,1.959c.117-.056,11.64-5.141,24.714,2.471l1.081-1.854A31.511,31.511,0,0,0,342.232,357.615Z" transform="translate(-143.467 -213.568)" fill="#263238"/>
      <path id="Path_2555" data-name="Path 2555" d="M353.5,329.38c-8.323,15.385-19.617,15.446-19.722,15.446v2.15c.519,0,12.715-.08,21.625-16.589Z" transform="translate(-143.035 -202.837)" fill="#263238"/>
      <path id="Path_2556" data-name="Path 2556" d="M348.6,313.39c-12.308,5.233-18.19,22.96-18.437,23.707l2.051.667c.056-.173,5.833-17.547,17.226-22.391Z" transform="translate(-141.652 -196.726)" fill="#263238"/>
      <line id="Line_140" data-name="Line 140" x2="3.67" y2="1.934" transform="translate(216.954 148.83)" fill="none" stroke="#263238" stroke-width="1"/>
      <line id="Line_141" data-name="Line 141" y1="4.813" x2="1.81" transform="translate(210.659 124.251)" fill="none" stroke="#263238" stroke-width="1"/>
      <path id="Path_2557" data-name="Path 2557" d="M357.7,315.721a25.036,25.036,0,0,1,5.45-1.341" transform="translate(-152.176 -197.104)" fill="none" stroke="#263238" stroke-width="1"/>
      <line id="Line_142" data-name="Line 142" y1="1.65" x2="2.91" transform="translate(215.688 122.07)" fill="none" stroke="#263238" stroke-width="1"/>
      <line id="Line_143" data-name="Line 143" y1="5.079" x2="2.552" transform="translate(213.667 117.696)" fill="none" stroke="#263238" stroke-width="1"/>
      <line id="Line_144" data-name="Line 144" x1="0.89" y1="2.984" transform="translate(211.042 119.778)" fill="none" stroke="#263238" stroke-width="1"/>
      <line id="Line_145" data-name="Line 145" y1="0.779" x2="7.433" transform="translate(221.428 141.038)" fill="none" stroke="#263238" stroke-width="1"/>
      <line id="Line_146" data-name="Line 146" y1="4.158" x2="10.355" transform="translate(215.669 137.869)" fill="none" stroke="#263238" stroke-width="1"/>
      <line id="Line_147" data-name="Line 147" x2="6.963" y2="0.235" transform="translate(220.087 145.617)" fill="none" stroke="#263238" stroke-width="1"/>
      <line id="Line_148" data-name="Line 148" y1="5.728" x2="1.335" transform="translate(193.037 118.814)" fill="none" stroke="#263238" stroke-width="1"/>
      <line id="Line_149" data-name="Line 149" y1="9.323" x2="4.424" transform="translate(195.558 115.342)" fill="none" stroke="#263238" stroke-width="1"/>
      <line id="Line_150" data-name="Line 150" y1="2.249" x2="4.968" transform="translate(197.999 127.359)" fill="none" stroke="#263238" stroke-width="1"/>
      <path id="Path_2558" data-name="Path 2558" d="M387.85,331.45l-1.915-1.693,1.013-2.348-2.2,1.3-1.915-1.693.556,2.5-2.2,1.3,2.546.241.556,2.5,1.013-2.342Z" transform="translate(-161.152 -201.935)" fill="#8b80f8" stroke="#263238" stroke-linecap="round" stroke-linejoin="round" stroke-width="0.5"/>
      <path id="Path_2559" data-name="Path 2559" d="M396.41,371.72l-1.915-1.693,1.013-2.348-2.2,1.3-1.915-1.693.556,2.5-2.2,1.3,2.546.235.556,2.5,1.013-2.342Z" transform="translate(-164.424 -217.324)" fill="#8b80f8" stroke="#263238" stroke-linecap="round" stroke-linejoin="round" stroke-width="0.5"/>
      <path id="Path_2560" data-name="Path 2560" d="M343.951,305.144l-1.922-1.687,1.019-2.348-2.2,1.3-1.922-1.693.562,2.5-2.2,1.3,2.539.241.562,2.5,1.013-2.342Z" transform="translate(-144.376 -191.884)" fill="#8b80f8" stroke="#263238" stroke-linecap="round" stroke-linejoin="round" stroke-width="0.5"/>
      <line id="Line_151" data-name="Line 151" y2="1.594" transform="translate(71.085 86.648)" fill="none" stroke="#263238" stroke-linecap="round" stroke-linejoin="round" stroke-width="1"/>
      <line id="Line_152" data-name="Line 152" y2="16.027" transform="translate(71.085 69.175)" fill="none" stroke="#263238" stroke-linecap="round" stroke-linejoin="round" stroke-width="1"/>
      <line id="Line_153" data-name="Line 153" y2="15.823" transform="translate(68.415 74.575)" fill="none" stroke="#263238" stroke-linecap="round" stroke-linejoin="round" stroke-width="1"/>
      <line id="Line_154" data-name="Line 154" y2="2.366" transform="translate(211.474 69.651)" fill="none" stroke="#263238" stroke-linecap="round" stroke-linejoin="round" stroke-width="1"/>
      <line id="Line_155" data-name="Line 155" y2="23.806" transform="translate(211.474 43.701)" fill="none" stroke="#263238" stroke-linecap="round" stroke-linejoin="round" stroke-width="1"/>
      <line id="Line_156" data-name="Line 156" y2="23.509" transform="translate(208.799 51.715)" fill="none" stroke="#263238" stroke-linecap="round" stroke-linejoin="round" stroke-width="1"/>
      <line id="Line_157" data-name="Line 157" x1="2.366" transform="translate(172.753 105.246)" fill="none" stroke="#263238" stroke-linecap="round" stroke-linejoin="round" stroke-width="1"/>
      <line id="Line_158" data-name="Line 158" x1="23.806" transform="translate(177.263 105.246)" fill="none" stroke="#263238" stroke-linecap="round" stroke-linejoin="round" stroke-width="1"/>
      <line id="Line_159" data-name="Line 159" x1="23.509" transform="translate(169.546 102.571)" fill="none" stroke="#263238" stroke-linecap="round" stroke-linejoin="round" stroke-width="1"/>
      <line id="Line_160" data-name="Line 160" x1="2.373" transform="translate(90.294 105.246)" fill="none" stroke="#263238" stroke-linecap="round" stroke-linejoin="round" stroke-width="1"/>
      <line id="Line_161" data-name="Line 161" x1="23.806" transform="translate(94.81 105.246)" fill="none" stroke="#263238" stroke-linecap="round" stroke-linejoin="round" stroke-width="1"/>
      <line id="Line_162" data-name="Line 162" x1="23.516" transform="translate(87.087 102.571)" fill="none" stroke="#263238" stroke-linecap="round" stroke-linejoin="round" stroke-width="1"/>
      <rect id="Rectangle_646" data-name="Rectangle 646" width="25.468" height="25.468" transform="translate(127.211 95.372)" fill="#fff" stroke="#263238" stroke-width="1"/>
      <rect id="Rectangle_647" data-name="Rectangle 647" width="25.468" height="6.722" transform="translate(127.211 95.372)" fill="#263238" stroke="#263238" stroke-width="1"/>
      <line id="Line_163" data-name="Line 163" x2="24.937" transform="translate(127.526 107.279)" fill="none" stroke="#263238" stroke-width="1"/>
      <line id="Line_164" data-name="Line 164" x2="24.937" transform="translate(127.526 112.153)" fill="none" stroke="#263238" stroke-width="1"/>
      <line id="Line_165" data-name="Line 165" x2="24.937" transform="translate(127.526 117.035)" fill="none" stroke="#263238" stroke-width="1"/>
      <line id="Line_166" data-name="Line 166" y2="4.702" transform="translate(150.85 101.428)" fill="none" stroke="#263238" stroke-width="1"/>
      <line id="Line_167" data-name="Line 167" y2="3.472" transform="translate(150.85 107.359)" fill="none" stroke="#263238" stroke-width="1"/>
      <line id="Line_168" data-name="Line 168" y2="3.472" transform="translate(150.85 112.394)" fill="none" stroke="#263238" stroke-width="1"/>
      <path id="Path_2561" data-name="Path 2561" d="M222.586,124.57h31.949a5.029,5.029,0,0,1,5.029,5.029V141.74H217.55V129.6a5.029,5.029,0,0,1,5.029-5.029Z" transform="translate(-98.619 -124.57)" fill="#263238" stroke="#263238" stroke-width="1"/>
      <rect id="Rectangle_648" data-name="Rectangle 648" width="130.529" height="93.148" rx="3.76" transform="translate(74.68 5.981)" fill="#263238" stroke="#263238" stroke-width="1"/>
      <rect id="Rectangle_649" data-name="Rectangle 649" width="120.902" height="84.523" rx="3.76" transform="translate(79.487 10.294)" fill="#8b80f8" stroke="#263238" stroke-width="1"/>
      <path id="Path_2562" data-name="Path 2562" d="M276.684,128.651a1.557,1.557,0,1,0-.454,1.1,1.557,1.557,0,0,0,.454-1.1Z" transform="translate(-120.026 -125.537)" fill="#fff" stroke="#263238" stroke-width="1"/>
      <path id="Path_2563" data-name="Path 2563" d="M267.216,128.643a1.557,1.557,0,1,0-.454,1.1A1.563,1.563,0,0,0,267.216,128.643Z" transform="translate(-116.403 -125.529)" fill="#fff" stroke="#263238" stroke-width="1"/>
      <path id="Path_2564" data-name="Path 2564" d="M257.756,128.643a1.557,1.557,0,1,0-.454,1.1A1.563,1.563,0,0,0,257.756,128.643Z" transform="translate(-112.788 -125.529)" fill="#fff" stroke="#263238" stroke-width="1"/>
      <line id="Line_169" data-name="Line 169" y2="3.472" transform="translate(150.85 117.436)" fill="none" stroke="#263238" stroke-width="1"/>
      <path id="Path_2565" data-name="Path 2565" d="M73.951,437H288.113a6.939,6.939,0,0,1,6.939,6.939v13.315H67V443.939A6.939,6.939,0,0,1,73.951,437Z" transform="translate(-41.087 -243.963)" fill="#fff" stroke="#263238" stroke-width="1"/>
      <path id="Path_2566" data-name="Path 2566" d="M176.359,319.18h87.618a6.939,6.939,0,0,1,6.939,6.939v86.111H169.42V326.119a6.939,6.939,0,0,1,6.939-6.939Z" transform="translate(-80.226 -198.939)" fill="#fff" stroke="#263238" stroke-width="1"/>
      <rect id="Rectangle_650" data-name="Rectangle 650" width="67.106" height="46.914" rx="3.76" transform="translate(106.389 139.636)" fill="#263238" stroke="#263238" stroke-width="1"/>
      <path id="Path_2567" data-name="Path 2567" d="M205.687,435.2a3.374,3.374,0,1,0-3.374,3.374,3.374,3.374,0,0,0,3.374-3.374Z" transform="translate(-91.507 -241.987)" fill="#263238" stroke="#263238" stroke-width="1"/>
      <circle id="Ellipse_210" data-name="Ellipse 210" cx="3.374" cy="3.374" r="3.374" transform="translate(118.826 189.843)" fill="#263238" stroke="#263238" stroke-width="1"/>
      <circle id="Ellipse_211" data-name="Ellipse 211" cx="3.374" cy="3.374" r="3.374" transform="translate(130.213 189.843)" fill="#263238" stroke="#263238" stroke-width="1"/>
      <rect id="Rectangle_651" data-name="Rectangle 651" width="4.64" height="4.64" transform="translate(142.515 200.958) rotate(-90)" fill="#263238" stroke="#263238" stroke-width="1"/>
      <rect id="Rectangle_652" data-name="Rectangle 652" width="4.64" height="4.64" transform="translate(142.515 194.841) rotate(-90)" fill="#263238" stroke="#263238" stroke-width="1"/>
      <rect id="Rectangle_653" data-name="Rectangle 653" width="4.64" height="4.64" transform="translate(148.422 200.958) rotate(-90)" fill="#263238" stroke="#263238" stroke-width="1"/>
      <rect id="Rectangle_654" data-name="Rectangle 654" width="4.64" height="4.64" transform="translate(148.422 194.841) rotate(-90)" fill="#263238" stroke="#263238" stroke-width="1"/>
      <rect id="Rectangle_655" data-name="Rectangle 655" width="4.64" height="4.64" transform="translate(154.328 200.958) rotate(-90)" fill="#263238" stroke="#263238" stroke-width="1"/>
      <rect id="Rectangle_656" data-name="Rectangle 656" width="4.64" height="4.64" transform="translate(154.328 194.841) rotate(-90)" fill="#263238" stroke="#263238" stroke-width="1"/>
      <path id="Path_2568" data-name="Path 2568" d="M219.354,340.283h-19.4a1.693,1.693,0,0,1-1.693-1.687h0a1.693,1.693,0,0,1,1.693-1.687h19.4a1.687,1.687,0,0,1,1.687,1.687h0A1.687,1.687,0,0,1,219.354,340.283Z" transform="translate(-91.247 -205.714)" fill="#fff" stroke="#263238" stroke-width="1"/>
      <circle id="Ellipse_212" data-name="Ellipse 212" cx="3.374" cy="3.374" r="3.374" transform="translate(111.233 129.089)" fill="#263238" stroke="#263238" stroke-width="1"/>
      <path id="Path_2569" data-name="Path 2569" d="M327.28,344.31l-9.54,9.663v45.085l9.842,9.663" transform="translate(-136.905 -208.542)" fill="none" stroke="#263238" stroke-width="1"/>
      <path id="Path_2570" data-name="Path 2570" d="M169.877,344.31l9.546,9.663v45.085l-9.842,9.663" transform="translate(-80.287 -208.542)" fill="none" stroke="#263238" stroke-width="1"/>
      <path id="Path_2571" data-name="Path 2571" d="M199.62,379.157h15.323l9.676-14.427,9.262,14.427h6.759l6.061,9.015,5.209-8.86h9.472" transform="translate(-91.767 -216.345)" fill="none" stroke="#8b80f8" stroke-linecap="round" stroke-linejoin="round" stroke-width="2"/>
      <line id="Line_170" data-name="Line 170" x2="279.889" transform="translate(0 213.291)" fill="none" stroke="#263238" stroke-width="2"/>
    </g>
    <g id="freepik--Screws--inject-2" transform="translate(36.13 96.131)">
      <path id="Path_2572" data-name="Path 2572" d="M157.847,406.5a1.989,1.989,0,1,1,2.922.97A2.2,2.2,0,0,1,157.847,406.5Z" transform="translate(-86.705 -244.953)" fill="#fff" stroke="#263238" stroke-linecap="round" stroke-linejoin="round" stroke-width="1"/>
      <path id="Path_2573" data-name="Path 2573" d="M150.8,407.69a.615.615,0,0,1,.13-.068l5-2.237a1.015,1.015,0,0,1,.828,1.854l-5,2.23a1.007,1.007,0,0,1-.951-1.773Z" transform="translate(-83.994 -245.762)" fill="#fff" stroke="#263238" stroke-width="1"/>
      <path id="Path_2574" data-name="Path 2574" d="M50.43,218.03a2.248,2.248,0,0,1,.371-3.089,2.163,2.163,0,0,1,2.922.97A2.247,2.247,0,0,1,53.359,219,2.171,2.171,0,0,1,50.43,218.03Z" transform="translate(-45.658 -172.914)" fill="#fff" stroke="#263238" stroke-linecap="round" stroke-linejoin="round" stroke-width="1"/>
      <path id="Path_2575" data-name="Path 2575" d="M43.417,219.251l.136-.068,5-2.237a1.014,1.014,0,0,1,.822,1.854l-5,2.23a1.013,1.013,0,0,1-.958-1.773Z" transform="translate(-42.977 -173.752)" fill="#fff" stroke="#263238" stroke-width="1"/>
      <path id="Path_2576" data-name="Path 2576" d="M445.423,266.286a1.988,1.988,0,1,1-1.415-2.737A2.2,2.2,0,0,1,445.423,266.286Z" transform="translate(-195.288 -191.581)" fill="#fff" stroke="#263238" stroke-linecap="round" stroke-linejoin="round" stroke-width="1"/>
      <path id="Path_2577" data-name="Path 2577" d="M449.627,270.079l-.142-.043-5.141-1.9a1.013,1.013,0,0,1,.7-1.9l5.134,1.9a1.013,1.013,0,0,1-.556,1.94Z" transform="translate(-196.124 -192.606)" fill="#fff" stroke="#263238" stroke-width="1"/>
      <path id="Path_2578" data-name="Path 2578" d="M392.6,423.036a1.991,1.991,0,1,1-1.415-2.737A2.209,2.209,0,0,1,392.6,423.036Z" transform="translate(-175.099 -251.481)" fill="#fff" stroke="#263238" stroke-linecap="round" stroke-linejoin="round" stroke-width="1"/>
      <path id="Path_2579" data-name="Path 2579" d="M396.778,426.812l-.142-.043-5.134-1.9a1.013,1.013,0,0,1,.7-1.9l5.141,1.9a1.013,1.013,0,0,1-.562,1.94Z" transform="translate(-175.935 -252.502)" fill="#fff" stroke="#263238" stroke-width="1"/>
      <path id="Path_2580" data-name="Path 2580" d="M353.3,415.072l-2.824-1.372-2.817,1.372-.7,3.089,1.952,2.471h3.133L354,418.161Zm-2.027,3.948h-1.588l-.995-1.236.352-1.569,1.433-.7,1.433.7.352,1.569Z" transform="translate(-159.142 -248.973)" fill="#fff" stroke="#263238" stroke-linecap="round" stroke-linejoin="round" stroke-width="1"/>
      <path id="Path_2581" data-name="Path 2581" d="M430.649,173.468l-2.824-1.378L425,173.468l-.692,3.089,1.952,2.471h3.126l1.952-2.471Zm-2.027,3.948h-1.594l-.989-1.236.352-1.569,1.433-.723,1.433.7.352,1.569Z" transform="translate(-188.7 -156.644)" fill="#fff" stroke="#263238" stroke-linecap="round" stroke-linejoin="round" stroke-width="1"/>
      <path id="Path_2582" data-name="Path 2582" d="M389.649,148.468l-2.824-1.378L384,148.468l-.692,3.089,1.952,2.471h3.126l1.952-2.471Zm-2.027,3.948h-1.594l-.989-1.236.352-1.569,1.433-.723,1.433.7.352,1.569Z" transform="translate(-173.032 -147.09)" fill="#fff" stroke="#263238" stroke-linecap="round" stroke-linejoin="round" stroke-width="1"/>
      <path id="Path_2583" data-name="Path 2583" d="M148.329,455.353,145.506,454l-2.817,1.378-.7,3.089,1.952,2.471h3.133l1.946-2.471Zm-2.008,3.948h-1.606l-.995-1.236.352-1.569,1.433-.7,1.433.673.352,1.569Z" transform="translate(-80.814 -264.373)" fill="#fff" stroke="#263238" stroke-linecap="round" stroke-linejoin="round" stroke-width="1"/>
      <path id="Path_2584" data-name="Path 2584" d="M108.329,359.353,105.506,358l-2.817,1.378-.7,3.089,1.952,2.471h3.133l1.946-2.471Zm-2.008,3.948h-1.606l-.995-1.236.352-1.569,1.433-.7,1.433.673.352,1.569Z" transform="translate(-65.528 -227.688)" fill="#fff" stroke="#263238" stroke-linecap="round" stroke-linejoin="round" stroke-width="1"/>
      <path id="Path_2585" data-name="Path 2585" d="M72.359,233.758l-2.824-1.378-2.817,1.378-.7,3.089,1.952,2.471H71.1l1.952-2.471Zm-2.027,3.948H68.745l-.995-1.236.358-1.569,1.427-.7,1.415.673.371,1.594Z" transform="translate(-51.782 -179.683)" fill="#fff" stroke="#263238" stroke-linecap="round" stroke-linejoin="round" stroke-width="1"/>
      <path id="Path_2586" data-name="Path 2586" d="M230.439,300.152l-2.817-1.372-2.824,1.372-.7,3.089,1.952,2.471h3.133l1.952-2.471Zm-2.027,3.948h-1.588l-.989-1.236.352-1.569,1.433-.7,1.433.7.352,1.569Z" transform="translate(-112.192 -205.057)" fill="#fff" stroke="#263238" stroke-linecap="round" stroke-linejoin="round" stroke-width="1"/>
    </g>
    <g id="freepik--Arrows--inject-2" transform="translate(27.408 13.74)">
      <path id="Path_2587" data-name="Path 2587" d="M30.12,79.36h96.689v24.683" transform="translate(-29.341 -38.816)" fill="none" stroke="#263238" stroke-linecap="round" stroke-linejoin="round" stroke-width="1"/>
      <path id="Path_2588" data-name="Path 2588" d="M28.86,87.178H92.345l9.515-7.748" transform="translate(-28.86 -38.843)" fill="none" stroke="#263238" stroke-linecap="round" stroke-linejoin="round" stroke-width="1"/>
      <path id="Path_2589" data-name="Path 2589" d="M111.906,72.892l-8.8-10.572H29.49" transform="translate(-29.101 -32.304)" fill="none" stroke="#263238" stroke-linecap="round" stroke-linejoin="round" stroke-width="1"/>
      <path id="Path_2590" data-name="Path 2590" d="M30.75,49.71h55.3l7.47,7.81" transform="translate(-29.582 -27.486)" fill="none" stroke="#263238" stroke-linecap="round" stroke-linejoin="round" stroke-width="1"/>
      <path id="Path_2591" data-name="Path 2591" d="M88.532,76.628l-5.06-4.208H30.12" transform="translate(-29.341 -36.164)" fill="none" stroke="#263238" stroke-linecap="round" stroke-linejoin="round" stroke-width="1"/>
      <path id="Path_2592" data-name="Path 2592" d="M187.679,114.61l-2.422,3.509-2.057-3.386" transform="translate(-87.84 -52.287)" fill="none" stroke="#263238" stroke-linecap="round" stroke-linejoin="round" stroke-width="1"/>
      <path id="Path_2593" data-name="Path 2593" d="M30.12,102.64h81.971v10.479" transform="translate(-29.341 -47.712)" fill="none" stroke="#263238" stroke-linecap="round" stroke-linejoin="round" stroke-width="1"/>
      <path id="Path_2594" data-name="Path 2594" d="M163.869,114.9l-2.422,3.509-2.057-3.392" transform="translate(-78.741 -52.398)" fill="none" stroke="#263238" stroke-linecap="round" stroke-linejoin="round" stroke-width="1"/>
      <path id="Path_2595" data-name="Path 2595" d="M125.81,55.59h48.421V95.318" transform="translate(-65.909 -29.733)" fill="none" stroke="#263238" stroke-linecap="round" stroke-linejoin="round" stroke-width="1"/>
      <path id="Path_2596" data-name="Path 2596" d="M205.249,115.19l-2.422,3.509-2.057-3.392" transform="translate(-94.554 -52.508)" fill="none" stroke="#263238" stroke-linecap="round" stroke-linejoin="round" stroke-width="1"/>
      <path id="Path_2597" data-name="Path 2597" d="M410.079,79.36H313.39v24.683" transform="translate(-137.591 -38.816)" fill="none" stroke="#263238" stroke-linecap="round" stroke-linejoin="round" stroke-width="1"/>
      <path id="Path_2598" data-name="Path 2598" d="M425.99,87.178H362.505L352.99,79.43" transform="translate(-152.724 -38.843)" fill="none" stroke="#263238" stroke-linecap="round" stroke-linejoin="round" stroke-width="1"/>
      <path id="Path_2599" data-name="Path 2599" d="M337.12,72.892l8.8-10.572h73.618" transform="translate(-146.659 -32.304)" fill="none" stroke="#263238" stroke-linecap="round" stroke-linejoin="round" stroke-width="1"/>
      <path id="Path_2600" data-name="Path 2600" d="M430.428,49.71h-55.3l-7.47,7.81" transform="translate(-158.33 -27.486)" fill="none" stroke="#263238" stroke-linecap="round" stroke-linejoin="round" stroke-width="1"/>
      <path id="Path_2601" data-name="Path 2601" d="M375.34,76.628l5.06-4.208h53.352" transform="translate(-161.265 -36.164)" fill="none" stroke="#263238" stroke-linecap="round" stroke-linejoin="round" stroke-width="1"/>
      <path id="Path_2602" data-name="Path 2602" d="M309.55,114.61l2.422,3.509,2.057-3.386" transform="translate(-136.124 -52.287)" fill="none" stroke="#263238" stroke-linecap="round" stroke-linejoin="round" stroke-width="1"/>
      <path id="Path_2603" data-name="Path 2603" d="M419.177,102.64H337.2v10.479" transform="translate(-146.69 -47.712)" fill="none" stroke="#263238" stroke-linecap="round" stroke-linejoin="round" stroke-width="1"/>
      <path id="Path_2604" data-name="Path 2604" d="M333.36,114.9l2.422,3.509,2.057-3.392" transform="translate(-145.222 -52.398)" fill="none" stroke="#263238" stroke-linecap="round" stroke-linejoin="round" stroke-width="1"/>
      <path id="Path_2605" data-name="Path 2605" d="M344.242,55.59H295.82V95.318" transform="translate(-130.877 -29.733)" fill="none" stroke="#263238" stroke-linecap="round" stroke-linejoin="round" stroke-width="1"/>
      <path id="Path_2606" data-name="Path 2606" d="M291.98,115.19,294.4,118.7l2.057-3.392" transform="translate(-129.409 -52.508)" fill="none" stroke="#263238" stroke-linecap="round" stroke-linejoin="round" stroke-width="1"/>
      <line id="Line_171" data-name="Line 171" y2="64.739" transform="translate(136.998 0.779)" fill="none" stroke="#263238" stroke-linecap="round" stroke-linejoin="round" stroke-width="1"/>
      <path id="Path_2607" data-name="Path 2607" d="M258.408,13.74V51.819l-7.748,9.515" transform="translate(-113.619 -13.74)" fill="none" stroke="#263238" stroke-linecap="round" stroke-linejoin="round" stroke-width="1"/>
      <path id="Path_2608" data-name="Path 2608" d="M244.125,71.386l-10.565-8.8V14.37" transform="translate(-107.085 -13.981)" fill="none" stroke="#263238" stroke-linecap="round" stroke-linejoin="round" stroke-width="1"/>
      <path id="Path_2609" data-name="Path 2609" d="M220.94,15.63v29.9l7.816,7.464" transform="translate(-102.262 -14.462)" fill="none" stroke="#263238" stroke-linecap="round" stroke-linejoin="round" stroke-width="1"/>
      <path id="Path_2610" data-name="Path 2610" d="M247.864,48.006l-4.214-5.06V15" transform="translate(-110.94 -14.221)" fill="none" stroke="#263238" stroke-linecap="round" stroke-linejoin="round" stroke-width="1"/>
      <path id="Path_2611" data-name="Path 2611" d="M246.74,115.08l2.422,3.509,2.064-3.392" transform="translate(-112.121 -52.466)" fill="none" stroke="#263238" stroke-linecap="round" stroke-linejoin="round" stroke-width="1"/>
      <line id="Line_172" data-name="Line 172" y2="64.739" transform="translate(151.381 0.779)" fill="none" stroke="#263238" stroke-linecap="round" stroke-linejoin="round" stroke-width="1"/>
      <path id="Path_2612" data-name="Path 2612" d="M270.03,115.08l2.422,3.509,2.057-3.392" transform="translate(-121.021 -52.466)" fill="none" stroke="#263238" stroke-linecap="round" stroke-linejoin="round" stroke-width="1"/>
      <line id="Line_173" data-name="Line 173" y2="31.023" transform="translate(122.311 34.495)" fill="none" stroke="#263238" stroke-linecap="round" stroke-linejoin="round" stroke-width="1"/>
      <path id="Path_2613" data-name="Path 2613" d="M222.97,115.08l2.428,3.509,2.057-3.392" transform="translate(-103.038 -52.466)" fill="none" stroke="#263238" stroke-linecap="round" stroke-linejoin="round" stroke-width="1"/>
    </g>
    <g id="freepik--Text--inject-2" transform="translate(114.359 96.999)">
      <path id="Path_2614" data-name="Path 2614" d="M177.45,204.247v2.181h-5.326v7.76h6.543V216.4H169.69V194.59h8.977V196.8h-6.543v7.445Z" transform="translate(-169.628 -166.109)" fill="#263238"/>
      <path id="Path_2615" data-name="Path 2615" d="M192.7,194.59c3.429,0,4.863,1.742,4.863,4.986v1.773c0,2.4-.84,3.9-2.712,4.486,2,.618,2.743,2.218,2.743,4.554v3.392a5.431,5.431,0,0,0,.439,2.62h-2.471a5.771,5.771,0,0,1-.4-2.651v-3.423c0-2.471-1.155-3.244-3.182-3.244h-1.711V216.4H187.84V194.59Zm-.618,10.281c1.928,0,3.089-.618,3.089-2.99v-2.095c0-1.965-.717-2.99-2.527-2.99h-2.366v8.069Z" transform="translate(-176.564 -166.109)" fill="#263238"/>
      <path id="Path_2616" data-name="Path 2616" d="M212.573,194.59c3.429,0,4.863,1.742,4.863,4.986v1.773c0,2.4-.84,3.9-2.712,4.486,2,.618,2.743,2.218,2.743,4.554v3.392a5.431,5.431,0,0,0,.439,2.62h-2.471a5.771,5.771,0,0,1-.4-2.651v-3.423c0-2.471-1.155-3.244-3.182-3.244h-1.711V216.4H207.71V194.59Zm-.618,10.281c1.934,0,3.089-.618,3.089-2.99v-2.095c0-1.965-.717-2.99-2.527-2.99h-2.366v8.069Z" transform="translate(-184.157 -166.109)" fill="#263238"/>
      <path id="Path_2617" data-name="Path 2617" d="M227.28,199.72c0-3.33,1.65-5.48,4.986-5.48s5.017,2.15,5.017,5.48V211c0,3.3-1.65,5.48-5.017,5.48S227.28,214.3,227.28,211Zm2.4,11.406c0,2,.846,3.145,2.589,3.145s2.589-1.149,2.589-3.145V199.6c0-1.965-.816-3.145-2.589-3.145s-2.589,1.18-2.589,3.145Z" transform="translate(-191.636 -165.975)" fill="#263238"/>
      <path id="Path_2618" data-name="Path 2618" d="M252.063,194.59c3.423,0,4.856,1.742,4.856,4.986v1.773c0,2.4-.84,3.9-2.706,4.486,1.989.618,2.737,2.218,2.737,4.554v3.392a5.431,5.431,0,0,0,.439,2.62h-2.471a5.666,5.666,0,0,1-.408-2.651v-3.423c0-2.471-1.149-3.244-3.176-3.244h-1.718V216.4H247.2V194.59Zm-.618,10.281c1.934,0,3.089-.618,3.089-2.99v-2.095c0-1.965-.717-2.99-2.521-2.99h-2.373v8.069Z" transform="translate(-199.248 -166.109)" fill="#263238"/>
      <path id="Path_2619" data-name="Path 2619" d="M283.4,212.007V216.4h-2.373v-4.393H274V209.8l6.759-15.205h2.651V209.8h1.711v2.212ZM276.23,209.8h4.795V199.168Z" transform="translate(-209.489 -166.109)" fill="#263238"/>
      <path id="Path_2620" data-name="Path 2620" d="M304.872,199.751c0,6.574-7.383,8.947-7.414,13.964v.34h7.167v2.212H295.06v-1.854c0-7.037,7.383-8.409,7.383-14.551,0-2.243-.748-3.423-2.558-3.423s-2.552,1.273-2.552,3.207v1.934H295.06V199.8c0-3.33,1.526-5.561,4.887-5.561S304.872,196.421,304.872,199.751Z" transform="translate(-217.537 -165.975)" fill="#263238"/>
      <path id="Path_2621" data-name="Path 2621" d="M324.231,199.72v11.121c0,3.454-1.563,5.635-5.048,5.635-3.336,0-4.943-2.15-4.943-5.48v-.408h2.323v.562c0,1.965.84,3.089,2.589,3.089,1.854,0,2.675-1.18,2.675-3.491v-4.856a3.485,3.485,0,0,1-3.522,2.3c-2.8,0-4.047-2-4.047-5.141V199.72c0-3.33,1.619-5.48,4.986-5.48S324.231,196.39,324.231,199.72Zm-7.606-.124v3.275c0,1.959.84,3.145,2.589,3.145s2.583-1.186,2.583-3.145V199.6c0-2-.809-3.145-2.583-3.145S316.625,197.6,316.625,199.6Z" transform="translate(-224.867 -165.975)" fill="#263238"/>
      <path id="Path_2622" data-name="Path 2622" d="M171.9,251.191V240.5H169.59v-.686h5.382v.686h-2.323v10.7Z" transform="translate(-169.59 -183.39)" fill="#263238"/>
      <path id="Path_2623" data-name="Path 2623" d="M179.72,242.529c0-1.656.766-2.879,2.471-2.879s2.515,1.236,2.515,2.879v5.82c0,1.656-.76,2.873-2.515,2.873s-2.471-1.236-2.471-2.873Zm.748,5.87c0,1.236.488,2.144,1.742,2.144s1.767-.908,1.767-2.144V242.48c0-1.236-.5-2.144-1.767-2.144s-1.742.908-1.742,2.144Z" transform="translate(-173.461 -183.329)" fill="#263238"/>
      <path id="Path_2624" data-name="Path 2624" d="M189.74,242.529c0-1.656.766-2.879,2.471-2.879s2.515,1.236,2.515,2.879v5.82c0,1.656-.76,2.873-2.515,2.873s-2.471-1.236-2.471-2.873Zm.748,5.87c0,1.236.488,2.144,1.742,2.144S194,249.635,194,248.4V242.48c0-1.236-.507-2.144-1.773-2.144s-1.742.908-1.742,2.144Z" transform="translate(-177.29 -183.329)" fill="#263238"/>
      <path id="Path_2625" data-name="Path 2625" d="M207.738,251.172h-.748l-2.4-10.059v10.077h-.667V239.81H205l2.385,10.065,2.373-10.065h1.075v11.381h-.717V241.077Z" transform="translate(-182.709 -183.39)" fill="#263238"/>
      <path id="Path_2626" data-name="Path 2626" d="M218.224,248.662l-.575,2.521h-.68l2.471-11.393h1.094l2.533,11.393h-.748l-.568-2.521Zm.111-.649h3.318l-1.674-7.365Z" transform="translate(-187.696 -183.382)" fill="#263238"/>
      <path id="Path_2627" data-name="Path 2627" d="M229.356,251.191h-.686V239.81h.976l3.411,9.608V239.81h.686v11.381h-.828l-3.559-10.145Z" transform="translate(-192.167 -183.39)" fill="#263238"/>
      <path id="Path_2628" data-name="Path 2628" d="M241.162,246.816l-2.552-7.006h.785l2.175,5.981,2.181-5.981h.729l-2.539,7.006v4.374h-.748Z" transform="translate(-195.965 -183.39)" fill="#263238"/>
      <path id="Path_2629" data-name="Path 2629" d="M256.342,239.81c1.736,0,2.441.958,2.441,2.57v.989a2.082,2.082,0,0,1-1.644,2.36,2.062,2.062,0,0,1,1.644,2.323v1.761a2.589,2.589,0,0,0,.272,1.365h-.778a2.651,2.651,0,0,1-.241-1.365v-1.792c0-1.508-.834-1.934-2.132-1.934h-1.186v5.091H254V239.81Zm-.42,5.61c1.328,0,2.113-.377,2.113-1.9v-1.075c0-1.236-.476-1.946-1.711-1.946h-1.606v4.943Z" transform="translate(-201.847 -183.39)" fill="#263238"/>
      <path id="Path_2630" data-name="Path 2630" d="M267.955,245.08v.68h-3.089v4.745H268.6v.686h-4.5V239.81h4.486v.686h-3.738v4.585Z" transform="translate(-205.706 -183.39)" fill="#263238"/>
      <path id="Path_2631" data-name="Path 2631" d="M278.261,242.529v5.82a3.281,3.281,0,0,1-.538,1.965.914.914,0,0,0,.9.457h.173v.667H278.6a1.433,1.433,0,0,1-1.347-.667,2.472,2.472,0,0,1-1.5.451c-1.742,0-2.509-1.236-2.509-2.873v-5.82c0-1.656.766-2.879,2.509-2.879S278.261,240.873,278.261,242.529ZM274,242.48V248.4c0,1.236.507,2.144,1.761,2.144s1.755-.908,1.755-2.144V242.48c0-1.236-.507-2.144-1.755-2.144S274,241.244,274,242.48Z" transform="translate(-209.203 -183.329)" fill="#263238"/>
      <path id="Path_2632" data-name="Path 2632" d="M284.258,248.43c0,1.236.457,2.162,1.711,2.162s1.705-.945,1.705-2.162v-8.65h.7v8.6c0,1.625-.686,2.873-2.422,2.873s-2.441-1.236-2.441-2.873V239.8h.748Z" transform="translate(-213.124 -183.378)" fill="#263238"/>
      <path id="Path_2633" data-name="Path 2633" d="M297.313,245.08v.68h-3.089v4.745h3.738v.686H293.47V239.81h4.492v.686h-3.738v4.585Z" transform="translate(-216.93 -183.39)" fill="#263238"/>
      <path id="Path_2634" data-name="Path 2634" d="M307.4,242.487v.241h-.717v-.29c0-1.236-.457-2.113-1.693-2.113s-1.687.9-1.687,2.095c0,2.768,4.109,2.811,4.109,5.95,0,1.643-.711,2.842-2.471,2.842s-2.471-1.2-2.471-2.842v-.587h.717v.618c0,1.236.47,2.095,1.724,2.095s1.718-.877,1.718-2.095c0-2.731-4.109-2.78-4.109-5.95,0-1.705.748-2.811,2.422-2.83S307.4,240.843,307.4,242.487Z" transform="translate(-220.369 -183.317)" fill="#263238"/>
      <path id="Path_2635" data-name="Path 2635" d="M314.095,251.191V240.5h-2.3v-.686h5.382v.686h-2.329v10.7Z" transform="translate(-223.931 -183.39)" fill="#263238"/>
      <path id="Path_2636" data-name="Path 2636" d="M326.7,242.487v.241h-.711v-.29c0-1.236-.457-2.113-1.693-2.113s-1.687.9-1.687,2.095c0,2.768,4.109,2.811,4.109,5.95,0,1.643-.717,2.842-2.471,2.842s-2.471-1.2-2.471-2.842v-.587h.754v.618c0,1.236.476,2.095,1.724,2.095s1.724-.877,1.724-2.095c0-2.731-4.109-2.78-4.109-5.95,0-1.705.748-2.811,2.416-2.83S326.7,240.843,326.7,242.487Z" transform="translate(-227.748 -183.317)" fill="#263238"/>
      <path id="Path_2637" data-name="Path 2637" d="M245.25,148.875,234.438,167.6a.754.754,0,0,0,.655,1.131h21.625a.754.754,0,0,0,.655-1.131L246.56,148.875a.754.754,0,0,0-1.31,0Z" transform="translate(-194.332 -148.494)" fill="#263238" stroke="#263238" stroke-width="1"/>
      <path id="Path_2638" data-name="Path 2638" d="M246.461,152.535l-8.854,15.335a.754.754,0,0,0,.655,1.131H255.97a.754.754,0,0,0,.655-1.131l-8.854-15.335a.754.754,0,0,0-1.31,0Z" transform="translate(-195.544 -149.893)" fill="#fff" stroke="#263238" stroke-width="1"/>
      <path id="Path_2639" data-name="Path 2639" d="M251.91,163.254V157.44h1.378v5.814l-.179,3.818h-1.026Zm1.341,4.838v1.718h-1.322v-1.718Z" transform="translate(-201.048 -151.913)" fill="#263238"/>
    </g>
  </g>
</svg>
