<svg xmlns="http://www.w3.org/2000/svg" width="19.786" height="19.791" viewBox="0 0 19.786 19.791">
  <g id="medical-receipt-left-2" transform="translate(-1.964 -2.25)">
    <rect id="secondary" width="5" height="10.66" rx="2.5" transform="translate(1.964 14.503) rotate(-45)" fill="#5c85b5"/>
    <path id="primary" d="M14,8v4m2-2H12m-.73,6.73a2.52,2.52,0,0,1,0,3.54h0a2.52,2.52,0,0,1-3.54,0l-4-4a2.52,2.52,0,0,1,0-3.54h0a2.52,2.52,0,0,1,3.54,0ZM9.12,14.88,5.88,18.12" fill="none" stroke="#000" stroke-linecap="round" stroke-linejoin="round" stroke-width="1.5"/>
    <path id="primary-2" data-name="primary" d="M7,8V4A1,1,0,0,1,8,3H20a1,1,0,0,1,1,1V20a1,1,0,0,1-1,1H16" fill="none" stroke="#000" stroke-linecap="round" stroke-linejoin="round" stroke-width="1.5"/>
  </g>
</svg>
