<svg xmlns="http://www.w3.org/2000/svg" width="12.293" height="25.209" viewBox="0 0 12.293 25.209">
  <path id="facebook-svgrepo-com" d="M127.075,13.426h2.668V24.8a.4.4,0,0,0,.393.407h4.523a.4.4,0,0,0,.393-.407V13.48h3.067a.4.4,0,0,0,.39-.36l.466-4.188a.416.416,0,0,0-.1-.317.387.387,0,0,0-.293-.136H135.05V5.853a1.071,1.071,0,0,1,1.223-1.193h2.309a.4.4,0,0,0,.393-.407V.41A.4.4,0,0,0,138.582,0H135.4c-.022,0-.072,0-.146,0a5.967,5.967,0,0,0-3.988,1.557,4.43,4.43,0,0,0-1.391,3.851v3.07h-2.8a.4.4,0,0,0-.393.407V13.02A.4.4,0,0,0,127.075,13.426Z" transform="translate(-126.682)" fill="#385c8e"/>
</svg>
