<svg xmlns="http://www.w3.org/2000/svg" width="53.264" height="53.281" viewBox="0 0 53.264 53.281">
  <g id="fb_icon-icons.com_65434" transform="translate(-9.83 -8.685)">
    <path id="Path_1226" data-name="Path 1226" d="M36.439,61.965a26.64,26.64,0,1,1,26.645-25.9A26.644,26.644,0,0,1,36.439,61.965Zm-23.364-26.6A23.375,23.375,0,1,0,36.012,11.829,23.5,23.5,0,0,0,13.076,35.363Z" transform="translate(0 0)" fill="#2a66ab"/>
    <path id="Path_1227" data-name="Path 1227" d="M172.415,118.217V99.375H168.3V93.026c.182-.011.363-.032.556-.032.994,0,2-.021,2.993.011.438.011.588-.107.577-.556-.021-1.625-.021-3.238-.011-4.863a6.621,6.621,0,0,1,1.828-4.81,6.98,6.98,0,0,1,4.628-2.084c2.822-.16,5.654-.139,8.486-.192.032,0,.064.032.128.064v6.52c-.2.011-.4.021-.577.021H183.06a1.893,1.893,0,0,0-2.052,2.052c0,1.208,0,2.426.011,3.634a1.57,1.57,0,0,0,.053.182h6.5c-.278,2.17-.534,4.243-.812,6.391h-5.771v18.875C178.111,118.217,175.311,118.217,172.415,118.217Z" transform="translate(-141.533 -64.14)" fill="#2a66ab"/>
  </g>
</svg>
