<svg xmlns="http://www.w3.org/2000/svg" width="291" height="175.443" viewBox="0 0 291 175.443">
  <g id="undraw_forgot_password_re_hxwm" transform="translate(0 -17.946)">
    <path id="Path_182" data-name="Path 182" d="M487.883,399.118A79.47,79.47,0,0,0,452.5,432.86a34.221,34.221,0,0,0-3.746,10.047,19.628,19.628,0,0,0,1.021,10.279c1.106,3.076,2.594,6.094,2.933,9.385a12.018,12.018,0,0,1-3.217,9.287c-2.811,3.15-6.587,5.1-10.345,6.882-4.173,1.977-8.539,3.964-11.494,7.654-.358.447-1.031-.135-.673-.581,5.142-6.419,13.945-7.626,20.049-12.8,2.848-2.413,4.987-5.7,4.852-9.549-.118-3.367-1.649-6.48-2.8-9.585a20.945,20.945,0,0,1-1.373-10.014,31.636,31.636,0,0,1,3.346-10.154,77.1,77.1,0,0,1,14.178-19.484,80.879,80.879,0,0,1,22.362-15.955c.514-.248.8.6.288.842Z" transform="translate(-334.338 -317.114)" fill="#fff"/>
    <path id="Path_183" data-name="Path 183" d="M507.01,460.868a11.923,11.923,0,0,1-3.6-15.014c.26-.51,1.064-.129.8.381a11.04,11.04,0,0,0,3.375,13.959C508.055,460.53,507.471,461.2,507.01,460.868Z" transform="translate(-386.566 -350.001)" fill="#fff"/>
    <path id="Path_184" data-name="Path 184" d="M498.33,553.837a22.98,22.98,0,0,0,14.55-8.293c.36-.446,1.033.136.673.581a23.9,23.9,0,0,1-15.158,8.6c-.568.081-.63-.806-.065-.887Z" transform="translate(-383.659 -419.25)" fill="#fff"/>
    <path id="Path_185" data-name="Path 185" d="M573.252,432.442a6.749,6.749,0,0,0,6.032,2.151c.566-.088.628.8.065.887a7.563,7.563,0,0,1-6.678-2.364.46.46,0,0,1-.046-.627A.447.447,0,0,1,573.252,432.442Z" transform="translate(-435.428 -340.785)" fill="#fff"/>
    <path id="Path_187" data-name="Path 187" d="M526.91,576.352a79.467,79.467,0,0,0-48.567,5.638,34.221,34.221,0,0,0-9.04,5.766,19.628,19.628,0,0,0-5.374,8.822c-.969,3.122-1.6,6.428-3.309,9.26a12.018,12.018,0,0,1-8.16,5.479c-4.141.822-8.331.108-12.4-.733-4.522-.934-9.2-1.976-13.786-.809-.555.141-.742-.728-.188-.869,7.971-2.029,15.725,2.307,23.712,1.853,3.727-.212,7.413-1.548,9.623-4.7,1.933-2.759,2.585-6.167,3.538-9.337a20.944,20.944,0,0,1,4.933-8.822,31.637,31.637,0,0,1,8.785-6.093,77.1,77.1,0,0,1,23.051-7.021,80.88,80.88,0,0,1,27.461.724C527.747,575.619,527.466,576.463,526.91,576.352Z" transform="translate(-333.557 -439.072)" fill="#fff"/>
    <path id="Path_188" data-name="Path 188" d="M612.072,559.786a11.923,11.923,0,0,1,6.167-14.154c.515-.25.927.538.412.788a11.04,11.04,0,0,0-5.709,13.178C613.109,560.145,612.239,560.329,612.072,559.786Z" transform="translate(-462.524 -419.389)" fill="#fff"/>
    <path id="Path_189" data-name="Path 189" d="M549.9,642.418a22.98,22.98,0,0,0,16.61,2.138c.556-.139.743.73.188.869a23.9,23.9,0,0,1-17.28-2.26C548.92,642.888,549.4,642.143,549.9,642.418Z" transform="translate(-419.248 -486.558)" fill="#fff"/>
    <path id="Path_190" data-name="Path 190" d="M694.406,575.28a6.749,6.749,0,0,0,3.521,5.349c.505.27.02,1.016-.482.747a7.562,7.562,0,0,1-3.909-5.908.46.46,0,0,1,.341-.529A.447.447,0,0,1,694.406,575.28Z" transform="translate(-519.417 -439.757)" fill="#fff"/>
    <path id="Path_191" data-name="Path 191" d="M260.075,528.676c-4.256-20.578-9.576-27.439-9.576-27.439l-2.032-1.576-2.444-1.9.012-.244-.58-.2-.136-.106-.223-.171-.036.039-.076.078-11.06-3.759-14.031-4.766-6.5-8.445a11.238,11.238,0,0,0-8.99-4.385l-20.75.154a11.237,11.237,0,0,0-7.559,3l-13.639,12.651-21.252,10.15-.036-.036-.223.159-3.284,1.57.135.705-2.032,1.466s-5.32,6.384-9.576,25.532c-1.083,4.872-1.616,15.323-1.808,28.2a4.916,4.916,0,0,0,4.914,4.989H256.974a4.917,4.917,0,0,0,4.914-4.984C261.7,545.348,261.168,533.959,260.075,528.676Z" transform="translate(-124.382 -370.957)" fill="#5b587e"/>
    <path id="Path_192" data-name="Path 192" d="M577.769,191.732a16.651,16.651,0,1,0,0,33.3H701.861a16.651,16.651,0,1,0,0-33.3Z" transform="translate(-427.512 -173.786)" fill="#e5e5e5"/>
    <path id="Path_193" data-name="Path 193" d="M585.414,202.747a13.281,13.281,0,1,0,0,26.563H709.507a13.281,13.281,0,0,0,0-26.563Z" transform="translate(-435.158 -181.432)" fill="#fff"/>
    <circle id="ab6171fa-7d69-4734-b81c-8dff60f9761b" cx="27.185" cy="27.185" r="27.185" transform="translate(45.723 42.684)" fill="#75424a"/>
    <path id="Path_194" data-name="Path 194" d="M339.184,444.227q-.174-.384-.347-.77c.045,0,.089.008.133.009Z" transform="translate(-273.231 -348.504)" fill="#2f2e41"/>
    <path id="Path_195" data-name="Path 195" d="M247.2,247.4a7.566,7.566,0,0,1,4.74-2.049c1.758.057,3.54,1.644,3.176,3.365a27.936,27.936,0,0,1,33.619-12.606c4.369,1.541,8.654,4.625,9.657,9.148a8.239,8.239,0,0,0,1.038,3.377,3.855,3.855,0,0,0,4.1,1.039l.043-.013a1.284,1.284,0,0,1,1.552,1.813l-1.236,2.306a9.907,9.907,0,0,0,4.72-.1,1.283,1.283,0,0,1,1.363,2,22.369,22.369,0,0,1-17.836,9.168c-4.939-.03-9.93-1.732-14.737-.6a12.8,12.8,0,0,0-8.61,17.97c-1.477-1.615-4.332-1.233-5.842.351A8.012,8.012,0,0,0,261.2,288.7a28.446,28.446,0,0,0,2.92,9.548A28.545,28.545,0,0,1,247.2,247.4Z" transform="translate(-202.234 -203.484)" fill="#2f2e41"/>
    <path id="Path_196" data-name="Path 196" d="M87.464,495.253l7.625,41.484,4.575.4Z" transform="translate(-60.707 -343.747)" opacity="0.2"/>
    <path id="Path_197" data-name="Path 197" d="M334.328,485.026,326.7,529.609l-4.575.428Z" transform="translate(-223.583 -336.648)" opacity="0.2"/>
    <path id="Path_199" data-name="Path 199" d="M647.782,269.423h-24.69a.595.595,0,1,1,0-1.189h24.69a.595.595,0,0,1,0,1.189Z" transform="translate(-470.116 -226.885)" fill="#8b80f8"/>
    <path id="Path_200" data-name="Path 200" d="M750.163,270.071h-24.69a.595.595,0,1,1,0-1.189h24.69a.595.595,0,1,1,0,1.189Z" transform="translate(-541.176 -227.335)" fill="#8b80f8"/>
    <path id="Path_201" data-name="Path 201" d="M852.545,270.719h-24.69a.595.595,0,0,1,0-1.189h24.69a.595.595,0,0,1,0,1.189Z" transform="translate(-612.238 -227.785)" fill="#8b80f8"/>
    <path id="Path_202" data-name="Path 202" d="M954.923,271.367h-24.69a.595.595,0,0,1,0-1.189h24.69a.595.595,0,1,1,0,1.189Z" transform="translate(-683.297 -228.234)" fill="#8b80f8"/>
    <circle id="Ellipse_57" data-name="Ellipse 57" cx="4.589" cy="4.589" r="4.589" transform="translate(160.679 27.888)" fill="#8b80f8"/>
    <circle id="Ellipse_58" data-name="Ellipse 58" cx="4.589" cy="4.589" r="4.589" transform="translate(192.188 27.888)" fill="#8b80f8"/>
    <circle id="Ellipse_59" data-name="Ellipse 59" cx="4.589" cy="4.589" r="4.589" transform="translate(223.698 27.888)" fill="#8b80f8"/>
    <circle id="Ellipse_60" data-name="Ellipse 60" cx="4.589" cy="4.589" r="4.589" transform="translate(255.207 27.888)" fill="#8b80f8"/>
  </g>
</svg>
