<svg id="undraw_join_re_w1lh" xmlns="http://www.w3.org/2000/svg" width="267.098" height="278.002" viewBox="0 0 267.098 278.002">
  <path id="Path_223" data-name="Path 223" d="M367.517,391.464l-.005.125,6.271,66.309H328.024l-5.931-40.725-2.611,39.681-46.991-.522,4.991-52.1,4.245-24.148v-.005l.637-3.634h83.9l.11,1.316Z" transform="translate(-130.218 -179.896)" fill="#2f2e41"/>
  <path id="Path_224" data-name="Path 224" d="M216.826,341.02c4.846.883,9.9-4.575,11.287-12.19a19.374,19.374,0,0,0-.407-9.14l.743-4.39,12.47-59.057s22.963-45.934,22.962-53.908-6.643-11.885-6.643-11.885l-8.988.084-28.185,68.84-5.076,50.87-.821,6.979a19.373,19.373,0,0,0-3.6,8.409c-1.388,7.616,1.416,14.5,6.263,15.388Z" transform="translate(-100.454 -91.012)" fill="#ffb6b6"/>
  <path id="Path_225" data-name="Path 225" d="M363.823,118.267l-8.354-19.318-27.15,4.7-1.827,22.729Z" transform="translate(-156.023 -47.285)" fill="#ffb6b6"/>
  <path id="Path_226" data-name="Path 226" d="M363.823,118.267l-8.354-19.318-27.15,4.7-1.827,22.729Z" transform="translate(-156.023 -47.285)" opacity="0.1"/>
  <path id="Path_227" data-name="Path 227" d="M376.229,162.384s-19.318-36.026-22.973-39.681c-1.627-1.627-4.185-1.65-6.523-1.175L319.84,112.26l-9.115-5.122-.6,9.744L280.2,122.254c.166-5.942,1-8.2,1-8.2L270.239,126.88l-21.407,10.442.012.094a8.517,8.517,0,0,0-4.189,3.039c-4.177,5.743-15.664,75.708-15.664,75.708l24.54,5.221,3.34-20.958,2.4,18.869,1.827,35.243s33.416,28.717,49.6,18.274,36.026-9.92,36.026-9.92l.5-16.336c.352-.563.549-.894.549-.894l-.522-57.947V172.3c3.978,5.542,8.778,10.307,14.358,12.539,18.274,7.31,14.619-22.451,14.619-22.451Z" transform="translate(-109.43 -51.199)" fill="#e6e6e6"/>
  <circle id="Ellipse_62" data-name="Ellipse 62" cx="24.978" cy="24.978" r="24.978" transform="translate(158.055 9.806)" fill="#ffb6b6"/>
  <path id="Path_228" data-name="Path 228" d="M340.5,41.843s2.172-7.6,7.059-7.059,5.973-3.8,4.887-5.973-3.258-13.032-3.258-13.032,1.086-7.6-5.43-8.688-8.688-2.172-9.774-4.344S316.611-1.6,311.181,1.661s-9.774,9.509-13.575,11.27-7.059,5.019-4.887,10.449,5.322,16.05,5.322,16.05,5.538-1.932,6.624,1.326-3.258-1.086,2.172-9.774,5.43-17.376,14.118-14.118,18.462,2.172,17.376,8.688,2.172,16.29,2.172,16.29Z" transform="translate(-139.551 0)" fill="#2f2e41"/>
  <g id="Group_30" data-name="Group 30" transform="translate(0 119.631)">
    <path id="Path_229" data-name="Path 229" d="M199.424,349.348H9.729A9.74,9.74,0,0,1,0,339.619V238.854a9.74,9.74,0,0,1,9.729-9.729H199.424a9.74,9.74,0,0,1,9.729,9.729V339.619a9.74,9.74,0,0,1-9.729,9.729Z" transform="translate(0 -229.125)" fill="#fff"/>
    <path id="Path_230" data-name="Path 230" d="M199.424,349.348H9.729A9.74,9.74,0,0,1,0,339.619V238.854a9.74,9.74,0,0,1,9.729-9.729H199.424a9.74,9.74,0,0,1,9.729,9.729V339.619a9.74,9.74,0,0,1-9.729,9.729ZM9.729,230.749a8.113,8.113,0,0,0-8.1,8.1V339.619a8.113,8.113,0,0,0,8.1,8.1H199.424a8.113,8.113,0,0,0,8.1-8.1V238.854a8.113,8.113,0,0,0-8.1-8.1H9.729Z" transform="translate(0 -229.125)" fill="#3f3d56"/>
    <circle id="Ellipse_63" data-name="Ellipse 63" cx="2.437" cy="2.437" r="2.437" transform="translate(182.346 7.311)" fill="#3f3d56"/>
    <circle id="Ellipse_64" data-name="Ellipse 64" cx="2.437" cy="2.437" r="2.437" transform="translate(188.845 7.311)" fill="#3f3d56"/>
    <circle id="Ellipse_65" data-name="Ellipse 65" cx="2.437" cy="2.437" r="2.437" transform="translate(195.343 7.311)" fill="#3f3d56"/>
    <path id="Path_231" data-name="Path 231" d="M25.333,323.251a1.22,1.22,0,0,0-1.218,1.218,1.23,1.23,0,0,0,1.218,1.219H207.68a1.22,1.22,0,0,0,1.218-1.219,1.23,1.23,0,0,0-1.218-1.218Z" transform="translate(-11.524 -274.106)" fill="#e6e6e6"/>
    <path id="Path_232" data-name="Path 232" d="M184.563,322.473v3.249H24.962a1.637,1.637,0,0,1-1.625-1.625,1.629,1.629,0,0,1,1.625-1.625Z" transform="translate(-11.152 -273.734)" fill="#747373"/>
    <path id="Path_233" data-name="Path 233" d="M353.956,304.857H337.71a3.249,3.249,0,1,1,0-6.5h16.246a3.249,3.249,0,1,1,0,6.5Z" transform="translate(-159.832 -262.21)" fill="#e6e6e6"/>
    <path id="Path_234" data-name="Path 234" d="M98.492,272.185H25.808a3.249,3.249,0,1,1,0-6.5H98.492a3.249,3.249,0,1,1,0,6.5Z" transform="translate(-10.781 -246.597)" fill="#e6e6e6"/>
    <path id="Path_235" data-name="Path 235" d="M25.333,393.262a1.22,1.22,0,0,0-1.218,1.218,1.23,1.23,0,0,0,1.218,1.219H207.68a1.22,1.22,0,0,0,1.218-1.219,1.23,1.23,0,0,0-1.218-1.218Z" transform="translate(-11.524 -307.562)" fill="#e6e6e6"/>
    <path id="Path_236" data-name="Path 236" d="M122.014,392.484v3.249H24.962a1.637,1.637,0,0,1-1.625-1.625,1.629,1.629,0,0,1,1.625-1.625Z" transform="translate(-11.152 -307.191)" fill="#747373"/>
    <path id="Path_237" data-name="Path 237" d="M353.956,374.868H337.71a3.249,3.249,0,1,1,0-6.5h16.246a3.249,3.249,0,1,1,0,6.5Z" transform="translate(-159.832 -295.667)" fill="#e6e6e6"/>
  </g>
  <g id="Group_31" data-name="Group 31" transform="translate(197.126 11.874)">
    <ellipse id="Ellipse_66" data-name="Ellipse 66" cx="25.441" cy="24.905" rx="25.441" ry="24.905" fill="#8b80f8"/>
    <path id="Path_238" data-name="Path 238" d="M425.582,45.849l-10.161,18.5q-3.238-5.721-6.47-11.446a1.177,1.177,0,0,0-2.031,1.187c2.509,4.418,4.991,8.851,7.5,13.268a1.186,1.186,0,0,0,2.031,0l11.162-20.325c.729-1.328-1.3-2.516-2.031-1.187Z" transform="translate(-391.506 -33.506)" fill="#fff"/>
  </g>
  <path id="Path_239" data-name="Path 239" d="M448.888,158.791,423.54,146.665s-1.018-8.116-5.772-11.01c-.808-1.928-1.738-4.046-2.582-5.724-2.088-4.15,1.044-11.982-1.566-11.982s-6.47,8.237-6.265,10.442c.157,1.693,1.556,4.649,1.845,7.237a22.332,22.332,0,0,0-7.44,4.9,5.5,5.5,0,0,0-1.433,5.488c1.655,5.663,5.791,17.36,11.727,17.36,7.832,0,9.92-1.566,9.92-1.566s16.186,20.363,28.195,21.929-1.281-24.945-1.281-24.945Z" transform="translate(-191.201 -56.365)" fill="#ffb6b6"/>
</svg>
