<svg xmlns="http://www.w3.org/2000/svg" width="217.892" height="281.83" viewBox="0 0 217.892 281.83">
  <g id="undraw_moving_forward_re_rs8p" transform="translate(-62.796 0)">
    <path id="Path_204" data-name="Path 204" d="M210.1,15.883c-1,4.218,4.235,3.63,1.815,11.494,0,4.514-5.77,4.235-10.284,4.235H184.089c-3.035.192-9.52-.621-9.074-3.63l2.42-6.049c.9-3.4-3.1-3.627-3.04-7.142.062-3.768,3.683-7.283,4.855-9.8S182.459.3,187.718.759c1.8.157,7.273-.456,9.03-.034h0a24.607,24.607,0,0,1,8.743,4.039h0a15.69,15.69,0,0,1,4.592,10.308v.018c.012.266.018.526.018.792Z" transform="translate(-68.896 -0.227)" fill="#2f2e41"/>
    <g id="Group_25" data-name="Group 25" transform="translate(103.097 241.903)">
      <path id="Path_205" data-name="Path 205" d="M178.966,425.957l5.79.136,3.227-26.011-8.544-.2Z" transform="translate(-173.799 -399.88)" fill="#ffb6b6"/>
      <path id="Path_206" data-name="Path 206" d="M195.456,445.928h0a1.672,1.672,0,0,1-1.55,1.771H182.413a10.379,10.379,0,0,0-5.742-6.5l-.318,6.5h-5.928l.718-10.455s-1.586-5.594,1.708-8.453.626-2.461.626-2.461l1.3-6.471,8.958,1.053.066,10.158,4.347,10.083,6.377,3.15a1.794,1.794,0,0,1,.935,1.625h0Z" transform="translate(-170.425 -407.773)" fill="#2f2e41"/>
    </g>
    <g id="Group_26" data-name="Group 26" transform="translate(62.796 219.939)">
      <path id="Path_207" data-name="Path 207" d="M125.318,382.87l4.264,3.919,19.57-17.435-6.292-5.783Z" transform="translate(-112.304 -363.571)" fill="#ffb6b6"/>
      <path id="Path_208" data-name="Path 208" d="M123.8,410.426h0a1.672,1.672,0,0,1-2.333.31l-8.643-7.574a10.379,10.379,0,0,0-.033-8.674l-4.525,4.68L103.8,395.26l7.431-7.39s2.494-5.252,6.855-5.232,2.093-1.439,2.093-1.439l5.239-4.013,6.043,6.7-6.646,7.683-3.376,10.448,2.72,6.572a1.794,1.794,0,0,1-.368,1.839h0Z" transform="translate(-103.805 -368.95)" fill="#2f2e41"/>
    </g>
    <path id="Path_209" data-name="Path 209" d="M176.469,145.88a20.885,20.885,0,0,1-6.049,16.333l24.8,9.679,18.148-6.654s-6.654-13.914-3.63-18.148Z" transform="translate(-67.326 -57.631)" fill="#ffb6b6"/>
    <path id="Path_210" data-name="Path 210" d="M201.482,53.88l-17.846,1.512h0a27.813,27.813,0,0,0-12.379,23.734l.068,3.183a113.224,113.224,0,0,0,1.514,15.933c.73,4.448,4.446,19.762-3.418,27.626l41.136-6.049A30.087,30.087,0,0,1,211.9,98.769c3.126-7.149,1.693-15.512.868-23.27l-1.3-12.242-9.982-9.377Z" transform="translate(-66.931 -21.286)" fill="#3f3d56"/>
    <g id="Group_27" data-name="Group 27" transform="translate(138.785 38.952)">
      <path id="Path_211" data-name="Path 211" d="M329.811,93.943a7.819,7.819,0,0,0-2.966,2.2l-12.26,4.48,2.3,5.771,12.188-5.165a7.819,7.819,0,0,0,3.627-.692c2.861-1.255,4.532-3.748,3.734-5.569s-3.765-2.279-6.626-1.024h0Z" transform="translate(-263.065 -75.786)" fill="#3f3d56"/>
      <path id="Path_212" data-name="Path 212" d="M229.42,66.2s3.753-3.63,9.439-.6,23.833,27.222,23.833,27.222L288.7,84.952l3.2,7.864-32.841,12.7L229.42,77.981V66.2Z" transform="translate(-229.42 -64.39)" fill="#3f3d56"/>
    </g>
    <circle id="Ellipse_61" data-name="Ellipse 61" cx="12.601" cy="12.601" r="12.601" transform="translate(114.794 3.849)" fill="#ffb6b6"/>
    <path id="Path_213" data-name="Path 213" d="M214.954,14.446c-.478.69-3.015-1.833-6.911-2.112-.992-.073-3.228,3.273-5.793,3.322-1.7.03-2.746.018-4.84,0-2.474-.024-3.152-.073-3.63-.6-.926-1.034-.163-2.873-.6-3.025-.369-.127-1.325,1.01-1.815,2.42-1.028,2.958,2.662,7.078,3.025,10.889.387,4.108-3.424-3.763-3.025,0,.448,4.235,2.051,3.914,2.033,5.444a.95.95,0,0,1-.218.6c-.127.157-.254.218-2.42.6a21.931,21.931,0,0,1-4.235.6c-.889-.23-1.791-1.506-2.42-2.42-1.041-1.494-.3.012,0-1.815.29-1.766,1.2-2,1.21-3.63.012-2.057-1.422-2.68-2.42-4.84-1.845-3.993-.042-8.614.6-10.284a26.88,26.88,0,0,1,1.863-3.488,10.8,10.8,0,0,1,3.13-3.415A15.615,15.615,0,0,1,195.068.1a10.437,10.437,0,0,1,3.975.219l3.372.81a11.065,11.065,0,0,1,3.931,1.816h0a2.606,2.606,0,0,1,2.426,1.745c.039.108.075.171.1.162,6.077-1.9,6.073,3.727,6.007,7.242a4.961,4.961,0,0,0,.053.937v.018a2.49,2.49,0,0,1,.018,1.4Z" transform="translate(-71.934 0)" fill="#2f2e41"/>
    <path id="Path_214" data-name="Path 214" d="M201.087,166.88s-6.654,13.914-41.136,1.815c-4.754-.276-7.515,47.03-1.21,70.778,6.125,23.071,5.142,74.71,5.142,74.71l10.889-.6,8.772-69.871-2.117-32.969,6.049,41.136L143.92,289.38l6.654,10.284,58.074-40.531S214.7,186.541,201.087,166.88Z" transform="translate(-56.857 -65.928)" fill="#2f2e41"/>
    <g id="Group_28" data-name="Group 28" transform="translate(158.025 55.582)">
      <path id="Path_216" data-name="Path 216" d="M340.1,162.992l12.744-6.037c-5.227,7.294-9.731,18.687-12.142,27.752-4.083-8.444-10.664-18.777-17.178-24.948l13.469,3.465c-8.3-40.674-39.515-69.875-75.261-69.875l-.506-1.469c37.338,0,70.4,28.8,78.875,71.112Z" transform="translate(-261.224 -91.879)" fill="#3f3d56"/>
      <path id="Path_217" data-name="Path 217" d="M316.606,303.79h80.519a6.194,6.194,0,1,0,0-12.388H316.606a6.194,6.194,0,0,0,0,12.388Z" transform="translate(-280.656 -170.703)" fill="#8b80f8"/>
    </g>
    <g id="Group_29" data-name="Group 29" transform="translate(104.304 39.366)">
      <path id="Path_218" data-name="Path 218" d="M272.811,93.943a7.819,7.819,0,0,0-2.966,2.2l-12.26,4.48,2.3,5.771,12.188-5.165a7.819,7.819,0,0,0,3.627-.692c2.861-1.255,4.532-3.748,3.734-5.569s-3.765-2.279-6.626-1.024h0Z" transform="translate(-206.065 -76.199)" fill="#3f3d56"/>
      <path id="Path_219" data-name="Path 219" d="M172.42,71.5a6.393,6.393,0,0,1,9.269-5.726l.17.089c5.685,3.025,23.833,27.222,23.833,27.222L231.7,85.222l3.2,7.864-32.841,12.7L174.5,80.185a6.517,6.517,0,0,1-2.081-4.775V71.5Z" transform="translate(-172.42 -65.074)" fill="#3f3d56"/>
    </g>
    <path id="Path_222" data-name="Path 222" d="M179.722,11.4A5.327,5.327,0,0,1,182.58,1.139c2.834.789,4.9,5.655,1.992,6.085-3.46.511-2.016,4.968-4.85,4.179Z" transform="translate(-69.46 -0.372)" fill="#2f2e41"/>
  </g>
</svg>
