<svg xmlns="http://www.w3.org/2000/svg" width="15.927" height="16.275" viewBox="0 0 15.927 16.275">
  <g id="Icons" transform="translate(-0.214 -0.533)">
    <g id="Color-" transform="translate(0.214 0.533)">
      <g id="Google" transform="translate(0 0)">
        <path id="Fill-1" d="M3.547,17.209A4.813,4.813,0,0,1,3.792,15.7L1.049,13.6a8.193,8.193,0,0,0,0,7.207l2.741-2.1a4.814,4.814,0,0,1-.242-1.5" transform="translate(-0.214 -9.072)" fill="#fbbc05" fill-rule="evenodd"/>
        <path id="Fill-2" d="M9.937,3.862a4.715,4.715,0,0,1,3,1.073l2.371-2.367a8.144,8.144,0,0,0-12.684,2.5L5.366,7.16a4.8,4.8,0,0,1,4.571-3.3" transform="translate(-1.788 -0.533)" fill="#eb4335" fill-rule="evenodd"/>
        <path id="Fill-3" d="M9.937,31.654a4.8,4.8,0,0,1-4.571-3.3L2.623,30.45a8.125,8.125,0,0,0,7.313,4.533,7.766,7.766,0,0,0,5.309-2.028l-2.6-2.013a5.04,5.04,0,0,1-2.706.712" transform="translate(-1.788 -18.708)" fill="#34a853" fill-rule="evenodd"/>
        <path id="Fill-4" d="M31.492,21.213a6.743,6.743,0,0,0-.185-1.48H23.714v3.144h4.371A3.665,3.665,0,0,1,26.42,25.31l2.6,2.013a8.093,8.093,0,0,0,2.469-6.109" transform="translate(-15.565 -13.075)" fill="#4285f4" fill-rule="evenodd"/>
      </g>
    </g>
  </g>
</svg>
