<svg xmlns="http://www.w3.org/2000/svg" width="22.417" height="22.423" viewBox="0 0 22.417 22.423">
  <g id="help-svgrepo-com" transform="translate(-15.035 -16.562)">
    <path id="Path_781" data-name="Path 781" d="M26.247,16.562a11.211,11.211,0,1,0,7.927,3.283A11.139,11.139,0,0,0,26.247,16.562Zm4.724,2.524-2.484,2.485a6.339,6.339,0,0,0-4.316-.012l-2.535-2.535a9.914,9.914,0,0,1,9.335.062ZM22.716,31.193a5.085,5.085,0,1,1,3.6,1.49A5.091,5.091,0,0,1,22.716,31.193Zm-4.938-8.527,2.574,2.574a6.443,6.443,0,0,0-.065,4.528L17.559,32.5a9.909,9.909,0,0,1,.219-9.832Zm3.471,13.64,2.737-2.736a6.393,6.393,0,0,0,4.685-.012l2.683,2.683a9.906,9.906,0,0,1-10.1.065Zm13.743-3.925-2.645-2.645a6.443,6.443,0,0,0-.065-4.462l2.495-2.495A9.926,9.926,0,0,1,34.993,32.381Z" fill="#717171"/>
  </g>
</svg>
