<svg width="23" height="23" viewBox="0 0 23 23" fill="none" xmlns="http://www.w3.org/2000/svg">
<path d="M11.4713 21.0833C16.764 21.0833 21.0546 16.7927 21.0546 11.5C21.0546 6.20726 16.764 1.91666 11.4713 1.91666C6.17854 1.91666 1.88794 6.20726 1.88794 11.5C1.88794 16.7927 6.17854 21.0833 11.4713 21.0833Z" stroke="#292D32" stroke-linecap="round" stroke-linejoin="round"/>
<path d="M11.5 15.8125C13.8817 15.8125 15.8125 13.8817 15.8125 11.5C15.8125 9.11827 13.8817 7.1875 11.5 7.1875C9.11827 7.1875 7.1875 9.11827 7.1875 11.5C7.1875 13.8817 9.11827 15.8125 11.5 15.8125Z" stroke="#292D32" stroke-linecap="round" stroke-linejoin="round"/>
<path d="M4.6958 4.72458L8.0883 8.1075" stroke="#292D32" stroke-linecap="round" stroke-linejoin="round"/>
<path d="M4.6958 18.2754L8.0883 14.8925" stroke="#292D32" stroke-linecap="round" stroke-linejoin="round"/>
<path d="M18.2563 18.2754L14.8638 14.8925" stroke="#292D32" stroke-linecap="round" stroke-linejoin="round"/>
<path d="M18.2563 4.72458L14.8638 8.1075" stroke="#292D32" stroke-linecap="round" stroke-linejoin="round"/>
</svg>
