<svg xmlns="http://www.w3.org/2000/svg" width="20" height="21.324" viewBox="0 0 20 21.324">
  <path id="home-svgrepo-com" d="M12.28,3.716a1,1,0,0,0-.559,0,1.112,1.112,0,0,0-.341.2c-.207.156-.46.38-.854.731L5.285,9.306a5.78,5.78,0,0,0-.951.934,2,2,0,0,0-.269.6A5.778,5.778,0,0,0,4,12.169v5c0,.871,0,1.463.039,1.92a2.155,2.155,0,0,0,.186.831,2,2,0,0,0,.853.853,2.155,2.155,0,0,0,.831.186C6.367,21,6.959,21,7.83,21H8V18a4,4,0,0,1,8,0v3h.17c.871,0,1.463,0,1.92-.039a2.155,2.155,0,0,0,.831-.186,2,2,0,0,0,.853-.853,2.154,2.154,0,0,0,.186-.831C20,18.633,20,18.041,20,17.17v-5a5.771,5.771,0,0,0-.066-1.331,2,2,0,0,0-.268-.6,5.781,5.781,0,0,0-.951-.934l-5.24-4.657c-.394-.35-.647-.574-.854-.731A1.112,1.112,0,0,0,12.28,3.716ZM11.161,1.8a3,3,0,0,1,1.678,0,3.036,3.036,0,0,1,.989.528c.277.21.589.487.948.806l5.267,4.682.084.075a6.783,6.783,0,0,1,1.2,1.247,4,4,0,0,1,.537,1.2A6.781,6.781,0,0,1,22,12.057v5.155c0,.819,0,1.494-.046,2.044a4.086,4.086,0,0,1-.4,1.588,4,4,0,0,1-1.706,1.706,4.087,4.087,0,0,1-1.588.4c-.55.046-1.226.046-2.044.046h-.431c-.121,0-.266,0-.393-.01a1.47,1.47,0,0,1-1.378-1.378C14,21.484,14,21.34,14,21.219V18a2,2,0,0,0-4,0v3.219c0,.121,0,.266-.01.393A1.47,1.47,0,0,1,8.612,22.99C8.484,23,8.34,23,8.218,23h-.43c-.819,0-1.494,0-2.044-.046a4.086,4.086,0,0,1-1.588-.4A4,4,0,0,1,2.45,20.844a4.087,4.087,0,0,1-.4-1.588C2,18.706,2,18.031,2,17.212V12.169c0-.038,0-.075,0-.112a6.781,6.781,0,0,1,.132-1.728,4,4,0,0,1,.537-1.2,6.781,6.781,0,0,1,1.2-1.247l.084-.075L9.224,3.13c.359-.319.671-.6.948-.806A3.036,3.036,0,0,1,11.161,1.8Z" transform="translate(-2 -1.676)" fill="#292d32" fill-rule="evenodd"/>
</svg>
