<svg xmlns="http://www.w3.org/2000/svg" width="49.69" height="58.726" viewBox="0 0 49.69 58.726">
  <g id="freepik--Report--inject-27" transform="translate(-13.19 -274.72)">
    <rect id="Rectangle_446" data-name="Rectangle 446" width="1.533" height="0.328" transform="translate(47.751 274.72)" fill="#7540ff"/>
    <rect id="Rectangle_447" data-name="Rectangle 447" width="6.319" height="0.328" transform="translate(40.066 274.72)" fill="#7540ff"/>
    <path id="Path_1373" data-name="Path 1373" d="M223.859,200.8H184.172a3.535,3.535,0,0,1-3.46-3.236l-3.512-51.1a2.994,2.994,0,0,1,3.013-3.236H219.9a3.529,3.529,0,0,1,3.46,3.236l3.512,51.1a2.987,2.987,0,0,1-3.01,3.236Z" transform="translate(-164 132.649)" fill="#7540ff"/>
    <path id="Path_1374" data-name="Path 1374" d="M186.305,201.927a2.347,2.347,0,0,1-2.3-2.157l-3.522-51.1a1.989,1.989,0,0,1,2.009-2.157h39.688a2.35,2.35,0,0,1,2.3,2.157L228,199.77a1.989,1.989,0,0,1-2.009,2.157Z" transform="translate(-166.209 130.439)" fill="#fff"/>
    <g id="Group_94" data-name="Group 94" transform="translate(16.863 282.49)" opacity="0.2">
      <path id="Path_1375" data-name="Path 1375" d="M235.889,183.147H199.806L198.45,163.39h36.08Zm-35.831-.269H235.6l-1.313-19.219H198.736Z" transform="translate(-195.145 -163.39)" fill="#7540ff"/>
      <path id="Path_1376" data-name="Path 1376" d="M235.271,172.139H199.46l-.02-.269h35.811Z" transform="translate(-195.81 -169.087)" fill="#7540ff"/>
      <path id="Path_1377" data-name="Path 1377" d="M235.851,180.619H200.04l-.02-.269h35.815Z" transform="translate(-196.199 -174.783)" fill="#7540ff"/>
      <path id="Path_1378" data-name="Path 1378" d="M236.434,189.1H200.62l-.02-.272h35.815Z" transform="translate(-196.589 -180.48)" fill="#7540ff"/>
      <path id="Path_1379" data-name="Path 1379" d="M237.021,197.582H201.21l-.02-.272H237Z" transform="translate(-196.985 -186.176)" fill="#7540ff"/>
      <path id="Path_1380" data-name="Path 1380" d="M237.6,206.069H201.79l-.02-.269h35.815Z" transform="translate(-197.375 -191.879)" fill="#7540ff"/>
      <path id="Path_1381" data-name="Path 1381" d="M238.184,214.549H202.37l-.02-.269h35.815Z" transform="translate(-197.764 -197.576)" fill="#7540ff"/>
      <path id="Path_1382" data-name="Path 1382" d="M191.17,167.9H188.4l-.02-.269h2.77Z" transform="translate(-188.38 -166.238)" fill="#7540ff"/>
      <path id="Path_1383" data-name="Path 1383" d="M191.75,176.379h-2.77l-.02-.269h2.774Z" transform="translate(-188.77 -171.935)" fill="#7540ff"/>
      <path id="Path_1384" data-name="Path 1384" d="M192.337,184.859h-2.77l-.016-.269h2.77Z" transform="translate(-189.166 -177.631)" fill="#7540ff"/>
      <path id="Path_1385" data-name="Path 1385" d="M192.92,193.342h-2.77l-.02-.272h2.77Z" transform="translate(-189.556 -183.328)" fill="#7540ff"/>
      <path id="Path_1386" data-name="Path 1386" d="M193.5,201.829h-2.77l-.02-.269h2.774Z" transform="translate(-189.945 -189.031)" fill="#7540ff"/>
      <path id="Path_1387" data-name="Path 1387" d="M194.087,210.309h-2.77l-.016-.269h2.77Z" transform="translate(-190.342 -194.727)" fill="#7540ff"/>
      <path id="Path_1388" data-name="Path 1388" d="M194.67,218.789H191.9l-.02-.269h2.77Z" transform="translate(-190.731 -200.424)" fill="#7540ff"/>
    </g>
    <path id="Path_1389" data-name="Path 1389" d="M202.891,191.7l-.151-.233,4.27-2.583,1.323-1.323,2.915-2.57,3.017,1.126,3.056-5.1,4.218,1.106,5.413-3.571,2.708,1.142,7.1-3.542.135.243-7.208,3.594-2.692-1.132-5.393,3.558-4.139-1.09-3.069,5.124L211.32,185.3l-2.8,2.465-1.349,1.346Z" transform="translate(-181.164 110.528)" fill="#e0e0e0"/>
    <path id="Path_1390" data-name="Path 1390" d="M202.857,184.925l-.207-.184,4.126-4.691,1.178-2.672,3.972,2.288,1.782-4.356,3.45-3.171,4.392,2.475,5.189-4.943,3.7,2.2,6-5.774.194.2-6.138,5.908-3.7-2.2-5.186,4.943-4.4-2.478-3.292,3.023-1.848,4.556-3.982-2.291L207,180.221Z" transform="translate(-181.103 117.279)" fill="#7540ff"/>
    <path id="Path_1391" data-name="Path 1391" d="M236,246.3l2.954-9.979a11.607,11.607,0,0,1,7.674,9.979,9.8,9.8,0,0,1-8.055,10.461Z" transform="translate(-203.506 70.108)" fill="#e0e0e0"/>
    <path id="Path_1392" data-name="Path 1392" d="M214.207,244.988l2.564,10.461a10.652,10.652,0,0,1-1.835.161,11.61,11.61,0,0,1-11.347-10.622,9.847,9.847,0,0,1,9.887-10.619,10.987,10.987,0,0,1,3.676.64Z" transform="translate(-181.713 71.419)" fill="#7540ff"/>
    <path id="Path_1393" data-name="Path 1393" d="M284.091,264.05H280.94l.791,11.5h3.151Z" transform="translate(-233.695 51.48)" fill="#e0e0e0"/>
    <path id="Path_1394" data-name="Path 1394" d="M283.1,249.708h-3.151l-.483-7.008h3.151Z" transform="translate(-232.707 65.822)" fill="#7540ff"/>
    <path id="Path_1395" data-name="Path 1395" d="M300.861,270.43H297.71l.647,9.4h3.151Z" transform="translate(-244.96 47.195)" fill="#e0e0e0"/>
    <path id="Path_1396" data-name="Path 1396" d="M300.257,261.61h-3.151l-.3-4.31h3.151Z" transform="translate(-244.356 56.015)" fill="#7540ff"/>
  </g>
</svg>
