<svg width="38" height="38" viewBox="0 0 38 38" fill="none" xmlns="http://www.w3.org/2000/svg">
<path d="M28 1H10C5.02944 1 1 5.02944 1 10V28C1 32.9706 5.02944 37 10 37H28C32.9706 37 37 32.9706 37 28V10C37 5.02944 32.9706 1 28 1Z" stroke="#414141" stroke-width="1.5" stroke-linecap="round" stroke-linejoin="round"/>
<path d="M25.9243 17.9732C26.1402 19.4296 25.8915 20.9171 25.2134 22.224C24.5352 23.5309 23.4623 24.5907 22.1471 25.2526C20.832 25.9146 19.3416 26.145 17.8879 25.9111C16.4343 25.6772 15.0914 24.9909 14.0503 23.9497C13.0091 22.9086 12.3228 21.5657 12.0889 20.1121C11.855 18.6584 12.0854 17.168 12.7474 15.8529C13.4093 14.5377 14.4691 13.4648 15.776 12.7866C17.0829 12.1085 18.5704 11.8598 20.0268 12.0757C21.5124 12.296 22.8878 12.9883 23.9497 14.0503C25.0117 15.1122 25.704 16.4876 25.9243 17.9732Z" stroke="#414141" stroke-width="1.5" stroke-linecap="round" stroke-linejoin="round"/>
</svg>
