<svg width="54" height="54" viewBox="0 0 54 54" fill="none" xmlns="http://www.w3.org/2000/svg">
<g clip-path="url(#clip0_178_193)">
<path d="M17.7548 26.63C17.7548 21.7277 21.7277 17.7526 26.63 17.7526C31.5323 17.7526 35.5074 21.7277 35.5074 26.63C35.5074 31.5323 31.5323 35.5074 26.63 35.5074C21.7277 35.5074 17.7548 31.5323 17.7548 26.63ZM12.9558 26.63C12.9558 34.1823 19.0777 40.3042 26.63 40.3042C34.1823 40.3042 40.3042 34.1823 40.3042 26.63C40.3042 19.0777 34.1823 12.9558 26.63 12.9558C19.0777 12.9558 12.9558 19.0777 12.9558 26.63ZM37.6499 12.4136C37.6497 13.0457 37.8368 13.6636 38.1878 14.1892C38.5387 14.7149 39.0376 15.1247 39.6214 15.3668C40.2053 15.6089 40.8478 15.6724 41.4677 15.5494C42.0876 15.4263 42.6572 15.1222 43.1042 14.6754C43.5513 14.2287 43.8559 13.6594 43.9795 13.0396C44.103 12.4198 44.04 11.7772 43.7984 11.1932C43.5567 10.6092 43.1473 10.1099 42.622 9.75857C42.0966 9.40722 41.4788 9.21956 40.8468 9.21931H40.8455C39.9983 9.2197 39.1859 9.55633 38.5868 10.1553C37.9876 10.7542 37.6507 11.5664 37.6499 12.4136ZM15.8715 48.3062C13.2752 48.1879 11.864 47.7555 10.9262 47.3901C9.68288 46.9061 8.79578 46.3296 7.86309 45.3982C6.9304 44.4668 6.35307 43.5805 5.87117 42.3372C5.50559 41.3999 5.07312 39.9882 4.9551 37.3919C4.82599 34.5849 4.80022 33.7417 4.80022 26.6302C4.80022 19.5187 4.82813 18.6779 4.9551 15.8685C5.07333 13.2722 5.509 11.8633 5.87117 10.9232C6.3552 9.6799 6.93168 8.7928 7.86309 7.86011C8.7945 6.92742 9.68075 6.35008 10.9262 5.86819C11.8636 5.50261 13.2752 5.07014 15.8715 4.95211C18.6785 4.82301 19.5217 4.79723 26.63 4.79723C33.7383 4.79723 34.5824 4.82514 37.3917 4.95211C39.988 5.07035 41.3969 5.50602 42.337 5.86819C43.5803 6.35008 44.4674 6.9287 45.4001 7.86011C46.3328 8.79152 46.908 9.6799 47.392 10.9232C47.7576 11.8606 48.1901 13.2722 48.3081 15.8685C48.4372 18.6779 48.463 19.5187 48.463 26.6302C48.463 33.7417 48.4372 34.5826 48.3081 37.3919C48.1899 39.9882 47.7553 41.3994 47.392 42.3372C46.908 43.5805 46.3315 44.4676 45.4001 45.3982C44.4687 46.3287 43.5803 46.9061 42.337 47.3901C41.3996 47.7557 39.988 48.1882 37.3917 48.3062C34.5847 48.4353 33.7415 48.4611 26.63 48.4611C19.5185 48.4611 18.6776 48.4353 15.8715 48.3062ZM15.651 0.161271C12.8161 0.290374 10.8789 0.739888 9.18714 1.39818C7.4351 2.07799 5.95191 2.99002 4.46979 4.46979C2.98767 5.94957 2.07799 7.4351 1.39818 9.18714C0.739888 10.88 0.290374 12.8161 0.161271 15.651C0.0300386 18.4904 0 19.3981 0 26.63C0 33.8619 0.0300386 34.7696 0.161271 37.609C0.290374 40.4442 0.739888 42.38 1.39818 44.0729C2.07799 45.8238 2.98789 47.3111 4.46979 48.7902C5.9517 50.2693 7.4351 51.1801 9.18714 51.8618C10.8821 52.5201 12.8161 52.9696 15.651 53.0987C18.4919 53.2278 19.3981 53.26 26.63 53.26C33.8619 53.26 34.7696 53.23 37.609 53.0987C40.4442 52.9696 42.38 52.5201 44.0729 51.8618C45.8238 51.1801 47.3081 50.27 48.7902 48.7902C50.2723 47.3104 51.1801 45.8238 51.8618 44.0729C52.5201 42.38 52.9718 40.4439 53.0987 37.609C53.2278 34.7675 53.2579 33.8619 53.2579 26.63C53.2579 19.3981 53.2278 18.4904 53.0987 15.651C52.9696 12.8158 52.5201 10.8789 51.8618 9.18714C51.1801 7.43616 50.27 5.95191 48.7902 4.46979C47.3104 2.98767 45.8238 2.07799 44.075 1.39818C42.3801 0.739888 40.4439 0.288243 37.6111 0.161271C34.7717 0.032169 33.864 0 26.6321 0C19.4003 0 18.4919 0.0300386 15.651 0.161271Z" fill="url(#paint0_radial_178_193)"/>
<path d="M17.7548 26.63C17.7548 21.7277 21.7277 17.7526 26.63 17.7526C31.5323 17.7526 35.5074 21.7277 35.5074 26.63C35.5074 31.5323 31.5323 35.5074 26.63 35.5074C21.7277 35.5074 17.7548 31.5323 17.7548 26.63ZM12.9558 26.63C12.9558 34.1823 19.0777 40.3042 26.63 40.3042C34.1823 40.3042 40.3042 34.1823 40.3042 26.63C40.3042 19.0777 34.1823 12.9558 26.63 12.9558C19.0777 12.9558 12.9558 19.0777 12.9558 26.63ZM37.6499 12.4136C37.6497 13.0457 37.8368 13.6636 38.1878 14.1892C38.5387 14.7149 39.0376 15.1247 39.6214 15.3668C40.2053 15.6089 40.8478 15.6724 41.4677 15.5494C42.0876 15.4263 42.6572 15.1222 43.1042 14.6754C43.5513 14.2287 43.8559 13.6594 43.9795 13.0396C44.103 12.4198 44.04 11.7772 43.7984 11.1932C43.5567 10.6092 43.1473 10.1099 42.622 9.75857C42.0966 9.40722 41.4788 9.21956 40.8468 9.21931H40.8455C39.9983 9.2197 39.1859 9.55633 38.5868 10.1553C37.9876 10.7542 37.6507 11.5664 37.6499 12.4136ZM15.8715 48.3062C13.2752 48.1879 11.864 47.7555 10.9262 47.3901C9.68288 46.9061 8.79578 46.3296 7.86309 45.3982C6.9304 44.4668 6.35307 43.5805 5.87117 42.3372C5.50559 41.3999 5.07312 39.9882 4.9551 37.3919C4.82599 34.5849 4.80022 33.7417 4.80022 26.6302C4.80022 19.5187 4.82813 18.6779 4.9551 15.8685C5.07333 13.2722 5.509 11.8633 5.87117 10.9232C6.3552 9.6799 6.93168 8.7928 7.86309 7.86011C8.7945 6.92742 9.68075 6.35008 10.9262 5.86819C11.8636 5.50261 13.2752 5.07014 15.8715 4.95211C18.6785 4.82301 19.5217 4.79723 26.63 4.79723C33.7383 4.79723 34.5824 4.82514 37.3917 4.95211C39.988 5.07035 41.3969 5.50602 42.337 5.86819C43.5803 6.35008 44.4674 6.9287 45.4001 7.86011C46.3328 8.79152 46.908 9.6799 47.392 10.9232C47.7576 11.8606 48.1901 13.2722 48.3081 15.8685C48.4372 18.6779 48.463 19.5187 48.463 26.6302C48.463 33.7417 48.4372 34.5826 48.3081 37.3919C48.1899 39.9882 47.7553 41.3994 47.392 42.3372C46.908 43.5805 46.3315 44.4676 45.4001 45.3982C44.4687 46.3287 43.5803 46.9061 42.337 47.3901C41.3996 47.7557 39.988 48.1882 37.3917 48.3062C34.5847 48.4353 33.7415 48.4611 26.63 48.4611C19.5185 48.4611 18.6776 48.4353 15.8715 48.3062ZM15.651 0.161271C12.8161 0.290374 10.8789 0.739888 9.18714 1.39818C7.4351 2.07799 5.95191 2.99002 4.46979 4.46979C2.98767 5.94957 2.07799 7.4351 1.39818 9.18714C0.739888 10.88 0.290374 12.8161 0.161271 15.651C0.0300386 18.4904 0 19.3981 0 26.63C0 33.8619 0.0300386 34.7696 0.161271 37.609C0.290374 40.4442 0.739888 42.38 1.39818 44.0729C2.07799 45.8238 2.98789 47.3111 4.46979 48.7902C5.9517 50.2693 7.4351 51.1801 9.18714 51.8618C10.8821 52.5201 12.8161 52.9696 15.651 53.0987C18.4919 53.2278 19.3981 53.26 26.63 53.26C33.8619 53.26 34.7696 53.23 37.609 53.0987C40.4442 52.9696 42.38 52.5201 44.0729 51.8618C45.8238 51.1801 47.3081 50.27 48.7902 48.7902C50.2723 47.3104 51.1801 45.8238 51.8618 44.0729C52.5201 42.38 52.9718 40.4439 53.0987 37.609C53.2278 34.7675 53.2579 33.8619 53.2579 26.63C53.2579 19.3981 53.2278 18.4904 53.0987 15.651C52.9696 12.8158 52.5201 10.8789 51.8618 9.18714C51.1801 7.43616 50.27 5.95191 48.7902 4.46979C47.3104 2.98767 45.8238 2.07799 44.075 1.39818C42.3801 0.739888 40.4439 0.288243 37.6111 0.161271C34.7717 0.032169 33.864 0 26.6321 0C19.4003 0 18.4919 0.0300386 15.651 0.161271Z" fill="url(#paint1_radial_178_193)"/>
</g>
<defs>
<radialGradient id="paint0_radial_178_193" cx="0" cy="0" r="1" gradientUnits="userSpaceOnUse" gradientTransform="translate(7.07591 53.5116) scale(69.5265 69.5265)">
<stop offset="0.09" stop-color="#FA8F21"/>
<stop offset="0.78" stop-color="#D82D7E"/>
</radialGradient>
<radialGradient id="paint1_radial_178_193" cx="0" cy="0" r="1" gradientUnits="userSpaceOnUse" gradientTransform="translate(32.2998 55.8976) scale(54.7964 54.7964)">
<stop offset="0.64" stop-color="#8C3AAA" stop-opacity="0"/>
<stop offset="1" stop-color="#8C3AAA"/>
</radialGradient>
<clipPath id="clip0_178_193">
<rect width="53.26" height="53.26" fill="white"/>
</clipPath>
</defs>
</svg>
