<svg xmlns="http://www.w3.org/2000/svg" width="19.5" height="19.5" viewBox="0 0 19.5 19.5">
  <g id="language-square-svgrepo-com" transform="translate(-1.5 -1.5)">
    <path id="Path_867" data-name="Path 867" d="M16.242,8.96H7.01" transform="translate(-0.376 -0.522)" fill="none" stroke="#8b80f8" stroke-linecap="round" stroke-linejoin="round" stroke-width="1"/>
    <path id="Path_868" data-name="Path 868" d="M12,7.28V8.834" transform="translate(-0.75 -0.396)" fill="none" stroke="#8b80f8" stroke-linecap="round" stroke-linejoin="round" stroke-width="1"/>
    <path id="Path_869" data-name="Path 869" d="M13.938,8.94A7.07,7.07,0,0,1,7,16.136" transform="translate(-0.375 -0.52)" fill="none" stroke="#8b80f8" stroke-linecap="round" stroke-linejoin="round" stroke-width="1"/>
    <path id="Path_870" data-name="Path 870" d="M16.659,16.535A5.33,5.33,0,0,1,12.45,14.25" transform="translate(-0.784 -0.919)" fill="none" stroke="#8b80f8" stroke-linecap="round" stroke-linejoin="round" stroke-width="1"/>
    <path id="Path_871" data-name="Path 871" d="M8.475,20.5h5.55c4.625,0,6.475-1.85,6.475-6.475V8.475C20.5,3.85,18.65,2,14.025,2H8.475C3.85,2,2,3.85,2,8.475v5.55C2,18.65,3.85,20.5,8.475,20.5Z" fill="none" stroke="#292d32" stroke-linecap="round" stroke-linejoin="round" stroke-width="1"/>
  </g>
</svg>
