<svg width="16" height="14" viewBox="0 0 16 14" fill="none" xmlns="http://www.w3.org/2000/svg">
<path d="M2.33801 7.43116L7.55247 12.3296L7.55248 12.3296C7.65088 12.422 7.70008 12.4683 7.75051 12.4973C7.90495 12.5862 8.09505 12.5862 8.24949 12.4973C8.29992 12.4683 8.34913 12.422 8.44753 12.3296L13.662 7.43116C15.1291 6.05294 15.3073 3.78495 14.0734 2.19455L13.8413 1.89551C12.3652 -0.00706363 9.40222 0.31201 8.365 2.48524C8.21849 2.79222 7.78151 2.79222 7.635 2.48524C6.59778 0.31201 3.63479 -0.00706458 2.15866 1.89551L1.92664 2.19455C0.692711 3.78495 0.870872 6.05294 2.33801 7.43116Z" stroke="#222222"/>
</svg>
