<svg xmlns="http://www.w3.org/2000/svg" width="15" height="20" viewBox="0 0 15 20">
  <g id="location-svgrepo-com" transform="translate(-4.5 -2)">
    <path id="Path_779" data-name="Path 779" d="M7.376,4.859A6.407,6.407,0,0,1,12,3a6.371,6.371,0,0,1,4.6,1.838A5.975,5.975,0,0,1,18.5,9.3a8.224,8.224,0,0,1-.676,3,18.275,18.275,0,0,1-1.636,3.169q-.96,1.479-1.9,2.768T12.7,20.282L12,21q-.262-.3-.7-.782t-1.57-1.944a32.526,32.526,0,0,1-1.985-2.831A20.289,20.289,0,0,1,6.2,12.338,8.321,8.321,0,0,1,5.5,9.3,5.941,5.941,0,0,1,7.376,4.859Z" fill="none" stroke="#717171" stroke-linecap="round" stroke-linejoin="round" stroke-width="2" fill-rule="evenodd"/>
    <path id="Path_780" data-name="Path 780" d="M13,9.5a1,1,0,1,1-1-1A1,1,0,0,1,13,9.5Z" fill="none" stroke="#717171" stroke-linecap="round" stroke-linejoin="round" stroke-width="2"/>
  </g>
</svg>
