<svg xmlns="http://www.w3.org/2000/svg" width="277.078" height="165.641" viewBox="0 0 277.078 165.641">
  <g id="undraw_login_re_4vu2_1_" data-name="undraw_login_re_4vu2 (1)" transform="translate(0 0)">
    <path id="Path_466" data-name="Path 466" d="M819.908,590.706a14.318,14.318,0,0,1-5.137-12.342,11.574,11.574,0,0,1,8.6-9.826c4.54-.979,9.715,1.731,11.094,6.166.759-8.55,1.633-17.458,6.179-24.74a26.2,26.2,0,0,1,18.971-12.154,23.508,23.508,0,0,1,20.68,8.442,21.335,21.335,0,0,1,2.624,21.965c-2.486,5.158-7.066,9-11.866,12.119a76.579,76.579,0,0,1-52.375,11.458Z" transform="translate(-607.771 -426.925)" fill="#279259"/>
    <path id="Path_467" data-name="Path 467" d="M917.156,545.634a126.357,126.357,0,0,0-37.128,50.2c-.354.868,1.055,1.246,1.405.387a124.953,124.953,0,0,1,36.753-49.561c.727-.592-.309-1.618-1.031-1.03Z" transform="translate(-652.268 -432.229)" fill="#c7c7c7"/>
    <path id="Path_468" data-name="Path 468" d="M254.2,545.764c4.872-4.117,7.832-10.621,7.056-16.952s-5.583-12.152-11.819-13.5-13.344,2.377-15.237,8.468c-1.042-11.743-2.243-23.979-8.487-33.98a35.986,35.986,0,0,0-26.057-16.694c-10.612-1.159-21.785,3.219-28.4,11.595s-8.239,20.553-3.6,30.169c3.415,7.084,9.706,12.356,16.3,16.645a105.181,105.181,0,0,0,71.937,15.737" transform="translate(-165 -382.798)" fill="#279259"/>
    <path id="Path_469" data-name="Path 469" d="M213.81,483.857a172.092,172.092,0,0,1,23.983,23.815,172.589,172.589,0,0,1,27.012,45.14c.486,1.192-1.449,1.711-1.93.532a171.624,171.624,0,0,0-50.481-68.072c-1-.814.424-2.222,1.415-1.415Z" transform="translate(-197.069 -390.082)" fill="#c7c7c7"/>
    <path id="Path_470" data-name="Path 470" d="M540.745,355.222H424.5V235.951a46.072,46.072,0,0,1,46.02-46.02h24.2a46.072,46.072,0,0,1,46.02,46.02Z" transform="translate(-341.854 -189.931)" fill="rgba(92,133,181,0.35)"/>
    <path id="Path_471" data-name="Path 471" d="M516.54,355.225H424.5V235.954a45.664,45.664,0,0,1,8.789-27.053c.211-.288.422-.573.64-.854a46.009,46.009,0,0,1,9.795-9.507c.21-.153.421-.3.635-.453a45.913,45.913,0,0,1,10.023-5.242c.21-.08.425-.16.639-.236a45.869,45.869,0,0,1,9.907-2.336c.209-.029.424-.051.64-.073a46.588,46.588,0,0,1,9.906,0c.214.022.43.045.641.074a45.86,45.86,0,0,1,9.9,2.336c.214.077.429.157.64.237a45.8,45.8,0,0,1,9.907,5.164c.214.147.428.3.639.447a46.493,46.493,0,0,1,5.855,4.957,45.954,45.954,0,0,1,4.053,4.634c.217.28.428.565.639.853a45.664,45.664,0,0,1,8.789,27.054Z" transform="translate(-341.854 -189.933)" fill="#5c85b5"/>
    <circle id="Ellipse_39" data-name="Ellipse 39" cx="5.096" cy="5.096" r="5.096" transform="translate(162.106 101.755)" fill="#0c385d"/>
    <path id="Path_472" data-name="Path 472" d="M582.268,475.555h-3.9l-1.858-15.06h5.763Z" transform="translate(-392.9 -313.836)" fill="#ffb8b8"/>
    <path id="Path_473" data-name="Path 473" d="M563.436,504.28h7.53v4.741H558.7a4.741,4.741,0,0,1,4.741-4.741Z" transform="translate(-380.762 -343.677)" fill="#2f2e41"/>
    <path id="Path_474" data-name="Path 474" d="M643.268,475.555h-3.9l-1.858-15.06h5.763Z" transform="translate(-434.473 -313.836)" fill="#ffb8b8"/>
    <path id="Path_475" data-name="Path 475" d="M624.436,504.28h7.53v4.741H619.7A4.741,4.741,0,0,1,624.436,504.28Z" transform="translate(-422.334 -343.677)" fill="#2f2e41"/>
    <path id="Path_476" data-name="Path 476" d="M696.834,439.518a3.421,3.421,0,0,1,1.437-5.046l13.273-36.583,6.531,3.564-15.155,34.96a3.44,3.44,0,0,1-6.086,3.1Z" transform="translate(-527.053 -331.659)" fill="#ffb8b8"/>
    <path id="Path_477" data-name="Path 477" d="M803.566,456.321a3.421,3.421,0,0,1-.921-5.165l-4.112-38.7,7.433.34,1.709,38.065a3.44,3.44,0,0,1-4.108,5.459Z" transform="translate(-596.765 -341.587)" fill="#ffb8b8"/>
    <circle id="Ellipse_40" data-name="Ellipse 40" cx="7.822" cy="7.822" r="7.822" transform="translate(187.121 43.811)" fill="#ffb8b8"/>
    <path id="Path_478" data-name="Path 478" d="M763.716,429.266H740.133l.028-.184c.042-.274,4.2-27.529,1.134-36.446a3.762,3.762,0,0,1,1.933-4.645h0c4.386-2.065,12.805-4.609,19.911,1.563a8.992,8.992,0,0,1,3.013,7.451Z" transform="translate(-556.965 -323.334)" fill="#0c385d"/>
    <path id="Path_479" data-name="Path 479" d="M731.635,411.178l-10.617-2.154,4.977-11.793a4.458,4.458,0,1,1,8.633,2.229Z" transform="translate(-543.937 -328.93)" fill="#0c385d"/>
    <path id="Path_480" data-name="Path 480" d="M795.5,416.944l-.638-14.631c-.484-2.75,1.09-5.351,3.512-5.776s4.787,1.484,5.273,4.255l2.4,13.672Z" transform="translate(-594.202 -330.697)" fill="#0c385d"/>
    <path id="Path_481" data-name="Path 481" d="M760.212,517.049c3.794,14.452,4.208,32.825,3.185,52.868l-5.1-.637-9.236-38.218-5.1,38.855-5.733-.318c-1.713-21.029-3.38-39.082-.637-50.957Z" transform="translate(-554.246 -412.868)" fill="#2f2e41"/>
    <path id="Path_482" data-name="Path 482" d="M762.163,333.646a2.527,2.527,0,0,1-4.359-1.4,2.565,2.565,0,0,1,0-.5c.1-.941.642-1.795.511-2.788a1.462,1.462,0,0,0-.268-.684c-1.163-1.557-3.893.7-4.99-.713-.673-.864.118-2.225-.4-3.191-.682-1.275-2.7-.646-3.966-1.344-1.409-.777-1.324-2.938-.4-4.253a6.689,6.689,0,0,1,5.071-2.582,13.6,13.6,0,0,1,5.73,1.118,11.452,11.452,0,0,1,5.414,3.754,9.165,9.165,0,0,1,.927,7.8A14.709,14.709,0,0,1,762.163,333.646Z" transform="translate(-562.066 -275.967)" fill="#2f2e41"/>
    <path id="Path_483" data-name="Path 483" d="M501.007,707.951H265.874a.379.379,0,0,1,0-.758H501.007a.379.379,0,1,1,0,.758Z" transform="translate(-233.49 -542.455)" fill="#3f3d56"/>
    <path id="Path_484" data-name="Path 484" d="M540.973,393.93h-41.4a2.059,2.059,0,0,1-2.07-2.043V299.474a2.059,2.059,0,0,1,2.07-2.043h41.4a2.059,2.059,0,0,1,2.07,2.043v92.413A2.059,2.059,0,0,1,540.973,393.93Z" transform="translate(-391.605 -263.194)" fill="#fff"/>
    <rect id="Rectangle_220" data-name="Rectangle 220" width="45.543" height="0.637" transform="translate(105.895 64.139)" fill="#ccc"/>
    <rect id="Rectangle_221" data-name="Rectangle 221" width="45.543" height="0.637" transform="translate(106.054 100.481)" fill="#ccc"/>
    <rect id="Rectangle_222" data-name="Rectangle 222" width="0.637" height="96.818" transform="translate(120.226 34.237)" fill="#ccc"/>
    <rect id="Rectangle_223" data-name="Rectangle 223" width="0.637" height="96.818" transform="translate(136.15 34.237)" fill="#ccc"/>
  </g>
</svg>
