<svg xmlns="http://www.w3.org/2000/svg" width="88.5" height="87.883" viewBox="0 0 88.5 87.883">
  <g id="logo2-removebg-preview" transform="translate(-25 110)">
    <path id="Path_1" data-name="Path 1" d="M36.5-108.3a19.864,19.864,0,0,0-9.6,9.8C25.2-94.9,25-91.6,25-66c0,31.7.4,33.8,6.9,39.3,5.4,4.5,8.4,4.8,39.7,4.5l29.1-.3,4.1-2.8a21.4,21.4,0,0,0,6.4-7c2.2-4.1,2.3-4.9,2.3-33.8V-95.7l-3-4.8a20.336,20.336,0,0,0-7.4-7.2c-4.3-2.3-4.9-2.3-34-2.3C44.1-109.9,39-109.7,36.5-108.3ZM78.4-88.4a36.434,36.434,0,0,1,.6,7.5V-75h5.2c7.5,0,8.8,1.6,8.8,10.6,0,7.2,0,7.2-3,7.9a32.159,32.159,0,0,1-7.2.4l-4.3-.3.3,4.5c.2,3.4-.2,5.1-1.8,7.2-1.9,2.4-2.8,2.7-8.6,2.7-3.5,0-6.4-.3-6.4-.6,0-.9,6-8.6,8.3-10.7,1.4-1.2,1.5-1.7.5-1.7-2.5,0-8.7,6.4-9.7,10-.8,3.1-.9,2.5-1-4.3L60-57H54.1c-5.1,0-6.2-.3-7.5-2.2-1.8-2.5-2.2-12.3-.6-13.3.6-.4,3.5,1.4,6.5,4,5.9,5,6.3,5,4,.5-1.6-3-3.9-4.7-8.4-6.1-1.8-.5-.4-.8,4.7-.8L60-75v-5.5c0-7.9,1.9-9.5,10.9-9.5C76.3-90,77.9-89.6,78.4-88.4Z" fill="#8b80f8"/>
    <path id="Path_2" data-name="Path 2" d="M73.5-84.3a41.981,41.981,0,0,1-4.9,5.5c-3.2,2.7-.5,2.1,3.7-.7,2-1.4,4-3.7,4.3-5.1C77.6-88.5,76.5-88.4,73.5-84.3Z" fill="#8b80f8"/>
    <path id="Path_3" data-name="Path 3" d="M80-67.9c0,1.7,4.9,7.6,7.4,8.7,4.5,2.2,3.9.9-1.9-4.4C82.5-66.3,80-68.3,80-67.9Z" fill="#8b80f8"/>
  </g>
</svg>
