<svg xmlns="http://www.w3.org/2000/svg" width="297.286" height="176.848" viewBox="0 0 297.286 176.848">
  <g id="Medical_research-cuate" data-name="Medical research-cuate" transform="translate(-40.13 -59.225)">
    <g id="freepik--background-complete--inject-36" transform="translate(47.82 62.272)">
      <rect id="Rectangle_554" data-name="Rectangle 554" width="85.78" height="169.038" transform="translate(0 4.542)" fill="#ebebeb"/>
      <rect id="Rectangle_555" data-name="Rectangle 555" width="71.088" height="121.151" transform="translate(7.344 12.624)" fill="#fff"/>
      <path id="Path_2247" data-name="Path 2247" d="M176.24,393.084c-5.23.063-10.456.049-15.686.076V400.9l-.04,8.055c-.036,3.454-.067,6.9-.126,10.344h-.238c-.058-3.449-.094-6.9-.135-10.344L160,400.9V392.58h.292c5.325.022,10.649,0,15.974.076s10.649.1,15.974.211Q184.227,393.039,176.24,393.084Z" transform="translate(-113.782 -245.709)" fill="#c7c7c7"/>
      <path id="Path_2248" data-name="Path 2248" d="M231.558,426.032H231l.022-5.455c.058-5.257.117-10.515.247-15.767.135,5.253.193,10.51.247,15.767Z" transform="translate(-152.851 -252.439)" fill="#c7c7c7"/>
      <rect id="Rectangle_556" data-name="Rectangle 556" width="2.42" height="9.273" transform="translate(52.478 169.595) rotate(180)" fill="#c7c7c7"/>
      <path id="Path_2249" data-name="Path 2249" d="M105.819,400.9l-.031,8.055c-.036,3.454-.072,6.9-.13,10.344h-.238c-.058-3.449-.094-6.9-.126-10.344l-.027-8.055V393.16c-5.226-.027-10.456,0-15.682-.076q-7.987-.059-15.974-.216,7.987-.162,15.974-.211c5.325-.067,10.649-.054,15.974-.076h.283v.288C105.846,395.548,105.833,398.224,105.819,400.9Z" transform="translate(-66.244 -245.709)" fill="#c7c7c7"/>
      <path id="Path_2250" data-name="Path 2250" d="M73.526,426.016H73v-5.469c.054-5.257.108-10.515.247-15.767.13,5.253.184,10.51.243,15.767Z" transform="translate(-65.908 -252.422)" fill="#c7c7c7"/>
      <rect id="Rectangle_557" data-name="Rectangle 557" width="2.42" height="9.273" transform="translate(33.298 160.318)" fill="#c7c7c7"/>
      <rect id="Rectangle_558" data-name="Rectangle 558" width="71.088" height="1.102" transform="translate(7.344 45.53)" fill="#c7c7c7"/>
      <rect id="Rectangle_559" data-name="Rectangle 559" width="71.088" height="1.102" transform="translate(7.344 73.935)" fill="#c7c7c7"/>
      <rect id="Rectangle_560" data-name="Rectangle 560" width="71.088" height="1.102" transform="translate(7.344 102.335)" fill="#c7c7c7"/>
      <rect id="Rectangle_561" data-name="Rectangle 561" width="1.637" height="121.151" transform="translate(42.072 12.624)" fill="#ebebeb"/>
      <rect id="Rectangle_562" data-name="Rectangle 562" width="8.423" height="14.018" transform="translate(53.711 73.935) rotate(180)" fill="#ebebeb"/>
      <rect id="Rectangle_563" data-name="Rectangle 563" width="10.735" height="2.384" transform="translate(54.866 59.912) rotate(180)" fill="#dbdbdb"/>
      <rect id="Rectangle_564" data-name="Rectangle 564" width="6.26" height="8.644" transform="translate(52.631 71.646) rotate(180)" fill="#c7c7c7"/>
      <rect id="Rectangle_565" data-name="Rectangle 565" width="8.423" height="14.018" transform="translate(65.062 73.935) rotate(180)" fill="#ebebeb"/>
      <rect id="Rectangle_566" data-name="Rectangle 566" width="10.735" height="2.384" transform="translate(66.217 59.912) rotate(180)" fill="#dbdbdb"/>
      <rect id="Rectangle_567" data-name="Rectangle 567" width="6.26" height="8.644" transform="translate(63.982 71.646) rotate(180)" fill="#c7c7c7"/>
      <rect id="Rectangle_568" data-name="Rectangle 568" width="8.423" height="14.018" transform="translate(76.417 73.935) rotate(180)" fill="#ebebeb"/>
      <rect id="Rectangle_569" data-name="Rectangle 569" width="10.735" height="2.384" transform="translate(77.573 59.912) rotate(180)" fill="#dbdbdb"/>
      <rect id="Rectangle_570" data-name="Rectangle 570" width="6.26" height="8.644" transform="translate(75.338 71.646) rotate(180)" fill="#c7c7c7"/>
      <path id="Path_2251" data-name="Path 2251" d="M0,0H11.162V12.75a2.388,2.388,0,0,1-2.388,2.388H2.388A2.388,2.388,0,0,1,0,12.75Z" transform="translate(19.977 102.339) rotate(180)" fill="#ebebeb"/>
      <rect id="Rectangle_571" data-name="Rectangle 571" width="6.472" height="1.543" transform="translate(17.629 87.246) rotate(180)" fill="#ebebeb"/>
      <rect id="Rectangle_572" data-name="Rectangle 572" width="9.768" height="1.65" transform="translate(19.28 85.699) rotate(180)" fill="#dbdbdb"/>
      <rect id="Rectangle_573" data-name="Rectangle 573" width="9.372" height="8.171" transform="translate(19.977 99.038) rotate(180)" fill="#c7c7c7"/>
      <path id="Path_2252" data-name="Path 2252" d="M0,0H11.162V12.75a2.388,2.388,0,0,1-2.388,2.388H2.388A2.388,2.388,0,0,1,0,12.75Z" transform="translate(32.457 102.339) rotate(180)" fill="#ebebeb"/>
      <rect id="Rectangle_574" data-name="Rectangle 574" width="6.472" height="1.543" transform="translate(30.109 87.246) rotate(180)" fill="#ebebeb"/>
      <rect id="Rectangle_575" data-name="Rectangle 575" width="9.768" height="1.65" transform="translate(31.76 85.699) rotate(180)" fill="#dbdbdb"/>
      <rect id="Rectangle_576" data-name="Rectangle 576" width="9.372" height="8.171" transform="translate(32.457 99.038) rotate(180)" fill="#c7c7c7"/>
      <rect id="Rectangle_577" data-name="Rectangle 577" width="13.991" height="18.097" transform="translate(58.792 133.775) rotate(180)" fill="#ebebeb"/>
      <path id="Path_2253" data-name="Path 2253" d="M156.85,318.7h13.991l-2.68-3.692h-8.626Z" transform="translate(-112.049 -203.024)" fill="#ebebeb"/>
      <rect id="Rectangle_578" data-name="Rectangle 578" width="11.819" height="3.589" transform="translate(57.709 111.986) rotate(180)" fill="#c7c7c7"/>
      <rect id="Rectangle_579" data-name="Rectangle 579" width="11.994" height="8.136" transform="translate(58.792 127.839) rotate(180)" fill="#dbdbdb"/>
      <rect id="Rectangle_580" data-name="Rectangle 580" width="13.991" height="18.097" transform="translate(73.831 133.775) rotate(180)" fill="#ebebeb"/>
      <path id="Path_2254" data-name="Path 2254" d="M190.3,318.7h13.991l-2.685-3.692H192.98Z" transform="translate(-130.455 -203.024)" fill="#ebebeb"/>
      <rect id="Rectangle_581" data-name="Rectangle 581" width="11.819" height="3.589" transform="translate(72.747 111.986) rotate(180)" fill="#c7c7c7"/>
      <rect id="Rectangle_582" data-name="Rectangle 582" width="11.994" height="8.136" transform="translate(73.831 127.839) rotate(180)" fill="#dbdbdb"/>
      <path id="Path_2255" data-name="Path 2255" d="M106.065,160.851H80.993a2.613,2.613,0,0,1-2.613-2.608h0a2.613,2.613,0,0,1,2.613-2.613h25.072a2.613,2.613,0,0,1,2.613,2.613h0A2.613,2.613,0,0,1,106.065,160.851Z" transform="translate(-68.868 -115.321)" fill="#dbdbdb"/>
      <path id="Path_2256" data-name="Path 2256" d="M106.065,148.481H80.993a2.613,2.613,0,0,1-2.613-2.608h0a2.613,2.613,0,0,1,2.613-2.613h25.072a2.613,2.613,0,0,1,2.613,2.613h0A2.613,2.613,0,0,1,106.065,148.481Z" transform="translate(-68.868 -108.514)" fill="#dbdbdb"/>
      <path id="Path_2257" data-name="Path 2257" d="M107.084,137.926H82.866A1.875,1.875,0,0,1,81,136.051h0a1.871,1.871,0,0,1,1.871-1.871h24.213a1.871,1.871,0,0,1,1.871,1.871h0a1.875,1.875,0,0,1-1.871,1.875Z" transform="translate(-70.31 -103.518)" fill="#ebebeb"/>
      <path id="Path_2258" data-name="Path 2258" d="M107.084,128.846H82.866A1.871,1.871,0,0,1,81,126.975h0a1.875,1.875,0,0,1,1.871-1.875h24.213a1.875,1.875,0,0,1,1.871,1.875h0A1.871,1.871,0,0,1,107.084,128.846Z" transform="translate(-70.31 -98.521)" fill="#ebebeb"/>
      <path id="Path_2259" data-name="Path 2259" d="M424.534,250.957a18.574,18.574,0,1,1,18.574-18.574,18.574,18.574,0,0,1-18.574,18.574Zm0-36.324a17.751,17.751,0,1,0,17.746,17.749,17.751,17.751,0,0,0-17.746-17.749Z" transform="translate(-249.128 -147.336)" fill="#ebebeb"/>
      <path id="Path_2260" data-name="Path 2260" d="M420.395,250.359c-.283,0-.567-.027-.845-.049l.067-.823.814.049Zm2.955-.072-.076-.823.809-.094.108.818C423.907,250.247,423.633,250.247,423.349,250.287Zm-6.723-.427q-.418-.094-.823-.2l.216-.8c.261.072.522.135.787.193Zm10.465-.27-.225-.8c.261-.076.522-.153.778-.238l.256.787c-.27.09-.54.171-.81.247Zm-14.09-.9c-.256-.108-.517-.225-.774-.346l.355-.747c.247.117.495.225.747.333Zm17.638-.45-.36-.742c.243-.121.481-.243.72-.373l.4.729c-.247.144-.5.256-.742.378Zm-20.989-1.349c-.234-.153-.45-.315-.7-.477l.481-.675c.22.162.45.315.67.45Zm24.24-.621-.49-.666c.22-.162.45-.324.648-.495l.513.648c-.22.166-.441.337-.67.5Zm-27.213-1.745c-.207-.2-.4-.4-.6-.6l.594-.576c.189.193.382.387.576.576Zm30.06-.774-.6-.567c.189-.2.369-.4.549-.6l.621.544c-.184.2-.36.414-.571.616Zm-32.569-2.087c-.162-.229-.324-.45-.481-.693l.684-.45c.153.225.306.45.45.666Zm34.93-.9-.693-.45q.225-.337.45-.688l.711.423c-.162.234-.315.472-.468.711ZM402.221,238.4c-.121-.252-.238-.508-.351-.765l.756-.333c.108.247.225.495.342.738Zm38.676-.994-.765-.324c.108-.247.207-.5.3-.756l.778.292c-.112.261-.216.522-.324.783Zm-40.025-2.563c-.076-.27-.144-.544-.211-.819l.805-.189c.063.265.13.526.2.787Zm41.172-1.066-.805-.18c.058-.261.112-.526.157-.8l.814.148c-.049.274-.1.549-.166.823Zm-41.856-2.671c-.022-.283-.045-.562-.058-.845l.827-.04a6.118,6.118,0,0,0,.054.809Zm42.342-1.1-.823-.031v-.9h.828v.081C442.548,229.442,442.543,229.721,442.53,230.009Zm-41.523-2.635-.823-.072c.022-.283.054-.562.09-.841l.818.1c-.036.265-.063.535-.085.805Zm40.507-1.129c-.04-.27-.081-.54-.13-.805l.814-.148c.049.274.094.553.135.832Zm-39.868-2.469-.8-.216c.076-.274.153-.544.238-.814l.792.252c-.086.265-.162.513-.234.774Zm39.027-1.088c-.085-.256-.175-.513-.274-.765l.774-.3c.1.265.193.531.283.8Zm-37.745-2.339-.747-.355c.121-.256.247-.508.382-.756l.729.387c-.126.234-.247.49-.364.72Zm36.27-1.012q-.193-.355-.4-.7l.706-.45c.144.238.288.486.423.733Zm-34.408-2.132-.67-.486c.166-.229.333-.45.508-.675l.652.513c-.162.211-.324.409-.481.648Zm32.38-.9c-.171-.211-.346-.418-.526-.625l.621-.544c.189.211.369.427.549.648Zm-29.97-1.862-.571-.6c.2-.193.409-.387.621-.571l.549.616c-.207.184-.4.378-.6.558Zm27.433-.76c-.207-.175-.418-.351-.63-.517l.513-.648.657.535Zm-24.573-1.529-.45-.688c.238-.153.45-.306.715-.45l.45.706c-.274.144-.5.3-.729.436Zm21.587-.6c-.229-.139-.45-.27-.706-.4l.387-.729c.252.135.5.274.742.414Zm-18.385-1.142-.328-.76c.261-.108.517-.216.783-.315l.3.769c-.256.112-.508.2-.755.31ZM428.341,210c-.256-.094-.513-.184-.769-.265l.252-.787c.27.085.535.175.8.274Zm-11.63-.715-.189-.805c.274-.063.553-.121.832-.171l.148.81C417.255,209.164,416.99,209.223,416.711,209.281Zm8.1-.225c-.27-.045-.535-.085-.8-.121l.108-.819c.279.036.558.081.836.126Zm-4.457-.27-.04-.814c.279,0,.562-.023.845-.023v.827A8.028,8.028,0,0,0,420.35,208.786Z" transform="translate(-245.92 -144.112)" fill="#ebebeb"/>
      <path id="Path_2261" data-name="Path 2261" d="M430.365,252.514h5.721V243.88h8.635v-5.725h-8.635V229.52h-5.721v8.635H421.73v5.725h8.635Z" transform="translate(-257.806 -155.981)" fill="#ebebeb"/>
      <path id="Path_2262" data-name="Path 2262" d="M647.948,104.785a36.082,36.082,0,0,1-11.585,10.056,36.045,36.045,0,0,1-11.58-10.056c-4.079-5.4-3.881-13.847,1.956-15.673,6.449-2.019,9.624,7.69,9.624,7.69s3.216-9.777,9.629-7.69C651.8,91,652.027,99.389,647.948,104.785Z" transform="translate(-368.008 -78.558)" fill="#ebebeb"/>
      <path id="Path_2263" data-name="Path 2263" d="M631.571,117.606l-1.758-7.322-1.147,2.581H621.56v-.827h6.566l1.92-4.317,1.372,5.712,1.938-11.832,1.709,9.359,1.354-3.908,2.136,6.4.468-1.412h11.67v.827H639.621l-1.07,3.2-2.145-6.44-1.588,4.583-1.417-7.762Z" transform="translate(-367.767 -85.59)" fill="#fff"/>
      <path id="Path_2264" data-name="Path 2264" d="M631.263,108.936a18.578,18.578,0,1,1,18.574-18.575A18.579,18.579,0,0,1,631.263,108.936Zm0-36.324a17.751,17.751,0,1,0,17.746,17.749,17.751,17.751,0,0,0-17.746-17.749Z" transform="translate(-362.881 -69.181)" fill="#ebebeb"/>
      <path id="Path_2265" data-name="Path 2265" d="M627.088,108.382c-.283,0-.562-.027-.841-.054l.067-.823q.4.036.81.054Zm2.959-.072-.076-.823c.27-.027.54-.058.8-.094l.112.818C630.609,108.247,630.331,108.274,630.047,108.31Zm-6.746-.45c-.274-.058-.549-.126-.818-.2l.211-.8c.261.067.526.135.792.193Zm10.465-.265-.225-.8c.265-.076.522-.153.778-.238l.256.787a6.806,6.806,0,0,1-.792.265Zm-14.085-.9c-.261-.112-.517-.225-.774-.346l.355-.747c.247.117.495.225.742.333Zm17.638-.45-.36-.742c.243-.121.481-.243.72-.373l.391.729a4.785,4.785,0,0,1-.733.4ZM616.331,104.9c-.238-.153-.45-.315-.7-.481l.481-.67c.22.157.45.315.67.45Zm24.24-.621-.49-.666c.22-.162.45-.328.643-.495l.517.643a7.414,7.414,0,0,1-.652.526Zm-27.217-1.749c-.2-.193-.4-.391-.6-.594l.594-.576c.189.193.382.387.576.571Zm30.064-.769-.6-.567c.184-.2.369-.4.549-.6l.621.544a7.345,7.345,0,0,1-.553.634Zm-32.569-2.087c-.166-.229-.328-.45-.486-.693l.688-.45c.153.225.306.45.45.666Zm34.93-.9-.693-.45c.148-.225.292-.45.45-.693l.71.45c-.148.229-.3.468-.45.706ZM608.9,96.406q-.18-.378-.351-.769l.755-.328c.108.247.22.495.337.738Zm38.676-.994-.76-.324c.108-.247.207-.5.3-.756l.774.292a5.57,5.57,0,0,1-.31.8Zm-40.026-2.563c-.076-.27-.148-.544-.211-.818l.8-.189c.063.265.13.526.2.787Zm41.172-1.066-.809-.18q.085-.391.162-.8l.814.148a8.191,8.191,0,0,1-.148.841Zm-41.856-2.7c-.027-.279-.045-.558-.058-.841l.823-.045a8.158,8.158,0,0,0,.058.814Zm42.359-1.048L648.4,88v-.895h.827v.076A7.733,7.733,0,0,1,649.228,88.036ZM607.7,85.4l-.805-.063c.027-.283.054-.562.09-.841l.823.1a7.3,7.3,0,0,0-.108.792Zm40.511-1.133c-.041-.27-.086-.535-.13-.8l.81-.153c.054.279.1.558.139.836ZM608.344,81.8l-.8-.216c.072-.274.153-.544.238-.814l.787.252c-.081.265-.157.508-.229.769Zm39.027-1.1c-.09-.261-.18-.513-.274-.769l.773-.292q.148.4.283.8Zm-37.75-2.339-.747-.355c.126-.256.252-.508.382-.76l.733.391C609.859,77.882,609.738,78.143,609.621,78.367ZM645.9,77.36c-.135-.238-.27-.472-.409-.706l.711-.45c.144.243.283.486.423.733Zm-34.413-2.132-.67-.486q.252-.342.513-.675l.648.508C611.815,74.792,611.654,74.994,611.492,75.228Zm32.38-.9q-.256-.315-.526-.621l.621-.544c.184.211.369.427.544.643ZM613.9,72.467l-.571-.594c.2-.193.409-.387.621-.576l.549.621c-.211.18-.409.378-.607.549Zm27.433-.76c-.2-.175-.414-.346-.625-.517l.513-.648c.22.175.45.355.652.54Zm-24.591-1.525-.45-.688a8.444,8.444,0,0,1,.715-.45l.427.706C617.2,69.886,616.969,70.048,616.744,70.182Zm21.587-.6c-.234-.139-.45-.274-.711-.4l.391-.729c.247.135.495.27.738.414Zm-18.394-1.142-.328-.76c.256-.112.517-.216.778-.319l.3.774C620.45,68.249,620.2,68.334,619.937,68.442Zm15.079-.423-.774-.265.252-.787c.27.09.54.18.8.279ZM623.423,67.3l-.184-.805c.274-.063.549-.121.828-.175l.153.814C623.953,67.187,623.688,67.241,623.423,67.3Zm8.1-.225c-.265-.045-.535-.085-.805-.121l.108-.819c.283.036.562.076.837.126Zm-4.457-.274L627.007,66h.845v.823Z" transform="translate(-359.651 -66)" fill="#ebebeb"/>
    </g>
    <g id="freepik--Table--inject-36" transform="translate(44.043 235.658)">
      <path id="Path_2266" data-name="Path 2266" d="M48.83,451.746c93.992-.274,199.394-.279,293.373,0-93.992.279-199.394.274-293.373,0Z" transform="translate(-48.83 -451.539)" fill="#263238"/>
    </g>
    <g id="freepik--speech-bubble-2--inject-36" transform="translate(243.736 59.225)">
      <path id="Path_2267" data-name="Path 2267" d="M492.98,79.264a17.791,17.791,0,0,0,29.731,11.243l8.9,1.3-4.457-7.681a17.778,17.778,0,0,0-18.328-24.4A17.8,17.8,0,0,0,492.98,79.287Z" transform="translate(-492.874 -59.452)" fill="#fff"/>
      <path id="Path_2268" data-name="Path 2268" d="M498.3,64.34a18.009,18.009,0,0,1,22.513-2.1,18.183,18.183,0,0,1,5.577,5.932,17.989,17.989,0,0,1,1.093,15.862v-.3l4.425,7.708.328.571-.643-.1-8.9-1.349.211-.063a17.989,17.989,0,0,1-8.842,4.326,15.12,15.12,0,0,1-2.465.256,17.408,17.408,0,0,1-2.469-.045,17.926,17.926,0,0,1-4.794-1.142,17.539,17.539,0,0,1-4.29-2.393,16,16,0,0,1-3.494-3.445,17.908,17.908,0,0,1,1.736-23.718Zm-1.682,23.678a20.954,20.954,0,0,0,1.619,1.839,19.474,19.474,0,0,0,1.88,1.565,16.459,16.459,0,0,0,4.295,2.316,16.856,16.856,0,0,0,7.2,1.048,15.071,15.071,0,0,0,2.415-.292,17.539,17.539,0,0,0,8.545-4.389l.085-.081h.121l8.914,1.246-.319.45-4.5-7.681-.085-.148.063-.157a17.788,17.788,0,0,0,1.255-7.753,17.54,17.54,0,0,0-2.249-7.528,18.278,18.278,0,0,0-5.325-5.81,17.422,17.422,0,0,0-7.362-2.86,17.6,17.6,0,0,0-16.536,28.238Z" transform="translate(-492.865 -59.225)" fill="#263238"/>
      <circle id="Ellipse_201" data-name="Ellipse 201" cx="1.637" cy="1.637" r="1.637" transform="translate(23.694 16.309)" fill="#263238"/>
      <path id="Path_2269" data-name="Path 2269" d="M531.353,97.127a1.642,1.642,0,1,1-1.642-1.637,1.641,1.641,0,0,1,1.642,1.637Z" transform="translate(-512.237 -79.181)" fill="#263238"/>
      <circle id="Ellipse_202" data-name="Ellipse 202" cx="1.637" cy="1.637" r="1.637" transform="translate(7.985 16.309)" fill="#263238"/>
    </g>
    <g id="freepik--speech-bubble-1--inject-36" transform="translate(155.723 74.839)">
      <path id="Path_2270" data-name="Path 2270" d="M337.146,113.99a17.791,17.791,0,0,1-29.731,11.243l-8.9,1.3,4.457-7.695a17.621,17.621,0,0,1-1.223-8.567,17.8,17.8,0,0,1,35.4,3.7Z" transform="translate(-297.903 -94.155)" fill="#fff"/>
      <path id="Path_2271" data-name="Path 2271" d="M336.4,113.78a17.926,17.926,0,0,1-3.6,9.021,16,16,0,0,1-3.494,3.445,17.538,17.538,0,0,1-4.29,2.393,17.925,17.925,0,0,1-4.794,1.142,17.41,17.41,0,0,1-2.469.045,15.12,15.12,0,0,1-2.464-.256,17.989,17.989,0,0,1-8.806-4.344l.211.063-8.9,1.349-.643.1.328-.571,4.425-7.708v.3a17.989,17.989,0,0,1,1.093-15.862,18.183,18.183,0,0,1,5.577-5.932A17.96,17.96,0,0,1,336.4,113.78Zm0,0a17.64,17.64,0,0,0-27.532-16.356,18.318,18.318,0,0,0-5.32,5.81,17.539,17.539,0,0,0-2.249,7.528,17.787,17.787,0,0,0,1.255,7.753l.063.157-.085.148-4.5,7.681-.319-.472,8.914-1.246h.121l.085.081a17.54,17.54,0,0,0,8.522,4.389,15.07,15.07,0,0,0,2.415.292,16.856,16.856,0,0,0,7.2-1.048,16.459,16.459,0,0,0,4.295-2.316,18.888,18.888,0,0,0,1.88-1.57,20.272,20.272,0,0,0,1.619-1.835,17.863,17.863,0,0,0,3.638-9Z" transform="translate(-297.16 -93.945)" fill="#263238"/>
      <path id="Path_2272" data-name="Path 2272" d="M339.1,133.049h.3l.04-.036h0c0-.027.059-.072.059-.1h0v-.1h0a8.257,8.257,0,0,1-.166-3.332,9.866,9.866,0,0,1,2.478-.738h0v-.09a.377.377,0,0,0,0-.067h0a1.017,1.017,0,0,0,0-.117.258.258,0,0,0,0-.058h0a.21.21,0,0,0-.022-.112c-.022-.04,0-.045-.022-.067a9.247,9.247,0,0,0-2.42.675v-.076c.247-2.424.5-4.947-1.835-6.233a4.668,4.668,0,0,0-3.508-.364,13.685,13.685,0,0,0-2.5.926c-.027-2.433-.1-4.947-2.766-6.481-1.8-1.043-4.5-.45-8.005,1.709-.229.139-.45.288-.679.45-.036-.189-.076-.378-.112-.567-.5-2.532-.935-4.718-2.428-5.2a.265.265,0,0,0-.337.171.27.27,0,0,0,.175.337c1.2.382,1.619,2.523,2.069,4.794.054.261.1.522.157.783a35.742,35.742,0,0,0-3.548,2.775.266.266,0,0,0,.36.391,35.192,35.192,0,0,1,3.306-2.6c.585,2.7,1.448,5.4,3.9,6.026h0c2.42.634,4.767-.495,7.038-1.588l.328-.157c.036,2.114.256,4.218,2.339,5.631,1.871,1.268,3.728.729,5.4.09A7.861,7.861,0,0,0,339.1,133.049Zm-17.287-9.485a12.43,12.43,0,0,1-1.516-4.295,16.421,16.421,0,0,1,5.59-2.586Zm1.875,1.493a3.409,3.409,0,0,1-1.529-1.039l4.371-7.393a3.6,3.6,0,0,1,2.046.423l.306.189Zm2.7.094a5.765,5.765,0,0,1-2.168.036l5.091-7.645a4.277,4.277,0,0,1,1.084,1.349.238.238,0,0,0-.112.1l-3.859,6.071a.225.225,0,0,0-.04.108Zm4.146-1.592a22.305,22.305,0,0,1-3.445,1.426l3.544-5.586a11.063,11.063,0,0,1,.45,3.8v.094Zm1.084.072a9.21,9.21,0,0,1,4.048-1.151l-3.508,4.686a9.282,9.282,0,0,1-.544-3.535Zm.787,4.048h.027l3.841-5.086a.093.093,0,0,0,0-.027,3.706,3.706,0,0,1,1.075.4,4.108,4.108,0,0,1,.414.27l-4.254,5.667a4.25,4.25,0,0,1-1.106-1.21Zm2.793,2a3.815,3.815,0,0,1-1.273-.49l4.254-5.622a3.18,3.18,0,0,1,.738,1.39l-3.674,4.5a.261.261,0,0,0-.049.216Zm.486.058,3.355-4.1a14.755,14.755,0,0,1-.108,3.018c0,.117-.027.229-.036.346a7.91,7.91,0,0,1-3.216.742Z" transform="translate(-307.494 -104.457)" fill="#455a64"/>
      <path id="Path_2273" data-name="Path 2273" d="M364.9,136.766a2.028,2.028,0,1,1,2.028-2.024A2.028,2.028,0,0,1,364.9,136.766Zm0-3.6a1.571,1.571,0,1,0,1.118.459,1.579,1.579,0,0,0-1.118-.459Z" transform="translate(-333.319 -115.276)" fill="#8b80f8"/>
      <rect id="Rectangle_583" data-name="Rectangle 583" width="0.45" height="6.341" transform="translate(31.355 11.322)" fill="#8b80f8"/>
      <path id="Path_2274" data-name="Path 2274" d="M333.318,140.607a2.028,2.028,0,1,1,2.028-2.028A2.028,2.028,0,0,1,333.318,140.607Zm0-3.6a1.566,1.566,0,1,0,1.118.457,1.579,1.579,0,0,0-1.118-.457Z" transform="translate(-315.941 -117.389)" fill="#8b80f8"/>
      <path id="Path_2275" data-name="Path 2275" d="M327.763,146.7H326.27v-.45h1.309l2.163-2.163.315.315Z" transform="translate(-313.179 -121.538)" fill="#8b80f8"/>
      <path id="Path_2276" data-name="Path 2276" d="M361.13,112.12a41.134,41.134,0,0,1,6.139,0,40.534,40.534,0,0,1-6.139,0Z" transform="translate(-332.361 -103.883)" fill="#263238"/>
      <path id="Path_2277" data-name="Path 2277" d="M361.13,114.42a41.134,41.134,0,0,1,6.139,0A40.535,40.535,0,0,1,361.13,114.42Z" transform="translate(-332.361 -105.148)" fill="#263238"/>
      <path id="Path_2278" data-name="Path 2278" d="M361.13,116.72a16.513,16.513,0,0,1,3.886,0A16.047,16.047,0,0,1,361.13,116.72Z" transform="translate(-332.361 -106.414)" fill="#263238"/>
      <path id="Path_2279" data-name="Path 2279" d="M314.55,146.778a23.287,23.287,0,0,1,4.65,0A23.627,23.627,0,0,1,314.55,146.778Z" transform="translate(-306.729 -122.953)" fill="#263238"/>
      <path id="Path_2280" data-name="Path 2280" d="M314.55,149.08a16.514,16.514,0,0,1,3.886,0,16.514,16.514,0,0,1-3.886,0Z" transform="translate(-306.729 -124.221)" fill="#263238"/>
    </g>
    <g id="freepik--character-2--inject-36" transform="translate(217.128 85.199)">
      <path id="Path_2281" data-name="Path 2281" d="M532.72,409.282h40.664c.135-.729.265-1.448.391-2.172s.288-1.561.45-2.334c.108-.621.22-1.237.333-1.844.054-.306.112-.607.162-.9.225-1.2.45-2.388.648-3.539.054-.288.108-.576.153-.863a.227.227,0,0,1,.031-.139c.1-.607.216-1.2.324-1.8.023-.13.045-.256.072-.382.225-1.25.45-2.451.657-3.6.027-.193.063-.378.1-.562.144-.8.279-1.574.423-2.334.076-.387.139-.765.207-1.147.207-1.124.4-2.195.585-3.2h0c.027-.13.04-.261.072-.382h0c.031-.2.072-.4.108-.594s.076-.378.112-.562h0c.13-.729.252-1.417.364-2.06a.2.2,0,0,1,0-.045l.153-.836.144-.783c.027-.171.058-.342.09-.5h0c.049-.225.085-.45.121-.661s.072-.387.1-.567.045-.27.072-.391c.081-.45.148-.814.211-1.156.04-.225.076-.427.112-.607a1.643,1.643,0,0,1,.054-.315,1.129,1.129,0,0,1,.027-.13.9.9,0,0,1,.031-.184v-.085a.227.227,0,0,1,.022-.13c.022-.031,0-.031,0-.045v-.063H541.323S537.451,389.665,532.72,409.282Z" transform="translate(-488.188 -258.616)" fill="#263238"/>
      <path id="Path_2282" data-name="Path 2282" d="M609.74,414.872h.567q2.86-15.12,5.662-30.253c0-.09-.117-.13-.135-.04Q612.758,399.711,609.74,414.872Z" transform="translate(-530.571 -264.206)" fill="#37474f"/>
      <path id="Path_2283" data-name="Path 2283" d="M568.23,374.22l1.327,13.613v.031l.283,2.851h0l.324,3.283h0l.063.643.058.594,1.349,13.941h21.276c.135-.729.265-1.448.391-2.172s.288-1.561.45-2.334c.108-.621.22-1.237.333-1.844.054-.306.112-.607.162-.9.225-1.2.45-2.388.648-3.539.054-.288.108-.576.153-.864a.227.227,0,0,1,.031-.139c.1-.607.216-1.2.324-1.8.023-.13.045-.256.072-.382.22-1.246.45-2.446.657-3.6.027-.193.063-.378.1-.562.144-.8.279-1.574.423-2.334.076-.387.139-.765.207-1.147.207-1.124.4-2.195.585-3.2h0c.027-.13.04-.261.072-.382h0c.031-.2.072-.4.108-.594s.067-.382.1-.571h0c.135-.724.256-1.4.373-2.046a.2.2,0,0,1,0-.045l.153-.836.144-.783c.027-.171.059-.342.09-.5h0c.049-.225.085-.45.121-.661s.072-.387.1-.567.045-.27.072-.391c.081-.45.148-.814.211-1.156.041-.225.076-.427.112-.607a1.644,1.644,0,0,1,.054-.315,1.1,1.1,0,0,1,.027-.13.9.9,0,0,1,.031-.184v-.085a.228.228,0,0,1,.022-.13c.022-.031,0-.031,0-.045v-.063Z" transform="translate(-507.729 -258.534)" fill="#37474f"/>
      <path id="Path_2284" data-name="Path 2284" d="M553.69,374.192c3.683,8.176,5.46,16.869,7.236,19.131h0a10.054,10.054,0,0,0,1.3,1.286,70.661,70.661,0,0,0,7.92,5.437v.27h0c.076,2.824.144,5.774.2,8.819H614.9c.765-7.479.063-19.293-4.9-34.966Z" transform="translate(-499.728 -258.506)" fill="#263238"/>
      <path id="Path_2285" data-name="Path 2285" d="M566.805,415.491a40.431,40.431,0,0,1,7.313,4.317c2.419,1.655,4.636,3.566,6.966,5.343.09.068,0,.216-.094.153-2.456-1.57-5.023-2.946-7.447-4.56a47.508,47.508,0,0,1-6.854-5.059A.115.115,0,0,1,566.805,415.491Z" transform="translate(-506.857 -281.24)" fill="#37474f"/>
      <path id="Path_2286" data-name="Path 2286" d="M566.014,381.69c.315,1.677.72,3.341,1.084,5.01.342,1.565.589,3.148,1,4.713a8.05,8.05,0,0,0,2.195,3.949c.616.571,1.3,1.079,1.947,1.6.355.283.738.553,1.1.837-.045-.22-.085-.45-.126-.675-.112-.634-.22-1.273-.328-1.911-.234-1.412-.45-2.829-.679-4.25-.45-2.784-.818-5.6-1.4-8.36a.09.09,0,1,1,.175-.04c.693,2.73,1.457,5.437,2.064,8.194.3,1.349,1.349,8.028,1.4,8.5s.09.976.108,1.466a5.759,5.759,0,0,1,0,1.5c-.027.126-.175.1-.225.022h0a5.93,5.93,0,0,1-.423-1.453c-.121-.477-.229-.958-.315-1.444-.032-.175-.059-.351-.081-.531-.657-.4-1.268-.931-1.884-1.376s-1.349-.944-1.965-1.471a7.537,7.537,0,0,1-2.4-3.742,27.46,27.46,0,0,1-.787-4.8c-.211-1.9-.364-3.8-.63-5.694C565.825,381.623,566,381.578,566.014,381.69Z" transform="translate(-506.416 -262.609)" fill="#37474f"/>
      <path id="Path_2287" data-name="Path 2287" d="M645.869,394.177c-.706-.364-3.431.288-8.4-.562a5.717,5.717,0,0,1-2.7-1.088,14.508,14.508,0,0,1-3.054-4.2,21.616,21.616,0,0,1-2.136-5.194c-.027-.108-.184-.054-.166.049.184,1.03.288,2.055.558,3.072A19.376,19.376,0,0,0,631,389.037a11.262,11.262,0,0,0,3.148,4.628c1.583,1.2,3.8,1.417,5.716,1.552,1.111.076,5.464-.04,6.049-.661a.243.243,0,0,0-.045-.378Z" transform="translate(-541.398 -263.403)" fill="#37474f"/>
      <path id="Path_2288" data-name="Path 2288" d="M519.142,197.791c-11.311,7.124-31.656,17.09-39.382,17.724-8.594.693-20.764-22.234-28.949-36.428-1.623-2.815,19.469-16.811,21.052-13.712,4.133,8.1,12.071,26.057,14.054,26.565,1.624.418,18.439-2.06,27.919-3.566C528.919,185.991,527.107,192.773,519.142,197.791Z" transform="translate(-443.067 -143.367)" fill="#eb9481"/>
      <path id="Path_2289" data-name="Path 2289" d="M478.636,177.6,456.91,194.932s15.421,26.327,23.426,28.049,33.549-11.693,42.072-17.7,8.747-11.657-2.572-10.416-28.949,3.472-30.356,2.824S478.636,177.6,478.636,177.6Z" transform="translate(-446.472 -150.338)" fill="#ebebeb"/>
      <path id="Path_2290" data-name="Path 2290" d="M468.278,208.585c7.8-8.14,17.238-15.515,18.789-16.919.076-.067.171.058.094.121-1.6,1.3-11.463,10.892-18.78,16.932C468.3,208.792,468.206,208.661,468.278,208.585Z" transform="translate(-452.713 -158.068)" fill="#263238"/>
      <path id="Path_2291" data-name="Path 2291" d="M494.75,243.921c2.28,2.294,4.5,3.953,6.418,4.362,8.019,1.722,33.549-11.693,42.072-17.7,3.643-2.572,5.774-5.073,6.125-7.007C536.291,228.5,505.777,239.833,494.75,243.921Z" transform="translate(-467.294 -175.64)" fill="#c7c7c7"/>
      <path id="Path_2292" data-name="Path 2292" d="M445.264,158.915c-1.043-2.523-9.512-13.766-9.795-23.084-.108-3.557-.346-13.807,2.348-14.3s2.955,2.509,2.955,2.509.652-4.754,3.413-4.583c2.2.139,2.793,4.349,2.793,4.349s.989-5.176,3.706-4.655c2.478.477,1.965,5.172,1.965,5.172s1.615-2.5,3.913-1.583c2.761,1.1.225,6.714.827,10.6.135.9,8.891,14.243,8.891,14.243Z" transform="translate(-434.642 -118.157)" fill="#455a64"/>
      <path id="Path_2293" data-name="Path 2293" d="M472.426,130.164c-1.079,5.676-1.349,8.055.153,13.4.031.108-.117.175-.157.067-1.961-5.1-1.83-7.947-.252-13.555C472.246,129.8,472.475,129.9,472.426,130.164Z" transform="translate(-454.208 -124.098)" fill="#263238"/>
      <path id="Path_2294" data-name="Path 2294" d="M459.593,129.322c-1.169,5.761-.814,8.545.36,14.274,0,.081-.117.121-.139.04-1.619-5.509-2.321-8.792-.4-14.391C459.49,128.984,459.647,129.043,459.593,129.322Z" transform="translate(-447.212 -123.638)" fill="#263238"/>
      <path id="Path_2295" data-name="Path 2295" d="M446.188,130.383c-.729,5.662-.612,8.819,1.241,14.22a.1.1,0,0,1-.193.076,18.92,18.92,0,0,1-1.223-14.3C446.107,130.032,446.233,130.023,446.188,130.383Z" transform="translate(-440 -124.209)" fill="#263238"/>
      <path id="Path_2296" data-name="Path 2296" d="M485.708,156.811s-.13-7.461-1.142-10.479-.4-9.444-2.982-10.344c-2.9-1-6.251,4.713-4.5,10.105,0,0-7.645,5.338-6.184,10.6S485.708,156.811,485.708,156.811Z" transform="translate(-454.07 -127.377)" fill="#455a64"/>
      <path id="Path_2297" data-name="Path 2297" d="M477.139,159.2c-3.045,1.974-6.13,5.626-6.08,9.246a.085.085,0,0,1-.166,0c-.58-3.872,2.95-8.135,5.779-9.732C477.2,158.419,477.926,158.685,477.139,159.2Z" transform="translate(-454.131 -139.878)" fill="#263238"/>
      <g id="Group_127" data-name="Group 127" transform="translate(0 2.342)" opacity="0.7">
        <path id="Path_2298" data-name="Path 2298" d="M434.08,151.091V122.83S453.3,133.372,453.6,133.372h10.771V140.6H453.6C453.283,140.6,434.08,151.091,434.08,151.091Z" transform="translate(-433.909 -122.542)" fill="#fff"/>
        <path id="Path_2299" data-name="Path 2299" d="M433.871,150.738l-.171-28.261v-.288l.256.135,12.831,6.975c2.145,1.147,4.286,2.321,6.44,3.418l.193.09h.022a.072.072,0,0,0-.045,0h10.978v7.645H453.42l-.193.085c-2.168,1.084-4.308,2.249-6.458,3.377Zm0,0c4.25-2.366,8.491-4.745,12.759-7.074,2.141-1.16,4.263-2.339,6.436-3.454.072-.031.135-.067.22-.1h10.879l-.2.2v-7.232l.216.211h-10.8a.293.293,0,0,1-.094,0h-.031l-.225-.1c-2.177-1.115-4.3-2.289-6.445-3.449-4.272-2.33-8.545-4.659-12.8-7.025l.252-.148Z" transform="translate(-433.7 -122.19)" fill="#263238"/>
        <path id="Path_2300" data-name="Path 2300" d="M499.495,146.183a.742.742,0,1,1-.225.535.756.756,0,0,1,.225-.535Z" transform="translate(-469.782 -135.277)" fill="#263238"/>
        <path id="Path_2301" data-name="Path 2301" d="M497.634,146.44a.742.742,0,1,1-.226.533A.742.742,0,0,1,497.634,146.44Z" transform="translate(-468.757 -135.534)" fill="#263238"/>
        <path id="Path_2302" data-name="Path 2302" d="M495.779,146.44a.742.742,0,0,1,0,1.066.733.733,0,0,1,0-1.066Z" transform="translate(-467.734 -135.534)" fill="#263238"/>
        <path id="Path_2303" data-name="Path 2303" d="M494.074,146.44a2.461,2.461,0,0,1,.225,1.066.554.554,0,1,1-.45,0,2.334,2.334,0,0,1,.225-1.066Z" transform="translate(-466.798 -135.534)" fill="#263238"/>
        <path id="Path_2304" data-name="Path 2304" d="M491.645,146.44a.742.742,0,0,1,0,1.066.733.733,0,0,1-.225-.531.755.755,0,0,1,.225-.535Z" transform="translate(-465.462 -135.534)" fill="#263238"/>
        <path id="Path_2305" data-name="Path 2305" d="M489.784,146.44a.733.733,0,0,1,0,1.066.742.742,0,0,1,0-1.066Z" transform="translate(-464.437 -135.534)" fill="#263238"/>
        <path id="Path_2306" data-name="Path 2306" d="M487.929,146.44a.742.742,0,0,1,0,1.066.733.733,0,0,1,0-1.066Z" transform="translate(-463.414 -135.534)" fill="#263238"/>
      </g>
      <path id="Path_2307" data-name="Path 2307" d="M437.26,156.583V137.87l17.715,9.642Z" transform="translate(-435.659 -128.476)" fill="#8b80f8"/>
      <path id="Path_2308" data-name="Path 2308" d="M545.828,292.141l65.021,3.877s-6.1-58.869-27.348-81.566c-2.622-2.806-9.138-2.838-13.555-1.138-1.574.607-7.259,8.1-9.476,15.115S545.68,291.921,545.828,292.141Z" transform="translate(-495.401 -169.358)" fill="#455a64"/>
      <path id="Path_2309" data-name="Path 2309" d="M605.833,217.267s-8.612,25.823-9.08,29.655-10.344,75.891-10.344,75.891h50.567s-3.8-54.345-15.5-80.856C610.236,216.507,605.833,217.267,605.833,217.267Z" transform="translate(-517.733 -172.165)" fill="#ebebeb"/>
      <path id="Path_2310" data-name="Path 2310" d="M615.656,218.05c.328,1.691.634,3.391.94,5.086l.9,5.091q.9,5.1,1.718,10.2l.049.31-.288.139q-2.941,1.435-5.9,2.829l.229-.625,3.292,7.241.112.238-.148.22q-3.17,4.7-6.418,9.354c-1.084,1.547-2.172,3.1-3.274,4.632s-2.2,3.081-3.328,4.6c.976-1.619,1.988-3.216,2.986-4.826s2.024-3.2,3.045-4.79q3.076-4.767,6.215-9.494l-.036.45-3.305-7.236-.193-.427.423-.2q2.968-1.39,5.945-2.739l-.238.45q-.747-5.122-1.435-10.249l-.666-5.127C616.069,221.472,615.849,219.763,615.656,218.05Z" transform="translate(-527.159 -172.597)" fill="#dbdbdb"/>
      <path id="Path_2311" data-name="Path 2311" d="M634.549,376.12a99.526,99.526,0,0,1-11.531.9c-5.4,0-10.753-.522-12.3-.544-.144,0-.211.45-.117.45,2.015.256,8.2.872,12.313.872a64.89,64.89,0,0,0,11.243-1.061c-.022,1.142-.022,2.033-.022,3.175-3.8.733-11.144,2.01-23,.486-.036-.486.032-3.022-.076-3.724,0-.1-.45-.126-.472.036-.094.688-.373,6.8-.382,8.046,0,3.063.18,11.693.944,13.388,1.727,3.8,9.111,3.8,11.158,3.823s8.639.22,11.108-2.195c1.318-1.291,1.605-8.3,1.412-14.5C634.729,382.317,634.724,376.174,634.549,376.12ZM622.892,401.2c-6.53,0-9.372-1.349-10.38-2.725-1.174-1.592-1.273-4.358-1.349-7.416-.067-2.4,0-9.894,0-10.069a61.483,61.483,0,0,0,22.985-.306c0,3.562.023,6.409.027,9.975,0,2.586-.162,6.912-1.471,8.419-1.106,1.273-5.086,2.114-9.813,2.123Z" transform="translate(-530.829 -259.579)" fill="#dbdbdb"/>
      <path id="Path_2312" data-name="Path 2312" d="M559.46,215.16s-7.254,24.663-7.695,28.3-14.36,78.216-14.36,78.216H528.06s19.761-84.058,22.207-92.04S559.46,215.16,559.46,215.16Z" transform="translate(-485.624 -171.007)" fill="#ebebeb"/>
      <path id="Path_2313" data-name="Path 2313" d="M583.5,218.05c-.711,1.268-1.444,2.527-2.172,3.787s-1.457,2.514-2.2,3.764q-2.213,3.755-4.5,7.479l-.022-.526c1.007,1.21,2,2.433,2.991,3.656l.234.3-.22.315-3.877,5.491.094-.283c-.1,3.454-.238,6.9-.4,10.344-.081,1.727-.166,3.454-.27,5.176s-.2,3.454-.333,5.181c-.045-1.727-.045-3.454-.063-5.181s0-3.454,0-5.181c.027-3.454.072-6.908.157-10.344v-.162l.09-.126,3.877-5.487v.607c-.98-1.232-1.956-2.469-2.919-3.724l-.193-.252.166-.27q2.334-3.674,4.713-7.317c.787-1.219,1.592-2.424,2.393-3.629S582.677,219.246,583.5,218.05Z" transform="translate(-510.217 -172.597)" fill="#dbdbdb"/>
      <path id="Path_2314" data-name="Path 2314" d="M597.229,243.416l-1.619-4.866-4.43,3.386.463,3.548,3.49.9Z" transform="translate(-520.357 -183.878)" fill="#8b80f8"/>
      <path id="Path_2315" data-name="Path 2315" d="M583.852,254.874l-3.382,40.061L574.125,306.9l-3.445-13.91,9.683-39.018Z" transform="translate(-509.077 -192.363)" fill="#8b80f8"/>
      <g id="Group_128" data-name="Group 128" transform="translate(19.997 52.203)" opacity="0.7">
        <path id="Path_2316" data-name="Path 2316" d="M508.409,262.4a14.976,14.976,0,1,1-18.861-14.5l.04-12.143h-1.21V233.38l10.263.022v2.379h-1.214l-.049,12.143A14.967,14.967,0,0,1,508.409,262.4Z" transform="translate(-478.325 -233.236)" fill="#fff"/>
        <path id="Path_2317" data-name="Path 2317" d="M508.249,262.225a15.04,15.04,0,1,1-26.03-10.375,15.2,15.2,0,0,1,7.115-4.295l-.13.171v-6.062l.036-6.062.171.175h-1.381V233.06h.166l10.263.072h.117v2.6h-1.318l.1-.1-.117,12.143-.022-.027a14.98,14.98,0,0,1,11.023,14.5Zm0,0a14.967,14.967,0,0,0-11.036-14.45h0V235.538h1.309l-.1.1v-2.379l.117.117-10.263.027.166-.166v2.379l-.171-.171h1.385v6.238l-.031,6.062v.135l-.13.036a14.865,14.865,0,1,0,18.816,14.324Z" transform="translate(-478.164 -233.06)" fill="#263238"/>
      </g>
      <path id="Path_2318" data-name="Path 2318" d="M484.438,283.907a11.849,11.849,0,0,1,8.333-11.347" transform="translate(-461.619 -202.593)" fill="#fff"/>
      <path id="Path_2319" data-name="Path 2319" d="M509.005,300.59a12.408,12.408,0,0,1-24.685,0Z" transform="translate(-461.555 -218.017)" fill="#8b80f8"/>
      <path id="Path_2320" data-name="Path 2320" d="M530.238,290.759a1.124,1.124,0,1,1-.329-.8A1.129,1.129,0,0,1,530.238,290.759Z" transform="translate(-485.58 -211.986)" fill="#8b80f8"/>
      <path id="Path_2321" data-name="Path 2321" d="M518.357,296.9a.724.724,0,1,1-.212-.517A.729.729,0,0,1,518.357,296.9Z" transform="translate(-479.483 -215.585)" fill="#8b80f8"/>
      <path id="Path_2322" data-name="Path 2322" d="M498.447,288.029a.724.724,0,1,1-.21-.515A.728.728,0,0,1,498.447,288.029Z" transform="translate(-468.527 -210.704)" fill="#8b80f8"/>
      <path id="Path_2323" data-name="Path 2323" d="M522.555,285.383a.553.553,0,1,1-.164-.393A.558.558,0,0,1,522.555,285.383Z" transform="translate(-481.981 -209.344)" fill="#8b80f8"/>
      <path id="Path_2324" data-name="Path 2324" d="M490.505,297.108a.553.553,0,1,1-.16-.394A.558.558,0,0,1,490.505,297.108Z" transform="translate(-464.345 -215.794)" fill="#8b80f8"/>
      <path id="Path_2325" data-name="Path 2325" d="M495.444,296.485a.225.225,0,0,1-.225.229.229.229,0,0,1-.229-.229.227.227,0,0,1,.454,0Z" transform="translate(-467.426 -215.634)" fill="#8b80f8"/>
      <path id="Path_2326" data-name="Path 2326" d="M616.32,235.42c-2.01,5.491-9.674,43.952-8.261,47.473,2.2,5.5,9.952,19.032,20.431,9.826,7.258-6.373,2.4-39.612-.976-54.111C625.418,229.623,619.914,225.611,616.32,235.42Z" transform="translate(-529.551 -179.016)" fill="#ebebeb"/>
      <path id="Path_2327" data-name="Path 2327" d="M569.129,296.425c-3.229-.684-21.25,16.316-17.427,19.311,17.989,14.085,35.321,16.253,39.819,15.8,5.891-.589,8.995-7.308,8.059-11.072C598.244,315.013,572.326,297.123,569.129,296.425Z" transform="translate(-498.342 -215.714)" fill="#eb9481"/>
      <path id="Path_2328" data-name="Path 2328" d="M535.9,274.445s-7.744-6.8-12.97-11.329c-2.919-2.523-8.306-6.4-11.3-7.281-4.5-1.309-24.02-3.922-24.757.805-.666,4.277,16.415,4.389,16.415,4.389s-17.224-1.637-17.09,3.661,19.46,2.86,19.46,2.86-17.733-1.286-16.721,4.155c.765,4.111,18.385,2.887,18.385,2.887s-15.25-1-14.647,3.265c.67,4.709,17,4.6,17,4.6,3.364,10.573,10.033,16.051,15.938,16.154C526.836,298.635,535.9,274.445,535.9,274.445Z" transform="translate(-462.589 -192.339)" fill="#455a64"/>
      <path id="Path_2329" data-name="Path 2329" d="M512.967,269.273c-2.015-.265-4.048-.544-6.085-.63s-4.048-.1-6.1,0a34.7,34.7,0,0,0-7.87,1.16c4.65-.9,11.936-.688,13.968-.6s4.048.067,6.089.153C513.021,269.354,513.017,269.282,512.967,269.273Z" transform="translate(-466.277 -200.398)" fill="#263238"/>
      <path id="Path_2330" data-name="Path 2330" d="M518.149,285.6c-2.586-.229-5.149-.549-7.749-.661s-5.05,0-7.645.072c-.2,0-.13.108.067.112,2.59.036,4.983.274,7.569.342s5.181.036,7.753.2a.032.032,0,0,0,0-.063Z" transform="translate(-471.634 -209.38)" fill="#263238"/>
      <path id="Path_2331" data-name="Path 2331" d="M524.6,300.11A58.446,58.446,0,0,0,512.664,300c-.193,0-.09.144.108.139,3.967-.04,7.079-.1,11.805.1C524.649,300.249,524.681,300.123,524.6,300.11Z" transform="translate(-477.095 -217.555)" fill="#263238"/>
      <path id="Path_2332" data-name="Path 2332" d="M574.7,294.73,557.08,321.538s31.161,11.954,39,9.444,8.675-10.434,6.44-13.285C597.695,311.559,574.7,294.73,574.7,294.73Z" transform="translate(-501.593 -214.792)" fill="#ebebeb"/>
      <path id="Path_2333" data-name="Path 2333" d="M575.374,329.409c5.572-9.8,12.912-19.266,14.076-21,.054-.086.18,0,.121.094-1.232,1.646-8.446,13.366-14.063,21.016C575.441,329.6,575.32,329.5,575.374,329.409Z" transform="translate(-511.652 -222.299)" fill="#263238"/>
      <path id="Path_2334" data-name="Path 2334" d="M606.81,302.59a134.221,134.221,0,0,1,17.022,13.546l-1.052-.868C617.617,311.117,611.928,306.817,606.81,302.59Z" transform="translate(-528.958 -219.117)" fill="#263238"/>
      <path id="Path_2335" data-name="Path 2335" d="M597.9,315.842a107.031,107.031,0,0,0,12.853,3.121,27.968,27.968,0,0,0,4.362.409,11.752,11.752,0,0,0,7.843-3.224,10.056,10.056,0,0,0,2.352-3.6,17.756,17.756,0,0,0,.639-4.286,156.783,156.783,0,0,0-.072-17.625,161.816,161.816,0,0,0-1.821-17.539,153.807,153.807,0,0,1,2.51,26.358c.036,2.946,0,5.9-.171,8.846a17.079,17.079,0,0,1-.679,4.412,11.438,11.438,0,0,1-10.6,7.011C609.206,319.453,603.5,317.6,597.9,315.842Z" transform="translate(-524.055 -202.89)" fill="#263238"/>
      <path id="Path_2336" data-name="Path 2336" d="M657.873,276.1a6.3,6.3,0,0,1-.1,3.364C657.855,278.335,657.77,277.215,657.873,276.1Z" transform="translate(-557 -204.541)" fill="#263238"/>
      <path id="Path_2337" data-name="Path 2337" d="M612.76,283.968c.926-6.337,2.163-12.669,3.692-18.888C615.526,271.421,614.289,277.749,612.76,283.968Z" transform="translate(-532.232 -198.476)" fill="#263238"/>
      <path id="Path_2338" data-name="Path 2338" d="M618.223,268.83a24.306,24.306,0,0,1,0,3.575A5.783,5.783,0,0,1,618.223,268.83Z" transform="translate(-535.083 -200.54)" fill="#263238"/>
      <path id="Path_2339" data-name="Path 2339" d="M596.773,209.36c3.661.783,9.791-4.924,12.143-9.489.162-.31-.382-3.562-.859-7.542-.283-2.415-.535-5.109-.594-7.587,0-.508-15.452,4.119-15.452,4.119a39.6,39.6,0,0,1,1.713,9.476,5.678,5.678,0,0,1-.085,1.021,1.427,1.427,0,0,0,0,.166C593.355,201.477,593.233,208.6,596.773,209.36Z" transform="translate(-520.814 -154.247)" fill="#eb9481"/>
      <path id="Path_2340" data-name="Path 2340" d="M607.677,188.538c-5.4,8.468-12.448,8-14.081,7.753a43.415,43.415,0,0,0-1.6-7.38s15.448-4.628,15.453-4.119C607.5,185.993,607.578,187.275,607.677,188.538Z" transform="translate(-520.809 -154.275)" fill="#263238"/>
      <path id="Path_2341" data-name="Path 2341" d="M605.352,133.324c.8,5.7-4.533,20.98-8.958,23.88-6.409,4.2-15.677,3.247-18.938-4.178-3.148-7.2,4.151-26.983,8.995-29.488C593.538,119.841,604.156,124.9,605.352,133.324Z" transform="translate(-512.386 -119.914)" fill="#eb9481"/>
      <path id="Path_2342" data-name="Path 2342" d="M602.046,164.68c.022-.04.067.076.049.117-.387,1.021-.661,2.249.157,2.914.023,0,0,.072-.031.054C601.142,167.216,601.515,165.579,602.046,164.68Z" transform="translate(-526.051 -143.224)" fill="#263238"/>
      <path id="Path_2343" data-name="Path 2343" d="M603.481,162.965c1.7.45.688,3.814-.9,3.4S602.055,162.591,603.481,162.965Z" transform="translate(-526.196 -142.269)" fill="#263238"/>
      <path id="Path_2344" data-name="Path 2344" d="M586.813,160.088c0-.045-.094,0-.108.067-.283,1.052-.778,2.213-1.83,2.276a.029.029,0,0,0,0,.058C586.066,162.678,586.714,161.131,586.813,160.088Z" transform="translate(-516.872 -140.692)" fill="#263238"/>
      <path id="Path_2345" data-name="Path 2345" d="M585.457,156.962c-1.641-.634-2.788,2.7-1.268,3.283S586.834,157.493,585.457,156.962Z" transform="translate(-516.119 -138.938)" fill="#263238"/>
      <path id="Path_2346" data-name="Path 2346" d="M606.691,157.453a13.838,13.838,0,0,1-1.291-.648,2.439,2.439,0,0,1-1.192-.9.742.742,0,0,1,.229-.9,1.837,1.837,0,0,1,1.871.045,2.7,2.7,0,0,1,1.4,1.349.8.8,0,0,1-1.021,1.052Z" transform="translate(-527.49 -137.774)" fill="#263238"/>
      <path id="Path_2347" data-name="Path 2347" d="M584.713,150.5a14.085,14.085,0,0,0,1.444.054,2.307,2.307,0,0,0,1.484-.225.742.742,0,0,0,.22-.9,1.842,1.842,0,0,0-1.659-.859,2.7,2.7,0,0,0-1.884.513.8.8,0,0,0,.4,1.417Z" transform="translate(-516.413 -134.357)" fill="#263238"/>
      <path id="Path_2348" data-name="Path 2348" d="M596.425,185.761a1.655,1.655,0,0,1-1.061.351,2.9,2.9,0,0,1-1.043-.6c-.031-.022-.076,0-.063.04a1.471,1.471,0,0,0,1.156.967,1.16,1.16,0,0,0,1.1-.679C596.546,185.783,596.47,185.725,596.425,185.761Z" transform="translate(-522.049 -154.686)" fill="#263238"/>
      <path id="Path_2349" data-name="Path 2349" d="M591.521,162.862a3.724,3.724,0,0,1-2.847.868,4.807,4.807,0,0,1-1.3-.328,1.27,1.27,0,0,1-.238-.1,1.866,1.866,0,0,1-.216-.1.27.27,0,0,1-.139-.3h0a.358.358,0,0,1,.045-.1h0l.031-.09c.22-.814.666-2.01.666-2.01-.337.058-2.037.279-1.889-.13a56.346,56.346,0,0,1,4.619-10.344.1.1,0,0,1,.18.085c-1.075,3.328-2.73,6.445-3.863,9.772a6.426,6.426,0,0,1,1.835,0c.1.067-.9,2.3-.976,2.671a.141.141,0,0,0,0,.04,5.2,5.2,0,0,0,4.048-.036C591.548,162.682,591.611,162.8,591.521,162.862Z" transform="translate(-517.303 -135.241)" fill="#263238"/>
      <path id="Path_2350" data-name="Path 2350" d="M606.424,142.269c-3.953-.481-5.091-5.527-3.449-9.093,0,0-10.64-.639-9.521-9.062A9.638,9.638,0,0,1,585.5,126.6l-1.268,2.784c-1.007-.517-1.552-3.76,1.511-5.626a10.115,10.115,0,0,1,4.529-6.013,5.783,5.783,0,0,1,6.269.328,8.725,8.725,0,0,1,6.553-.328,7.449,7.449,0,0,1,4.623,5.019s4.947,1.983,5.118,5.8a7.7,7.7,0,0,1-2.195,5.9s1.007,1.686-.252,4.673C609.576,141.068,607.611,142.417,606.424,142.269Z" transform="translate(-516.096 -116.981)" fill="#263238"/>
      <path id="Path_2351" data-name="Path 2351" d="M605.528,131.29a9.894,9.894,0,0,0-.418,2.033,8.124,8.124,0,0,0,0,2.037,5.329,5.329,0,0,0,1.8,3.458,8.62,8.62,0,0,0,3.638,1.7c.675.112,1.349.27,2.037.342s1.376.108,2.073.189c-.693.031-1.394.031-2.1.049a17.413,17.413,0,0,1-2.1-.211,8.672,8.672,0,0,1-3.881-1.7,5.59,5.59,0,0,1-1.871-3.787,8.455,8.455,0,0,1,.814-4.11Z" transform="translate(-527.798 -124.855)" fill="#263238"/>
      <path id="Path_2352" data-name="Path 2352" d="M592.57,135.381a11.01,11.01,0,0,0,3.476-1.084,6.579,6.579,0,0,0,1.457-1.03,7.982,7.982,0,0,0,1.178-1.408,4.426,4.426,0,0,1-.9,1.664,4.946,4.946,0,0,1-1.5,1.205,6.156,6.156,0,0,1-1.8.616A5.793,5.793,0,0,1,592.57,135.381Z" transform="translate(-521.122 -125.169)" fill="#263238"/>
      <path id="Path_2353" data-name="Path 2353" d="M617.229,162.19s8.486,3.3,9.894,5.037c.571.711-.783,3.76-1.412,4.048-.4.18-4.781-2.851-9.791-4.5A10.014,10.014,0,0,0,617.229,162.19Z" transform="translate(-533.971 -141.859)" fill="#a6a6a6"/>
      <path id="Path_2354" data-name="Path 2354" d="M577.2,153.951a4.334,4.334,0,0,0,.337.522,2.254,2.254,0,0,0,2.446.792c.819-.139,1.5-.868,2.793-.621a4.447,4.447,0,0,1,2.186,1.007,12.72,12.72,0,0,1,1.156,1.093c.094.09.184.189.274.283a2.915,2.915,0,0,0,.27.256,4.114,4.114,0,0,0,.45.342c1.848,1.192,5.05,1.5,6.355.688,1.192-.742,2.249-3.108,2.312-5.473a7.675,7.675,0,0,0-.108-1.511,5.926,5.926,0,0,0-.45-1.421c-.04-.081-.076-.162-.121-.238a3.483,3.483,0,0,0-.409-.6,12.7,12.7,0,0,0-5.644-3.238c-.243-.081-.486-.157-.733-.229-.535-.153-1.079-.288-1.615-.4-.625-.13-1.246-.238-1.853-.31-2.141-.261-4.047-.108-5.109.607a5.136,5.136,0,0,0-1.7,2.141,9.217,9.217,0,0,0-.495,1.255,12.089,12.089,0,0,0-.544,4.236A2.391,2.391,0,0,0,577.2,153.951Z" transform="translate(-512.547 -132.27)" fill="#fff" opacity="0.2"/>
      <g id="Group_129" data-name="Group 129" transform="translate(64.477 12.614)" opacity="0.2">
        <path id="Path_2355" data-name="Path 2355" d="M577.25,161.536a4.334,4.334,0,0,0,.337.522l5.239-2.114a.719.719,0,0,0,.4-.935.733.733,0,0,0-.8-.45.865.865,0,0,0-.144.04l-5.217,2.1A2.392,2.392,0,0,0,577.25,161.536Z" transform="translate(-577.07 -152.469)" fill="#fff"/>
        <path id="Path_2356" data-name="Path 2356" d="M594.73,163.712a12.723,12.723,0,0,1,1.156,1.093l9.674-3.9a7.67,7.67,0,0,0-.108-1.511Z" transform="translate(-586.788 -152.932)" fill="#fff"/>
        <path id="Path_2357" data-name="Path 2357" d="M601.827,157.492a.49.49,0,0,0,.535.3.4.4,0,0,0,.1-.027l6.44-2.595c-.041-.081-.077-.162-.121-.238a3.48,3.48,0,0,0-.409-.6l-6.274,2.55A.49.49,0,0,0,601.827,157.492Z" transform="translate(-590.678 -150.148)" fill="#fff"/>
        <path id="Path_2358" data-name="Path 2358" d="M578.28,149.033l9.156-3.692c-.625-.13-1.246-.238-1.853-.31l-6.809,2.748a9.2,9.2,0,0,0-.495,1.255Z" transform="translate(-577.736 -145.03)" fill="#fff"/>
        <path id="Path_2359" data-name="Path 2359" d="M581.977,150.567a.247.247,0,0,0,.265.148h.054l9.507-3.836c-.243-.081-.486-.157-.733-.229l-8.958,3.6a.243.243,0,0,0-.135.319Z" transform="translate(-579.76 -145.921)" fill="#fff"/>
        <path id="Path_2360" data-name="Path 2360" d="M598.51,170.047a4.118,4.118,0,0,0,.45.342l4.907-1.979a.243.243,0,0,0-.13-.45h-.054Z" transform="translate(-588.868 -157.648)" fill="#fff"/>
      </g>
      <path id="Path_2361" data-name="Path 2361" d="M585.977,156.909c-1.637-1.624-2.249-2.159-3.476-2.321a3.382,3.382,0,0,0-1.8.333,4.3,4.3,0,0,1-.9.288,2.524,2.524,0,0,1-3.054-1.475c-.562-1.682-.126-6.854,2.649-8.738,1.687-1.142,5.167-.837,7.866-.166,2.914.715,6.714,2.312,7.852,4.434h0c1.686,3.148.126,7.6-1.713,8.95a3.553,3.553,0,0,1-1.516.594,7.29,7.29,0,0,1-5.909-1.9Zm8.689-7.416c-.872-1.633-3.832-3.279-7.542-4.2-3.315-.818-6.179-.778-7.474.1-2.545,1.727-2.977,6.651-2.465,8.185a2.085,2.085,0,0,0,2.514,1.151,4.078,4.078,0,0,0,.8-.261,3.854,3.854,0,0,1,2.064-.364c1.408.189,2.168.9,3.751,2.456,1.8,1.767,5.2,2.4,6.773,1.255,1.714-1.246,3.1-5.473,1.574-8.324Z" transform="translate(-512.299 -131.976)" fill="#a6a6a6"/>
      <path id="Path_2362" data-name="Path 2362" d="M623.283,173.641s4.443-4.439,6.516-2.77-1.893,8.545-4.772,9.075a2.788,2.788,0,0,1-3.418-2.132Z" transform="translate(-537.102 -146.429)" fill="#eb9481"/>
      <path id="Path_2363" data-name="Path 2363" d="M630.4,175.637a.04.04,0,0,1,0,.076c-2.033.45-3.337,2.01-4.358,3.706a1.526,1.526,0,0,1,2.339,0c.045.045,0,.112-.068.094a1.709,1.709,0,0,0-1.965.261,8.1,8.1,0,0,0-1.156,1.349c-.117.153-.409,0-.31-.175a.183.183,0,0,0,.023-.04C625.295,178.465,627.773,175.421,630.4,175.637Z" transform="translate(-538.894 -149.252)" fill="#263238"/>
      <path id="Path_2364" data-name="Path 2364" d="M591.274,215.232l2.563,8.851,12.547-9.192,1.889,4.308s-12.664,14.63-12.592,13.887l-2.406-7.461-5.725,4.07,2.249-12.057Z" transform="translate(-518.36 -170.858)" fill="#455a64"/>
      <path id="Path_2365" data-name="Path 2365" d="M587.771,227.078c.45-1.974.828-3.98,1.349-5.936,0-.067.135-.081.144,0,.121,1.992-1.606,9.548-1.875,11.378h.027c.238-.175,5.271-3.544,5.307-3.472.585,1.214,2.352,6.651,2.456,7.137,2.006-2.325,10.393-11.419,12.673-13.559.063-.058.171,0,.112.09-1.835,2.5-12.718,14.526-12.835,14.472a76.7,76.7,0,0,1-2.5-7.884c-.9.765-6.035,4.646-6,4.344a61.278,61.278,0,0,1,1.151-6.57Z" transform="translate(-517.848 -174.268)" fill="#263238"/>
    </g>
    <g id="freepik--character-1--inject-36" transform="translate(47.886 107.213)">
      <path id="Path_2366" data-name="Path 2366" d="M251.308,230.119a38.607,38.607,0,0,1-6.7,4.947c3.117-6.382.666-19.54.45-17.589-1.039,9.332-6.085,20.071-8.464,20.881a.108.108,0,0,0-.04,0,31.791,31.791,0,0,1-17.989-.953.117.117,0,0,1,0-.036c4.146-7.3,2.055-20.732,1.826-19.869-2.491,9.273-9.471,15.421-10.793,15.583h0c-5.523-3.517-8.72-7.33-8.1-7.843,4.691-3.751,7.942-12.25,10.7-21.137h0c2.734-8.77,3.319-21.375,7.758-29.466,4.048-7.407,13.887-10.006,20.031-7.308C256.138,174.4,254.172,227.511,251.308,230.119Z" transform="translate(-136.644 -166.128)" fill="#263238"/>
      <path id="Path_2367" data-name="Path 2367" d="M284.8,167.66a10.056,10.056,0,0,1,3.629,1.952,21.4,21.4,0,0,1,2.86,2.811,34.4,34.4,0,0,1,4.155,6.633c2.307,4.646,3.895,14.144,4.713,19.172a79.34,79.34,0,0,1,.733,15.25c-.045,1.273-.171,2.545-.252,3.818l-.378,3.809-.531,3.791-.67,3.778.414-3.8.328-3.8.243-3.8c.036-1.268.117-2.536.117-3.8a86.567,86.567,0,0,0-.926-15.115c-.729-4.992-2.33-14.391-4.43-19.05a34.84,34.84,0,0,0-3.868-6.647,20.919,20.919,0,0,0-2.662-2.887,13.39,13.39,0,0,0-1.606-1.21,7.294,7.294,0,0,0-1.871-.9Z" transform="translate(-182.522 -166.882)" fill="#263238"/>
      <path id="Path_2368" data-name="Path 2368" d="M199.87,229.121a65.511,65.511,0,0,0,3.629-5.846c1.129-1.983,2.172-4,3.108-6.053s1.8-4.124,2.518-6.233,1.349-4.259,2.042-6.391c1.417-4.254,2.545-13.015,4.241-17.206.859-2.091,1.763-4.178,2.82-6.206a31.087,31.087,0,0,1,1.8-2.959,8.612,8.612,0,0,1,2.447-2.545,9.071,9.071,0,0,0-2.249,2.653,28.625,28.625,0,0,0-1.57,3.013c-.962,2.042-1.8,4.137-2.554,6.242-1.543,4.209-2.671,12.952-4.016,17.224-.715,2.127-1.349,4.254-2.132,6.386a54.623,54.623,0,0,1-2.7,6.265A63.581,63.581,0,0,1,199.87,229.121Z" transform="translate(-135.787 -171.295)" fill="#263238"/>
      <path id="Path_2369" data-name="Path 2369" d="M332.192,305.98c2.289-1.97,24.973.58,23.228,4.668-8.194,19.217-22.806,29.9-26.606,31.521-4.978,2.127-9.849-2.285-10.771-5.707C316.7,331.5,329.93,307.931,332.192,305.98Z" transform="translate(-200.763 -242.623)" fill="#f7a9a0"/>
      <path id="Path_2370" data-name="Path 2370" d="M328.725,311.48l25.032,8.864s-16.365,23.26-27.231,25.819c-3.9.9-9.808-2.7-10.186-7.618S328.725,311.48,328.725,311.48Z" transform="translate(-199.873 -246.023)" fill="#ebebeb"/>
      <path id="Path_2371" data-name="Path 2371" d="M362.185,331.388c-9.773-2.82-19.617-7.263-21.389-7.92-.085-.027,0-.162.059-.126,1.7.733,13.492,4.592,21.393,7.906C362.338,331.28,362.279,331.415,362.185,331.388Z" transform="translate(-213.315 -252.547)" fill="#263238"/>
      <path id="Path_2372" data-name="Path 2372" d="M277.1,260.061c3.674,3.89,29.79,33.032,31.481,34.008,0,0-.495,24.87-12.831,21.623-8.019-2.109-25.045-37.709-27.919-51.912C266.509,257.259,269.392,251.916,277.1,260.061Z" transform="translate(-173.014 -215.457)" fill="#ebebeb"/>
      <path id="Path_2373" data-name="Path 2373" d="M181,416.694h59.431l-4.115-28.854h-49.06C180.883,405.6,181,416.694,181,416.694Z" transform="translate(-125.403 -288.042)" fill="#263238"/>
      <path id="Path_2374" data-name="Path 2374" d="M242.231,321.919l-2.3-23.79s5.5-4.07,4.61-13.042c-.324-3.3-12.57-27.136-13.649-28.148-4.353-4.048-11.972-2.766-14.706-.157-14.342,13.672-22.072,38.532-27.7,65.138Z" transform="translate(-129.52 -214.583)" fill="#8b80f8"/>
      <path id="Path_2375" data-name="Path 2375" d="M271.672,344.32a44.478,44.478,0,0,0-6.651.6c-1.093.193-2.168.45-3.242.706-.535.135-1.07.252-1.61.364a6.9,6.9,0,0,1-1.718.193.04.04,0,1,0,0,.081,12.41,12.41,0,0,0,1.633.09,11.694,11.694,0,0,0,1.578-.18c1.106-.189,2.2-.427,3.31-.625,2.249-.4,4.461-.8,6.719-1.043C271.789,344.491,271.776,344.315,271.672,344.32Z" transform="translate(-168 -264.094)" fill="#263238"/>
      <path id="Path_2376" data-name="Path 2376" d="M286.249,348.693a48.531,48.531,0,0,0-5.469-.666c-.922-.058-1.835-.058-2.752-.04-.45,0-.9.031-1.318.054s-.962.117-1.448.135a.041.041,0,0,0,0,.081c.45,0,.9.067,1.372.09l1.349.063c.9.045,1.83.1,2.748.135,1.835.072,3.661.162,5.491.3a.078.078,0,0,0,.027-.153Z" transform="translate(-177.253 -266.106)" fill="#263238"/>
      <path id="Path_2377" data-name="Path 2377" d="M173.45,342.71h46.218l-7.429-89.32a18.286,18.286,0,0,0-9.372,6.247C185.615,280.306,173.45,342.71,173.45,342.71Z" transform="translate(-121.249 -214.057)" fill="#ebebeb"/>
      <path id="Path_2378" data-name="Path 2378" d="M280.77,255.09l11.612,88.555H296.1s-4.767-44.4-4.722-44.846,6.575-6.921,5.077-15.016S281.8,255.828,280.77,255.09Z" transform="translate(-180.305 -214.993)" fill="#ebebeb"/>
      <path id="Path_2379" data-name="Path 2379" d="M302.215,315.459c3.467-4.07,6.031-9.629,4.758-15.03a38.547,38.547,0,0,0-2.743-7.713c-1.133-2.5-2.406-4.947-3.76-7.326a64.137,64.137,0,0,1,4.074,7.2,36.669,36.669,0,0,1,2.869,7.767c1.259,5.523-1.4,11.212-5.2,15.12Z" transform="translate(-191.145 -231.666)" fill="#263238"/>
      <path id="Path_2380" data-name="Path 2380" d="M303.93,288.32a9.93,9.93,0,0,1,1.349,3.908A16.734,16.734,0,0,1,303.93,288.32Z" transform="translate(-193.049 -233.278)" fill="#263238"/>
      <path id="Path_2381" data-name="Path 2381" d="M286.28,264.49c.567,1.327,1.16,2.64,1.749,3.958s1.178,2.631,1.8,3.94q1.8,3.931,3.656,7.839l.108-.5q-1.889,1.552-3.742,3.148l-.3.252.189.337,3.323,5.846-.058-.288q-.621,5.032-1.138,10.083-.265,2.523-.495,5.05c-.139,1.682-.306,3.368-.418,5.055.306-1.664.562-3.337.841-5.005s.526-3.346.774-5.019q.742-5.019,1.394-10.051v-.148l-.076-.135L290.575,283l-.1.589q1.848-1.592,3.679-3.216l.247-.22-.144-.283q-1.938-3.868-3.926-7.713c-.657-1.282-1.349-2.559-2.006-3.836S286.973,265.758,286.28,264.49Z" transform="translate(-183.337 -220.165)" fill="#dbdbdb"/>
      <path id="Path_2382" data-name="Path 2382" d="M259.087,236.731c.157,1.084,3.274,8.5,8.118,7.771,2.195-.324,3.719-7.771,3.719-7.771l.2-.63,2.766-8.8-9.966-7.645-1.448-1.025s-.6,2.46-1.313,5.527c-.036.139-.067.283-.1.45s-.09.333-.126.5c-.112.45-.225.922-.328,1.39-.076.355-.157.7-.229,1.079s-.148.742-.229,1.115A63.327,63.327,0,0,0,259.087,236.731Z" transform="translate(-168.371 -194.93)" fill="#f7a9a0"/>
      <path id="Path_2383" data-name="Path 2383" d="M274.188,227.273l-2.357,7.506a20.529,20.529,0,0,1-12.2-.9c.184-1.493.45-3.386.818-5.239.081-.373.148-.738.229-1.12s.153-.72.234-1.075c.1-.45.211-.935.324-1.39.036-.162.081-.328.126-.5s.067-.292.1-.45c.715-3.067,1.313-5.527,1.313-5.527l1.448,1.021Z" transform="translate(-168.672 -194.902)" fill="#263238"/>
      <path id="Path_2384" data-name="Path 2384" d="M234.914,188.454c.5,16.19,10.249,17.715,13.744,17.6,3.148-.1,13.941-.845,15.12-17s-6.507-21.038-13.766-21.191S234.415,172.264,234.914,188.454Z" transform="translate(-155.059 -166.993)" fill="#f7a9a0"/>
      <path id="Path_2385" data-name="Path 2385" d="M239.731,206.486a10.827,10.827,0,0,0,1.052-.4,1.8,1.8,0,0,0,.985-.621.576.576,0,0,0-.117-.693,1.439,1.439,0,0,0-1.444-.1,2.1,2.1,0,0,0-1.178.949.616.616,0,0,0,.7.859Z" transform="translate(-157.304 -187.171)" fill="#263238"/>
      <path id="Path_2386" data-name="Path 2386" d="M261.433,203.576a10.345,10.345,0,0,1-1.12-.045,1.826,1.826,0,0,1-1.129-.265.571.571,0,0,1-.112-.7,1.417,1.417,0,0,1,1.349-.558,2.073,2.073,0,0,1,1.421.513.612.612,0,0,1-.409,1.052Z" transform="translate(-168.325 -185.776)" fill="#263238"/>
      <path id="Path_2387" data-name="Path 2387" d="M261.16,215.254c0-.045.094.036.1.081.121,1.1.45,2.334,1.484,2.554.032,0,.036.063,0,.063C261.533,217.952,261.083,216.311,261.16,215.254Z" transform="translate(-169.509 -193.065)" fill="#263238"/>
      <path id="Path_2388" data-name="Path 2388" d="M261.987,212.384c1.736-.382,2.375,3.117.765,3.472S260.52,212.708,261.987,212.384Z" transform="translate(-169.513 -191.477)" fill="#263238"/>
      <path id="Path_2389" data-name="Path 2389" d="M264.363,211.968c.342.144.706.45,1.079.409s.693-.45.9-.868c.022-.04.058,0,.067.031a1.3,1.3,0,0,1-.7,1.637c-.7.234-1.219-.3-1.511-.944C264.152,212.116,264.228,211.914,264.363,211.968Z" transform="translate(-171.179 -191.002)" fill="#263238"/>
      <path id="Path_2390" data-name="Path 2390" d="M246.021,216.788c0-.04-.081.058-.076.1.153,1.093.144,2.37-.809,2.842-.027,0,0,.067,0,.058C246.345,219.491,246.341,217.778,246.021,216.788Z" transform="translate(-160.689 -193.911)" fill="#263238"/>
      <path id="Path_2391" data-name="Path 2391" d="M243.151,214.479c-1.8.058-1.538,3.6.108,3.557S244.648,214.434,243.151,214.479Z" transform="translate(-158.92 -192.646)" fill="#263238"/>
      <path id="Path_2392" data-name="Path 2392" d="M240.585,214.973c-.3.22-.58.594-.949.657s-.783-.274-1.088-.616c-.031-.031-.063,0-.058.045.036.684.346,1.349,1.079,1.417s1.111-.589,1.232-1.286C240.824,215.067,240.7,214.887,240.585,214.973Z" transform="translate(-157.038 -192.905)" fill="#263238"/>
      <path id="Path_2393" data-name="Path 2393" d="M261.847,233.968c-.2.31-.373.715-.756.837a2.928,2.928,0,0,1-1.219,0,.04.04,0,0,0-.036.067,1.493,1.493,0,0,0,1.5.27,1.187,1.187,0,0,0,.625-1.147C261.964,233.932,261.879,233.927,261.847,233.968Z" transform="translate(-168.78 -203.355)" fill="#263238"/>
      <path id="Path_2394" data-name="Path 2394" d="M250.421,213.98s.049,1.664.18,2.429c0,.072.207.076.45.045h.031a3.688,3.688,0,0,0,3.3-1.961.081.081,0,0,0-.13-.085,5.563,5.563,0,0,1-3.148,1.52c-.09-.207,0-2.851-.117-2.838a6.746,6.746,0,0,0-1.673.688c-.211-3.458.135-6.921-.126-10.344a.1.1,0,0,0-.207,0,57.357,57.357,0,0,0-.342,11.171C248.658,215.006,250.133,214.16,250.421,213.98Z" transform="translate(-162.566 -186.516)" fill="#263238"/>
      <path id="Path_2395" data-name="Path 2395" d="M263.834,189.6a6.692,6.692,0,0,1-4.569-4.781,17.427,17.427,0,0,1-7.938-4.524c.157.315,1.318,2.577,1.947,3.71-10.479-.261-14.881-7.533-14.881-7.533a19.019,19.019,0,0,0-3.539,7.1s-.935-6.166,1.6-10.861a10.193,10.193,0,0,1,8.612-5.644A14.567,14.567,0,0,1,259.8,169.11C267.571,175.253,263.834,189.6,263.834,189.6Z" transform="translate(-154.945 -165.93)" fill="#263238"/>
      <path id="Path_2396" data-name="Path 2396" d="M249.051,194.59a18.938,18.938,0,0,0,5.527,1.07h0a16.15,16.15,0,0,1-8.2-3.305,15.5,15.5,0,0,1-2.7-2.7A10.694,10.694,0,0,1,241.7,186a.081.081,0,0,0-.153.04A12.435,12.435,0,0,0,243,189.913a11.356,11.356,0,0,0,2.806,3,12.889,12.889,0,0,0,3.234,1.713" transform="translate(-158.723 -176.948)" fill="#263238"/>
      <path id="Path_2397" data-name="Path 2397" d="M238.126,217.378c-1.839.148-3.521-1.992-3.746-4.772s1.088-5.167,2.928-5.316,3.517,1.992,3.746,4.772S239.965,217.225,238.126,217.378Zm-.783-9.413c-1.466.121-2.5,2.177-2.307,4.583s1.552,4.272,3.018,4.151,2.5-2.172,2.3-4.583S238.827,207.849,237.343,207.966Z" transform="translate(-154.763 -188.686)" fill="#37474f"/>
      <path id="Path_2398" data-name="Path 2398" d="M261.59,215.319a5.072,5.072,0,1,1,4.3-5.424A4.909,4.909,0,0,1,261.59,215.319Zm-.765-9.408a4.4,4.4,0,1,0,4.389,4.048A4.224,4.224,0,0,0,260.825,205.911Z" transform="translate(-166.921 -187.549)" fill="#37474f"/>
      <path id="Path_2399" data-name="Path 2399" d="M251.858,215.129c-2.595-.679-3.67.238-3.679.247l-.45-.5c.049-.049,1.318-1.192,4.313-.4Z" transform="translate(-162.123 -192.49)" fill="#37474f"/>
      <path id="Path_2400" data-name="Path 2400" d="M276.385,210.992l-.175-.657c.45-.117,7.074-2.208,8.189-2.361s4.047,1.156,4.371,1.3l-.283.616a13.064,13.064,0,0,0-3.949-1.255h-.049C283.63,208.766,280.024,210.008,276.385,210.992Z" transform="translate(-177.795 -189.06)" fill="#37474f"/>
      <path id="Path_2401" data-name="Path 2401" d="M292.143,210.64s2.451-5.658,4.947-4.88,1.349,8.486-1.079,10.006a2.739,2.739,0,0,1-3.89-.711Z" transform="translate(-186.55 -187.807)" fill="#f7a9a0"/>
      <path id="Path_2402" data-name="Path 2402" d="M298.361,210.736a.037.037,0,1,1,.031.067c-1.7,1.129-2.325,3.045-2.644,4.947a1.516,1.516,0,0,1,2.136-.859c.054.027.022.112-.031.112a1.678,1.678,0,0,0-1.7.944,7.842,7.842,0,0,0-.571,1.646c-.054.184-.369.157-.346-.045V217.5C294.718,215.165,295.878,211.491,298.361,210.736Z" transform="translate(-188.199 -190.584)" fill="#263238"/>
      <path id="Path_2403" data-name="Path 2403" d="M182.772,271.039c-1.943,20.413-9.75,45.328-13.276,49.7-4.443,5.545-29.646,14.589-31.3,14.994-4.1.967-16.19-23.835-13.735-24.173,6.8-.971,25.373-7,26.646-8.7a320.886,320.886,0,0,0,20.139-32.214C177.259,259.495,183.982,258.375,182.772,271.039Z" transform="translate(-94.112 -218.745)" fill="#f7a9a0"/>
      <path id="Path_2404" data-name="Path 2404" d="M105.2,393.72a78.941,78.941,0,0,1-9.566,5.783c-2.667,1.205-10.438,4.461-12.057,1.659-1.106-1.911,3.238-4.367,6.3-6.17,1.6-.953,3.436-3.031,2.779-4.047-1.147-1.8-5.248.76-7.884,2.842-5.1,4.047-11.693,10.9-15.479,8.545-1.439-.9-.225-3.036,1.686-5.253-3.225,2.725-6.746,5.086-8.374,4.164a1.888,1.888,0,0,1-.774-2.474,2.5,2.5,0,0,1-2.793-.036c-1.322-1.039-1.016-2.9,0-4.9a1.39,1.39,0,0,1-1.142-.54c-2.968-3.364,7.7-15.776,11.778-17.377a107.842,107.842,0,0,1,25.144-6.04C100.205,373.082,105.206,393.711,105.2,393.72Z" transform="translate(-57.376 -278.159)" fill="#f7a9a0"/>
      <path id="Path_2405" data-name="Path 2405" d="M101.5,403.279a21.262,21.262,0,0,0-7.821,4.371c-2.851,2.527-4.592,5.257-6.881,8.1-.063.072.054.166.112.094,1.093-1.349,5.68-6.463,6.885-7.645a20.274,20.274,0,0,1,7.722-4.844.037.037,0,1,0-.018-.072Z" transform="translate(-73.556 -296.537)" fill="#263238"/>
      <path id="Path_2406" data-name="Path 2406" d="M87.735,392.3a49.769,49.769,0,0,0-9.156,4.713c-3.072,2.163-5.271,5.284-7.443,8.3q-1.956,2.7-3.791,5.514c-.049.076.058.175.117.094q3.292-4.659,6.863-9.116a26.735,26.735,0,0,1,8-6.786c1.763-.98,3.6-1.8,5.433-2.658C87.789,392.338,87.767,392.284,87.735,392.3Z" transform="translate(-62.855 -290.493)" fill="#263238"/>
      <path id="Path_2407" data-name="Path 2407" d="M79.954,383.169c-3.076,1.1-5.761,2.055-8.329,4.155a45.985,45.985,0,0,0-7.506,8.6c-1.174,1.682-2.3,3.4-3.391,5.14-.045.067.076.148.121.076a107.288,107.288,0,0,1,8.3-10.951,21.138,21.138,0,0,1,4.9-4.29,38.474,38.474,0,0,1,5.9-2.7S79.967,383.165,79.954,383.169Z" transform="translate(-59.215 -285.472)" fill="#263238"/>
      <path id="Path_2408" data-name="Path 2408" d="M137.51,307.941l12.876,28.211s24.555-9.444,28.373-16.006c2.991-5.14,10.627-34.157,11.589-48.341s-5.275-12.5-11.243-3.368c-6.418,9.8-19.995,32.69-20.827,33.28S137.51,307.941,137.51,307.941Z" transform="translate(-101.472 -218.446)" fill="#ebebeb"/>
      <path id="Path_2409" data-name="Path 2409" d="M159.1,378.557c-1.408-3.018-2.842-6.022-4.137-9.093-.738-1.745-1.484-3.485-2.2-5.239-.027-.067.085-.121.117-.058,1.534,2.968,3.067,5.95,4.466,8.994s2.806,6.044,4.155,9.089c.769,1.731,1.484,3.481,2.145,5.262,0,.036-.045.063-.063.031C161.938,384.619,160.508,381.615,159.1,378.557Z" transform="translate(-109.859 -274.999)" fill="#263238"/>
      <path id="Path_2410" data-name="Path 2410" d="M168.818,353.085c7.425-3.148,14.841-6.454,21.654-10.793,1.943-1.349,4.048-2.7,5.293-4.754a46.412,46.412,0,0,0,2.384-6.822c3.485-12.439,6.229-25.095,9.08-37.7q-1.835,9.525-3.958,18.992c-1.444,6.3-2.9,12.592-4.709,18.825-.45,1.556-.935,3.1-1.493,4.628a9.728,9.728,0,0,1-2.514,4.182,39.673,39.673,0,0,1-8.1,5.4,161.98,161.98,0,0,1-17.661,8.032Z" transform="translate(-118.69 -235.865)" fill="#263238"/>
      <path id="Path_2411" data-name="Path 2411" d="M252.25,300.613a22.935,22.935,0,0,1,1.376-4.4A11.693,11.693,0,0,1,252.25,300.613Z" transform="translate(-164.611 -237.62)" fill="#263238"/>
      <path id="Path_2412" data-name="Path 2412" d="M250.4,254.43c-.634,1.677-1.246,3.364-1.857,5.046l-1.826,5.055q-1.8,5.064-3.553,10.146l-.108.306.274.2q2.775,1.979,5.577,3.922l-.126-.684-4.659,6.849-.153.229.112.247q2.442,5.365,4.947,10.69c.845,1.776,1.691,3.548,2.559,5.316s1.722,3.53,2.622,5.284c-.724-1.83-1.489-3.643-2.249-5.464s-1.52-3.625-2.294-5.428q-2.325-5.4-4.736-10.793l-.04.472,4.7-6.849.274-.4-.4-.274q-2.806-1.938-5.635-3.836l.166.5q1.669-5.1,3.27-10.24l1.583-5.136C249.379,257.866,249.9,256.152,250.4,254.43Z" transform="translate(-159.554 -214.63)" fill="#dbdbdb"/>
      <path id="Path_2413" data-name="Path 2413" d="M254.84,307l-8.963-20.364,4.942-7.241-6.04-4.111,6.512-19.347Z" transform="translate(-160.5 -215.461)" fill="#ebebeb"/>
      <path id="Path_2414" data-name="Path 2414" d="M301.23,426.827h4.682s1.115-17.211,11.531-18.074c5.509-.45,10.6,3.472,14.549,7.884-3.917-4.448-10.861-10.186-17.481-10.186C304.535,406.45,301.23,426.827,301.23,426.827Z" transform="translate(-191.563 -298.283)" fill="#263238"/>
      <path id="Path_2415" data-name="Path 2415" d="M358.122,315.341l-7.173-14.621L348.52,304l6.152,11.338Z" transform="translate(-217.586 -240.102)" fill="#263238"/>
      <rect id="Rectangle_584" data-name="Rectangle 584" width="17.535" height="4.209" transform="translate(134.909 79.061) rotate(-117.81)" fill="#455a64"/>
      <path id="Path_2416" data-name="Path 2416" d="M346.357,322.741l-2.231-.607-6.737-12.475.783-2.429Z" transform="translate(-211.461 -243.684)" fill="#37474f"/>
      <rect id="Rectangle_585" data-name="Rectangle 585" width="3.027" height="11.104" rx="1.513" transform="matrix(-0.914, 0.406, -0.406, -0.914, 158.842, 86.36)" fill="#37474f"/>
      <rect id="Rectangle_586" data-name="Rectangle 586" width="3.027" height="11.104" rx="1.513" transform="translate(150.319 91.455) rotate(156.08)" fill="#37474f"/>
      <rect id="Rectangle_587" data-name="Rectangle 587" width="4.205" height="14.301" rx="2.102" transform="translate(156.841 92.324) rotate(156.08)" fill="#37474f"/>
      <rect id="Rectangle_588" data-name="Rectangle 588" width="4.205" height="14.301" rx="2.102" transform="matrix(-0.914, 0.406, -0.406, -0.914, 140.558, 49.787)" fill="#37474f"/>
      <rect id="Rectangle_589" data-name="Rectangle 589" width="4.205" height="14.301" rx="2.102" transform="translate(134.268 52.556) rotate(156.08)" fill="#37474f"/>
      <path id="Path_2417" data-name="Path 2417" d="M368.894,298.945,353.832,267.59s-4.3.148-11.742,5.311l16,31.3A30.033,30.033,0,0,0,368.894,298.945Z" transform="translate(-214.047 -221.871)" fill="#37474f"/>
      <path id="Path_2418" data-name="Path 2418" d="M369.481,341.53s14.189-4.182,18.088-8.023l-1.241-2.8a38.2,38.2,0,0,0-18.088,8.023Z" transform="translate(-228.437 -256.605)" fill="#455a64"/>
      <path id="Path_2419" data-name="Path 2419" d="M339.294,270.372a31.765,31.765,0,0,1,13.24-6.224l-1.3-2.77c-8.055-.139-13.24,6.224-13.24,6.224Z" transform="translate(-211.791 -218.451)" fill="#455a64"/>
      <path id="Path_2420" data-name="Path 2420" d="M361.29,311.459s6.206-4.106,11.558-5.433a.576.576,0,0,0,.292-.814l-1.457-3.1a.67.67,0,0,0-.818-.292,31.86,31.86,0,0,0-11.553,5.433.612.612,0,0,0-.292.814l1.457,3.1A.612.612,0,0,0,361.29,311.459Z" transform="translate(-223.331 -240.681)" fill="#455a64"/>
      <path id="Path_2421" data-name="Path 2421" d="M322.327,314.209l-1.124-.5a26.952,26.952,0,0,0-14.841,25.634c.535,12.372,9.561,20.921,9.561,20.921S304.945,346.108,309.051,333,322.327,314.209,322.327,314.209Z" transform="translate(-194.37 -247.25)" fill="#455a64"/>
      <path id="Path_2422" data-name="Path 2422" d="M309.1,341.223c.9,11.405,8.3,19.63,8.3,19.63h11.243c5.145-6.773,13.339-10.73,13.339-10.73l-8.972,1.57-.8-.409-1.61-.805s-2.276,3.476-5.7,3.4a5.294,5.294,0,0,1-2.024-.45c-4-1.727-6.017-12.336-4.146-18.673S328.8,324.5,328.8,324.5l-4.992-9.678C314.858,318.827,308.206,329.818,309.1,341.223Z" transform="translate(-195.85 -247.861)" fill="#37474f"/>
      <path id="Path_2423" data-name="Path 2423" d="M344.348,397.514s2.937.994,7.277-2.6l-1.6-.8s-2.276,3.476-5.7,3.4Z" transform="translate(-215.28 -291.492)" fill="#455a64"/>
      <path id="Path_2424" data-name="Path 2424" d="M311.64,429.622h33.486c-.836-1.3-2.285-3.656-4.2-6.247l-.121-.166-.153-.2-.094-.13-.292-.378c0-.036-.054-.072-.081-.108l-.315-.4c-.166-.216-.355-.45-.558-.7-.144-.18-.288-.355-.45-.531-.229-.274-.477-.567-.738-.863a4.889,4.889,0,0,0-.414-.45c-3.953-4.412-9.039-8.338-14.549-7.884C312.755,412.412,311.64,429.622,311.64,429.622Z" transform="translate(-197.292 -301.078)" fill="#455a64"/>
      <rect id="Rectangle_590" data-name="Rectangle 590" width="33.032" height="4.182" transform="translate(171.512 101.24) rotate(175.23)" fill="#263238"/>
      <rect id="Rectangle_591" data-name="Rectangle 591" width="7.322" height="4.182" transform="translate(138.567 104.023) rotate(175.22)" fill="#37474f"/>
      <circle id="Ellipse_203" data-name="Ellipse 203" cx="1.133" cy="1.133" r="1.133" transform="translate(141.228 124.654)" fill="#263238"/>
      <circle id="Ellipse_204" data-name="Ellipse 204" cx="1.133" cy="1.133" r="1.133" transform="translate(117.69 124.654)" fill="#263238"/>
      <path id="Path_2425" data-name="Path 2425" d="M339.83,418.313a1.133,1.133,0,1,0,1.133-1.133A1.133,1.133,0,0,0,339.83,418.313Z" transform="translate(-212.804 -304.187)" fill="#263238"/>
      <path id="Path_2426" data-name="Path 2426" d="M359.19,283.083a1.133,1.133,0,1,0,1.133-1.133,1.133,1.133,0,0,0-1.133,1.133Z" transform="translate(-223.457 -229.773)" fill="#263238"/>
      <path id="Path_2427" data-name="Path 2427" d="M381,329.323a1.133,1.133,0,1,0,1.133-1.133A1.133,1.133,0,0,0,381,329.323Z" transform="translate(-235.459 -255.218)" fill="#263238"/>
      <path id="Path_2428" data-name="Path 2428" d="M334.87,330.2A1.133,1.133,0,1,0,336,329.07,1.133,1.133,0,0,0,334.87,330.2Z" transform="translate(-210.074 -255.702)" fill="#263238"/>
      <path id="Path_2429" data-name="Path 2429" d="M353.72,403.033a1.133,1.133,0,1,0,1.133-1.133A1.133,1.133,0,0,0,353.72,403.033Z" transform="translate(-220.447 -295.779)" fill="#263238"/>
      <path id="Path_2430" data-name="Path 2430" d="M367.325,271.08c3.4,1.228,9.03,1.349,11.135,3.04a3.085,3.085,0,0,1,1.075,3.517s2.824-.926,4.5.9c.854.944.1,3.148.1,3.148a3.686,3.686,0,0,1,3.674,1.075c1.1,1.372.175,3.364.175,3.364s2.491.409,3.148,2.163c1.349,3.557-9.35,14.153-14.908,11.846-2.59-1.079.166-3.521.166-3.521s-4.812,2.559-7.056.4,1.534-5.113,1.534-5.113-4.686,2.442-6.782-.022c-2.186-2.568,2.1-4.884,2.1-4.884s-3.98.742-5.154-1.511c-1.938-3.724,6.116-4.6,7.92-7.488l-2.541-5.154Z" transform="translate(-224.302 -223.792)" fill="#f7a9a0"/>
      <path id="Path_2431" data-name="Path 2431" d="M376.66,262.321c-3.117-1.444-3.076-7.079-5.846-8.891-3.764-2.451-4.25,4.084-.544,9.386l3.6,3.6Z" transform="translate(-228.155 -213.787)" fill="#f7a9a0"/>
      <path id="Path_2432" data-name="Path 2432" d="M406.564,305.24a.04.04,0,0,1,.063.045,26.076,26.076,0,0,1-11.693,10.258c-.157.068-.328-.157-.171-.261A53.347,53.347,0,0,0,406.564,305.24Z" transform="translate(-242.998 -242.584)" fill="#263238"/>
      <path id="Path_2433" data-name="Path 2433" d="M396.2,294.558c.036-.045.112,0,.076.072a24.505,24.505,0,0,1-13.438,10.4c-.2.054-.427-.094-.207-.175C386.345,303.489,393.041,298.264,396.2,294.558Z" transform="translate(-236.306 -236.701)" fill="#263238"/>
      <path id="Path_2434" data-name="Path 2434" d="M371.767,295.206c5.433-1.763,9.755-5.091,13.7-9.147.054-.054.121.027.09.081-1.39,2.509-4.178,4.835-6.5,6.458a15.034,15.034,0,0,1-7.223,2.8C371.722,295.408,371.65,295.246,371.767,295.206Z" transform="translate(-230.345 -232.024)" fill="#263238"/>
    </g>
    <g id="freepik--Device--inject-36" transform="translate(40.13 199.154)">
      <rect id="Rectangle_592" data-name="Rectangle 592" width="55.285" height="2.478" transform="translate(38.78 34.125)" fill="#455a64"/>
      <rect id="Rectangle_593" data-name="Rectangle 593" width="27.824" height="2.478" transform="translate(66.24 34.13)" fill="#263238"/>
      <path id="Path_2435" data-name="Path 2435" d="M107.392,406.973l-53.877-.009-7.6-36.594,53.877.009Z" transform="translate(-43.311 -370.37)" fill="#263238"/>
      <path id="Path_2436" data-name="Path 2436" d="M101.612,406.973l-53.877-.009-7.6-36.594,53.877.009Z" transform="translate(-40.13 -370.37)" fill="#37474f"/>
      <path id="Path_2437" data-name="Path 2437" d="M106.637,409.229a2.6,2.6,0,0,1-2.649,2.95,3.355,3.355,0,0,1-3.256-2.95,2.608,2.608,0,0,1,2.64-2.95A3.355,3.355,0,0,1,106.637,409.229Z" transform="translate(-73.466 -390.13)" fill="#fff"/>
    </g>
    <g id="freepik--Flasks--inject-36" transform="translate(198.518 180.599)">
      <rect id="Rectangle_594" data-name="Rectangle 594" width="2.361" height="49.398" transform="translate(110.025 53.634) rotate(180)" fill="#263238"/>
      <rect id="Rectangle_595" data-name="Rectangle 595" width="2.361" height="18.29" transform="translate(87.264 8.225) rotate(-90)" fill="#263238"/>
      <rect id="Rectangle_596" data-name="Rectangle 596" width="2.105" height="4.673" transform="translate(107.664 9.386) rotate(180)" fill="#37474f"/>
      <rect id="Rectangle_597" data-name="Rectangle 597" width="7.456" height="1.619" transform="translate(112.575 55.253) rotate(180)" fill="#263238"/>
      <rect id="Rectangle_598" data-name="Rectangle 598" width="2.361" height="49.398" transform="translate(36.972 4.236)" fill="#263238"/>
      <rect id="Rectangle_599" data-name="Rectangle 599" width="2.361" height="18.29" transform="translate(41.438 8.225) rotate(-90)" fill="#263238"/>
      <rect id="Rectangle_600" data-name="Rectangle 600" width="2.105" height="4.673" transform="translate(39.337 4.709)" fill="#37474f"/>
      <rect id="Rectangle_601" data-name="Rectangle 601" width="7.456" height="1.619" transform="translate(41.883 55.253) rotate(180)" fill="#263238"/>
      <g id="Group_130" data-name="Group 130" transform="translate(83.671)" opacity="0.7">
        <path id="Path_2438" data-name="Path 2438" d="M578.37,355.032a13.177,13.177,0,1,0,16.6-12.759l-.041-10.667h1.066v-2.1h-9.03v2.1h1.07l.04,10.667a13.172,13.172,0,0,0-9.705,12.759Z" transform="translate(-578.37 -329.33)" fill="#fff"/>
        <path id="Path_2439" data-name="Path 2439" d="M581.067,346.789a13.213,13.213,0,0,1,7.016-4.745v.027L587.97,331.4l.1.1h-1.178v-2.33h.121l9.035-.067h.157v2.456h-1.25l.184-.184.036,5.334v5.334l-.139-.18a13.376,13.376,0,0,1,6.3,3.787,13.277,13.277,0,0,1-8.441,22.284,13.23,13.23,0,0,1-11.805-21.155Zm-.67,14.967a13.087,13.087,0,1,0,14.54-19.518l-.139-.04v-.144l-.031-5.347v-5.5h1.25l-.18.184v-2.1l.175.175-9.03-.031.121-.126v2.1l-.108-.112h1.174v.1l-.054,10.676v.031h0a13.123,13.123,0,0,0-7.7,19.653Z" transform="translate(-578.386 -329.11)" fill="#263238"/>
      </g>
      <path id="Path_2440" data-name="Path 2440" d="M622.735,373.934a10.42,10.42,0,0,0-7.335-9.984" transform="translate(-515.076 -348.282)" fill="#fff"/>
      <path id="Path_2441" data-name="Path 2441" d="M583.51,388.62a10.919,10.919,0,0,0,21.726,0Z" transform="translate(-497.527 -361.857)" fill="#455a64"/>
      <path id="Path_2442" data-name="Path 2442" d="M589,379.964a.989.989,0,1,0,.29-.7A.994.994,0,0,0,589,379.964Z" transform="translate(-500.548 -356.547)" fill="#455a64"/>
      <circle id="Ellipse_205" data-name="Ellipse 205" cx="0.639" cy="0.639" r="0.639" transform="translate(93.534 25.014)" fill="#455a64"/>
      <path id="Path_2443" data-name="Path 2443" d="M617.81,377.559a.643.643,0,1,0,.643-.639.643.643,0,0,0-.643.639Z" transform="translate(-516.402 -355.419)" fill="#455a64"/>
      <path id="Path_2444" data-name="Path 2444" d="M597,375.236a.49.49,0,1,0,.49-.486.49.49,0,0,0-.49.486Z" transform="translate(-504.951 -354.225)" fill="#455a64"/>
      <path id="Path_2445" data-name="Path 2445" d="M625.17,385.55a.49.49,0,1,0,.49-.49A.49.49,0,0,0,625.17,385.55Z" transform="translate(-520.452 -359.898)" fill="#455a64"/>
      <path id="Path_2446" data-name="Path 2446" d="M621.507,384.966a.2.2,0,1,0,.09-.2.2.2,0,0,0-.09.2Z" transform="translate(-518.435 -359.718)" fill="#455a64"/>
      <rect id="Rectangle_602" data-name="Rectangle 602" width="6.476" height="17.989" rx="3.14" transform="translate(41.393 29.515) rotate(180)" fill="#fff"/>
      <path id="Path_2447" data-name="Path 2447" d="M469.517,369.129v-11.49a3.44,3.44,0,1,1,6.876,0v11.513a3.44,3.44,0,0,1-6.876,0Zm.4-11.513v11.513a3.036,3.036,0,1,0,6.071,0v-11.49a3.036,3.036,0,1,0-6.071,0Z" transform="translate(-434.799 -342.847)" fill="#263238"/>
      <path id="Path_2448" data-name="Path 2448" d="M473.45,385.758a1.668,1.668,0,1,0,1.668-1.668,1.668,1.668,0,0,0-1.668,1.668Z" transform="translate(-436.964 -359.364)" fill="#8b80f8"/>
      <rect id="Rectangle_603" data-name="Rectangle 603" width="0.971" height="12.448" rx="0.47" transform="translate(38.64 26.165) rotate(180)" fill="#dbdbdb"/>
      <rect id="Rectangle_604" data-name="Rectangle 604" width="0.971" height="7.879" rx="0.47" transform="translate(38.64 26.165) rotate(180)" fill="#8b80f8"/>
      <rect id="Rectangle_605" data-name="Rectangle 605" width="1.399" height="27.307" transform="translate(32.627 55.1) rotate(180)" fill="#263238"/>
      <rect id="Rectangle_606" data-name="Rectangle 606" width="29.835" height="1.911" transform="translate(31.229 55.1) rotate(180)" fill="#263238"/>
      <path id="Path_2449" data-name="Path 2449" d="M439.08,386.847l.1,22.859a2.7,2.7,0,1,0,5.4-.027l-.1-22.859Z" transform="translate(-418.051 -360.866)" fill="#ebebeb"/>
      <path id="Path_2450" data-name="Path 2450" d="M439.85,401.574l.072,16.231a2.384,2.384,0,1,0,4.767,0l-.072-16.235Z" transform="translate(-418.475 -368.983)" fill="#c7c7c7"/>
      <rect id="Rectangle_607" data-name="Rectangle 607" width="7.083" height="3.553" transform="translate(27.275 27.496) rotate(179.74)" fill="#8b80f8"/>
      <path id="Path_2451" data-name="Path 2451" d="M401.93,386.847l.1,22.859a2.7,2.7,0,1,0,5.4-.027l-.1-22.859Z" transform="translate(-397.608 -360.866)" fill="#ebebeb"/>
      <path id="Path_2452" data-name="Path 2452" d="M402.69,401.574l.076,16.231a2.384,2.384,0,1,0,4.767,0l-.076-16.235Z" transform="translate(-398.026 -368.983)" fill="#c7c7c7"/>
      <rect id="Rectangle_608" data-name="Rectangle 608" width="7.083" height="3.553" transform="translate(10.563 27.496) rotate(179.74)" fill="#8b80f8"/>
      <path id="Path_2453" data-name="Path 2453" d="M420.61,386.847l.1,22.859a2.7,2.7,0,1,0,5.4-.027L426,386.82Z" transform="translate(-407.887 -360.866)" fill="#ebebeb"/>
      <path id="Path_2454" data-name="Path 2454" d="M421.37,401.574l.072,16.231a2.384,2.384,0,1,0,4.767,0l-.072-16.235Z" transform="translate(-408.306 -368.983)" fill="#37474f"/>
      <rect id="Rectangle_609" data-name="Rectangle 609" width="7.083" height="3.553" transform="translate(18.964 27.498) rotate(179.74)" fill="#455a64"/>
      <path id="Path_2455" data-name="Path 2455" d="M395.42,413.59v2.554h29.826V413.59h-4.83v.854c0,.423-1.192.76-2.658.76s-2.658-.337-2.658-.76v-.854h-3v.854c0,.423-1.192.76-2.658.76s-2.653-.337-2.653-.76v-.854h-3.018v.854c0,.423-1.187.76-2.653.76s-2.653-.337-2.653-.76v-.854Z" transform="translate(-394.026 -375.597)" fill="#455a64"/>
      <rect id="Rectangle_610" data-name="Rectangle 610" width="29.835" height="1.03" transform="translate(31.229 41.572) rotate(180)" fill="#263238"/>
      <rect id="Rectangle_611" data-name="Rectangle 611" width="1.399" height="27.307" transform="translate(1.399 55.1) rotate(180)" fill="#263238"/>
      <rect id="Rectangle_612" data-name="Rectangle 612" width="9.561" height="5.163" transform="translate(101.534 55.1) rotate(180)" fill="#dbdbdb"/>
      <rect id="Rectangle_613" data-name="Rectangle 613" width="0.423" height="2.073" transform="translate(96.961 49.937) rotate(180)" fill="#263238"/>
      <path id="Path_2456" data-name="Path 2456" d="M605.953,429.833c2.761,0,0-5.563,0-5.563S603.183,429.833,605.953,429.833Z" transform="translate(-509.2 -381.474)" fill="#8b80f8"/>
      <path id="Path_2457" data-name="Path 2457" d="M605.953,429.833c2.761,0,0-5.563,0-5.563S603.183,429.833,605.953,429.833Z" transform="translate(-509.2 -381.474)" opacity="0.2"/>
      <path id="Path_2458" data-name="Path 2458" d="M606.523,432.447c1.7,0,0-3.427,0-3.427S604.819,432.447,606.523,432.447Z" transform="translate(-509.774 -384.088)" fill="#8b80f8"/>
    </g>
  </g>
</svg>
