<svg xmlns="http://www.w3.org/2000/svg" xmlns:xlink="http://www.w3.org/1999/xlink" width="177.569" height="127.96" viewBox="0 0 177.569 127.96">
  <defs>
    <linearGradient id="linear-gradient" x1="0.5" y1="1" x2="0.5" gradientUnits="objectBoundingBox">
      <stop offset="0" stop-color="gray" stop-opacity="0.251"/>
      <stop offset="0.54" stop-color="gray" stop-opacity="0.122"/>
      <stop offset="1" stop-color="gray" stop-opacity="0.102"/>
    </linearGradient>
    <linearGradient id="linear-gradient-2" x1="0.5" y1="1" x2="0.5" y2="0" xlink:href="#linear-gradient"/>
  </defs>
  <g id="undraw_doctor_kw-5-l" transform="translate(0.001 -0.015)">
    <path id="Path_2155" data-name="Path 2155" d="M160.11,96.43c-11.384-.4-22.234-4.071-32.58-8.091s-20.6-8.475-31.717-10.606C88.666,76.362,80.491,76.169,74.733,80c-5.542,3.687-7.332,10.051-8.3,15.956-.724,4.444-1.144,9.119.835,13.28,1.378,2.887,3.824,5.315,5.516,8.081,5.886,9.625,1.725,21.494-4.655,30.9-2.992,4.414-6.463,8.614-8.771,13.308s-3.378,10.071-1.357,14.858c2,4.741,6.773,8.309,11.943,10.815,10.5,5.086,22.87,6.541,34.934,7.375,26.7,1.826,53.552,1.035,80.327.244,9.909-.294,19.862-.59,29.609-2.125,5.413-.852,11-2.2,14.933-5.462a12.508,12.508,0,0,0,2.882-16.337c-5.608-8.7-21.111-10.867-25.032-20.209-2.156-5.142.059-10.87,3.195-15.639,6.724-10.229,18-19.205,18.592-30.9C229.8,96.113,224.379,88.071,216,84.27c-8.783-3.987-20.963-3.484-27.442,3.106C181.885,94.166,170.16,96.779,160.11,96.43Z" transform="translate(-56.94 -73.852)" fill="#a8a2ff"/>
    <path id="Path_2156" data-name="Path 2156" d="M195.99,640.339s-8.992-6.8-10.691-15.445a17.091,17.091,0,0,0-5.266-9.435,28.779,28.779,0,0,0-4.213-3.139" transform="translate(-156.385 -521.791)" fill="none" stroke="#535461" stroke-width="2"/>
    <path id="Path_2157" data-name="Path 2157" d="M146.932,574.028c.788,1.066,1.144,5.583,1.144,5.583s-4.213-1.659-5-2.724a2.4,2.4,0,0,1,3.858-2.859Z" transform="translate(-128.598 -488.946)" fill="#6c63ff"/>
    <path id="Path_2158" data-name="Path 2158" d="M190.767,589.169c.082,1.323-2.071,5.309-2.071,5.309s-2.637-3.685-2.72-5.008a2.4,2.4,0,1,1,4.79-.3Z" transform="translate(-164.876 -500.543)" fill="#6c63ff"/>
    <path id="Path_2159" data-name="Path 2159" d="M236.532,645.2c-.6,1.184-4.468,3.538-4.468,3.538s-.414-4.512.181-5.7a2.4,2.4,0,1,1,4.287,2.158Z" transform="translate(-203.317 -546.381)" fill="#6c63ff"/>
    <path id="Path_2160" data-name="Path 2160" d="M259.509,701.882c-.387,1.267-3.806,4.241-3.806,4.241s-1.172-4.377-.785-5.645a2.4,2.4,0,1,1,4.591,1.4Z" transform="translate(-222.486 -594.114)" fill="#6c63ff"/>
    <path id="Path_2161" data-name="Path 2161" d="M168.153,628.3c1.308.177,5.443-1.69,5.443-1.69s-3.489-2.891-4.8-3.067a2.4,2.4,0,1,0-.639,4.758Z" transform="translate(-148.231 -531.157)" fill="#6c63ff"/>
    <path id="Path_2162" data-name="Path 2162" d="M192.493,692.156c1.308-.224,4.687-3.24,4.687-3.24s-4.2-1.713-5.5-1.489a2.4,2.4,0,1,0,.817,4.73Z" transform="translate(-167.986 -584.601)" fill="#6c63ff"/>
    <path id="Path_2163" data-name="Path 2163" d="M230.312,750.09c1.326,0,5.168-2.4,5.168-2.4s-3.844-2.4-5.17-2.4a2.4,2.4,0,0,0,0,4.8Z" transform="translate(-199.959 -633.022)" fill="#6c63ff"/>
    <path id="Path_2164" data-name="Path 2164" d="M833.49,302.717s5.542-9.817,13.9-12.646a17.089,17.089,0,0,0,8.652-6.473,28.669,28.669,0,0,0,2.549-4.6" transform="translate(-706.534 -242.965)" fill="none" stroke="#535461" stroke-width="2"/>
    <path id="Path_2165" data-name="Path 2165" d="M991.55,246.908c-.951.922-5.38,1.877-5.38,1.877s1.087-4.4,2.039-5.322a2.4,2.4,0,1,1,3.342,3.445Z" transform="translate(-834.252 -212.671)" fill="#6c63ff"/>
    <path id="Path_2166" data-name="Path 2166" d="M975.427,292.255c-1.308.258-5.537-1.347-5.537-1.347s3.3-3.106,4.6-3.36a2.4,2.4,0,1,1,.935,4.707Z" transform="translate(-820.634 -250.067)" fill="#6c63ff"/>
    <path id="Path_2167" data-name="Path 2167" d="M927.029,345.553c-1.252-.433-4.1-3.958-4.1-3.958s4.414-1.01,5.67-.577a2.4,2.4,0,1,1-1.571,4.535Z" transform="translate(-781.351 -294.753)" fill="#6c63ff"/>
    <path id="Path_2168" data-name="Path 2168" d="M872.7,375.308c-1.308-.216-4.7-3.216-4.7-3.216s4.184-1.743,5.49-1.527a2.4,2.4,0,0,1-.78,4.741Z" transform="translate(-735.402 -319.545)" fill="#6c63ff"/>
    <path id="Path_2169" data-name="Path 2169" d="M947.3,274.792c0,1.326,2.4,5.173,2.4,5.173s2.4-3.842,2.4-5.166a2.4,2.4,0,1,0-4.8,0Z" transform="translate(-801.737 -237.39)" fill="#6c63ff"/>
    <path id="Path_2170" data-name="Path 2170" d="M887.446,308.087c.4,1.265,3.835,4.216,3.835,4.216s1.144-4.385.746-5.65a2.4,2.4,0,0,0-4.578,1.434Z" transform="translate(-751.6 -264.757)" fill="#6c63ff"/>
    <path id="Path_2171" data-name="Path 2171" d="M834.848,352.584c.177,1.308,3.067,4.8,3.067,4.8s1.865-4.128,1.689-5.441a2.4,2.4,0,1,0-4.756.639Z" transform="translate(-707.645 -302.196)" fill="#6c63ff"/>
    <path id="Path_2172" data-name="Path 2172" d="M991.55,246.908c-.951.922-5.38,1.877-5.38,1.877s1.087-4.4,2.039-5.322a2.4,2.4,0,1,1,3.342,3.445Z" transform="translate(-834.252 -212.671)" opacity="0.25"/>
    <path id="Path_2173" data-name="Path 2173" d="M975.427,292.255c-1.308.258-5.537-1.347-5.537-1.347s3.3-3.106,4.6-3.36a2.4,2.4,0,1,1,.935,4.707Z" transform="translate(-820.634 -250.067)" opacity="0.25"/>
    <path id="Path_2174" data-name="Path 2174" d="M927.029,345.553c-1.252-.433-4.1-3.958-4.1-3.958s4.414-1.01,5.67-.577a2.4,2.4,0,1,1-1.571,4.535Z" transform="translate(-781.351 -294.753)" opacity="0.25"/>
    <path id="Path_2175" data-name="Path 2175" d="M872.7,375.308c-1.308-.216-4.7-3.216-4.7-3.216s4.184-1.743,5.49-1.527a2.4,2.4,0,0,1-.78,4.741Z" transform="translate(-735.402 -319.545)" opacity="0.25"/>
    <path id="Path_2176" data-name="Path 2176" d="M947.3,274.792c0,1.326,2.4,5.173,2.4,5.173s2.4-3.842,2.4-5.166a2.4,2.4,0,1,0-4.8,0Z" transform="translate(-801.737 -237.39)" opacity="0.25"/>
    <path id="Path_2177" data-name="Path 2177" d="M887.446,308.087c.4,1.265,3.835,4.216,3.835,4.216s1.144-4.385.746-5.65a2.4,2.4,0,0,0-4.578,1.434Z" transform="translate(-751.6 -264.757)" opacity="0.25"/>
    <path id="Path_2178" data-name="Path 2178" d="M834.848,352.584c.177,1.308,3.067,4.8,3.067,4.8s1.865-4.128,1.689-5.441a2.4,2.4,0,1,0-4.756.639Z" transform="translate(-707.645 -302.196)" opacity="0.25"/>
    <path id="Path_2179" data-name="Path 2179" d="M835.44,259.944s1.089-11.222,7.573-17.189a17.1,17.1,0,0,0,5.287-9.423,28.648,28.648,0,0,0,.472-5.232" transform="translate(-708.165 -200.386)" fill="none" stroke="#535461" stroke-width="2"/>
    <path id="Path_2180" data-name="Path 2180" d="M918.235,188.078c-.49,1.229-4.159,3.9-4.159,3.9s-.788-4.462-.293-5.691a2.4,2.4,0,1,1,4.452,1.8Z" transform="translate(-773.563 -164.15)" fill="#6c63ff"/>
    <path id="Path_2181" data-name="Path 2181" d="M918.868,233.127c-1.084.762-5.608,1.012-5.608,1.012s1.762-4.175,2.846-4.937a2.4,2.4,0,1,1,2.761,3.924Z" transform="translate(-773.262 -200.907)" fill="#6c63ff"/>
    <path id="Path_2182" data-name="Path 2182" d="M890.513,301.9c-1.321.111-5.353-1.962-5.353-1.962s3.629-2.714,4.95-2.825a2.4,2.4,0,0,1,.4,4.784Z" transform="translate(-749.756 -258.112)" fill="#6c63ff"/>
    <path id="Path_2183" data-name="Path 2183" d="M854.706,350.76c-1.283.327-5.606-1.025-5.606-1.025s3.118-3.288,4.4-3.621a2.4,2.4,0,0,1,1.2,4.646Z" transform="translate(-719.592 -299.041)" fill="#6c63ff"/>
    <path id="Path_2184" data-name="Path 2184" d="M883.152,234.821c.536,1.211,4.287,3.76,4.287,3.76s.638-4.486.1-5.7a2.4,2.4,0,0,0-4.388,1.942Z" transform="translate(-747.923 -203.236)" fill="#6c63ff"/>
    <path id="Path_2185" data-name="Path 2185" d="M841.4,288.618c.875,1,5.214,2.3,5.214,2.3s-.732-4.471-1.607-5.467a2.4,2.4,0,1,0-3.607,3.167Z" transform="translate(-712.649 -247.678)" fill="#6c63ff"/>
    <path id="Path_2186" data-name="Path 2186" d="M811.969,351.523c.693,1.128,4.749,3.147,4.749,3.147s.034-4.53-.654-5.66a2.4,2.4,0,0,0-4.087,2.513Z" transform="translate(-688.271 -300.623)" fill="#6c63ff"/>
    <path id="Path_2187" data-name="Path 2187" d="M784.44,138.695c.271-1,.6-2,.827-3C784.993,136.7,784.664,137.7,784.44,138.695Z" transform="translate(-665.503 -123.084)" fill="url(#linear-gradient)"/>
    <path id="Path_2188" data-name="Path 2188" d="M335.941,83.861c-.023-.039-.039-.078-.057-.114h0c0-.016-.016-.029-.023-.046a1.025,1.025,0,0,1-.109.044c-.072.028-.146.054-.221.075s-.106.033-.163.046a.951.951,0,0,1-.146.038l.013.029c.061-.013.119-.025.18-.041l.016.2c.069,0,.132-.01.195-.01a.8.8,0,0,1,.088,0h.327C336.006,84.011,335.97,83.935,335.941,83.861Zm33.188,52.828c-.768-1.035-2.3-12.142-2.3-12.142s-3.016-7.9-2.194-11.05-2.246-11.217-2.246-11.217-2.027-.881-2.137-2.189c0,0-8.277-2.616-8.665-4.578-.314-1.609-5.447-2.763-7.292-3.128-.562-2.269-1.128-4.386-1.545-5.542-.113-.36-.219-.67-.317-.916-.7-1.8-2.882-1.962-4.462-1.818a2.433,2.433,0,0,0-.374-.855.47.47,0,0,0-.149-.227.874.874,0,0,0-.108-.078.518.518,0,0,0-.111-.141.785.785,0,0,0-.147-.1.979.979,0,0,0-.118-.054,1.57,1.57,0,0,0-.293-.08,2.409,2.409,0,0,0-.353-.046,2.151,2.151,0,0,0,.754-.551,1.571,1.571,0,0,0,.309-.569,1.674,1.674,0,0,0,.069-.536,1.387,1.387,0,0,1-.147.211,6.045,6.045,0,0,0-.533-2.181,6.452,6.452,0,0,1-.144-2.886h0c.219-1.449.762-2.913,1.13-4.388a.11.11,0,0,0,0-.025,11.4,11.4,0,0,0,.356-2.238,9.876,9.876,0,0,0-.955-4.437,5.344,5.344,0,0,0-2.639-2.943,9.462,9.462,0,0,0-2.99-.379,25.927,25.927,0,0,1-6.562-1.658,17.863,17.863,0,0,0-6.62-1.254,6.662,6.662,0,0,0-5.619,3.217,20.162,20.162,0,0,1-.906,1.906c-.732,1.107-2.044,1.661-3.137,2.425a6.2,6.2,0,0,0-2.452,3.141,4.19,4.19,0,0,0-.088,2.15h0a3.854,3.854,0,0,0,.137.474,3.361,3.361,0,0,0,.711,1.162,3.468,3.468,0,0,0,.808.626h0a4.753,4.753,0,0,0,1.193.464c-.015.049-.029.1-.046.152-.026.083-.049.163-.074.253-.054.2-.1.405-.147.611a.191.191,0,0,0,0,.044,13.353,13.353,0,0,0-.3,2.83,13.067,13.067,0,0,0,.069,1.347h0A13.627,13.627,0,0,0,321.39,91.7c.232.011.466.018.7.018h.327c.106.141.211.284.311.425s.191.284.278.425l-.237-.245h0l-.237-.217a1.927,1.927,0,0,1-.214.247,3.978,3.978,0,0,0-.472-.134h0a6.058,6.058,0,0,0-3.072.2,13.435,13.435,0,0,0-4.568,2.608l-8.716,5.232-4.715,2.868-1.7,4.153s-1.277,4.934-2.7,10.588c-.056.016-.11.033-.164.052a3.055,3.055,0,0,0-.347-.02,3.186,3.186,0,0,0-3.191,3.059c-2.825,3.433-2.985,6.867-2.322,8.443h0a2.249,2.249,0,0,0,.226.42,39.691,39.691,0,0,1,2.071,3.971c-.021.142-.034.262-.041.352a.852.852,0,0,0,0,.088s.49,7.408-1.144,9.531a1.645,1.645,0,0,0,0,1.744h0c1.1,2.423,5.426,5.658,5.426,5.658s5.194-.028,8.088-.343c-.008.291-.015.58-.021.863-.065,2.858-.065,5.253-.065,5.253l-.108,3s-.981,6.316-1.471,8.057c-.309,1.092.047,11.2.358,18.638h51.175c.6-4.4-.247-17.76-.247-17.76a35.1,35.1,0,0,1-.835-6.466.025.025,0,0,1,0-.021c0-.263,0-.52.01-.772l.371-.013.667-.023h.06s.016-.062.054-.163h0a3.125,3.125,0,0,1,.358-.714,1.772,1.772,0,0,1,1.4-.86,3.786,3.786,0,0,0,1.588-.755h.013c1.738-1.175,4.035-3.345,4.592-3.7.767-.49,4.439-3.76,4.439-3.76s.548-.693,1.131-1.529l.021-.029c.726-1.046,1.5-2.3,1.308-2.691a4.806,4.806,0,0,1,.219-2.4C371.7,141.86,369.9,137.724,369.129,136.689ZM337.515,86.4a.655.655,0,0,1,.029.15c-.041-.054-.082-.111-.123-.163l-.039-.052-.028-.039.062-.085v.011h0a.567.567,0,0,1,.1.178Zm-.549-1.449c-.178.036-.319.069-.41.093-.116-.206-.227-.412-.327-.621A4.739,4.739,0,0,1,336.966,84.955Zm-.307.258a.033.033,0,0,1,0-.01l.013.01h0c.067.044.132.087.193.131h0c.054.039.1.077.152.116a1.566,1.566,0,0,1-.1.163c-.057-.09-.111-.177-.164-.266A.588.588,0,0,1,336.659,85.213Zm-.981-2.017a4.837,4.837,0,0,1,.95,0h0a.72.72,0,0,1,.123.015h0a1.36,1.36,0,0,1,.26.067,1.9,1.9,0,0,1,.345.917l-.088.013-.087.016c-.164.028-.327.056-.455.082l-.164.034c-.217.047-.343.083-.348.085-.021-.044-.042-.085-.065-.128-.036-.07-.074-.142-.106-.213s-.075-.15-.11-.224c-.023-.039-.039-.078-.057-.114h0c0-.016-.016-.029-.023-.046a.4.4,0,0,1-.025-.054c-.1-.2-.191-.405-.28-.6-.01-.02-.018-.041-.026-.06l.124-.008v.043ZM296.671,184.614a40.559,40.559,0,0,0-.68-7.54c-.209-1.051-.425-2.1-.644-3.136-.056-.258-.109-.513-.163-.768l-.5.067h-.046c-1.373-6.476-2.809-12.182-2.809-12.182s-2.851-10.887-2.521-11.755a2.1,2.1,0,0,0-.132-.863c-.69-2.475-3.571-9.3-4.578-11.627h0a.091.091,0,0,0-.011-.029h0c-.163-.391-.281-.654-.317-.731l.237-3.479.013-.209.031-.445-.013-.011.013-.206a23.852,23.852,0,0,0-6.7-3.513c-.163-.059-.337-.116-.508-.172.211-1.408.49-3,.855-4.545.034-.155.072-.306.111-.458h0c.034-.152.074-.3.113-.448.062-.242.129-.481.2-.716.227-.072.451-.152.672-.237l.085-.033a12.065,12.065,0,0,0,7.357-14.06h0a12,12,0,0,0-2.106-4.439h0c-.075-.1-.155-.2-.235-.3s-.177-.211-.266-.312a9.382,9.382,0,0,0,1.076-3.141,3.219,3.219,0,0,0,0-.4h0V98.91a3.358,3.358,0,0,0-1.051-2.066,7.028,7.028,0,0,0-3.893-1.834c-1.44-.255-2.908-.262-4.357-.433-2.4-.288-4.741-1.028-7.143-1.256a16.972,16.972,0,0,0-8.637,1.471c-1.787.817-3.6,2.246-3.7,4.207-.088,1.62,1.04,3.173.755,4.774-.283,1.573-1.885,2.81-1.744,4.4a3.159,3.159,0,0,0,.772,1.672h0c.137.163.283.327.433.49a7.075,7.075,0,0,1,1.548,1.985c.013.033.026.065.038.1a1.844,1.844,0,0,1-.531,2.176.024.024,0,0,1,.008.011h0c.01.013.02.023.028.036a.011.011,0,0,0,0-.008,1.789,1.789,0,0,0,.934.582l.139.043c-.113.123-.219.25-.327.384l-.07.093a6.806,6.806,0,0,0-.49.76c-.083.147-.163.294-.231.441a5.546,5.546,0,0,0-.482,1.417c-.175,1.082.072,2.21-.193,3.27-.327,1.308-1.362,2.312-1.946,3.526-1.105,2.289-.479,4.975-.257,7.5a44.971,44.971,0,0,1-.677,10.292q-.389,2.72-.778,5.446l-1.962,13.681a8.932,8.932,0,0,1-1.635,4.723h.011a.014.014,0,0,1-.011.013,3.417,3.417,0,0,0,1.053.271h0a7.539,7.539,0,0,0,4.3-1.326,20.328,20.328,0,0,0,2.931-2.058q-.2.736-.432,1.6a.081.081,0,0,1,0,.016h0c-1.846,7.03-4.815,19.918-4.815,19.918s-.27.561-.62,1.4h46.1c-.54-.654-1.041-1.28-1.434-1.785Zm-34.136-65c.011-.02.02-.038.031-.056v.355h0a1.207,1.207,0,0,1-.026.2v.015l.164.061.19.078h0q1.681.664,3.4,1.2c.118.038.237.074.356.108l.025.2c.029.208.057.419.083.629v.016c.074.584.146,1.166.209,1.735,0,0-3-1.144-2.964.593a.848.848,0,0,0,0,.093.782.782,0,0,0,0,.124,8.663,8.663,0,0,0,.536,2.568.116.116,0,0,1-.026.046.894.894,0,0,0-.072.505,4.965,4.965,0,0,0,.069.873c-.088.054-.175.108-.262.163h0c-.065.041-.128.087-.191.132a24.28,24.28,0,0,0-1.568-4.041,6.855,6.855,0,0,1-.95-2.905,1.646,1.646,0,0,1,.008-.2,3.434,3.434,0,0,1,.167-.865c.038-.106.078-.211.124-.314a7.7,7.7,0,0,1,.358-.716h0c.085-.154.175-.306.262-.459.028-.046.054-.093.08-.139Zm73.406-35.75c-.023-.039-.039-.078-.057-.114h0c0-.016-.016-.029-.023-.046a1.025,1.025,0,0,1-.109.044c-.072.028-.146.054-.221.075s-.106.033-.163.046l-.146.038.013.029c.061-.013.119-.025.18-.041l.016.2c.069,0,.132-.01.195-.01h.415C336.006,84.011,335.97,83.935,335.941,83.861Z" transform="translate(-218.22 -58.66)" fill="url(#linear-gradient-2)"/>
    <path id="Path_2189" data-name="Path 2189" d="M520.765,355.16l-.981.433s-6.394,24.84-6.394,26.848,13.558,13.179,13.558,13.179l2.116-14.279S526.026,348.6,520.765,355.16Z" transform="translate(-438.767 -305.946)" fill="#e8f5ff"/>
    <path id="Path_2190" data-name="Path 2190" d="M683.763,211.752,678.1,208.8a11.345,11.345,0,0,0-1.661-3.785,8.432,8.432,0,0,0-3.3-2.985c-3.471-1.556,14.681-9.726,14.681-9.726a29.533,29.533,0,0,0,1.009,2.894c.935,2.308,2.487,5.294,4.486,6.144C696.708,202.785,683.763,211.752,683.763,211.752Z" transform="translate(-572.024 -170.439)" fill="#ffc1c7"/>
    <path id="Path_2191" data-name="Path 2191" d="M688.823,195.194a13.534,13.534,0,0,1-12.386,9.817,8.432,8.432,0,0,0-3.3-2.985c-3.471-1.556,14.681-9.726,14.681-9.726a29.519,29.519,0,0,0,1.009,2.894Z" transform="translate(-572.024 -170.439)" opacity="0.1"/>
    <path id="Path_2192" data-name="Path 2192" d="M636.071,115.581a13.462,13.462,0,1,1-3.943-9.58A13.526,13.526,0,0,1,636.071,115.581Z" transform="translate(-518.762 -94.952)" fill="#ffc1c7"/>
    <path id="Path_2193" data-name="Path 2193" d="M625.134,229.419l-3.688,8.606-3.253,5.712H607.778l-3.038-7.81,1.231-8.1h7.954l5.135-.289,1.735-.579,1.118.634Z" transform="translate(-505.873 -189.842)" fill="#575a89"/>
    <path id="Path_2194" data-name="Path 2194" d="M732.977,230.459s2.3.49.24,2.179-9.167,7.059-9.167,7.059,2.5,2.223,1.98,4.828l8.271-4.61,1.471-7.377S735.937,230.321,732.977,230.459Z" transform="translate(-614.986 -202.354)" opacity="0.1"/>
    <path id="Path_2195" data-name="Path 2195" d="M698.666,287l-5.261.868s1.086,4.014.543,5.153a.762.762,0,0,0-.041.11l-2.147,5.8,1.609,4.556,5.568-7.594-1.9-2.874a26.459,26.459,0,0,1,3.2-3.58C701.432,288.519,698.666,287,698.666,287Z" transform="translate(-587.975 -249.657)" opacity="0.1"/>
    <path id="Path_2196" data-name="Path 2196" d="M698.666,285.63l-5.261.867s1.086,4.014.543,5.153a.761.761,0,0,0-.041.11l-2.147,5.8,1.609,4.556,5.568-7.6-1.9-2.874a26.457,26.457,0,0,1,3.2-3.58C701.432,287.142,698.666,285.63,698.666,285.63Z" transform="translate(-587.975 -248.511)" fill="#dce6f2"/>
    <path id="Path_2197" data-name="Path 2197" d="M733.2,227.809s2.3.49.239,2.179-9.386,7.493-9.386,7.493,2.712,1.79,2.2,4.393l8.271-4.609,1.471-7.377S736.153,227.671,733.2,227.809Z" transform="translate(-614.986 -200.137)" fill="#575a89"/>
    <path id="Path_2198" data-name="Path 2198" d="M666.75,273.18a10.357,10.357,0,0,0,2.717,2.631s-3.688,1.962-2.277,4.72l-5.642-1.471-.868-2.712Z" transform="translate(-561.976 -238.096)" opacity="0.1"/>
    <path id="Path_2199" data-name="Path 2199" d="M665.429,271.86a10.356,10.356,0,0,0,2.717,2.631s-3.688,1.952-2.277,4.718l-5.64-1.471-.868-2.711Z" transform="translate(-560.872 -236.992)" fill="#575a89"/>
    <path id="Path_2200" data-name="Path 2200" d="M682.074,291.325l-3.688,8.606-3.247,5.712H664.718l-3.038-7.81,1.229-8.1h2.212c-.036,1.89.654,4.11.61,4.936-.075,1.357,2.024,8.678,2.024,8.678s4.393-7.105,6.128-7.738c1.09-.4,3.4-3.7,4.968-6.11Z" transform="translate(-562.813 -251.748)" opacity="0.1"/>
    <path id="Path_2201" data-name="Path 2201" d="M605.331,320.082l-.374.471s2.712,13.614,1.962,16.705a8.786,8.786,0,0,0-.217,1.7v.025a32.73,32.73,0,0,0,.818,7.228s.759,12.033.327,16.982H557.063c-.3-7.318-.618-16.8-.327-17.85.49-1.735,1.471-8.027,1.471-8.027l.108-2.982s0-2.882.088-6.093c.038-1.444.093-2.959.173-4.3a22.722,22.722,0,0,1,.445-3.814,8.413,8.413,0,0,0,.209-1.615.839.839,0,0,1,.01-.155c0-.163.016-.34.023-.522v-.163c.031-1.053.02-2.3-.015-3.6v-.214c-.028-.971-.069-1.962-.115-2.9-.142-2.943-.327-5.431-.327-5.431l-6.237-20.665,1.681-4.14,4.664-2.858,8.624-5.207c4.207-3.458,6.976-3.043,8.032-2.663a2.789,2.789,0,0,1,.3.123c.033.016.059.029.083.044a.688.688,0,0,1,.1.056h0a1.991,1.991,0,0,0-.732.6,2.669,2.669,0,0,0-.453.981,4.571,4.571,0,0,0-.116.669c-.021.237-.029.482-.029.729a12.661,12.661,0,0,0,.139,1.617v.036c.054.383.121.757.186,1.108a.074.074,0,0,0,0,.018c.075.41.15.79.2,1.117.01.059.018.113.026.164a3.737,3.737,0,0,1,.051.654,7.95,7.95,0,0,0,.213,1.57c.043.216.092.446.146.687.074.327.154.683.24,1.046.047.2.1.405.15.61.02.082.041.163.06.247l.033.129c.348,1.385.726,2.763.958,3.6.137.49.224.793.224.793a61.032,61.032,0,0,1,4.427-6.247c.029-.033.056-.064.083-.093.195-.224.386-.428.569-.608a3.36,3.36,0,0,1,1.05-.788,1.146,1.146,0,0,0,.178-.083,15.968,15.968,0,0,0,3.317-3.847c.119-.163.235-.342.353-.51.27-.389.531-.78.778-1.154.19-.286.371-.564.543-.829.818-1.272,1.393-2.22,1.393-2.22l1.135-.051.2-.01h.132l5.152-.239s.222.038.589.111a.1.1,0,0,1,.06.013c1.828.363,6.906,1.512,7.216,3.106.379,1.952,8.57,4.556,8.57,4.556.108,1.308,2.114,2.169,2.114,2.169s3.038,8.027,2.225,11.173c-.8,3.106,2.089,10.79,2.166,11.006h0l-.554.7Z" transform="translate(-471.541 -235.217)" fill="#e8f5ff"/>
    <path id="Path_2202" data-name="Path 2202" d="M743.414,225.233s5.014-1.422,6.154,1.506,3.688,14.753,3.688,14.753-6.618,1.247-8.353,0a5,5,0,0,0-3.526-.922l-3.742,2.549-1.105-.327s5.987-8.9,7.288-11.925S745.559,226.49,743.414,225.233Z" transform="translate(-625.426 -197.699)" opacity="0.1"/>
    <path id="Path_2203" data-name="Path 2203" d="M742.118,221.233s5.018-1.422,6.162,1.506,3.688,14.753,3.688,14.753-6.616,1.247-8.353,0a4.993,4.993,0,0,0-3.525-.922l-3.745,2.549-1.105-.327s5.987-8.9,7.288-11.925S744.263,222.493,742.118,221.233Z" transform="translate(-624.347 -194.353)" fill="#e8f5ff"/>
    <path id="Path_2204" data-name="Path 2204" d="M571.141,511.55s3.742.922,4.448,3.038-2.766,2.169-2.766,2.169S570.708,513.015,571.141,511.55Z" transform="translate(-487.027 -437.495)" opacity="0.1"/>
    <path id="Path_2205" data-name="Path 2205" d="M619.008,607.09s-9.165,18.767-7.05,20.557S619.008,607.09,619.008,607.09Z" transform="translate(-520.955 -517.416)" opacity="0.1"/>
    <path id="Path_2206" data-name="Path 2206" d="M734,522.5s7.323,18.229,5.858,21.044,3.146,0,3.146,0Z" transform="translate(-623.309 -446.655)" opacity="0.1"/>
    <path id="Path_2207" data-name="Path 2207" d="M699.988,632.64s-24.733,1.193-17.518,8.9,22.02.327,22.02.327Z" transform="translate(-579.101 -538.789)" fill="#ffc1c7"/>
    <path id="Path_2208" data-name="Path 2208" d="M638.388,115.59a13.462,13.462,0,0,1-1.025,5.17c-.227.026-.454.043-.674.052a5.475,5.475,0,0,1-.146-2.336c.006-.79-.284-1.718-1.045-1.931-1.516-.427-2.562,2.407-4.056,1.895-1.144-.389-.845-2.125-1.5-3.128-.522-.793-1.566-1.017-2.379-1.514-1.728-1.061-1.676-2.758-2.478-4.364-.84-1.682-2.616-1.185-4.157-.193a33.591,33.591,0,0,1-3.433,2.369,8.493,8.493,0,0,1-3.5.741,7.7,7.7,0,0,1-2.2-.232,13.525,13.525,0,0,1,26.6,3.471Z" transform="translate(-521.079 -94.961)" opacity="0.1"/>
    <path id="Path_2209" data-name="Path 2209" d="M606.618,78.723a34.294,34.294,0,0,1-3.433,2.371,8.517,8.517,0,0,1-3.5.739,5.326,5.326,0,0,1-4.061-1.288,3.918,3.918,0,0,1-.754-3.777,6.134,6.134,0,0,1,2.428-3.128c1.1-.773,2.377-1.308,3.106-2.415a19.528,19.528,0,0,0,.893-1.9,6.62,6.62,0,0,1,5.559-3.206,17.476,17.476,0,0,1,6.559,1.249,25.888,25.888,0,0,0,6.5,1.659,9.269,9.269,0,0,1,2.959.378,5.376,5.376,0,0,1,2.616,2.943,9.839,9.839,0,0,1,.945,4.414c-.137,3.232-2.273,6.4-1.334,9.5a4.494,4.494,0,0,1,.466,2.5c-.363,1.2-1.918,1.48-3.175,1.537a5.479,5.479,0,0,1-.146-2.336c.007-.788-.284-1.718-1.043-1.931-1.517-.423-2.564,2.4-4.055,1.895-1.136-.391-.842-2.125-1.5-3.128-.522-.795-1.568-1.017-2.379-1.514-1.728-1.061-1.676-2.758-2.478-4.364C609.939,77.232,608.161,77.729,606.618,78.723Z" transform="translate(-506.768 -64.874)" fill="#99607e"/>
    <path id="Path_2210" data-name="Path 2210" d="M507.5,511.59l-1.247.435s.49,7.377-1.144,9.492,5.369,7.375,5.369,7.375,9.6-.054,9.871-.817-.49-13.668-.49-13.668-5.153-2.008-4.72-5.207c0,0-1.573,7.539-3.9,7.213S506.252,514.141,507.5,511.59Z" transform="translate(-431.628 -435.53)" fill="#e8f5ff"/>
    <ellipse id="Ellipse_194" data-name="Ellipse 194" cx="3.291" cy="3.01" rx="3.291" ry="3.01" transform="translate(76.737 77.146)" opacity="0.1"/>
    <path id="Path_2211" data-name="Path 2211" d="M509.325,442.475s-.654-19.959-6.347-15.512-5.748,9.765-4.664,11.336,4.56,9.437,4.56,9.437h0a3.978,3.978,0,0,0,5.886-2.616Z" transform="translate(-425.698 -366.197)" fill="#ffc1c7"/>
    <path id="Path_2212" data-name="Path 2212" d="M559.294,213.253a.481.481,0,0,0-.147-.226,2.539,2.539,0,0,0-1.8-.268l.038.432c1.216-.1,1.457.137,1.488.178v.041l.038.054a1.825,1.825,0,0,1,.327,1.439,4.739,4.739,0,0,1-1.919,2.4l-.039.023-.025.038c-.706,1.048-4.7,4.005-5.745,4.771l-.092-.1c-.468.405-4.578,4-4.8,5.382-.144.865-1.118,1.2-1.471,1.293a9.239,9.239,0,0,1-2.212-2.325c-.59-1.015,1.785-3,1.995-3.77l-.327-.335c-.034.124-3.085,2.975-2.237,4.432a9.7,9.7,0,0,0,2.357,2.5c-.139,1.262-1,8.673-2.333,10.429-1.651,2.183-3.039,13.182-2.886,17.022.136,3.412-.755,9.857-3.731,12.625a4.769,4.769,0,0,1-3.935,1.308h-.072a11.611,11.611,0,0,1-7.985-2.616c-2.967-2.5-4.648-6.571-5-12.113h-.072l-.029-1.614a3.147,3.147,0,1,0-.469.038h.036l.029,1.6-.144.01c.36,5.722,2.125,9.955,5.232,12.569a12.1,12.1,0,0,0,8.438,2.761,6.072,6.072,0,0,0,.654.036,5.363,5.363,0,0,0,3.76-1.512c3.134-2.918,4.087-9.6,3.938-13.128-.164-4.069,1.293-14.673,2.755-16.6,1.432-1.895,2.3-9.278,2.452-10.709a2.462,2.462,0,0,0,1.89-1.8c.144-.863,2.889-3.523,4.578-5l-.051-.059a63.633,63.633,0,0,0,5.137-4.1c.435-.417.867-.834,1.318-1.231a4.219,4.219,0,0,0,1.414-2.147A2.232,2.232,0,0,0,559.294,213.253Z" transform="translate(-440.156 -187.531)" opacity="0.1"/>
    <path id="Path_2213" data-name="Path 2213" d="M682.593,276.846a10.006,10.006,0,0,1-2.513-2.616c-.847-1.457,2.2-4.306,2.237-4.431l.327.335c-.208.772-2.583,2.755-1.993,3.768a9.5,9.5,0,0,0,2.326,2.411Z" transform="translate(-578.081 -235.269)" fill="#353146"/>
    <path id="Path_2214" data-name="Path 2214" d="M735.455,221.344l-.255-.352c.052-.038,5.188-3.752,6-4.954l.026-.036.038-.025a4.73,4.73,0,0,0,1.919-2.4,1.813,1.813,0,0,0-.327-1.437l-.038-.056v-.039c-.033-.042-.273-.283-1.489-.178l-.038-.433a2.536,2.536,0,0,1,1.8.268.49.49,0,0,1,.149.227,2.233,2.233,0,0,1,.369,1.735,4.2,4.2,0,0,1-1.414,2.147c-.45.4-.883.817-1.316,1.231A68.684,68.684,0,0,1,735.455,221.344Z" transform="translate(-624.313 -186.418)" fill="#e8f5ff"/>
    <rect id="Rectangle_548" data-name="Rectangle 548" width="0.433" height="2.634" transform="translate(77.883 66.161) rotate(-1.05)" fill="#e8f5ff"/>
    <circle id="Ellipse_195" data-name="Ellipse 195" cx="3.164" cy="3.164" r="3.164" transform="translate(74.684 60.225)" fill="#6c63ff"/>
    <circle id="Ellipse_196" data-name="Ellipse 196" cx="2.627" cy="2.627" r="2.627" transform="translate(75.22 60.761)" fill="#e8f5ff"/>
    <path id="Path_2215" data-name="Path 2215" d="M546.983,317.551a6.079,6.079,0,0,1-.654-.034,12.116,12.116,0,0,1-8.438-2.761c-3.106-2.616-4.869-6.844-5.232-12.571l.654-.041c.35,5.542,2.031,9.618,5,12.113a11.657,11.657,0,0,0,7.983,2.616h.072a4.779,4.779,0,0,0,3.937-1.308c2.974-2.768,3.865-9.213,3.729-12.625-.163-3.844,1.224-14.843,2.877-17.024,1.447-1.911,2.344-10.525,2.354-10.612l.025-.245.242-.043c.015,0,1.427-.268,1.6-1.324.229-1.377,4.332-4.975,4.8-5.382l.427.49c-1.7,1.471-4.44,4.133-4.578,5a2.454,2.454,0,0,1-1.888,1.8c-.164,1.432-1.025,8.814-2.452,10.708-1.462,1.931-2.918,12.535-2.755,16.6.141,3.528-.8,10.211-3.937,13.128A5.364,5.364,0,0,1,546.983,317.551Z" transform="translate(-454.886 -234.022)" fill="#353146"/>
    <g id="Group_120" data-name="Group 120" transform="translate(88.053 11.663)" opacity="0.1">
      <path id="Path_2216" data-name="Path 2216" d="M783,145.822c.268-.991.592-1.988.817-2.992C783.548,143.839,783.222,144.831,783,145.822Z" transform="translate(-752.352 -140.719)"/>
      <path id="Path_2217" data-name="Path 2217" d="M623.449,142.808a5.479,5.479,0,0,1-.146-2.336c.006-.788-.284-1.71-1.043-1.931-1.517-.423-2.564,2.407-4.055,1.895-1.144-.391-.842-2.125-1.5-3.128-.521-.795-1.566-1.017-2.377-1.514-1.73-1.061-1.677-2.758-2.478-4.364-.842-1.684-2.616-1.187-4.159-.193a34.043,34.043,0,0,1-3.433,2.371,8.518,8.518,0,0,1-3.5.739,5.33,5.33,0,0,1-4.061-1.288,3.8,3.8,0,0,1-.894-3.139c-.028.077-.052.154-.077.231a3.928,3.928,0,0,0,.754,3.777,5.337,5.337,0,0,0,4.061,1.288,8.526,8.526,0,0,0,3.505-.739,33.573,33.573,0,0,0,3.433-2.371c1.543-.994,3.319-1.491,4.159.193.8,1.605.75,3.3,2.478,4.364.817.49,1.856.719,2.379,1.514.654,1.005.365,2.737,1.5,3.128,1.489.51,2.536-2.318,4.053-1.895.759.213,1.051,1.144,1.043,1.931a5.506,5.506,0,0,0,.145,2.336c1.257-.057,2.812-.327,3.177-1.537a1.759,1.759,0,0,0,.069-.535C625.947,142.522,624.58,142.757,623.449,142.808Z" transform="translate(-595.536 -129.92)"/>
    </g>
    <path id="Path_2218" data-name="Path 2218" d="M809.084,360.917l1.9,2.008s1.519,11.063,2.277,12.1,2.55,5.152.868,8.243a4.8,4.8,0,0,0-.217,2.387c.325.7-2.439,4.231-2.439,4.231s-3.634,3.253-4.395,3.742-4.772,4.393-6.128,4.447-1.8,1.736-1.8,1.736l-7.648.271s-4.224-.221-5.143.376c0,0,.491-6.455-4.229-10.686l6.02-2.17a8.966,8.966,0,0,0,2.984-2.006,3.683,3.683,0,0,1,1.8-1.355s1.681-1.193,1.735-1.844,2.055-1.448,2.055-1.448l-1.133-9.67.6-16.055s1.9-13.452,5.912-12.692S809.084,360.917,809.084,360.917Z" transform="translate(-663.571 -296.083)" opacity="0.1"/>
    <path id="Path_2219" data-name="Path 2219" d="M813.084,360.917l1.9,2.008s1.519,11.063,2.277,12.1,2.55,5.152.868,8.243a4.8,4.8,0,0,0-.216,2.387c.325.7-2.441,4.231-2.441,4.231s-3.634,3.253-4.395,3.742-4.772,4.393-6.128,4.447-1.8,1.736-1.8,1.736l-7.648.271s-4.228-.221-5.143.376c0,0,.49-6.455-4.229-10.686l6.02-2.17a8.966,8.966,0,0,0,2.984-2.006,3.683,3.683,0,0,1,1.8-1.355s1.681-1.193,1.735-1.844,2.055-1.448,2.055-1.448l-1.133-9.67.6-16.055s1.9-13.452,5.912-12.692S813.084,360.917,813.084,360.917Z" transform="translate(-666.917 -296.083)" fill="#e8f5ff"/>
    <path id="Path_2220" data-name="Path 2220" d="M907.84,551.45s5.586-1.471,7.051.327S907.84,551.45,907.84,551.45Z" transform="translate(-768.729 -470.398)" opacity="0.1"/>
    <path id="Path_2221" data-name="Path 2221" d="M899.88,569.44c1.9,1.329,7.756,1.383,7.756,1.383Z" transform="translate(-762.07 -485.921)" opacity="0.1"/>
    <path id="Path_2222" data-name="Path 2222" d="M917.46,610.08c.163.054,4.027,4.177,5.648,2.93S917.46,610.08,917.46,610.08Z" transform="translate(-776.776 -519.917)" opacity="0.1"/>
    <path id="Path_2223" data-name="Path 2223" d="M599.22,398.42s1.135,7.811.576,10.993,1.481,7.123,1.481,7.123Z" transform="translate(-510.564 -342.861)" opacity="0.1"/>
    <path id="Path_2224" data-name="Path 2224" d="M366.212,410.242c-1.308,1.025-2.263,3.451-2.954,6.118a65.815,65.815,0,0,0-1.6,10.045s-10.414-2.387-9.656-3.471c.477-.682-.164-5.819-.7-9.543-.319-2.2-.6-3.909-.6-3.909S369.792,407.42,366.212,410.242Z" transform="translate(-302.674 -351.506)" fill="#ffccd0"/>
    <path id="Path_2225" data-name="Path 2225" d="M366.212,408.916c-1.308,1.027-2.263,3.451-2.954,6.118a12.016,12.016,0,0,1-11.954-2.967c-.319-2.2-.6-3.911-.6-3.911S369.792,406.1,366.212,408.916Z" transform="translate(-302.674 -350.397)" opacity="0.1"/>
    <path id="Path_2226" data-name="Path 2226" d="M356.543,319.165a12.046,12.046,0,1,1-2.65-7.534A12.046,12.046,0,0,1,356.543,319.165Z" transform="translate(-287.408 -266.49)" fill="#ffccd0"/>
    <path id="Path_2227" data-name="Path 2227" d="M517.305,776.376h-3.433l-.289-6.064-.3-6.276s.78-.116,2.022-.289l.5-.067h.041c.271,1.274.54,2.582.8,3.888a39.937,39.937,0,0,1,.669,7.03v.481C517.321,775.515,517.312,775.951,517.305,776.376Z" transform="translate(-438.675 -648.405)" opacity="0.1"/>
    <path id="Path_2228" data-name="Path 2228" d="M313.566,546.593H270.51c.186-.423.311-.68.311-.68s3.445-15.07,5.2-21.446a.081.081,0,0,0,0-.016,25.515,25.515,0,0,1,.791-2.559h0a.876.876,0,0,1,.077-.163c.866-1.409,1.952-2.928.433-5.1s-.981-11.716-.981-11.716,1.844-8.137,3.8-12.476a5.837,5.837,0,0,1,1.239-1.8,5.07,5.07,0,0,1,.543-.461h0a4.779,4.779,0,0,1,.454-.3l.031-.02a6.559,6.559,0,0,1,2.67-.829,7.616,7.616,0,0,1,2,.056,29.892,29.892,0,0,1,7.713,2.125c5.459,2.4,7.112,5.613,7.144,5.68h0l.013.028c.219.512,3.423,7.993,4.578,11.483a4.894,4.894,0,0,1,.4,1.723c-.327.866,2.495,11.714,2.495,11.714s1.308,5.232,2.616,11.364c.057.255.111.51.164.768.234,1.113.466,2.248.69,3.381a39.743,39.743,0,0,1,.669,7.079Q313.588,545.54,313.566,546.593Z" transform="translate(-235.595 -418.622)" fill="#ff748e"/>
    <path id="Path_2229" data-name="Path 2229" d="M342.983,464.527s-2.971-1.144-2.935.592.724,2.567.507,2.82.108,1.772.108,1.772,4.014,0,5.858.831,8.642,2.495,9.51,3,4.087,2.779,4.087,2.779l.289-4.3a24.549,24.549,0,0,0-8.786-4.158A35.038,35.038,0,0,1,342.983,464.527Z" transform="translate(-293.764 -397.85)" opacity="0.1"/>
    <path id="Path_2230" data-name="Path 2230" d="M342.983,463.2s-2.971-1.144-2.935.592.724,2.567.507,2.82.108,1.772.108,1.772,4.014,0,5.858.832,8.642,2.495,9.51,3,4.087,2.779,4.087,2.779l.293-4.29a24.548,24.548,0,0,0-8.786-4.157A34.764,34.764,0,0,1,342.983,463.2Z" transform="translate(-293.764 -396.738)" fill="#ff748e"/>
    <path id="Path_2231" data-name="Path 2231" d="M412.85,528.43s5.676,6.146,5.387,7.847S412.85,528.43,412.85,528.43Z" transform="translate(-354.664 -451.616)" opacity="0.1"/>
    <path id="Path_2232" data-name="Path 2232" d="M434.17,741.85s-2.205,4.484-1.012,4.2S434.17,741.85,434.17,741.85Z" transform="translate(-371.355 -630.144)" fill="none"/>
    <path id="Path_2233" data-name="Path 2233" d="M327.034,664.22s-4.161,3.834-5.387,4.051.94.94,2.349.363,4.414-2.1,4.414-2.1Z" transform="translate(-278.068 -565.206)" opacity="0.1"/>
    <path id="Path_2234" data-name="Path 2234" d="M458.058,774.4h-9.7c-1.357-1.177-2.64-2.268-3.458-2.923a11.285,11.285,0,0,1-2.853-3.837c-.136-.283-.253-.548-.353-.788a13.143,13.143,0,0,1-.471-1.267l7.185-4.267a11.235,11.235,0,0,1,1.117,1.092l.087.1a2.95,2.95,0,0,1,.782,1.444c.036.51,1.455,2.483,2.905,4.378,1.471,1.928,2.979,3.77,3.078,3.894h0s.249.339.654.858C457.314,773.462,457.667,773.914,458.058,774.4Z" transform="translate(-378.395 -646.431)" fill="#ffccd0"/>
    <path id="Path_2235" data-name="Path 2235" d="M353.924,311.663a7.008,7.008,0,0,0-.7,2.452c-.129,2.5.08,8.094-2.689,9.35-1.372.618-2.84-.739-4.344-.772a3.531,3.531,0,0,0-2.735,1.522,16.469,16.469,0,0,0-1.55,2.848,19.454,19.454,0,0,1-1.5,2.534,6.372,6.372,0,0,1-.556.7,12.043,12.043,0,1,1,14.076-18.63Z" transform="translate(-287.439 -266.521)" opacity="0.1"/>
    <path id="Path_2236" data-name="Path 2236" d="M287.36,288.129c-.131,2.5.08,8.094-2.691,9.348-1.372.618-2.84-.737-4.344-.77a3.532,3.532,0,0,0-2.735,1.52,16.363,16.363,0,0,0-1.55,2.85,19.491,19.491,0,0,1-1.5,2.534,3.679,3.679,0,0,1-1.228,1.225,3.946,3.946,0,0,1-2.964-.1q-1.883-.593-3.711-1.337a3.745,3.745,0,0,0,.043-.556c-.036.069-.075.132-.114.2l-.077.134c-.139.245-.275.49-.4.742-.047.1-.093.2-.134.3a3.759,3.759,0,0,0-.306,1.171,6.272,6.272,0,0,0,.932,3.106c1.836,3.795,2.971,8.232,1.589,12.213-.6,1.731-1.635,3.27-2.392,4.942a15.968,15.968,0,0,0-1.117,9.446c.378,1.981,1.135,3.943.948,5.953-.327,3.458-3.309,6.031-6.3,7.8-1.614.952-3.589,1.8-5.3,1.046a8.97,8.97,0,0,0,1.609-4.7q.966-6.809,1.937-13.625.387-2.712.773-5.425A45.171,45.171,0,0,0,259,315.893c-.219-2.519-.837-5.194.255-7.475.577-1.208,1.605-2.209,1.926-3.51.263-1.058.018-2.183.191-3.26a5.55,5.55,0,0,1,.477-1.413,6.939,6.939,0,0,1,1.1-1.671,1.871,1.871,0,0,1-1.1-.669,1.877,1.877,0,0,0,.491-2.264,6.96,6.96,0,0,0-1.53-1.977,3.817,3.817,0,0,1-1.2-2.158c-.139-1.587,1.447-2.817,1.726-4.383.283-1.594-.835-3.144-.746-4.758.1-1.95,1.9-3.368,3.665-4.19a16.675,16.675,0,0,1,8.547-1.471c2.384.226,4.69.963,7.068,1.249,1.434.163,2.887.18,4.311.432a6.926,6.926,0,0,1,3.853,1.828C290.676,282.958,287.51,285.225,287.36,288.129Z" transform="translate(-221.792 -240.976)" fill="#ffe0d0"/>
    <path id="Path_2237" data-name="Path 2237" d="M344.173,587.3c-.834-.361-2.351-.145-4.955-.938s-3.106-4.377-3.106-4.377v-.011h0A12,12,0,0,0,334.2,579.5c-1.81-2.062-5.722-12.474-5.722-12.474s-3.469-3.726-3.36-5.1-.616-5.027-.544-9.114,7.81-6.8,7.81-6.8c14.9-2.64,11.39,14.536,10.993,15.837s1.664,4.816,1.664,4.816c-.291,1.53,1.193,3.9,1.193,3.9s.36,2.1.433,2.892a.491.491,0,0,0,.025.108c.239.75,2.184,1.431,2.975,1.844.832.435,3.508,4.231,3.508,4.231C353.754,582.426,345,587.671,344.173,587.3Z" transform="translate(-280.816 -466.091)" opacity="0.1"/>
    <path id="Path_2238" data-name="Path 2238" d="M346.832,583.346c-.832-.363-2.351-.146-4.954-.94s-3.106-4.375-3.106-4.375v-.011h0a11.852,11.852,0,0,0-1.911-2.482c-1.81-2.062-5.722-12.476-5.722-12.476s-3.469-3.724-3.361-5.1-.615-5.027-.543-9.111,7.8-6.793,7.8-6.793c14.9-2.64,11.39,14.536,10.993,15.837s1.664,4.816,1.664,4.816c-.291,1.53,1.193,3.9,1.193,3.9s.36,2.1.435,2.892a.412.412,0,0,0,.023.108c.239.75,2.184,1.431,2.977,1.844.831.433,3.508,4.231,3.508,4.231C356.414,578.471,347.664,583.716,346.832,583.346Z" transform="translate(-283.041 -462.787)" fill="#ff748e"/>
    <path id="Path_2239" data-name="Path 2239" d="M376.8,598.32s6.508,6.867,8.207,6.867S376.8,598.32,376.8,598.32Z" transform="translate(-324.507 -510.079)" opacity="0.1"/>
    <path id="Path_2240" data-name="Path 2240" d="M405.89,725.7c-.832-.363-2.351-.146-4.954-.94s-3.106-4.375-3.106-4.375v-.011h0c1.725-1.144,6.093-4.377,7.815-5.559a12.058,12.058,0,0,0,2.779-2.854c.239.75,2.184,1.431,2.977,1.844.831.433,3.508,4.231,3.508,4.231C415.472,720.824,406.722,726.069,405.89,725.7Z" transform="translate(-342.099 -605.141)" fill="#ff748e"/>
    <g id="Group_121" data-name="Group 121" transform="translate(32.218 38.789)" opacity="0.1">
      <path id="Path_2241" data-name="Path 2241" d="M302,406.105c.008.013.02.025.029.038.049-.062.1-.124.152-.183A1.221,1.221,0,0,1,302,406.105Z" transform="translate(-294.154 -387.957)"/>
      <path id="Path_2242" data-name="Path 2242" d="M265.649,435.24a6.167,6.167,0,0,1,1.009-2.5c-.3-.114-.6-.231-.889-.352a3.708,3.708,0,0,0,.043-.554,6.354,6.354,0,0,0-1.03,2.542,6.266,6.266,0,0,0,.932,3.106c1.838,3.793,2.971,8.23,1.589,12.213-.6,1.73-1.635,3.27-2.392,4.942a15.962,15.962,0,0,0-1.115,9.445c.374,1.983,1.133,3.943.947,5.953-.327,3.458-3.307,6.031-6.3,7.8a7.831,7.831,0,0,1-4.014,1.337,4.943,4.943,0,0,1-.422.58c1.715.757,3.688-.095,5.3-1.05,2.99-1.766,5.977-4.333,6.3-7.8.186-2.009-.572-3.969-.948-5.953a15.974,15.974,0,0,1,1.112-9.445c.752-1.671,1.8-3.213,2.392-4.942,1.381-3.983.247-8.42-1.589-12.213A6.311,6.311,0,0,1,265.649,435.24Z" transform="translate(-254.01 -409.597)"/>
      <path id="Path_2243" data-name="Path 2243" d="M352.626,296.3a4.724,4.724,0,0,0-.517-.458c1.981,2.57-.88,4.754-1.022,7.521-.128,2.5.082,8.1-2.689,9.348-1.37.62-2.84-.737-4.342-.77a3.539,3.539,0,0,0-2.737,1.522,16.292,16.292,0,0,0-1.548,2.848,19.586,19.586,0,0,1-1.5,2.534,3.587,3.587,0,0,1-1.229,1.226,3.943,3.943,0,0,1-2.962-.1q-1.414-.445-2.8-.981a3.538,3.538,0,0,1-.043.508q1.829.746,3.713,1.337a3.942,3.942,0,0,0,2.962.1,3.679,3.679,0,0,0,1.229-1.228,19.266,19.266,0,0,0,1.5-2.532,16.308,16.308,0,0,1,1.55-2.85,3.54,3.54,0,0,1,2.735-1.52c1.5.033,2.974,1.39,4.344.77,2.771-1.252,2.56-6.847,2.689-9.348C352.106,301.317,355.271,299.051,352.626,296.3Z" transform="translate(-318.605 -295.84)"/>
    </g>
    <path id="Path_2244" data-name="Path 2244" d="M306.59,417.674c-.139.245-.275.49-.4.742-.047.1-.093.2-.134.3a26.412,26.412,0,0,0-4.107-3.551,6.975,6.975,0,0,1,1.1-1.671A7.793,7.793,0,0,1,306.59,417.674Z" transform="translate(-261.895 -355.467)" opacity="0.1"/>
    <path id="Path_2245" data-name="Path 2245" d="M306.667,415.323a7.647,7.647,0,0,0-3.621-4.483,6.939,6.939,0,0,0-1.1,1.671,27.565,27.565,0,0,1,4.241,3.688Z" transform="translate(-261.895 -353.25)" fill="#ff748e"/>
  </g>
</svg>
