<svg width="306" height="306" viewBox="0 0 306 306" fill="none" xmlns="http://www.w3.org/2000/svg">
<path d="M201.244 35.5327C201.244 35.5327 152.688 16.4567 106.249 43.3786C59.8106 70.3004 37.5032 125.693 18.2558 170.026C-0.99165 214.359 12.0134 260.363 48.5987 282.193C85.1841 304.023 108.862 274.005 159.371 273.919C209.879 273.833 223.667 281.71 264.812 253.258C305.957 224.806 311.661 155.062 277.187 102.375C242.713 49.6883 201.244 35.5327 201.244 35.5327Z" fill="#8B80F8"/>
<path opacity="0.7" d="M201.244 35.5327C201.244 35.5327 152.688 16.4567 106.249 43.3786C59.8106 70.3004 37.5032 125.693 18.2558 170.026C-0.99165 214.359 12.0134 260.363 48.5987 282.193C85.1841 304.023 108.862 274.005 159.371 273.919C209.879 273.833 223.667 281.71 264.812 253.258C305.957 224.806 311.661 155.062 277.187 102.375C242.713 49.6883 201.244 35.5327 201.244 35.5327Z" fill="white"/>
<path d="M76.3529 17.1666C89.4159 17.1666 101.944 22.3558 111.181 31.5927C120.417 40.8296 125.607 53.3575 125.607 66.4204V243.576H27.0747V66.4204C27.0747 53.3575 32.2639 40.8296 41.5008 31.5927C50.7377 22.3558 63.2656 17.1666 76.3285 17.1666H76.3529Z" stroke="#263238" stroke-linecap="round" stroke-linejoin="round"/>
<path d="M38.2256 243.044V68.0116C38.2256 57.899 42.2424 48.2004 49.3925 41.0491C56.5427 33.8979 66.2406 29.8795 76.3532 29.8779C86.4669 29.8779 96.1663 33.8955 103.318 41.047C110.469 48.1984 114.487 57.8979 114.487 68.0116V243.044" stroke="#263238" stroke-linecap="round" stroke-linejoin="round"/>
<path d="M76.353 17.1666V243.313" stroke="#263238" stroke-linecap="round" stroke-linejoin="round"/>
<path d="M27.6318 60.7288H124.946" stroke="#263238" stroke-linecap="round" stroke-linejoin="round"/>
<path d="M27.6318 91.4451H124.946" stroke="#263238" stroke-linecap="round" stroke-linejoin="round"/>
<path d="M27.6318 122.161H124.946" stroke="#263238" stroke-linecap="round" stroke-linejoin="round"/>
<path d="M27.6318 152.884H124.946" stroke="#263238" stroke-linecap="round" stroke-linejoin="round"/>
<path d="M27.6318 183.6H124.946" stroke="#263238" stroke-linecap="round" stroke-linejoin="round"/>
<path d="M27.6318 214.316H124.946" stroke="#263238" stroke-linecap="round" stroke-linejoin="round"/>
<path d="M40.6426 32.54L49.4676 40.5756" stroke="#263238" stroke-linecap="round" stroke-linejoin="round"/>
<path d="M111.696 32.54L102.871 40.5756" stroke="#263238" stroke-linecap="round" stroke-linejoin="round"/>
<path d="M282.144 24.939H184.824V157.498H282.144V24.939Z" stroke="#263238" stroke-linecap="round" stroke-linejoin="round"/>
<path d="M275.553 30.5204H191.416V151.911H275.553V30.5204Z" stroke="#263238" stroke-linecap="round" stroke-linejoin="round"/>
<path d="M275.553 37.944C274.176 37.6013 259.421 34.168 256.086 42.1668C252.591 50.5573 275.67 72.2344 263.081 89.7192C250.492 107.204 214.825 80.631 209.225 94.6152C203.625 108.599 204.329 127.48 194.537 130.98C193.515 131.338 192.468 131.617 191.403 131.813V151.947H275.553V37.944Z" stroke="#263238" stroke-miterlimit="10"/>
<path d="M212.248 30.5204C218.582 34.0088 223.264 39.0456 218.325 45.6307C207.835 59.621 192.45 68.0116 202.242 75.7044C212.034 83.3972 237.903 77.112 234.396 55.4227C232.462 43.4336 232.456 35.7286 234.255 30.5204H212.248Z" stroke="#263238" stroke-miterlimit="10"/>
<path d="M234.879 132.033C241.465 129.263 244.559 121.678 241.789 115.092C239.019 108.505 231.434 105.412 224.847 108.182C218.261 110.952 215.167 118.537 217.937 125.123C220.707 131.71 228.292 134.804 234.879 132.033Z" stroke="#263238" stroke-miterlimit="10"/>
<path d="M270.773 108.22C270.773 109.257 270.466 110.271 269.889 111.134C269.313 111.996 268.494 112.669 267.536 113.066C266.577 113.463 265.523 113.566 264.505 113.364C263.488 113.162 262.553 112.662 261.82 111.929C261.086 111.195 260.587 110.261 260.384 109.243C260.182 108.226 260.286 107.171 260.683 106.213C261.08 105.255 261.752 104.435 262.615 103.859C263.477 103.283 264.491 102.975 265.529 102.975C266.92 102.975 268.254 103.528 269.237 104.511C270.221 105.495 270.773 106.829 270.773 108.22Z" stroke="#263238" stroke-miterlimit="10"/>
<path d="M219.708 65.2147C219.708 66.0454 219.462 66.8573 219 67.5478C218.539 68.2384 217.883 68.7765 217.115 69.0941C216.348 69.4116 215.503 69.4944 214.689 69.3319C213.874 69.1695 213.126 68.769 212.539 68.1812C211.952 67.5935 211.553 66.8448 211.391 66.03C211.23 65.2152 211.314 64.3709 211.633 63.6039C211.952 62.8368 212.491 62.1816 213.182 61.721C213.873 61.2604 214.685 61.0152 215.516 61.0164C216.067 61.0164 216.613 61.1251 217.122 61.3361C217.631 61.5472 218.093 61.8565 218.482 62.2465C218.872 62.6364 219.18 63.0993 219.391 63.6086C219.601 64.1179 219.709 64.6637 219.708 65.2147Z" stroke="#263238" stroke-miterlimit="10"/>
<path d="M265.063 253.074C266.377 252.152 267.658 251.189 268.907 250.186C267.455 250.897 266.15 251.877 265.063 253.074Z" fill="#263238"/>
<path d="M277.15 237.272C274.764 236.048 270.498 238.313 268.803 239.996C268.693 240.106 267.615 241.452 267.034 242.205C267.175 241.299 267.322 240.369 267.438 239.476C267.768 236.82 268.019 234.121 268.283 231.428C268.362 230.602 268.448 229.782 268.54 228.98C268.882 229.108 272.958 230.626 274.966 230.485C276.747 230.357 278.986 229.702 280.015 228.117C280.27 227.752 280.446 227.338 280.531 226.902C280.616 226.465 280.608 226.015 280.507 225.581C280.407 225.148 280.216 224.74 279.948 224.385C279.68 224.03 279.339 223.736 278.95 223.521C276.569 222.297 272.297 224.555 270.602 226.244C270.474 226.373 268.925 228.313 268.552 228.827C268.742 226.991 268.95 225.216 269.225 223.447C269.587 221.058 270.104 218.695 270.773 216.373C270.933 216.434 275.18 218.037 277.236 217.89C279.017 217.768 281.257 217.113 282.285 215.528C282.542 215.163 282.718 214.749 282.804 214.311C282.889 213.874 282.882 213.423 282.781 212.989C282.681 212.555 282.49 212.146 282.221 211.791C281.952 211.435 281.611 211.141 281.22 210.926C278.84 209.702 274.574 211.966 272.873 213.649C272.762 213.759 271.581 215.24 271.037 215.956L270.902 215.883C271.639 213.561 272.579 211.308 273.711 209.151C274.323 207.958 274.972 206.85 275.627 205.791C276.392 206.171 279.911 207.866 281.747 207.939C283.583 208.013 285.829 207.609 287.028 206.146C287.322 205.812 287.542 205.419 287.674 204.994C287.806 204.57 287.848 204.122 287.796 203.68C287.744 203.238 287.6 202.811 287.373 202.429C287.146 202.046 286.841 201.715 286.477 201.458C284.244 199.977 279.745 201.758 277.909 203.245C277.805 203.331 276.863 204.267 276.19 204.965C276.489 204.488 276.802 203.992 277.095 203.545C278.215 201.856 279.348 200.381 280.357 199.077C280.939 198.343 281.477 197.694 281.991 197.088C282.934 197.088 286.722 196.954 288.381 196.177C290.039 195.399 291.851 193.998 292.242 192.15C292.349 191.717 292.363 191.267 292.284 190.829C292.205 190.391 292.034 189.974 291.784 189.606C291.533 189.238 291.208 188.926 290.83 188.692C290.451 188.457 290.028 188.305 289.586 188.245C286.924 187.957 283.76 191.611 282.787 193.796C282.701 193.986 281.722 197.088 281.771 197.088H281.832C281.324 197.664 280.792 198.282 280.223 198.967C279.182 200.253 278.013 201.703 276.851 203.374C275.582 205.163 274.415 207.022 273.356 208.943C272.164 211.094 271.167 213.347 270.376 215.675C270.372 215.703 270.372 215.732 270.376 215.761C270.376 214.971 270.376 212.78 270.333 212.609C270.027 210.234 268.038 205.834 265.4 205.344C264.959 205.274 264.509 205.298 264.078 205.413C263.647 205.529 263.245 205.734 262.899 206.015C262.552 206.296 262.269 206.647 262.067 207.045C261.866 207.443 261.75 207.879 261.728 208.325C261.575 210.216 262.952 212.101 264.274 213.288C265.779 214.635 269.953 215.932 270.284 216.036C269.538 218.42 268.949 220.851 268.521 223.313C268.264 224.751 268.05 226.201 267.86 227.658C267.86 226.979 267.86 226.373 267.824 226.287C267.511 223.912 265.522 219.512 262.891 219.023C262.45 218.952 261.999 218.976 261.567 219.092C261.136 219.208 260.734 219.413 260.387 219.695C260.041 219.977 259.758 220.329 259.556 220.728C259.355 221.126 259.24 221.563 259.219 222.009C259.066 223.894 260.443 225.779 261.765 226.972C263.087 228.166 266.661 229.359 267.591 229.659C267.524 230.216 267.45 230.779 267.383 231.336C267.059 234.029 266.771 236.709 266.367 239.335C266.232 240.259 266.067 241.171 265.902 242.07C265.902 241.458 265.902 240.963 265.871 240.883C265.565 238.509 263.576 234.108 260.939 233.619C260.497 233.549 260.046 233.572 259.615 233.688C259.184 233.804 258.782 234.01 258.435 234.291C258.089 234.573 257.805 234.925 257.604 235.324C257.403 235.722 257.288 236.159 257.267 236.605C257.114 238.49 258.491 240.375 259.812 241.569C261.134 242.762 264.36 243.839 265.473 244.2C265.278 245.124 265.082 246.036 264.861 246.936C264.69 247.548 264.562 248.129 264.36 248.723C264.158 249.317 263.98 249.904 263.79 250.485C263.387 251.587 262.977 252.732 262.566 253.803C262.383 254.28 262.199 254.733 262.016 255.192L264.109 253.772C264.439 252.836 264.764 251.893 265.1 250.889C265.278 250.277 265.455 249.714 265.633 249.115C265.81 248.515 265.945 247.891 266.11 247.279C266.453 245.828 266.722 244.341 266.985 242.835C267.952 243.19 271.41 244.39 273.197 244.268C274.188 244.201 275.161 243.973 276.079 243.594C276.997 242.621 277.915 241.63 278.754 240.608C278.887 239.953 278.803 239.273 278.514 238.67C278.224 238.068 277.745 237.577 277.15 237.272Z" fill="#263238"/>
<path d="M262.064 253.074C262.035 250.971 261.466 248.91 260.412 247.089C260.419 246.853 260.405 246.618 260.369 246.385C260.313 245.943 260.165 245.518 259.934 245.138C259.703 244.757 259.395 244.429 259.029 244.176C258.663 243.922 258.247 243.749 257.81 243.667C257.372 243.584 256.922 243.595 256.489 243.698C253.9 244.384 252.26 248.931 252.138 251.318C252.138 251.459 252.223 253.001 252.297 253.968C252.162 253.405 252.046 252.86 251.905 252.279C251.63 251.134 251.33 249.996 251.006 248.778L250.467 247.003C250.302 246.391 250.051 245.779 249.855 245.167C249.341 243.766 248.753 242.376 248.135 240.981C249.133 240.742 252.682 239.837 254.108 238.747C255.534 237.658 257.028 235.877 257.015 233.986C257.027 233.541 256.945 233.098 256.775 232.687C256.604 232.276 256.349 231.906 256.025 231.6C255.702 231.294 255.318 231.059 254.898 230.911C254.478 230.764 254.032 230.706 253.588 230.742C250.926 231.03 248.613 235.271 248.129 237.615C248.098 237.762 247.939 239.482 247.872 240.43C247.493 239.598 247.119 238.76 246.703 237.933C245.516 235.534 244.255 233.141 242.97 230.755C242.578 230.02 242.205 229.286 241.819 228.558C242.18 228.472 246.415 227.487 248.013 226.263C249.42 225.216 250.92 223.423 250.92 221.544C250.932 221.099 250.851 220.656 250.681 220.245C250.512 219.834 250.257 219.462 249.934 219.156C249.612 218.849 249.228 218.614 248.808 218.466C248.389 218.317 247.942 218.259 247.499 218.294C244.83 218.588 242.517 222.829 242.034 225.173C242.034 225.351 241.777 227.823 241.752 228.46C240.914 226.844 240.087 225.222 239.347 223.6C238.328 221.416 237.453 219.167 236.728 216.868C236.899 216.832 241.324 215.822 242.958 214.567C244.378 213.484 245.883 211.703 245.871 209.812C245.883 209.367 245.8 208.924 245.63 208.513C245.459 208.101 245.204 207.73 244.881 207.424C244.558 207.117 244.174 206.882 243.754 206.734C243.334 206.585 242.888 206.527 242.444 206.562C239.781 206.856 237.468 211.097 236.985 213.441C236.985 213.594 236.783 215.479 236.721 216.379H236.568C235.899 214.04 235.442 211.645 235.204 209.224C235.057 207.89 234.983 206.611 234.947 205.363C235.791 205.259 239.647 204.751 241.238 203.784C242.829 202.817 244.457 201.25 244.653 199.371C244.713 198.929 244.68 198.48 244.555 198.051C244.43 197.623 244.216 197.226 243.927 196.886C243.639 196.546 243.282 196.271 242.879 196.078C242.477 195.885 242.039 195.779 241.593 195.767C238.912 195.767 236.152 199.726 235.412 202.003C235.369 202.125 235.106 203.429 234.922 204.384C234.922 203.82 234.892 203.239 234.892 202.701C234.892 200.675 235.026 198.814 235.155 197.193C235.234 196.262 235.326 195.418 235.418 194.628C236.189 194.096 239.292 191.911 240.247 190.344C241.201 188.778 241.936 186.617 241.238 184.836C241.089 184.417 240.853 184.034 240.546 183.712C240.239 183.389 239.868 183.135 239.457 182.965C239.045 182.796 238.603 182.715 238.158 182.727C237.713 182.739 237.276 182.845 236.874 183.037C234.494 184.261 233.869 189.065 234.261 191.421C234.298 191.629 235.198 194.757 235.234 194.726L235.283 194.696C235.179 195.454 235.075 196.262 234.977 197.144C234.818 198.79 234.647 200.644 234.598 202.682C234.526 204.872 234.579 207.065 234.757 209.249C234.949 211.698 235.358 214.125 235.981 216.501C235.981 216.532 235.981 216.556 235.981 216.587C235.559 215.926 234.322 214.108 234.212 213.98C232.646 212.174 228.557 209.598 226.091 210.644C225.686 210.829 225.325 211.097 225.03 211.431C224.736 211.765 224.515 212.157 224.382 212.582C224.249 213.007 224.208 213.455 224.259 213.898C224.311 214.34 224.456 214.766 224.683 215.149C225.595 216.807 227.743 217.597 229.543 217.884C231.538 218.178 235.736 216.96 236.073 216.862C236.761 219.265 237.612 221.618 238.619 223.906C239.194 225.24 239.843 226.569 240.455 227.89C240.069 227.334 239.72 226.832 239.665 226.77C238.098 224.934 234.01 222.382 231.544 223.429C231.139 223.614 230.779 223.883 230.485 224.217C230.191 224.551 229.971 224.944 229.839 225.369C229.706 225.793 229.665 226.241 229.718 226.683C229.77 227.125 229.915 227.551 230.142 227.933C231.054 229.592 233.233 230.412 235.002 230.669C236.77 230.926 240.393 229.965 241.342 229.696C241.599 230.204 241.844 230.712 242.095 231.214C243.319 233.662 244.543 236.048 245.663 238.447C246.061 239.292 246.422 240.137 246.783 240.987C246.446 240.492 246.171 240.069 246.103 240.014C244.537 238.178 240.448 235.626 237.982 236.673C237.577 236.858 237.215 237.127 236.921 237.462C236.626 237.796 236.406 238.189 236.273 238.614C236.14 239.04 236.098 239.488 236.15 239.931C236.202 240.373 236.347 240.8 236.575 241.183C237.486 242.835 239.635 243.631 241.434 243.913C243.233 244.194 246.477 243.301 247.609 242.988C247.958 243.87 248.307 244.745 248.6 245.614C248.79 246.226 249.01 246.771 249.17 247.383C249.329 247.995 249.5 248.607 249.665 249.164C249.941 250.308 250.228 251.489 250.473 252.609C250.644 253.392 250.791 254.139 250.95 254.892C250.559 254.041 249.769 252.401 249.69 252.273C248.417 250.247 244.794 247.083 242.168 247.744C241.74 247.865 241.341 248.075 240.999 248.361C240.657 248.646 240.38 249.001 240.184 249.401C239.988 249.801 239.879 250.238 239.863 250.683C239.848 251.129 239.926 251.572 240.094 251.985C240.748 253.76 242.78 254.898 244.488 255.424C246.367 256 250.534 255.473 251.054 255.424C251.305 256.648 251.538 257.872 251.734 259.029C251.881 259.849 252.009 260.632 252.132 261.397L253.637 260.504C253.527 259.929 253.417 259.341 253.294 258.735C253.05 257.475 252.756 256.122 252.444 254.745C253.701 254.243 254.927 253.667 256.116 253.019C257.156 254.151 259.433 255.424 260.669 256.079L261.746 255.357C261.899 254.384 262.058 253.203 262.064 253.074Z" fill="#263238"/>
<path d="M227.939 204.255C229.861 205.093 234.567 204.989 234.567 204.989C234.567 204.989 233.558 201.929 233.472 201.721C232.438 199.561 229.188 195.999 226.52 196.36C226.08 196.431 225.66 196.594 225.288 196.838C224.915 197.082 224.598 197.402 224.358 197.777C224.118 198.152 223.959 198.573 223.893 199.013C223.827 199.454 223.854 199.903 223.974 200.332C224.414 202.174 226.299 203.539 227.939 204.255Z" fill="#263238"/>
<path d="M269.243 195.558C268.595 197.339 269.415 199.518 270.388 201.017C271.526 202.78 275.51 205.301 275.516 205.301C275.523 205.301 276.367 202.174 276.398 201.972C276.728 199.604 275.969 194.83 273.558 193.661C273.153 193.479 272.714 193.385 272.27 193.383C271.826 193.381 271.386 193.473 270.979 193.652C270.573 193.83 270.208 194.093 269.909 194.421C269.61 194.749 269.383 195.137 269.243 195.558Z" fill="#263238"/>
<path d="M198.943 58.4644L169.084 59.2538L168.472 69.7252L197.15 74.664C197.15 74.664 197.223 64.872 199.861 58.6969" fill="white"/>
<path d="M198.943 58.4644L169.084 59.2538L168.472 69.7252L197.15 74.664C197.15 74.664 197.223 64.872 199.861 58.6969" stroke="#263238" stroke-miterlimit="10"/>
<path d="M209.916 58.0054C210.043 57.7806 210.11 57.5276 210.113 57.2697C210.115 57.0118 210.053 56.7575 209.93 56.5303C209.808 56.3032 209.631 56.1106 209.414 55.9704C209.198 55.8303 208.949 55.7471 208.692 55.7287C206.63 55.2697 199.114 55.7287 197.97 55.7287C196.825 55.7287 193.239 59.4007 192.664 66.2184C192.089 73.0361 192.603 76.7081 193.98 77.3935C195.357 78.079 204.696 77.1671 204.696 77.1671C204.696 77.1671 206.617 68.7276 208.368 64.8475C209.424 62.7237 209.955 60.3772 209.916 58.0054Z" fill="white" stroke="#263238" stroke-miterlimit="10"/>
<path d="M183.264 274.384C185.185 260.743 187.401 243.552 187.303 237.444C187.131 226.752 186.825 225.063 186.825 225.063H105.497L104.683 227.052C103.493 237.9 103.478 248.845 104.64 259.696C105.668 268.705 106.525 277.481 107.088 283.791C117.461 280.584 128.741 276.997 141.941 275.167L142.37 245.063L145.711 242.529L147.266 274.537C151.121 274.164 155.136 273.925 159.341 273.925C168.38 273.907 176.256 274.176 183.264 274.384Z" fill="#263238" stroke="#263238" stroke-miterlimit="10"/>
<path d="M125.215 119.254H169.959L175.075 229.567C175.075 229.567 168.637 231.819 159.065 231.538C149.494 231.256 147.755 228.16 138.796 230.693C129.836 233.227 129.298 235.198 122.804 233.79L116.28 232.383L125.215 119.254Z" fill="white" stroke="#263238" stroke-miterlimit="10"/>
<path d="M147.957 200.369C147.523 201.672 147.174 202.749 146.966 203.514" stroke="#263238" stroke-miterlimit="10" stroke-linecap="round"/>
<path d="M157.639 174.157C157.639 174.157 152.431 187.694 149.212 196.764" stroke="#263238" stroke-miterlimit="10" stroke-linecap="round"/>
<path d="M145.546 187.401L144.389 190.014" stroke="#263238" stroke-miterlimit="10" stroke-linecap="round"/>
<path d="M153.514 169.432L147.664 182.627" stroke="#263238" stroke-miterlimit="10" stroke-linecap="round"/>
<path d="M157.627 128.483L158.184 178.202L158.153 248.221C158.153 248.221 169.781 248.221 176.825 246.385C183.869 244.549 192.609 235.008 192.609 235.008C192.609 235.008 183.08 180.497 182.737 172.97C182.395 165.442 185.185 125.527 185.185 125.527C185.185 125.527 225.167 78.44 227.719 74.6701C231.728 68.7399 232.793 63.9479 231.844 61.4387C230.896 58.9295 209.879 57.1057 207.609 57.7667C205.338 58.4276 201.96 74.4315 201.96 74.4315C201.96 74.4315 187.541 85.6066 182.339 88.5686C177.137 91.5307 173.967 92.9016 167.401 95.6372C163.12 97.5241 159.158 100.063 155.656 103.165L157.627 128.483Z" fill="#8B80F8" stroke="#263238" stroke-miterlimit="10"/>
<path d="M177.211 117.265C177.211 118.697 177.278 120.025 177.358 121.182" stroke="#263238" stroke-miterlimit="10"/>
<path d="M178.049 92.6752C178.049 92.6752 177.242 104.744 177.199 114.322" stroke="#263238" stroke-miterlimit="10"/>
<path d="M180.761 91.0778C180.761 91.0778 179.102 101.8 178.735 107.271" stroke="#263238" stroke-miterlimit="10"/>
<path d="M201.96 74.4315C201.96 74.4315 209.659 68.3971 211.513 68.085" stroke="#263238" stroke-miterlimit="10"/>
<path d="M136.396 127.112L134.181 188.924L130.815 250.308C124.648 248.849 118.596 246.943 112.706 244.604C103.752 240.932 98.9053 237.077 98.9053 237.077C98.9053 237.077 102.467 217.236 104.805 206.287C107.143 195.338 110.203 172.761 110.148 169.114C110.093 165.466 109.609 149.726 108.11 141.286C106.61 132.847 99.8233 122.125 99.8049 120.986C99.7866 119.848 123.361 110.497 127.657 108.214C130.062 106.89 132.667 105.966 135.368 105.478L136.519 105.931L136.396 127.112Z" fill="#8B80F8" stroke="#263238" stroke-miterlimit="10"/>
<path d="M136.011 102.712C136.011 102.712 131.727 104.762 130.864 108.869C130.001 112.975 127.07 128.71 126.88 130.992C126.69 133.275 127.584 132.363 129.377 130.307C131.17 128.251 133.165 124.836 134.096 125.748L138.496 130.081H155.375C156.251 129.752 157.027 129.202 157.627 128.483C158.52 127.345 160.075 124.603 161.005 125.515C161.935 126.427 164.304 132.363 164.965 130.992C165.626 129.622 162.401 112.749 161.403 107.498C160.405 102.247 151.464 99.0583 136.011 102.712Z" fill="white" stroke="#263238" stroke-miterlimit="10"/>
<path d="M136.55 107.957C136.55 107.957 135.736 128.71 137.627 132.816C139.518 136.923 144.597 140.772 149.359 139.205C154.12 137.639 157.505 134.866 157.651 129.854C157.798 124.842 156.391 107.712 156.391 107.712L136.55 107.957Z" fill="white" stroke="#263238" stroke-miterlimit="10"/>
<path d="M157.652 129.854C157.798 124.836 156.391 107.73 156.391 107.73L136.55 107.957C136.55 107.957 136.256 115.442 136.433 122.308C139.701 121.993 142.847 120.906 145.613 119.138C148.426 117.283 150.877 114.931 152.847 112.198L157.352 132.021C157.531 131.312 157.631 130.585 157.652 129.854Z" fill="#263238" stroke="#263238" stroke-miterlimit="10"/>
<path d="M123.11 74.5538C123.11 74.5538 121.384 72.0263 119.756 75.8207C118.128 79.6151 121.372 84.8905 122.871 86.1573C124.371 87.4242 128.379 89.1072 128.379 87.21C128.379 85.3128 126.739 77.0875 125.43 74.1377C124.12 71.1878 123.11 74.5538 123.11 74.5538Z" fill="white" stroke="#263238" stroke-miterlimit="10"/>
<path d="M170.993 75.1903C170.993 75.1903 172.639 72.6566 174.39 76.4571C176.14 80.2577 173.056 85.5209 171.599 86.7877C170.142 88.0545 166.164 89.7437 166.134 87.8403C166.103 85.937 167.45 77.7179 168.668 74.768C169.885 71.8182 170.993 75.1903 170.993 75.1903Z" fill="white" stroke="#263238" stroke-miterlimit="10"/>
<path d="M125.992 83.4156C125.992 83.4156 127.828 94.5907 129.199 99.652C130.57 104.713 142.119 116.317 146.335 116.525C150.552 116.733 161.635 109.989 164.261 103.03C166.886 96.0718 167.559 84.8905 167.553 84.2602C167.547 83.6298 168.985 68.44 164.897 62.9564C160.809 57.4729 143.734 58.3175 135.368 62.7484C127.002 67.1792 122.467 73.9235 125.992 83.4156Z" fill="white" stroke="#263238" stroke-miterlimit="10"/>
<path d="M140.485 93.024C140.485 94.3643 139.91 95.472 139.151 95.472C138.392 95.472 137.761 94.3887 137.743 93.024C137.725 91.6592 138.318 90.576 139.077 90.576C139.836 90.576 140.46 91.6715 140.485 93.024Z" fill="#263238"/>
<path d="M156.721 93.024C156.721 94.3643 156.146 95.472 155.393 95.472C154.64 95.472 154.004 94.3887 153.979 93.024C153.955 91.6592 154.555 90.576 155.313 90.576C156.072 90.576 156.703 91.6715 156.721 93.024Z" fill="#263238"/>
<path d="M141.623 85.0986L133.673 89.1072" stroke="#263238" stroke-width="3" stroke-miterlimit="10" stroke-linecap="round"/>
<path d="M153.857 85.3128L161.733 89.9518" stroke="#263238" stroke-width="3" stroke-miterlimit="10" stroke-linecap="round"/>
<path d="M150.497 101.237C150.484 101.596 150.399 101.948 150.249 102.274C150.098 102.599 149.884 102.891 149.619 103.133C149.354 103.376 149.044 103.563 148.706 103.683C148.368 103.804 148.01 103.857 147.651 103.838C146.921 103.87 146.207 103.617 145.661 103.131C145.115 102.645 144.78 101.966 144.726 101.237" stroke="#263238" stroke-miterlimit="10" stroke-linecap="round"/>
<path d="M145.595 108.936C146.197 108.669 146.849 108.532 147.507 108.532C148.166 108.532 148.817 108.669 149.42 108.936" stroke="#263238" stroke-miterlimit="10" stroke-linecap="round"/>
<path d="M134.824 95.319L138.049 95.931" stroke="#263238" stroke-miterlimit="10" stroke-linecap="round"/>
<path d="M160.375 95.319L156.874 96.39" stroke="#263238" stroke-miterlimit="10" stroke-linecap="round"/>
<path d="M137.155 42.4973C137.155 42.4973 126.268 47.5646 122.841 57.6871C119.414 67.8096 124.016 78.3544 124.677 81.0961C125.338 83.8379 125.797 85.3128 125.797 85.3128C125.797 85.3128 128.906 81.7265 131.201 80.0374C133.496 78.3482 138.116 77.5098 140.852 76.8733C143.588 76.2368 153.037 73.9235 155.54 71.3653C158.043 68.8072 158.857 67.779 158.857 67.779C158.857 67.779 160.926 78.5319 163.716 81.6959C165.379 83.5665 166.571 85.8074 167.192 88.232C167.192 88.232 169.028 84.0154 170.442 80.221C171.856 76.4266 172.847 58.9172 168.93 51.5365C165.014 44.1558 148.459 37.0199 137.155 42.4973Z" fill="#263238" stroke="#263238" stroke-miterlimit="10"/>
<path d="M158.857 67.8096C158.857 67.8096 150.35 76.8733 140.497 81.0961C130.644 85.3189 120.301 96.4879 121.213 102.186C122.125 107.883 129.138 109.989 128.294 109.989C127.449 109.989 117.088 108.091 117.167 99.6519C117.247 91.2124 126.023 86.1573 130.631 84.0459C135.24 81.9345 154.683 70.5513 158.857 67.8096Z" fill="#263238" stroke="#263238" stroke-miterlimit="10"/>
<path d="M160.852 74.1377C160.852 74.1377 163.753 84.2602 165.497 87.6017C167.241 90.9432 170.314 98.991 168.086 104.683C165.858 110.374 164.181 111.219 164.181 111.219C164.181 111.219 171.691 105.949 171.556 97.3019C171.421 88.6543 162.211 80.0374 160.852 74.1377Z" fill="#263238" stroke="#263238" stroke-miterlimit="10"/>
<path d="M159.345 45.7274C159.549 39.9681 154.098 35.1003 147.17 34.8547C140.242 34.6091 134.46 39.0789 134.256 44.8381C134.052 50.5974 139.503 55.4652 146.431 55.7108C153.359 55.9564 159.141 51.4866 159.345 45.7274Z" fill="#263238" stroke="#263238" stroke-miterlimit="10"/>
<path d="M154.349 36.7637C154.456 33.3888 151.19 30.5469 147.055 30.4163C142.92 30.2856 139.481 32.9156 139.375 36.2905C139.268 39.6654 142.534 42.5072 146.669 42.6379C150.804 42.7686 154.242 40.1386 154.349 36.7637Z" fill="#263238" stroke="#263238" stroke-miterlimit="10"/>
<path d="M84.6215 199.414L85.1661 233.857C85.1661 233.857 82.4427 248.906 83.8259 250.051C85.209 251.195 89.8418 255.296 90.7721 256.434C91.7023 257.572 93.5322 258.031 94.9031 258.27C96.2739 258.509 100.136 257.358 99.4196 255.308C98.7036 253.258 97.8284 255.761 97.1369 255.075C96.4507 254.291 95.8267 253.454 95.2703 252.572L96.5616 247.554C96.5616 247.554 96.8615 252.34 98.0059 252.572C99.1503 252.805 99.3645 251.887 99.3339 250.063C99.3033 248.239 98.8443 247.78 99.0157 244.359C99.1871 240.938 97.7917 238.429 97.0695 236.605C96.3474 234.782 94.9337 231.36 94.6889 230.216C94.4441 229.072 101.996 201.935 101.996 201.935C101.996 201.935 97.0328 205.118 84.6215 199.414Z" fill="white" stroke="#263238" stroke-miterlimit="10"/>
<path d="M99.805 120.956C99.805 120.956 93.2749 126.201 92.259 134.187C91.2431 142.174 90.9677 153.569 90.117 157.223C89.2663 160.876 85.833 189.61 85.833 189.61C85.833 189.61 89.0766 192.798 91.8306 194.169C94.5846 195.54 100.729 194.396 101.623 194.169C102.556 193.859 103.464 193.479 104.34 193.031C104.34 193.031 108.091 170.675 108.263 166.801C108.434 162.927 109.903 155.173 109.903 155.173C109.903 155.173 109.756 130.081 99.805 120.956Z" fill="#8B80F8" stroke="#263238" stroke-miterlimit="10"/>
<path d="M104.089 164.744C103.587 165.626 103.153 166.403 102.865 166.996" stroke="#263238" stroke-miterlimit="10"/>
<path d="M109.928 155.167C109.928 155.167 107.522 158.967 105.436 162.455" stroke="#263238" stroke-miterlimit="10"/>
<path d="M104.45 160.185L99.6826 168.129" stroke="#263238" stroke-miterlimit="10"/>
<path d="M85.0681 185.044C85.0681 185.044 89.6949 189.151 94.0523 190.522C98.4097 191.893 102.051 191.66 103.642 191.207C105.234 190.754 105.901 190.063 106.158 191.886C106.415 193.71 104.934 200.1 104.934 201.923C104.934 203.747 104.322 204.659 100.65 205.344C96.9777 206.03 89.2359 204.659 86.9286 203.062C84.6214 201.464 82.9935 199.188 83.1893 197.131C83.3851 195.075 84.2236 190.522 84.4133 188.924C84.603 187.327 84.1746 185.503 85.0681 185.044Z" fill="white" stroke="#263238" stroke-miterlimit="10"/>
<path d="M133.661 151.611C133.606 151.561 133.547 151.516 133.484 151.476C131.868 150.466 123.588 152.608 121.488 152.608C114.677 152.608 111.862 150.772 111.592 153.22C111.323 155.668 110.742 158.178 111.384 159.414C112.027 160.65 114.169 159.414 116.029 159.726C117.89 160.038 121.641 162.174 123.19 162.174C124.738 162.174 128.698 159.726 129.652 159.726C130.607 159.726 132.761 160.65 133.373 159.726C134.334 158.214 135.007 152.902 133.661 151.611Z" fill="white" stroke="#263238" stroke-miterlimit="10"/>
<path d="M123.985 158.967C123.989 159.144 123.958 159.319 123.893 159.484C123.828 159.648 123.731 159.798 123.607 159.924C123.483 160.05 123.335 160.15 123.172 160.218C123.009 160.286 122.834 160.32 122.657 160.319C122.297 160.318 121.952 160.176 121.696 159.923C121.44 159.67 121.293 159.327 121.286 158.967C121.283 158.791 121.315 158.616 121.38 158.452C121.446 158.289 121.543 158.14 121.667 158.014C121.791 157.889 121.938 157.789 122.101 157.722C122.264 157.654 122.438 157.62 122.614 157.621C122.973 157.622 123.317 157.764 123.573 158.015C123.83 158.267 123.977 158.608 123.985 158.967Z" stroke="#263238" stroke-miterlimit="10" stroke-linecap="round"/>
<path d="M181.342 151.611C181.287 151.561 181.227 151.516 181.164 151.476C179.542 150.466 171.268 152.608 169.169 152.608C162.357 152.608 159.542 150.772 159.273 153.22C159.004 155.668 158.422 158.178 159.059 159.414C159.695 160.65 161.849 159.414 163.71 159.726C165.57 160.038 169.322 162.174 170.87 162.174C172.419 162.174 176.378 159.726 177.333 159.726C178.288 159.726 180.442 160.65 181.054 159.726C182.009 158.214 182.688 152.902 181.342 151.611Z" fill="white" stroke="#263238" stroke-miterlimit="10"/>
<path d="M171.911 159.31C171.914 159.486 171.882 159.661 171.817 159.825C171.751 159.988 171.654 160.137 171.53 160.262C171.406 160.388 171.259 160.487 171.096 160.555C170.933 160.623 170.759 160.657 170.583 160.656C170.224 160.655 169.88 160.513 169.624 160.262C169.368 160.01 169.22 159.669 169.212 159.31C169.208 159.133 169.239 158.957 169.304 158.793C169.369 158.629 169.466 158.479 169.59 158.353C169.714 158.227 169.862 158.127 170.025 158.059C170.188 157.991 170.363 157.956 170.54 157.957C170.9 157.959 171.245 158.101 171.501 158.354C171.757 158.607 171.904 158.95 171.911 159.31Z" stroke="#263238" stroke-miterlimit="10" stroke-linecap="round"/>
<path d="M101.83 52.9747H54.2536C53.7818 52.9747 53.3147 53.0677 52.8788 53.2482C52.443 53.4287 52.0469 53.6933 51.7133 54.0269C51.3797 54.3605 51.1151 54.7566 50.9346 55.1924C50.7541 55.6283 50.6611 56.0954 50.6611 56.5672V71.8305C50.6611 72.3019 50.7541 72.7688 50.9347 73.2043C51.1153 73.6398 51.38 74.0354 51.7137 74.3685C52.0474 74.7016 52.4434 74.9657 52.8793 75.1455C53.3151 75.3254 53.7821 75.4176 54.2536 75.4168H93.5317L103.611 82.8832L100.147 75.4168H101.83C102.302 75.4176 102.769 75.3254 103.205 75.1455C103.641 74.9657 104.037 74.7016 104.37 74.3685C104.704 74.0354 104.969 73.6398 105.149 73.2043C105.33 72.7688 105.423 72.3019 105.423 71.8305V56.5672C105.423 56.0954 105.33 55.6283 105.149 55.1924C104.969 54.7566 104.704 54.3605 104.371 54.0269C104.037 53.6933 103.641 53.4287 103.205 53.2482C102.769 53.0677 102.302 52.9747 101.83 52.9747Z" fill="#263238" stroke="#263238" stroke-miterlimit="10"/>
<path d="M102.418 52.069H54.841C54.3695 52.0682 53.9025 52.1603 53.4667 52.3402C53.0309 52.5201 52.6348 52.7841 52.3011 53.1172C51.9674 53.4503 51.7027 53.8459 51.5221 54.2815C51.3415 54.717 51.2485 55.1838 51.2485 55.6553V70.9186C51.2485 71.39 51.3415 71.8569 51.5221 72.2924C51.7027 72.7279 51.9674 73.1235 52.3011 73.4566C52.6348 73.7897 53.0309 74.0538 53.4667 74.2337C53.9025 74.4135 54.3695 74.5057 54.841 74.5049H94.1191L103.611 82.8832L100.735 74.5049H102.418C103.369 74.5049 104.281 74.127 104.954 73.4545C105.626 72.7819 106.004 71.8697 106.004 70.9186V55.6553C106.004 55.1843 105.911 54.718 105.731 54.2829C105.551 53.8478 105.287 53.4524 104.954 53.1194C104.621 52.7864 104.225 52.5222 103.79 52.342C103.355 52.1617 102.889 52.069 102.418 52.069Z" fill="white" stroke="#263238" stroke-miterlimit="10"/>
<path d="M59.2474 57.9075V68.0973H58.1396V57.9075H59.2474Z" fill="#263238"/>
<path d="M61.0102 60.588H60.5451L60.9062 59.309H60.4839V57.9075H61.5794V59.2049L61.0102 60.588Z" fill="#263238"/>
<path d="M66.4936 68.0789H65.4042L63.7151 59.976V68.0973H62.7236V57.9075H64.3148L65.9856 66.041L67.6013 57.9075H69.1864V68.0973H68.1092V59.9026L66.4936 68.0789Z" fill="#263238"/>
<path d="M77.014 60.3555V60.6308H75.9369V60.2942C75.9369 59.3762 75.5881 58.8438 74.7741 58.8438C73.9601 58.8438 73.6113 59.3762 73.6113 60.282C73.6113 62.5648 77.0263 62.7851 77.0263 65.6492C77.0263 67.1915 76.2857 68.1952 74.7313 68.1952C73.1768 68.1952 72.4424 67.1915 72.4424 65.6492V65.0372H73.5073V65.6798C73.5073 66.5917 73.8867 67.1303 74.7313 67.1303C75.5758 67.1303 75.9553 66.5917 75.9553 65.6798C75.9553 63.4093 72.5525 63.189 72.5525 60.3248C72.5525 58.752 73.2747 57.7789 74.8047 57.7789C76.3347 57.7789 77.014 58.8132 77.014 60.3555Z" fill="#263238"/>
<path d="M77.9316 60.3677C77.9316 58.8132 78.7028 57.8095 80.2572 57.8095C81.8117 57.8095 82.6196 58.8132 82.6196 60.3677V65.637C82.6196 67.1792 81.8484 68.1952 80.2756 68.1952C78.7028 68.1952 77.95 67.1792 77.95 65.637L77.9316 60.3677ZM79.0516 65.6921C79.0516 66.6223 79.4433 67.1609 80.2756 67.1609C81.1079 67.1609 81.4996 66.6223 81.4996 65.6921V60.3126C81.4996 59.3946 81.1263 58.8438 80.2756 58.8438C79.4249 58.8438 79.0516 59.3946 79.0516 60.3126V65.6921Z" fill="#263238"/>
<path d="M85.9492 57.9075C87.5466 57.9075 88.2136 58.7214 88.2136 60.2392V61.0654C88.2136 62.1853 87.822 62.9014 86.9529 63.1645C87.8832 63.4399 88.232 64.1927 88.232 65.2882V66.8733C88.1979 67.2917 88.2672 67.712 88.434 68.0973H87.2834C87.1272 67.7092 87.0623 67.2904 87.0937 66.8733V65.276C87.0937 64.1254 86.5551 63.7643 85.6126 63.7643H84.8109V68.1156H83.6787V57.9075H85.9492ZM85.6555 62.7117C86.5551 62.7117 87.0937 62.4179 87.0937 61.3163V60.3371C87.0937 59.4252 86.7632 58.9417 85.9186 58.9417H84.8109V62.7117H85.6555Z" fill="#263238"/>
<path d="M91.6774 57.9075C93.2809 57.9075 93.9479 58.7214 93.9479 60.2392V61.0654C93.9479 62.1853 93.5563 62.9014 92.6811 63.1645C93.6113 63.4399 93.9602 64.1927 93.9602 65.2882V66.8733C93.928 67.2922 93.9994 67.7125 94.1683 68.0973H93.0238C92.8648 67.71 92.7998 67.2905 92.8341 66.8733V65.276C92.8341 64.1254 92.2955 63.7643 91.3469 63.7643H90.5758V68.1156H89.4375V57.9075H91.6774ZM91.3898 62.7117C92.2894 62.7117 92.828 62.4179 92.828 61.3163V60.3371C92.828 59.4252 92.4914 58.9417 91.6468 58.9417H90.5758V62.7117H91.3898Z" fill="#263238"/>
<path d="M96.7998 64.4436L94.6455 57.9075H95.8267L97.4118 62.9136L99.0091 57.9075H100.086L97.9197 64.4436V68.1156H96.7998V64.4436Z" fill="#263238"/>
</svg>
