<svg xmlns="http://www.w3.org/2000/svg" width="13.014" height="15.381" viewBox="0 0 13.014 15.381">
  <path id="notification-2-svgrepo-com" d="M7.9,14.6l.066-.588-.708-.08.052.71Zm4.718,0,.59.043.052-.71-.708.08Zm-.072.453.575.141Zm-.065.263-.574-.141Zm-1.668,1.661.138.575h0Zm-1.11,0-.138.575h0ZM8.034,15.312l-.574.141Zm-.065-.263.574-.141h0ZM5.547,7.284l.571.155ZM8.8,3.869l.182.563ZM5.081,9,4.51,8.848l0,.013,0,.014Zm-.369,1.669.578.128h0Zm1.039,3.573.118-.58Zm.29.059.118-.58h0Zm8.431,0-.118-.58h0Zm.29-.059.118.58ZM15.8,10.672l-.578.128h0ZM15.433,9l.578-.128,0-.011,0-.011Zm-.46-1.753L14.4,7.4ZM11.809,3.874l.186-.562h0Zm4.343,8.362-.584.091Zm-11.788,0-.584-.091Zm6.486-9.394a.592.592,0,1,0-1.183,0Zm-1.183.792a.592.592,0,1,0,1.183,0ZM7.832,15.184a21.71,21.71,0,0,0,4.85,0l-.132-1.176a20.524,20.524,0,0,1-4.586,0Zm5.287.006a3.315,3.315,0,0,0,.087-.551l-1.18-.086a2.128,2.128,0,0,1-.056.354Zm-.065.263.065-.263-1.149-.283-.065.263Zm-2.1,2.1a2.853,2.853,0,0,0,2.1-2.1l-1.149-.282A1.67,1.67,0,0,1,10.675,16.4Zm-1.386,0a2.979,2.979,0,0,0,1.386,0L10.675,16.4a1.794,1.794,0,0,1-.835,0Zm-2.1-2.1a2.853,2.853,0,0,0,2.1,2.1L9.84,16.4a1.67,1.67,0,0,1-1.231-1.227ZM7.4,15.19l.065.263,1.149-.282-.065-.263Zm-.087-.551a3.314,3.314,0,0,0,.087.551l1.149-.283a2.132,2.132,0,0,1-.056-.354Zm-1.191-7.2A4.38,4.38,0,0,1,8.987,4.431L8.622,3.306A5.563,5.563,0,0,0,4.976,7.13ZM5.652,9.157l.466-1.718L4.976,7.13,4.51,8.848ZM5.29,10.8,5.659,9.13,4.5,8.875l-.369,1.669Zm-.357,1.713a1.2,1.2,0,0,1,.014-.185l-1.169-.183a2.381,2.381,0,0,0-.029.368Zm.936,1.153a1.174,1.174,0,0,1-.936-1.153H3.75a2.358,2.358,0,0,0,1.883,2.312Zm.29.059-.29-.059-.236,1.159.29.059Zm8.2,0a20.524,20.524,0,0,1-8.2,0l-.236,1.159a21.709,21.709,0,0,0,8.668,0Zm.29-.059-.29.059.236,1.159.29-.059Zm.936-1.153a1.174,1.174,0,0,1-.936,1.153l.236,1.159a2.358,2.358,0,0,0,1.883-2.312Zm-.014-.185a1.2,1.2,0,0,1,.014.185h1.183a2.38,2.38,0,0,0-.029-.368Zm-.711-3.2.369,1.669,1.155-.255-.369-1.669ZM14.4,7.4l.46,1.753,1.144-.3L15.546,7.1ZM11.623,4.435A4.256,4.256,0,0,1,14.4,7.4l1.144-.3a5.439,5.439,0,0,0-3.551-3.787Zm-2.636,0a4.254,4.254,0,0,1,2.636,0l.371-1.123a5.437,5.437,0,0,0-3.372-.006Zm7.749,7.712c-.085-.54-.255-1.143-.356-1.6l-1.155.255c.126.572.264,1.027.343,1.527Zm-12.6-1.6c-.1.456-.272,1.059-.356,1.6l1.169.183c.078-.5.216-.955.343-1.527Zm5.531-7.7v.792h1.183V2.842Z" transform="translate(-3.75 -2.25)"/>
</svg>
