<svg xmlns="http://www.w3.org/2000/svg" width="339.918" height="278.929" viewBox="0 0 339.918 278.929">
  <g id="Group_7" data-name="Group 7" transform="translate(-2333.58 1192)">
    <g id="undraw_medical_care_movn" transform="translate(2304 -1192)">
      <path id="Path_229" data-name="Path 229" d="M855.852,183.866l-30.934.3c-1.454-7.158-6.339-25.94-1.94-31.063a7.53,7.53,0,0,1,7.931-6.738h0c4.795-7.505,12.781-6.378,18.178-1.691,5.432,1.874,7.48,5.2,6.764,9.723,4.023,3.521,4.765,7.806,2.959,12.682Z" transform="translate(-520.801 -140.947)" fill="#2f2e41"/>
      <path id="Path_230" data-name="Path 230" d="M858.837,244.83l-22.318-3.09-4.464-6.524c6.149-4.079,8.324-9.775,5.494-17.511L853,217.361c-.724,6.889,1.554,12.223,7.9,15.451Z" transform="translate(-526.764 -182.854)" fill="#ffb9b9"/>
      <path id="Path_231" data-name="Path 231" d="M829.207,723.513l-.853,11.667a3.714,3.714,0,0,0,3.929,3.978l5.992-.363a1.894,1.894,0,0,0,1.723-2.35l-3.326-13.3Z" transform="translate(-524.729 -460.235)" fill="#e6e6e6"/>
      <path id="Path_232" data-name="Path 232" d="M869.108,723.14l-3.326,13.3a1.894,1.894,0,0,0,1.723,2.35l5.992.363a3.714,3.714,0,0,0,3.929-3.978l-.853-11.666Z" transform="translate(-545.23 -460.235)" fill="#e6e6e6"/>
      <path id="Path_233" data-name="Path 233" d="M685.4,440.659l-8.087-.812-8.051-86.057-3.043,85.78-7.945-.285-13.391-118.8h51.16Z" transform="translate(-353.668 -175.761)" fill="#0c385d"/>
      <circle id="Ellipse_16" data-name="Ellipse 16" cx="15.451" cy="15.451" r="15.451" transform="translate(303.917 9.442)" fill="#ffb9b9"/>
      <path id="Path_234" data-name="Path 234" d="M855.008,348.256l-62.491.687c9.274-35.3,14.821-68.1,5.15-90.645l15.451-7.554c7.45,7.771,15.747,6.97,24.721-.687l14.764,3.777C850.075,283.4,851.209,315.063,855.008,348.256Z" transform="translate(-505.081 -200.785)" fill="#0c385d"/>
      <path id="Path_235" data-name="Path 235" d="M754.5,353.56l38.8,15.451,8.674,2.551a3,3,0,0,0,3.758-2.151h0a3,3,0,0,0-1.708-3.477l-9.007-2.76-27.125-15.794,5.665-14.936-11.846-6.352Z" transform="translate(-484.231 -242.484)" fill="#ffb9b9"/>
      <path id="Path_236" data-name="Path 236" d="M755.26,293.713a38.539,38.539,0,0,1,17.854,14.421l14.421-20.945-10.3-18.884Z" transform="translate(-484.648 -210.793)" fill="#0c385d"/>
      <path id="Path_237" data-name="Path 237" d="M863.012,172.251c-6.271-1.616-12.437-1.838-18.43.212-3.818,1.849-8.4,1.679-13.5.155V157.2l27.528.734Z" transform="translate(-526.23 -149.862)" fill="#2f2e41"/>
      <path id="Path_238" data-name="Path 238" d="M834.576,347.053A4.581,4.581,0,0,0,830,351.629l1.806,37.812a4.581,4.581,0,0,0,4.576,4.576h20.652a4.581,4.581,0,0,0,4.576-4.576l1.806-37.812a4.581,4.581,0,0,0-4.576-4.576Z" transform="translate(-525.637 -253.98)" fill="#8b80f8"/>
      <path id="Path_239" data-name="Path 239" d="M909.947,347.754,876.128,361.22l-2.551,1.016c-.081.032-.163.059-.248.086l-8.548,2.515c-1.093.321-2.606-1.152-3.491-2.168a2.748,2.748,0,0,1-.072-3.581,3.05,3.05,0,0,1,.388-.375,2.524,2.524,0,0,1,1.129-.5l8.539-1.68a2.86,2.86,0,0,0,.872-.325l3.983-2.321,20.678-12.039a2.808,2.808,0,0,0,1.215-3.423l-3.947-10.409a2.8,2.8,0,0,1,1.3-3.468l6.539-3.5a2.8,2.8,0,0,1,4.037,1.761l5.676,21.621a2.809,2.809,0,0,1-1.675,3.324Z" transform="translate(-542.413 -239.536)" fill="#ffb9b9"/>
      <path id="Path_240" data-name="Path 240" d="M935.043,284.515a38.539,38.539,0,0,0-17.854,14.421l-14.421-20.945,10.3-19.571Z" transform="translate(-565.545 -205.372)" fill="#0c385d"/>
      <path id="Path_241" data-name="Path 241" d="M856.934,213.1c-6.759,2.812-13.847,2.7-21.224,0,2.147-3.664-1.062-6.534-2.709-10.233l27.546-.819C858.44,205.267,855.331,209.063,856.934,213.1Z" transform="translate(-527.283 -174.459)" fill="#fff"/>
      <path id="Path_242" data-name="Path 242" d="M736.966,57.7l-.32-.319.452-.452,2.7-3.148.343.294-2.709,3.161Z" transform="translate(-403.994 -29.495)" fill="#fff"/>
      <rect id="Rectangle_159" data-name="Rectangle 159" width="0.452" height="3.527" transform="translate(303.539 26.639) rotate(-50.195)" fill="#fff"/>
      <rect id="Rectangle_160" data-name="Rectangle 160" width="8.832" height="0.452" transform="matrix(0.537, -0.844, 0.844, 0.537, 329.007, 38.311)" fill="#fff"/>
      <rect id="Rectangle_161" data-name="Rectangle 161" width="0.452" height="8.832" transform="translate(303.946 31.1) rotate(-32.471)" fill="#fff"/>
      <path id="Path_243" data-name="Path 243" d="M875.935,392.768v8.181l-2.848,1.134c-.091.035-.182.066-.277.1l-9.542,2.808c-1.22.358-2.908-1.285-3.9-2.419a3.067,3.067,0,0,1-.081-4,3.4,3.4,0,0,1,.434-.418,2.816,2.816,0,0,1,1.26-.555l9.532-1.875a3.193,3.193,0,0,0,.973-.363Z" transform="translate(-541.316 -279.051)" fill="#fff"/>
      <path id="Path_244" data-name="Path 244" d="M892.267,278.6h-1.632c0-23.08-4.752-39.165-9.383-39.165l-.408-1.632c4.153,0,6.8,6.694,8.291,12.31C891.155,257.73,892.267,267.846,892.267,278.6Z" transform="translate(-553.521 -194.067)" fill="#e9e9e9"/>
      <path id="Path_245" data-name="Path 245" d="M821.043,273.882h-1.632c0-21.138,4.785-34.269,11.831-34.269l-.408,1.632C825.96,241.245,821.043,251.337,821.043,273.882Z" transform="translate(-519.83 -195.058)" fill="#e9e9e9"/>
      <circle id="Ellipse_17" data-name="Ellipse 17" cx="4.08" cy="4.08" r="4.08" transform="translate(333.85 80.864)" fill="#e9e9e9"/>
      <path id="Path_246" data-name="Path 246" d="M806.588,324.3h-1.632c0-5.849,3.294-10.607,7.343-10.607v1.632C809.15,315.326,806.588,319.352,806.588,324.3Z" transform="translate(-511.903 -235.685)" fill="#e9e9e9"/>
      <path id="Path_247" data-name="Path 247" d="M828.561,324.3h-1.632c0-4.949-2.562-8.975-5.712-8.975v-1.632C825.267,313.694,828.561,318.452,828.561,324.3Z" transform="translate(-520.821 -235.685)" fill="#e9e9e9"/>
      <circle id="Ellipse_18" data-name="Ellipse 18" cx="1.632" cy="1.632" r="1.632" transform="translate(305.293 87.392)" fill="#3f3d56"/>
      <circle id="Ellipse_19" data-name="Ellipse 19" cx="1.632" cy="1.632" r="1.632" transform="translate(292.237 87.392)" fill="#3f3d56"/>
      <path id="Path_248" data-name="Path 248" d="M327.659,177.382,299,182.235a2.9,2.9,0,0,1-3.283-2.083c-2.071-7.473-6.4-17.223-2.2-22.117a8.04,8.04,0,0,1,8.469-7.195h0c5.12-8.014,13.648-6.811,19.411-1.806,5.8,2,7.988,5.557,7.223,10.383a11.166,11.166,0,0,1,4.1,7.376,10.652,10.652,0,0,1-2.914,8.287Z" transform="translate(-230.448 -143.199)" fill="#2f2e41"/>
      <path id="Path_249" data-name="Path 249" d="M334.42,247.562,312.2,246.255c2.177-5,3.047-9.81,2.178-14.376h16.554C330.9,235.386,332.642,241.45,334.42,247.562Z" transform="translate(-241.665 -190.816)" fill="#ffb9b9"/>
      <path id="Path_250" data-name="Path 250" d="M301.06,720.752l-.911,12.458a3.966,3.966,0,0,0,4.2,4.248l6.4-.388a2.023,2.023,0,0,0,1.84-2.51l-3.552-14.207Z" transform="translate(-235.049 -458.707)" fill="#e6e6e6"/>
      <path id="Path_251" data-name="Path 251" d="M343.668,720.353l-3.552,14.207a2.023,2.023,0,0,0,1.84,2.51l6.4.388a3.966,3.966,0,0,0,4.2-4.248l-.911-12.458Z" transform="translate(-256.94 -458.707)" fill="#e6e6e6"/>
      <path id="Path_252" data-name="Path 252" d="M158.077,428.271l-8.635-.867-8.6-91.9-3.249,91.6-8.484-.3-14.3-126.86h54.63Z" transform="translate(-62.966 -164.496)" fill="#0c385d"/>
      <circle id="Ellipse_20" data-name="Ellipse 20" cx="16.499" cy="16.499" r="16.499" transform="translate(64.931 13.354)" fill="#ffb9b9"/>
      <path id="Path_253" data-name="Path 253" d="M336.091,176.409a49.256,49.256,0,0,0-19.68.153c-4.077,1.335-8.973,1.212-14.418.112V165.548l29.4.53Z" transform="translate(-236.066 -154.439)" fill="#2f2e41"/>
      <path id="Path_254" data-name="Path 254" d="M329.6,222.038c-7.218,3-14.786,2.88-22.664,0,2.292-3.913-1.134-6.977-2.893-10.927l29.415-.874C331.209,213.669,327.89,217.722,329.6,222.038Z" transform="translate(-237.19 -178.947)" fill="#fff"/>
      <rect id="Rectangle_162" data-name="Rectangle 162" width="0.452" height="3.766" transform="translate(64.539 30.258) rotate(-50.195)" fill="#fff"/>
      <rect id="Rectangle_163" data-name="Rectangle 163" width="9.431" height="0.452" transform="matrix(0.537, -0.844, 0.844, 0.537, 91.736, 42.742)" fill="#fff"/>
      <rect id="Rectangle_164" data-name="Rectangle 164" width="0.452" height="9.431" transform="translate(64.974 35.028) rotate(-32.471)" fill="#fff"/>
      <path id="Path_255" data-name="Path 255" d="M251.518,313.908l-12.634-7.842,10.774-31.556a14.887,14.887,0,0,1,6.507-7.729l3.629-2.1.316,31.834Z" transform="translate(-201.456 -208.805)" fill="#0c385d"/>
      <path id="Path_256" data-name="Path 256" d="M318.436,320.768l-1.869-16.009a56.165,56.165,0,0,1,4.766-24.148l1.743-23.525-19.168-7.841c-.059.391-.109.781-.165,1.172l-8.984,4.492L286,252.917l.049-2.8-17.426,7.842c5.763,26.791,2.62,54.613-7.29,87.474l22.957,6.277.191-11.023,20.459-1.461c.211,3.576.38,7.089.478,10.524,11.545,4.25,11.941,4.18,22.46-1.906A123.432,123.432,0,0,1,318.436,320.768Z" transform="translate(-213.765 -200.34)" fill="#0c385d"/>
      <path id="Path_257" data-name="Path 257" d="M259.917,170.1l-11.762-3.921-18.814-21.9,5.745-18.612,26.139,36.594Z" transform="translate(-125.775 -68.916)" fill="#0c385d"/>
      <path id="Path_258" data-name="Path 258" d="M371.32,395.068a3.272,3.272,0,0,0,3.908,2.465l9.985-2.261L383.77,388.9l-9.985,2.261a3.268,3.268,0,0,0-2.465,3.908Z" transform="translate(-274.042 -276.929)" fill="#fff"/>
      <path id="Path_259" data-name="Path 259" d="M391.309,365.071l5.663,10.455c9.526-2.657,17.781-11.032,25.7-20.911l-2.178-6.97-13.5,3.485Z" transform="translate(-285.049 -254.305)" fill="#0c385d"/>
      <path id="Path_260" data-name="Path 260" d="M71.79,172.661,82.662,174.6l24.851,35.335-13.2-3.106Z" transform="translate(-39.371 -94.691)" fill="#e6e6e6"/>
      <path id="Path_261" data-name="Path 261" d="M222.414,312.65a.925.925,0,0,0-.759,1.433l23.229,35.244a.922.922,0,0,0,.559.391l10.808,2.543a.923.923,0,0,0,.967-1.43l-25.5-36.263a.918.918,0,0,0-.593-.378l-8.533-1.524A1,1,0,0,0,222.414,312.65Z" transform="translate(-191.923 -235.113)" fill="#8b80f8"/>
      <path id="Path_262" data-name="Path 262" d="M255.608,367.2l.646,6.5,10.187-1.011a3.267,3.267,0,1,0-.645-6.5Z" transform="translate(-210.627 -264.468)" fill="#fff"/>
      <path id="Path_263" data-name="Path 263" d="M235.991,360.164a8.4,8.4,0,0,0,8.394,8.347h1.675l1.219-10.163-10.1-3.635Z" transform="translate(-199.869 -258.181)" fill="#0c385d"/>
      <path id="Path_264" data-name="Path 264" d="M211.011,66.722l-.319-.319.482-.482,2.882-3.363.343.294-2.893,3.376Z" transform="translate(-115.548 -34.308)" fill="#fff"/>
      <path id="Path_265" data-name="Path 265" d="M495,602.946h94.831V487.922c0-6.091-6-11.046-13.373-11.046H508.373C501,476.877,495,481.832,495,487.922Z" transform="translate(-341.915 -325.178)" fill="#e6e6e6"/>
      <path id="Path_266" data-name="Path 266" d="M511,615.743h80.381v-97.5c0-5.163-5.085-9.363-11.335-9.363h-57.71c-6.251,0-11.336,4.2-11.336,9.363Z" transform="translate(-350.69 -342.732)" fill="#fff"/>
      <path id="Path_267" data-name="Path 267" d="M488.251,457.053c-2.344,0-4.251,1.575-4.251,3.511V470.7c0,1.936,1.907,3.511,4.251,3.511h96.264c2.344,0,4.251-1.575,4.251-3.511V460.564c0-1.936-1.907-3.511-4.251-3.511Z" transform="translate(-335.883 -314.307)" fill="#3f3d56"/>
      <path id="Path_268" data-name="Path 268" d="M532.137,717.836a4.165,4.165,0,0,0-4.153,4.153h0a4.165,4.165,0,0,0,4.153,4.153h7.773v-8.306Z" transform="translate(-360.005 -457.326)" fill="#bcbcbc"/>
      <path id="Path_269" data-name="Path 269" d="M561.012,717.836h-7.56v8.306h7.561a4.165,4.165,0,0,0,4.153-4.153h0a4.165,4.165,0,0,0-4.153-4.153Z" transform="translate(-373.972 -457.326)" fill="#0c385d"/>
      <path id="Path_270" data-name="Path 270" d="M563.723,720.088a4.129,4.129,0,0,1,1.017,2.71h0a4.165,4.165,0,0,1-4.153,4.153h-7.135v.426h7.561a4.165,4.165,0,0,0,4.153-4.153h0a4.144,4.144,0,0,0-1.443-3.136Z" transform="translate(-373.972 -458.561)" opacity="0.2"/>
      <path id="Path_271" data-name="Path 271" d="M606.153,577.732a4.165,4.165,0,0,0-5.871-.173h0a4.165,4.165,0,0,0-.173,5.871l5.332,5.657,6.044-5.7Z" transform="translate(-398.942 -379.777)" fill="#bcbcbc"/>
      <path id="Path_272" data-name="Path 272" d="M623.868,596.65l-5.186-5.5-6.044,5.7,5.186,5.5a4.165,4.165,0,0,0,5.871.173h0A4.165,4.165,0,0,0,623.868,596.65Z" transform="translate(-406.431 -387.848)" fill="#0c385d"/>
      <path id="Path_273" data-name="Path 273" d="M624.987,605.885a4.129,4.129,0,0,1-1.274,2.6h0a4.165,4.165,0,0,1-5.871-.173l-4.894-5.192-.31.292,5.186,5.5a4.165,4.165,0,0,0,5.871.173h0A4.144,4.144,0,0,0,624.987,605.885Z" transform="translate(-406.431 -394.413)" opacity="0.2"/>
      <path id="Path_274" data-name="Path 274" d="M557.153,606.732a4.165,4.165,0,0,0-5.871-.173h0a4.165,4.165,0,0,0-.173,5.871l5.332,5.657,6.044-5.7Z" transform="translate(-372.07 -395.682)" fill="#bcbcbc"/>
      <path id="Path_275" data-name="Path 275" d="M574.868,625.65l-5.186-5.5-6.044,5.7,5.186,5.5a4.165,4.165,0,0,0,5.871.173h0a4.165,4.165,0,0,0,.174-5.871Z" transform="translate(-379.558 -403.752)" fill="#0c385d"/>
      <path id="Path_276" data-name="Path 276" d="M575.987,634.885a4.129,4.129,0,0,1-1.274,2.6h0a4.165,4.165,0,0,1-5.871-.173l-4.894-5.191-.31.292,5.186,5.5a4.165,4.165,0,0,0,5.871.173h0a4.143,4.143,0,0,0,1.292-3.2Z" transform="translate(-379.558 -410.317)" opacity="0.2"/>
      <path id="Path_277" data-name="Path 277" d="M606.153,633.732a4.165,4.165,0,0,0-5.871-.173h0a4.165,4.165,0,0,0-.173,5.871l5.332,5.657,6.044-5.7Z" transform="translate(-398.942 -410.489)" fill="#bcbcbc"/>
      <path id="Path_278" data-name="Path 278" d="M623.868,652.65l-5.186-5.5-6.044,5.7,5.186,5.5a4.165,4.165,0,0,0,5.871.173h0A4.165,4.165,0,0,0,623.868,652.65Z" transform="translate(-406.431 -418.56)" fill="#0c385d"/>
      <path id="Path_279" data-name="Path 279" d="M624.987,661.885a4.129,4.129,0,0,1-1.274,2.6h0a4.165,4.165,0,0,1-5.871-.173l-4.894-5.192-.31.292,5.186,5.5a4.165,4.165,0,0,0,5.871.173h0A4.144,4.144,0,0,0,624.987,661.885Z" transform="translate(-406.431 -425.124)" opacity="0.2"/>
      <path id="Path_280" data-name="Path 280" d="M630.956,684.112a4.165,4.165,0,0,0,.1-5.872h0a4.165,4.165,0,0,0-5.872-.1l-5.591,5.4,5.77,5.974Z" transform="translate(-410.246 -434.918)" fill="#bcbcbc"/>
      <path id="Path_281" data-name="Path 281" d="M612.467,702.078l5.438-5.253-5.771-5.974L606.7,696.1a4.165,4.165,0,0,0-.1,5.872h0a4.165,4.165,0,0,0,5.872.1Z" transform="translate(-402.48 -442.527)" fill="#0c385d"/>
      <path id="Path_282" data-name="Path 282" d="M609.811,703.228a4.129,4.129,0,0,1-2.614-1.243h0a4.165,4.165,0,0,1,.1-5.872l5.132-4.957-.3-.306L606.7,696.1a4.165,4.165,0,0,0-.1,5.872h0A4.144,4.144,0,0,0,609.811,703.228Z" transform="translate(-402.48 -442.527)" opacity="0.2"/>
      <path id="Path_283" data-name="Path 283" d="M564.956,655.112a4.165,4.165,0,0,0,.1-5.872h0a4.165,4.165,0,0,0-5.872-.1l-5.591,5.4,5.77,5.974Z" transform="translate(-374.05 -419.014)" fill="#bcbcbc"/>
      <path id="Path_284" data-name="Path 284" d="M546.467,673.078l5.438-5.252-5.771-5.974L540.7,667.1a4.165,4.165,0,0,0-.1,5.872h0A4.165,4.165,0,0,0,546.467,673.078Z" transform="translate(-366.284 -426.623)" fill="#0c385d"/>
      <path id="Path_285" data-name="Path 285" d="M543.811,674.229a4.129,4.129,0,0,1-2.614-1.243h0a4.165,4.165,0,0,1,.1-5.872l5.132-4.957-.3-.306L540.7,667.1a4.165,4.165,0,0,0-.1,5.872h0a4.144,4.144,0,0,0,3.217,1.253Z" transform="translate(-366.284 -426.623)" opacity="0.2"/>
      <path id="Path_286" data-name="Path 286" d="M658.956,620.112a4.165,4.165,0,0,0,.1-5.872h0a4.165,4.165,0,0,0-5.872-.1l-5.591,5.4,5.77,5.974Z" transform="translate(-425.602 -399.819)" fill="#bcbcbc"/>
      <path id="Path_287" data-name="Path 287" d="M640.467,638.078l5.438-5.253-5.771-5.974L634.7,632.1a4.165,4.165,0,0,0-.1,5.872h0a4.165,4.165,0,0,0,5.872.1Z" transform="translate(-417.836 -407.428)" fill="#0c385d"/>
      <path id="Path_288" data-name="Path 288" d="M637.811,639.228a4.129,4.129,0,0,1-2.614-1.243h0a4.165,4.165,0,0,1,.1-5.872l5.132-4.957-.3-.306L634.7,632.1a4.165,4.165,0,0,0-.1,5.872h0A4.144,4.144,0,0,0,637.811,639.228Z" transform="translate(-417.836 -407.428)" opacity="0.2"/>
      <path id="Path_289" data-name="Path 289" d="M643.153,699.732a4.165,4.165,0,0,0-5.871-.173h0a4.165,4.165,0,0,0-.173,5.871l5.332,5.657,6.044-5.7Z" transform="translate(-419.234 -446.685)" fill="#bcbcbc"/>
      <path id="Path_290" data-name="Path 290" d="M660.868,718.651l-5.186-5.5-6.044,5.7,5.186,5.5a4.165,4.165,0,0,0,5.871.173h0a4.165,4.165,0,0,0,.174-5.871Z" transform="translate(-426.723 -454.756)" fill="#0c385d"/>
      <path id="Path_291" data-name="Path 291" d="M661.987,727.885a4.129,4.129,0,0,1-1.274,2.6h0a4.165,4.165,0,0,1-5.871-.173l-4.894-5.192-.31.292,5.186,5.5a4.165,4.165,0,0,0,5.871.173h0A4.144,4.144,0,0,0,661.987,727.885Z" transform="translate(-426.722 -461.32)" opacity="0.2"/>
      <path id="Path_292" data-name="Path 292" d="M578.153,698.732a4.165,4.165,0,0,0-5.871-.173h0a4.165,4.165,0,0,0-.173,5.871l5.332,5.657,6.044-5.7Z" transform="translate(-383.587 -446.137)" fill="#bcbcbc"/>
      <path id="Path_293" data-name="Path 293" d="M595.868,717.651l-5.186-5.5-6.044,5.7,5.186,5.5a4.165,4.165,0,0,0,5.871.173h0A4.165,4.165,0,0,0,595.868,717.651Z" transform="translate(-391.075 -454.207)" fill="#0c385d"/>
      <path id="Path_294" data-name="Path 294" d="M596.987,726.885a4.129,4.129,0,0,1-1.274,2.6h0a4.165,4.165,0,0,1-5.871-.173l-4.894-5.191-.31.292,5.186,5.5a4.165,4.165,0,0,0,5.871.173h0A4.144,4.144,0,0,0,596.987,726.885Z" transform="translate(-391.075 -460.772)" opacity="0.2"/>
      <path id="Path_295" data-name="Path 295" d="M590.61,660.042a5.99,5.99,0,1,1-4.792-5.87A5.99,5.99,0,0,1,590.61,660.042Z" transform="translate(-387.781 -422.346)" fill="#0c385d"/>
      <path id="Path_296" data-name="Path 296" d="M591.638,654.173v11.739a6.049,6.049,0,0,1-2.4,0V654.173a6.049,6.049,0,0,1,2.4,0Z" transform="translate(-393.6 -422.346)" fill="#fff" opacity="0.2"/>
      <path id="Path_297" data-name="Path 297" d="M596.61,607.042a5.99,5.99,0,1,1-4.792-5.869,5.989,5.989,0,0,1,4.792,5.869Z" transform="translate(-391.072 -393.28)" fill="#0c385d"/>
      <path id="Path_298" data-name="Path 298" d="M597.638,601.172v11.739a6.047,6.047,0,0,1-2.4,0V601.172a6.051,6.051,0,0,1,2.4,0Z" transform="translate(-396.89 -393.28)" fill="#fff" opacity="0.2"/>
      <path id="Path_299" data-name="Path 299" d="M596.61,683.042a5.99,5.99,0,1,1-4.792-5.869A5.989,5.989,0,0,1,596.61,683.042Z" transform="translate(-391.071 -434.96)" fill="#0c385d"/>
      <path id="Path_300" data-name="Path 300" d="M597.638,677.172v11.739a6.047,6.047,0,0,1-2.4,0V677.172a6.053,6.053,0,0,1,2.4,0Z" transform="translate(-396.89 -434.96)" fill="#fff" opacity="0.2"/>
      <path id="Path_301" data-name="Path 301" d="M629.61,720.042a5.989,5.989,0,1,1-7.187-5.87,6.051,6.051,0,0,1,2.4,0A5.989,5.989,0,0,1,629.61,720.042Z" transform="translate(-409.169 -455.252)" fill="#0c385d"/>
      <path id="Path_302" data-name="Path 302" d="M630.638,714.172v11.739a6.049,6.049,0,0,1-2.4,0V714.172a6.053,6.053,0,0,1,2.4,0Z" transform="translate(-414.988 -455.251)" fill="#fff" opacity="0.2"/>
      <path id="Path_303" data-name="Path 303" d="M660.988,657.2a5.989,5.989,0,1,1-9.214,1.1,6.05,6.05,0,0,1,1.663-1.725A5.989,5.989,0,0,1,660.988,657.2Z" transform="translate(-427.383 -423.153)" fill="#0c385d"/>
      <path id="Path_304" data-name="Path 304" d="M654.569,657.86l8.452,8.147a6.049,6.049,0,0,1-1.663,1.725l-8.452-8.147A6.048,6.048,0,0,1,654.569,657.86Z" transform="translate(-428.515 -424.434)" fill="#fff" opacity="0.2"/>
      <path id="Path_305" data-name="Path 305" d="M664.988,686.2a5.989,5.989,0,1,1-9.214,1.1,6.05,6.05,0,0,1,1.663-1.725A5.989,5.989,0,0,1,664.988,686.2Z" transform="translate(-429.576 -439.057)" fill="#0c385d"/>
      <path id="Path_306" data-name="Path 306" d="M658.569,686.86l8.452,8.147a6.048,6.048,0,0,1-1.663,1.725l-8.452-8.147A6.05,6.05,0,0,1,658.569,686.86Z" transform="translate(-430.709 -440.338)" fill="#0c385d" opacity="0.2"/>
      <path id="Path_307" data-name="Path 307" d="M545.988,693.2a5.989,5.989,0,1,1-9.214,1.1,6.051,6.051,0,0,1,1.663-1.725A5.989,5.989,0,0,1,545.988,693.2Z" transform="translate(-364.314 -442.896)" fill="#0c385d"/>
      <path id="Path_308" data-name="Path 308" d="M539.569,693.86l8.452,8.147a6.048,6.048,0,0,1-1.663,1.725l-8.452-8.147A6.049,6.049,0,0,1,539.569,693.86Z" transform="translate(-365.446 -444.177)" fill="#fff" opacity="0.2"/>
      <rect id="Rectangle_166" data-name="Rectangle 166" width="2.258" height="16.708" transform="translate(160.084 142.746)" opacity="0.2"/>
      <rect id="Rectangle_167" data-name="Rectangle 167" width="2.258" height="16.708" transform="translate(173.18 142.746)" opacity="0.2"/>
      <rect id="Rectangle_168" data-name="Rectangle 168" width="2.258" height="16.708" transform="translate(186.275 142.746)" opacity="0.2"/>
      <rect id="Rectangle_169" data-name="Rectangle 169" width="2.258" height="16.708" transform="translate(199.371 142.746)" opacity="0.2"/>
      <rect id="Rectangle_170" data-name="Rectangle 170" width="2.258" height="16.708" transform="translate(212.467 142.746)" opacity="0.2"/>
      <rect id="Rectangle_171" data-name="Rectangle 171" width="2.258" height="16.708" transform="translate(225.563 142.746)" opacity="0.2"/>
      <rect id="Rectangle_172" data-name="Rectangle 172" width="2.258" height="16.708" transform="translate(238.658 142.746)" opacity="0.2"/>
    </g>
  </g>
</svg>
