<svg xmlns="http://www.w3.org/2000/svg" xmlns:xlink="http://www.w3.org/1999/xlink" width="297.989" height="269.994" viewBox="0 0 297.989 269.994">
  <defs>
    <linearGradient id="linear-gradient" x1="0.5" y1="1.001" x2="0.5" gradientUnits="objectBoundingBox">
      <stop offset="0" stop-color="gray" stop-opacity="0.251"/>
      <stop offset="0.54" stop-color="gray" stop-opacity="0.122"/>
      <stop offset="1" stop-color="gray" stop-opacity="0.102"/>
    </linearGradient>
  </defs>
  <g id="undraw_fatherhood_-7-i19" transform="translate(-44.924 -27.239)">
    <ellipse id="Ellipse_11" data-name="Ellipse 11" cx="131.098" cy="7.096" rx="131.098" ry="7.096" transform="translate(80.717 283.041)" fill="#63b9ff" opacity="0.1"/>
    <path id="Path_135" data-name="Path 135" d="M895.214,687.74s2.063,2.7-.955,6.765-5.506,7.516-4.51,10.061c0,0,4.551-7.573,8.268-7.678S899.288,692.295,895.214,687.74Z" transform="translate(-574.565 -449.779)" fill="#279259"/>
    <path id="Path_136" data-name="Path 136" d="M895.422,687.74a3.49,3.49,0,0,1,.421.846c3.615,4.25,5.54,8.215,2.067,8.313-3.24.094-7.122,5.882-8.05,7.344a2.876,2.876,0,0,0,.109.335s4.551-7.573,8.268-7.678S899.5,692.295,895.422,687.74Z" transform="translate(-574.773 -449.779)" opacity="0.1"/>
    <path id="Path_137" data-name="Path 137" d="M914.077,695.889c0,.951-.105,1.721-.237,1.721s-.241-.77-.241-1.721.135-.5.267-.5S914.077,694.938,914.077,695.889Z" transform="translate(-589.591 -454.485)" fill="#ffd037"/>
    <path id="Path_138" data-name="Path 138" d="M915.666,698.835c-.834.455-1.56.729-1.624.613s.564-.579,1.4-1.034.5-.124.568,0S916.5,698.38,915.666,698.835Z" transform="translate(-589.865 -456.296)" fill="#ffd037"/>
    <path id="Path_139" data-name="Path 139" d="M867.942,687.74s-2.063,2.7.955,6.765,5.5,7.516,4.51,10.061c0,0-4.555-7.573-8.268-7.678S863.864,692.295,867.942,687.74Z" transform="translate(-558.199 -449.779)" fill="#279259"/>
    <path id="Path_140" data-name="Path 140" d="M867.928,687.74a3.33,3.33,0,0,0-.421.846c-3.615,4.25-5.543,8.215-2.067,8.313,3.236.094,7.141,5.882,8.05,7.344-.03.113-.068.222-.109.335,0,0-4.555-7.573-8.268-7.678S863.85,692.295,867.928,687.74Z" transform="translate(-558.185 -449.779)" opacity="0.1"/>
    <path id="Path_141" data-name="Path 141" d="M865.43,695.889c0,.951.105,1.721.237,1.721s.241-.77.241-1.721-.135-.5-.267-.5S865.43,694.938,865.43,695.889Z" transform="translate(-559.524 -454.485)" fill="#ffd037"/>
    <path id="Path_142" data-name="Path 142" d="M861.078,698.835c.834.455,1.563.729,1.627.613s-.564-.579-1.4-1.034-.5-.124-.567,0S860.244,698.38,861.078,698.835Z" transform="translate(-556.492 -456.296)" fill="#ffd037"/>
    <path id="Path_143" data-name="Path 143" d="M867.18,726.409s5.773-.18,7.516-1.417,8.881-2.721,9.313-.752,8.674,9.88,2.157,9.933-15.142-1.015-16.878-2.071S867.18,726.409,867.18,726.409Z" transform="translate(-560.617 -471.964)" fill="#a8a8a8"/>
    <path id="Path_144" data-name="Path 144" d="M886.286,738.679c-6.517.053-15.142-1.015-16.878-2.071-1.323-.808-1.849-3.7-2.026-5.029h-.192s.376,4.653,2.1,5.713,10.361,2.123,16.878,2.071c1.879,0,2.533-.684,2.5-1.676C888.4,738.3,887.684,738.668,886.286,738.679Z" transform="translate(-560.623 -477.143)" opacity="0.2"/>
    <path id="Path_145" data-name="Path 145" d="M297.47,725.652a4.409,4.409,0,0,0,1.443-2.176,1.95,1.95,0,0,0-1.007-2.214c-.925-.353-1.913.289-2.665.936s-1.6,1.387-2.586,1.248a3.935,3.935,0,0,0,1.218-3.687,1.548,1.548,0,0,0-.338-.752c-.515-.549-1.443-.316-2.06.117-1.954,1.375-2.5,4.033-2.511,6.419a12.067,12.067,0,0,1-.034-2.631,2.718,2.718,0,0,0-.992-2.341,3.007,3.007,0,0,0-1.5-.353,3.142,3.142,0,0,0-2.458.7,2.417,2.417,0,0,0,.1,3.007,9.748,9.748,0,0,0,2.541,2.037,5.638,5.638,0,0,1,1.819,1.733,2.158,2.158,0,0,1,.135.312h5.506A15.318,15.318,0,0,0,297.47,725.652Z" transform="translate(-196.294 -469.095)" fill="#279259"/>
    <path id="Path_146" data-name="Path 146" d="M200.794,657.944s-5.284-17.93.988-31.126a28.322,28.322,0,0,0,2.3-17.773,47.438,47.438,0,0,0-2.514-8.336" transform="translate(-143.374 -395.457)" fill="none" stroke="#535461" stroke-width="2"/>
    <path id="Path_147" data-name="Path 147" d="M203.446,572.1c0,2.2-3.976,8.572-3.976,8.572s-3.98-6.389-3.98-8.572a3.98,3.98,0,0,1,7.956,0Z" transform="translate(-141.363 -375.193)" fill="#63b9ff"/>
    <path id="Path_148" data-name="Path 148" d="M220.877,600.85c-1.191,1.845-8,5.032-8,5.032s.124-7.516,1.319-9.358a3.98,3.98,0,0,1,6.678,4.326Z" transform="translate(-152.217 -391.767)" fill="#63b9ff"/>
    <path id="Path_149" data-name="Path 149" d="M217.714,653.737c-1.962.988-9.444.3-9.444.3s3.9-6.423,5.863-7.411a3.98,3.98,0,1,1,3.582,7.107Z" transform="translate(-149.34 -423.852)" fill="#63b9ff"/>
    <path id="Path_150" data-name="Path 150" d="M208.016,695.847c-1.766,1.308-9.256,1.879-9.256,1.879s2.759-6.987,4.51-8.294A3.98,3.98,0,1,1,208,695.821Z" transform="translate(-143.404 -450.272)" fill="#63b9ff"/>
    <path id="Path_151" data-name="Path 151" d="M188.519,613.951c1.575,1.53,8.918,3.119,8.918,3.119s-1.8-7.295-3.382-8.828a3.98,3.98,0,1,0-5.543,5.709Z" transform="translate(-136.207 -399.411)" fill="#63b9ff"/>
    <path id="Path_152" data-name="Path 152" d="M175.933,661.877c1.962.988,9.444.3,9.444.3s-3.9-6.419-5.863-7.411a3.98,3.98,0,1,0-3.582,7.108Z" transform="translate(-127.788 -428.933)" fill="#63b9ff"/>
    <path id="Path_153" data-name="Path 153" d="M172.929,711.7c1.766,1.3,9.253,1.879,9.253,1.879s-2.755-6.987-4.51-8.294a3.98,3.98,0,0,0-4.732,6.389Z" transform="translate(-126.378 -460.314)" fill="#63b9ff"/>
    <path id="Path_154" data-name="Path 154" d="M203.446,572.1c0,2.2-3.976,8.572-3.976,8.572s-3.98-6.389-3.98-8.572a3.98,3.98,0,0,1,7.956,0Z" transform="translate(-141.363 -375.193)" fill="#279259"/>
    <path id="Path_155" data-name="Path 155" d="M220.877,600.85c-1.191,1.845-8,5.032-8,5.032s.124-7.516,1.319-9.358a3.98,3.98,0,0,1,6.678,4.326Z" transform="translate(-152.217 -391.767)" fill="#279259"/>
    <path id="Path_156" data-name="Path 156" d="M217.714,653.737c-1.962.988-9.444.3-9.444.3s3.9-6.423,5.863-7.411a3.98,3.98,0,1,1,3.582,7.107Z" transform="translate(-149.34 -423.852)" fill="#279259"/>
    <path id="Path_157" data-name="Path 157" d="M208.016,695.847c-1.766,1.308-9.256,1.879-9.256,1.879s2.759-6.987,4.51-8.294A3.98,3.98,0,1,1,208,695.821Z" transform="translate(-143.404 -450.272)" fill="#279259"/>
    <path id="Path_158" data-name="Path 158" d="M188.519,613.951c1.575,1.53,8.918,3.119,8.918,3.119s-1.8-7.295-3.382-8.828a3.98,3.98,0,1,0-5.543,5.709Z" transform="translate(-136.207 -399.411)" fill="#279259"/>
    <path id="Path_159" data-name="Path 159" d="M175.933,661.877c1.962.988,9.444.3,9.444.3s-3.9-6.419-5.863-7.411a3.98,3.98,0,1,0-3.582,7.108Z" transform="translate(-127.788 -428.933)" fill="#279259"/>
    <path id="Path_160" data-name="Path 160" d="M172.929,711.7c1.766,1.3,9.253,1.879,9.253,1.879s-2.755-6.987-4.51-8.294a3.98,3.98,0,0,0-4.732,6.389Z" transform="translate(-126.378 -460.314)" fill="#279259"/>
    <path id="Path_161" data-name="Path 161" d="M171,739.581s6.434-1.278,8.148-2.98,9.433-4.683,10.29-2.556,11.575,9.365,4.284,10.643-17.149,1.7-19.291.849S171,739.581,171,739.581Z" transform="translate(-126.076 -478.221)" fill="#a8a8a8"/>
    <path id="Path_162" data-name="Path 162" d="M193.733,754.23c-7.287,1.278-17.149,1.7-19.291.853-1.631-.65-2.766-3.758-3.213-5.213l-.229.049s1.289,5.107,3.431,5.957,12,.425,19.291-.849c2.1-.376,2.706-1.236,2.48-2.33C196.034,753.407,195.3,753.955,193.733,754.23Z" transform="translate(-126.076 -488.559)" opacity="0.2"/>
    <path id="Path_163" data-name="Path 163" d="M513.272,198.259c2.018-2.255,1.229-5.769,1.229-5.769s-9.523-24.271-10.579-24.537-3.706-6.389-3.706-6.389-25.394-24.139-26.308-24.139-10.185-6.667-11.372-6.8a15.554,15.554,0,0,1-5.029-1.879c-1.984-1.079-22.091.135-22.884,1.067s-4.51,1.6-4.51,1.6-7.539.4-8.6,1.733-8.858,2.041-8.858,2.041-3.837,1.428,1.372,5.22h0c-1.669.263-3.619.466-5.6.609-.5.034-1,.068-1.5.094h-.3a4.916,4.916,0,0,0-1.849-2.484,15.51,15.51,0,0,0-1.755-.816,14.009,14.009,0,0,1-2.6-1.785,85.235,85.235,0,0,0-12.3-8.148,5.889,5.889,0,0,0-2.191-.823c-1.612-.154-3.052.977-4.63,1.357-2.774.665-5.57-1.026-8.422-1.052-3.563-.034-6.806,2.74-7.892,6.16-.4,1.267-.583,2.676-1.451,3.679-1.127,1.312-3.033,1.5-4.578,2.281a6.908,6.908,0,0,0-3.713,6.122v.03a3.537,3.537,0,0,0,.034.6,20.879,20.879,0,0,0,1.466,4.619A19.1,19.1,0,0,1,357.8,155.7a.245.245,0,0,1,0,.053c.023.274.041.549.053.827v.973c0,1.436-.049,2.883-.045,4.318v.883a5.07,5.07,0,0,0,.023.579v.2a5.107,5.107,0,0,0,.045.534.945.945,0,0,0,.019.229,3.871,3.871,0,0,0,.064.511l.034.241c.026.169.056.338.086.507l.045.233c.038.18.083.376.128.541.019.064.03.124.045.188q.1.376.226.722a10.591,10.591,0,0,0,7.013,6.611,6.513,6.513,0,0,0,1.86.233,3.865,3.865,0,0,0,2.875-1.146c.165.188.327.376.5.564a22.523,22.523,0,0,0,36.579-4.886c.395-.086.786-.165,1.18-.241.684-.128,1.372-.248,2.063-.376l.665-.105h0l.263-.045c3.382-.534,6.667-.891,9.02-1.127l-9.3,1.154s-2.255,10.827-2.905,12.026,2.255,3.2,2.255,3.2,2.514,3.067,2.514,4,2.909,3.6,3.7,5.066a2.255,2.255,0,0,0,.376.507,5.317,5.317,0,0,0-1.6.973c-1.838,1.74-1.225,4.792-2.067,7.182a12.181,12.181,0,0,1-2.687,3.9,5.329,5.329,0,0,0-.947,1.312,3.226,3.226,0,0,0-.252,1.007h0a4.913,4.913,0,0,0-.023.579v.068a2.185,2.185,0,0,0,.03.443v.192c.184,1.571.718,3.089.879,4.66a44.807,44.807,0,0,0,.289,4.683,6.983,6.983,0,0,0,.519,1.545l-5.382,6.013s-.034.3-.045.785c-4.487,3.724-11.425,10.752-8.948,16.95q.406,1.018.752,1.951c-1.823,1.161-2.424,2.541.308,3.916.432.218.849.406,1.259.575,1.4,4.115,1.951,5.262,4.3,2.229.252-.331.545-.752.864-1.206a9.146,9.146,0,0,0,5.22-1.6s9.256-.534,11.65.936c1.2.752,4.018.9,6.513.883a68.208,68.208,0,0,0,.376,8.05s-.4,11.335.661,13.736a31.573,31.573,0,0,1,1.646,6.536s-1.778,4-.722,6.133-.924,5.2-.924,5.2v7.866l.752-.053c-.056.53-.128,1.086-.222,1.616a4.712,4.712,0,0,1-1.049,2.687c-1.323.951-1.454,6.013-1.454,6.013s-2.116,6.137-1.721,7.2-2.51,3.2-1.849,4.8,2.014,11.733,3.191,14.657-2.4,2.135-2.4,2.135l1.056,7.6s1.06,7.734.267,8.268-5.355,4.4-2.217,6.667c.244.177.492.338.752.492a8.129,8.129,0,0,1-.026,1.052c-.06.6-.211,1.075-.545,1.127-.932.135-2.785,1.067-3.176.669s-2.631,1.007-4.886,1.466l-.312.049-2.928-.752a20.6,20.6,0,0,0-13.229-.489,5.064,5.064,0,0,0-3.153,1.917,4.147,4.147,0,0,0-.286,3.548c1.413,4.713,11.045,6.336,11.045,6.336s3.337.688,7.347,1.6h-.4a4.423,4.423,0,1,0,1.5.274,89.759,89.759,0,0,1,11.534,3.191,35.3,35.3,0,0,0,4.634,1.391,4.4,4.4,0,0,0,8.185,1.842c6.137,1.281,12.049,2.368,12.049,2.368l9.873.162h.068a4.4,4.4,0,1,0,.06,0l14.946.244a4.408,4.408,0,1,0,8.509.139l13.184.214,2.631-2.894a2.338,2.338,0,0,0,.259-.906c.079-.951-.413-2.394-3.781-3.007-.248-.045-7.118.064-13.188.165v-2.383s-.169-1.312-.274-2.856c-.03-.455-.056-.928-.068-1.394a3.616,3.616,0,0,0,1.128.515c2.514.4,5.953-6.934,5.953-6.934a38.2,38.2,0,0,1,.793-7.468c.793-3.334,2.255-14.537,2.255-14.537l3.18-13.466s1.315-27.473.654-28.54.8-2.935.8-2.935,1.056-5.867-.53-7.866.924-4,.924-4,.661-6.934-1.191-9.6.868-4.532.868-4.532l.661-10.8c2.777-2.8,5.288-19.468,5.423-23.068a14.815,14.815,0,0,1,1.323-5.87,15.526,15.526,0,0,0,2.116-4.668,27.67,27.67,0,0,1,2.255-5.731l3.439-12.8c1.387-5.164,1.034-8.982.113-11.7C513.561,198.943,513.418,198.594,513.272,198.259Zm-62.127.752c2.116,1.334,1.454,1.733,2.116,2.533s.132.665-.4,2-.132.936.132,2.4.135,1.466.135,1.466l.661.094-.921,6.19c-1.5.981-2.191,2.86-2.5,4.8-.887-1.158-1.781-2.36-2.582-3.48a5.132,5.132,0,0,0,.229-2.029c.03-2.255.872-4.408,1.259-6.63a16.751,16.751,0,0,0-.214-6.806,10.339,10.339,0,0,0-.883-2.417c.857.571,1.943,1.248,2.969,1.894ZM453.524,329.7s1.672-1.127,3.3-2.153c.545,3.957,1.06,8.073,1.424,11.793-.583-1.293-.988-2.172-.988-2.172a4.473,4.473,0,0,1-1.022-2.533c-.064-1.451-2.71-4.919-2.71-4.919Zm-9.918-137.07a3.2,3.2,0,0,1,1.413,1.1c-.466-.376-.936-.752-1.417-1.1ZM419.4,241.964c-1.526.481-6.7.41-9.771.229,1.15-1.966,2.293-3.965,3.307-5.758a12.219,12.219,0,0,0,1.823.327l10.068-8.843a17.34,17.34,0,0,0,11.688-.075l.274.428c.117.188.241.376.376.586l-.252-.41s-3.886,2.315-3.491,3.382-.526,3.732-1.981,6.588c-.376.714-.7,1.421-1.018,2.131C427.13,240.859,420.925,241.483,419.4,241.964Zm19.1,123.21-.056-1.056c.639-.139,1.06-.267,1.06-.267a41.6,41.6,0,0,0-.661-4.668c-.4-1.6-.192-1.067,1.357-2.255s0-14.657,0-14.657.752-.936,1.943,1.466,2.386,3.867,2.785,4-1.59,2.8,0,5.337a15.334,15.334,0,0,1,1.981,5.333s-1.056,4.236.53,6.118a2.331,2.331,0,0,0,.752.515v1.071a13.14,13.14,0,0,1-.034,1.432.53.53,0,0,1-.846.331c-.41-.267-3.007.331-2.83,2a12.3,12.3,0,0,1-2.075,1.943l-3.6-.932Z" transform="translate(-241.081 -99.803)" fill="url(#linear-gradient)"/>
    <path id="Path_164" data-name="Path 164" d="M490.315,390.526s-1.259,10.316,8.727,11.372l1.5-7.141-3.146-4.232L492.893,389Z" transform="translate(-325.354 -263.312)" fill="#63b9ff"/>
    <path id="Path_165" data-name="Path 165" d="M492.893,389l-2.578,1.522s-1.259,10.316,8.727,11.372" transform="translate(-325.354 -263.312)" opacity="0.1"/>
    <path id="Path_166" data-name="Path 166" d="M491.329,192.868s-6.739.413-13.5,1.533q-1.037.177-2.063.376c-.4.075-.789.154-1.18.241-3.54.729-6.765,1.676-8.644,2.886-2.255,1.447-3.007-2.45-3.078-7.866-.03-1.905.034-3.995.135-6.107.132-2.443.323-4.916.526-7.141.447-4.931.962-8.764.962-8.764s2.36,0,5.513-.109l1.015-.038c.988-.038,2.037-.09,3.093-.154.5-.026,1-.056,1.5-.094,2-.143,3.972-.346,5.637-.609a12.31,12.31,0,0,0,3.995-1.127C488.818,163.768,491.329,192.868,491.329,192.868Z" transform="translate(-308.249 -123.985)" fill="#f8bdc5"/>
    <path id="Path_167" data-name="Path 167" d="M612.121,335.253l-1.315,8.73s-2.868,3.57-2.492,5.555S612,439.216,612,439.216s6.483,37.033,4.232,41.8-.131,15.875-.131,15.875l13.492-2.116,4.51-161.9Z" transform="translate(-399.017 -228.277)" fill="#474463"/>
    <path id="Path_168" data-name="Path 168" d="M612.121,335.253l-1.315,8.73s-2.868,3.57-2.492,5.555S612,439.216,612,439.216s6.483,37.033,4.232,41.8-.131,15.875-.131,15.875l13.492-2.116,4.51-161.9Z" transform="translate(-399.017 -228.277)" opacity="0.1"/>
    <path id="Path_169" data-name="Path 169" d="M653.844,758.355c-.428.71-.395,2.8-.274,4.577.105,1.53.274,2.83.274,2.83v8.993s-14.417-5.025-22.354-10.316c-3.273-2.183-4.205-4.213-4.025-5.836a4.753,4.753,0,0,1,4.025-3.818c1.188,0,4.938-2.071,8.013-3.9,2.417-1.432,4.424-2.714,4.424-2.714S654.637,757.032,653.844,758.355Z" transform="translate(-410.978 -487.498)" fill="#575988"/>
    <path id="Path_170" data-name="Path 170" d="M673.871,758.355c-.428.71-.395,2.8-.274,4.577-3.206-1.5-13.131-11.132-14.067-12.049,2.417-1.432,4.423-2.714,4.423-2.714S674.664,757.032,673.871,758.355Z" transform="translate(-431.006 -487.498)" opacity="0.1"/>
    <path id="Path_171" data-name="Path 171" d="M671.165,326.863l-3.439,12.7a27.556,27.556,0,0,0-2.255,5.686,15.441,15.441,0,0,1-2.116,4.63,14.657,14.657,0,0,0-1.323,5.818c-.131,3.574-2.631,20.106-5.423,22.884l-.661,10.715a3.185,3.185,0,0,0-.793,4.51c1.838,2.661,1.191,9.523,1.191,9.523s-2.514,1.984-.924,3.969.526,7.806.526,7.806-1.454,1.849-.793,2.909-.654,28.307-.654,28.307l-3.179,13.357s-1.458,11.113-2.255,14.42a37.254,37.254,0,0,0-.793,7.4s-3.439,7.276-5.953,6.881-14.68-12.3-14.68-12.3l1.718-40.213s1.454-17.062.53-20.37-1.586-19.84-1.586-19.84L626.45,369.6l-18.5-29.1s-1.342-8.467,2.492-10.978l.7-4.574.628-4.157,21.959-2.383,33.595-8.727a10.831,10.831,0,0,1,3.946,5.585C672.2,317.952,672.552,321.74,671.165,326.863Z" transform="translate(-398.67 -213.802)" fill="#474463"/>
    <path id="Path_172" data-name="Path 172" d="M587.582,367.56s-15.608,19.167-14.946,13.811c.413-3.364-1.721-7.471-3.382-10.068-.981-1.545-1.793-2.556-1.793-2.556s9.523-17.457,10.053-15.078a19.414,19.414,0,0,0,2.687,4.446C583.188,362.242,587.582,367.56,587.582,367.56Z" transform="translate(-373.538 -241.12)" fill="#ffc1c8"/>
    <path id="Path_173" data-name="Path 173" d="M653.844,790.224V792.1s-14.417-5.025-22.354-10.316c-3.273-2.184-4.205-4.213-4.025-5.837,4.382,2.217,12.534,6.445,15,8.351C644.565,785.917,649.984,788.476,653.844,790.224Z" transform="translate(-410.978 -504.837)" fill="#fff" opacity="0.3"/>
    <circle id="Ellipse_12" data-name="Ellipse 12" cx="4.408" cy="4.408" r="4.408" transform="translate(235.063 283.706)" fill="#474463"/>
    <circle id="Ellipse_13" data-name="Ellipse 13" cx="4.408" cy="4.408" r="4.408" transform="translate(190.032 277.517)" fill="#474463"/>
    <path id="Path_174" data-name="Path 174" d="M567.269,775.506a2.326,2.326,0,0,1-.259.9l-2.631,2.868-36.771-.59-9.888-.162s-20.813-3.788-24.868-5.555-20-5-20-5-9.629-1.616-11.042-6.287a4.041,4.041,0,0,1,.286-3.518,5.073,5.073,0,0,1,3.153-1.905,20.783,20.783,0,0,1,13.229.489L540.116,772.6l.955.244s21.971-.41,22.414-.331C566.855,773.131,567.348,774.562,567.269,775.506Z" transform="translate(-307.435 -492.014)" fill="#0c385d"/>
    <path id="Path_175" data-name="Path 175" d="M567.269,780.084c-3.7-.481-10.147-1.191-11.808-.507,0,0-11.729-1.451-27.867,3.683l-9.873-.162s-20.813-3.788-24.868-5.555-20-5-20-5-9.629-1.616-11.042-6.287a4.041,4.041,0,0,1,.286-3.518c.658,1.917,1.924,4.694,3.946,5.472,3.176,1.221,16.228,3.709,16.228,3.709l25.834,6.325s14.916,3.236,20.723,1.128a66.683,66.683,0,0,1,11.275-2.217l.955.244s21.971-.41,22.414-.331C566.855,777.709,567.348,779.141,567.269,780.084Z" transform="translate(-307.435 -496.592)" fill="#0c385d" opacity="0.3"/>
    <path id="Path_176" data-name="Path 176" d="M603.411,772.145a12.213,12.213,0,0,1-.207,1.65s-14.612.522-22.219-.6c-2.1-.312-3.288-.985-3.878-1.789a2.747,2.747,0,0,1-.274-2.631,4.14,4.14,0,0,1,.319-.707c.568-.992,1.439-1.695,1.917-1.6,1.323.267,3.593-2.447,3.593-2.447-.18-1.657,2.424-2.255,2.83-1.984a.53.53,0,0,0,.846-.331c.026-.124.034-.722.034-1.421,0-1.165-.034-2.631-.034-2.631l14.687,1.785.583,2.807c.534,2.5,1.278,5.942,1.6,7.118A8.494,8.494,0,0,1,603.411,772.145Z" transform="translate(-379.254 -493.415)" fill="#474463"/>
    <path id="Path_177" data-name="Path 177" d="M604.224,794.835a12.214,12.214,0,0,1-.207,1.65s-14.612.522-22.219-.605c-2.1-.312-3.288-.985-3.878-1.789a23.961,23.961,0,0,1,6.058.2C586.218,794.85,599.616,794.85,604.224,794.835Z" transform="translate(-380.067 -516.105)" opacity="0.1"/>
    <path id="Path_178" data-name="Path 178" d="M523.732,760.585a.751.751,0,0,1-.319.706c-1.849,1.428-10.722-.124-10.722-.124s-18.13-1.128-20.839-2.977a1.912,1.912,0,0,1-.6-.628c-1.127-2.037,2.954-5.457,3.307-5.457s5.228-.665,5.555-.729c2.255-.455,4.51-1.853,4.886-1.454s2.255-.53,3.172-.661c.334-.049.488-.522.545-1.127a12.526,12.526,0,0,0-.083-2.454l14.48,3.9.128,2.307.417,7.682.053.943A.343.343,0,0,1,523.732,760.585Z" transform="translate(-325.849 -485.943)" fill="#474463"/>
    <path id="Path_179" data-name="Path 179" d="M513.057,780.9s-18.13-1.128-20.839-2.977a1.914,1.914,0,0,1-.6-.628c3.672.3,9.794.808,10.9,1.09,1.59.376,10.523.924,10.523.924h10.985l.053.943C524.557,782.919,513.057,780.9,513.057,780.9Z" transform="translate(-326.2 -505.68)" opacity="0.1"/>
    <circle id="Ellipse_14" data-name="Ellipse 14" cx="4.408" cy="4.408" r="4.408" transform="translate(167.956 277.517)" fill="#474463"/>
    <circle id="Ellipse_15" data-name="Ellipse 15" cx="4.408" cy="4.408" r="4.408" transform="translate(215.836 286.668)" fill="#474463"/>
    <path id="Path_180" data-name="Path 180" d="M485.043,394.751s-.834,1.5-2.09,3.736c-3.007,5.307-8.415,14.713-10.741,17.69-3.307,4.232-3.04.267-6.614-8.6-2.653-6.592,5.513-14.135,9.88-17.562,1.5-1.191,2.556-1.879,2.556-1.879Z" transform="translate(-309.634 -262.775)" fill="#f8bdc5"/>
    <path id="Path_181" data-name="Path 181" d="M500.581,432.83s-10.978.924-13.094,1.586-11.241.263-12.026,0-16.4,3.307-9.26,6.878,11.65,0,11.65,0,9.26-.53,11.65.928,11.109.661,11.109.661Z" transform="translate(-309.17 -290.669)" fill="#ffc1c8"/>
    <path id="Path_182" data-name="Path 182" d="M476.84,188.634c1.353,3.461.507,6.475-1.086,9.568-3.991.752-7.746,1.785-9.835,3.127-5.953,3.837-1.454-29.893-1.454-29.893s2.879,0,6.528-.147C469.887,176.334,474.074,181.569,476.84,188.634Z" transform="translate(-308.233 -127.422)" opacity="0.1"/>
    <path id="Path_183" data-name="Path 183" d="M426.093,177.935a22.549,22.549,0,1,1-2.255-9.858,22.549,22.549,0,0,1,2.255,9.858Z" transform="translate(-257.148 -117.475)" fill="#f8bdc5"/>
    <path id="Path_184" data-name="Path 184" d="M676.977,315.235a5.164,5.164,0,0,1-3.007,2.086c-5.16,1.454-41.536,10.185-43.915,9.655-2.1-.466-11.117-1.763-13.2-2.06l.628-4.157,21.959-2.383,33.595-8.727A10.851,10.851,0,0,1,676.977,315.235Z" transform="translate(-404.372 -213.783)" opacity="0.1"/>
    <path id="Path_185" data-name="Path 185" d="M517.257,192.829a126.783,126.783,0,0,0-12.834,1.428.883.883,0,0,0-.023-.59l8.794-1.086s-1.285-20.67-6.013-25.624a12.31,12.31,0,0,0,3.995-1.127C514.746,163.729,517.257,192.829,517.257,192.829Z" transform="translate(-334.177 -123.946)" opacity="0.1"/>
    <path id="Path_186" data-name="Path 186" d="M500.8,143.947s7.806-.7,8.862-2.026,8.6-1.717,8.6-1.717,3.7-.661,4.51-1.59,20.9-2.116,22.88-1.056a15.893,15.893,0,0,0,5.029,1.853c1.191.135,10.448,6.742,11.372,6.742S588.359,170.1,588.359,170.1s2.631,6.085,3.706,6.348,10.583,24.338,10.583,24.338,1.323,5.818-3.833,7.276-41.536,10.185-43.915,9.655-13.624-2.116-13.624-2.116.132,0-.132-1.454-.661-1.06-.135-2.383,1.06-1.191.4-1.984,0-1.191-2.116-2.514-4.51-2.777-4.63-3.172-1.984-3.044-2.909-3.176-26.853-7.407-26.853-7.407l-6.085-1.984s-2.909-1.984-2.255-3.172,2.905-11.932,2.905-11.932l9.3-1.146s-1.387-22.4-6.6-26.157S500.8,143.947,500.8,143.947Z" transform="translate(-329.225 -106.107)" fill="#0c385d"/>
    <path id="Path_187" data-name="Path 187" d="M502.315,394.751s-.834,1.5-2.09,3.736c-.2-6.9-5.021-8.238-7.475-8.467,1.5-1.191,2.556-1.879,2.556-1.879Z" transform="translate(-326.906 -262.775)" opacity="0.1"/>
    <path id="Path_188" data-name="Path 188" d="M494.378,272.34l.639,3.57s2.514,3.044,2.514,3.969,2.909,3.57,3.706,5.025,3.57,1.721,2.51,4.236-7.141,21.692-7.141,21.692l-6.216,6.878s10.316-.928,8.727,11.372l13.36-11.65L522.94,298.4s-10.185-19.31-10.579-20.9S494.378,272.34,494.378,272.34Z" transform="translate(-325.433 -190.495)" fill="#0c385d"/>
    <path id="Path_189" data-name="Path 189" d="M583.31,278.884s8.464-5.953,8.464-6.615S583.31,278.884,583.31,278.884Z" transform="translate(-383.431 -190.424)" opacity="0.1"/>
    <path id="Path_190" data-name="Path 190" d="M621,302.99s4.51-1.06,4.886-3.439S621,302.99,621,302.99Z" transform="translate(-406.956 -207.123)" opacity="0.1"/>
    <path id="Path_191" data-name="Path 191" d="M630.82,319.63s6.351-3.146,6.085-3.691S630.82,319.63,630.82,319.63Z" transform="translate(-413.086 -217.679)" opacity="0.1"/>
    <path id="Path_192" data-name="Path 192" d="M717.958,272.23s-2.631,1.717-1.849,3.326S717.958,272.23,717.958,272.23Z" transform="translate(-466.231 -190.426)" opacity="0.1"/>
    <path id="Path_193" data-name="Path 193" d="M731.954,274.1s-7.494,7.141-5.8,7.276S731.954,274.1,731.954,274.1Z" transform="translate(-472.436 -191.594)" opacity="0.1"/>
    <path id="Path_194" data-name="Path 194" d="M696.64,568.68s9.655,1.853,9.918,2.514S696.64,568.68,696.64,568.68Z" transform="translate(-454.169 -375.464)" opacity="0.1"/>
    <path id="Path_195" data-name="Path 195" d="M705.79,585.57s5.156,3.176,5.288,4.1S705.79,585.57,705.79,585.57Z" transform="translate(-459.881 -386.006)" opacity="0.1"/>
    <path id="Path_196" data-name="Path 196" d="M702.62,604.58s.793,3.57,2.116,4.1S702.62,604.58,702.62,604.58Z" transform="translate(-457.902 -397.872)" opacity="0.1"/>
    <path id="Path_197" data-name="Path 197" d="M423.68,167.917a.254.254,0,0,1-.019.117c-.18,1.176-.661,2.45-1.766,2.841a2.811,2.811,0,0,1-2-.184c-1.879-.823-3.551-2.8-5.558-2.323a3.329,3.329,0,0,0-2.1,1.842,9.243,9.243,0,0,0-.752,2.018,7.218,7.218,0,0,0-.1,4.476,4.568,4.568,0,0,0,.338.661c.534.853,1.285,1.578,1.811,2.439.654,1.075.823,2.687-.2,3.424a2.063,2.063,0,0,1-1.751.244,10.419,10.419,0,0,1-2.138-.947c-1.33-.7-3.007-1.127-4.269-.323-.436.271-.785.661-1.2.947a4.337,4.337,0,0,1-2.905.605c-2.39-.244-3.285-1.759-5.111-2.931-1.338-.864-4.134-1.233-4.931.534-.511,1.127.248,2.548-.252,3.7s-2.09,1.5-2.826,2.571c-.97,1.406-.068,3.439-.778,5a2.548,2.548,0,0,1-.432.661,22.617,22.617,0,0,1,31.982-31.945l1.015-.038c.988-.038,2.037-.09,3.093-.154a8.613,8.613,0,0,1,.582,1.65,13.755,13.755,0,0,1,.267,5.119Z" transform="translate(-256.967 -117.431)" opacity="0.1"/>
    <path id="Path_198" data-name="Path 198" d="M374.631,167.426c-.515,1.127.244,2.548-.252,3.694s-2.1,1.5-2.826,2.571c-.973,1.409-.071,3.443-.778,5-.812,1.778-3.262,2.056-5.141,1.537a10.523,10.523,0,0,1-7.013-6.558c-1.274-3.627-.451-7.618-.782-11.448a18.99,18.99,0,0,0-1.052-4.807,20.393,20.393,0,0,1-1.466-4.581A6.81,6.81,0,0,1,359,146.14c1.548-.752,3.454-.966,4.581-2.255.864-1,1.049-2.394,1.451-3.653,1.086-3.382,4.329-6.141,7.892-6.107,2.849.023,5.637,1.7,8.422,1.041,1.575-.376,3.007-1.5,4.63-1.342a5.875,5.875,0,0,1,2.191.816,85.383,85.383,0,0,1,12.293,8.08,13.841,13.841,0,0,0,2.6,1.77,16.161,16.161,0,0,1,1.755.808,5.659,5.659,0,0,1,2.195,3.574,13.654,13.654,0,0,1,.278,5.119c-.165,1.206-.639,2.559-1.785,2.962a2.807,2.807,0,0,1-2.007-.192c-1.879-.816-3.548-2.792-5.555-2.319-1.639.376-2.428,2.232-2.856,3.86a7.175,7.175,0,0,0-.1,4.48c.481,1.165,1.5,2.018,2.146,3.1s.827,2.691-.2,3.424c-1.127.816-2.657-.053-3.893-.7-1.323-.7-3.007-1.127-4.266-.327-.432.271-.782.661-1.2.951a4.375,4.375,0,0,1-2.9.6c-2.394-.244-3.288-1.759-5.111-2.931C378.22,166.024,375.431,165.656,374.631,167.426Z" transform="translate(-241.107 -104.027)" fill="#474463"/>
    <path id="Path_199" data-name="Path 199" d="M580.21,358.091c-.1.564-.876.628-1.033,1.176-1.5,5.3-4.811,10.072-9.914,12.026-.981-1.545-1.793-2.556-1.793-2.556s9.523-17.457,10.053-15.078A19.672,19.672,0,0,0,580.21,358.091Z" transform="translate(-373.544 -241.114)" opacity="0.1"/>
    <path id="Path_200" data-name="Path 200" d="M544.121,327.107a17.4,17.4,0,1,1-5.1-12.362,17.461,17.461,0,0,1,5.1,12.362Z" transform="translate(-337.173 -213.783)" fill="#ffc1c8"/>
    <path id="Path_201" data-name="Path 201" d="M552.391,749.607l.128,2.308c-1.53.338-4.438.782-6.133-.256-2.191-1.342-5.427-1.669-8.392-3.5a12.525,12.525,0,0,0-.083-2.454Z" transform="translate(-355.094 -485.962)" opacity="0.1"/>
    <path id="Path_202" data-name="Path 202" d="M617.762,762.238c-.1.515-.2.831-.2.831s-11.669-1.2-15.033-2.807c0-1.165-.034-2.631-.034-2.631l14.687,1.785Z" transform="translate(-395.409 -493.403)" opacity="0.1"/>
    <path id="Path_203" data-name="Path 203" d="M571.993,596.522c-.793,2.116-1.191,2.514-.395,3.57s.395,6.614-.868,7.141-6.013,3.7-6.013,3.7,2.631,3.439,2.71,4.886a4.426,4.426,0,0,0,1.022,2.514s4.074,8.73,4.886,11.508,1.556,7.141,1.556,7.141-1.424,3.969-.44,6.22,0,5.555,0,5.555-14.21-1.454-15.785-3.322-.526-6.07-.526-6.07a15.194,15.194,0,0,0-1.984-5.292c-1.59-2.514.376-5.156,0-5.292s-1.59-1.586-2.785-3.965-1.939-1.458-1.939-1.458,1.548,13.36,0,14.552-1.759.661-1.36,2.255a40.887,40.887,0,0,1,.661,4.63s-4.762,1.454-7.141,0-5.96-1.721-9.106-3.969,1.424-6.085,2.217-6.614-.263-8.2-.263-8.2l-1.06-7.539s3.57.793,2.4-2.116-2.529-12.962-3.191-14.548,2.255-3.706,1.853-4.762,1.718-7.141,1.718-7.141.135-5.025,1.454-5.968a4.665,4.665,0,0,0,1.048-2.665,33.131,33.131,0,0,0,.41-4.329s30.287-2.116,35.181.793c2.2,1.308,2.048,3.717,1.127,6.156-1.127,2.977-3.443,6.013-4.025,7.114C572.26,593.038,572.786,594.406,571.993,596.522Z" transform="translate(-352.275 -380.159)" fill="#575988"/>
    <path id="Path_204" data-name="Path 204" d="M589.367,583.895c-3.758,1.056-8.764,2.608-9.58,3.5-1.323,1.458-5.821-8.2-5.821-8.2s.267,7.261-5.686,4.224c-5.153-2.631-13.469-2.285-15.619-2.142a33.088,33.088,0,0,0,.41-4.329s30.288-2.116,35.181.793C590.453,579.047,590.3,581.456,589.367,583.895Z" transform="translate(-364.3 -380.159)" opacity="0.1"/>
    <path id="Path_205" data-name="Path 205" d="M571.375,380.17s2.631-3.176,3.176-1.984,3.649,3.57,3.649,3.57.891,2.777,2.458,3.176S594,401.2,594,401.2l-4.235,8.6-3.439,20.9s.15,3.307-.785,4.51-4.51.925-2.853,2.379,4.036,2.777,5.359,9.4a61.488,61.488,0,0,0,2.909,10.448s-12.432,3.176-13.755,4.63-5.821-8.2-5.821-8.2.267,7.257-5.686,4.224-16.138-2.108-16.138-2.108v-7.817s1.984-3.044.928-5.16.722-6.085.722-6.085a31.154,31.154,0,0,0-1.65-6.479c-1.06-2.379-.661-13.624-.661-13.624s-.8-7.276-.071-10.982a32.847,32.847,0,0,1,3.258-9.2c1.454-2.834,2.375-5.479,1.981-6.539s3.491-3.352,3.491-3.352l2.154,3.484.549,2.082S571.642,384.139,571.375,380.17Z" transform="translate(-361.71 -256.395)" fill="#dce6f2"/>
    <path id="Path_206" data-name="Path 206" d="M609.489,432.83s7.407,7.272,8.2,8.464,3.45,7.385.011,9.264-16.912,4.777-18.25,3.777-9.4,1.127-9.4,1.127-13.477,3.307-10.568-2.116,9.79-4.51,9.79-4.51,11.117-.019,12.3-1.128,10.147-3.488,8.118-8.388S609.489,432.83,609.489,432.83Z" transform="translate(-380.788 -290.669)" fill="#ffc1c8"/>
    <path id="Path_207" data-name="Path 207" d="M576.117,519.41s-17.254,14.946-15.536,14.946S576.117,519.41,576.117,519.41Z" transform="translate(-369.169 -344.711)" opacity="0.1"/>
    <path id="Path_208" data-name="Path 208" d="M625.168,535.6s-5.483,1.319-4.423,2.116S625.168,535.6,625.168,535.6Z" transform="translate(-406.712 -354.816)" opacity="0.1"/>
    <path id="Path_209" data-name="Path 209" d="M581.29,439.16s6.844.613,5.637,2.755S581.29,439.16,581.29,439.16Z" transform="translate(-382.17 -294.621)" opacity="0.1"/>
    <path id="Path_210" data-name="Path 210" d="M569.255,610.09s-.928,2.691,0,4.134,0,4.886,0,4.886v12.026s-.128,8.73,3.04,11.771Z" transform="translate(-374.401 -401.311)" opacity="0.1"/>
    <path id="Path_211" data-name="Path 211" d="M545.83,709.81a22.591,22.591,0,0,1,2.116,3.7C548.213,714.5,545.83,709.81,545.83,709.81Z" transform="translate(-360.037 -463.554)" opacity="0.1"/>
    <path id="Path_212" data-name="Path 212" d="M547.06,694.59s4.3-.793,4.961-.331S547.06,694.59,547.06,694.59Z" transform="translate(-360.805 -453.758)" opacity="0.1"/>
    <path id="Path_213" data-name="Path 213" d="M543.2,738.49s-1.259.131,1.255,1.5,7.407,3.108,7.471,2.514S543.2,738.49,543.2,738.49Z" transform="translate(-358.196 -481.456)" opacity="0.1"/>
    <path id="Path_214" data-name="Path 214" d="M592.69,703.366c.443,0,5.979-.331,5.66.53S592.69,703.366,592.69,703.366Z" transform="translate(-389.286 -459.493)" opacity="0.1"/>
    <path id="Path_215" data-name="Path 215" d="M612.7,680.416s1.255-2.18,1.717-1.255S612.7,680.416,612.7,680.416Z" transform="translate(-401.776 -444.281)" opacity="0.1"/>
    <path id="Path_216" data-name="Path 216" d="M544.128,327.062a17.4,17.4,0,0,1-.669,4.8,2.615,2.615,0,0,1-2.886.177,7.774,7.774,0,0,1-2.424-2.631,5.99,5.99,0,0,0-2.582-2.428,4.7,4.7,0,0,0-4.266.887c-1.233.887-2.217,2.06-3.382,3.007a5.5,5.5,0,0,1-4.134,1.481,7.1,7.1,0,0,1-2.631-1.21,23.612,23.612,0,0,0-3.574-2.293c-1.237-.477-2.255.376-3.431.376-.936.338-1.954,1.109-1.766,2.082a3.226,3.226,0,0,0,.481,1.007,4.228,4.228,0,0,1-.552,4.656,17.461,17.461,0,1,1,31.821-9.933Z" transform="translate(-337.18 -213.738)" opacity="0.1"/>
    <path id="Path_217" data-name="Path 217" d="M508.458,317.283c-.936.338-1.954,1.109-1.77,2.086a3.348,3.348,0,0,0,.485,1,4.218,4.218,0,0,1-1.879,5.679,1.665,1.665,0,0,1-1.045.165,1.849,1.849,0,0,1-.752-.451,6.957,6.957,0,0,1-2.168-3.739,45.071,45.071,0,0,1-.289-4.641c-.165-1.545-.7-3.067-.879-4.623a4.288,4.288,0,0,1,.237-2.285,5.318,5.318,0,0,1,.947-1.3,12.2,12.2,0,0,0,2.687-3.871c.838-2.375.229-5.4,2.063-7.141a11.466,11.466,0,0,1,3.089-1.6,21.757,21.757,0,0,0,2.837-1.8c3.4-2.338,7.535-4.134,11.579-3.307a16.469,16.469,0,0,1,4.589,1.879,51.6,51.6,0,0,1,7.516,5.051,11.7,11.7,0,0,1,2.631,2.7,9.375,9.375,0,0,1,1.15,2.875,16.477,16.477,0,0,1,.218,6.765c-.376,2.2-1.229,4.341-1.263,6.577a4.25,4.25,0,0,1-.327,2.21,2.449,2.449,0,0,1-3.21.556,7.657,7.657,0,0,1-2.42-2.631,5.939,5.939,0,0,0-2.582-2.424,4.694,4.694,0,0,0-4.266.883c-1.233.883-2.214,2.06-3.382,3.007a5.481,5.481,0,0,1-4.134,1.481,7.09,7.09,0,0,1-2.631-1.206,23.188,23.188,0,0,0-3.57-2.293C510.687,316.419,509.631,317.283,508.458,317.283Z" transform="translate(-331.493 -202.302)" fill="#794f6a"/>
    <path id="Path_218" data-name="Path 218" d="M602.471,432.83s-19.441,17.987-15.476,26.98,21.422-6.878,21.422-6.878l6.224-14.4Z" transform="translate(-385.398 -290.669)" fill="#f8bdc5"/>
    <g id="Group_4" data-name="Group 4" transform="translate(168.618 105.003)" opacity="0.1">
      <path id="Path_219" data-name="Path 219" d="M505.3,358.536a1.654,1.654,0,0,1-1.041.165,1.8,1.8,0,0,1-.752-.455,6.967,6.967,0,0,1-2.172-3.736c-.319-1.522-.12-3.1-.286-4.645s-.7-3.063-.879-4.623a.993.993,0,0,0-.019-.233,5.949,5.949,0,0,0,.019,1.293c.18,1.556.714,3.059.879,4.623a46.059,46.059,0,0,0,.286,4.641,6.964,6.964,0,0,0,2.172,3.739,1.826,1.826,0,0,0,.752.451,1.654,1.654,0,0,0,1.041-.165,4.245,4.245,0,0,0,2.315-4.337,4.168,4.168,0,0,1-2.315,3.281Z" transform="translate(-500.13 -340.857)"/>
      <path id="Path_220" data-name="Path 220" d="M550.591,336.324c-.376,2.2-1.229,4.341-1.259,6.577a4.213,4.213,0,0,1-.331,2.21,2.444,2.444,0,0,1-3.206.556,7.671,7.671,0,0,1-2.424-2.631,5.917,5.917,0,0,0-2.582-2.424,4.691,4.691,0,0,0-4.262.887c-1.233.887-2.217,2.056-3.382,3.007a5.5,5.5,0,0,1-4.134,1.484,7.157,7.157,0,0,1-2.631-1.21,23.478,23.478,0,0,0-3.57-2.293c-1.233-.477-2.255.376-3.431.376-.936.342-1.954,1.109-1.774,2.09a1.56,1.56,0,0,0,.1.308,2.924,2.924,0,0,1,1.672-1.338c1.173,0,2.21-.842,3.431-.376a22.644,22.644,0,0,1,3.57,2.293,6.981,6.981,0,0,0,2.631,1.206,5.423,5.423,0,0,0,4.134-1.481c1.158-.958,2.153-2.142,3.382-3.007a4.741,4.741,0,0,1,4.262-.883,5.964,5.964,0,0,1,2.582,2.424,7.985,7.985,0,0,0,2.424,2.631,2.42,2.42,0,0,0,3.206-.556,4.487,4.487,0,0,0,.331-2.21c.03-2.236.872-4.375,1.259-6.577a16.633,16.633,0,0,0,.241-3.427,16.684,16.684,0,0,1-.241,2.364Z" transform="translate(-511.024 -333.96)"/>
    </g>
    <path id="Path_221" data-name="Path 221" d="M562.939,176.807s-7.141,12.962,2.631,19.577,10.715,5.953,10.715,5.953a9.511,9.511,0,0,0,0,1.984c.135.4,2.631,1.319,2.631,1.319s3.04,4.886,7.4,7.013,5.16,7.141,5.16,7.141,0,1.721,2.255,3.307,3.991,6.216,3.991,6.216v4.236c0,.661.793,2.631-.925,2.841s-.267,4.168-.267,4.168-1.849,2.255-1.454,3.307-.793,3.172-.793,3.172-1.454,2.116-1.323,2.514-1.586,1.853-1.191,2.777-1.981,2.116-1.586,3.176-1.691,1.586-1.691,1.586l-5.716,13.229s12.026,2.631,15.131,9.257L613.07,251.8s8.464-20.764,8.73-22.087-1.853-6.085-1.853-6.085L609.631,204.84l-15.476-21.824S581.854,156.836,562.939,176.807Z" transform="translate(-369.145 -126.178)" opacity="0.1"/>
    <path id="Path_222" data-name="Path 222" d="M588.415,191.891s-18.581,6.521-8.794,13.135,10.715,5.949,10.715,5.949a9.778,9.778,0,0,0,0,1.984c.131.395,2.631,1.323,2.631,1.323s3.044,4.886,7.407,7.013,5.16,7.141,5.16,7.141,0,1.721,2.255,3.307,3.969,6.216,3.969,6.216v4.232c0,.661.793,2.631-.928,2.845s-.263,4.168-.263,4.168-1.853,2.255-1.454,3.3-.793,3.176-.793,3.176S606.864,257.8,607,258.2s-1.59,1.853-1.191,2.777-1.984,2.116-1.586,3.176-1.695,1.586-1.695,1.586l-5.713,13.225s9.907.511,13.034,7.141L627.1,260.46s8.467-20.764,8.73-22.087-1.845-6.1-1.845-6.1l-10.316-18.791-23.534-13.575S607.33,171.916,588.415,191.891Z" transform="translate(-379.351 -135.794)" opacity="0.1"/>
    <path id="Path_223" data-name="Path 223" d="M565.759,176.809s-7.141,12.962,2.631,19.577,10.715,5.953,10.715,5.953a9.783,9.783,0,0,0,0,1.984c.132.4,2.631,1.319,2.631,1.319s3.044,4.886,7.408,7.013,5.16,7.141,5.16,7.141,0,1.721,2.255,3.307,3.987,6.216,3.987,6.216v4.236c0,.661.793,2.631-.928,2.841s-.263,4.168-.263,4.168-1.853,2.255-1.454,3.307-.793,3.172-.793,3.172-1.454,2.116-1.323,2.514-1.59,1.853-1.191,2.777-1.984,2.116-1.586,3.176-1.695,1.586-1.695,1.586L585.6,270.325s12,2.631,15.127,9.257L615.886,251.8s8.467-20.764,8.73-22.087-1.853-6.085-1.853-6.085l-10.316-18.791-15.473-21.817S584.671,156.838,565.759,176.809Z" transform="translate(-370.905 -126.18)" fill="#0c385d"/>
    <g id="Group_5" data-name="Group 5" transform="translate(114.184 47.604)" opacity="0.1">
      <path id="Path_224" data-name="Path 224" d="M357.839,190.765a18.857,18.857,0,0,0-1.052-4.811,20.4,20.4,0,0,1-1.466-4.581v-.143a6.119,6.119,0,0,0,0,1.2,20.576,20.576,0,0,0,1.466,4.581,18.831,18.831,0,0,1,1.052,4.807c.053.616.075,1.24.083,1.879C357.933,192.7,357.922,191.73,357.839,190.765Z" transform="translate(-355.291 -181.23)"/>
      <path id="Path_225" data-name="Path 225" d="M375.05,233.773c-.808,1.774-3.262,2.056-5.141,1.533a10.546,10.546,0,0,1-7.013-6.554,15.521,15.521,0,0,1-.752-5,17.2,17.2,0,0,0,.752,6.058,10.549,10.549,0,0,0,7.013,6.558c1.879.519,4.333.241,5.141-1.537a5.734,5.734,0,0,0,.293-2.48A3.875,3.875,0,0,1,375.05,233.773Z" transform="translate(-359.567 -207.77)"/>
      <path id="Path_226" data-name="Path 226" d="M472.7,182.583c-.162,1.2-.639,2.556-1.785,2.958a2.811,2.811,0,0,1-2-.188c-1.879-.819-3.552-2.8-5.558-2.319-1.639.376-2.424,2.229-2.856,3.86a9.5,9.5,0,0,0-.4,3.183,12.4,12.4,0,0,1,.4-2.127c.432-1.627,1.218-3.469,2.856-3.86,2.007-.474,3.664,1.5,5.558,2.319a2.8,2.8,0,0,0,2,.192c1.146-.4,1.624-1.755,1.785-2.961a13.661,13.661,0,0,0,.113-2.319C472.794,181.741,472.756,182.166,472.7,182.583Z" transform="translate(-420.702 -181.286)"/>
      <path id="Path_227" data-name="Path 227" d="M428.728,220.227c-1.127.816-2.657-.053-3.893-.7-1.323-.7-3.007-1.127-4.266-.327-.432.271-.782.661-1.2.951a4.326,4.326,0,0,1-2.9.6c-2.394-.244-3.288-1.759-5.111-2.931-1.338-.861-4.134-1.229-4.931.537a3.207,3.207,0,0,0-.154,1.627,2.115,2.115,0,0,1,.154-.568c.8-1.77,3.593-1.4,4.931-.537,1.823,1.173,2.717,2.687,5.111,2.931a4.348,4.348,0,0,0,2.9-.605c.421-.286.77-.676,1.2-.947,1.27-.789,2.943-.376,4.266.327,1.236.646,2.759,1.5,3.893.7a2.084,2.084,0,0,0,.673-2.146A1.737,1.737,0,0,1,428.728,220.227Z" transform="translate(-387.084 -203.62)"/>
      <path id="Path_228" data-name="Path 228" d="M400.571,229.375c-.515,1.18-2.1,1.5-2.826,2.567a4.552,4.552,0,0,0-.481,2.762,3.126,3.126,0,0,1,.481-1.7c.729-1.064,2.311-1.391,2.826-2.571a3.27,3.27,0,0,0,.143-1.6A2.121,2.121,0,0,1,400.571,229.375Z" transform="translate(-381.484 -210.941)"/>
    </g>
  </g>
</svg>
