<svg xmlns="http://www.w3.org/2000/svg" xmlns:xlink="http://www.w3.org/1999/xlink" width="438.187" height="310.18" viewBox="0 0 438.187 310.18">
  <defs>
    <linearGradient id="linear-gradient" x1="0.5" y1="1" x2="0.5" gradientUnits="objectBoundingBox">
      <stop offset="0" stop-color="gray" stop-opacity="0.251"/>
      <stop offset="0.54" stop-color="gray" stop-opacity="0.122"/>
      <stop offset="1" stop-color="gray" stop-opacity="0.102"/>
    </linearGradient>
    <linearGradient id="linear-gradient-2" x1="0.5" y1="1" x2="0.5" y2="0" xlink:href="#linear-gradient"/>
  </defs>
  <g id="Group_7" data-name="Group 7" transform="translate(-3028.515 1208)">
    <g id="undraw_medicine_b-1-ol" transform="translate(3028.52 -1207.994)">
      <ellipse id="Ellipse_21" data-name="Ellipse 21" cx="38.613" cy="6.202" rx="38.613" ry="6.202" transform="translate(107.259 297.596)" fill="#63b9ff" opacity="0.1"/>
      <ellipse id="Ellipse_22" data-name="Ellipse 22" cx="48.183" cy="6.202" rx="48.183" ry="6.202" transform="translate(307.583 297.771)" fill="#63b9ff" opacity="0.1"/>
      <path id="Path_309" data-name="Path 309" d="M59.824,396.83h40.218v54.816H62.769c-.1.563-.194,1.129-.3,1.7h37.571V497.55c-.067-.02-.127-.044-.19-.067-1.062-.42-2.116-.864-3.17-1.339l-.674-.305q-1.585-.749-3.17-1.585c-.369-.194-.737-.4-1.1-.6a65.948,65.948,0,0,1-15.8-12.348c-.135-.131-.262-.27-.4-.4-.642-.7-1.272-1.4-1.882-2.124l-.674-.793c-.721-.884-1.419-1.791-2.1-2.71-.1-.135-.194-.27-.3-.4a59,59,0,0,1-6.816-12.324c-.055-.131-.1-.273-.155-.4q-.816-2.1-1.446-4.24c-.182-.6-.357-1.189-.507-1.811-.055-.182-.1-.361-.147-.539C59.266,446.788,59,437.662,59,428.6v-3.17c0-3.665.044-7.355.107-11.04,0-.955.04-1.906.059-2.865q.083-3.65.238-7.3c.024-.678.055-1.351.091-2.025a11.468,11.468,0,0,1,.059-1.165C59.65,399.624,59.729,398.225,59.824,396.83Z" transform="translate(-54.05 -262.815)" fill="#63b9ff" opacity="0.1"/>
      <path id="Path_310" data-name="Path 310" d="M128.96,200.332H106.9a167.234,167.234,0,0,1,11.734-16.152c3.277-4.026,6.737-7.949,10.327-11.73Z" transform="translate(-82.969 -127.35)" fill="#63b9ff" opacity="0.1"/>
      <path id="Path_311" data-name="Path 311" d="M101.491,247.09v57.642H61.4c0-.166.028-.337.04-.5.036-.456.071-.911.111-1.363.044-.531.091-1.066.143-1.585s.107-1.153.166-1.728.115-1.157.182-1.732.127-1.149.2-1.72.135-1.149.21-1.72c.059-.476.123-.947.186-1.423.091-.67.186-1.343.289-2.009a1.853,1.853,0,0,1,.044-.3,137.073,137.073,0,0,1,2.952-14.472,107.028,107.028,0,0,1,4.973-14.662,110.069,110.069,0,0,1,7.482-14.408Z" transform="translate(-55.499 -172.412)" fill="#63b9ff" opacity="0.1"/>
      <path id="Path_312" data-name="Path 312" d="M186.8,192.641v54.82h85.9v-54.82Zm0,56.512v47.077c.491.1.979.2,1.462.285.658.127,1.312.242,1.981.341.127.02.258.04.4.052.262.044.531.079.793.115.662.091,1.32.166,1.981.226.313.032.63.059.947.083l.765.059h0c.416.032.828.055,1.236.067.254,0,.507.024.769.032h2.825c.341,0,.682,0,1.018-.032H201a5.336,5.336,0,0,0,.709-.032,1.651,1.651,0,0,0,.2,0,4.1,4.1,0,0,0,.586-.028h.139l1.328-.1c.436-.04.876-.091,1.32-.139l.9-.107a79.031,79.031,0,0,0,10.878-2.314c8.013-2.235,15.851-5.362,23.86-7.652,10.355-2.952,21.795-4.4,31.8-.793V249.154Zm85.9-117.542V58.63A110.429,110.429,0,0,0,244.79,61.9c-21.751,5.465-41.268,17.317-57.99,32.455v37.25h4.311V133.3H186.8v57.65h85.9V133.3H208.813v-1.692Zm110.334-24.652a35.58,35.58,0,0,1-15.569-4.525c-9.253-5.033-16.643-12.8-24.9-19.362a114.331,114.331,0,0,0-60.269-23.947v72.486H404.92l.305-.321Zm11.171-1.981,11.845,13V101.57a46.994,46.994,0,0,0-11.829,3.392Zm11.845,202.943V249.154H380.811c-.067-.25-.135-.5-.214-.757.075.254.139.507.21.757h-98.5v42.5c.935.693,1.858,1.423,2.774,2.164h0c.987.793,1.962,1.629,2.94,2.449l.987.816c.472.4.947.793,1.427,1.165q1.426,1.157,2.881,2.283c.479.4.971.753,1.458,1.125A198.621,198.621,0,0,0,319.2,317.629q2.865,1.585,5.782,3.095c1.3.662,2.6,1.32,3.907,1.958q2.948,1.438,5.944,2.774h0a218.282,218.282,0,0,0,57.856,16.853q6.653.983,13.358,1.546V307.917h.4ZM282.309,133.3v57.646H406.065V133.3Zm0,59.338v54.82H406.065v-54.82ZM415.671,101.5v18.3l15.118-16.588q-7.513-1.213-15.118-1.732Zm0,91.162v54.8H536.038v-54.82ZM535.6,312.272l.424-63.118H415.671v95.331a215.843,215.843,0,0,0,23.261-.277h.135q5.548-.349,11.044-1.014h.083a203.382,203.382,0,0,0,56.746-15.142m52.308-126.383c-.452-1.066-.923-2.124-1.4-3.17-.9-1.981-1.843-3.907-2.817-5.833h-9.392v54.8h23.745c-.012-15.518-3.939-31.369-10.121-45.813Zm-13.612,47.505v54.289a77.773,77.773,0,0,0,16.41-22.132,76.085,76.085,0,0,0,7.315-32.165Zm0-72.486v14.266h8.512a154.542,154.542,0,0,0-8.5-14.286ZM464,112.254c-.626-.238-1.252-.479-1.882-.713a171.83,171.83,0,0,0-20.333-6.111l-23.134,25.389h0l-.444.472.3.325h82.337a176.105,176.105,0,0,0-36.829-19.382Zm39.255,21.07h-85.9l-1.688,1.545v56.08H536.054V163.785A171.51,171.51,0,0,0,503.271,133.3Z" transform="translate(-131.207 -58.63)" fill="#63b9ff" opacity="0.1"/>
      <path id="Path_313" data-name="Path 313" d="M101.491,320.46v28.567H61.4c0-.166.028-.337.04-.5.036-.456.071-.911.111-1.363.044-.531.091-1.066.143-1.585s.107-1.153.166-1.728.115-1.157.182-1.732.127-1.149.2-1.72.135-1.149.21-1.72c.059-.476.123-.947.186-1.423.091-.67.186-1.343.289-2.009a1.853,1.853,0,0,1,.044-.3,137.072,137.072,0,0,1,2.952-14.472Z" transform="translate(-55.499 -216.708)" fill="#63b9ff" opacity="0.1"/>
      <path id="Path_314" data-name="Path 314" d="M59.824,396.83h40.218v54.816H62.769c-.1.563-.194,1.129-.3,1.7h37.571V497.55c-.067-.02-.127-.044-.19-.067-1.062-.42-2.116-.864-3.17-1.339l-.674-.305q-1.585-.749-3.17-1.585c-.369-.194-.737-.4-1.1-.6a65.948,65.948,0,0,1-15.8-12.348c-.135-.131-.262-.27-.4-.4-.642-.7-1.272-1.4-1.882-2.124l-.674-.793c-.721-.884-1.419-1.791-2.1-2.71-.1-.135-.194-.27-.3-.4a59,59,0,0,1-6.816-12.324c-.055-.131-.1-.273-.155-.4q-.816-2.1-1.446-4.24c-.182-.6-.357-1.189-.507-1.811-.055-.182-.1-.361-.147-.539C59.266,446.788,59,437.662,59,428.6v-3.17c0-3.665.044-7.355.107-11.04,0-.955.04-1.906.059-2.865q.083-3.65.238-7.3c.024-.678.055-1.351.091-2.025a11.468,11.468,0,0,1,.059-1.165C59.65,399.624,59.729,398.225,59.824,396.83Z" transform="translate(-54.05 -262.815)" fill="#63b9ff" opacity="0.1"/>
      <path id="Path_315" data-name="Path 315" d="M169.8,183.8v49.391H139.56V183.8h4.311V167.08h17.7V183.8Z" transform="translate(-83.967 -100.875)" fill="#63b9ff" opacity="0.1"/>
      <rect id="Rectangle_173" data-name="Rectangle 173" width="30.236" height="54.816" transform="translate(55.597 134.011)" fill="#63b9ff" opacity="0.1"/>
      <path id="Path_316" data-name="Path 316" d="M186.8,539.44h30.24v45.571a78.912,78.912,0,0,1-10.878,2.31l-.9.111c-.444.052-.884.1-1.32.139s-.888.075-1.328.1h-.139c-.19,0-.4.024-.583.028h-.2c-.238,0-.476.024-.713.032h0c-.337.02-.674.024-1.018.028h-2.806l-.765-.028c-.4,0-.824-.044-1.236-.071h0l-.761-.055-.947-.087c-.666-.059-1.328-.135-1.981-.226l-.793-.111-.4-.055c-.662-.1-1.316-.214-1.981-.341-.487-.083-.971-.186-1.462-.285Z" transform="translate(-131.207 -348.912)" fill="#63b9ff" opacity="0.1"/>
      <rect id="Rectangle_174" data-name="Rectangle 174" width="24.933" height="55.22" transform="translate(249.925 77.095)" fill="#63b9ff" opacity="0.1"/>
      <path id="Path_317" data-name="Path 317" d="M504.34,338.19v54.82H380.58V369.365H446.5v13.949h32.9V338.19Z" transform="translate(-229.477 -204.179)" fill="#63b9ff" opacity="0.1"/>
      <path id="Path_318" data-name="Path 318" d="M551.972,597.062h-.4v35.962q-6.7-.567-13.354-1.541a218.293,218.293,0,0,1-57.879-16.889q-7.977-3.59-15.629-7.838a199.424,199.424,0,0,1-24.426-15.974q-2.917-2.235-5.758-4.573c-1.312-1.082-2.615-2.191-3.935-3.269-.915-.741-1.839-1.47-2.774-2.168V538.287h98.493c-.067-.254-.135-.507-.206-.757.075.25.147.5.214.757h25.254v58.751C551.71,597.042,551.841,597.054,551.972,597.062Z" transform="translate(-276.717 -347.759)" fill="#63b9ff" opacity="0.1"/>
      <path id="Path_319" data-name="Path 319" d="M879.467,212.207H863.22v-5.049H870.5V192.12q.947.345,1.886.709v14.329h7.077Z" transform="translate(-539.58 -139.226)" fill="#63b9ff" opacity="0.1"/>
      <path id="Path_320" data-name="Path 320" d="M858.926,304.732H779.165l.028.02-.036-.02h-14.8v-55.22h4.193v40.816h19.16V266.155h15.827V247.09h16.247v19.08h15.827v24.173h23.313Z" transform="translate(-479.896 -172.412)" fill="#63b9ff" opacity="0.1"/>
      <path id="Path_321" data-name="Path 321" d="M764.36,396.82v54.82h94.566V396.82ZM884.6,516.169l.131-43.392h-25.8V453.36H764.36v95.3a215.868,215.868,0,0,0,23.261-.277h.135q5.548-.349,11.044-1.014h.083a203.38,203.38,0,0,0,56.746-15.142" transform="translate(-479.896 -262.809)" fill="#63b9ff" opacity="0.1"/>
      <path id="Path_322" data-name="Path 322" d="M1094.034,539.44h22.061a76.322,76.322,0,0,1-7.319,32.161,77.8,77.8,0,0,1-16.406,22.132V558.861h1.664Z" transform="translate(-677.925 -348.912)" fill="#63b9ff" opacity="0.1"/>
      <path id="Path_323" data-name="Path 323" d="M1118.642,465.363H1096.57V419.55h11.944C1114.7,433.994,1118.623,449.845,1118.642,465.363Z" transform="translate(-680.461 -276.531)" fill="#63b9ff" opacity="0.1"/>
      <rect id="Rectangle_175" data-name="Rectangle 175" width="13.358" height="17.313" transform="translate(261.504 92.446)" fill="#63b9ff" opacity="0.1"/>
      <rect id="Rectangle_176" data-name="Rectangle 176" width="13.358" height="3.986" transform="translate(261.504 128.333)" fill="#63b9ff" opacity="0.1"/>
      <rect id="Rectangle_177" data-name="Rectangle 177" width="13.358" height="11.631" transform="translate(261.504 134.011)" fill="#63b9ff" opacity="0.1"/>
      <rect id="Rectangle_178" data-name="Rectangle 178" width="13.358" height="17.313" transform="translate(261.504 164.219)" fill="#63b9ff" opacity="0.1"/>
      <rect id="Rectangle_179" data-name="Rectangle 179" width="13.358" height="17.313" transform="translate(261.504 200.105)" fill="#63b9ff" opacity="0.1"/>
      <path id="Path_324" data-name="Path 324" d="M719.774,667.457a2.193,2.193,0,0,1,.4.024h-.4V671.5H706.42V654.17h13.354Z" transform="translate(-444.916 -418.178)" fill="#63b9ff" opacity="0.1"/>
      <path id="Path_325" data-name="Path 325" d="M719.774,744.71v13.374q-6.7-.567-13.354-1.542V744.71Z" transform="translate(-444.916 -472.84)" fill="#63b9ff" opacity="0.1"/>
      <rect id="Rectangle_180" data-name="Rectangle 180" width="57.249" height="1.272" transform="translate(151.103 187.559)" fill="#63b9ff" opacity="0.1"/>
      <rect id="Rectangle_181" data-name="Rectangle 181" width="57.249" height="4.874" transform="translate(151.103 190.524)" fill="#63b9ff" opacity="0.1"/>
      <rect id="Rectangle_182" data-name="Rectangle 182" width="57.249" height="7.838" transform="translate(151.103 211.375)" fill="#63b9ff" opacity="0.1"/>
      <path id="Path_326" data-name="Path 326" d="M489.286,652.15v7.838H444.507q-2.917-2.227-5.762-4.573c-1.312-1.082-2.611-2.191-3.935-3.265Z" transform="translate(-280.937 -416.959)" fill="#63b9ff" opacity="0.1"/>
      <path id="Path_327" data-name="Path 327" d="M541.273,712.222v7.83h-4.728q-7.969-3.594-15.625-7.842Z" transform="translate(-332.924 -453.219)" fill="#63b9ff" opacity="0.1"/>
      <rect id="Rectangle_183" data-name="Rectangle 183" width="11.27" height="11.27" transform="translate(307.729 139.325)" fill="#63b9ff" opacity="0.1"/>
      <rect id="Rectangle_184" data-name="Rectangle 184" width="11.27" height="11.27" transform="translate(63.713 86.815)" fill="#63b9ff" opacity="0.1"/>
      <rect id="Rectangle_185" data-name="Rectangle 185" width="11.27" height="11.27" transform="translate(63.713 112.993)" fill="#63b9ff" opacity="0.1"/>
      <rect id="Rectangle_186" data-name="Rectangle 186" width="11.27" height="11.27" transform="translate(63.713 139.171)" fill="#63b9ff" opacity="0.1"/>
      <rect id="Rectangle_187" data-name="Rectangle 187" width="11.27" height="11.27" transform="translate(63.713 165.344)" fill="#63b9ff" opacity="0.1"/>
      <rect id="Rectangle_188" data-name="Rectangle 188" width="11.27" height="11.27" transform="translate(63.713 191.522)" fill="#63b9ff" opacity="0.1"/>
      <rect id="Rectangle_189" data-name="Rectangle 189" width="11.27" height="11.27" transform="translate(63.713 217.7)" fill="#63b9ff" opacity="0.1"/>
      <rect id="Rectangle_190" data-name="Rectangle 190" width="11.27" height="11.27" transform="translate(350.753 139.325)" fill="#63b9ff" opacity="0.1"/>
      <rect id="Rectangle_191" data-name="Rectangle 191" width="11.27" height="11.27" transform="translate(307.729 167.124)" fill="#63b9ff" opacity="0.1"/>
      <rect id="Rectangle_192" data-name="Rectangle 192" width="11.27" height="11.27" transform="translate(350.753 167.124)" fill="#63b9ff" opacity="0.1"/>
      <rect id="Rectangle_193" data-name="Rectangle 193" width="11.27" height="11.27" transform="translate(307.729 194.918)" fill="#63b9ff" opacity="0.1"/>
      <rect id="Rectangle_194" data-name="Rectangle 194" width="11.27" height="11.27" transform="translate(350.753 194.918)" fill="#63b9ff" opacity="0.1"/>
      <rect id="Rectangle_195" data-name="Rectangle 195" width="11.27" height="11.27" transform="translate(307.729 222.717)" fill="#63b9ff" opacity="0.1"/>
      <rect id="Rectangle_196" data-name="Rectangle 196" width="11.27" height="11.27" transform="translate(350.753 222.717)" fill="#63b9ff" opacity="0.1"/>
      <rect id="Rectangle_197" data-name="Rectangle 197" width="11.27" height="11.27" transform="translate(307.729 250.515)" fill="#63b9ff" opacity="0.1"/>
      <rect id="Rectangle_198" data-name="Rectangle 198" width="11.27" height="11.27" transform="translate(350.753 250.515)" fill="#63b9ff" opacity="0.1"/>
      <path id="Path_328" data-name="Path 328" d="M775.83,709.6V702.33H787.1v6.233Z" transform="translate(-468.101 -424.02)" fill="#63b9ff" opacity="0.1"/>
      <path id="Path_329" data-name="Path 329" d="M65.24,357v6.447h38.569V357Zm3.844,6.043H65.937V357.4h3.17Zm3.84,0h-3.17V357.4h3.17Zm3.832,0h-3.17V357.4h3.17Zm3.84,0H77.429V357.4H80.6Zm3.836,0h-3.17V357.4h3.17Zm3.84,0H85.1V357.4h3.17Zm3.84,0h-3.17V357.4h3.17Zm3.836,0h-3.17V357.4h3.17Zm3.836,0h-3.17V357.4h3.17Zm3.836,0h-3.17V357.4h3.17Z" transform="translate(-57.817 -238.768)" fill="#63b9ff" opacity="0.1"/>
      <path id="Path_330" data-name="Path 330" d="M65.24,404.34v6.447h38.569V404.34Zm3.844,6.039H65.937v-5.631h3.17Zm3.84,0h-3.17v-5.631h3.17Zm3.832,0h-3.17v-5.631h3.17Zm3.84,0H77.429v-5.631H80.6Zm3.836,0h-3.17v-5.631h3.17Zm3.84,0H85.1v-5.631h3.17Zm3.84,0h-3.17v-5.631h3.17Zm3.836,0h-3.17v-5.631h3.17Zm3.836,0h-3.17v-5.631h3.17Zm3.836,0h-3.17v-5.631h3.17Z" transform="translate(-57.817 -267.349)" fill="#63b9ff" opacity="0.1"/>
      <path id="Path_331" data-name="Path 331" d="M65.24,451.7v6.459h38.569V451.7Zm3.844,6.039H65.937V452.1h3.17Zm3.84,0h-3.17V452.1h3.17Zm3.832,0h-3.17V452.1h3.17Zm3.84,0H77.429V452.1H80.6Zm3.836,0h-3.17V452.1h3.17Zm3.84,0H85.1V452.1h3.17Zm3.84,0h-3.17V452.1h3.17Zm3.836,0h-3.17V452.1h3.17Zm3.836,0h-3.17V452.1h3.17Zm3.836,0h-3.17V452.1h3.17Z" transform="translate(-57.817 -295.941)" fill="#63b9ff" opacity="0.1"/>
      <path id="Path_332" data-name="Path 332" d="M65.24,499.06V505.5h38.569V499.06Zm3.844,6.039H65.937V499.46h3.17Zm3.84,0h-3.17V499.46h3.17Zm3.832,0h-3.17V499.46h3.17Zm3.84,0H77.429V499.46H80.6Zm3.836,0h-3.17V499.46h3.17Zm3.84,0H85.1V499.46h3.17Zm3.84,0h-3.17V499.46h3.17Zm3.836,0h-3.17V499.46h3.17Zm3.836,0h-3.17V499.46h3.17Zm3.836,0h-3.17V499.46h3.17Z" transform="translate(-57.817 -324.534)" fill="#63b9ff" opacity="0.1"/>
      <path id="Path_333" data-name="Path 333" d="M65.66,546.41c.155.606.329,1.213.511,1.811v-1.407h3.17v5.635h-1.7c.052.131.1.273.155.4h36.263V546.41Zm7.529,6.039h-3.17v-5.635h3.17Zm3.832,0h-3.17v-5.635h3.17Zm3.84,0H77.683v-5.635h3.17Zm3.836,0h-3.17v-5.635H84.7Zm3.84,0h-3.17v-5.635h3.17Zm3.84,0h-3.17v-5.635h3.17Zm3.836,0h-3.17v-5.635h3.17Zm3.836,0h-3.17v-5.635h3.17Zm3.836,0h-3.17v-5.635h3.17Z" transform="translate(-58.071 -353.12)" fill="#63b9ff" opacity="0.1"/>
      <path id="Path_334" data-name="Path 334" d="M88.26,593.77c.1.127.194.269.3.4h2.1v2.707c.226.269.448.539.678.792v-3.515H94.5v5.655H93.217c.127.131.25.269.4.4h24.105V593.77Zm10.069,6.035h-3.17v-5.631h3.17Zm3.84,0H99v-5.631h3.17Zm3.84,0h-3.17v-5.631h3.17Zm3.836,0h-3.17v-5.631h3.17Zm3.836,0h-3.17v-5.631h3.17Zm3.836,0h-3.17v-5.631h3.17Z" transform="translate(-71.715 -381.713)" fill="#63b9ff" opacity="0.1"/>
      <path id="Path_335" data-name="Path 335" d="M141.65,641.12c.361.206.729.4,1.1.6v-.2h3.17v1.783l.674.313v-2.1h3.17v3.428a1,1,0,0,0,.19.071v-3.9Z" transform="translate(-103.948 -410.3)" fill="#63b9ff" opacity="0.1"/>
      <path id="Path_336" data-name="Path 336" d="M437.068,302.13Zm-24.41,116.956Zm-25.468-59.508c.075.254.139.507.21.757h0C387.336,360.084,387.269,359.831,387.189,359.577Zm49.879-57.459ZM197.72,242.78v1.692h17.7V242.78ZM412.658,419.085Zm-25.468-59.508c.075.254.139.507.21.757h0C387.336,360.084,387.269,359.831,387.189,359.577Zm49.879-57.459Zm-24.41,116.956Zm-25.468-59.5c.075.254.139.507.21.757h0C387.336,360.084,387.269,359.831,387.189,359.577Z" transform="translate(-137.799 -169.81)" fill="#63b9ff" opacity="0.1"/>
      <path id="Path_337" data-name="Path 337" d="M380.113,305.395s-1.561-.218-1.561-2.493a35.633,35.633,0,0,0-1.117-6.523h0c0-.02-.967-7.4-2.3-8.571s-3.051-8.06-3.051-8.06-.293-3.737-.892-4.541a38.588,38.588,0,0,1-2.6-5.583c-1.193-2.81-6.166-4.755-6.166-4.755s-8.991-5.215-11.539-6.915h0a3.907,3.907,0,0,1-.646-.487c-.444-.583-2.378-.594-2.378-.594a38.969,38.969,0,0,1-.46-4.07,3.1,3.1,0,0,0-.02-.428,13.711,13.711,0,0,0,6.027-7.458c.048-.151.087-.309.131-.46a1.288,1.288,0,0,0,.773-.7,14.545,14.545,0,0,1,.519-1.585,5.97,5.97,0,0,1,1.466-1.288,5.548,5.548,0,0,0,1.526-4.514c-.04-1.328-.254-2.667-.17-3.986l.024-.333c.024-.2.052-.4.087-.586.194-.983.618-1.91.856-2.885a3.711,3.711,0,0,0-.293-2.913c-.812-1.232-2.5-1.478-3.99-1.6-1.684-.143-3.19.044-4.268-1.355a15.211,15.211,0,0,0-1.7-2.049c-.222-.206-2.378-1.522-2.378-1.609a9.633,9.633,0,0,0-6.717-.515c-1.117.325-2.172.856-3.3,1.121-2.445.579-5.259-.048-7.335,1.351a8.622,8.622,0,0,0-2.5,3.281q-.793,1.518-1.609,3.031a19.638,19.638,0,0,0-2.136,5.187,8.229,8.229,0,0,0-.143,1.213h0v.646a2.134,2.134,0,0,0,.024.4c.024.123.02.162.032.246s.032.269.055.4.071.349.119.523c.02.075.048.147.071.218.04.135.087.265.139.4.028.067.055.139.087.206a3.7,3.7,0,0,0,.2.4c.032.055.055.107.087.159a5.262,5.262,0,0,0,.365.531c.848,1.058,2.1,1.732,3.02,2.722V241a13.564,13.564,0,0,0,6.174,11.076c0,.151.02.305.028.456a22.682,22.682,0,0,1-.044,3.531,1.664,1.664,0,0,0-1.316-.587,1.9,1.9,0,0,0-.507.044l-.036-.028h0v.036c-.872.214-1.946,1.121-2.972,3.7,0,0-3.123,3.519-5.5,3.372s-8.4,3.662-8.4,3.662-5.873,3.812-7.133,7.7a54.231,54.231,0,0,1-2.528,6.451l-7.26,14.959h0l-1.339,11.868a55.074,55.074,0,0,1,.594,6.083c-.147.8,3.047,8.06,3.047,8.06s10.553,18.542,14.864,19.493l.309-.218a2.525,2.525,0,0,0,.582.218l.888-.626a9.672,9.672,0,0,1-.067,2.092c-.594,1.831.222,13.778,1.26,16.12s.67,33.049.67,33.049l-.147,2.711a1.149,1.149,0,0,0,.036.238l-.036.642.107.056a7.632,7.632,0,0,1-.107,2.58,28.686,28.686,0,0,0-.523,4.549s-2.968,18.974-1.561,22.786,2.6,7.989,2.6,7.989,1.486,4.755.071,5.568-5.437,2.176-4.609,4.157c.753,1.831,3.61,6.737,4.034,7.454l-.036.376-.583,6.313a7.926,7.926,0,0,0,.67,2.409,4.152,4.152,0,0,0,4.236,2.647c.4-.028.856-.075,1.3-.135a56.169,56.169,0,0,0,9.629-2.5,3.925,3.925,0,0,1-.753-.622h0a2.176,2.176,0,0,1-.662-1.585c.063-1.149-2.088-6.626-2.623-7.973-.083-.194-.127-.305-.127-.305s4.906-5.128,4.09-9.673c0,0-5.429-3.17-3.642-4.91a55.36,55.36,0,0,0,4.981-6.737s.147-18.684,0-21.474a23.1,23.1,0,0,1,.273-5.8c.059-.289.131-.571.206-.848a51.736,51.736,0,0,0,7.466.567c.911,0,1.839,0,2.774-.055q0,.4.036.856c.206,4.628.59,12.744.9,15.76.444,4.323,2.9,15.974,2.9,15.974s-4.68,3,.816,10.406c0,0,0,2.683-.365,3.071h0a33.6,33.6,0,0,0-.939,3.868,6.818,6.818,0,0,0,.048,3.539c.892,1.751,6.241,1.609,6.241,1.609h0l.131-.024a7.668,7.668,0,0,1,5.663,1.708c2.033,1.633,9.748.915,13.925.4,1.637-.206,2.73-.4,2.73-.4a1.587,1.587,0,0,0,.055-.571h0c-.044-1.026-.848-3.277-6.3-5.286,0,0-5.128-3.448-5.056-6.451h-.7a5.583,5.583,0,0,1,.709,0s-2.009-7.331-1.189-7.925-1.637-8.718-1.637-8.718-1.407-13.632-1.482-14.587a8.322,8.322,0,0,1,.368-2.417l-.368-7.474s-.071-2.485,0-3.293a16.464,16.464,0,0,0-.17-2.1c-.036-.277-.071-.567-.111-.852,1.922-.487,3.17-.939,3.17-.939l-.222-26.015c1.633-3.17,1.934-10.125,1.926-15.058,0-3.17-.143-5.516-.143-5.516L368,345.854s.515-4.359-.3-5.314a.915.915,0,0,1,.1-1.248,4.145,4.145,0,0,1,.487-.333s-.024-.036-.051-.087a3.939,3.939,0,0,1,.5-.353s-.793-1.228-.083-1.748c.666.452,1.26.793,1.712,1.07-.032.289-.063.456-.063.456l.19-.4.7.4s3.5-6.962,3.42-7.989,2.378-5.35,2.378-5.35a5.353,5.353,0,0,1,1.637-3.222c1.339-.951,1.038-7.842,1.038-7.842s.372-3.59,1.264-5.056S380.113,305.395,380.113,305.395Zm-66.875-3.055.067,1.66-.682-1.1Z" transform="translate(-196.904 -154.946)" fill="url(#linear-gradient)"/>
      <path id="Path_338" data-name="Path 338" d="M472.746,497.844l-.856,3.646s-6.856-3.5-8.092-7.945,2.069-6.134,2.069-6.134l6.388,2.707Z" transform="translate(-298.271 -317.501)" fill="#fff"/>
      <path id="Path_339" data-name="Path 339" d="M472.746,497.844l-.856,3.646s-6.856-3.5-8.092-7.945,2.069-6.134,2.069-6.134l6.388,2.707Z" transform="translate(-298.271 -317.501)" opacity="0.1"/>
      <path id="Path_340" data-name="Path 340" d="M366.08,804.856s-6.34,2.33-10.7,2.623a4.071,4.071,0,0,1-4.157-2.631,7.965,7.965,0,0,1-.654-2.4l.567-6.281.3-3.345,9.261-2.405,1.312,4.01.123.305c.527,1.339,2.639,6.788,2.576,7.925a2.164,2.164,0,0,0,.65,1.565,3.771,3.771,0,0,0,.721.63Z" transform="translate(-230.079 -500.436)" fill="#cdd0eb"/>
      <path id="Path_341" data-name="Path 341" d="M455.637,801.028a1.584,1.584,0,0,1-.055.567s-13.56,2.263-16.334,0a7.346,7.346,0,0,0-5.706-1.672s-5.247.143-6.122-1.585a6.879,6.879,0,0,1-.044-3.519,33.527,33.527,0,0,1,.919-3.848l.21-.166,1.248-1,14.615-.432h.111c-.071,2.988,4.961,6.416,4.961,6.416C454.785,797.767,455.574,800.006,455.637,801.028Z" transform="translate(-276.328 -499.802)" fill="#cdd0eb"/>
      <path id="Path_342" data-name="Path 342" d="M455.641,809.33a1.616,1.616,0,0,1-.059.567s-13.556,2.263-16.33,0a7.347,7.347,0,0,0-5.7-1.672s-5.251.143-6.122-1.585a6.873,6.873,0,0,1-.048-3.519c2.021.2,5.211.705,6.463,1.906,1.894,1.827,5.1,3.65,7.073,3.792C442.457,808.917,451.678,809.211,455.641,809.33Z" transform="translate(-276.331 -508.104)" opacity="0.1"/>
      <path id="Path_343" data-name="Path 343" d="M367.082,825.92s-6.34,2.33-10.7,2.623a4.06,4.06,0,0,1-4.153-2.635c1.613.543,3.852,1.113,5.029.59,1.395-.618,6.34-1.018,9.114-1.189A3.9,3.9,0,0,0,367.082,825.92Z" transform="translate(-231.081 -521.5)" opacity="0.1"/>
      <path id="Path_344" data-name="Path 344" d="M397.389,316.776c-5.231-2.033-11.959-8.75-10.279-11.888a7.023,7.023,0,0,0,.654-2.52,23.023,23.023,0,0,0,.048-3.566,48.85,48.85,0,0,0-.7-5.8s16.33.368,15.379,2.774a8.991,8.991,0,0,0-.246,3.3c.075,1.371.273,2.921.479,4.232.285,1.8.571,3.17.571,3.17s-1,1.4-1.585,1.474S404.895,319.673,397.389,316.776Z" transform="translate(-251.981 -200.13)" fill="#cf6f80"/>
      <path id="Path_345" data-name="Path 345" d="M362.967,794.735l-.123.135c-4.882-5.9-10.786,1.454-10.786,1.454l-.087-.155.3-3.345,9.261-2.405,1.312,4.01Z" transform="translate(-230.924 -500.436)" opacity="0.1"/>
      <path id="Path_346" data-name="Path 346" d="M446.2,789.762s-3.566-.075-5.469,1.6-11.1.365-10.7,0a1.3,1.3,0,0,0,.206-.6l1.248-1,14.615-.432C446.155,789.6,446.2,789.762,446.2,789.762Z" transform="translate(-278.045 -499.778)" opacity="0.1"/>
      <path id="Path_347" data-name="Path 347" d="M362.9,661.486a11.02,11.02,0,0,0-.6,2.033,23.262,23.262,0,0,0-.273,5.77c.147,2.774,0,21.363,0,21.363a56.871,56.871,0,0,1-4.882,6.7c-1.748,1.748,3.566,4.886,3.566,4.886.793,4.517-4.01,9.621-4.01,9.621-4.882-5.9-10.787,1.458-10.787,1.458s-3.21-5.548-4.01-7.529,3.135-3.353,4.517-4.157-.067-5.548-.067-5.548-1.169-4.157-2.556-7.949,1.53-22.671,1.53-22.671a29.251,29.251,0,0,1,.511-4.521,7.563,7.563,0,0,0,.107-2.568c-.024-.289-.052-.531-.071-.693s-.036-.238-.036-.238l.055-.1,1.981-3.693S363.847,659.16,362.9,661.486Z" transform="translate(-224.779 -417.87)" fill="#0c385d"/>
      <path id="Path_348" data-name="Path 348" d="M439.673,713.323s-3.566-.075-5.469,1.585-11.1.365-10.7,0,.365-3.063.365-3.063c-5.393-7.363-.792-10.351-.792-10.351s-2.409-11.591-2.845-15.89c-.305-3-.682-11.076-.884-15.684-.087-1.981-.139-3.345-.139-3.345l4.407-.888.567-.115,10.628-2.132s.293,1.981.491,3.6a16.819,16.819,0,0,1,.166,2.088c-.071.793,0,3.273,0,3.273l.361,7.438a8.448,8.448,0,0,0-.361,2.405c.071.947,1.454,14.507,1.454,14.507s2.405,8.092,1.585,8.674S439.673,713.323,439.673,713.323Z" transform="translate(-271.519 -423.775)" fill="#0c385d"/>
      <path id="Path_349" data-name="Path 349" d="M402.889,295.774a8.993,8.993,0,0,0-.246,3.3,13.572,13.572,0,0,1-14.432-.269,48.847,48.847,0,0,0-.7-5.805S403.84,293.361,402.889,295.774Z" transform="translate(-252.381 -200.13)" opacity="0.1"/>
      <path id="Path_350" data-name="Path 350" d="M400.943,257.24a13.421,13.421,0,0,1-.666,4.2,13.56,13.56,0,0,1-26.447-3.88v-.325a13.559,13.559,0,1,1,27.119,0Z" transform="translate(-244.122 -170.354)" fill="#cf6f80"/>
      <path id="Path_351" data-name="Path 351" d="M397.389,331.048c-5.231-2.033-11.959-8.75-10.279-11.888a7.023,7.023,0,0,0,.654-2.52l7.161,5.885,4.43,3.634,3.368-8.575c.285,1.8.571,3.17.571,3.17s-1,1.4-1.585,1.474S404.895,333.945,397.389,331.048Z" transform="translate(-251.981 -214.402)" opacity="0.1"/>
      <path id="Path_352" data-name="Path 352" d="M361.182,297.466,355.2,397.921l-7.8.511L327.21,340.184l3.313-69.153.7-14.611,8.98,7.375,4.434,3.634L348.1,258.6l6.447,5.619Z" transform="translate(-197.256 -154.812)" fill="#0c385d"/>
      <path id="Path_353" data-name="Path 353" d="M369.059,661.535a11.023,11.023,0,0,0-.6,2.033,57.462,57.462,0,0,1-16.35-5.108L352,658.4l.036-.638.02-.333,1.981-3.693S370.011,659.208,369.059,661.535Z" transform="translate(-230.942 -417.919)" opacity="0.1"/>
      <path id="Path_354" data-name="Path 354" d="M423.671,672.893a40.115,40.115,0,0,1-4.383.5c-.087-1.981-.139-3.344-.139-3.344l4.407-.888Z" transform="translate(-271.483 -427.228)" opacity="0.1"/>
      <path id="Path_355" data-name="Path 355" d="M442.819,667.092a30.756,30.756,0,0,1-11.064,1.042l-.055-2.512,10.628-2.132S442.621,665.452,442.819,667.092Z" transform="translate(-279.06 -423.805)" opacity="0.1"/>
      <path id="Path_356" data-name="Path 356" d="M353.381,458.2c-16.247,2.774-31.127-5.179-31.127-5.179l.143-2.695s.369-30.549-.654-32.891-1.819-14.218-1.24-16.041-2.112-29.158-2.112-29.158l-.436-11.1L302,354.681l7.133-14.868a53.653,53.653,0,0,0,2.481-6.42c1.24-3.86,7-7.652,7-7.652s5.9-3.788,8.238-3.646,5.393-3.352,5.393-3.352c2.259-5.758,4.3-3.15,4.3-3.15a5.144,5.144,0,0,1-.111.852c-.793,6.321,12.815,26.293,13.01,26.645h0l1.3,31.567,1.312,39.948Z" transform="translate(-200.756 -213.414)" opacity="0.1"/>
      <path id="Path_357" data-name="Path 357" d="M352.262,458.167c-16.247,2.774-31.131-5.179-31.131-5.179l.147-2.695s.368-30.549-.658-32.891-1.819-14.218-1.236-16.041-2.112-29.158-2.112-29.158l-.44-11.1-15.962-6.487L308,339.753a54.491,54.491,0,0,0,2.481-6.42c1.236-3.86,7-7.652,7-7.652s5.9-3.788,8.235-3.646,5.393-3.352,5.393-3.352c2.263-5.758,4.755-3.15,4.755-3.15,0,.273-.238.4-.111.852,1.744,6.13,12.379,26.293,12.574,26.645h0l1.312,31.567,1.312,39.948Z" transform="translate(-200.074 -213.378)" fill="#fff"/>
      <path id="Path_358" data-name="Path 358" d="M396.707,345.328c-1.748-.729-11-11.3-11-11.3v-2.405c-.337-.793-2.338-.309-3.963.246l.7-14.611.793.658C384.966,324.044,396.505,344.975,396.707,345.328Z" transform="translate(-248.897 -214.776)" opacity="0.1"/>
      <path id="Path_359" data-name="Path 359" d="M397.811,343.118c-1.752-.729-11.008-11.3-11.008-11.3v-2.405c-.337-.793-2.338-.309-3.963.246l.7-14.611.793.658C386.074,321.834,397.617,342.769,397.811,343.118Z" transform="translate(-249.561 -213.442)" fill="#fff"/>
      <path id="Path_360" data-name="Path 360" d="M351.752,517.115c.218,0,11.3-1.165,11.3-1.165s6.709,13.192,6.269,16.4-1.236,6.051-3.935,5.548-14.523.4-14.523.4Z" transform="translate(-230.254 -334.731)" opacity="0.1"/>
      <path id="Path_361" data-name="Path 361" d="M350.642,514.905c.218,0,11.3-1.165,11.3-1.165s6.7,13.2,6.269,16.4-1.24,6.051-3.935,5.548-14.523.4-14.523.4Z" transform="translate(-229.584 -333.397)" fill="#fff"/>
      <path id="Path_362" data-name="Path 362" d="M363.839,501.05s10.168,5.465,10.386,7.133-5.175-.729-6.34-1.018a14.511,14.511,0,0,0-2.334-.365l-7.771.21Z" transform="translate(-234.432 -325.735)" fill="#cf6f80"/>
      <circle id="Ellipse_23" data-name="Ellipse 23" cx="1.07" cy="1.07" r="1.07" transform="translate(143.903 129.094)" opacity="0.1"/>
      <circle id="Ellipse_24" data-name="Ellipse 24" cx="1.07" cy="1.07" r="1.07" transform="translate(143.903 128.658)" fill="#3f3d56"/>
      <circle id="Ellipse_25" data-name="Ellipse 25" cx="1.07" cy="1.07" r="1.07" transform="translate(145.872 175.41)" opacity="0.1"/>
      <circle id="Ellipse_26" data-name="Ellipse 26" cx="1.07" cy="1.07" r="1.07" transform="translate(145.872 174.97)" fill="#3f3d56"/>
      <circle id="Ellipse_27" data-name="Ellipse 27" cx="1.07" cy="1.07" r="1.07" transform="translate(144.969 152.252)" opacity="0.1"/>
      <circle id="Ellipse_28" data-name="Ellipse 28" cx="1.07" cy="1.07" r="1.07" transform="translate(144.969 151.816)" fill="#3f3d56"/>
      <path id="Path_363" data-name="Path 363" d="M446.864,396.584s.729,1.094,0,1.6.071,1.748.071,1.748-1.819,1.066-1.018,2.025.293,5.29.293,5.29l-2.187,3.622s.131,2.334.139,5.488c0,4.922-.289,11.841-1.89,14.995l.222,25.881s-7.66,2.8-14.072,1.946l-.951-41.529s1.387-23.55,1.9-28.068a47.026,47.026,0,0,0,.365-7.073,79.019,79.019,0,0,0-.951-10.351s-.793-14.214-.872-18.149c-.036-1.882.063-7.375.174-12.6.123-5.71.262-11.1.262-11.1L426.9,318.875s1.446-.147,1.882.436a4.178,4.178,0,0,0,.634.487h0c2.5,1.688,11.318,6.879,11.318,6.879s4.882,1.942,6.051,4.724a41.164,41.164,0,0,0,2.548,5.548c.567.793.876,4.517.876,4.517s1.68,6.856,2.992,8.017,2.271,8.548,2.271,8.548l-11.591,9.114s-1.018,15.161-1.236,15.748S446.864,396.584,446.864,396.584Z" transform="translate(-276.162 -215.741)" fill="#fff"/>
      <path id="Path_364" data-name="Path 364" d="M447.262,396.392s.725,1.094,0,1.6.067,1.748.067,1.748-1.807,1.078-1.014,2.037.293,5.29.293,5.29l-2.187,3.622s.131,2.334.143,5.488c0,4.922-.289,11.841-1.89,14.995l.218,25.881s-7.672,2.8-14.076,1.946l-.947-41.529s1.387-23.55,1.9-28.068a46.591,46.591,0,0,0,.361-7.073,79.518,79.518,0,0,0-.947-10.351s-.793-14.214-.876-18.149c-.036-1.882.067-7.375.174-12.6.123-5.71.262-11.1.262-11.1l-1.91-11.6s1.91,0,2.35.59a3.765,3.765,0,0,0,.634.487h0c2.5,1.688,11.322,6.879,11.322,6.879s4.878,1.942,6.047,4.724a40.511,40.511,0,0,0,2.552,5.548c.571.792.872,4.517.872,4.517s1.68,6.855,2.992,8.017,2.259,8.532,2.259,8.532l-11.591,9.114s-1.018,15.161-1.24,15.748S447.262,396.392,447.262,396.392Z" transform="translate(-276.119 -215.549)" fill="#fff"/>
      <path id="Path_365" data-name="Path 365" d="M434.05,334.825l1.046,3.051-5.508,5.548c.123-5.706.262-11.1.262-11.1l-1.91-11.6s1.91,0,2.35.59a3.618,3.618,0,0,0,.634.483h0l4.684,13.513Z" transform="translate(-276.79 -216.871)" opacity="0.1"/>
      <path id="Path_366" data-name="Path 366" d="M432.941,332.615l1.05,3.051-5.508,5.548c.123-5.71.262-11.1.262-11.1l-1.914-11.6s1.914,0,2.35.59a3.962,3.962,0,0,0,.634.487h0l4.688,13.509Z" transform="translate(-276.119 -215.537)" fill="#fff"/>
      <path id="Path_367" data-name="Path 367" d="M400.943,257.24a13.422,13.422,0,0,1-.666,4.2.567.567,0,0,1-.428-.107c-.1-3.566-1.859-6.915-4.018-9.764a10.259,10.259,0,0,0-2.179-2.259,4.264,4.264,0,0,0-2.956-.836c-1.189.162-2.239.971-3.44,1.074-1.585.131-3-.967-4.577-1.022a4.5,4.5,0,0,0-3.364,1.561,9.229,9.229,0,0,0-1.8,3.345,19.567,19.567,0,0,0-1.007,5.77c-.02,1.11-.127,2.5-1.157,2.9a5.92,5.92,0,0,0-1.494-4.521l-.024-.024v-.325a13.559,13.559,0,1,1,27.119,0Z" transform="translate(-244.122 -170.354)" opacity="0.1"/>
      <path id="Path_368" data-name="Path 368" d="M386.692,222.217a9.336,9.336,0,0,0-6.586-.515c-1.1.325-2.132.852-3.245,1.117-2.378.575-5.152-.048-7.192,1.343a8.6,8.6,0,0,0-2.449,3.261l-1.585,3.02a19.594,19.594,0,0,0-2.1,5.152,6.577,6.577,0,0,0,1.01,5.318c.84,1.066,2.08,1.736,2.992,2.738a5.944,5.944,0,0,1,1.49,4.518c1.034-.4,1.133-1.791,1.157-2.9a19.568,19.568,0,0,1,1.007-5.77,9.2,9.2,0,0,1,1.8-3.345,4.506,4.506,0,0,1,3.364-1.561c1.585.055,3.008,1.149,4.577,1.018,1.189-.1,2.243-.911,3.44-1.07a4.248,4.248,0,0,1,2.956.836,10.153,10.153,0,0,1,2.175,2.259c2.164,2.849,3.919,6.19,4.022,9.764.448.329,1.094-.1,1.316-.606a14.48,14.48,0,0,1,.511-1.585,5.844,5.844,0,0,1,1.435-1.276,5.609,5.609,0,0,0,1.5-4.49,22.37,22.37,0,0,1-.056-4.882c.186-.983.606-1.9.836-2.873a3.756,3.756,0,0,0-.285-2.9c-.793-1.228-2.461-1.47-3.915-1.585-1.652-.143-3.131.04-4.185-1.351a15.177,15.177,0,0,0-1.664-2.037C388.812,223.612,386.692,222.3,386.692,222.217Z" transform="translate(-237.812 -156.86)" fill="#512e4e"/>
      <path id="Path_369" data-name="Path 369" d="M305.213,422.786l-4.141-7.656-1.312,11.813a54.755,54.755,0,0,1,.583,6.051c-.147.8,2.988,8.017,2.988,8.017s10.355,18.442,14.583,19.394L332.2,450.2l-3.788-4.811s-1.312-.511-1.641,0c0,0-7.034-12.1-7.763-12.978a4.371,4.371,0,0,1-.586-2.623s-1.094-1.165-.729-2.259-2.112-4.886-2.112-4.886l2.259-2.112Z" transform="translate(-199.404 -273.863)" opacity="0.1"/>
      <path id="Path_370" data-name="Path 370" d="M299.955,412.93l-1.094.872-1.312,11.813a54.75,54.75,0,0,1,.582,6.051c-.147.8,2.992,8.017,2.992,8.017s10.351,18.442,14.579,19.394l14.29-10.208-3.792-4.811s-1.312-.511-1.641,0c0,0-7.034-12.1-7.763-12.978a4.357,4.357,0,0,1-.583-2.623s-1.094-1.165-.729-2.259-2.116-4.886-2.116-4.886l2.259-2.112Z" transform="translate(-198.069 -272.535)" fill="#fff"/>
      <path id="Path_371" data-name="Path 371" d="M462.295,518.958c.793.963.293,5.286.293,5.286l-2.187,3.622s.131,2.338.139,5.488l-3.677,1.149a2.183,2.183,0,0,1-2.833-2.152l.634-20.452,8.579,3.281c-.729.507.071,1.752.071,1.752S461.494,517.995,462.295,518.958Z" transform="translate(-292.539 -332.286)" opacity="0.1"/>
      <path id="Path_372" data-name="Path 372" d="M463.4,517.854c.793.963.293,5.29.293,5.29l-2.187,3.622s.131,2.334.143,5.488l-3.745,1.169a2.14,2.14,0,0,1-2.774-2.108l.638-20.515,8.583,3.281c-.733.507.067,1.747.067,1.747S462.606,516.895,463.4,517.854Z" transform="translate(-293.203 -331.622)" fill="#fff"/>
      <path id="Path_373" data-name="Path 373" d="M472.713,499.139s-.583,3.721-2.041,3.939-2.112,6.019-3.566,5.813-.491-5.393-.44-6.4-1.585-5.175-.361-6.122,5.1,0,5.1,0Z" transform="translate(-299.677 -322.655)" fill="#cf6f80"/>
      <path id="Path_374" data-name="Path 374" d="M473.537,423.238l2.75-5.548a36.018,36.018,0,0,1,1.094,6.487c0,2.259,1.53,2.481,1.53,2.481s1.676,1.981.793,3.424-1.24,5.033-1.24,5.033.289,6.852-1.022,7.8-1.585,3.21-1.585,3.21-2.409,4.3-2.334,5.322-3.352,7.945-3.352,7.945,1.676-8.6-8.092-12.32c0,0-.075-2.92.654-3.721s1.866-1.165,1.153-5.211a47.257,47.257,0,0,1-.206-9.851c0-.971,2.187-7.026,2.187-7.026Z" transform="translate(-297.398 -275.409)" opacity="0.1"/>
      <path id="Path_375" data-name="Path 375" d="M475.988,415.69l2.4.793a35.9,35.9,0,0,1,1.1,6.487c0,2.259,1.53,2.481,1.53,2.481s1.676,1.981.793,3.424-1.236,5.033-1.236,5.033.289,6.852-1.022,7.8-1.6,3.21-1.6,3.21-2.405,4.3-2.33,5.322-3.356,7.945-3.356,7.945,1.68-8.6-8.092-12.32c0,0-.071-2.921.658-3.721s1.866-1.165,1.153-5.211a47.26,47.26,0,0,1-.206-9.851c0-.971,2.187-7.026,2.187-7.026Z" transform="translate(-298.66 -274.201)" fill="#fff"/>
      <path id="Path_376" data-name="Path 376" d="M360.15,776.588s3.828-2.405,6.34-.658S360.15,776.588,360.15,776.588Z" transform="translate(-235.863 -491.304)" opacity="0.1"/>
      <path id="Path_377" data-name="Path 377" d="M435.21,759.757a7.749,7.749,0,0,1,6.233,2.627C444.289,765.448,435.21,759.757,435.21,759.757Z" transform="translate(-281.179 -481.911)" opacity="0.1"/>
      <g id="Group_6" data-name="Group 6" transform="translate(125.569 73.176)" opacity="0.1">
        <path id="Path_378" data-name="Path 378" d="M405.435,261.849a5.877,5.877,0,0,0-1.438,1.28,14.488,14.488,0,0,0-.507,1.585c-.222.515-.868.935-1.316.61-.1-3.566-1.863-6.915-4.022-9.768a10.15,10.15,0,0,0-2.175-2.259,4.26,4.26,0,0,0-2.96-.836c-1.189.162-2.235.971-3.436,1.07-1.585.135-3.008-.963-4.581-1.018a4.486,4.486,0,0,0-3.36,1.565,9.177,9.177,0,0,0-1.8,3.341,19.591,19.591,0,0,0-1.007,5.77c-.024,1.106-.127,2.485-1.149,2.9a5.434,5.434,0,0,1,0,.88c1.03-.4,1.133-1.791,1.157-2.9a19.57,19.57,0,0,1,1.007-5.77,9.2,9.2,0,0,1,1.8-3.345,4.5,4.5,0,0,1,3.36-1.561c1.585.055,3.012,1.149,4.581,1.018,1.189-.1,2.243-.911,3.436-1.07a4.26,4.26,0,0,1,2.96.836,10.152,10.152,0,0,1,2.175,2.259c2.16,2.849,3.919,6.19,4.022,9.764.448.329,1.094-.1,1.316-.606A15.361,15.361,0,0,1,404,264a5.864,5.864,0,0,1,1.438-1.276,5.609,5.609,0,0,0,1.5-4.49v-.151A5.2,5.2,0,0,1,405.435,261.849Z" transform="translate(-372.015 -248.82)"/>
        <path id="Path_379" data-name="Path 379" d="M367.552,266.36c-.911-1-2.156-1.672-2.992-2.734a5.8,5.8,0,0,1-1.153-3.245,6.1,6.1,0,0,0,1.153,4.117c.836,1.066,2.08,1.736,2.992,2.738a5.944,5.944,0,0,1,1.494,3.535,5.944,5.944,0,0,0-1.494-4.411Z" transform="translate(-363.385 -253.612)"/>
        <path id="Path_380" data-name="Path 380" d="M451.988,244.085c-.234.971-.65,1.894-.84,2.873a9.15,9.15,0,0,0-.123,1.981,7.7,7.7,0,0,1,.123-1.125c.19-.983.606-1.9.84-2.873a4.875,4.875,0,0,0,.131-1.641A5.5,5.5,0,0,1,451.988,244.085Z" transform="translate(-416.289 -243.3)"/>
      </g>
      <ellipse id="Ellipse_29" data-name="Ellipse 29" cx="38.613" cy="6.202" rx="38.613" ry="6.202" transform="translate(14.274 288.993)" fill="#63b9ff" opacity="0.1"/>
      <rect id="Rectangle_199" data-name="Rectangle 199" width="2.485" height="55.942" transform="translate(51.647 176.393)" fill="#535461"/>
      <path id="Path_381" data-name="Path 381" d="M171.154,638.726l-.155,2.52-.222,3.566-.091,1.482-.218,3.566-.1,1.482-.222,3.566-2.5,40.448a6.856,6.856,0,0,1-6.84,6.428H147.786a6.852,6.852,0,0,1-6.836-6.428l-2.493-40.475-.222-3.566-.091-1.482-.222-3.566-.091-1.482-.222-3.566-.159-2.52a3.567,3.567,0,0,1,3.566-3.769h26.633a3.543,3.543,0,0,1,3.5,3.8Z" transform="translate(-101.41 -406.563)"/>
      <path id="Path_382" data-name="Path 382" d="M123.986,592.24l-.222,3.555H90.8l-.222-3.555Z" transform="translate(-54.396 -357.556)" fill="#aaa"/>
      <path id="Path_383" data-name="Path 383" d="M124.15,604.95l-.218,3.558H91.592l-.222-3.558Z" transform="translate(-54.873 -365.229)" fill="#aaa"/>
      <path id="Path_384" data-name="Path 384" d="M124.313,617.68l-.218,3.555H92.382l-.222-3.555Z" transform="translate(-55.35 -372.915)" fill="#aaa"/>
      <path id="Path_385" data-name="Path 385" d="M79.65,539.824c14.468,10.469,20.507,26.843,20.507,26.843s-17.436-.6-31.908-11.068-20.5-26.839-20.5-26.839S65.178,529.354,79.65,539.824Z" transform="translate(-47.258 -342.465)" fill="#279259"/>
      <path id="Path_386" data-name="Path 386" d="M47.72,528.76s18.1,10.045,23.907,18.363,28.512,19.544,28.512,19.544" transform="translate(-47.24 -342.465)" fill="none" stroke="#535461" stroke-width="2"/>
      <path id="Path_387" data-name="Path 387" d="M125.365,494.283a35.183,35.183,0,0,1,11.167,14.607,35.113,35.113,0,0,1-17.369-6.019A35.112,35.112,0,0,1,108,488.26,35.086,35.086,0,0,1,125.365,494.283Z" transform="translate(-83.633 -318.014)" fill="#279259"/>
      <path id="Path_388" data-name="Path 388" d="M108,488.26s9.851,5.469,13.01,9.994,15.522,10.636,15.522,10.636" transform="translate(-83.633 -318.014)" fill="none" stroke="#535461" stroke-width="2"/>
      <path id="Path_389" data-name="Path 389" d="M192.151,519.257c-9.047,9.943-10.961,22.936-10.961,22.936s12.756-3.131,21.795-13.077,10.961-22.936,10.961-22.936S201.2,509.315,192.151,519.257Z" transform="translate(-127.82 -328.832)" fill="#279259"/>
      <path id="Path_390" data-name="Path 390" d="M213.954,506.19s-11.785,10.192-14.781,17.214-17.983,18.8-17.983,18.8" transform="translate(-127.82 -328.838)" fill="none" stroke="#535461" stroke-width="2"/>
      <path id="Path_391" data-name="Path 391" d="M911.409,369.361s-6.542-32.55-4.038-36.6c0,0,.091-3.765-.059-8.563v-.551a12.188,12.188,0,0,0,1.375.793,11.127,11.127,0,0,0,7.489.967L914.2,323.2a3.658,3.658,0,0,1-1.074-1.8,3.759,3.759,0,0,1,.428-1.942c1.882-4.755,1.981-10.735-1.645-14.365-3.063-3.051-3.808-6.99-7.133-9.776-2.429-2.041-3.765-5.033-5.025-7.925a44.577,44.577,0,0,1-2.75-7.5c-.475-2.025-.666-4.121-1.32-6.1a7.762,7.762,0,0,0-3.792-4.783,14.311,14.311,0,0,1-2.061-.908,8.9,8.9,0,0,1-1.9-2.231c-3-3.963-13.045-1.629-17.8-.02a10.013,10.013,0,0,0-3.519,1.95l.044-.071c.036-.059.079-.119.119-.178a6.252,6.252,0,0,0-1.331,1.486,35.66,35.66,0,0,0-1.561,3.566c-.7,1.407-4.577,5.334-2.909,6.915a1.407,1.407,0,0,0,.4.254,3.427,3.427,0,0,0,1.981.2l-.071.17a11.583,11.583,0,0,0-.86,4.395,11.894,11.894,0,0,0,12,11.789,12.114,12.114,0,0,0,3.673-.567c.028.151.052.3.079.452a1.387,1.387,0,0,0,.028.178h0l-.21.293a.4.4,0,0,0-.036-.052l-6.221,8.694c-.951.67-6.427,4.632-6.737,7.6-.325,3.253-.65,7.062-.65,7.062l-.044.816a2.449,2.449,0,0,1-1.981.535c-1.942-.317-1.942,7.133-1.942,7.133s-1.292,1.189-2.18.158-3.234,2.461-3.234,2.461l-14.7.634h0l-.337.02-.792-2.453a1.034,1.034,0,0,0-1.3-.662,1.185,1.185,0,0,0-.178.075l-.056.032-.1.071-.052.048a.789.789,0,0,0-.079.083l-.048.055-.024.024h0a1,1,0,0,0-.143.888l.682,2.1c-2.837.571-5.738,2.179-3.372,6.61l-11.991-2.215,3.879,3.257,20.028,4.133c-.266.476-.091,1.165.737,2.136,3.566,4.189,10.065,5.326,12.681,5.619a22.509,22.509,0,0,0,2.572,4.359l-.226,4.173s-6.622,31.8-7.834,33.418a18.865,18.865,0,0,0,1.676-2.207c-1.922,6.535-4.609,15.478-5.314,16.818-1.133,2.14-2.184,10.8-.892,11.353a10.868,10.868,0,0,0,3.146-.036v.717l-.071,27.18s.325,16.671-.567,18.26a15.542,15.542,0,0,0-1.129,4.922s-3.566,6.574-6.392,9.217a.428.428,0,0,1-.063.056l-.087-.618s-3.4,4.288-10.909,4.046c0,0-4.521,2.94,2.183,3.1s15.268-.238,15.268-.238,5.98-9.114,10.989-7.925v6.907h1.534v-7.018a6.289,6.289,0,0,0,2.73-4.133,5.025,5.025,0,0,0-1.791-4.648,2.973,2.973,0,0,1-.979-2.172l-.055.048a4.184,4.184,0,0,0-.052-.428c-.44-3.566-.991-10.925.955-16.37,2.667-7.466,3.475-17.864,1.534-24.054a55.317,55.317,0,0,1-1.541-6.027c-.048-.258-.091-.5-.131-.733a31.239,31.239,0,0,1,3.935.793c4.5,1.24,14.337,1.47,22.738,1.4.02.23.044.472.071.713a25.96,25.96,0,0,0,.935,4.961c1.054,3.17,1.538,17.147,1.538,17.147s1.359,11.492.618,16.168c-.4,2.6-.793,5.211-1.018,7.834v.052s-2.227,6.34-3.856,9.784c-.04.087-.083.174-.123.258a5.151,5.151,0,0,0-1.272.281s-2.184,4.359-4.359,5.08-1.454,3.095,3.471,2.223,12.364-1.585,12.364-1.585l.321-4.446,1.514-1.894-.4,4.434,1.613-.317-.214-5.393,2.477-3.1s2.992-2.663-1.454-7.9v.115c-.048-.075-.091-.155-.143-.23v-.024c-.737-1.141-1.324-3.269-.25-7.046,1.942-6.824,3.071-13.018,3.071-13.018s4.335-16.592-.876-24.442h.23a13.2,13.2,0,0,1-1.121-3.487q-.039-.214-.071-.44a28.594,28.594,0,0,0,10.727-2.425C914.805,415,912.947,375.63,911.409,369.361ZM862.458,341.9v.079l-.792.04Zm-2.718.376a.875.875,0,0,0-.357.17,3.519,3.519,0,0,0-.622,1.629l-1.236-.277s-.868-.186-2.116-.4l-.59-.594C856.442,342.672,858.13,342.474,859.739,342.276Z" transform="translate(-514.979 -182.435)" fill="url(#linear-gradient-2)"/>
      <path id="Path_392" data-name="Path 392" d="M971.792,742.323l-.472,5.615,1.581-.317-.238-6.091Z" transform="translate(-586.124 -447.687)" fill="#1d2366"/>
      <path id="Path_393" data-name="Path 393" d="M895.873,683.666c-1.906,5.429-1.367,12.756-.939,16.315.159,1.316.305,2.116.305,2.116s-2.849,6.491-3.087,6.737-8.385,5.219-8.385,5.219l-5.694,3.325s-5.778-2.532-3.008-3.4a4.2,4.2,0,0,0,1.494-1.018c2.774-2.635,6.257-9.185,6.257-9.185a15.8,15.8,0,0,1,1.11-4.906c.872-1.581.555-18.2.555-18.2l.067-27.085V650.05l10.838.079a24.546,24.546,0,0,0,.468,3.566,54.49,54.49,0,0,0,1.51,6.008C899.273,665.881,898.481,676.228,895.873,683.666Z" transform="translate(-546.278 -415.691)" fill="#ffb0b1"/>
      <path id="Path_394" data-name="Path 394" d="M895.239,778.178s-2.849,6.491-3.087,6.737-8.385,5.219-8.385,5.219l-5.694,3.325s-5.778-2.532-3.008-3.4a4.2,4.2,0,0,0,1.494-1.018l.246,1.732,1.9-.079L894.95,776.07C895.092,777.378,895.239,778.178,895.239,778.178Z" transform="translate(-546.278 -491.773)" opacity="0.1"/>
      <path id="Path_395" data-name="Path 395" d="M879.705,777l-16.338,14.718-1.9.079-.4-2.774s-3.321,4.272-10.7,4.034c0,0-4.43,2.929,2.136,3.087s14.951-.238,14.951-.238,5.857-9.114,10.759-7.925v6.883h1.506v-6.947A6.257,6.257,0,0,0,882.4,783.8a5.049,5.049,0,0,0-1.748-4.628,2.984,2.984,0,0,1-.943-2.168Z" transform="translate(-530.942 -492.334)" fill="#1d2366"/>
      <path id="Path_396" data-name="Path 396" d="M1001.131,691.68c-1.054,3.765-.48,5.885.242,7.022v.024a12.981,12.981,0,0,1,1.894,4.625l.063.357L995.9,714.545l-4.034,1.585s-6.487-2.215-5.3-2.849a6.072,6.072,0,0,0,1.292-2.116c1.585-3.428,3.773-9.752,3.773-9.752v-.052c.23-2.611.594-5.215,1-7.807.725-4.664-.606-16.112-.606-16.112s-.476-13.921-1.506-17.087a26.132,26.132,0,0,1-.923-4.93c-.214-1.981-.262-3.614-.262-3.614s4.272-5.944,12.1.475a8.618,8.618,0,0,1,1.637,1.775c5.409,7.7,1.054,24.648,1.054,24.648S1003.029,684.876,1001.131,691.68Z" transform="translate(-613.957 -415.241)" fill="#ffb0b1"/>
      <path id="Path_397" data-name="Path 397" d="M1003.36,778.82l-7.434,10.838-4.034,1.585s-6.487-2.215-5.3-2.849a6.067,6.067,0,0,0,1.292-2.116,5.127,5.127,0,0,1,4.169,2.592l3.479-.555s4.589-9.019,5.619-9.57.159-4.117.159-4.117v-.908c.028.032.052.067.083.1v.024a12.978,12.978,0,0,1,1.894,4.625Z" transform="translate(-613.975 -490.354)" opacity="0.1"/>
      <path id="Path_398" data-name="Path 398" d="M984.14,789.453s-1.981-3.638-5.778-2.294c0,0-2.136,4.359-4.272,5.064s-1.423,3.083,3.4,2.215,12.1-1.585,12.1-1.585l.317-4.434,4.906-6.249s2.924-2.651-1.427-7.87v.907s.872,3.566-.159,4.117-5.6,9.574-5.6,9.574Z" transform="translate(-605.827 -490.704)" fill="#1d2366"/>
      <path id="Path_399" data-name="Path 399" d="M910.99,650.109a24.528,24.528,0,0,0,.468,3.566,49.714,49.714,0,0,0-11.318-.115V650.03Z" transform="translate(-561.87 -415.679)" opacity="0.1"/>
      <path id="Path_400" data-name="Path 400" d="M1007.963,655.043s-6.34.309-13.9.372c-.214-1.981-.262-3.614-.262-3.614s4.272-5.944,12.1.476a8.614,8.614,0,0,1,1.637,1.775A9.683,9.683,0,0,0,1007.963,655.043Z" transform="translate(-618.415 -415.235)" opacity="0.1"/>
      <path id="Path_401" data-name="Path 401" d="M945.845,548.578s-27.771,1.343-36.235-1.03-16.853-.317-18.117-.868-.238-9.178.872-11.314,7.2-23.737,7.2-23.737l5.857-30.537,6.17-1.7.436-.123,10.751-2.964,7.878-2.176s15.665,61.157,14.321,65.666a11.548,11.548,0,0,0-.23,5.306A13.248,13.248,0,0,0,945.845,548.578Z" transform="translate(-556.298 -309.483)" fill="#1d2366"/>
      <path id="Path_402" data-name="Path 402" d="M871.553,439s-5.548,5.944-1.347,9.257,6.963.317,6.963.317Z" transform="translate(-542.849 -288.274)" fill="#c7daf5"/>
      <path id="Path_403" data-name="Path 403" d="M871.553,439s-5.548,5.944-1.347,9.257,6.963.317,6.963.317Z" transform="translate(-542.849 -288.274)" opacity="0.1"/>
      <path id="Path_404" data-name="Path 404" d="M971.028,323.873s-.65.618-1.629,1.53c-1.395,1.3-3.459,3.21-5.29,4.807-2.536,2.207-4.628,3.828-3.88,2.445s.606-3.792.234-6.047c-.028-.151-.052-.3-.079-.448a41.518,41.518,0,0,0-1.224-4.9,84.743,84.743,0,0,1,6.364-7.383c.844-.793,1.435-1.117,1.47-.567a18.408,18.408,0,0,0,1.284,4.113c.02.056.04.107.063.162.46,1.189.979,2.409,1.434,3.463C970.474,322.668,971.028,323.873,971.028,323.873Z" transform="translate(-597.502 -212.227)" fill="#ffb0b1"/>
      <path id="Path_405" data-name="Path 405" d="M968.342,317.6a11.762,11.762,0,0,1-7.878,9.019,41.245,41.245,0,0,0-1.3-5.346s7.715-9.966,7.834-7.949A18.852,18.852,0,0,0,968.342,317.6Z" transform="translate(-597.502 -212.234)" opacity="0.1"/>
      <path id="Path_406" data-name="Path 406" d="M937.906,351.857l1-1.407s.662,4.034,3.095,2.255,2.552,13.39,2.552,13.39l-2.611,39.045-18.87-1.129.535-18.867,2.136-9.511,5.282-13.826,3.142-4.569Z" transform="translate(-575.714 -234.814)" opacity="0.1"/>
      <path id="Path_407" data-name="Path 407" d="M944.57,366.675l-2.378,35.3-.25,3.741-10.521-.63-.4-.024-7.925-.476.535-18.87,2.136-9.511,5.282-13.826,3.142-4.569,3.741-5.4,1-1.4s.662,4.034,3.095,2.255l.052-.036h0C944.459,351.723,944.57,366.675,944.57,366.675Z" transform="translate(-575.732 -235.152)" fill="#1d2366"/>
      <path id="Path_408" data-name="Path 408" d="M893.254,406.26s-.947,1.981-2.849,1.66-1.9,7.133-1.9,7.133-1.264,1.189-2.136.159-3.17,2.453-3.17,2.453l-14.4.634s6.408,2.928,5.152,11.789c0,0,21.755-1.347,22.469-3.4S893.254,406.26,893.254,406.26Z" transform="translate(-542.949 -268.508)" fill="#fff"/>
      <path id="Path_409" data-name="Path 409" d="M893.254,406.26s-.947,1.981-2.849,1.66-1.9,7.133-1.9,7.133-1.264,1.189-2.136.159-3.17,2.453-3.17,2.453l-14.4.634s6.408,2.928,5.152,11.789c0,0,21.755-1.347,22.469-3.4S893.254,406.26,893.254,406.26Z" transform="translate(-542.949 -268.508)" fill="#fff" opacity="0.03"/>
      <path id="Path_410" data-name="Path 410" d="M777.66,389.76l3.8,3.241,31.25,6.566-3.875-3.955Z" transform="translate(-469.206 -235.313)" fill="#fff"/>
      <path id="Path_411" data-name="Path 411" d="M926.193,351.505a79.96,79.96,0,0,0-3.246,8.393c-1.034,2.952-1.9,5.548-1.9,5.548s-2.017,13.132-3.047,15.506-.471,11.631-.471,11.631l-3.84,22.861s-1.74,11.789-4.426,18.831c-2.651,6.931-5.6,10.18-5.694,10.283,1.189-1.609,7.668-33.287,7.668-33.287l2.14-39.952s.313-3.8.63-7.042,6.737-7.676,6.737-7.676l6.19-8.8C927.556,348.632,927.14,350.083,926.193,351.505Z" transform="translate(-563.941 -233.214)" fill="#fff"/>
      <path id="Path_412" data-name="Path 412" d="M898.053,473.368s-9.114-.4-13.529-5.7,10.2-2.116,10.2-2.116l3.8.872Z" transform="translate(-551.941 -303.732)" fill="#ffb0b1"/>
      <path id="Path_413" data-name="Path 413" d="M976.476,468.744a11.547,11.547,0,0,0-.23,5.306c-9.943.705-20.578-1.981-20.578-1.981-1.981,1.823-7.2,4.51-7.2,4.51l-2.845-35.268c-1.819-4.755-2.532-29.669-2.532-29.669s.162-1.3.4-3.257a.375.375,0,0,1,.02-.147c.709-5.457,2.116-15.7,2.806-17.083.951-1.9-2.924-6.963-2.924-6.963l1.763-15.039.214-1.815c3.717-1.66,6.566-6.963,6.566-6.963l2.187-3.832h0c2.378-1.526,2.5,13.426,2.5,13.426l-2.378,35.3,7.878-2.176S977.819,464.234,976.476,468.744Z" transform="translate(-587.8 -238.427)" opacity="0.1"/>
      <path id="Path_414" data-name="Path 414" d="M987.4,456.792c-10.838,5.381-30.537.4-30.537.4-1.981,1.823-7.2,4.51-7.2,4.51l-2.849-35.268c-1.815-4.755-2.528-29.669-2.528-29.669s2.291-18.589,3.242-20.487a3.053,3.053,0,0,0-.186-2.267,28.681,28.681,0,0,1-1.736-13.271l.761-6.463.21-1.811c3.721-1.664,6.57-6.966,6.57-6.966l1.981-3.471,3.646-6.4,1.728-3.027.293.266,2.239,2.029,2.378,1.981c3.1,2.615,8.464,7.22,11.23,10.038,2.433,2.481,3.2,12.13,3.424,19.394.147,4.783.059,8.532.059,8.532-2.453,4.038,3.963,36.457,3.963,36.457C985.585,417.561,987.4,456.792,987.4,456.792Z" transform="translate(-588.525 -224.037)" fill="#fff"/>
      <path id="Path_415" data-name="Path 415" d="M949.782,364.089s-7.438,14.159-6.574,19.54,3.321,11.472,2.136,12.895a4.379,4.379,0,0,1-3.483,1.74c-1.189.079-4.359,2.294-4.359,2.532s-2.929.238-5.548,1.347a34.546,34.546,0,0,1-6.487,1.74s-7.529-.238-8.231.476-1.423,4.981.079,8.385,3.17,5.944,4.43,6.408S931,416.935,937.49,416.3s13.529-5.774,13.529-5.774,7.755-2.774,9.114-7.438-1.66-30.3-1.66-30.3S956.19,360.843,949.782,364.089Z" transform="translate(-571.707 -242.71)" opacity="0.03"/>
      <path id="Path_416" data-name="Path 416" d="M947.4,361.09s-7.438,14.163-6.566,19.54,3.321,11.472,2.132,12.9a4.359,4.359,0,0,1-3.479,1.74c-1.189.079-4.359,2.294-4.359,2.532s-2.928.238-5.548,1.343a34.883,34.883,0,0,1-6.487,1.74s-7.529-.238-8.227.476-1.427,4.985.079,8.385,3.17,5.944,4.43,6.408,9.257-2.215,15.744-2.845,13.529-5.778,13.529-5.778,7.751-2.774,9.094-7.434-1.66-30.3-1.66-30.3S953.807,357.849,947.4,361.09Z" transform="translate(-570.275 -240.901)" opacity="0.03"/>
      <path id="Path_417" data-name="Path 417" d="M949.2,362.3s-7.438,14.163-6.566,19.54,3.321,11.472,2.136,12.895a4.359,4.359,0,0,1-3.483,1.744c-1.189.079-4.359,2.294-4.359,2.528s-2.925.238-5.548,1.347a34.622,34.622,0,0,1-6.487,1.74s-7.529-.238-8.231.476-1.423,4.985.079,8.385,3.17,5.944,4.43,6.408,9.257-2.215,15.744-2.849,13.529-5.774,13.529-5.774,7.755-2.774,9.114-7.438-1.641-30.3-1.641-30.3S955.608,359.071,949.2,362.3Z" transform="translate(-571.362 -241.632)" fill="#fff"/>
      <path id="Path_418" data-name="Path 418" d="M993.02,458.461s-5.944-1.189-3.876.793,2.057,3.717,4.589,3.638S993.02,458.461,993.02,458.461Z" transform="translate(-615.34 -299.81)" opacity="0.1"/>
      <path id="Path_419" data-name="Path 419" d="M1023.871,566.58s-2.687,1.819,2.453,6.011S1023.871,566.58,1023.871,566.58Z" transform="translate(-636.146 -365.298)" opacity="0.1"/>
      <path id="Path_420" data-name="Path 420" d="M1011.824,604.31c0,.238-.951,8.718,2.608,10.838S1011.824,604.31,1011.824,604.31Z" transform="translate(-629.227 -388.076)" opacity="0.1"/>
      <path id="Path_421" data-name="Path 421" d="M859.13,436.59c-2.869.1-9.067.975-5.853,6.97,2.841,5.306,7.616,1.759,10.3-.931A10.125,10.125,0,0,0,859.13,436.59Z" transform="translate(-533.034 -286.819)" fill="#ffb0b1"/>
      <path id="Path_422" data-name="Path 422" d="M881.39,451Z" transform="translate(-550.55 -295.519)" fill="#ffb0b1"/>
      <path id="Path_423" data-name="Path 423" d="M880.74,451.523l.119-.123Z" transform="translate(-550.158 -295.76)" fill="#ffb0b1"/>
      <path id="Path_424" data-name="Path 424" d="M968.585,337.474c-3.043,2.08-5.6,3.836-6.095,4.2-1.363,1.01-3.963,6.943-5.639,9.97-1.335,2.437-5.675,3.063-7.311,3.218l.21-1.811c3.721-1.664,6.57-6.966,6.57-6.966l7.355-12.895,2.532,2.3Z" transform="translate(-591.694 -224.393)" opacity="0.1"/>
      <path id="Path_425" data-name="Path 425" d="M968.585,336.874c-3.043,2.08-5.6,3.836-6.095,4.2-1.363,1.007-3.963,6.939-5.639,9.966-1.335,2.437-5.675,3.063-7.311,3.218l.21-1.811c3.721-1.664,6.57-6.966,6.57-6.966l7.355-12.895,2.532,2.294S967.158,335.669,968.585,336.874Z" transform="translate(-591.694 -224.031)" fill="#dce7ff"/>
      <path id="Path_426" data-name="Path 426" d="M947,300.015a11.753,11.753,0,1,1-9.992-11.619A11.733,11.733,0,0,1,947,300.015Z" transform="translate(-575.971 -197.27)" fill="#ffb0b1"/>
      <path id="Path_427" data-name="Path 427" d="M968.816,339.543a10.445,10.445,0,0,1-3.792-4.074c-.662-1.308-1.1-2.818-2.231-3.745a9.908,9.908,0,0,0-3.646-1.407c-4.169-1.232-7.664-5.037-7.795-9.38-.063-2.045.575-4.086.285-6.111a6.768,6.768,0,0,0-1.324-3.15,10.855,10.855,0,0,0-1.145-1.232c-.555-.523-1.137-1.03-1.645-1.585a6.157,6.157,0,0,1-.832-1.129,5.425,5.425,0,0,1-.456-1.05c-.793-2.425-.071-5.3-.943-7.755l-.047-.135a2.523,2.523,0,0,0-1.93-1.811c-.931-.067-1.728.705-2.615,1.05-1.858.721-3.864-.507-5.413-1.759s-3.3-2.683-5.266-2.405c-1.3.186-2.334,1.074-3.535,1.534a4.951,4.951,0,0,1-.836.242,11.752,11.752,0,0,1,22.4,6.832c.02.055.04.107.063.162.46,1.189.979,2.409,1.435,3.463l2.239,2.029,2.378,1.981c3.1,2.615,8.464,7.22,11.23,10.038C967.825,322.634,968.586,332.279,968.816,339.543Z" transform="translate(-577.271 -197.269)" opacity="0.1"/>
      <path id="Path_428" data-name="Path 428" d="M922.455,274.418c.567-1.153.848-2.445,1.526-3.539a8.431,8.431,0,0,1,4.514-3.214c4.656-1.6,14.5-3.935,17.436,0a8.579,8.579,0,0,0,1.859,2.219,13.791,13.791,0,0,0,2.017.907,7.709,7.709,0,0,1,3.709,4.755c.638,1.958.828,4.058,1.3,6.075a44.666,44.666,0,0,0,2.695,7.478c1.232,2.877,2.54,5.861,4.918,7.894,3.245,2.774,3.963,6.7,6.974,9.744,3.566,3.614,3.451,9.578,1.613,14.313a3.93,3.93,0,0,0-.42,1.934,3.793,3.793,0,0,0,1.05,1.791l1.95,2.2a10.963,10.963,0,0,1-11.979-5.524c-.662-1.308-1.1-2.814-2.235-3.745a9.883,9.883,0,0,0-3.642-1.4c-4.169-1.236-7.664-5.045-7.795-9.388-.063-2.041.575-4.082.285-6.1a6.737,6.737,0,0,0-1.327-3.17c-1.09-1.423-2.734-2.378-3.622-3.963-1.5-2.651-.361-6.095-1.442-8.94a2.529,2.529,0,0,0-1.93-1.811c-.931-.067-1.728.705-2.619,1.05-1.855.721-3.86-.5-5.409-1.759s-3.3-2.683-5.27-2.4c-1.3.182-2.33,1.07-3.531,1.534-.888.341-2.687.646-3.463-.1C917.969,279.74,921.769,275.829,922.455,274.418Z" transform="translate(-573.379 -183.529)" fill="#591d4b"/>
      <path id="Path_429" data-name="Path 429" d="M962.582,326.016c-.666-1.308-1.1-2.814-2.235-3.741a9.883,9.883,0,0,0-3.646-1.407c-4.165-1.232-7.66-5.041-7.795-9.384-.063-2.041.575-4.086.289-6.107a6.776,6.776,0,0,0-1.328-3.15c-1.094-1.423-2.738-2.378-3.622-3.963-1.5-2.647-.361-6.091-1.446-8.94a2.536,2.536,0,0,0-1.926-1.811c-.927-.071-1.732.709-2.62,1.054-1.854.721-3.864-.507-5.409-1.759s-3.3-2.683-5.27-2.405c-1.3.186-2.334,1.074-3.531,1.534-.888.341-2.691.65-3.467-.1-1.633-1.585,2.168-5.488,2.849-6.891a37.9,37.9,0,0,1,1.53-3.539c.036-.059.075-.119.115-.178a6.29,6.29,0,0,0-1.3,1.482,38.493,38.493,0,0,0-1.526,3.539c-.685,1.4-4.486,5.318-2.849,6.891.793.753,2.576.444,3.463.1,1.189-.464,2.227-1.351,3.531-1.534,1.981-.281,3.725,1.149,5.27,2.4s3.567,2.481,5.413,1.759c.888-.345,1.664-1.121,2.615-1.05a2.523,2.523,0,0,1,1.93,1.811c1.082,2.845-.059,6.289,1.442,8.94.888,1.557,2.532,2.532,3.622,3.963a6.738,6.738,0,0,1,1.327,3.17c.289,2.021-.349,4.062-.285,6.1.131,4.359,3.626,8.151,7.795,9.388a9.939,9.939,0,0,1,3.642,1.4c1.137.931,1.585,2.437,2.235,3.745a10.963,10.963,0,0,0,11.979,5.524l-.919-1.038A11.082,11.082,0,0,1,962.582,326.016Z" transform="translate(-573.248 -189.401)" opacity="0.1"/>
      <path id="Path_430" data-name="Path 430" d="M951.741,352.045a79.969,79.969,0,0,0-3.245,8.393c-1.161-.452-2.215-3.333-2.215-3.333l6.19-8.805C953.1,349.172,952.688,350.618,951.741,352.045Z" transform="translate(-589.726 -233.516)" opacity="0.1"/>
      <path id="Path_431" data-name="Path 431" d="M952.341,351.451a79.948,79.948,0,0,0-3.245,8.393c-1.161-.448-2.215-3.333-2.215-3.333l6.19-8.8C953.7,348.578,953.288,350.028,952.341,351.451Z" transform="translate(-590.088 -233.16)" fill="#dce7ff"/>
      <path id="Path_432" data-name="Path 432" d="M864.538,440.814l-3.432-10.822a1.01,1.01,0,0,1,.658-1.272h0a1.015,1.015,0,0,1,1.268.658l3.432,10.81-.341,2.263Z" transform="translate(-538.275 -282.039)" fill="#be8b87"/>
      <path id="Path_433" data-name="Path 433" d="M861.68,429.064h0a1.014,1.014,0,0,1,1.272.658l3.432,10.81-.258,1.7.25.262.341-2.263-3.451-10.81a1.015,1.015,0,0,0-1.268-.658h0a1.015,1.015,0,0,0-.527.4A1.383,1.383,0,0,1,861.68,429.064Z" transform="translate(-538.524 -282.063)" fill="#fff" opacity="0.1"/>
      <path id="Path_434" data-name="Path 434" d="M822.6,399.75l1.926-.61-.281,1.855-.059.408-.563-.587Z" transform="translate(-496.337 -240.976)" fill="#efc8c4"/>
      <path id="Path_435" data-name="Path 435" d="M872.42,461.8a.4.4,0,0,1,.123-.1.174.174,0,0,1,.186,0,.489.489,0,0,1,.067.107.341.341,0,0,0,.246.162l-.059.4Z" transform="translate(-545.135 -301.962)" fill="#727a9c"/>
      <path id="Path_436" data-name="Path 436" d="M861.13,441.7s6.883-.04,5.262,2.889a6.191,6.191,0,0,1-4.153,3.281Z" transform="translate(-538.319 -289.904)" fill="#ffb0b1"/>
      <path id="Path_437" data-name="Path 437" d="M615.142,110.05h-.3a33.9,33.9,0,0,0-28.3,15.49,33.894,33.894,0,0,0-28.3-15.49h-.3a33.683,33.683,0,0,0-33.362,33.663c0,11.02,4.827,26.657,14.238,39.524,17.931,24.517,47.719,45.967,47.719,45.967s29.788-21.446,47.715-45.967c9.415-12.867,14.238-28.5,14.238-39.524a33.683,33.683,0,0,0-33.358-33.663Zm-4.252,75.074a6.677,6.677,0,0,1-6.21-4.288h-7.069a2.235,2.235,0,0,1-2.1-1.522l-2.172-6.542-6.871,24.01a2.223,2.223,0,0,1-2.132,1.6h-.139a2.2,2.2,0,0,1-2.061-1.839l-7.081-42.591-5.175,25.2a2.207,2.207,0,0,1-2.144,1.676h-9.958a2.215,2.215,0,1,1,0-4.426h8.215l7.331-33.885a2.223,2.223,0,0,1,4.359.182l7.232,43.447,6.158-21.482a2.18,2.18,0,0,1,2.073-1.585h.044a2.211,2.211,0,0,1,2.1,1.522l3.927,11.813h5.381a6.642,6.642,0,1,1,6.309,8.718Z" transform="translate(-335.14 -89.678)" fill="#0c385d"/>
    </g>
  </g>
</svg>
