<svg xmlns="http://www.w3.org/2000/svg" width="41.851" height="59.828" viewBox="0 0 41.851 59.828">
  <g id="afro-boy-child-svgrepo-com" transform="translate(0)">
    <path id="Path_500" data-name="Path 500" d="M65.075,33.223a2.323,2.323,0,0,0-.617-4.56,2.323,2.323,0,0,0-1.684-4.291,2.323,2.323,0,0,0-2.682-3.755,2.323,2.323,0,0,0-3.449-3,2.323,2.323,0,0,0-4.1-2.1,2.323,2.323,0,0,0-4.479-1.073,2.323,2.323,0,0,0-4.6.07l-.386.048a2.328,2.328,0,0,0-4.447,1.207,2.328,2.328,0,0,0-4.012,2.258,2.323,2.323,0,0,0-3.358,3.143,2.323,2.323,0,0,0-2.51,3.873,2.323,2.323,0,0,0-1.534,4.34,2.323,2.323,0,0,0-.44,4.581A2.323,2.323,0,0,0,27.44,38.5a2.323,2.323,0,0,0,1.733,4.291,2.323,2.323,0,0,0,2.682,3.755,2.323,2.323,0,0,0,3.514,2.972,2.323,2.323,0,0,0,4.12,2.054,2.323,2.323,0,0,0,4.49,1.008,2.323,2.323,0,0,0,4.619-.134,2.323,2.323,0,0,0,4.447-1.185,2.323,2.323,0,0,0,4.034-2.21,2.328,2.328,0,0,0,3.4-3.111,2.323,2.323,0,0,0,2.553-3.83,2.323,2.323,0,0,0,1.561-4.329,2.323,2.323,0,0,0,.488-4.576Z" transform="translate(-24.987 -12.469)" fill="#393c54"/>
    <ellipse id="Ellipse_47" data-name="Ellipse 47" cx="4.023" cy="4.023" rx="4.023" ry="4.023" transform="translate(30.765 27.304)" fill="#8f5653"/>
    <path id="Path_501" data-name="Path 501" d="M46.583,112.41a32.051,32.051,0,0,0,20.132-7.081l-1.073-2.966A6.042,6.042,0,0,0,59.935,99h-26.7a6.123,6.123,0,0,0-5.729,3.369l-1.073,2.966a32.051,32.051,0,0,0,20.153,7.075Z" transform="translate(-25.656 -52.583)" fill="#ff8475"/>
    <path id="Path_502" data-name="Path 502" d="M64.747,99.07c0,3.036-2.468,4.962-5.5,4.962s-5.5-1.926-5.5-4.962,2.468-1.835,5.5-1.835S64.747,96.029,64.747,99.07Z" transform="translate(-38.316 -51.656)" fill="#fff"/>
    <line id="Line_3" data-name="Line 3" y2="5.364" transform="translate(20.927 40.988)" fill="none" stroke="#8f5653" stroke-linecap="round" stroke-width="16"/>
    <ellipse id="Ellipse_48" data-name="Ellipse 48" cx="4.023" cy="4.023" rx="4.023" ry="4.023" transform="translate(3.043 27.304)" fill="#8f5653"/>
    <path id="Path_503" data-name="Path 503" d="M51.581,68.692A14.365,14.365,0,0,1,37.21,54.311v-5.16a14.371,14.371,0,0,1,28.741,0v5.16A14.365,14.365,0,0,1,51.581,68.692Z" transform="translate(-30.653 -22.812)" fill="#b56b63"/>
    <path id="Path_504" data-name="Path 504" d="M50.564,30.114A15.227,15.227,0,0,0,36,45.445a1.073,1.073,0,0,0,1.073,1.073h0a1.459,1.459,0,0,0,1.395-1.126h0a4.978,4.978,0,0,1,4.9-4.077H58.674a4.978,4.978,0,0,1,4.9,4.077h0A1.459,1.459,0,0,0,64.967,46.5h0a1.073,1.073,0,0,0,1.073-1.073V45.1A15.02,15.02,0,0,0,50.564,30.114Z" transform="translate(-30.093 -20.645)" fill="#393c54"/>
    <line id="Line_4" data-name="Line 4" y1="0.129" x2="4.876" transform="translate(26.356 27.428)" fill="none" stroke="#515570" stroke-linecap="round" stroke-linejoin="round" stroke-width="1.89" opacity="0.4"/>
    <line id="Line_5" data-name="Line 5" x1="4.876" y1="0.129" transform="translate(10.623 27.428)" fill="none" stroke="#515570" stroke-linecap="round" stroke-linejoin="round" stroke-width="1.89" opacity="0.4"/>
    <path id="Path_505" data-name="Path 505" d="M64.1,84a.536.536,0,0,1,.5.574,4.592,4.592,0,0,1-9.119,0A.536.536,0,0,1,56,84Z" transform="translate(-39.127 -45.629)" fill="#393c54"/>
    <path id="Path_506" data-name="Path 506" d="M59,90.025a4.57,4.57,0,0,0,5.407,0C63.828,89.086,62.846,89,61.682,89S59.536,89.086,59,90.025Z" transform="translate(-40.755 -47.947)" fill="#f85565"/>
    <path id="Path_507" data-name="Path 507" d="M63.559,85.073H58.195A.987.987,0,0,1,57.267,84h7.242a.987.987,0,0,1-.949,1.073Z" transform="translate(-39.95 -45.629)" fill="#fff"/>
    <rect id="Rectangle_226" data-name="Rectangle 226" width="1.759" height="1.759" transform="translate(18.476 38.276)" fill="#393c54"/>
    <path id="Path_508" data-name="Path 508" d="M61.849,72.052l-1.743,3.991a.37.37,0,0,0,.343.536H63.93a.37.37,0,0,0,.343-.536L62.53,72.052a.375.375,0,0,0-.681,0Z" transform="translate(-41.249 -39.99)" fill="#8f5653"/>
    <path id="Path_509" data-name="Path 509" d="M51.219,70.609a1.609,1.609,0,1,0-3.219,0" transform="translate(-35.655 -38.676)" fill="none" stroke="#515570" stroke-linecap="round" stroke-width="2"/>
    <path id="Path_510" data-name="Path 510" d="M77.219,70.609a1.609,1.609,0,1,0-3.219,0" transform="translate(-47.709 -38.676)" fill="none" stroke="#515570" stroke-linecap="round" stroke-width="2"/>
  </g>
</svg>
