<svg xmlns="http://www.w3.org/2000/svg" width="26.884" height="21.796" viewBox="0 0 26.884 21.796">
  <g id="photo-the-most-beautiful-travel-map-svgrepo-com" transform="translate(-83 -179.4)">
    <path id="Path_596" data-name="Path 596" d="M108.8,184.046l-1.768-.475-.542-.144-1.986-.533v-2.059a1.273,1.273,0,0,0-1.434-1.434H84.434A1.274,1.274,0,0,0,83,180.834v14.812a1.273,1.273,0,0,0,1.434,1.434h4.7l15.078,4.039a1.275,1.275,0,0,0,1.756-1.014l.493-1.845L109.8,185.8A1.264,1.264,0,0,0,108.8,184.046Zm-23.4,11.6a.845.845,0,0,1-.956-.956v-12.9a.845.845,0,0,1,.956-.956h16.721a.845.845,0,0,1,.956.956v12.9a.845.845,0,0,1-.956.956Zm19.445,3.169a.845.845,0,0,1-1.171.674l.788.211-9.776-2.62h8.391a1.274,1.274,0,0,0,1.434-1.434V184.38l3,.8a.845.845,0,0,1,.674,1.171l.248-.922-.542-.147.542.147Zm-16.1-15.59a1.912,1.912,0,1,0,1.912,1.912A1.913,1.913,0,0,0,88.737,183.225Z" fill="#064565"/>
    <path id="Path_597" data-name="Path 597" d="M127.453,388.914a.745.745,0,0,1-.475-.169.753.753,0,0,1-.107-1.057l4.508-5.51a.751.751,0,0,1,1.017-.135l2.887,2.063,4.076-5.887a.751.751,0,0,1,1.26.034l5.51,9.019a.751.751,0,1,1-1.281.785l-4.91-8.039-3.852,5.565a.746.746,0,0,1-.49.313.764.764,0,0,1-.567-.129l-2.933-2.1-4.061,4.968A.756.756,0,0,1,127.453,388.914Z" transform="translate(-42.363 -192.41)" fill="#064565"/>
  </g>
</svg>
