<svg xmlns="http://www.w3.org/2000/svg" width="181.855" height="118.635" viewBox="0 0 181.855 118.635">
  <g id="Group_125" data-name="Group 125" transform="translate(-24.812 -200.326)">
    <path id="Path_2063" data-name="Path 2063" d="M162.6,96.155c-11.658-.39-22.771-4.014-33.366-7.977s-21.1-8.356-32.482-10.457c-7.32-1.352-15.692-1.543-21.589,2.236-5.676,3.635-7.509,9.91-8.5,15.732-.742,4.381-1.172,8.991.856,13.094,1.411,2.847,3.916,5.24,5.649,7.968,6.028,9.489,1.766,21.192-4.767,30.465-3.064,4.352-6.619,8.493-8.983,13.121s-3.459,9.93-1.39,14.649c2.051,4.675,6.937,8.192,12.231,10.663,10.753,5.015,23.422,6.449,35.777,7.271,27.349,1.8,54.845,1.02,82.266.24,10.148-.29,20.342-.582,30.324-2.1,5.544-.84,11.268-2.171,15.293-5.385,5.108-4.081,6.376-10.99,2.952-16.108-5.743-8.582-21.621-10.715-25.636-19.925-2.208-5.07.06-10.718,3.272-15.42,6.887-10.086,18.433-18.935,19.041-30.465.419-7.919-5.132-15.849-13.715-19.6-8.995-3.932-21.469-3.435-28.1,3.063C184.9,93.923,172.893,96.5,162.6,96.155Z" transform="translate(-32.126 123.49)" fill="#a8a2ff"/>
    <g id="undraw_moments_0y20" transform="translate(59.939 216.122)">
      <path id="Path_806" data-name="Path 806" d="M719.2,375.356a.333.333,0,0,0-.333.333v22.83a.333.333,0,0,0,.333.333H751.01a.333.333,0,0,0,.332-.333v-22.83a.333.333,0,0,0-.332-.332Z" transform="translate(-656.638 -333.075)" fill="#e6e6e6"/>
      <path id="Path_807" data-name="Path 807" d="M763.393,388.814v16.225a.408.408,0,0,1-.408.408H735.443a.294.294,0,0,1-.058-.005.408.408,0,0,1-.351-.4V388.814a.408.408,0,0,1,.408-.408h27.542a.408.408,0,0,1,.408.408Z" transform="translate(-670.777 -344.634)" fill="#fff"/>
      <ellipse id="Ellipse_135" data-name="Ellipse 135" cx="1.48" cy="1.48" rx="1.48" ry="1.48" transform="translate(85.428 48.055)" fill="#ff6584"/>
      <ellipse id="Ellipse_136" data-name="Ellipse 136" cx="0.488" cy="0.488" rx="0.488" ry="0.488" transform="translate(62.697 41.846)" fill="#3f3d56"/>
      <ellipse id="Ellipse_137" data-name="Ellipse 137" cx="0.488" cy="0.488" rx="0.488" ry="0.488" transform="translate(93.201 41.846)" fill="#3f3d56"/>
      <ellipse id="Ellipse_138" data-name="Ellipse 138" cx="0.488" cy="0.488" rx="0.488" ry="0.488" transform="translate(62.697 65.138)" fill="#3f3d56"/>
      <ellipse id="Ellipse_139" data-name="Ellipse 139" cx="0.488" cy="0.488" rx="0.488" ry="0.488" transform="translate(93.201 65.138)" fill="#3f3d56"/>
      <ellipse id="Ellipse_140" data-name="Ellipse 140" cx="1.775" cy="1.775" rx="1.775" ry="1.775" transform="translate(71.557 52.064)" fill="#4f3dff"/>
      <path id="Path_808" data-name="Path 808" d="M584.587,407.211h-.364l.166-5.614Z" transform="translate(-511.084 -347.846)" fill="#3f3d56"/>
      <path id="Path_809" data-name="Path 809" d="M585.467,406.323l.39-.54-.4.674-.043-.075Z" transform="translate(-512.13 -351.652)" fill="#3f3d56"/>
      <path id="Path_810" data-name="Path 810" d="M582.733,410.68l-.39-.54.4.674.043-.075Z" transform="translate(-509.439 -355.428)" fill="#3f3d56"/>
      <ellipse id="Ellipse_141" data-name="Ellipse 141" cx="1.775" cy="1.775" rx="1.775" ry="1.775" transform="translate(87.841 52.064)" fill="#4f3dff"/>
      <path id="Path_811" data-name="Path 811" d="M714.662,407.211H714.3l.166-5.614Z" transform="translate(-624.875 -347.846)" fill="#3f3d56"/>
      <path id="Path_812" data-name="Path 812" d="M715.543,406.323l.39-.54-.4.674-.043-.075Z" transform="translate(-625.922 -351.652)" fill="#3f3d56"/>
      <path id="Path_813" data-name="Path 813" d="M712.81,410.68l-.39-.54.4.674.043-.075Z" transform="translate(-623.232 -355.428)" fill="#3f3d56"/>
      <ellipse id="Ellipse_142" data-name="Ellipse 142" cx="2.622" cy="2.622" rx="2.622" ry="2.622" transform="translate(75.852 49.565)" fill="#4f3dff"/>
      <path id="Path_814" data-name="Path 814" d="M625.1,396.5h-.537l.245-8.292Z" transform="translate(-546.377 -336.148)" fill="#3f3d56"/>
      <path id="Path_815" data-name="Path 815" d="M626.4,395.188l.576-.8-.584.995-.063-.11Z" transform="translate(-547.922 -341.769)" fill="#3f3d56"/>
      <path id="Path_816" data-name="Path 816" d="M622.367,401.623l-.576-.8.584,1,.063-.111Z" transform="translate(-543.949 -347.345)" fill="#3f3d56"/>
      <ellipse id="Ellipse_143" data-name="Ellipse 143" cx="2.622" cy="2.622" rx="2.622" ry="2.622" transform="translate(82.246 48.495)" fill="#4f3dff"/>
      <path id="Path_817" data-name="Path 817" d="M676.177,388.5h-.537l.245-8.292Z" transform="translate(-591.056 -329.221)" fill="#3f3d56"/>
      <path id="Path_818" data-name="Path 818" d="M677.477,387.189l.576-.8-.584,1-.063-.111Z" transform="translate(-592.601 -334.837)" fill="#3f3d56"/>
      <path id="Path_819" data-name="Path 819" d="M673.44,393.623l-.577-.8.584,1,.063-.111Z" transform="translate(-588.628 -340.412)" fill="#3f3d56"/>
      <ellipse id="Ellipse_144" data-name="Ellipse 144" cx="2.622" cy="2.622" rx="2.622" ry="2.622" transform="translate(65.662 48.495)" fill="#4f3dff"/>
      <path id="Path_820" data-name="Path 820" d="M543.706,388.5h-.537l.245-8.292Z" transform="translate(-475.169 -329.221)" fill="#3f3d56"/>
      <path id="Path_821" data-name="Path 821" d="M545.006,387.189l.577-.8-.584,1-.063-.111Z" transform="translate(-476.714 -334.837)" fill="#3f3d56"/>
      <path id="Path_822" data-name="Path 822" d="M540.97,393.623l-.576-.8.584,1,.063-.111Z" transform="translate(-472.742 -340.412)" fill="#3f3d56"/>
      <path id="Path_823" data-name="Path 823" d="M749.4,495.071H735.443a.289.289,0,0,1-.058-.005.407.407,0,0,1-.351-.4v-3.484a23.751,23.751,0,0,1,3.974-.323c4.954,0,9.1,1.42,10.137,3.32A1.911,1.911,0,0,1,749.4,495.071Z" transform="translate(-670.777 -433.83)" fill="#28282e"/>
      <path id="Path_824" data-name="Path 824" d="M850.813,507.87v.79a.408.408,0,0,1-.408.408h-15.44a7.868,7.868,0,0,1,1.6-.9,19.775,19.775,0,0,1,7.515-1.317A20.948,20.948,0,0,1,850.813,507.87Z" transform="translate(-758.197 -447.771)" fill="#28282e"/>
      <path id="Path_825" data-name="Path 825" d="M664.343,64.379a.331.331,0,0,0-.156.039l-28.08,14.937a.333.333,0,0,0-.137.45L646.691,99.96a.333.333,0,0,0,.45.137l28.08-14.937a.333.333,0,0,0,.138-.45L664.637,64.555a.331.331,0,0,0-.2-.162A.334.334,0,0,0,664.343,64.379Z" transform="translate(-584.08 -64.379)" fill="#e6e6e6"/>
      <path id="Path_826" data-name="Path 826" d="M681.626,84.164l7.619,14.324a.408.408,0,0,1-.169.552l-24.316,12.934a.341.341,0,0,1-.054.023.408.408,0,0,1-.5-.192L656.59,97.482a.408.408,0,0,1,.169-.552L681.074,84A.408.408,0,0,1,681.626,84.164Z" transform="translate(-602.111 -81.497)" fill="#fff"/>
      <ellipse id="Ellipse_145" data-name="Ellipse 145" cx="3.584" cy="3.584" rx="3.584" ry="3.584" transform="translate(59.68 14.133)" fill="#ff6584"/>
      <path id="Path_827" data-name="Path 827" d="M738.893,179.394l-15.521,8.256a.356.356,0,0,1-.06.026l.577-16.619a.582.582,0,0,1,.895-.476l9.465,5.912.453.283Z" transform="translate(-660.522 -157.205)" fill="#28282e"/>
      <path id="Path_828" data-name="Path 828" d="M588.983,156.964l-5.3,2.819.591-5.162.043-.372.021-.186.453.283Z" transform="translate(-510.612 -133.441)" opacity="0.2"/>
      <path id="Path_829" data-name="Path 829" d="M822.994,164.657,809.57,171.8l.591-5.162.043-.372.771-6.727a.777.777,0,0,1,.986-.6.7.7,0,0,1,.081.035Z" transform="translate(-735.982 -147.066)" fill="#28282e"/>
      <ellipse id="Ellipse_146" data-name="Ellipse 146" cx="0.488" cy="0.488" rx="0.488" ry="0.488" transform="translate(52.47 14.922)" fill="#3f3d56"/>
      <ellipse id="Ellipse_147" data-name="Ellipse 147" cx="0.488" cy="0.488" rx="0.488" ry="0.488" transform="translate(79.402 0.596)" fill="#3f3d56"/>
      <ellipse id="Ellipse_148" data-name="Ellipse 148" cx="0.488" cy="0.488" rx="0.488" ry="0.488" transform="translate(62.733 36.467)" fill="#3f3d56"/>
      <ellipse id="Ellipse_149" data-name="Ellipse 149" cx="0.488" cy="0.488" rx="0.488" ry="0.488" transform="translate(89.665 21.199)" fill="#3f3d56"/>
      <path id="Path_830" data-name="Path 830" d="M700.684,619.657a.333.333,0,0,0,.407-.236l5.869-22.063a.333.333,0,0,0-.236-.407l-30.737-8.176a.333.333,0,0,0-.407.236l-5.869,22.062a.333.333,0,0,0,.236.407Z" transform="translate(-613.622 -516.83)" fill="#e6e6e6"/>
      <path id="Path_831" data-name="Path 831" d="M726.944,613.258l-4.171,15.679a.408.408,0,0,1-.5.29l-26.616-7.08a.283.283,0,0,1-.054-.02.407.407,0,0,1-.235-.48l4.171-15.679a.408.408,0,0,1,.5-.289l26.616,7.08A.408.408,0,0,1,726.944,613.258Z" transform="translate(-636.065 -531.615)" fill="#fff"/>
      <path id="Path_832" data-name="Path 832" d="M723.366,722.83l-.592,2.227a.409.409,0,0,1-.5.29l-26.616-7.081a.291.291,0,0,1-.054-.02.408.408,0,0,1-.235-.48l.593-2.227Z" transform="translate(-636.065 -627.735)" fill="#28282e"/>
      <rect id="Rectangle_313" data-name="Rectangle 313" width="4.382" height="0.501" transform="translate(71.306 92.266) rotate(14.897)" fill="#fff"/>
      <rect id="Rectangle_314" data-name="Rectangle 314" width="4.382" height="0.501" transform="translate(61.567 89.675) rotate(14.897)" fill="#fff"/>
      <rect id="Rectangle_315" data-name="Rectangle 315" width="4.382" height="0.501" transform="translate(81.045 94.857) rotate(14.897)" fill="#fff"/>
      <ellipse id="Ellipse_150" data-name="Ellipse 150" cx="0.488" cy="0.488" rx="0.488" ry="0.488" transform="translate(62.264 70.472)" fill="#3f3d56"/>
      <ellipse id="Ellipse_151" data-name="Ellipse 151" cx="0.488" cy="0.488" rx="0.488" ry="0.488" transform="translate(91.743 78.83)" fill="#3f3d56"/>
      <ellipse id="Ellipse_152" data-name="Ellipse 152" cx="0.488" cy="0.488" rx="0.488" ry="0.488" transform="translate(56.646 93.528)" fill="#3f3d56"/>
      <ellipse id="Ellipse_153" data-name="Ellipse 153" cx="0.488" cy="0.488" rx="0.488" ry="0.488" transform="translate(86.125 101.371)" fill="#3f3d56"/>
      <rect id="Rectangle_316" data-name="Rectangle 316" width="2.435" height="0.387" transform="translate(83.109 94.706) rotate(-165.073)" fill="#3f3d56"/>
      <path id="Path_833" data-name="Path 833" d="M731.516,677.49l.456.241,18.451,4.919.269-.343a4.037,4.037,0,0,0,.848-2.034,1.7,1.7,0,0,0-.387-1.489l.632-5.672-10.2-2.734-4.8,2.135a4.093,4.093,0,0,0-3.2.462,3.063,3.063,0,0,0-1.052,1.465l-.214.645Z" transform="translate(-667.699 -588.227)" fill="#4f3dff"/>
      <ellipse id="Ellipse_154" data-name="Ellipse 154" cx="2.358" cy="2.358" rx="2.358" ry="2.358" transform="translate(65.536 87.892)" fill="#3f3d56"/>
      <ellipse id="Ellipse_155" data-name="Ellipse 155" cx="1.241" cy="1.241" rx="1.241" ry="1.241" transform="translate(66.653 89.009)" fill="#ccc"/>
      <ellipse id="Ellipse_156" data-name="Ellipse 156" cx="2.358" cy="2.358" rx="2.358" ry="2.358" transform="translate(76.779 90.889)" fill="#3f3d56"/>
      <ellipse id="Ellipse_157" data-name="Ellipse 157" cx="1.241" cy="1.241" rx="1.241" ry="1.241" transform="translate(77.896 92.006)" fill="#ccc"/>
      <path id="Path_834" data-name="Path 834" d="M565.159,612.954l5.512,1.469.673.179,1.136.3.022-.083.267-1,.3-1.122-.756-.2-.673-.18L570.447,612l-.673-.179-1.376-.367Z" transform="translate(-494.406 -529.74)" fill="#fff"/>
      <path id="Path_835" data-name="Path 835" d="M630.8,625.513l2.913.777.153-.572.266-1,.169-.633-.427-.114-.673-.18-1.814-.484Z" transform="translate(-551.826 -538.991)" fill="#fff"/>
      <rect id="Rectangle_317" data-name="Rectangle 317" width="0.387" height="0.734" transform="translate(77.446 88.636) rotate(-165.073)" fill="#3f3d56"/>
      <rect id="Rectangle_318" data-name="Rectangle 318" width="0.387" height="0.734" transform="translate(72.078 85.364) rotate(104.927)" fill="#3f3d56"/>
      <path id="Path_836" data-name="Path 836" d="M0,0H.043A.808.808,0,0,1,.85.808h0a.808.808,0,0,1-.808.808H0Z" transform="translate(71.772 85.459) rotate(-165.073)" fill="#3f3d56"/>
      <path id="Path_837" data-name="Path 837" d="M737.9,693.232a1.249,1.249,0,0,0,1.266-2.11,3.061,3.061,0,0,0-1.052,1.465Z" transform="translate(-673.281 -606.374)" fill="#3f3d56"/>
      <path id="Path_838" data-name="Path 838" d="M616.918,618.356l.863,2.5.267-1-.457-1.323Z" transform="translate(-539.686 -534.658)" fill="#f2f2f2"/>
      <path id="Path_839" data-name="Path 839" d="M649.978,627.171l.664,1.925.266-1-.257-.746Z" transform="translate(-568.607 -542.369)" fill="#f2f2f2"/>
      <path id="Path_840" data-name="Path 840" d="M602.024,614.387l.9,2.6.673.179-.9-2.6Z" transform="translate(-526.656 -532.316)" fill="#f2f2f2"/>
      <ellipse id="Ellipse_158" data-name="Ellipse 158" cx="1.502" cy="1.502" rx="1.502" ry="1.502" transform="translate(3.507 38.252)" fill="#7f73f6"/>
      <path id="Path_841" data-name="Path 841" d="M255.353,351.825a1.5,1.5,0,0,1-1.644,2.47,1.5,1.5,0,1,0,1.644-2.47Z" transform="translate(-249.709 -313.425)" opacity="0.2"/>
      <ellipse id="Ellipse_159" data-name="Ellipse 159" cx="3.693" cy="1.502" rx="3.693" ry="1.502" transform="translate(39.938 39.989)" fill="#3f3d56"/>
      <path id="Path_842" data-name="Path 842" d="M567.651,363.692q-.19,0-.375.008c1.863.077,3.317.717,3.317,1.495s-1.454,1.418-3.317,1.495q.185.008.375.008c2.04,0,3.693-.673,3.693-1.5S569.69,363.692,567.651,363.692Z" transform="translate(-524.02 -323.703)" opacity="0.2"/>
      <path id="Path_843" data-name="Path 843" d="M270.224,359.071H251.7v-2a.376.376,0,0,0-.376-.376H241.054a.376.376,0,0,0-.376.376v2H229.912v-1.252a.376.376,0,0,0-.376-.376h-5.508a.376.376,0,0,0-.376.376v1.252h-1.5a.375.375,0,0,0-.376.376v24.663a.375.375,0,0,0,.376.376h48.073a.375.375,0,0,0,.376-.376V359.446a.375.375,0,0,0-.376-.376Z" transform="translate(-221.773 -316.752)" fill="#28282e"/>
      <path id="Path_844" data-name="Path 844" d="M270.207,561.375H222.134a.375.375,0,0,1-.376-.376v1.753a.375.375,0,0,0,.376.376h48.073a.375.375,0,0,0,.376-.376V561a.375.375,0,0,1-.376.375Z" transform="translate(-221.758 -494.689)" opacity="0.2"/>
      <rect id="Rectangle_319" data-name="Rectangle 319" width="48.824" height="4.757" transform="translate(0.002 53.948)" opacity="0.2"/>
      <rect id="Rectangle_320" data-name="Rectangle 320" width="48.824" height="4.757" transform="translate(0.002 51.407)" opacity="0.2"/>
      <rect id="Rectangle_321" data-name="Rectangle 321" width="48.824" height="4.757" transform="translate(0.002 52.611)" fill="#4f3dff"/>
      <ellipse id="Ellipse_160" data-name="Ellipse 160" cx="9.514" cy="9.514" rx="9.514" ry="9.514" transform="translate(14.9 45.517)" fill="#7f73f6"/>
      <path id="Path_845" data-name="Path 845" d="M366.768,428.228a9.514,9.514,0,0,1-15.534,10.883,9.514,9.514,0,1,0,15.534-10.883Z" transform="translate(-335.025 -379.141)" fill="#4f3dff" opacity="0.2"/>
      <ellipse id="Ellipse_161" data-name="Ellipse 161" cx="7.081" cy="7.081" rx="7.081" ry="7.081" transform="translate(17.334 47.935)" fill="#3f3d56"/>
      <path id="Path_846" data-name="Path 846" d="M383.781,438.2a5.473,5.473,0,0,1-.447,2.175,5.4,5.4,0,0,1-.595,1.048,5.508,5.508,0,1,1-7.689-7.689,5.407,5.407,0,0,1,1.048-.595,5.509,5.509,0,0,1,7.683,5.062Z" transform="translate(-353.858 -383.193)" fill="#fff"/>
      <path id="Path_847" data-name="Path 847" d="M389.779,445.555a5.5,5.5,0,0,0-2.059-3.539,5.509,5.509,0,0,1,.419,5.139,5.4,5.4,0,0,1-.595,1.048,5.505,5.505,0,0,1-7.858,1.117,5.506,5.506,0,0,0,9.11.261,5.4,5.4,0,0,0,.595-1.048A5.51,5.51,0,0,0,389.779,445.555Z" transform="translate(-359.915 -391.312)" opacity="0.2"/>
    </g>
  </g>
</svg>
