<svg id="undraw_neighbors_ciwb_1_" data-name="undraw_neighbors_ciwb (1)" xmlns="http://www.w3.org/2000/svg" width="336.875" height="160.728" viewBox="0 0 336.875 160.728">
  <path id="Path_438" data-name="Path 438" d="M436.979,351.664l-1.651,1.692-.16-3.357-.2,4.956-1.521-1.56,1.508,1.9-.5,12.532h1.559l-.671-14.105Z" transform="translate(-269.014 -217.223)" fill="#279259"/>
  <path id="Path_439" data-name="Path 439" d="M445.077,362.664l-1.651,1.692-.16-3.357-.2,4.956-1.522-1.56,1.508,1.9-.5,12.532h1.558l-.671-14.105Z" transform="translate(-274.04 -224.05)" fill="#279259"/>
  <path id="Path_440" data-name="Path 440" d="M457.225,356.664l-1.651,1.692-.16-3.357-.2,4.956L453.7,358.4l1.508,1.9-.5,12.532h1.558l-.671-14.105Z" transform="translate(-281.58 -220.326)" fill="#279259"/>
  <path id="Path_441" data-name="Path 441" d="M427.53,361.664l-1.651,1.692-.16-3.357-.2,4.956L424,363.4l1.508,1.9-.5,12.532h1.559l-.671-14.105Z" transform="translate(-263.15 -223.429)" fill="#279259"/>
  <rect id="Rectangle_201" data-name="Rectangle 201" width="124.431" height="159.333" transform="translate(4.932)" fill="rgba(92,133,181,0.18)"/>
  <rect id="Rectangle_202" data-name="Rectangle 202" width="107.654" height="68.158" transform="translate(13.191 9.608)" fill="#fff"/>
  <rect id="Rectangle_203" data-name="Rectangle 203" width="107.656" height="73.05" transform="translate(13.19 74.97)" fill="#fff"/>
  <rect id="Rectangle_204" data-name="Rectangle 204" width="5.592" height="68.507" transform="translate(64.222 9.258)" fill="#5c85b5"/>
  <rect id="Rectangle_205" data-name="Rectangle 205" width="5.592" height="68.507" transform="translate(115.253 9.258)" fill="#5c85b5"/>
  <rect id="Rectangle_206" data-name="Rectangle 206" width="107.654" height="5.592" transform="translate(13.191 72.173)" fill="#5c85b5"/>
  <path id="Path_442" data-name="Path 442" d="M59.135,122.067l-9.621,6.467v5.351L64.09,122.067Z" transform="translate(-30.73 -75.759)" fill="#fff"/>
  <rect id="Rectangle_207" data-name="Rectangle 207" width="5.592" height="68.507" transform="translate(13.191 9.258)" fill="#5c85b5"/>
  <rect id="Rectangle_208" data-name="Rectangle 208" width="107.654" height="5.592" transform="translate(13.191 9.258)" fill="#5c85b5"/>
  <rect id="Rectangle_209" data-name="Rectangle 209" width="107.654" height="5.592" transform="translate(13.191 40.716)" fill="#5c85b5"/>
  <rect id="Rectangle_210" data-name="Rectangle 210" width="124.431" height="159.333" transform="translate(208.65)" fill="rgba(92,133,181,0.18)"/>
  <rect id="Rectangle_211" data-name="Rectangle 211" width="107.654" height="68.158" transform="translate(216.901 9.407)" fill="#fff"/>
  <rect id="Rectangle_212" data-name="Rectangle 212" width="107.652" height="73.05" transform="translate(216.901 74.769)" fill="#fff"/>
  <rect id="Rectangle_213" data-name="Rectangle 213" width="5.592" height="68.507" transform="translate(267.931 9.058)" fill="#5c85b5"/>
  <rect id="Rectangle_214" data-name="Rectangle 214" width="5.592" height="68.507" transform="translate(318.962 9.058)" fill="#5c85b5"/>
  <rect id="Rectangle_215" data-name="Rectangle 215" width="107.654" height="5.592" transform="translate(216.901 71.973)" fill="#5c85b5"/>
  <rect id="Rectangle_216" data-name="Rectangle 216" width="5.592" height="68.507" transform="translate(216.901 9.058)" fill="#5c85b5"/>
  <rect id="Rectangle_217" data-name="Rectangle 217" width="107.654" height="5.592" transform="translate(216.901 9.058)" fill="#5c85b5"/>
  <rect id="Rectangle_218" data-name="Rectangle 218" width="107.654" height="5.592" transform="translate(216.901 40.515)" fill="#5c85b5"/>
  <path id="Path_448" data-name="Path 448" d="M856.884,478.9s.41,1.365-1.911,2.594-3,5.87-.273,7.235,3.549,3.14,2.184,4.368-3.822,4.5-.546,5.324,3.686,2.457,2.73,3.14,2.184-1.229,2.184-1.229.546,3.276,3.413,2.457,10.921-16.381,6.825-18.565S856.884,478.9,856.884,478.9Z" transform="translate(-588.537 -387.575)" fill="#2f2e41"/>
  <path id="Path_449" data-name="Path 449" d="M802.076,526.784l-13.1,9.2s-9.912-10.266-9.912-16.284-5.31-17.346-7.788-12.744,2.832,15.576,2.832,15.576l9.912,23.364s5.664,1.062,8.85-1.416,12.036-7.434,12.036-7.434Z" transform="translate(-537.455 -404.321)" fill="#ffb9b9"/>
  <circle id="Ellipse_36" data-name="Ellipse 36" cx="9.912" cy="9.912" r="9.912" transform="translate(267.63 87.239)" fill="#ffb9b9"/>
  <path id="Path_450" data-name="Path 450" d="M856.695,510.13s3.54,9.2,2.124,11.328-3.186,2.124-4.6,2.832c-.708.354-8.142,3.186-8.142,5.31a8.448,8.448,0,0,0,1.062,3.894l1.062,6.018,8.85,5.664,11.682-1.416,8.85-4.956s1.416-13.1-2.478-15.222-8.5-7.08-8.142-8.85.708-6.018.708-6.018Z" transform="translate(-584.285 -406.076)" fill="#ffb9b9"/>
  <path id="Path_451" data-name="Path 451" d="M868.511,569.469v.011l-.319,3.126-.406,4.01-.463,4.533-.524,5.178H841.147c-.345-2.83-.956-5.831-2.022-7.656a5.874,5.874,0,0,1-.85-3.631c.239-2.371,1.912-4.025,1.912-4.511,0-.531-2.982-3.646-4.473-5.174-.5-.512-.835-.846-.835-.846l4.6-3.539.065.11.645,1.131,2.121,3.714-.706,2.834s1.1.19,2.621.432a75.147,75.147,0,0,0,8.35.983c1.661,0,3.691.854,5.368,1.343l.152.046a3.483,3.483,0,0,0,2.526.091.877.877,0,0,0,.1-.064,4.181,4.181,0,0,1,.956-.482h0a27.818,27.818,0,0,1,3.756-1.039c1.434-.315,2.694-.535,3-.588l0,0,0,0Z" transform="translate(-577.338 -438.508)" fill="#0c385d"/>
  <path id="Path_452" data-name="Path 452" d="M906.064,560.825c-.026.19-.049.383-.072.573-.11.835-.2,1.669-.281,2.5q-.33,3.323-.4,6.665a13.92,13.92,0,0,1-.262,2.477,38.566,38.566,0,0,1-1.419,5.178H893.61c.266-1.973.622-5.008.8-8.187v0c.027-.493.046-.99.064-1.487a47.464,47.464,0,0,0-.068-5.011c0-.042,0-.083-.008-.121-.019-.216-.038-.425-.057-.634-.706-7.079,3.539-14.867,3.539-14.867a6.513,6.513,0,0,1,4.093,1.885A12.589,12.589,0,0,1,906.064,560.825Z" transform="translate(-613.788 -430.403)" fill="#ffb9b9"/>
  <path id="Path_453" data-name="Path 453" d="M905.189,595.674a13.909,13.909,0,0,1-.262,2.477,38.532,38.532,0,0,1-1.419,5.178h-10.1a71.92,71.92,0,0,0,.285-9.6c-.019-.47-.046-.948-.083-1.423V592.3q-.04-.615-.1-1.229a3.874,3.874,0,0,1,.076-1.419v-.008a1.67,1.67,0,0,1,.55-.9.989.989,0,0,1,.144-.1.75.75,0,0,1,.144-.076.989.989,0,0,1,.144-.064,2.669,2.669,0,0,1,1.229-.106,5.662,5.662,0,0,1,1.153.262,16.5,16.5,0,0,1,4.624,2.6,16.807,16.807,0,0,1,2.538,2.36A3.763,3.763,0,0,1,905.189,595.674Z" transform="translate(-613.663 -455.51)" opacity="0.1"/>
  <path id="Path_454" data-name="Path 454" d="M892.732,587.272l1.129,4.779,6.305,3.009h5.31l2.478-11.328s-4.375-.925-6.613.245-7.492,1.451-7.492,1.451Z" transform="translate(-613.243 -452.419)" fill="#0c385d"/>
  <path id="Path_455" data-name="Path 455" d="M880.64,468.026s.454,1.512-2.117,2.873-3.327,6.5-.3,8.015,3.932,3.478,2.42,4.839-4.234,4.99-.6,5.9,4.083,2.722,3.025,3.478,2.42-1.361,2.42-1.361.6,3.629,3.781,2.722,6.344-17.4,2.8-21.649C888.772,468.892,880.64,468.026,880.64,468.026Z" transform="translate(-603.016 -380.823)" fill="#2f2e41"/>
  <path id="Path_456" data-name="Path 456" d="M885.267,462.522c0-2.216,13.771.217,16.613,3.31,1.968,2.142,4.957,5.365,2.452,7.637s-2.848,4.41-1.025,5.313,5.423,3.664,2.173,5.516-3.2,3.722-1.975,4.165-2.7-.658-2.7-.658.4,3.658-2.907,3.641-12.778-18.169-10.515-23.214C889.491,463.539,885.267,462.522,885.267,462.522Z" transform="translate(-608.609 -376.876)" fill="#2f2e41"/>
  <path id="Path_457" data-name="Path 457" d="M873.1,462.593c-8.864-.534-9.753,6.138-9.753,6.138.061,3.861,6.193,1.98,7.9,2.555,2.055-1.478,6.015-4.275,8.847-6.27A13.4,13.4,0,0,0,873.1,462.593Z" transform="translate(-595.002 -377.433)" fill="#2f2e41"/>
  <path id="Path_458" data-name="Path 458" d="M572.173,622.161l.693,4.363a9.674,9.674,0,0,0,19.348,0l0-.06.688-4.3Z" transform="translate(-414.292 -476.485)" fill="#313131"/>
  <rect id="Rectangle_219" data-name="Rectangle 219" width="336.875" height="0.759" transform="translate(0 159.272)" fill="#3f3d56"/>
  <path id="Path_459" data-name="Path 459" d="M235.789,625.589v2.23s-1.487,11.522-5.575,11.522-.743-11.894-.743-11.894v-1.858Z" transform="translate(-200.798 -478.613)" fill="#9e616a"/>
  <path id="Path_460" data-name="Path 460" d="M406.272,496.843l-.743-1.858s-4.832-7.062-1.487-8.92,7.434,7.434,7.434,7.434l.743,2.973Z" transform="translate(-309.212 -391.866)" fill="#9e616a"/>
  <circle id="Ellipse_37" data-name="Ellipse 37" cx="9.811" cy="9.811" r="9.811" transform="translate(71.825 83.087)" fill="#9e616a"/>
  <path id="Path_461" data-name="Path 461" d="M185.632,247.816l-6.69,5.2,9.292,7.805,5.2-6.318Z" transform="translate(-111.058 -153.804)" fill="#9e616a"/>
  <path id="Path_462" data-name="Path 462" d="M312.775,545.039H278.61l2.591-27.477,1.923-20.406v0a3.344,3.344,0,0,1,3.65-3.016l14.177,1.343,10.433,6,.3,2.75,10.41,7.432-7.075,13.46-4.45,8.471Z" transform="translate(-232.096 -397.019)" fill="#0c385d"/>
  <path id="Path_463" data-name="Path 463" d="M251.211,515.328l-9.664,12.637-5.947,17.84h-8.92L233,519.417l16.678-22.805a3.359,3.359,0,0,1,3.845-1.171,3.05,3.05,0,0,0,.662.189Z" transform="translate(-199.867 -397.714)" fill="#0c385d"/>
  <path id="Path_464" data-name="Path 464" d="M215.681,296.35l23.23,9.478L243,301.739l-5.761-29.92-7.434,1.487,2.973,17.84-8.92-7.805-2.974-.744Z" transform="translate(-133.859 -168.701)" fill="#0c385d"/>
  <path id="Path_465" data-name="Path 465" d="M345.568,465.811a25.551,25.551,0,0,1,1.277-11.57c2.177-5.843,9.117-4.082,13.069-2.757s9.189,6.868,7.826,9.893-7.829-.8-10.136-2.745-6.337,3.969-6.337,3.969Z" transform="translate(-273.539 -369.736)" fill="#2f2e41"/>
  <ellipse id="Ellipse_38" data-name="Ellipse 38" cx="1.92" cy="1.066" rx="1.92" ry="1.066" transform="translate(76.32 93.638) rotate(-70.023)" fill="#9e616a"/>
</svg>
