<svg xmlns="http://www.w3.org/2000/svg" width="11.667" height="13.295" viewBox="0 0 11.667 13.295">
  <g id="save-2-svgrepo-com" transform="translate(0.5 0.5)">
    <path id="Path_851" data-name="Path 851" d="M10.3,5.88H4.369A2.377,2.377,0,0,0,2,8.249V16.9c0,1.1.792,1.577,1.76,1.036l2.994-1.669a1.325,1.325,0,0,1,1.15,0L10.9,17.941c.968.541,1.76.069,1.76-1.036V8.249A2.366,2.366,0,0,0,10.3,5.88Z" transform="translate(-2 -5.88)" fill="none" stroke="#292d32" stroke-linecap="round" stroke-linejoin="round" stroke-width="1"/>
    <path id="Path_852" data-name="Path 852" d="M12.667,8.249V16.9c0,1.1-.792,1.57-1.76,1.036L7.912,16.272a1.341,1.341,0,0,0-1.158,0L3.76,17.941C2.792,18.474,2,18.009,2,16.9V8.249A2.377,2.377,0,0,1,4.369,5.88H10.3A2.377,2.377,0,0,1,12.667,8.249Z" transform="translate(-2 -5.88)" fill="none" stroke="#292d32" stroke-linecap="round" stroke-linejoin="round" stroke-width="1"/>
  </g>
</svg>
