<svg width="20" height="20" viewBox="0 0 20 20" fill="none" xmlns="http://www.w3.org/2000/svg">
<path d="M6.0185 14.0642C5.04219 13.0878 5.04219 11.5049 6.0185 10.5286C6.99481 9.55231 8.57772 9.55231 9.55403 10.5286L13.5563 14.5308C14.5326 15.5072 14.5326 17.0901 13.5563 18.0664C12.5799 19.0427 10.997 19.0427 10.0207 18.0664L6.0185 14.0642Z" fill="#5C85B5"/>
<path d="M11.7857 6V10M13.7857 8H9.78569M6.90569 12.88L3.66569 16.12M9.05569 14.73C10.024 15.7113 10.024 17.2887 9.05569 18.27C8.07435 19.2383 6.49703 19.2383 5.51569 18.27L1.51569 14.27C0.547342 13.2887 0.547342 11.7113 1.51569 10.73C2.49702 9.76165 4.07436 9.76165 5.05569 10.73L9.05569 14.73Z" stroke="black" stroke-width="1.5" stroke-linecap="round" stroke-linejoin="round"/>
<path d="M4.78564 6V2C4.78564 1.44772 5.23336 1 5.78564 1H17.7856C18.3379 1 18.7856 1.44772 18.7856 2V18C18.7856 18.5523 18.3379 19 17.7856 19H13.7856" stroke="black" stroke-width="1.5" stroke-linecap="round" stroke-linejoin="round"/>
</svg>
