<svg width="14" height="16" viewBox="0 0 14 16" fill="none" xmlns="http://www.w3.org/2000/svg">
<path d="M4.09483 8.875L9.23766 12.8125M9.23766 3.625L4.09483 7.125M0.66626 8.0357V7.9643C0.66626 7.0175 1.43377 6.25 2.38055 6.25C3.32732 6.25 4.09483 7.0175 4.09483 7.9643V8.0357C4.09483 8.9825 3.32732 9.75 2.38055 9.75C1.43377 9.75 0.66626 8.9825 0.66626 8.0357ZM9.23766 2.78571V2.71429C9.23766 1.76751 10.0052 1 10.952 1C11.8988 1 12.6663 1.76751 12.6663 2.71429V2.78571C12.6663 3.73249 11.8988 4.5 10.952 4.5C10.0052 4.5 9.23766 3.73249 9.23766 2.78571ZM9.23766 13.2857V13.2143C9.23766 12.2675 10.0052 11.5 10.952 11.5C11.8988 11.5 12.6663 12.2675 12.6663 13.2143V13.2857C12.6663 14.2325 11.8988 15 10.952 15C10.0052 15 9.23766 14.2325 9.23766 13.2857Z" stroke="black" stroke-linecap="round" stroke-linejoin="round"/>
</svg>
