<svg xmlns="http://www.w3.org/2000/svg" xmlns:xlink="http://www.w3.org/1999/xlink" width="17" height="23.231" viewBox="0 0 17 23.231">
  <defs>
    <clipPath id="clip-path">
      <rect id="Rectangle_308" data-name="Rectangle 308" width="17" height="23.231" transform="translate(0.095 0.011)" fill="#717171"/>
    </clipPath>
  </defs>
  <g id="file-contract-svgrepo-com" transform="translate(-0.095 -0.011)" clip-path="url(#clip-path)">
    <path id="Path_784" data-name="Path 784" d="M6.8,23.677a3.634,3.634,0,0,0-.4-.059c-.987-.04-1.974-.06-2.96-.117a16.093,16.093,0,0,1-1.693-.2A1.8,1.8,0,0,1,.535,21.693C.5,20.99.478,20.286.47,19.582Q.411,14.544.364,9.506C.344,7.542.338,5.577.309,3.613A4.287,4.287,0,0,1,.479,1.932a3.43,3.43,0,0,1,.483-.868A1.077,1.077,0,0,1,1.809.7C2.566.676,3.324.672,4.079.616,6.622.427,9.163.579,11.706.6a1.706,1.706,0,0,1,.742.152,1.865,1.865,0,0,1,.627.466c.822.868,1.705,1.664,2.558,2.5.325.317.625.665.957.972a1.456,1.456,0,0,1,.444,1.11c.025,1.274.047,2.548.075,3.822.045,2.039.113,4.076.137,6.116.018,1.483-.02,2.968-.033,4.452,0,.51-.019,1.019-.016,1.529a1.731,1.731,0,0,1-1.722,1.843c-1.622.031-3.245.044-4.867.068a3.069,3.069,0,0,0-.4.056ZM11.493,1.715c-.255-.021-.457-.049-.659-.053q-2.576-.046-5.153-.083-1.135-.017-2.271-.025c-.391,0-.784-.016-1.174.009-.523.034-.711.2-.781.777A13.254,13.254,0,0,0,1.375,3.9c0,.584.05,1.168.054,1.752q.018,2.834.016,5.668,0,4.813,0,9.626a2.306,2.306,0,0,0,.043.49c.144.653.477.947,1.012.96.757.019,1.514.085,2.271.082,2.719-.01,5.437-.042,8.156-.063.784-.006,1.569.013,2.352-.006.593-.015.87-.333.863-.978-.014-1.409-.042-2.817-.066-4.225-.007-.42-.022-.839-.036-1.259-.044-1.318-.113-2.636-.13-3.955-.021-1.739,0-3.479,0-5.218q0-.146-.022-.291c-.888,0-1.739.007-2.59,0a3.184,3.184,0,0,1-.763-.093c-.528-.139-.69-.36-.745-.964-.047-.522-.078-1.045-.121-1.568C11.616,3.159,11.556,2.461,11.493,1.715Zm1.139.749-.077.03c.131.957.263,1.914.393,2.862a10.579,10.579,0,0,0,2.359-.2Z" transform="translate(-0.182 -0.443)" fill="#717171"/>
    <path id="Path_785" data-name="Path 785" d="M31.675,83.493l-4.138,0a3.254,3.254,0,0,1-.566-.043c-.3-.055-.439-.21-.421-.443.017-.212.155-.319.457-.333.27-.012.541-.005.811-.017,1.837-.077,3.674-.177,5.512-.229,1.135-.032,2.272,0,3.408.016.367,0,.572.255.437.547a.616.616,0,0,1-.364.307,5.112,5.112,0,0,1-1.118.17c-1.339.019-2.678.008-4.017.008Z" transform="translate(-23.266 -71.397)" fill="#717171"/>
    <path id="Path_786" data-name="Path 786" d="M26.824,103.088c-.074-.522.022-.66.451-.689.607-.041,1.215-.087,1.822-.089q3.649-.013,7.3,0a7.135,7.135,0,0,1,.806.073.334.334,0,0,1,.238.114.409.409,0,0,1,.1.264.4.4,0,0,1-.3.419,1.289,1.289,0,0,1-.4.057c-1.757-.016-3.513-.04-5.27-.057-1.257-.012-2.514-.013-3.772-.028C27.477,103.152,27.156,103.112,26.824,103.088Z" transform="translate(-23.489 -88.631)" fill="#717171"/>
    <path id="Path_787" data-name="Path 787" d="M27.862,120.485c-.1-.364-.078-.471.137-.552a1.536,1.536,0,0,1,.555-.1c1.676.02,3.353.037,5.029.083,1.325.036,2.648.112,3.972.171a1.751,1.751,0,0,1,.323.032.4.4,0,0,1,.253.152.492.492,0,0,1,0,.6.4.4,0,0,1-.254.15,1.6,1.6,0,0,1-.4.023c-.8-.034-1.594-.065-2.39-.114-1.377-.086-2.752-.192-4.129-.275-.729-.044-1.459-.055-2.188-.089C28.467,120.552,28.173,120.513,27.862,120.485Z" transform="translate(-24.373 -103.82)" fill="#717171"/>
    <path id="Path_788" data-name="Path 788" d="M91.1,140.069c-.269-.013-.538-.021-.806-.042a2.342,2.342,0,0,1-.355-.072.259.259,0,0,1-.172-.11.314.314,0,0,1-.054-.212.346.346,0,0,1,.076-.227.283.283,0,0,1,.2-.105c.213-.03.428-.049.643-.064.4-.028.806-.053,1.209-.07a1.588,1.588,0,0,1,.361.031.374.374,0,0,1,.346.367.44.44,0,0,1-.069.276.367.367,0,0,1-.216.158,3.492,3.492,0,0,1-.637.1c-.174.015-.349,0-.524,0Z" transform="translate(-78.82 -120.57)" fill="#717171"/>
    <path id="Path_789" data-name="Path 789" d="M22.625,66.537c.31,0,.621,0,.931,0a.42.42,0,0,1,.506.3.3.3,0,0,1-.009.221.267.267,0,0,1-.064.088.237.237,0,0,1-.091.052,1.046,1.046,0,0,1-.392.075c-.607-.021-1.213-.055-1.82-.09a1.316,1.316,0,0,1-.276-.063c-.132-.037-.241-.134-.195-.283a.549.549,0,0,1,.237-.256c.062-.04.158-.016.239-.016.311,0,.621,0,.932,0Z" transform="translate(-18.567 -57.638)" fill="#717171"/>
  </g>
</svg>
